<svg xmlns="http://www.w3.org/2000/svg" viewBox="0 0 993.83 280.28"><title>logotype</title><path d="M37.37,215.52q-11.26-2.36-25.17-6.29-6.46-1.84-9.94-2.52A2.81,2.81,0,0,1,0,203.81l2.11-43.3a2.81,2.81,0,0,1,2.81-2.67H21.11a2.81,2.81,0,0,1,2.77,2.34l5.21,30.59a2.7,2.7,0,0,0,.79,1.53q3.54,3.28,11.56,5.92A64.27,64.27,0,0,0,61.5,201.1q17.55,0,26.35-7.74t8.78-21.63a24.93,24.93,0,0,0-5.25-15.86A50.3,50.3,0,0,0,77,143.81a261.45,261.45,0,0,0-25.17-12.45q-21.76-10-36-23.73T1.45,70.27A48.52,48.52,0,0,1,9.06,43.65q7.59-11.92,22.68-18.87t36.83-7a125,125,0,0,1,22.68,1.83q9.84,1.85,21.37,5c3.2.86,5.83,1.5,7.91,1.93a2.79,2.79,0,0,1,2.23,2.85l-1.39,40.75a2.81,2.81,0,0,1-2.81,2.71H102.67a2.81,2.81,0,0,1-2.77-2.34L95,41.64a2.78,2.78,0,0,0-1.06-1.76,29.9,29.9,0,0,0-8.56-3.83,52.35,52.35,0,0,0-15.73-2.23Q53.9,33.82,45.9,41t-8,19.27a25.34,25.34,0,0,0,5.9,16.78A52.58,52.58,0,0,0,58.09,89q8.38,4.86,26.48,13.77a230.64,230.64,0,0,1,25.17,13.89,65.84,65.84,0,0,1,18.09,17.7q7.61,10.89,7.6,25.57a56.3,56.3,0,0,1-7.21,27.53q-7.22,13.11-23.59,21.76t-41.82,8.65A125,125,0,0,1,37.37,215.52Z"/><path d="M174.5,209.75q-7.87-7.6-7.87-24.12V92.22a2.81,2.81,0,0,0-2.81-2.81H152.4a2.81,2.81,0,0,1-2.81-2.81V77.73a2.82,2.82,0,0,1,1.85-2.64L157.19,73q5.19-1.84,8.05-3.12a2.71,2.71,0,0,0,.65-.4q4.26-3.45,7.3-11.56,2.25-5.23,8.06-25.23a2.82,2.82,0,0,1,2.7-2h16.13a2.81,2.81,0,0,1,2.81,2.73l.9,33.07a2.81,2.81,0,0,0,2.81,2.74h34.57A2.81,2.81,0,0,1,244,72V86.6a2.81,2.81,0,0,1-2.81,2.81H206.94a2.8,2.8,0,0,0-2.81,2.81v70.86a186.28,186.28,0,0,0,.78,20.72c.53,4,1.66,6.6,3.41,7.73s4.81,1.7,9.18,1.7a67.69,67.69,0,0,0,13.63-1.44,65.33,65.33,0,0,0,9.11-2.46,2.81,2.81,0,0,1,3.64,1.72l3.35,9.89a2.8,2.8,0,0,1-1.1,3.25q-7.2,4.77-19.72,8.71a91.48,91.48,0,0,1-27.53,4.46Q182.37,217.36,174.5,209.75Z"/><path d="M275.05,279.5a49.67,49.67,0,0,1-5.73-1.14,2.79,2.79,0,0,1-2-2.7V253.58a2.79,2.79,0,0,1,3.5-2.72q1.62.42,3.84.84a53.64,53.64,0,0,0,10,1.05q13.1,0,21.63-8.65,7.69-7.82,14.43-25.27a2.82,2.82,0,0,0-2.62-3.83h-8.18a2.81,2.81,0,0,1-2.62-1.8L259.16,89.13a2.78,2.78,0,0,0-1.84-1.68L248.89,85a2.82,2.82,0,0,1-2-2.7V72a2.81,2.81,0,0,1,2.81-2.81h66.48A2.81,2.81,0,0,1,319,72V82a2.8,2.8,0,0,1-2.35,2.77L303,87a2.81,2.81,0,0,0-2.22,3.63l22.34,69.53,6.55,21.47a2.81,2.81,0,0,0,5.4-.11l5.61-21.36,20.62-69.65A2.81,2.81,0,0,0,359.17,87L348,84.86a2.8,2.8,0,0,1-2.28-2.76V72a2.81,2.81,0,0,1,2.81-2.81h51.27A2.81,2.81,0,0,1,402.6,72V82.22A2.81,2.81,0,0,1,400.46,85l-9.19,2.25a2.82,2.82,0,0,0-2,1.86q-14.17,43.25-28.09,83.46-14.07,40.62-16.49,45.81l-.06.15q-8.38,22-16,35.06t-18.09,19.92q-10.49,6.82-25.43,6.82A70.35,70.35,0,0,1,275.05,279.5Z"/><path d="M424.92,22.93l-14.75-2.6a2.8,2.8,0,0,1-2.33-2.76V8.26a2.82,2.82,0,0,1,2.48-2.79l46-5.47h.52l5.89,4.14A2.82,2.82,0,0,1,464,6.44V194.65a2.81,2.81,0,0,0,2.51,2.79L480.59,199a2.81,2.81,0,0,1,2.5,2.79v10.41a2.81,2.81,0,0,1-2.81,2.81H411.7a2.81,2.81,0,0,1-2.81-2.81V201.74a2.81,2.81,0,0,1,2.45-2.79l13.46-1.73a2.81,2.81,0,0,0,2.45-2.79V25.69A2.8,2.8,0,0,0,424.92,22.93Z"/><path d="M515.74,197.56q-16.92-20.31-16.92-55.45,0-23.6,8.79-40.9a62.11,62.11,0,0,1,24.77-26.49q16-9.16,37-9.17,26.22,0,40.38,13.76t14.68,39.2q0,15.13-1.6,23.44a2.79,2.79,0,0,1-2.76,2.25h-80a2.82,2.82,0,0,0-2.8,3.05q1.53,21.67,11.1,34.05,10.22,13.24,29.1,13.24a70.55,70.55,0,0,0,21.11-3.4,64.16,64.16,0,0,0,14.47-6.3,2.83,2.83,0,0,1,4.08,1.2l4.37,9.62a2.82,2.82,0,0,1-.63,3.22q-7.17,6.76-21.51,12.58a84.92,84.92,0,0,1-32.11,6.42Q532.64,217.88,515.74,197.56Zm69.34-69.09a2.81,2.81,0,0,0,2.8-2.64c.23-3.63.35-6.5.35-8.63q0-34.87-23.33-34.87Q552,82.33,545,92.55q-6.66,9.63-7.75,33a2.81,2.81,0,0,0,2.8,3Z"/><path d="M655.14,22.92l-14.26-2.58a2.8,2.8,0,0,1-2.31-2.76V8.26A2.81,2.81,0,0,1,641,5.47L686.81,0h.53l5.88,4.14a2.82,2.82,0,0,1,1.19,2.3V129.6l-.35,6.19a2.81,2.81,0,0,0,4.84,2.1l44.48-46.66a2.81,2.81,0,0,0-1.62-4.72l-11.65-1.73a2.81,2.81,0,0,1-2.4-2.78V72.29a2.81,2.81,0,0,1,2.81-2.81h62.82a2.8,2.8,0,0,1,2.8,2.81V82a2.8,2.8,0,0,1-2.36,2.77l-18,2.89a3,3,0,0,0-1.5.75l-30,28.8a2.79,2.79,0,0,0-.48,3.44L787.86,196a2.78,2.78,0,0,0,2,1.36l10.68,1.55a2.82,2.82,0,0,1,2.4,2.78v10.5a2.81,2.81,0,0,1-2.81,2.81h-63.6a2.81,2.81,0,0,1-2.81-2.81V201.62a2.82,2.82,0,0,1,2.33-2.77l7.21-1.27a2.8,2.8,0,0,0,2-4.1L719,144.92a2.81,2.81,0,0,0-4.47-.64l-20.07,20.29a2.82,2.82,0,0,0-.81,2.09l.47,12.15v15.66a2.81,2.81,0,0,0,2.42,2.78l11.69,1.67a2.81,2.81,0,0,1,2.41,2.78v10.49a2.81,2.81,0,0,1-2.81,2.81H645.05a2.81,2.81,0,0,1-2.81-2.81V201.67a2.82,2.82,0,0,1,2.38-2.78l10.45-1.62a2.81,2.81,0,0,0,2.38-2.77V25.68A2.81,2.81,0,0,0,655.14,22.92Z"/><path d="M825.52,93.57,811.07,89.7A2.81,2.81,0,0,1,809,87V74.07a2.81,2.81,0,0,1,2.48-2.79L857,65.81h.53l6.16,4.4a2.82,2.82,0,0,1,1.18,2.29V194.67a2.8,2.8,0,0,0,2.47,2.79L879.93,199a2.81,2.81,0,0,1,2.47,2.79v10.43a2.8,2.8,0,0,1-2.8,2.81H812.06a2.81,2.81,0,0,1-2.81-2.81V201.74A2.81,2.81,0,0,1,811.7,199l13.46-1.73a2.81,2.81,0,0,0,2.45-2.79V96.28A2.81,2.81,0,0,0,825.52,93.57Zm1-53.72q-5.5-5.51-5.51-14.16,0-10,6.3-16.51t16.78-6.56q10.47,0,16,5.64a19.28,19.28,0,0,1,5.5,14q0,10.49-6.29,16.78t-17.57,6.29h-.26Q832.07,45.36,826.56,39.85Z"/><path d="M920.94,209.75q-7.86-7.6-7.86-24.12V92.22a2.81,2.81,0,0,0-2.81-2.81H898.84A2.81,2.81,0,0,1,896,86.6V77.73a2.79,2.79,0,0,1,1.84-2.63q2.14-.8,5.77-2.08c3.46-1.23,6.13-2.27,8-3.12a2.71,2.71,0,0,0,.65-.4q4.26-3.45,7.3-11.56,2.25-5.23,8.06-25.23a2.82,2.82,0,0,1,2.7-2h16.14a2.8,2.8,0,0,1,2.8,2.73l.9,33.07A2.82,2.82,0,0,0,953,69.22h34.57A2.81,2.81,0,0,1,990.42,72V86.6a2.81,2.81,0,0,1-2.81,2.81H953.38a2.81,2.81,0,0,0-2.81,2.81v70.86q0,14.68.79,20.72t3.41,7.73c1.74,1.14,4.8,1.7,9.17,1.7a67.71,67.71,0,0,0,13.64-1.44,65.55,65.55,0,0,0,9.1-2.46,2.82,2.82,0,0,1,3.65,1.72l3.35,9.89a2.81,2.81,0,0,1-1.11,3.25q-7.19,4.77-19.71,8.71a91.53,91.53,0,0,1-27.53,4.46Q928.8,217.36,920.94,209.75Z"/></svg>