<?xml version="1.0" encoding="utf-8"?>
<!-- Generator: Adobe Illustrator 22.0.1, SVG Export Plug-In . SVG Version: 6.00 Build 0)  -->
<svg version="1.1" id="Logo1" xmlns="http://www.w3.org/2000/svg" xmlns:xlink="http://www.w3.org/1999/xlink" x="0px" y="0px"
	 viewBox="0 0 139.3 80.1" style="enable-background:new 0 0 139.3 80.1;" xml:space="preserve">
<style type="text/css">
	.st0{fill:#231F20;}
	.st1{fill:#432DEC;}
	.st2{fill:none;stroke:#231F20;stroke-width:6.2884;stroke-miterlimit:10;}
	.st3{fill:#738EEF;}
</style>
<g>
	<g>
		<path class="st0" d="M981.3-95.7c-4.6-1.9-8.5-4.7-11.7-8.4c-3-3.5-5-7.8-5.9-12.8c-0.1-0.5,0.2-1,0.7-1.2l13.2-3.3
			c0.6-0.1,1.1,0.3,1.2,0.8c0.7,4.5,2.5,7.9,5.5,10.3c3.2,2.6,7.2,3.8,12,3.8c2.9,0,5.5-0.5,7.6-1.4c2.1-0.9,3.7-2.2,4.8-3.9
			c1.1-1.6,1.6-3.5,1.6-5.5c0-2.4-0.8-4.5-2.3-6.3c-1.5-1.7-3.4-3.1-5.6-4.3c-2.2-1.1-5.3-2.5-9.3-4c-5.1-2-9.3-3.9-12.4-5.7
			c-3.2-1.7-5.9-4.2-8.1-7.3c-2.3-3.1-3.4-7.1-3.4-11.8c0-4.9,1.2-9.1,3.6-12.6c2.4-3.5,5.6-6.2,9.6-8.1c4-1.8,8.5-2.8,13.3-2.8
			c5.5,0,10.4,1.2,14.9,3.7c4.2,2.3,7.7,5.8,10.5,10.4c0.3,0.5,0.1,1.1-0.3,1.4l-11,6.7c-0.5,0.3-1.1,0.1-1.4-0.4
			c-1.4-2.4-3.2-4.4-5.3-5.8c-2.4-1.6-5-2.4-7.9-2.4c-2,0-3.8,0.4-5.4,1.1c-1.6,0.8-2.9,1.8-3.8,3.2c-0.9,1.4-1.4,3-1.4,4.7
			c0,2.2,0.7,4,2.1,5.5c1.4,1.5,3.2,2.8,5.3,3.8c2.1,1,5.1,2.3,8.8,3.7c5.3,2,9.6,4,12.9,5.8c3.3,1.8,6.1,4.3,8.5,7.6
			c2.4,3.2,3.5,7.4,3.5,12.3c0,5.2-1.3,9.8-3.9,13.7c-2.6,3.9-6.2,6.9-10.7,9c-4.5,2.1-9.5,3.1-14.9,3.1
			C990.8-92.9,985.9-93.8,981.3-95.7z"/>
		<path class="st0" d="M1049.6-94.8c-2.8-1.4-5-3.5-6.5-6.2c-1.5-2.7-2.3-5.8-2.3-9.5v-30.2c0-0.6-0.4-1-1-1h-7.7c-0.6,0-1-0.4-1-1
			v-10.3c0-0.6,0.4-1,1-1h7.9c0.6,0,1-0.4,1-1v-13.4c0-0.3,0.2-0.6,0.4-0.8l12.3-9c0.7-0.5,1.6,0,1.6,0.8v22.4c0,0.6,0.4,1,1,1h13.2
			c0.6,0,1,0.4,1,1v10.3c0,0.6-0.4,1-1,1h-13.2c-0.6,0-1,0.4-1,1v27.6c0,2.7,0.6,4.7,1.8,5.8c1.2,1.1,2.9,1.7,5,1.7
			c1.4,0,2.8-0.2,4.3-0.6c0.9-0.3,1.8-0.6,2.7-0.9c0.7-0.3,1.4,0.2,1.4,0.9v11c0,0.4-0.3,0.8-0.7,1c-1.1,0.4-2.5,0.7-4.2,1
			c-2,0.4-4,0.5-5.9,0.5C1055.8-92.6,1052.5-93.3,1049.6-94.8z"/>
		<path class="st0" d="M1099.8-95.8l-22.8-56.7c-0.3-0.7,0.2-1.4,0.9-1.4h13.9c0.4,0,0.8,0.3,0.9,0.7l14,38.5c0.3,0.9,1.6,0.9,1.9,0
			l14.2-38.5c0.1-0.4,0.5-0.7,0.9-0.7h13.9c0.7,0,1.2,0.7,0.9,1.4l-33.5,83.9c-0.2,0.4-0.5,0.6-0.9,0.6h-13.8
			c-0.7,0-1.2-0.7-0.9-1.4l10.4-25.7C1099.9-95.3,1099.9-95.6,1099.8-95.8z"/>
		<path class="st0" d="M1150.6-95.5c-2.2-1.9-3.4-5.4-3.4-10.3v-72c0-0.6,0.4-1,1-1h12.7c0.6,0,1,0.4,1,1v68c0,2.7,1.6,4,4.8,4
			c0.8,0,1.8-0.1,2.9-0.2c0.6-0.1,1.1,0.4,1.1,1v10.3c0,0.5-0.4,0.9-0.8,1c-3.8,0.7-7.1,1-10.1,1
			C1155.9-92.6,1152.8-93.6,1150.6-95.5z"/>
		<path class="st0" d="M1190.3-96.9c-4.6-2.8-8-6.6-10.3-11.3c-2.3-4.7-3.4-9.9-3.4-15.4c0-5.5,1.1-10.6,3.2-15.4
			c2.2-4.8,5.5-8.7,9.9-11.7c4.4-3,9.9-4.4,16.3-4.4c6.6,0,11.9,1.5,16.1,4.5c4.2,3,7.2,6.8,9,11.4c1.8,4.6,2.7,9.4,2.7,14.3
			c0,1.2-0.1,2.4-0.2,3.5c-0.1,0.6-0.1,1.1-0.2,1.5c-0.1,0.5-0.5,0.8-1,0.8h-39.3c-0.6,0-1.1,0.6-1,1.2c1.7,8,6.6,11.9,14.8,11.9
			c2.8,0,5.5-0.5,7.8-1.5c2.1-0.9,4.1-2.3,6-4.2c0.4-0.4,1-0.4,1.4-0.1l8.6,7.5c0.4,0.4,0.5,1,0.1,1.4c-3.1,3.3-6.5,5.7-10.3,7.4
			c-4,1.8-8.6,2.7-13.7,2.7C1200.4-92.6,1194.8-94,1190.3-96.9z M1218.3-129.7c0.6,0,1.1-0.6,1-1.2c-0.6-3.7-2-6.5-4.1-8.6
			c-2.3-2.3-5.4-3.4-9.3-3.4c-7.3,0-11.8,4-13.6,12c-0.1,0.6,0.3,1.2,1,1.2H1218.3z"/>
		<path class="st0" d="M1247.3-178.8h12.7c0.6,0,1,0.4,1,1v46.3c0,0.9,1.1,1.3,1.7,0.7l20.6-22.7c0.2-0.2,0.5-0.3,0.7-0.3h16.3
			c0.9,0,1.3,1.1,0.7,1.7l-20.3,21c-0.3,0.3-0.4,0.9-0.1,1.3l23.4,34.6c0.5,0.7,0,1.6-0.8,1.6h-14.9c-0.3,0-0.7-0.2-0.8-0.5
			l-16.6-26.3c-0.4-0.6-1.1-0.6-1.6-0.1l-8.1,9c-0.2,0.2-0.3,0.4-0.3,0.7v16.2c0,0.6-0.4,1-1,1h-12.7c-0.6,0-1-0.4-1-1v-83
			C1246.3-178.3,1246.8-178.8,1247.3-178.8z"/>
		<path class="st0" d="M1314.1-178.8h13.3c0.6,0,1,0.4,1,1v11.5c0,0.6-0.4,1-1,1h-13.3c-0.6,0-1-0.4-1-1v-11.5
			C1313.1-178.3,1313.5-178.8,1314.1-178.8z M1314.4-153.9h12.6c0.6,0,1,0.4,1,1v58.1c0,0.6-0.4,1-1,1h-12.6c-0.6,0-1-0.4-1-1v-58.1
			C1313.4-153.4,1313.9-153.9,1314.4-153.9z"/>
		<path class="st0" d="M1356.6-94.8c-2.8-1.4-5-3.5-6.5-6.2c-1.5-2.7-2.3-5.8-2.3-9.5v-30.2c0-0.6-0.4-1-1-1h-7.7c-0.6,0-1-0.4-1-1
			v-10.3c0-0.6,0.4-1,1-1h7.9c0.6,0,1-0.4,1-1v-13.4c0-0.3,0.2-0.6,0.4-0.8l12.3-9c0.7-0.5,1.6,0,1.6,0.8v22.4c0,0.6,0.4,1,1,1h13.2
			c0.6,0,1,0.4,1,1v10.3c0,0.6-0.4,1-1,1h-13.2c-0.6,0-1,0.4-1,1v27.6c0,2.7,0.6,4.7,1.8,5.8c1.2,1.1,2.9,1.7,5,1.7
			c1.4,0,2.8-0.2,4.3-0.6c0.9-0.3,1.8-0.6,2.7-0.9c0.7-0.3,1.4,0.2,1.4,0.9v11c0,0.4-0.3,0.8-0.7,1c-1.1,0.4-2.5,0.7-4.2,1
			c-2,0.4-4,0.5-5.9,0.5C1362.8-92.6,1359.5-93.3,1356.6-94.8z"/>
	</g>
	<g>
		<path class="st1" d="M904.8-111.2l-46.1,7.7c-6.5,1.1-12.7-3.4-13.8-9.9l-7.7-46.1c-1.1-6.5,3.4-12.7,9.9-13.8l46.1-7.7
			c6.5-1.1,12.7,3.4,13.8,9.9l7.7,46.1C915.8-118.5,911.3-112.3,904.8-111.2z"/>
		<path class="st2" d="M918.5-101.4l-46.1,7.7c-6.5,1.1-12.7-3.4-13.8-9.9l-7.7-46.1c-1.1-6.5,3.4-12.7,9.9-13.8l46.1-7.7
			c6.5-1.1,12.7,3.4,13.8,9.9l7.7,46.1C929.5-108.7,925.1-102.4,918.5-101.4z"/>
	</g>
</g>
<g>
	<g>
		<path class="st0" d="M248.3-95.7c-4.6-1.9-8.5-4.7-11.7-8.4c-3-3.5-5-7.8-5.9-12.8c-0.1-0.5,0.2-1,0.7-1.2l13.2-3.3
			c0.6-0.1,1.1,0.3,1.2,0.8c0.7,4.5,2.5,7.9,5.5,10.3c3.2,2.6,7.2,3.8,12,3.8c2.9,0,5.5-0.5,7.6-1.4c2.1-0.9,3.7-2.2,4.8-3.9
			c1.1-1.6,1.6-3.5,1.6-5.5c0-2.4-0.8-4.5-2.3-6.3c-1.5-1.7-3.4-3.1-5.6-4.3c-2.2-1.1-5.3-2.5-9.3-4c-5.1-2-9.3-3.9-12.4-5.7
			c-3.2-1.7-5.9-4.2-8.1-7.3c-2.3-3.1-3.4-7.1-3.4-11.8c0-4.9,1.2-9.1,3.6-12.6c2.4-3.5,5.6-6.2,9.6-8.1c4-1.8,8.5-2.8,13.3-2.8
			c5.5,0,10.4,1.2,14.9,3.7c4.2,2.3,7.7,5.8,10.5,10.4c0.3,0.5,0.1,1.1-0.3,1.4l-11,6.7c-0.5,0.3-1.1,0.1-1.4-0.4
			c-1.4-2.4-3.2-4.4-5.3-5.8c-2.4-1.6-5-2.4-7.9-2.4c-2,0-3.8,0.4-5.4,1.1c-1.6,0.8-2.9,1.8-3.8,3.2c-0.9,1.4-1.4,3-1.4,4.7
			c0,2.2,0.7,4,2.1,5.5c1.4,1.5,3.2,2.8,5.3,3.8c2.1,1,5.1,2.3,8.8,3.7c5.3,2,9.6,4,12.9,5.8c3.3,1.8,6.1,4.3,8.5,7.6
			c2.4,3.2,3.5,7.4,3.5,12.3c0,5.2-1.3,9.8-3.9,13.7c-2.6,3.9-6.2,6.9-10.7,9c-4.5,2.1-9.5,3.1-14.9,3.1
			C257.8-92.9,252.9-93.8,248.3-95.7z"/>
		<path class="st0" d="M316.6-94.8c-2.8-1.4-5-3.5-6.5-6.2c-1.5-2.7-2.3-5.8-2.3-9.5v-30.2c0-0.6-0.4-1-1-1h-7.7c-0.6,0-1-0.4-1-1
			v-10.3c0-0.6,0.4-1,1-1h7.9c0.6,0,1-0.4,1-1v-13.4c0-0.3,0.2-0.6,0.4-0.8l12.3-9c0.7-0.5,1.6,0,1.6,0.8v22.4c0,0.6,0.4,1,1,1h13.2
			c0.6,0,1,0.4,1,1v10.3c0,0.6-0.4,1-1,1h-13.2c-0.6,0-1,0.4-1,1v27.6c0,2.7,0.6,4.7,1.8,5.8c1.2,1.1,2.9,1.7,5,1.7
			c1.4,0,2.8-0.2,4.3-0.6c0.9-0.3,1.8-0.6,2.7-0.9c0.7-0.3,1.4,0.2,1.4,0.9v11c0,0.4-0.3,0.8-0.7,1c-1.1,0.4-2.5,0.7-4.2,1
			c-2,0.4-4,0.5-5.9,0.5C322.8-92.6,319.5-93.3,316.6-94.8z"/>
		<path class="st0" d="M366.8-95.8L344-152.5c-0.3-0.7,0.2-1.4,0.9-1.4h13.9c0.4,0,0.8,0.3,0.9,0.7l14,38.5c0.3,0.9,1.6,0.9,1.9,0
			l14.2-38.5c0.1-0.4,0.5-0.7,0.9-0.7h13.9c0.7,0,1.2,0.7,0.9,1.4l-33.5,83.9c-0.2,0.4-0.5,0.6-0.9,0.6h-13.8
			c-0.7,0-1.2-0.7-0.9-1.4l10.4-25.7C366.9-95.3,366.9-95.6,366.8-95.8z"/>
		<path class="st0" d="M417.6-95.5c-2.2-1.9-3.4-5.4-3.4-10.3v-72c0-0.6,0.4-1,1-1h12.7c0.6,0,1,0.4,1,1v68c0,2.7,1.6,4,4.8,4
			c0.8,0,1.8-0.1,2.9-0.2c0.6-0.1,1.1,0.4,1.1,1v10.3c0,0.5-0.4,0.9-0.8,1c-3.8,0.7-7.1,1-10.1,1C422.9-92.6,419.8-93.6,417.6-95.5z
			"/>
		<path class="st0" d="M457.3-96.9c-4.6-2.8-8-6.6-10.3-11.3c-2.3-4.7-3.4-9.9-3.4-15.4c0-5.5,1.1-10.6,3.2-15.4
			c2.2-4.8,5.5-8.7,9.9-11.7c4.4-3,9.9-4.4,16.3-4.4c6.6,0,11.9,1.5,16.1,4.5c4.2,3,7.2,6.8,9,11.4c1.8,4.6,2.7,9.4,2.7,14.3
			c0,1.2-0.1,2.4-0.2,3.5c-0.1,0.6-0.1,1.1-0.2,1.5c-0.1,0.5-0.5,0.8-1,0.8h-39.3c-0.6,0-1.1,0.6-1,1.2c1.7,8,6.6,11.9,14.8,11.9
			c2.8,0,5.5-0.5,7.8-1.5c2.1-0.9,4.1-2.3,6-4.2c0.4-0.4,1-0.4,1.4-0.1l8.6,7.5c0.4,0.4,0.5,1,0.1,1.4c-3.1,3.3-6.5,5.7-10.3,7.4
			c-4,1.8-8.6,2.7-13.7,2.7C467.4-92.6,461.8-94,457.3-96.9z M485.3-129.7c0.6,0,1.1-0.6,1-1.2c-0.6-3.7-2-6.5-4.1-8.6
			c-2.3-2.3-5.4-3.4-9.3-3.4c-7.3,0-11.8,4-13.6,12c-0.1,0.6,0.3,1.2,1,1.2H485.3z"/>
		<path class="st0" d="M514.3-178.8H527c0.6,0,1,0.4,1,1v46.3c0,0.9,1.1,1.3,1.7,0.7l20.6-22.7c0.2-0.2,0.5-0.3,0.7-0.3h16.3
			c0.9,0,1.3,1.1,0.7,1.7l-20.3,21c-0.3,0.3-0.4,0.9-0.1,1.3l23.4,34.6c0.5,0.7,0,1.6-0.8,1.6h-14.9c-0.3,0-0.7-0.2-0.8-0.5
			l-16.6-26.3c-0.4-0.6-1.1-0.6-1.6-0.1l-8.1,9c-0.2,0.2-0.3,0.4-0.3,0.7v16.2c0,0.6-0.4,1-1,1h-12.7c-0.6,0-1-0.4-1-1v-83
			C513.3-178.3,513.8-178.8,514.3-178.8z"/>
		<path class="st0" d="M581.1-178.8h13.3c0.6,0,1,0.4,1,1v11.5c0,0.6-0.4,1-1,1h-13.3c-0.6,0-1-0.4-1-1v-11.5
			C580.1-178.3,580.5-178.8,581.1-178.8z M581.4-153.9H594c0.6,0,1,0.4,1,1v58.1c0,0.6-0.4,1-1,1h-12.6c-0.6,0-1-0.4-1-1v-58.1
			C580.4-153.4,580.9-153.9,581.4-153.9z"/>
		<path class="st0" d="M623.6-94.8c-2.8-1.4-5-3.5-6.5-6.2c-1.5-2.7-2.3-5.8-2.3-9.5v-30.2c0-0.6-0.4-1-1-1h-7.7c-0.6,0-1-0.4-1-1
			v-10.3c0-0.6,0.4-1,1-1h7.9c0.6,0,1-0.4,1-1v-13.4c0-0.3,0.2-0.6,0.4-0.8l12.3-9c0.7-0.5,1.6,0,1.6,0.8v22.4c0,0.6,0.4,1,1,1h13.2
			c0.6,0,1,0.4,1,1v10.3c0,0.6-0.4,1-1,1h-13.2c-0.6,0-1,0.4-1,1v27.6c0,2.7,0.6,4.7,1.8,5.8c1.2,1.1,2.9,1.7,5,1.7
			c1.4,0,2.8-0.2,4.3-0.6c0.9-0.3,1.8-0.6,2.7-0.9c0.7-0.3,1.4,0.2,1.4,0.9v11c0,0.4-0.3,0.8-0.7,1c-1.1,0.4-2.5,0.7-4.2,1
			c-2,0.4-4,0.5-5.9,0.5C629.8-92.6,626.5-93.3,623.6-94.8z"/>
	</g>
	<g>
		<path class="st1" d="M121.6-176h66.5c9.3,0,16.8,7.5,16.8,16.8v1.5c0,9.3-7.5,16.8-16.8,16.8h-83.2v-18.3
			C104.8-168.5,112.3-176,121.6-176z"/>
		<path class="st3" d="M149.7-96.4H83.2c-9.3,0-16.8-7.5-16.8-16.8v-1.5c0-9.3,7.5-16.8,16.8-16.8h83.3v18.3
			C166.4-103.9,158.9-96.4,149.7-96.4z"/>
	</g>
</g>
<g>
	<path class="st1" d="M55.8,0.2h66.5c9.3,0,16.8,7.5,16.8,16.8v1.5c0,9.3-7.5,16.8-16.8,16.8H39V16.9C39,7.7,46.5,0.2,55.8,0.2z"/>
	<path class="st3" d="M83.8,79.8H17.3c-9.3,0-16.8-7.5-16.8-16.8v-1.5c0-9.3,7.5-16.8,16.8-16.8h83.3v18.3
		C100.6,72.3,93.1,79.8,83.8,79.8z"/>
</g>
</svg>
