<?xml version="1.0" standalone="no"?>
<!DOCTYPE svg PUBLIC "-//W3C//DTD SVG 1.1//EN" "http://www.w3.org/Graphics/SVG/1.1/DTD/svg11.dtd" >
<svg xmlns="http://www.w3.org/2000/svg" xmlns:xlink="http://www.w3.org/1999/xlink" version="1.1">
<metadata>
Created by FontForge 20170731 at Fri Jan 19 11:35:53 2018
 By ,,,
Copyright 2018 The Inter UI project authors
</metadata>
<defs>
<font id="InterUI-MediumItalic" horiz-adv-x="0" >
  <font-face 
    font-family="Inter UI Medium"
    font-weight="500"
    font-style="italic"
    font-stretch="normal"
    units-per-em="2816"
    panose-1="2 11 6 2 3 0 0 0 0 4"
    ascent="2252"
    descent="-564"
    x-height="1536"
    bbox="-2021 -1077.02 4023 2976"
    underline-thickness="128"
    underline-position="-448"
    slope="-9.39999"
    unicode-range="U+0002-1F16B"
  />
<missing-glyph horiz-adv-x="2814" 
d="M250 2176v512h2304v-512h-2304zM250 1472v512h2304v-512h-2304zM250 768v512h2304v-512h-2304zM250 64v512h2304v-512h-2304zM250 -640v512h2304v-512h-2304z" />
    <glyph glyph-name="longst" unicode="&#x17f;t" horiz-adv-x="1862" 
d="M1033 2142q155 -2 304 -44t290 -101l-38 -285h-11l-34 -176h290l-44 -252h-290l-140 -831q-10 -79 12 -136t112 -59q25 -1 49.5 2t49.5 8l30 -257q-46 -20 -100 -25t-103 -4q-114 2 -199 57.5t-128.5 148.5t-32.5 205l149 891h-207l44 252h207l35 177l-10 -1l22 123
q-48 27 -109.5 36t-115.5 9q-117 1 -186 -69t-87 -181l-280 -1630h-319l216 1247h-220l42 241h220l21 142q32 230 176.5 373t384.5 139z" />
    <glyph glyph-name=".notdef" horiz-adv-x="2814" 
d="M250 2176v512h2304v-512h-2304zM250 1472v512h2304v-512h-2304zM250 768v512h2304v-512h-2304zM250 64v512h2304v-512h-2304zM250 -640v512h2304v-512h-2304z" />
    <glyph glyph-name=".null" 
 />
    <glyph glyph-name="nonmarkingreturn" horiz-adv-x="938" 
 />
    <glyph glyph-name="controlSOT" 
 />
    <glyph glyph-name="controlHT" unicode="&#x9;" horiz-adv-x="788" 
 />
    <glyph glyph-name="CR" unicode="&#xd;" horiz-adv-x="788" 
 />
    <glyph glyph-name="space" unicode=" " horiz-adv-x="778" 
 />
    <glyph glyph-name="exclam" unicode="!" horiz-adv-x="778" 
d="M755 2048l-282 -1453h-267l221 1453h328zM261 -31q-84 0 -141 58t-58 141q-1 88 59 152t150 64q83 0 140 -59.5t58 -141.5q1 -87 -59.5 -150t-148.5 -64z" />
    <glyph glyph-name="quotedbl" unicode="&#x22;" horiz-adv-x="1187" 
d="M618 2048l-114 -732h-246l115 732h245zM1115 2048l-115 -732h-245l114 732h246z" />
    <glyph glyph-name="numbersign" unicode="#" horiz-adv-x="1802" 
d="M221 0l178 567h-316l38 216h345l146 465h-294l39 222h324l177 564h229l-177 -564h295l177 564h231l-178 -564h297l-39 -222h-328l-145 -465h277l-38 -216h-307l-178 -567h-228l177 567h-295l-177 -567h-230zM695 783h296l145 465h-295z" />
    <glyph glyph-name="dollar" unicode="$" horiz-adv-x="1805" 
d="M605 -256l46 228q-259 22 -416 180.5t-160 420.5h307q3 -146 83.5 -225.5t220.5 -101.5l118 681l-66 21q-127 42 -235 114.5t-170 180t-51 253.5q15 184 121.5 308t264 191t324.5 78l44 231h194l-48 -238q227 -37 357 -191t133 -382h-294q-8 115 -62 190.5t-167 107.5
l-120 -637l17 -6q137 -46 254 -119.5t184.5 -185t53.5 -272.5q-16 -185 -116.5 -313t-253.5 -198.5t-325 -86.5l-44 -229h-194zM583 1500q-12 -83 27.5 -137.5t104 -89.5t129.5 -60l112 589q-84 -13 -164.5 -48.5t-137.5 -98t-71 -155.5zM1239 572q12 83 -22 138t-95 91
t-129 62l-115 -614q126 28 233.5 106.5t127.5 216.5z" />
    <glyph glyph-name="percent" unicode="%" horiz-adv-x="2292" 
d="M345 1556l12 107q14 120 74 219t157.5 157t224.5 55q121 -3 203 -62.5t120 -156t27 -211.5l-12 -108q-15 -120 -74.5 -218t-156 -155t-223.5 -54q-120 2 -202.5 61t-121.5 155t-28 211zM2152 2065l-1748 -2082h-286l1748 2082h286zM591 1664l-14 -111q-8 -75 14.5 -146.5
t115.5 -74.5q97 -3 148 67.5t63 156.5l15 109q5 51 -1 102t-35.5 86t-92.5 37q-97 3 -149 -68.5t-64 -157.5zM1132 384l12 107q14 121 74 219.5t157.5 156.5t224.5 55q121 -3 202.5 -62.5t119.5 -156t27 -211.5l-12 -108q-15 -120 -74 -218.5t-155.5 -156.5t-223.5 -55
q-121 3 -203.5 62.5t-121 156t-27.5 211.5zM1377 492l-13 -111q-6 -50 1.5 -100.5t37 -85t91.5 -36.5q97 -3 147.5 68.5t63.5 156.5l14 109q6 51 -0.5 102t-36 86.5t-92.5 37.5q-97 2 -149 -69.5t-64 -157.5z" />
    <glyph glyph-name="ampersand" unicode="&#x26;" horiz-adv-x="1862" 
d="M548 1111l359 236q78 49 141.5 112.5t76.5 160.5q11 80 -40.5 137t-131.5 58q-108 3 -182 -76t-90 -180q-11 -77 18 -151.5t75 -143.5t84 -129l741 -1135h-327l-605 922q-60 92 -125 193.5t-106.5 210.5t-32.5 226q13 155 87.5 273t196.5 183t279 63q125 -3 227 -59
t159 -154.5t48 -228.5q-11 -153 -103 -266.5t-213 -195.5l-461 -311q-75 -54 -150 -132.5t-92 -175.5q-23 -137 63 -225.5t218 -91.5q140 -4 260.5 57t213.5 164.5t151.5 230t73.5 253.5l264 1q-15 -214 -105.5 -385t-246.5 -315q-13 -12 -24.5 -25.5t-24.5 -26.5
q-112 -110 -269.5 -162.5t-311.5 -50.5q-166 3 -299 72t-206 195.5t-58 300.5q12 138 83.5 240.5t175 182.5t209.5 148z" />
    <glyph glyph-name="quotesingle" unicode="'" horiz-adv-x="588" 
d="M596 2048l-115 -732h-245l114 732h246z" />
    <glyph glyph-name="parenleft" unicode="(" horiz-adv-x="963" 
d="M664 -388l-258 4q-101 178 -148.5 383.5t-51 417.5t24.5 412q47 332 183.5 648t355.5 570l270 -1q-117 -197 -221 -388.5t-181.5 -394.5t-113.5 -433q-47 -304 -22.5 -621t162.5 -597z" />
    <glyph glyph-name="parenright" unicode=")" horiz-adv-x="963" 
d="M-117 -388l262 2q222 248 359 571t188 649q49 307 15 619.5t-174 593.5l-267 1q59 -208 101.5 -403.5t55 -394.5t-18.5 -416q-47 -330 -178.5 -646t-342.5 -576z" />
    <glyph glyph-name="asterisk" unicode="*" horiz-adv-x="1459" 
d="M295 1016l324 359l-390 132l106 216l395 -155l71 466h239l-90 -456l430 148l33 -238l-442 -132l202 -368l-198 -129l-187 376l-315 -367z" />
    <glyph glyph-name="plus" unicode="+" horiz-adv-x="1720" 
d="M1491 1028l-46 -264h-492l-88 -508h-259l88 508h-493l46 264h492l89 508h259l-88 -508h492z" />
    <glyph glyph-name="comma" unicode="," horiz-adv-x="773" 
d="M452 285l-37 -220q-25 -152 -101 -284.5t-179 -243.5l-205 64q55 112 114.5 219t83.5 232l41 233h283z" />
    <glyph glyph-name="hyphen" unicode="-" horiz-adv-x="1290" 
d="M1113 1001l-45 -255h-911l45 255h911z" />
    <glyph glyph-name="period" unicode="." horiz-adv-x="773" 
d="M257 -29q-81 0 -135.5 59t-55.5 138q-1 82 57 144.5t142 62.5q79 0 135 -57t57 -136q1 -83 -57 -147t-143 -64z" />
    <glyph glyph-name="slash" unicode="/" horiz-adv-x="1075" 
d="M1165 2048l-987 -2356h-287l987 2356h287z" />
    <glyph glyph-name="zero" unicode="0" horiz-adv-x="1679" 
d="M1550 1160l-40 -241q-27 -166 -84.5 -334.5t-154 -308.5t-239 -223.5t-339.5 -80.5q-193 3 -310.5 91.5t-174 229.5t-66.5 305.5t13 319.5l39 242q27 166 86 330t156.5 297.5t240.5 212.5t337 76q188 -3 304.5 -87t174 -220t68.5 -295.5t-11 -313.5zM1195 869l57 342
q12 79 14.5 179.5t-18.5 194t-79.5 156t-169.5 66.5q-118 4 -204 -51.5t-144 -146.5t-92.5 -197t-50.5 -202l-56 -342q-12 -79 -15.5 -183.5t17.5 -204t80.5 -166.5t173.5 -71q120 -5 205.5 55.5t142.5 158t90.5 207.5t48.5 205z" />
    <glyph glyph-name="one" unicode="1" horiz-adv-x="1296" 
d="M1091 2048l-356 -2048h-288l289 1618l-9 -1q-47 -64 -123.5 -94.5t-161 -40.5t-156.5 -12l28 260q162 4 289.5 91t203.5 227h284z" />
    <glyph glyph-name="two" unicode="2" horiz-adv-x="1674" 
d="M1392 272l-43 -272h-1347l38 242l780 704q77 70 166 153t158.5 179.5t85.5 206.5q21 136 -55.5 235t-216.5 102q-119 3 -201.5 -58t-128 -158.5t-56.5 -203.5l-299 -1q12 189 106.5 343.5t249.5 244.5t348 88q165 -3 296.5 -78t202.5 -205.5t54 -300.5
q-15 -151 -97 -283.5t-194 -246t-218 -209.5l-531 -466l-7 -21z" />
    <glyph glyph-name="three" unicode="3" horiz-adv-x="1674" 
d="M641 895l44 277l131 -2q155 1 273.5 93.5t138.5 251.5q17 133 -54.5 222t-207.5 92q-136 4 -241 -76.5t-123 -217.5l-293 -1q9 174 106.5 296t246 185t311.5 61q168 -2 299.5 -69t202 -192.5t54.5 -301.5q-15 -166 -123 -287t-252 -188q144 -65 210 -192.5t53 -281.5
q-17 -191 -125.5 -324t-272 -202t-343.5 -66q-254 3 -411 149t-150 406h308q-6 -133 63 -212.5t204 -82.5q156 -5 277.5 86t141.5 251q20 158 -67 240t-238 85z" />
    <glyph glyph-name="four" unicode="4" horiz-adv-x="1693" 
d="M1523 662l-48 -273h-278l-68 -389h-276l68 389h-904l38 221l1103 1438h326l-240 -1386h279zM415 664l553 -2l170 974l-53 -89z" />
    <glyph glyph-name="five" unicode="5" horiz-adv-x="1674" 
d="M489 939l-273 66l279 1043h1075l-45 -283h-808l-170 -573l4 1q70 60 159.5 90.5t182.5 29.5q187 -1 313 -92t184.5 -240.5t40.5 -325.5q-20 -202 -123.5 -357.5t-268 -242.5t-368.5 -83q-264 4 -406.5 163.5t-150.5 415.5h296q12 -130 76 -223.5t207 -97.5
q121 -3 216.5 57t155.5 159t73 212q13 106 -14.5 196t-98 145.5t-184.5 57.5q-201 5 -352 -118z" />
    <glyph glyph-name="six" unicode="6" horiz-adv-x="1670" 
d="M1255 1524q-24 114 -79.5 197t-185.5 89q-142 6 -237 -71t-153 -199.5t-88.5 -255.5t-43.5 -240l-42 -373q-10 -104 12 -203.5t88.5 -165.5t188.5 -69q119 -3 207 55.5t141 155t67 206.5q12 98 -9 187.5t-83.5 147t-174.5 60.5q-169 5 -290 -103t-142 -274l-148 35
q15 170 96.5 308.5t217 219t313.5 77.5q180 -4 301 -99t176 -244.5t38 -316.5q-19 -190 -118.5 -344.5t-257 -245t-352.5 -87.5q-158 3 -263 64t-167 162.5t-89.5 227.5t-28.5 259.5t15 257.5l9 73q19 140 55.5 289.5t97.5 289t152 251t219 175.5t299 61t283 -77t175 -199
t88 -281h-287z" />
    <glyph glyph-name="seven" unicode="7" horiz-adv-x="1587" 
d="M1603 2048l-42 -269l-1037 -1779h-341l1054 1766l-962 1l44 281h1284z" />
    <glyph glyph-name="eight" unicode="8" horiz-adv-x="1667" 
d="M1407 583q-18 -188 -121 -326t-261 -213t-341 -72q-172 3 -305 77.5t-203.5 207.5t-53.5 310q17 183 120.5 313t266.5 204q-101 83 -143.5 195.5t-31.5 242.5q16 178 111 303t242.5 189.5t318.5 61.5q161 -2 284.5 -67t188.5 -184.5t50 -286.5q-14 -164 -102 -280
t-232 -186q120 -88 172.5 -214.5t39.5 -274.5zM1233 1524q17 121 -52 204t-192 86q-135 4 -240.5 -82t-124.5 -221q-16 -121 50.5 -212t193.5 -95q91 -2 170 40.5t131 116.5t64 163zM1108 595q13 89 -15.5 170t-93 133t-160.5 55q-104 3 -193.5 -49t-148.5 -138t-74 -186
q-19 -136 57 -241t219 -109q104 -3 192 46.5t145.5 133.5t71.5 185z" />
    <glyph glyph-name="nine" unicode="9" horiz-adv-x="1670" 
d="M418 524q25 -114 80.5 -197t184.5 -89q143 -6 237.5 71t152 199.5t87.5 256t44 240.5l43 372q10 104 -12 203.5t-88.5 165.5t-188.5 69q-119 3 -207 -55.5t-141 -154.5t-67 -206q-12 -98 9 -187.5t83 -147.5t175 -62q169 -4 290 104t142 274l147 -35q-15 -170 -96 -308.5
t-216.5 -219t-313.5 -77.5q-180 4 -301 98.5t-176.5 244t-38.5 316.5q20 190 119 344.5t257 245t353 88.5q158 -2 263.5 -63.5t167 -163.5t89 -228t28.5 -260t-15 -258l-9 -72q-19 -140 -55.5 -289.5t-97.5 -289t-152 -250t-219 -174.5t-299 -62q-171 3 -283 77t-175.5 199
t-87.5 281h287z" />
    <glyph glyph-name="colon" unicode=":" horiz-adv-x="773" 
d="M448 1076q-80 0 -135 59t-56 138q-1 82 57.5 144.5t142.5 62.5q79 0 134.5 -57t56.5 -136q2 -83 -56 -147t-144 -64zM257 -29q-81 0 -135.5 59t-55.5 138q-1 82 57 144.5t142 62.5q79 0 135 -57t57 -136q1 -83 -57 -147t-143 -64z" />
    <glyph glyph-name="semicolon" unicode=";" horiz-adv-x="773" 
d="M451 1093q-80 0 -135 59t-56 138q-1 82 57 144.5t142 62.5q80 0 135.5 -57t56.5 -136q2 -83 -56 -147t-144 -64zM452 285l-36 -220q-26 -152 -102 -284.5t-179 -243.5l-205 64q55 112 114.5 219t83.5 232l41 233h283z" />
    <glyph glyph-name="less" unicode="&#x3c;" horiz-adv-x="1290" 
d="M994 343l-201 -168l-665 734l887 709l166 -195l-672 -519l-6 -17z" />
    <glyph glyph-name="equal" unicode="=" horiz-adv-x="1720" 
d="M359 1317h1120l-46 -262h-1120zM259 737h1119l-46 -262h-1119z" />
    <glyph glyph-name="greater" unicode="&#x3e;" horiz-adv-x="1290" 
d="M82 343l141 -167l918 733l-641 707l-231 -193l492 -519l1 -16z" />
    <glyph glyph-name="question" unicode="?" horiz-adv-x="1524" 
d="M839 595l-273 -1q11 141 70.5 242.5t142 181.5t166.5 155.5t146.5 163.5t78.5 206q16 114 -35 193.5t-172 84.5q-137 4 -222 -83t-104 -215l-304 -2q12 173 102 298.5t232 192.5t311 64q158 -3 274 -70t174 -186t44 -279q-12 -131 -73.5 -226t-148 -172.5t-174 -154.5
t-152.5 -170.5t-83 -222.5zM617 -28q-84 0 -141 57.5t-58 140.5q-1 89 59 152.5t149 63.5q84 0 140.5 -59t57.5 -141q1 -88 -59 -151t-148 -63z" />
    <glyph glyph-name="at" unicode="@" horiz-adv-x="2693" 
d="M1538 1998q240 -2 433 -85.5t324 -233.5t187.5 -351.5t22.5 -439.5q-19 -132 -55.5 -284.5t-104 -288t-179 -220.5t-281.5 -82q-74 2 -148 22.5t-124 69.5t-50 137l-8 -1q-71 -114 -190 -169.5t-252 -45.5q-139 9 -229 75t-138.5 168t-62 222t-0.5 238q19 163 99 310
t211 245t302 116q59 6 142.5 -1t154.5 -39.5t92 -103.5h14l26 114h244l-162 -951q-7 -60 14.5 -108t88.5 -53q84 -7 141.5 39t94 123t57.5 166t32.5 171t18.5 136q36 259 -38.5 452.5t-250 302t-442.5 110.5q-230 2 -424 -78t-342.5 -224t-244.5 -335t-132 -410
q-47 -295 24.5 -527t263.5 -365.5t506 -134.5q138 0 274 30t266 75l51 -229q-131 -68 -294.5 -93.5t-308.5 -25.5q-390 1 -641.5 164.5t-355 452t-49.5 662.5q40 277 160 511t306.5 407t429 267.5t527.5 92.5zM1346 1156q-115 1 -201 -59t-138.5 -156t-67.5 -200
q-11 -71 -10.5 -149.5t22 -147.5t73 -114t143.5 -48q142 -5 235.5 61t145 176t66.5 237q14 110 -2.5 200t-78.5 144t-187 56z" />
    <glyph glyph-name="A" unicode="A" horiz-adv-x="1978" 
d="M257 0h-341l1085 2048h325l376 -2048h-315l-82 496h-794zM1098 1644l-455 -878l618 -2l-139 879z" />
    <glyph glyph-name="B" unicode="B" horiz-adv-x="1806" 
d="M827 0h-769l355 2048l693 -1q166 -3 300 -63.5t207.5 -179.5t59.5 -297q-15 -181 -121 -290t-280 -143l-11 -29q118 -8 190 -88.5t102 -191t22 -210.5q-17 -197 -128.5 -319.5t-276.5 -179.5t-343 -56zM676 1776l-107 -613l368 -1q153 1 280 81.5t151 243.5
q22 142 -59.5 213.5t-216.5 74.5zM1278 576q22 147 -62 239.5t-229 97.5l-461 1l-111 -642l411 -1q103 1 200.5 29.5t166 95.5t85.5 180z" />
    <glyph glyph-name="C" unicode="C" horiz-adv-x="2017" 
d="M1933 1404l-302 -20q-26 178 -136 287.5t-294 113.5q-160 4 -284.5 -62t-214.5 -178.5t-145 -250t-75 -278.5q-18 -123 -11 -253.5t51.5 -243t137 -183t246.5 -74.5q194 -4 352.5 103.5t223.5 291.5l304 -20q-51 -201 -185 -351.5t-319.5 -233t-390.5 -80.5
q-217 2 -366 93.5t-234.5 242t-113 335.5t-1.5 374q27 203 109.5 393.5t216 342t313 239t401.5 84.5q205 -2 355 -89t241.5 -237.5t120.5 -345.5z" />
    <glyph glyph-name="D" unicode="D" horiz-adv-x="1993" 
d="M720 0h-662l355 2048h643q223 -3 381.5 -84t253.5 -221.5t128 -323t5 -388.5q-40 -296 -184.5 -529.5t-378 -368t-541.5 -133.5zM1027 1770h-352l-259 -1492l298 -1q231 0 399.5 97.5t271 268.5t135.5 391q28 193 -6.5 359t-151 269.5t-335.5 107.5z" />
    <glyph glyph-name="E" unicode="E" horiz-adv-x="1664" 
d="M1358 272l-48 -272h-1252l355 2048h1243l-48 -272h-932l-107 -614h821l-48 -273h-820l-107 -617h943z" />
    <glyph glyph-name="F" unicode="F" horiz-adv-x="1642" 
d="M1367 1162l-48 -273h-797l-154 -889h-310l355 2048h1237l-48 -272h-926l-107 -614h798z" />
    <glyph glyph-name="G" unicode="G" horiz-adv-x="2052" 
d="M1877 1042l-43 -258q-37 -236 -167.5 -420.5t-329 -289.5t-441.5 -102q-218 2 -368 92.5t-236.5 241t-114 335.5t-2.5 376q28 201 109.5 391.5t214 342.5t311 240t399.5 86q204 -3 350 -90.5t238 -237t137 -335.5l-310 -20q-39 167 -145 276.5t-286 114.5
q-158 4 -281.5 -62.5t-212.5 -179.5t-143.5 -251t-74.5 -276q-18 -125 -10 -256t53.5 -242.5t139.5 -182t248 -73.5q162 -3 289.5 65.5t214.5 188t126 269.5l-463 -2l46 259h752z" />
    <glyph glyph-name="H" unicode="H" horiz-adv-x="2031" 
d="M723 2048l-154 -886h946l154 886h311l-355 -2048h-311l154 889h-946l-154 -889h-310l355 2048h310z" />
    <glyph glyph-name="I" unicode="I" horiz-adv-x="736" 
d="M723 2048l-355 -2048h-310l355 2048h310z" />
    <glyph glyph-name="J" unicode="J" horiz-adv-x="1473" 
d="M897 598l248 1450h309l-249 -1450q-27 -184 -120 -327t-240.5 -223.5t-338.5 -76.5q-257 4 -399 161.5t-133 409.5h304q-6 -127 57 -211.5t196 -89.5q107 -5 183 44.5t122 132.5t61 180z" />
    <glyph glyph-name="K" unicode="K" horiz-adv-x="1893" 
d="M1261 0l-484 890l-306 -292l-103 -598h-310l355 2048h310l-176 -968l19 1l1013 967h430l-1015 -946l624 -1102h-357z" />
    <glyph glyph-name="L" unicode="L" horiz-adv-x="1568" 
d="M1301 272l-48 -272h-1195l355 2048h310l-308 -1776h886z" />
    <glyph glyph-name="M" unicode="M" horiz-adv-x="2484" 
d="M413 2048h363l351 -1558l22 -1l892 1559h378l-355 -2048h-300l263 1474h-15l-816 -1453h-247l-311 1453l-19 1l-261 -1475h-300z" />
    <glyph glyph-name="N" unicode="N" horiz-adv-x="2028" 
d="M1977 2048l-355 -2048h-291l-677 1494l-21 1l-265 -1495h-310l355 2048h293l677 -1499l20 -1l266 1500h308z" />
    <glyph glyph-name="O" unicode="O" horiz-adv-x="2100" 
d="M1930 1029q-28 -203 -110.5 -393t-215 -340.5t-312 -238.5t-400.5 -85q-217 3 -366 94t-234.5 242t-113 335.5t-1.5 373.5q27 203 109.5 393.5t216 341.5t313 239t401.5 85q217 -3 365.5 -94.5t233.5 -243t112 -336t2 -373.5zM1624 1030q17 123 10.5 253.5t-50 243.5
t-136 184t-246.5 74q-159 4 -284 -62t-214.5 -178t-145 -250t-75.5 -279q-18 -123 -11 -253.5t51.5 -243t137 -183t245.5 -73.5q160 -4 284.5 61.5t214 177.5t144 249.5t75.5 278.5z" />
    <glyph glyph-name="P" unicode="P" horiz-adv-x="1777" 
d="M904 727l-497 1l48 272l460 -1q190 1 311 107t147 294q23 166 -45.5 268t-244.5 107l-407 1l-308 -1776h-310l355 2048l679 -1q298 -6 459.5 -177.5t128.5 -471.5q-24 -212 -128.5 -362t-271 -229.5t-376.5 -79.5z" />
    <glyph glyph-name="Q" unicode="Q" horiz-adv-x="2100" 
d="M1931 1028q-23 -166 -81.5 -327.5t-157 -299.5t-241.5 -233l191 -359l-296 -1l-117 227q-169 -64 -339 -63q-217 2 -365.5 93.5t-234 242.5t-113 336t-1.5 373q27 203 109.5 393.5t215.5 341.5t313 239t402 85q216 -3 364.5 -94.5t235 -243t114 -336.5t1.5 -374zM885 659
l282 1l139 -251q141 114 217 278.5t102 341.5q18 123 11 254t-51.5 244t-137.5 184t-246 74q-160 4 -284.5 -62t-214.5 -178t-145 -250t-75 -279q-17 -122 -10.5 -252.5t50.5 -243.5t136.5 -183.5t246.5 -72.5q46 0 91 6.5t90 16.5z" />
    <glyph glyph-name="R" unicode="R" horiz-adv-x="1777" 
d="M1170 0l-246 782h-421l-135 -782h-310l355 2048l678 -1q191 -4 331.5 -78t210.5 -212t50 -334q-22 -207 -136 -355.5t-308 -222.5l269 -845h-338zM676 1776l-125 -717l352 -1q181 1 314 87t160 275q24 163 -52.5 257t-242.5 98z" />
    <glyph glyph-name="S" unicode="S" horiz-adv-x="1773" 
d="M1390 1493q-10 150 -99.5 228t-238.5 81q-98 2 -196.5 -29.5t-170.5 -99t-89 -174.5q-15 -92 33 -150t125 -94t148 -60l145 -47q137 -45 253.5 -119t182.5 -185.5t51 -271.5q-15 -154 -88.5 -268.5t-187.5 -189.5t-251 -112t-279 -35q-189 2 -337.5 71.5t-234 204
t-86.5 330.5h307q2 -165 104.5 -246.5t260.5 -84.5q105 -2 211.5 32.5t184 108.5t96.5 189q16 100 -34 161.5t-131 98.5t-159 63l-168 54q-126 42 -232.5 114.5t-167.5 179.5t-48 252t85 254.5t183.5 183t243.5 109.5t264 34q177 -3 315 -73t217.5 -199.5t81.5 -310.5h-294z
" />
    <glyph glyph-name="T" unicode="T" horiz-adv-x="1801" 
d="M1851 2048l-48 -272h-610l-308 -1776h-308l308 1776h-612l48 272h1530z" />
    <glyph glyph-name="U" unicode="U" horiz-adv-x="2034" 
d="M1673 2048h310l-233 -1353q-35 -225 -161.5 -390t-316.5 -254.5t-415 -86.5q-210 3 -373 94.5t-247 254.5t-55 380l232 1355h310l-233 -1351q-27 -194 82.5 -315t302.5 -125q136 -3 256 50t202 153t106 238z" />
    <glyph glyph-name="V" unicode="V" horiz-adv-x="1978" 
d="M570 2049l304 -1644l24 -1l816 1644h335l-1051 -2048h-324l-411 2048z" />
    <glyph glyph-name="W" unicode="W" horiz-adv-x="2733" 
d="M545 2049l145 -1577l20 -1l645 1577h313l148 -1577l17 -1l639 1578h307l-851 -2048h-317l-163 1522l-14 1l-645 -1523h-317l-210 2048z" />
    <glyph glyph-name="X" unicode="X" horiz-adv-x="1851" 
d="M605 2049l340 -794l14 -1l590 794h374l-781 -1039l449 -1009h-342l-340 784l-14 1l-590 -785h-377l797 1039l-455 1009z" />
    <glyph glyph-name="Y" unicode="Y" horiz-adv-x="1956" 
d="M606 2049l369 -929l22 -1l693 929h365l-955 -1240l-140 -808h-309l146 841l-517 1206z" />
    <glyph glyph-name="Z" unicode="Z" horiz-adv-x="1770" 
d="M1474 272l-47 -272h-1416l39 225l1299 1549l-1038 2l48 272h1415l-39 -225l-1297 -1549z" />
    <glyph glyph-name="bracketleft" unicode="[" horiz-adv-x="963" 
d="M1037 2275l-41 -259h-277l-346 -2217h277l-40 -257h-559l427 2733h559z" />
    <glyph glyph-name="backslash" unicode="\" horiz-adv-x="1053" 
d="M298 2048h270l170 -2356h-270z" />
    <glyph glyph-name="bracketright" unicode="]" horiz-adv-x="963" 
d="M350 2275h558l-427 -2733h-558l40 257h276l347 2217h-277z" />
    <glyph glyph-name="asciicircum" unicode="^" horiz-adv-x="1268" 
d="M890 1004l-127 632l-347 -632h-289l572 1000h228l227 -999z" />
    <glyph glyph-name="underscore" unicode="_" horiz-adv-x="1290" 
d="M1099 0l-45 -260h-1234l45 260h1234z" />
    <glyph glyph-name="grave" unicode="`" horiz-adv-x="838" 
d="M638 2112l201 -415l-253 -1l-299 414z" />
    <glyph glyph-name="a" unicode="a" horiz-adv-x="1566" 
d="M910 0l32 186h-6q-75 -112 -191 -167t-250 -53t-237.5 60t-160 161t-46.5 240q8 130 68.5 216.5t155 139t205.5 80t221 39.5q34 3 90.5 4.5t116.5 9.5t105 30.5t55 68.5l2 12q15 118 -34.5 193t-174.5 78q-115 4 -214.5 -52t-150.5 -160l-279 75q51 137 153.5 225
t234.5 130t271 40q241 -3 379 -145t113 -390l-173 -1021h-285zM987 536l47 211q-37 -34 -95.5 -48t-120.5 -18.5t-109 -9.5q-78 -9 -156.5 -33.5t-135 -75.5t-69.5 -141q-15 -104 53 -153.5t162 -51.5q98 -3 187.5 36.5t153 112t83.5 171.5z" />
    <glyph glyph-name="b" unicode="b" horiz-adv-x="1685" 
d="M393 2048h300l-136 -733l13 1q79 113 184.5 178t247.5 63q160 -2 264.5 -73.5t162 -187.5t74 -253.5t0.5 -271.5q-17 -144 -71.5 -287.5t-146 -261t-219 -186.5t-292.5 -65q-124 4 -224.5 63t-147.5 177l-28 1l-43 -212h-293zM1212 775q12 83 8.5 173t-32.5 167.5
t-91 127t-167 53.5q-149 4 -248.5 -77t-155 -205.5t-73.5 -252.5q-11 -81 -9.5 -172t27.5 -171.5t86 -132.5t165 -55q150 -5 252.5 78t161 210.5t76.5 256.5z" />
    <glyph glyph-name="c" unicode="c" horiz-adv-x="1566" 
d="M1453 1060l-285 -26q-22 114 -91.5 185.5t-190.5 75.5q-147 4 -249 -76t-160 -204.5t-74 -253.5q-11 -84 -5.5 -175.5t36.5 -171t95 -130.5t170 -54q125 -3 220 65.5t138 183.5l291 -23q-33 -154 -132 -264t-237.5 -168t-290.5 -55q-166 2 -283.5 69.5t-188.5 180.5
t-97.5 253.5t-9.5 289.5q17 156 79 299.5t163.5 256t238.5 177t305 61.5q229 -3 379 -137t179 -359z" />
    <glyph glyph-name="d" unicode="d" horiz-adv-x="1685" 
d="M1310 0h-294l46 212h-17q-78 -114 -186.5 -179t-250.5 -63q-159 2 -263.5 74.5t-161.5 189t-74 254.5t-1 270q18 146 73 289t147 259.5t220.5 184.5t293.5 64q124 -3 223.5 -62t147.5 -176l18 -1l134 732h301zM401 761q-12 -83 -8.5 -174t32 -171t90.5 -131.5t167 -54.5
q150 -5 250 78.5t155.5 211t73.5 255.5q12 81 9.5 170.5t-29 168t-86.5 128.5t-165 54q-149 4 -251.5 -76t-161 -205t-76.5 -254z" />
    <glyph glyph-name="e" unicode="e" horiz-adv-x="1631" 
d="M712 -31q-223 3 -365 110.5t-202.5 283.5t-37.5 383q18 159 80 305.5t164.5 261.5t241.5 180.5t310 63.5q214 -3 343.5 -111t180.5 -279.5t28 -364.5l-18 -129h-1179l37 233l878 -1q17 101 -9 189t-95 143t-179 58q-150 5 -252.5 -76.5t-161 -208t-74.5 -257.5
q-15 -123 4.5 -242t93 -198.5t221.5 -82.5q124 -3 222 56t152 170l272 -76q-42 -139 -145.5 -231t-238 -137t-271.5 -43z" />
    <glyph glyph-name="f" unicode="f" horiz-adv-x="1028" 
d="M144 0l223 1284h-222l44 252h222l14 106q26 200 162 319t339 117q126 -1 254 -44l-94 -246q-31 11 -62.5 18t-64.5 8q-103 1 -162.5 -55.5t-80.5 -152.5l-15 -72l325 2l-44 -252h-315l-223 -1284h-300z" />
    <glyph glyph-name="g" unicode="g" horiz-adv-x="1685" 
d="M1282 1533h294l-260 -1518q-29 -196 -136.5 -329.5t-269.5 -201t-354 -64.5q-168 2 -319.5 67t-248.5 209l201 186q75 -90 163 -143t209 -56q173 -5 302 87.5t159 267.5l44 219h-14q-79 -112 -186.5 -172.5t-247.5 -59.5q-154 2 -258.5 67.5t-164.5 174t-80 239.5t-4 264
q17 144 72.5 285.5t148 255.5t220.5 181t290 63q124 -3 223.5 -62t147.5 -176l25 -1zM404 772q-16 -111 0.5 -222.5t83.5 -186.5t203 -79q144 -4 243 69t155.5 189.5t74.5 244.5q11 81 7.5 168.5t-31.5 163.5t-88 124.5t-162 51.5q-146 5 -248 -73t-161.5 -200t-76.5 -250z
" />
    <glyph glyph-name="h" unicode="h" horiz-adv-x="1617" 
d="M490 892l-153 -892h-299l355 2048h295l-133 -713l10 1q85 104 200.5 163t252.5 57q162 -3 253.5 -90.5t123.5 -220.5t15 -274l-166 -971h-300l166 973q15 119 -29 212.5t-179 99.5q-115 4 -201 -51t-140 -146t-71 -196z" />
    <glyph glyph-name="i" unicode="i" horiz-adv-x="693" 
d="M520 1711q-76 -1 -130.5 49.5t-56.5 127.5q-2 78 55 133t134 56q74 1 129 -50t57 -126q2 -80 -54 -135t-134 -55zM610 1536l-267 -1536h-300l267 1536h300z" />
    <glyph glyph-name="j" unicode="j" horiz-adv-x="747" 
d="M572 1712q-75 -1 -129.5 49t-56.5 126q-2 78 55 133t134 56q73 1 127.5 -50t56.5 -125q2 -80 -53.5 -134t-133.5 -55zM362 1536h300l-279 -1627q-31 -229 -172 -359.5t-375 -130.5l-104 1l37 265l55 -2q112 -1 176.5 59.5t81.5 168.5z" />
    <glyph glyph-name="k" unicode="k" horiz-adv-x="1517" 
d="M981 0l-360 684l-197 -186l-87 -498h-299l355 2048h300l-208 -1148l20 1l648 635h384l-698 -669l464 -867h-322z" />
    <glyph glyph-name="l" unicode="l" horiz-adv-x="683" 
d="M693 2048l-356 -2048h-299l355 2048h300z" />
    <glyph glyph-name="m" unicode="m" horiz-adv-x="2405" 
d="M1338 960l-164 -960h-298l168 991q14 111 -22 200.5t-164 93.5q-99 4 -175 -47.5t-123.5 -133.5t-62.5 -171l-160 -933h-299l266 1536h297l-50 -231h9q68 111 178 182.5t244 68.5q120 -2 215 -70.5t128 -186.5l14 1q75 118 198 188.5t266 67.5q157 -2 243.5 -87.5
t116 -214.5t13.5 -264l-168 -990h-301l169 996q14 108 -29 196t-165 93q-147 5 -234.5 -93t-109.5 -232z" />
    <glyph glyph-name="n" unicode="n" horiz-adv-x="1632" 
d="M488 879l-151 -879h-299l266 1536h290l-50 -231l10 1q80 119 198.5 186t264.5 64q165 -3 259.5 -88.5t129 -218t17.5 -278.5l-165 -971h-301l163 956q11 81 -6.5 154.5t-69.5 122t-143 51.5q-114 5 -200.5 -54t-141 -154t-71.5 -197z" />
    <glyph glyph-name="o" unicode="o" horiz-adv-x="1656" 
d="M689 -31q-165 2 -282.5 69t-188.5 179t-98 252t-10 288q17 158 78.5 302.5t163 257.5t239.5 177.5t308 61.5q165 -2 282 -69t188.5 -178.5t98 -251.5t10.5 -288q-17 -158 -79 -302.5t-163.5 -257.5t-239.5 -178t-307 -62zM700 231q150 -5 251.5 76t159 206.5t74.5 255.5
q11 86 5.5 177t-37 169t-95.5 128t-171 52q-149 4 -250.5 -76.5t-159 -206.5t-74.5 -255q-11 -86 -5.5 -176.5t36.5 -169t95.5 -128.5t170.5 -52z" />
    <glyph glyph-name="p" unicode="p" horiz-adv-x="1685" 
d="M-62 -576l366 2112h294l-48 -220h20q79 113 184 178t248 63q160 -2 264.5 -73.5t162 -188t74 -253.5t0.5 -270q-17 -145 -71.5 -288.5t-146 -260.5t-219 -186t-292.5 -65q-124 3 -224.5 62t-147.5 177l-21 1l-143 -788h-300zM1212 775q12 83 8.5 173t-32.5 167.5t-91 127
t-167 53.5q-149 4 -248.5 -77t-155 -205.5t-73.5 -252.5q-11 -81 -9.5 -172t27.5 -171.5t86 -132.5t165 -55q150 -5 252.5 78t161 210.5t76.5 256.5z" />
    <glyph glyph-name="q" unicode="q" horiz-adv-x="1685" 
d="M1577 1536l-366 -2112h-301l145 788h-10q-78 -114 -186.5 -179t-250.5 -63q-159 2 -263.5 74.5t-161.5 189t-74 254.5t-1 270q18 145 73 288t147 259.5t221 185t293 64.5q124 -3 223.5 -62t147.5 -176l25 -1l45 220h294zM401 761q-12 -83 -8.5 -174t32 -171t90.5 -131.5
t167 -54.5q150 -5 250 78.5t155.5 211t73.5 255.5q12 82 9.5 171t-29 167.5t-86.5 128.5t-165 54q-149 4 -251 -76t-161 -205t-77 -254z" />
    <glyph glyph-name="r" unicode="r" horiz-adv-x="1100" 
d="M1161 1505l-126 -272q-55 30 -124 32q-110 2 -198.5 -55t-147 -148.5t-77.5 -192.5l-151 -869h-299l266 1536h301l-52 -244l10 1q52 116 155 193t236 75q55 -1 107 -16.5t100 -39.5z" />
    <glyph glyph-name="s" unicode="s" horiz-adv-x="1458" 
d="M194 1101q9 153 105.5 254.5t235.5 152t275 48.5q194 -3 328 -109t182 -293l-270 -59q-26 92 -82.5 146.5t-156.5 59.5q-63 2 -131 -17t-119.5 -63t-62.5 -114q-9 -58 21 -96t78.5 -61.5t94.5 -37.5l170 -48q148 -46 253.5 -155t94.5 -275q-11 -158 -107.5 -262
t-236.5 -154.5t-281 -49.5q-213 3 -365 112t-209 315l280 75q34 -107 105 -170t188 -68q66 -2 137.5 17.5t124.5 65.5t65 121q8 56 -21.5 93.5t-77 60.5t-92.5 37l-189 56q-143 45 -245 151.5t-92 266.5z" />
    <glyph glyph-name="t" unicode="t" horiz-adv-x="1004" 
d="M978 1536l-45 -252h-290l-141 -831q-10 -80 12 -137.5t112 -58.5q26 -1 51.5 2.5t50.5 8.5l29 -258q-46 -20 -100.5 -25.5t-103.5 -4.5q-115 2 -200 58t-128 149t-32 206l150 891h-207l44 252h206l57 328h300l-57 -328h292z" />
    <glyph glyph-name="u" unicode="u" horiz-adv-x="1632" 
d="M1072 644l153 892h301l-267 -1536h-290l45 201l-10 -1q-87 -105 -204 -165t-255 -56q-159 4 -254 92t-131.5 221t-19.5 273l165 971h300l-164 -967q-16 -122 35 -217t187 -101q113 -4 199 51.5t139.5 146.5t70.5 195z" />
    <glyph glyph-name="v" unicode="v" horiz-adv-x="1589" 
d="M1583 1536l-789 -1536h-295l-308 1536h306l191 -1139l15 -1l551 1140h329z" />
    <glyph glyph-name="w" unicode="w" horiz-adv-x="2250" 
d="M2224 1536l-692 -1536h-271l-108 1077h-22l-487 -1077h-270l-159 1536h292l72 -1096h16l482 1096h265l94 -1091h16l460 1091h312z" />
    <glyph glyph-name="x" unicode="x" horiz-adv-x="1524" 
d="M532 1536l220 -566l402 566h342l-584 -783l332 -753h-307l-234 543l-401 -543h-344l584 783l-320 753h310z" />
    <glyph glyph-name="y" unicode="y" horiz-adv-x="1589" 
d="M415 -112l68 131l-279 1517h305l172 -1125l16 -1l569 1126h330l-940 -1776q-78 -157 -206 -259t-312 -100q-99 1 -196 36l97 252q141 -39 226.5 18t149.5 181z" />
    <glyph glyph-name="z" unicode="z" horiz-adv-x="1520" 
d="M1234 265l-47 -265h-1176l41 234l953 1035l-775 2l46 265h1159l-39 -226l-952 -1043z" />
    <glyph glyph-name="braceleft" unicode="{" horiz-adv-x="963" 
d="M673 -304l-72 -192q-226 77 -309 246.5t-55 397.5l40 277q16 124 -24.5 210.5t-177.5 93.5l24 243q140 2 217.5 86.5t97.5 217.5l41 280q35 248 160 409.5t371 234.5l53 -194q-151 -51 -221 -176.5t-92 -273.5l-41 -280q-19 -143 -83 -251.5t-194 -178.5
q95 -78 123.5 -191t15.5 -231l-39 -277q-12 -87 -8.5 -177t42 -163.5t131.5 -110.5z" />
    <glyph glyph-name="bar" unicode="|" horiz-adv-x="802" 
d="M717 2048l-380 -2432h-274l381 2432h273z" />
    <glyph glyph-name="braceright" unicode="}" horiz-adv-x="963" 
d="M-99 -305l26 -192q241 73 376 236t173 409l38 276q16 139 87 221.5t217 84.5l53 246q-129 5 -177 94t-38 206l38 281q32 223 -36.5 393.5t-298.5 246.5l-104 -194q86 -39 126 -112.5t47.5 -162t-2.5 -172.5l-40 -281q-17 -122 6.5 -237.5t132.5 -188.5
q-120 -69 -186 -179.5t-88 -245.5l-40 -276q-20 -156 -85 -279t-225 -174z" />
    <glyph glyph-name="asciitilde" unicode="~" horiz-adv-x="1976" 
d="M1499 1073l232 -24q-12 -133 -70 -252t-161 -192.5t-250 -71.5q-108 3 -189.5 53.5t-154.5 124.5q-48 50 -105.5 96t-132.5 47t-125 -41.5t-79.5 -106.5t-41.5 -128l-244 23q13 131 76 251t169.5 195.5t250.5 72.5q113 -3 205 -62t167 -138q42 -46 91.5 -87.5
t116.5 -41.5q77 -1 127.5 42.5t78.5 109t39 130.5z" />
    <glyph glyph-name="nbspace" unicode="&#xa0;" horiz-adv-x="778" 
 />
    <glyph glyph-name="exclamdown" unicode="&#xa1;" horiz-adv-x="778" 
d="M474 1560q83 0 140.5 -58t58.5 -141q1 -87 -59.5 -151.5t-148.5 -64.5q-85 0 -141.5 59t-57.5 142q-1 88 59 150.5t149 63.5zM309 -519h-328l283 1453h267z" />
    <glyph glyph-name="cent" unicode="&#xa2;" horiz-adv-x="1566" 
d="M1458 1059l-285 -25q-21 114 -89 185.5t-188 75.5q-149 5 -252.5 -75t-164 -205t-78.5 -255q-11 -83 -7 -174t33 -171t92 -131.5t169 -54.5q126 -3 222 65.5t140 184.5l291 -23q-44 -205 -201.5 -327.5t-358.5 -149.5l-63 -315h-233l64 316q-187 36 -290 159t-137 289.5
t-13 334.5q24 192 112 361t235 282.5t348 140.5l55 265h233l-55 -268q186 -38 292 -169.5t129 -315.5z" />
    <glyph glyph-name="sterling" unicode="&#xa3;" horiz-adv-x="1780" 
d="M1118 804h-439l-28 -221q-11 -94 -42 -171.5t-100 -143.5l918 4l-48 -272h-1352l48 271l81 -2q69 4 107.5 57.5t57 123.5t26.5 124l32 230h-219l48 270h209l50 368q21 182 112 327.5t238.5 228.5t336.5 78q170 -3 294 -83.5t181.5 -215.5t27.5 -303l-287 45
q17 120 -38 202.5t-184 87.5q-106 4 -187 -47.5t-131.5 -137t-65.5 -182.5l-48 -368h449z" />
    <glyph glyph-name="currency" unicode="&#xa4;" horiz-adv-x="2039" 
d="M193 830q19 148 80 282t165 242l-155 211l181 164l152 -198q112 77 237.5 122t262.5 43q124 -2 241 -44.5t210 -125.5l230 203l150 -192l-231 -192q43 -124 62 -248.5t3 -255.5q-19 -141 -76 -269t-152 -234l151 -199l-185 -165l-137 183q-116 -85 -248 -136t-277 -49
q-129 2 -250 48t-214 135l-207 -181l-145 193l209 174q-39 120 -56 241.5t-1 247.5zM420 828q-23 -149 20.5 -290.5t150 -234.5t271.5 -97q131 -3 247 49.5t208 144t152 206.5t80 238q23 148 -19.5 289.5t-148 234.5t-270.5 97q-176 5 -323 -86t-244.5 -238.5t-123.5 -312.5
z" />
    <glyph glyph-name="yen" unicode="&#xa5;" horiz-adv-x="1540" 
d="M1279 638l-36 -206h-413l-75 -432h-309l75 432h-424l36 206h423l34 190h-425l37 206h342l-297 1013l319 1l226 -912l544 912h345l-651 -1012l318 -2l-37 -206h-412l-34 -190h414z" />
    <glyph glyph-name="brokenbar" unicode="&#xa6;" horiz-adv-x="802" 
d="M737 2048l-163 -940h-274l164 940h273zM206 560h274l-164 -944h-274z" />
    <glyph glyph-name="section" unicode="&#xa7;" horiz-adv-x="1562" 
d="M1394 1554h-276q5 102 -36 177.5t-155 77.5q-90 1 -171.5 -50.5t-96.5 -146.5q-12 -78 35 -137.5t106 -98.5l333 -211q114 -75 180 -186t53 -252q-13 -126 -104 -215t-209 -118l-11 -17q55 -70 76 -154t13 -172q-12 -152 -95 -257t-210 -158.5t-272 -50.5
q-236 4 -365.5 151t-122.5 379h279q-6 -114 49.5 -187.5t176.5 -74.5q94 -1 182 48t104 151q13 83 -32 139t-108 97l-333 207q-115 75 -180 188.5t-52 254.5q12 128 103 218t213 118l7 18q-47 72 -71.5 152.5t-17.5 168.5q11 143 92 248.5t204 161.5t261 53
q152 -3 254 -73.5t152 -187.5t45 -261zM1098 718q15 72 -21.5 127.5t-92.5 93.5l-320 199q-57 31 -110.5 0t-90.5 -88t-46 -105q-14 -74 22 -128.5t95 -93.5l309 -193q56 -28 111 1t95 84t49 103z" />
    <glyph glyph-name="dieresis" unicode="&#xa8;" horiz-adv-x="1530" 
d="M1188 1741q-66 -1 -116 47t-51 114q-2 70 46 122t119 53q70 1 117.5 -47t48.5 -116q2 -70 -46 -121t-118 -52zM636 1741q-66 -1 -116 47t-52 114q-2 71 47 122.5t119 52.5t117.5 -47t49.5 -116q1 -70 -47 -121t-118 -52z" />
    <glyph glyph-name="copyright" unicode="&#xa9;" horiz-adv-x="2292" 
d="M192 999q25 202 118 388.5t240 332.5t334 230t399 82q206 -2 366 -88.5t265.5 -232.5t150.5 -327.5t22 -374.5q-25 -203 -117.5 -390t-239 -334t-333.5 -231t-401 -82q-206 2 -366 89.5t-265.5 234t-150.5 328.5t-22 375zM358 998q-24 -157 7.5 -308t113 -273.5
t210.5 -196.5t301 -76q179 -3 337 67.5t283 193.5t206 279t106 326q23 157 -8.5 307.5t-113.5 272.5t-210.5 195t-300.5 75q-178 3 -335.5 -67.5t-283 -192.5t-207 -277.5t-105.5 -324.5zM1326 820l204 2q-10 -208 -142.5 -323.5t-339.5 -110.5q-148 3 -241.5 79.5
t-133.5 196.5t-26 256l20 164q18 143 84.5 265.5t178.5 196t268 71.5q200 -4 305.5 -120.5t100.5 -313.5l-209 1q7 110 -36.5 178t-162.5 71q-99 2 -165.5 -49.5t-104 -132.5t-50.5 -167l-21 -165q-9 -75 1.5 -154t55 -134.5t137.5 -59.5q126 -5 193 62.5t84 186.5z" />
    <glyph glyph-name="ordfeminine" unicode="&#xaa;" horiz-adv-x="1268" 
d="M849 968q-6 50 -4 99q-120 -117 -281 -115q-137 2 -222.5 83t-79.5 221q5 132 82 203t189 98t222 27l143 -2l16 73q11 68 -11 119t-101 54q-72 3 -130.5 -29t-72.5 -107l-232 18q6 114 73 186t166.5 105.5t201.5 31.5q170 -4 265 -107t78 -274l-70 -432q-11 -64 -14 -126
t11 -126h-229zM624 1150q60 -1 116 25t104 60l37 188l-117 1q-53 -1 -110 -15.5t-99.5 -49.5t-52.5 -96q-11 -63 27.5 -88t94.5 -25z" />
    <glyph glyph-name="guillemotleft" unicode="&#xab;" horiz-adv-x="1350" 
d="M609 202l-210 -1l-290 577l2 31l474 579h245l-468 -610zM1120 202l-210 -1l-291 577l2 31l475 579h244l-468 -610z" />
    <glyph glyph-name="logicalnot" unicode="&#xac;" horiz-adv-x="1524" 
d="M1349 1108l-103 -592h-270l62 356h-847l42 236h1116z" />
    <glyph glyph-name="softhyphen" unicode="&#xad;" horiz-adv-x="1290" 
d="M157 746zM1113 1001l-45 -255h-911l45 255h911z" />
    <glyph glyph-name="registered" unicode="&#xae;" horiz-adv-x="2292" 
d="M192 998q25 203 118 389.5t239.5 332.5t333.5 230t400 82q206 -2 366 -88.5t265.5 -232.5t150.5 -327.5t22 -374.5q-24 -203 -117 -390t-239.5 -334t-333.5 -231.5t-401 -81.5q-206 2 -366 89t-265.5 233.5t-150.5 329t-22 374.5zM357 998q-23 -157 8.5 -308t113 -274
t210.5 -196.5t301 -75.5q179 -3 337 67.5t283 193t206 279t106 326.5q23 157 -8.5 307.5t-113 272.5t-210.5 195t-301 75q-178 3 -336 -67.5t-283 -192.5t-206.5 -277.5t-106.5 -324.5zM1159 898l-224 2l-73 -464h-204l183 1168l359 -1q108 -2 200 -38.5t146 -113t48 -196.5
q-6 -98 -62.5 -158.5t-137.5 -104.5q73 -47 94.5 -124.5t13.5 -159.5l-9 -76q-6 -46 -4.5 -88t5.5 -87l-1 -23l-201 1q-12 48 -9.5 98t8.5 99l10 78q9 86 -20.5 135t-121.5 53zM1016 1420l-53 -336l177 -2q81 1 160 39.5t94 128.5q17 103 -42 135t-147 34z" />
    <glyph glyph-name="macron" unicode="&#xaf;" horiz-adv-x="1350" 
d="M1297 1993l-34 -214h-917l34 214h917z" />
    <glyph glyph-name="degree" unicode="&#xb0;" horiz-adv-x="1187" 
d="M653 1125q-117 2 -206.5 64t-136.5 160.5t-40 212.5q9 125 77.5 230.5t177 168.5t234.5 59q119 -3 206.5 -65t133.5 -161.5t38 -214.5q-9 -123 -76.5 -228t-174.5 -167.5t-233 -58.5zM659 1338q101 -2 179.5 72t92.5 172q11 86 -37.5 156t-139.5 72q-102 2 -181.5 -73
t-92.5 -173q-12 -86 38 -155t141 -71z" />
    <glyph glyph-name="plusminus" unicode="&#xb1;" horiz-adv-x="1720" 
d="M1508 1155l-42 -265h-489l-68 -432h-264l68 432h-491l41 265h491l70 448h264l-70 -448h490zM1368 262l-42 -262h-1242l42 262h1242z" />
    <glyph glyph-name="twosuperior" unicode="&#xb2;" horiz-adv-x="1268" 
d="M1197 1121l-36 -205h-818l32 184l430 353q54 44 119.5 105t78.5 136q10 57 -20.5 90t-86.5 34q-80 2 -130.5 -45t-62.5 -123l-248 -1q5 116 67.5 199t160.5 127t209 42q101 -2 186.5 -37t135 -107t43.5 -183q-5 -93 -57 -167.5t-125 -134.5t-142 -110l-229 -155z" />
    <glyph glyph-name="threesuperior" unicode="&#xb3;" horiz-adv-x="1268" 
d="M661 1380l31 177l98 -1q70 2 131 34t74 108q10 61 -29 89t-94 29q-56 1 -103.5 -24.5t-63.5 -81.5l-251 -2q5 109 67.5 178t156 101t192.5 30q92 -2 180.5 -32t144.5 -96t51 -173q-4 -100 -69 -157.5t-150 -92.5q80 -29 118.5 -92t36.5 -146q-4 -119 -75.5 -192
t-176 -105.5t-207.5 -30.5q-154 3 -264.5 86.5t-110.5 247.5l244 -1q1 -65 43.5 -95t104.5 -31q68 0 128.5 34.5t72.5 106.5q13 76 -34 103t-112 28z" />
    <glyph glyph-name="acute" unicode="&#xb4;" horiz-adv-x="849" 
d="M293 1696l309 416h329l-388 -416h-250z" />
    <glyph glyph-name="mu" unicode="&#xb5;" horiz-adv-x="1634" 
d="M1096 692l144 844h288l-266 -1536h-260l28 162q-69 -88 -159.5 -140.5t-204.5 -49.5q-95 3 -171 48.5t-126 125.5l-134 -718h-296l366 2108h295l-144 -848q-12 -89 -2 -189t62.5 -171.5t166.5 -76.5q124 -4 209.5 62t135.5 169t68 210z" />
    <glyph glyph-name="paragraph" unicode="&#xb6;" horiz-adv-x="1268" 
d="M998 0h-280l124 716l-92 1q-188 3 -321.5 84t-198 223.5t-43.5 329.5q22 199 125 345t265 226t359 80l410 -1z" />
    <glyph glyph-name="periodcentered" unicode="&#xb7;" horiz-adv-x="778" 
d="M402 809q-81 0 -135.5 59t-55.5 138q-1 82 57 144.5t142 62.5q79 0 135 -57t57 -136q2 -83 -56 -147t-144 -64z" />
    <glyph glyph-name="cedilla" unicode="&#xb8;" horiz-adv-x="838" 
d="M119 5l235 1l-30 -83q84 -16 126.5 -78t41.5 -145q-3 -127 -79.5 -194.5t-186.5 -94t-212 -28.5l8 190q66 2 131 27t80 101q9 51 -20 73t-73 28t-80 9z" />
    <glyph glyph-name="onesuperior" unicode="&#xb9;" horiz-adv-x="1012" 
d="M932 2000l-179 -1084h-244l135 781l-282 -67l38 212l502 157z" />
    <glyph glyph-name="ordmasculine" unicode="&#xba;" horiz-adv-x="1268" 
d="M260 1436l13 106q18 139 87.5 251.5t181.5 177.5t258 61q139 -3 232.5 -70t136.5 -177t30 -242l-13 -107q-18 -138 -86.5 -249t-179.5 -175.5t-256 -60.5q-138 3 -233 68.5t-139.5 174.5t-31.5 242zM510 1543l-15 -109q-8 -66 3.5 -130.5t52 -107t120.5 -45.5
q124 -5 193 84.5t86 200.5l14 108q8 66 -2.5 130.5t-50.5 108t-119 46.5q-124 5 -195 -85t-87 -201z" />
    <glyph glyph-name="guillemotright" unicode="&#xbb;" horiz-adv-x="1350" 
d="M470 201l465 609l-245 576l209 1l292 -579l-2 -29l-476 -578h-243zM-41 201l465 609l-245 576l209 1l291 -579l-1 -29l-476 -578h-243z" />
    <glyph glyph-name="onequarter" unicode="&#xbc;" horiz-adv-x="2211" 
d="M859 1996l-179 -1084h-245l136 781l-282 -67l37 212l503 157zM1764 1716l-1207 -1549l-162 105l1206 1554zM1905 433l-36 -206h-130l-40 -227h-247l40 227h-479l19 181l594 676h262l-113 -651h130zM1284 435l244 -2l68 338l-23 -32z" />
    <glyph glyph-name="onehalf" unicode="&#xbd;" horiz-adv-x="2292" 
d="M906 2000l-179 -1084h-245l136 781l-282 -67l38 212l502 157zM1765 1716l-1207 -1549l-162 105l1206 1554zM2020 205l-37 -205h-817l32 184l430 353q54 44 119.5 105.5t78.5 136.5q10 57 -20.5 89.5t-86.5 34.5q-80 1 -130.5 -46.5t-62.5 -122.5l-248 -1q5 116 68 199
t160.5 127t207.5 43q101 -1 187 -37t135.5 -108.5t43.5 -183.5q-5 -93 -57 -167t-125.5 -134t-141.5 -110l-229 -155z" />
    <glyph glyph-name="threequarters" unicode="&#xbe;" horiz-adv-x="2292" 
d="M660 1380l31 177l99 -1q69 2 130 34t74 108q10 61 -29 89t-93 29q-56 1 -104 -24.5t-64 -81.5l-251 -2q5 110 67.5 178.5t156.5 100.5t193 30q92 -2 180 -32.5t143.5 -96t51.5 -173.5q-4 -99 -69 -156.5t-149 -92.5q79 -29 117.5 -92t35.5 -146q-4 -119 -75 -192
t-175 -105.5t-207 -30.5q-155 2 -265.5 85.5t-110.5 248.5l244 -1q1 -65 43.5 -95t104.5 -31q68 0 129 34.5t73 107.5q13 76 -35 102.5t-112 27.5zM1994 1716l-1207 -1549l-162 105l1206 1554zM2105 433l-36 -206h-130l-40 -227h-248l40 227h-478l19 180l594 677h261
l-113 -651h131zM1484 435l243 -2l69 338l-23 -32z" />
    <glyph glyph-name="questiondown" unicode="&#xbf;" horiz-adv-x="1524" 
d="M902 1554q84 0 141.5 -57.5t58.5 -141.5q1 -88 -59.5 -151.5t-149.5 -63.5q-83 0 -140 59t-58 141q-1 88 59 151t148 63zM680 931l273 1q-11 -141 -70.5 -242.5t-142 -181.5t-166 -156t-146 -163.5t-79.5 -205.5q-16 -114 35.5 -193.5t172.5 -83.5q137 -5 222 82t104 215
l304 2q-13 -173 -102.5 -298.5t-231.5 -193t-310 -63.5q-159 3 -275 70t-174.5 186t-44.5 279q6 66 58 169.5t129.5 221t163 230t160.5 199.5t120 126z" />
    <glyph glyph-name="Agrave" unicode="&#xc0;" horiz-adv-x="1978" 
d="M0 0zM257 0h-341l1085 2048h325l376 -2048h-315l-82 496h-794zM1098 1644l-455 -878l618 -2l-139 879zM1174 2607l201 -415l-253 -1l-299 414z" />
    <glyph glyph-name="Aacute" unicode="&#xc1;" horiz-adv-x="1978" 
d="M0 0zM257 0h-341l1085 2048h325l376 -2048h-315l-82 496h-794zM1098 1644l-455 -878l618 -2l-139 879zM1061 2191l309 416h329l-388 -416h-250z" />
    <glyph glyph-name="Acircumflex" unicode="&#xc2;" horiz-adv-x="1978" 
d="M0 0zM257 0h-341l1085 2048h325l376 -2048h-315l-82 496h-794zM1098 1644l-455 -878l618 -2l-139 879zM984 2272l261 221l185 -222l250 -4l9 25l-300 375h-176l-456 -376l-9 -25z" />
    <glyph glyph-name="Atilde" unicode="&#xc3;" horiz-adv-x="1978" 
d="M1557 2639l193 -15q-6 -91 -44.5 -173t-109 -133t-172.5 -49q-67 2 -122 34.5t-108.5 64.5t-118.5 31q-64 -1 -100.5 -45t-48.5 -101l-199 9q6 90 46 174t111.5 137t172.5 51q65 -1 120 -34t109.5 -64.5t119.5 -31.5q64 1 101 44.5t50 100.5zM257 0h-341l1085 2048h325
l376 -2048h-316l-81 496h-794zM1098 1644l-455 -878l618 -2l-139 879z" />
    <glyph glyph-name="Adieresis" unicode="&#xc4;" horiz-adv-x="1978" 
d="M1512 2253q-66 -1 -115 47t-51 114q-2 70 45.5 122t118.5 53q70 1 118 -46.5t49 -116.5q2 -70 -46 -121t-119 -52zM960 2253q-66 -1 -115.5 47t-51.5 114q-2 70 46 122t119 53q70 1 118 -46.5t49 -116.5q2 -70 -46.5 -121t-118.5 -52zM257 0h-341l1085 2048h325
l376 -2048h-315l-82 496h-794zM1098 1644l-455 -878l618 -2l-139 879z" />
    <glyph glyph-name="Aring" unicode="&#xc5;" horiz-adv-x="1978" 
d="M0 0zM257 0h-341l1085 2048h325l376 -2048h-315l-82 496h-794zM1098 1644l-455 -878l618 -2l-139 879zM933 2504q3 97 55 174t134 122t177 43q132 -3 219.5 -96.5t82.5 -224.5q-3 -96 -54 -171t-132 -117.5t-175 -40.5q-130 3 -220.5 90.5t-86.5 220.5zM1099 2504
q-9 -65 29 -115t106 -51q76 -1 135 54.5t69 128.5q9 66 -27.5 118.5t-105.5 53.5q-78 1 -137.5 -56.5t-68.5 -132.5z" />
    <glyph glyph-name="AE" unicode="&#xc6;" horiz-adv-x="2804" 
d="M2486 266l-47 -266h-1178l67 498h-700l-348 -498h-374l1474 2048h1333l-46 -266h-868l-82 -613h735l-46 -265h-725l-85 -638h890zM806 766l558 -2l131 978z" />
    <glyph glyph-name="Ccedilla" unicode="&#xc7;" horiz-adv-x="2017" 
d="M150 0zM1933 1404l-302 -20q-26 178 -136 287.5t-294 113.5q-160 4 -284.5 -62t-214.5 -178.5t-145 -250t-75 -278.5q-18 -123 -11 -253.5t51.5 -243t137 -183t246.5 -74.5q194 -4 352.5 103.5t223.5 291.5l304 -20q-51 -201 -185 -351.5t-319.5 -233t-390.5 -80.5
q-217 2 -366 93.5t-234.5 242t-113 335.5t-1.5 374q27 203 109.5 393.5t216 342t313 239t401.5 84.5q205 -2 355 -89t241.5 -237.5t120.5 -345.5zM773 -6l235 1l-30 -83q84 -16 126.5 -78t41.5 -145q-3 -127 -79.5 -194.5t-186.5 -94t-212 -28.5l8 190q66 2 131 27t80 101
q9 51 -20 73t-73 28t-80 9z" />
    <glyph glyph-name="Egrave" unicode="&#xc8;" horiz-adv-x="1664" 
d="M58 0zM1358 272l-48 -272h-1252l355 2048h1243l-48 -272h-932l-107 -614h821l-48 -273h-820l-107 -617h943zM1055 2607l201 -415l-253 -1l-299 414z" />
    <glyph glyph-name="Eacute" unicode="&#xc9;" horiz-adv-x="1664" 
d="M58 0zM1358 272l-48 -272h-1252l355 2048h1243l-48 -272h-932l-107 -614h821l-48 -273h-820l-107 -617h943zM942 2191l309 416h329l-388 -416h-250z" />
    <glyph glyph-name="Ecircumflex" unicode="&#xca;" horiz-adv-x="1664" 
d="M58 0zM1358 272l-48 -272h-1252l355 2048h1243l-48 -272h-932l-107 -614h821l-48 -273h-820l-107 -617h943zM865 2272l261 221l185 -222l250 -4l9 25l-300 375h-176l-456 -376l-9 -25z" />
    <glyph glyph-name="Edieresis" unicode="&#xcb;" horiz-adv-x="1664" 
d="M58 0zM1358 272l-48 -272h-1252l355 2048h1243l-48 -272h-932l-107 -614h821l-48 -273h-820l-107 -617h943zM1393 2226q-66 -1 -116 47t-51 114q-2 70 46 122t119 53q70 1 117.5 -47t48.5 -116q2 -70 -46 -121t-118 -52zM841 2226q-66 -1 -116 47t-52 114q-2 71 47 122.5
t119 52.5t117.5 -47t49.5 -116q1 -70 -47 -121t-118 -52z" />
    <glyph glyph-name="Igrave" unicode="&#xcc;" horiz-adv-x="736" 
d="M58 0zM723 2048l-355 -2048h-310l355 2048h310zM542 2607l201 -415l-253 -1l-299 414z" />
    <glyph glyph-name="Iacute" unicode="&#xcd;" horiz-adv-x="736" 
d="M58 0zM723 2048l-355 -2048h-310l355 2048h310zM429 2191l309 416h329l-388 -416h-250z" />
    <glyph glyph-name="Icircumflex" unicode="&#xce;" horiz-adv-x="736" 
d="M58 0zM723 2048l-355 -2048h-310l355 2048h310zM352 2272l261 221l185 -222l250 -4l9 25l-300 375h-176l-456 -376l-9 -25z" />
    <glyph glyph-name="Idieresis" unicode="&#xcf;" horiz-adv-x="1049" 
d="M1063 2253q-66 -1 -115 47t-51 114q-3 70 45 122t119 53q70 1 117.5 -46.5t49.5 -116.5t-46 -120.5t-119 -52.5zM511 2253q-66 -1 -115.5 47t-51.5 114q-2 70 46 122t119 53q70 1 118 -46.5t49 -116.5q2 -70 -46 -121t-119 -52zM873 2048l-355 -2048h-310l356 2048h309z
" />
    <glyph glyph-name="Eth" unicode="&#xd0;" horiz-adv-x="2023" 
d="M750 0h-662l159 917h-188l36 209h188l160 922h643q223 -3 381.5 -84t253.5 -221.5t128 -323t5 -388.5q-40 -296 -184.5 -529.5t-378 -368t-541.5 -133.5zM986 1126l-37 -209h-392l-111 -639l298 -1q231 0 399.5 97.5t271 268.5t135.5 391q28 193 -6.5 359t-151 269.5
t-335.5 107.5h-352l-112 -644h393z" />
    <glyph glyph-name="Ntilde" unicode="&#xd1;" horiz-adv-x="2028" 
d="M58 0zM1977 2048l-355 -2048h-291l-677 1494l-21 1l-265 -1495h-310l355 2048h293l677 -1499l20 -1l266 1500h308zM1597 2590l195 -14q-5 -91 -44 -173t-110 -133.5t-171 -49.5q-68 2 -122.5 34.5t-108.5 64t-119 30.5q-63 0 -98.5 -44t-47.5 -101l-200 10
q6 89 45.5 172.5t111 136.5t171.5 51q65 -2 120 -34t109.5 -63.5t119.5 -31.5q64 1 100.5 45t48.5 100z" />
    <glyph glyph-name="Ograve" unicode="&#xd2;" horiz-adv-x="2100" 
d="M151 0zM1930 1029q-28 -203 -110.5 -393t-215 -340.5t-312 -238.5t-400.5 -85q-217 3 -366 94t-234.5 242t-113 335.5t-1.5 373.5q27 203 109.5 393.5t216 341.5t313 239t401.5 85q217 -3 365.5 -94.5t233.5 -243t112 -336t2 -373.5zM1624 1030q17 123 10.5 253.5
t-50 243.5t-136 184t-246.5 74q-159 4 -284 -62t-214.5 -178t-145 -250t-75.5 -279q-18 -123 -11 -253.5t51.5 -243t137 -183t245.5 -73.5q160 -4 284.5 61.5t214 177.5t144 249.5t75.5 278.5zM1236 2607l201 -415l-253 -1l-299 414z" />
    <glyph glyph-name="Oacute" unicode="&#xd3;" horiz-adv-x="2100" 
d="M151 0zM1930 1029q-28 -203 -110.5 -393t-215 -340.5t-312 -238.5t-400.5 -85q-217 3 -366 94t-234.5 242t-113 335.5t-1.5 373.5q27 203 109.5 393.5t216 341.5t313 239t401.5 85q217 -3 365.5 -94.5t233.5 -243t112 -336t2 -373.5zM1624 1030q17 123 10.5 253.5
t-50 243.5t-136 184t-246.5 74q-159 4 -284 -62t-214.5 -178t-145 -250t-75.5 -279q-18 -123 -11 -253.5t51.5 -243t137 -183t245.5 -73.5q160 -4 284.5 61.5t214 177.5t144 249.5t75.5 278.5zM1123 2191l309 416h329l-388 -416h-250z" />
    <glyph glyph-name="Ocircumflex" unicode="&#xd4;" horiz-adv-x="2100" 
d="M151 0zM1930 1029q-28 -203 -110.5 -393t-215 -340.5t-312 -238.5t-400.5 -85q-217 3 -366 94t-234.5 242t-113 335.5t-1.5 373.5q27 203 109.5 393.5t216 341.5t313 239t401.5 85q217 -3 365.5 -94.5t233.5 -243t112 -336t2 -373.5zM1624 1030q17 123 10.5 253.5
t-50 243.5t-136 184t-246.5 74q-159 4 -284 -62t-214.5 -178t-145 -250t-75.5 -279q-18 -123 -11 -253.5t51.5 -243t137 -183t245.5 -73.5q160 -4 284.5 61.5t214 177.5t144 249.5t75.5 278.5zM1046 2272l261 221l185 -222l250 -4l9 25l-300 375h-176l-456 -376l-9 -25z" />
    <glyph glyph-name="Otilde" unicode="&#xd5;" horiz-adv-x="2100" 
d="M1617 2639l195 -14q-6 -92 -45.5 -173.5t-110.5 -132.5t-172 -49q-67 1 -122 33.5t-108.5 64.5t-118.5 31q-64 -1 -100.5 -45t-48.5 -101l-199 9q6 90 46 173.5t111.5 136.5t171.5 51q66 -2 121 -34t109.5 -63.5t119.5 -31.5q64 1 101.5 44.5t49.5 100.5zM1930 1028
q-28 -202 -110 -392t-215 -341t-312.5 -238.5t-400.5 -84.5q-217 2 -366 93.5t-234.5 242.5t-113 335.5t-1.5 373.5q27 203 109.5 393.5t216 341.5t313 239t401.5 85q217 -2 365.5 -94t233.5 -243.5t112 -336.5t2 -374zM1624 1030q18 122 11 253t-50.5 244t-136 184
t-246.5 75q-159 3 -284 -63t-215 -178t-145 -250t-75 -279q-18 -123 -11 -253.5t51.5 -243t137 -183.5t246.5 -74q159 -3 283.5 62.5t214 177.5t144 249.5t75.5 278.5z" />
    <glyph glyph-name="Odieresis" unicode="&#xd6;" horiz-adv-x="2100" 
d="M1573 2253q-66 -1 -115.5 47t-51.5 114q-2 70 46 122t119 53q69 1 116.5 -46.5t49.5 -116.5t-46 -120.5t-118 -52.5zM1021 2253q-66 -1 -116 46.5t-52 114.5q-2 70 46.5 122t119.5 53q69 1 117 -46.5t49 -116.5q2 -69 -46 -120.5t-118 -52.5zM1930 1029
q-28 -203 -110.5 -393t-215 -340.5t-312 -238.5t-400.5 -85q-217 3 -366 94t-234.5 242t-113 335.5t-1.5 373.5q27 203 109.5 393.5t216 341.5t313 239t401.5 85q217 -3 365.5 -94.5t233.5 -243t112 -336.5t2 -373zM1624 1030q17 123 10.5 253.5t-50 243.5t-136 184
t-246.5 74q-159 4 -284 -62t-214.5 -178t-145 -250t-75.5 -279q-18 -123 -11 -253.5t51.5 -243t137 -183t245.5 -73.5q160 -4 284.5 61.5t214 177.5t144 249.5t75.5 278.5z" />
    <glyph glyph-name="multiply" unicode="&#xd7;" horiz-adv-x="1720" 
d="M325 262l-159 201l504 447l-357 458l197 173l356 -456l515 456l159 -200l-516 -459l349 -447l-198 -173l-348 445z" />
    <glyph glyph-name="Oslash" unicode="&#xd8;" horiz-adv-x="2100" 
d="M265 -87l-156 125l188 213q-95 183 -121.5 372.5t1.5 393.5q29 203 111 393.5t214.5 341.5t312 239t401.5 85q122 -1 240 -36t216 -110l172 201l156 -125l-189 -213q93 -184 118.5 -372.5t-2.5 -391.5t-110 -393t-214.5 -341t-311.5 -238.5t-401 -84.5q-121 1 -238 35
t-214 108zM484 1017q-19 -126 -19.5 -254.5t37.5 -251.5l982 1178q-56 52 -131.5 74t-150.5 23q-161 3 -285 -63t-213 -178t-143.5 -249.5t-76.5 -278.5zM1621 1029q19 125 19.5 252.5t-34.5 249.5l-981 -1175q56 -51 131 -72t149 -22q161 -3 284.5 62.5t212 177t143 249
t76.5 278.5z" />
    <glyph glyph-name="Ugrave" unicode="&#xd9;" horiz-adv-x="2034" 
d="M153 0zM1673 2048h310l-233 -1353q-35 -225 -161.5 -390t-316.5 -254.5t-415 -86.5q-210 3 -373 94.5t-247 254.5t-55 380l232 1355h310l-233 -1351q-27 -194 82.5 -315t302.5 -125q136 -3 256 50t202 153t106 238zM1202 2607l201 -415l-253 -1l-299 414z" />
    <glyph glyph-name="Uacute" unicode="&#xda;" horiz-adv-x="2034" 
d="M153 0zM1673 2048h310l-233 -1353q-35 -225 -161.5 -390t-316.5 -254.5t-415 -86.5q-210 3 -373 94.5t-247 254.5t-55 380l232 1355h310l-233 -1351q-27 -194 82.5 -315t302.5 -125q136 -3 256 50t202 153t106 238zM1089 2191l309 416h329l-388 -416h-250z" />
    <glyph glyph-name="Ucircumflex" unicode="&#xdb;" horiz-adv-x="2034" 
d="M153 0zM1673 2048h310l-233 -1353q-35 -225 -161.5 -390t-316.5 -254.5t-415 -86.5q-210 3 -373 94.5t-247 254.5t-55 380l232 1355h310l-233 -1351q-27 -194 82.5 -315t302.5 -125q136 -3 256 50t202 153t106 238zM1012 2272l261 221l185 -222l250 -4l9 25l-300 375
h-176l-456 -376l-9 -25z" />
    <glyph glyph-name="Udieresis" unicode="&#xdc;" horiz-adv-x="2034" 
d="M153 0zM1673 2048h310l-233 -1353q-35 -225 -161.5 -390t-316.5 -254.5t-415 -86.5q-210 3 -373 94.5t-247 254.5t-55 380l232 1355h310l-233 -1351q-27 -194 82.5 -315t302.5 -125q136 -3 256 50t202 153t106 238zM1540 2226q-66 -1 -116 47t-51 114q-2 70 46 122
t119 53q70 1 117.5 -47t48.5 -116q2 -70 -46 -121t-118 -52zM988 2226q-66 -1 -116 47t-52 114q-2 71 47 122.5t119 52.5t117.5 -47t49.5 -116q1 -70 -47 -121t-118 -52z" />
    <glyph glyph-name="Yacute" unicode="&#xdd;" horiz-adv-x="1956" 
d="M280 0zM606 2049l369 -929l22 -1l693 929h365l-955 -1240l-140 -808h-309l146 841l-517 1206zM1050 2191l309 416h329l-388 -416h-250z" />
    <glyph glyph-name="Thorn" unicode="&#xde;" horiz-adv-x="1780" 
d="M403 2048h311l-71 -406l323 -1q176 -4 318 -74t219.5 -201t59.5 -318q-19 -200 -131.5 -336t-280.5 -205.5t-356 -69.5l-360 1l-76 -438h-311zM958 1377l-360 1l-118 -677l324 -1q111 1 210.5 37.5t167.5 112.5t85 195q23 161 -66.5 245t-242.5 87z" />
    <glyph glyph-name="germandbls" unicode="&#xdf;" horiz-adv-x="1686" 
d="M590 1497l-256 -1497h-296l258 1497q25 172 102 315t208.5 227.5t320.5 81.5q141 -3 253 -61t172.5 -165t47.5 -255q-9 -106 -60 -188t-105 -161t-73 -177q-13 -71 16 -131t79.5 -116.5t102.5 -116t86 -127.5t29 -152q-11 -166 -99 -278t-224 -168t-292 -54
q-103 1 -205 24.5t-192 74.5l118 243q61 -37 129.5 -61t141.5 -24q113 -2 212.5 56.5t119.5 179.5q13 80 -18 142.5t-83.5 117t-106.5 109.5t-89.5 120.5t-29.5 151.5q6 79 41 143.5t80 124.5t82.5 123t49.5 138q15 102 -44 159.5t-157 61.5q-105 3 -170.5 -49t-100 -135.5
t-48.5 -173.5z" />
    <glyph glyph-name="agrave" unicode="&#xe0;" horiz-adv-x="1566" 
d="M41 0zM910 0l32 186h-6q-75 -112 -191 -167t-250 -53t-237.5 60t-160 161t-46.5 240q8 130 68.5 216.5t155 139t205.5 80t221 39.5q34 3 90.5 4.5t116.5 9.5t105 30.5t55 68.5l2 12q15 118 -34.5 193t-174.5 78q-115 4 -214.5 -52t-150.5 -160l-279 75q51 137 153.5 225
t234.5 130t271 40q241 -3 379 -145t113 -390l-173 -1021h-285zM987 536l47 211q-37 -34 -95.5 -48t-120.5 -18.5t-109 -9.5q-78 -9 -156.5 -33.5t-135 -75.5t-69.5 -141q-15 -104 53 -153.5t162 -51.5q98 -3 187.5 36.5t153 112t83.5 171.5zM892 2123l201 -415l-253 -1
l-299 414z" />
    <glyph glyph-name="aacute" unicode="&#xe1;" horiz-adv-x="1566" 
d="M41 0zM910 0l32 186h-6q-75 -112 -191 -167t-250 -53t-237.5 60t-160 161t-46.5 240q8 130 68.5 216.5t155 139t205.5 80t221 39.5q34 3 90.5 4.5t116.5 9.5t105 30.5t55 68.5l2 12q15 118 -34.5 193t-174.5 78q-115 4 -214.5 -52t-150.5 -160l-279 75q51 137 153.5 225
t234.5 130t271 40q241 -3 379 -145t113 -390l-173 -1021h-285zM987 536l47 211q-37 -34 -95.5 -48t-120.5 -18.5t-109 -9.5q-78 -9 -156.5 -33.5t-135 -75.5t-69.5 -141q-15 -104 53 -153.5t162 -51.5q98 -3 187.5 36.5t153 112t83.5 171.5zM779 1707l309 416h329l-388 -416
h-250z" />
    <glyph glyph-name="acircumflex" unicode="&#xe2;" horiz-adv-x="1566" 
d="M41 0zM910 0l32 186h-6q-75 -112 -191 -167t-250 -53t-237.5 60t-160 161t-46.5 240q8 130 68.5 216.5t155 139t205.5 80t221 39.5q34 3 90.5 4.5t116.5 9.5t105 30.5t55 68.5l2 12q15 118 -34.5 193t-174.5 78q-115 4 -214.5 -52t-150.5 -160l-279 75q51 137 153.5 225
t234.5 130t271 40q241 -3 379 -145t113 -390l-173 -1021h-285zM987 536l47 211q-37 -34 -95.5 -48t-120.5 -18.5t-109 -9.5q-78 -9 -156.5 -33.5t-135 -75.5t-69.5 -141q-15 -104 53 -153.5t162 -51.5q98 -3 187.5 36.5t153 112t83.5 171.5zM702 1788l261 221l185 -222
l250 -4l9 25l-300 375h-176l-456 -376l-9 -25z" />
    <glyph glyph-name="atilde" unicode="&#xe3;" horiz-adv-x="1568" 
d="M1238 2107l194 -14q-6 -91 -45.5 -173t-110.5 -133t-172 -49q-67 1 -121.5 33.5t-108.5 64.5t-118 31t-100.5 -45t-48.5 -101l-200 10q6 90 46.5 173t112 135.5t171.5 50.5q66 -1 121 -33t109.5 -63.5t118.5 -31.5q64 1 101.5 44.5t50.5 100.5zM910 0l32 186h-6
q-75 -112 -191 -167t-249 -53q-134 2 -238 60t-160.5 161t-46.5 240q8 130 68.5 216.5t155 139.5t205.5 80t221 39q34 3 90.5 4.5t116.5 9.5t105 30.5t55 68.5l1 12q16 118 -33.5 193.5t-173.5 78.5q-116 3 -215.5 -53t-150.5 -160l-279 75q51 137 153.5 225t234.5 130
t271 40q241 -4 379 -145t113 -390l-173 -1021h-285zM987 536l47 211q-37 -34 -95.5 -48t-120.5 -18.5t-109 -9.5q-78 -9 -156.5 -33.5t-135.5 -75.5t-69 -141q-15 -104 53 -153.5t162 -51.5q98 -3 187.5 36.5t153 112t83.5 171.5z" />
    <glyph glyph-name="adieresis" unicode="&#xe4;" horiz-adv-x="1568" 
d="M1218 1741q-66 -1 -115.5 46.5t-51.5 114.5q-2 70 46 122t119 53q69 1 117 -46.5t49 -116.5q2 -69 -46 -120.5t-118 -52.5zM666 1741q-66 -1 -116 46.5t-52 114.5q-2 70 46.5 122t119.5 53q70 1 117.5 -46.5t48.5 -116.5q2 -69 -45.5 -120.5t-118.5 -52.5zM910 0l32 186
h-6q-75 -112 -191 -166.5t-249 -52.5q-134 2 -238 59.5t-160 160.5t-47 240q9 130 69.5 216.5t154.5 139.5t205 80t221 39q34 3 90.5 4.5t116.5 9.5t105 30.5t55 67.5l2 13q15 118 -35 193t-175 78q-115 3 -214 -52.5t-150 -159.5l-279 75q51 137 153.5 225t234.5 130.5
t272 39.5q242 -3 379.5 -144.5t111.5 -390.5l-173 -1021h-285zM987 536l47 211q-37 -34 -95.5 -48t-120 -18.5t-109.5 -9.5q-78 -9 -156.5 -33.5t-135 -75.5t-69.5 -141q-15 -104 53 -153.5t162 -51.5q98 -3 187.5 36.5t153.5 112t83 171.5z" />
    <glyph glyph-name="aring" unicode="&#xe5;" horiz-adv-x="1566" 
d="M41 0zM910 0l32 186h-6q-75 -112 -191 -167t-250 -53t-237.5 60t-160 161t-46.5 240q8 130 68.5 216.5t155 139t205.5 80t221 39.5q34 3 90.5 4.5t116.5 9.5t105 30.5t55 68.5l2 12q15 118 -34.5 193t-174.5 78q-115 4 -214.5 -52t-150.5 -160l-279 75q51 137 153.5 225
t234.5 130t271 40q241 -3 379 -145t113 -390l-173 -1021h-285zM987 536l47 211q-37 -34 -95.5 -48t-120.5 -18.5t-109 -9.5q-78 -9 -156.5 -33.5t-135 -75.5t-69.5 -141q-15 -104 53 -153.5t162 -51.5q98 -3 187.5 36.5t153 112t83.5 171.5zM652 2020q3 97 55 174t134 122
t177 43q132 -3 219.5 -96.5t82.5 -224.5q-3 -96 -54 -171t-132 -117.5t-175 -40.5q-130 3 -220.5 90.5t-86.5 220.5zM818 2020q-9 -65 29 -115t106 -51q76 -1 135 54.5t69 128.5q9 66 -27.5 118.5t-105.5 53.5q-78 1 -137.5 -56.5t-68.5 -132.5z" />
    <glyph glyph-name="ae" unicode="&#xe6;" horiz-adv-x="2542" 
d="M219 1161q51 137 154 225t234.5 130t271.5 40q78 -1 162.5 -20t155 -63t109.5 -120q102 99 226 152t268 51q213 -3 341 -111t176.5 -279.5t23.5 -363.5l-15 -100l-1050 -90q-6 -159 74 -268t247 -114q125 -3 223.5 55.5t153.5 170.5l273 -76q-43 -139 -148 -231
t-241 -137t-272 -43q-164 2 -303.5 78.5t-198.5 237.5h-7q-48 -105 -137 -177t-199.5 -108t-222.5 -34q-136 2 -244.5 58t-169 158.5t-51.5 244.5q9 130 69.5 216.5t155 139t205.5 80t221 39.5q34 3 90.5 4.5t116.5 9.5t105 30.5t55 67.5l1 13q16 117 -34 192.5t-174 78.5
q-116 3 -215 -52.5t-151 -159.5zM1787 1296q-136 4 -232 -62.5t-159.5 -172.5t-101.5 -220l768 64q19 101 -5.5 188.5t-92 143t-177.5 59.5zM990 536l47 211q-37 -34 -95.5 -48t-120.5 -18.5t-109 -9.5q-78 -9 -156.5 -33.5t-136 -75.5t-69.5 -141q-15 -104 53 -153.5
t162 -51.5q98 -3 188 36.5t153.5 112t83.5 171.5z" />
    <glyph glyph-name="ccedilla" unicode="&#xe7;" horiz-adv-x="1566" 
d="M92 0zM1453 1060l-285 -26q-22 114 -91.5 185.5t-190.5 75.5q-147 4 -249 -76t-160 -204.5t-74 -253.5q-11 -84 -5.5 -175.5t36.5 -171t95 -130.5t170 -54q125 -3 220 65.5t138 183.5l291 -23q-33 -154 -132 -264t-237.5 -168t-290.5 -55q-166 2 -283.5 69.5
t-188.5 180.5t-97.5 253.5t-9.5 289.5q17 156 79 299.5t163.5 256t238.5 177t305 61.5q229 -3 379 -137t179 -359zM561 5l235 1l-30 -83q84 -16 126.5 -78t41.5 -145q-3 -127 -79.5 -194.5t-186.5 -94t-212 -28.5l8 190q66 2 131 27t80 101q9 51 -20 73t-73 28t-80 9z" />
    <glyph glyph-name="egrave" unicode="&#xe8;" horiz-adv-x="1631" 
d="M84 0zM712 -31q-223 3 -365 110.5t-202.5 283.5t-37.5 383q18 159 80 305.5t164.5 261.5t241.5 180.5t310 63.5q214 -3 343.5 -111t180.5 -279.5t28 -364.5l-18 -129h-1179l37 233l878 -1q17 101 -9 189t-95 143t-179 58q-150 5 -252.5 -76.5t-161 -208t-74.5 -257.5
q-15 -123 4.5 -242t93 -198.5t221.5 -82.5q124 -3 222 56t152 170l272 -76q-42 -139 -145.5 -231t-238 -137t-271.5 -43zM905 2123l201 -415l-253 -1l-299 414z" />
    <glyph glyph-name="eacute" unicode="&#xe9;" horiz-adv-x="1631" 
d="M84 0zM712 -31q-223 3 -365 110.5t-202.5 283.5t-37.5 383q18 159 80 305.5t164.5 261.5t241.5 180.5t310 63.5q214 -3 343.5 -111t180.5 -279.5t28 -364.5l-18 -129h-1179l37 233l878 -1q17 101 -9 189t-95 143t-179 58q-150 5 -252.5 -76.5t-161 -208t-74.5 -257.5
q-15 -123 4.5 -242t93 -198.5t221.5 -82.5q124 -3 222 56t152 170l272 -76q-42 -139 -145.5 -231t-238 -137t-271.5 -43zM792 1707l309 416h329l-388 -416h-250z" />
    <glyph glyph-name="ecircumflex" unicode="&#xea;" horiz-adv-x="1631" 
d="M84 0zM712 -31q-223 3 -365 110.5t-202.5 283.5t-37.5 383q18 159 80 305.5t164.5 261.5t241.5 180.5t310 63.5q214 -3 343.5 -111t180.5 -279.5t28 -364.5l-18 -129h-1179l37 233l878 -1q17 101 -9 189t-95 143t-179 58q-150 5 -252.5 -76.5t-161 -208t-74.5 -257.5
q-15 -123 4.5 -242t93 -198.5t221.5 -82.5q124 -3 222 56t152 170l272 -76q-42 -139 -145.5 -231t-238 -137t-271.5 -43zM715 1788l261 221l185 -222l250 -4l9 25l-300 375h-176l-456 -376l-9 -25z" />
    <glyph glyph-name="edieresis" unicode="&#xeb;" horiz-adv-x="1628" 
d="M1255 1741q-66 -1 -115.5 46.5t-51.5 114.5q-2 70 46 122t119 53q69 1 117 -46.5t49 -116.5q2 -69 -46 -120.5t-118 -52.5zM703 1741q-66 -1 -116 46.5t-52 114.5q-2 70 46.5 122t119.5 53q70 1 117.5 -46.5t48.5 -116.5q2 -69 -45.5 -120.5t-118.5 -52.5zM698 -31
q-223 3 -363 111t-197 284t-32 381q19 160 83 306.5t167.5 261.5t244 181t312.5 63q213 -3 341 -111.5t176.5 -280t23.5 -363.5l-20 -129l-1041 1q-13 -114 14 -214t101 -163.5t201 -66.5q124 -3 223 55.5t154 170.5l272 -76q-42 -139 -146.5 -231.5t-240.5 -137t-273 -42.5
zM899 1295q-122 4 -212.5 -51.5t-154.5 -146.5t-106 -193l747 1q19 100 -5 188t-91.5 143.5t-177.5 58.5z" />
    <glyph glyph-name="igrave" unicode="&#xec;" horiz-adv-x="693" 
d="M43 0zM610 1536l-267 -1536h-300l267 1536h300zM454 2115l201 -415l-253 -1l-299 414z" />
    <glyph glyph-name="iacute" unicode="&#xed;" horiz-adv-x="693" 
d="M43 0zM610 1536l-267 -1536h-300l267 1536h300zM341 1699l309 416h329l-388 -416h-250z" />
    <glyph glyph-name="icircumflex" unicode="&#xee;" horiz-adv-x="693" 
d="M28 0zM610 1536l-267 -1536h-300l267 1536h300zM264 1780l261 221l185 -222l250 -4l9 25l-300 375h-176l-456 -376l-9 -25z" />
    <glyph glyph-name="idieresis" unicode="&#xef;" horiz-adv-x="1285" 
d="M1088 1741q-66 -1 -115.5 47t-51.5 114q-2 70 46 122t119 53q70 1 117.5 -46.5t49.5 -116.5q1 -69 -47 -120.5t-118 -52.5zM536 1741q-66 -1 -115.5 47t-51.5 114q-3 70 45.5 122t119.5 53q69 1 117 -46.5t50 -116.5q2 -70 -46.5 -121t-118.5 -52zM896 1536l-267 -1536
h-299l266 1536h300z" />
    <glyph glyph-name="eth" unicode="&#xf0;" horiz-adv-x="1590" 
d="M644 -32q-204 3 -332.5 107.5t-181.5 269.5t-31 352q15 126 65 254.5t133.5 237t197.5 176t256 70.5q115 2 216.5 -51.5t159.5 -153.5l26 -1q-17 125 -73.5 239t-130.5 214l-375 -176l-58 187l284 130q-43 48 -98.5 84t-111.5 68l149 201q170 -101 301 -235l336 158
l56 -189l-256 -114q90 -171 152.5 -334t86 -335t-3.5 -369q-21 -154 -79.5 -297t-154.5 -255.5t-229 -176.5t-304 -61zM663 225q136 -4 233 64.5t154.5 179t75.5 232.5q11 79 6 163.5t-33.5 158t-88 120.5t-157.5 50q-139 5 -235.5 -69t-152.5 -189.5t-73 -237.5
q-15 -105 0 -213t78 -181.5t193 -77.5z" />
    <glyph glyph-name="ntilde" unicode="&#xf1;" horiz-adv-x="1632" 
d="M1254 2107l195 -14q-6 -91 -45.5 -173t-110.5 -133t-172 -49q-68 1 -122.5 33.5t-108 64.5t-118.5 31q-64 -1 -100 -45t-49 -101l-200 10q6 90 46.5 173.5t112.5 136t172 50.5q66 -2 120.5 -34t109 -63.5t119.5 -31.5q64 1 101.5 44.5t49.5 100.5zM488 879l-151 -879
h-299l266 1536h290l-50 -231h10q81 119 199 186.5t264 64.5q165 -3 259.5 -88.5t129 -218.5t17.5 -278l-165 -971h-301l163 956q11 81 -6.5 155t-69.5 122.5t-143 51.5q-114 5 -200.5 -54.5t-140.5 -154.5t-72 -197z" />
    <glyph glyph-name="ograve" unicode="&#xf2;" horiz-adv-x="1656" 
d="M93 0zM689 -31q-165 2 -282.5 69t-188.5 179t-98 252t-10 288q17 158 78.5 302.5t163 257.5t239.5 177.5t308 61.5q165 -2 282 -69t188.5 -178.5t98 -251.5t10.5 -288q-17 -158 -79 -302.5t-163.5 -257.5t-239.5 -178t-307 -62zM700 231q150 -5 251.5 76t159 206.5
t74.5 255.5q11 86 5.5 177t-37 169t-95.5 128t-171 52q-149 4 -250.5 -76.5t-159 -206.5t-74.5 -255q-11 -86 -5.5 -176.5t36.5 -169t95.5 -128.5t170.5 -52zM903 2123l201 -415l-253 -1l-299 414z" />
    <glyph glyph-name="oacute" unicode="&#xf3;" horiz-adv-x="1656" 
d="M93 0zM689 -31q-165 2 -282.5 69t-188.5 179t-98 252t-10 288q17 158 78.5 302.5t163 257.5t239.5 177.5t308 61.5q165 -2 282 -69t188.5 -178.5t98 -251.5t10.5 -288q-17 -158 -79 -302.5t-163.5 -257.5t-239.5 -178t-307 -62zM700 231q150 -5 251.5 76t159 206.5
t74.5 255.5q11 86 5.5 177t-37 169t-95.5 128t-171 52q-149 4 -250.5 -76.5t-159 -206.5t-74.5 -255q-11 -86 -5.5 -176.5t36.5 -169t95.5 -128.5t170.5 -52zM790 1707l309 416h329l-388 -416h-250z" />
    <glyph glyph-name="ocircumflex" unicode="&#xf4;" horiz-adv-x="1656" 
d="M93 0zM689 -31q-165 2 -282.5 69t-188.5 179t-98 252t-10 288q17 158 78.5 302.5t163 257.5t239.5 177.5t308 61.5q165 -2 282 -69t188.5 -178.5t98 -251.5t10.5 -288q-17 -158 -79 -302.5t-163.5 -257.5t-239.5 -178t-307 -62zM700 231q150 -5 251.5 76t159 206.5
t74.5 255.5q11 86 5.5 177t-37 169t-95.5 128t-171 52q-149 4 -250.5 -76.5t-159 -206.5t-74.5 -255q-11 -86 -5.5 -176.5t36.5 -169t95.5 -128.5t170.5 -52zM713 1788l261 221l185 -222l250 -4l9 25l-300 375h-176l-456 -376l-9 -25z" />
    <glyph glyph-name="otilde" unicode="&#xf5;" horiz-adv-x="1656" 
d="M1310 2107l194 -14q-6 -92 -45.5 -173.5t-110.5 -132.5t-172 -49q-67 1 -121.5 33.5t-108.5 64.5t-119 31q-63 -1 -99.5 -45t-48.5 -101l-201 10q7 90 47 173t111.5 136t172.5 51q65 -2 120 -34t109.5 -64t119.5 -31q64 1 101.5 44.5t50.5 100.5zM676 -31
q-165 2 -281 69.5t-185.5 179.5t-94.5 251.5t-6 286.5q19 159 82.5 303.5t166.5 257.5t242 177.5t309 61.5q165 -2 281.5 -69t186 -179t94 -251.5t6.5 -287.5q-19 -158 -82.5 -303t-166.5 -258t-242 -177.5t-310 -61.5zM689 230q151 -4 254 76.5t162.5 206.5t78.5 257
q12 84 8 175t-33.5 169.5t-92.5 128t-170 53.5q-150 4 -253 -77t-162.5 -206.5t-78.5 -256.5q-12 -85 -8 -175.5t33.5 -169t92.5 -128.5t169 -53z" />
    <glyph glyph-name="odieresis" unicode="&#xf6;" horiz-adv-x="1656" 
d="M1268 1741q-66 -1 -115.5 47t-51.5 114q-2 70 46 122t119 53q69 1 116.5 -46.5t49.5 -116.5t-46 -120.5t-118 -52.5zM716 1741q-66 -1 -116 46.5t-52 114.5q-2 70 46.5 122t119.5 53q69 1 116.5 -46.5t49.5 -116.5t-46 -120.5t-118 -52.5zM675 -31q-165 3 -281 70
t-185.5 179t-94 251.5t-6.5 287.5q19 158 82.5 302.5t166.5 257.5t242 177.5t309 61.5q165 -3 281.5 -69.5t186 -178.5t94 -251.5t6.5 -287.5q-19 -158 -82.5 -303t-166.5 -258t-242 -177.5t-310 -61.5zM688 230q151 -4 254 76.5t162.5 206.5t78.5 257q12 84 8 175
t-33.5 169.5t-92.5 128t-170 53.5q-150 4 -253 -77t-162.5 -206.5t-78.5 -256.5q-12 -84 -8 -175t33.5 -169.5t92.5 -128t169 -53.5z" />
    <glyph glyph-name="divide" unicode="&#xf7;" horiz-adv-x="1720" 
d="M750 1415q-1 84 53 136.5t136 52.5q79 1 132.5 -48t54.5 -128q2 -83 -53 -134.5t-135 -51.5q-78 -1 -132 46t-56 127zM1492 1028l-46 -262h-1244l46 262h1244zM568 360q-2 84 52 137t137 54q78 0 131.5 -49t55.5 -129q1 -83 -53.5 -134.5t-135.5 -52.5q-78 0 -132 47
t-55 127z" />
    <glyph glyph-name="oslash" unicode="&#xf8;" horiz-adv-x="1656" 
d="M217 -87l-156 125l138 152q-68 135 -88.5 276t-1.5 290q26 212 129 395.5t273 295.5t398 109q88 -1 172.5 -22.5t159.5 -67.5l123 145l157 -125l-136 -150q67 -134 87.5 -276t1.5 -291q-26 -211 -129 -395t-273 -296.5t-398 -109.5q-87 1 -171.5 23t-158.5 68zM402 758
q-13 -79 -16 -159t10 -159l674 808q-36 27 -82 38t-90 12q-152 3 -254.5 -77.5t-161.5 -206t-80 -256.5zM687 229q151 -3 254 77.5t162 205.5t80 257q13 79 15.5 159t-10.5 159l-674 -808q36 -28 82 -38.5t91 -11.5z" />
    <glyph glyph-name="ugrave" unicode="&#xf9;" horiz-adv-x="1632" 
d="M123 0zM1072 644l153 892h301l-267 -1536h-290l45 201l-10 -1q-87 -105 -204 -165t-255 -56q-159 4 -254 92t-131.5 221t-19.5 273l165 971h300l-164 -967q-16 -122 35 -217t187 -101q113 -4 199 51.5t139.5 146.5t70.5 195zM910 2123l201 -415l-253 -1l-299 414z" />
    <glyph glyph-name="uacute" unicode="&#xfa;" horiz-adv-x="1632" 
d="M123 0zM1072 644l153 892h301l-267 -1536h-290l45 201l-10 -1q-87 -105 -204 -165t-255 -56q-159 4 -254 92t-131.5 221t-19.5 273l165 971h300l-164 -967q-16 -122 35 -217t187 -101q113 -4 199 51.5t139.5 146.5t70.5 195zM797 1707l309 416h329l-388 -416h-250z" />
    <glyph glyph-name="ucircumflex" unicode="&#xfb;" horiz-adv-x="1632" 
d="M123 0zM1072 644l153 892h301l-267 -1536h-290l45 201l-10 -1q-87 -105 -204 -165t-255 -56q-159 4 -254 92t-131.5 221t-19.5 273l165 971h300l-164 -967q-16 -122 35 -217t187 -101q113 -4 199 51.5t139.5 146.5t70.5 195zM720 1788l261 221l185 -222l250 -4l9 25
l-300 375h-176l-456 -376l-9 -25z" />
    <glyph glyph-name="udieresis" unicode="&#xfc;" horiz-adv-x="1632" 
d="M1255 1741q-66 -1 -115.5 47t-51.5 114q-2 70 46 122t119 53q69 1 116.5 -46.5t49.5 -116.5t-46 -120.5t-118 -52.5zM703 1741q-66 -1 -116 46.5t-52 114.5q-2 70 46.5 122t119.5 53q70 1 117.5 -46.5t48.5 -116.5q2 -69 -46 -120.5t-118 -52.5zM1071 644l153 892h301
l-267 -1536h-290l45 201l-10 -1q-86 -104 -203.5 -163.5t-255.5 -56.5q-157 3 -251.5 91.5t-131.5 222t-22 271.5l165 971h300l-165 -967q-16 -122 35.5 -217t186.5 -100q113 -5 199 50.5t140 147t71 194.5z" />
    <glyph glyph-name="yacute" unicode="&#xfd;" horiz-adv-x="1589" 
d="M0 0zM415 -112l68 131l-279 1517h305l172 -1125l16 -1l569 1126h330l-940 -1776q-78 -157 -206 -259t-312 -100q-99 1 -196 36l97 252q141 -39 226.5 18t149.5 181zM768 1707l309 416h329l-388 -416h-250z" />
    <glyph glyph-name="thorn" unicode="&#xfe;" horiz-adv-x="1685" 
d="M393 2048h300l-136 -733l13 1q79 113 184.5 178t247.5 63q160 -2 264.5 -73.5t162 -187.5t74 -253.5t0.5 -271.5q-17 -144 -71.5 -287.5t-146 -261t-219 -186.5t-292.5 -65q-124 4 -224.5 63t-147.5 177l-21 1l-143 -788h-300zM1212 775q12 83 8.5 173t-32.5 167.5
t-91 127t-168 53.5q-148 4 -247.5 -77t-155 -205.5t-73.5 -252.5q-12 -81 -10 -172t28 -171.5t86 -132.5t165 -55q150 -5 252.5 78t161 210.5t76.5 256.5z" />
    <glyph glyph-name="ydieresis" unicode="&#xff;" horiz-adv-x="1524" 
d="M1204 1742q-66 -1 -115.5 46.5t-51.5 113.5q-2 70 46 121.5t119 52.5q69 1 116 -46t49 -116t-45.5 -120t-117.5 -52zM652 1742q-66 -1 -115.5 46.5t-51.5 113.5q-3 70 45.5 121.5t119.5 52.5q69 1 116.5 -46t48.5 -116q2 -69 -45.5 -120t-117.5 -52zM415 -113l68 132
l-279 1517h305l172 -1125l16 -1l569 1126h330l-940 -1776q-78 -158 -205.5 -260t-311.5 -99q-99 1 -197 36l97 251q142 -39 227.5 18t148.5 181z" />
    <glyph glyph-name="Amacron" unicode="&#x100;" horiz-adv-x="1978" 
d="M0 0zM257 0h-341l1085 2048h325l376 -2048h-315l-82 496h-794zM1098 1644l-455 -878l618 -2l-139 879zM1719 2494l-34 -214h-917l34 214h917z" />
    <glyph glyph-name="amacron" unicode="&#x101;" horiz-adv-x="1566" 
d="M41 0zM910 0l32 186h-6q-75 -112 -191 -167t-250 -53t-237.5 60t-160 161t-46.5 240q8 130 68.5 216.5t155 139t205.5 80t221 39.5q34 3 90.5 4.5t116.5 9.5t105 30.5t55 68.5l2 12q15 118 -34.5 193t-174.5 78q-115 4 -214.5 -52t-150.5 -160l-279 75q51 137 153.5 225
t234.5 130t271 40q241 -3 379 -145t113 -390l-173 -1021h-285zM987 536l47 211q-37 -34 -95.5 -48t-120.5 -18.5t-109 -9.5q-78 -9 -156.5 -33.5t-135 -75.5t-69.5 -141q-15 -104 53 -153.5t162 -51.5q98 -3 187.5 36.5t153 112t83.5 171.5zM1437 2010l-34 -214h-917l34 214
h917z" />
    <glyph glyph-name="Abreve" unicode="&#x102;" horiz-adv-x="1978" 
d="M0 0zM257 0h-341l1085 2048h325l376 -2048h-315l-82 496h-794zM1098 1644l-455 -878l618 -2l-139 879zM1448 2570l241 1q-6 -125 -71 -212.5t-168 -132.5t-222 -42q-175 3 -284.5 107t-108.5 280l241 -1q-3 -80 32.5 -134t123.5 -56q91 -2 147.5 50.5t68.5 139.5z" />
    <glyph glyph-name="abreve" unicode="&#x103;" horiz-adv-x="1566" 
d="M41 0zM910 0l32 186h-6q-75 -112 -191 -167t-250 -53t-237.5 60t-160 161t-46.5 240q8 130 68.5 216.5t155 139t205.5 80t221 39.5q34 3 90.5 4.5t116.5 9.5t105 30.5t55 68.5l2 12q15 118 -34.5 193t-174.5 78q-115 4 -214.5 -52t-150.5 -160l-279 75q51 137 153.5 225
t234.5 130t271 40q241 -3 379 -145t113 -390l-173 -1021h-285zM987 536l47 211q-37 -34 -95.5 -48t-120.5 -18.5t-109 -9.5q-78 -9 -156.5 -33.5t-135 -75.5t-69.5 -141q-15 -104 53 -153.5t162 -51.5q98 -3 187.5 36.5t153 112t83.5 171.5zM1166 2086l241 1
q-6 -125 -71 -212.5t-168 -132.5t-222 -42q-175 3 -284.5 107t-108.5 280l241 -1q-3 -80 32.5 -134t123.5 -56q91 -2 147.5 50.5t68.5 139.5z" />
    <glyph glyph-name="Aogonek" unicode="&#x104;" horiz-adv-x="1978" 
d="M257 0h-341l1085 2048h325l376 -2048h-43l7 -4q-50 -33 -106 -73.5t-98.5 -91.5t-51.5 -116q-12 -84 69 -85q32 -1 62.5 9.5t58.5 23.5l15 -196q-46 -32 -102 -45t-111 -12q-117 2 -190 74.5t-69 190.5q3 117 74.5 200.5t166.5 140.5l-79 480h-794zM1098 1644l-455 -878
l618 -2l-139 879z" />
    <glyph glyph-name="aogonek" unicode="&#x105;" horiz-adv-x="1566" 
d="M1163 -533q-46 -32 -102 -45t-111 -12q-117 2 -190 74.5t-69 190.5q3 110 67 190t152 137l32 184h-6q-75 -112 -191 -167t-250 -53t-237.5 60t-160 161t-46.5 240q8 130 68.5 216.5t155 139t205.5 80t221 39.5q34 3 90.5 4.5t116.5 9.5t105 30.5t55 68.5l2 12
q15 118 -34.5 193t-174.5 78q-115 4 -214.5 -52t-150.5 -160l-279 75q51 137 153.5 225t234.5 130t271 40q241 -3 379 -145t113 -390l-172 -1015l18 -10q-50 -33 -106 -73.5t-98.5 -91.5t-51.5 -116q-12 -84 69 -85q32 -1 62.5 9.5t58.5 23.5zM987 536l47 211
q-37 -34 -95.5 -48t-120.5 -18.5t-109 -9.5q-78 -9 -156.5 -33.5t-135 -75.5t-69.5 -141q-15 -104 53 -153.5t162 -51.5q98 -3 187.5 36.5t153 112t83.5 171.5z" />
    <glyph glyph-name="Cacute" unicode="&#x106;" horiz-adv-x="2017" 
d="M150 0zM1933 1404l-302 -20q-26 178 -136 287.5t-294 113.5q-160 4 -284.5 -62t-214.5 -178.5t-145 -250t-75 -278.5q-18 -123 -11 -253.5t51.5 -243t137 -183t246.5 -74.5q194 -4 352.5 103.5t223.5 291.5l304 -20q-51 -201 -185 -351.5t-319.5 -233t-390.5 -80.5
q-217 2 -366 93.5t-234.5 242t-113 335.5t-1.5 374q27 203 109.5 393.5t216 342t313 239t401.5 84.5q205 -2 355 -89t241.5 -237.5t120.5 -345.5zM1123 2191l309 416h329l-388 -416h-250z" />
    <glyph glyph-name="cacute" unicode="&#x107;" horiz-adv-x="1566" 
d="M92 0zM1453 1060l-285 -26q-22 114 -91.5 185.5t-190.5 75.5q-147 4 -249 -76t-160 -204.5t-74 -253.5q-11 -84 -5.5 -175.5t36.5 -171t95 -130.5t170 -54q125 -3 220 65.5t138 183.5l291 -23q-33 -154 -132 -264t-237.5 -168t-290.5 -55q-166 2 -283.5 69.5
t-188.5 180.5t-97.5 253.5t-9.5 289.5q17 156 79 299.5t163.5 256t238.5 177t305 61.5q229 -3 379 -137t179 -359zM793 1707l309 416h329l-388 -416h-250z" />
    <glyph glyph-name="Ccircumflex" unicode="&#x108;" horiz-adv-x="2017" 
d="M150 0zM1933 1404l-302 -20q-26 178 -136 287.5t-294 113.5q-160 4 -284.5 -62t-214.5 -178.5t-145 -250t-75 -278.5q-18 -123 -11 -253.5t51.5 -243t137 -183t246.5 -74.5q194 -4 352.5 103.5t223.5 291.5l304 -20q-51 -201 -185 -351.5t-319.5 -233t-390.5 -80.5
q-217 2 -366 93.5t-234.5 242t-113 335.5t-1.5 374q27 203 109.5 393.5t216 342t313 239t401.5 84.5q205 -2 355 -89t241.5 -237.5t120.5 -345.5zM1046 2272l261 221l185 -222l250 -4l9 25l-300 375h-176l-456 -376l-9 -25z" />
    <glyph glyph-name="ccircumflex" unicode="&#x109;" horiz-adv-x="1566" 
d="M92 0zM1453 1060l-285 -26q-22 114 -91.5 185.5t-190.5 75.5q-147 4 -249 -76t-160 -204.5t-74 -253.5q-11 -84 -5.5 -175.5t36.5 -171t95 -130.5t170 -54q125 -3 220 65.5t138 183.5l291 -23q-33 -154 -132 -264t-237.5 -168t-290.5 -55q-166 2 -283.5 69.5
t-188.5 180.5t-97.5 253.5t-9.5 289.5q17 156 79 299.5t163.5 256t238.5 177t305 61.5q229 -3 379 -137t179 -359zM716 1788l261 221l185 -222l250 -4l9 25l-300 375h-176l-456 -376l-9 -25z" />
    <glyph glyph-name="Cdotaccent" unicode="&#x10a;" horiz-adv-x="2017" 
d="M150 0zM1933 1404l-302 -20q-26 178 -136 287.5t-294 113.5q-160 4 -284.5 -62t-214.5 -178.5t-145 -250t-75 -278.5q-18 -123 -11 -253.5t51.5 -243t137 -183t246.5 -74.5q194 -4 352.5 103.5t223.5 291.5l304 -20q-51 -201 -185 -351.5t-319.5 -233t-390.5 -80.5
q-217 2 -366 93.5t-234.5 242t-113 335.5t-1.5 374q27 203 109.5 393.5t216 342t313 239t401.5 84.5q205 -2 355 -89t241.5 -237.5t120.5 -345.5zM1142 2398q-2 76 45.5 126t123.5 51q74 1 124 -45t52 -120q1 -76 -48.5 -123t-124.5 -48q-72 -1 -121.5 42.5t-50.5 116.5z
" />
    <glyph glyph-name="cdotaccent" unicode="&#x10b;" horiz-adv-x="1566" 
d="M92 0zM1453 1060l-285 -26q-22 114 -91.5 185.5t-190.5 75.5q-147 4 -249 -76t-160 -204.5t-74 -253.5q-11 -84 -5.5 -175.5t36.5 -171t95 -130.5t170 -54q125 -3 220 65.5t138 183.5l291 -23q-33 -154 -132 -264t-237.5 -168t-290.5 -55q-166 2 -283.5 69.5
t-188.5 180.5t-97.5 253.5t-9.5 289.5q17 156 79 299.5t163.5 256t238.5 177t305 61.5q229 -3 379 -137t179 -359zM812 1914q-2 76 45.5 126t123.5 51q74 1 124 -45t52 -120q1 -76 -48.5 -123t-124.5 -48q-72 -1 -121.5 42.5t-50.5 116.5z" />
    <glyph glyph-name="Ccaron" unicode="&#x10c;" horiz-adv-x="2017" 
d="M150 0zM1933 1404l-302 -20q-26 178 -136 287.5t-294 113.5q-160 4 -284.5 -62t-214.5 -178.5t-145 -250t-75 -278.5q-18 -123 -11 -253.5t51.5 -243t137 -183t246.5 -74.5q194 -4 352.5 103.5t223.5 291.5l304 -20q-51 -201 -185 -351.5t-319.5 -233t-390.5 -80.5
q-217 2 -366 93.5t-234.5 242t-113 335.5t-1.5 374q27 203 109.5 393.5t216 342t313 239t401.5 84.5q205 -2 355 -89t241.5 -237.5t120.5 -345.5zM1103 2599l182 -221l261 220l254 5l1 -23l-431 -377h-178l-326 378v22z" />
    <glyph glyph-name="ccaron" unicode="&#x10d;" horiz-adv-x="1566" 
d="M92 0zM1453 1060l-285 -26q-22 114 -91.5 185.5t-190.5 75.5q-147 4 -249 -76t-160 -204.5t-74 -253.5q-11 -84 -5.5 -175.5t36.5 -171t95 -130.5t170 -54q125 -3 220 65.5t138 183.5l291 -23q-33 -154 -132 -264t-237.5 -168t-290.5 -55q-166 2 -283.5 69.5
t-188.5 180.5t-97.5 253.5t-9.5 289.5q17 156 79 299.5t163.5 256t238.5 177t305 61.5q229 -3 379 -137t179 -359zM773 2115l182 -221l261 220l254 5l1 -23l-431 -377h-178l-326 378v22z" />
    <glyph glyph-name="Dcaron" unicode="&#x10e;" horiz-adv-x="1993" 
d="M58 0zM720 0h-662l355 2048h643q223 -3 381.5 -84t253.5 -221.5t128 -323t5 -388.5q-40 -296 -184.5 -529.5t-378 -368t-541.5 -133.5zM1027 1770h-352l-259 -1492l298 -1q231 0 399.5 97.5t271 268.5t135.5 391q28 193 -6.5 359t-151 269.5t-335.5 107.5zM874 2599
l182 -221l261 220l254 5l1 -23l-431 -377h-178l-326 378v22z" />
    <glyph glyph-name="dcaron" unicode="&#x10f;" horiz-adv-x="1835" 
d="M92 0zM1310 0h-294l46 212h-17q-78 -114 -186.5 -179t-250.5 -63q-159 2 -263.5 74.5t-161.5 189t-74 254.5t-1 270q18 146 73 289t147 259.5t220.5 184.5t293.5 64q124 -3 223.5 -62t147.5 -176l18 -1l134 732h301zM401 761q-12 -83 -8.5 -174t32 -171t90.5 -131.5
t167 -54.5q150 -5 250 78.5t155.5 211t73.5 255.5q12 81 9.5 170.5t-29 168t-86.5 128.5t-165 54q-149 4 -251.5 -76t-161 -205t-76.5 -254zM2107 2142l-27 -157q-26 -152 -86.5 -297t-162.5 -263l-205 64q58 118 112.5 235.5t78.5 248.5l30 169h260z" />
    <glyph glyph-name="Dcroat" unicode="&#x110;" horiz-adv-x="2023" 
d="M750 0h-662l159 917h-188l36 209h188l160 922h643q223 -3 381.5 -84t253.5 -221.5t128 -323t5 -388.5q-40 -296 -184.5 -529.5t-378 -368t-541.5 -133.5zM986 1126l-37 -209h-392l-111 -639l298 -1q231 0 399.5 97.5t271 268.5t135.5 391q28 193 -6.5 359t-151 269.5
t-335.5 107.5h-352l-112 -644h393z" />
    <glyph glyph-name="dcroat" unicode="&#x111;" horiz-adv-x="1726" 
d="M1310 0h-294l46 212h-17q-78 -114 -186.5 -179t-250.5 -64q-159 3 -263.5 75.5t-161.5 189t-74 254.5t-1 270q18 145 73 288.5t147 260t220.5 184.5t293.5 64q124 -3 223.5 -62t147.5 -176l18 -1l73 383h-373l37 209h372l25 140h301l-25 -140h218l-37 -209h-217zM401 760
q-12 -82 -8.5 -173t32 -171t90.5 -131.5t167 -54.5q150 -5 250 78.5t155.5 211t73.5 255.5q12 81 9.5 170.5t-29 168t-86.5 128.5t-165 54q-149 4 -251.5 -76t-161 -205t-76.5 -255z" />
    <glyph glyph-name="Emacron" unicode="&#x112;" horiz-adv-x="1664" 
d="M58 0zM1358 272l-48 -272h-1252l355 2048h1243l-48 -272h-932l-107 -614h821l-48 -273h-820l-107 -617h943zM1600 2494l-34 -214h-917l34 214h917z" />
    <glyph glyph-name="emacron" unicode="&#x113;" horiz-adv-x="1631" 
d="M84 0zM712 -31q-223 3 -365 110.5t-202.5 283.5t-37.5 383q18 159 80 305.5t164.5 261.5t241.5 180.5t310 63.5q214 -3 343.5 -111t180.5 -279.5t28 -364.5l-18 -129h-1179l37 233l878 -1q17 101 -9 189t-95 143t-179 58q-150 5 -252.5 -76.5t-161 -208t-74.5 -257.5
q-15 -123 4.5 -242t93 -198.5t221.5 -82.5q124 -3 222 56t152 170l272 -76q-42 -139 -145.5 -231t-238 -137t-271.5 -43zM1450 2010l-34 -214h-917l34 214h917z" />
    <glyph glyph-name="Ebreve" unicode="&#x114;" horiz-adv-x="1664" 
d="M58 0zM1358 272l-48 -272h-1252l355 2048h1243l-48 -272h-932l-107 -614h821l-48 -273h-820l-107 -617h943zM1329 2570l241 1q-6 -125 -71 -212.5t-168 -132.5t-222 -42q-175 3 -284.5 107t-108.5 280l241 -1q-3 -80 32.5 -134t123.5 -56q91 -2 147.5 50.5t68.5 139.5z
" />
    <glyph glyph-name="ebreve" unicode="&#x115;" horiz-adv-x="1631" 
d="M84 0zM712 -31q-223 3 -365 110.5t-202.5 283.5t-37.5 383q18 159 80 305.5t164.5 261.5t241.5 180.5t310 63.5q214 -3 343.5 -111t180.5 -279.5t28 -364.5l-18 -129h-1179l37 233l878 -1q17 101 -9 189t-95 143t-179 58q-150 5 -252.5 -76.5t-161 -208t-74.5 -257.5
q-15 -123 4.5 -242t93 -198.5t221.5 -82.5q124 -3 222 56t152 170l272 -76q-42 -139 -145.5 -231t-238 -137t-271.5 -43zM1179 2086l241 1q-6 -125 -71 -212.5t-168 -132.5t-222 -42q-175 3 -284.5 107t-108.5 280l241 -1q-3 -80 32.5 -134t123.5 -56q91 -2 147.5 50.5
t68.5 139.5z" />
    <glyph glyph-name="Edotaccent" unicode="&#x116;" horiz-adv-x="1664" 
d="M58 0zM1358 272l-48 -272h-1252l355 2048h1243l-48 -272h-932l-107 -614h821l-48 -273h-820l-107 -617h943zM961 2398q-2 76 45.5 126t123.5 51q74 1 124 -45t52 -120q1 -76 -48.5 -123t-124.5 -48q-72 -1 -121.5 42.5t-50.5 116.5z" />
    <glyph glyph-name="edotaccent" unicode="&#x117;" horiz-adv-x="1631" 
d="M84 0zM712 -31q-223 3 -365 110.5t-202.5 283.5t-37.5 383q18 159 80 305.5t164.5 261.5t241.5 180.5t310 63.5q214 -3 343.5 -111t180.5 -279.5t28 -364.5l-18 -129h-1179l37 233l878 -1q17 101 -9 189t-95 143t-179 58q-150 5 -252.5 -76.5t-161 -208t-74.5 -257.5
q-15 -123 4.5 -242t93 -198.5t221.5 -82.5q124 -3 222 56t152 170l272 -76q-42 -139 -145.5 -231t-238 -137t-271.5 -43zM811 1914q-2 76 45.5 126t123.5 51q74 1 124 -45t52 -120q1 -76 -48.5 -123t-124.5 -48q-72 -1 -121.5 42.5t-50.5 116.5z" />
    <glyph glyph-name="Eogonek" unicode="&#x118;" horiz-adv-x="1664" 
d="M1358 272l-48 -272h-91l7 -4q-50 -33 -106 -73.5t-98.5 -91.5t-51.5 -116q-12 -84 69 -85q32 -1 62.5 9.5t58.5 23.5l15 -196q-46 -32 -102 -45t-111 -12q-117 2 -190 74.5t-69 190.5q3 109 66 188.5t149 136.5h-860l355 2048h1243l-48 -272h-932l-107 -614h821l-48 -273
h-820l-107 -617h943z" />
    <glyph glyph-name="eogonek" unicode="&#x119;" horiz-adv-x="1631" 
d="M1053 -455q-47 -32 -103 -45t-111 -12q-117 2 -190 74.5t-69 190.5q2 64 26 118t63 99q-208 14 -340.5 123.5t-188 281t-33.5 371.5q18 159 80 305.5t164.5 261.5t241.5 180.5t310 63.5q214 -3 343.5 -111t180.5 -279.5t28 -364.5l-18 -129h-1042q-4 -110 22.5 -210.5
t99 -165t204.5 -67.5q124 -3 222 56t152 170l272 -76q-37 -123 -123 -209t-198 -135q-67 -45 -127 -104t-72 -139q-12 -84 70 -85q32 -1 62 9.5t59 23.5zM890 1295q-121 4 -211 -50t-151 -144t-93 -195l738 -1q17 101 -9 189t-95 143t-179 58z" />
    <glyph glyph-name="Ecaron" unicode="&#x11a;" horiz-adv-x="1664" 
d="M58 0zM1358 272l-48 -272h-1252l355 2048h1243l-48 -272h-932l-107 -614h821l-48 -273h-820l-107 -617h943zM922 2599l182 -221l261 220l254 5l1 -23l-431 -377h-178l-326 378v22z" />
    <glyph glyph-name="ecaron" unicode="&#x11b;" horiz-adv-x="1631" 
d="M84 0zM712 -31q-223 3 -365 110.5t-202.5 283.5t-37.5 383q18 159 80 305.5t164.5 261.5t241.5 180.5t310 63.5q214 -3 343.5 -111t180.5 -279.5t28 -364.5l-18 -129h-1179l37 233l878 -1q17 101 -9 189t-95 143t-179 58q-150 5 -252.5 -76.5t-161 -208t-74.5 -257.5
q-15 -123 4.5 -242t93 -198.5t221.5 -82.5q124 -3 222 56t152 170l272 -76q-42 -139 -145.5 -231t-238 -137t-271.5 -43zM772 2115l182 -221l261 220l254 5l1 -23l-431 -377h-178l-326 378v22z" />
    <glyph glyph-name="Gcircumflex" unicode="&#x11c;" horiz-adv-x="2052" 
d="M150 0zM1877 1042l-43 -258q-37 -236 -167.5 -420.5t-329 -289.5t-441.5 -102q-218 2 -368 92.5t-236.5 241t-114 335.5t-2.5 376q28 201 109.5 391.5t214 342.5t311 240t399.5 86q204 -3 350 -90.5t238 -237t137 -335.5l-310 -20q-39 167 -145 276.5t-286 114.5
q-158 4 -281.5 -62.5t-212.5 -179.5t-143.5 -251t-74.5 -276q-18 -125 -10 -256t53.5 -242.5t139.5 -182t248 -73.5q162 -3 289.5 65.5t214.5 188t126 269.5l-463 -2l46 259h752zM1041 2272l261 221l185 -222l250 -4l9 25l-300 375h-176l-456 -376l-9 -25z" />
    <glyph glyph-name="gcircumflex" unicode="&#x11d;" horiz-adv-x="1685" 
d="M0 0zM1282 1533h294l-260 -1518q-29 -196 -136.5 -329.5t-269.5 -201t-354 -64.5q-168 2 -319.5 67t-248.5 209l201 186q75 -90 163 -143t209 -56q173 -5 302 87.5t159 267.5l44 219h-14q-79 -112 -186.5 -172.5t-247.5 -59.5q-154 2 -258.5 67.5t-164.5 174t-80 239.5
t-4 264q17 144 72.5 285.5t148 255.5t220.5 181t290 63q124 -3 223.5 -62t147.5 -176l25 -1zM404 772q-16 -111 0.5 -222.5t83.5 -186.5t203 -79q144 -4 243 69t155.5 189.5t74.5 244.5q11 81 7.5 168.5t-31.5 163.5t-88 124.5t-162 51.5q-146 5 -248 -73t-161.5 -200
t-76.5 -250zM758 1788l261 221l185 -222l250 -4l9 25l-300 375h-176l-456 -376l-9 -25z" />
    <glyph glyph-name="Gbreve" unicode="&#x11e;" horiz-adv-x="2052" 
d="M150 0zM1877 1042l-43 -258q-37 -236 -167.5 -420.5t-329 -289.5t-441.5 -102q-218 2 -368 92.5t-236.5 241t-114 335.5t-2.5 376q28 201 109.5 391.5t214 342.5t311 240t399.5 86q204 -3 350 -90.5t238 -237t137 -335.5l-310 -20q-39 167 -145 276.5t-286 114.5
q-158 4 -281.5 -62.5t-212.5 -179.5t-143.5 -251t-74.5 -276q-18 -125 -10 -256t53.5 -242.5t139.5 -182t248 -73.5q162 -3 289.5 65.5t214.5 188t126 269.5l-463 -2l46 259h752zM1505 2570l241 1q-6 -125 -71 -212.5t-168 -132.5t-222 -42q-175 3 -284.5 107t-108.5 280
l241 -1q-3 -80 32.5 -134t123.5 -56q91 -2 147.5 50.5t68.5 139.5z" />
    <glyph glyph-name="gbreve" unicode="&#x11f;" horiz-adv-x="1685" 
d="M0 0zM1282 1533h294l-260 -1518q-29 -196 -136.5 -329.5t-269.5 -201t-354 -64.5q-168 2 -319.5 67t-248.5 209l201 186q75 -90 163 -143t209 -56q173 -5 302 87.5t159 267.5l44 219h-14q-79 -112 -186.5 -172.5t-247.5 -59.5q-154 2 -258.5 67.5t-164.5 174t-80 239.5
t-4 264q17 144 72.5 285.5t148 255.5t220.5 181t290 63q124 -3 223.5 -62t147.5 -176l25 -1zM404 772q-16 -111 0.5 -222.5t83.5 -186.5t203 -79q144 -4 243 69t155.5 189.5t74.5 244.5q11 81 7.5 168.5t-31.5 163.5t-88 124.5t-162 51.5q-146 5 -248 -73t-161.5 -200
t-76.5 -250zM1222 2086l241 1q-6 -125 -71 -212.5t-168 -132.5t-222 -42q-175 3 -284.5 107t-108.5 280l241 -1q-3 -80 32.5 -134t123.5 -56q91 -2 147.5 50.5t68.5 139.5z" />
    <glyph glyph-name="Gdotaccent" unicode="&#x120;" horiz-adv-x="2052" 
d="M150 0zM1877 1042l-43 -258q-37 -236 -167.5 -420.5t-329 -289.5t-441.5 -102q-218 2 -368 92.5t-236.5 241t-114 335.5t-2.5 376q28 201 109.5 391.5t214 342.5t311 240t399.5 86q204 -3 350 -90.5t238 -237t137 -335.5l-310 -20q-39 167 -145 276.5t-286 114.5
q-158 4 -281.5 -62.5t-212.5 -179.5t-143.5 -251t-74.5 -276q-18 -125 -10 -256t53.5 -242.5t139.5 -182t248 -73.5q162 -3 289.5 65.5t214.5 188t126 269.5l-463 -2l46 259h752zM1137 2398q-2 76 45.5 126t123.5 51q74 1 124 -45t52 -120q1 -76 -48.5 -123t-124.5 -48
q-72 -1 -121.5 42.5t-50.5 116.5z" />
    <glyph glyph-name="gdotaccent" unicode="&#x121;" horiz-adv-x="1685" 
d="M0 0zM1282 1533h294l-260 -1518q-29 -196 -136.5 -329.5t-269.5 -201t-354 -64.5q-168 2 -319.5 67t-248.5 209l201 186q75 -90 163 -143t209 -56q173 -5 302 87.5t159 267.5l44 219h-14q-79 -112 -186.5 -172.5t-247.5 -59.5q-154 2 -258.5 67.5t-164.5 174t-80 239.5
t-4 264q17 144 72.5 285.5t148 255.5t220.5 181t290 63q124 -3 223.5 -62t147.5 -176l25 -1zM404 772q-16 -111 0.5 -222.5t83.5 -186.5t203 -79q144 -4 243 69t155.5 189.5t74.5 244.5q11 81 7.5 168.5t-31.5 163.5t-88 124.5t-162 51.5q-146 5 -248 -73t-161.5 -200
t-76.5 -250zM854 1914q-2 76 45.5 126t123.5 51q74 1 124 -45t52 -120q1 -76 -48.5 -123t-124.5 -48q-72 -1 -121.5 42.5t-50.5 116.5z" />
    <glyph glyph-name="Gcommaaccent" unicode="&#x122;" horiz-adv-x="2052" 
d="M150 0zM1877 1042l-43 -258q-37 -236 -167.5 -420.5t-329 -289.5t-441.5 -102q-218 2 -368 92.5t-236.5 241t-114 335.5t-2.5 376q28 201 109.5 391.5t214 342.5t311 240t399.5 86q204 -3 350 -90.5t238 -237t137 -335.5l-310 -20q-39 167 -145 276.5t-286 114.5
q-158 4 -281.5 -62.5t-212.5 -179.5t-143.5 -251t-74.5 -276q-18 -125 -10 -256t53.5 -242.5t139.5 -182t248 -73.5q162 -3 289.5 65.5t214.5 188t126 269.5l-463 -2l46 259h752zM1001 -135l-27 -157q-26 -152 -86.5 -297t-162.5 -263l-205 64q58 118 112.5 235.5
t78.5 248.5l30 169h260z" />
    <glyph glyph-name="gcommaaccent" unicode="&#x123;" horiz-adv-x="1685" 
d="M0 0zM1282 1533h294l-260 -1518q-29 -196 -136.5 -329.5t-269.5 -201t-354 -64.5q-168 2 -319.5 67t-248.5 209l201 186q75 -90 163 -143t209 -56q173 -5 302 87.5t159 267.5l44 219h-14q-79 -112 -186.5 -172.5t-247.5 -59.5q-154 2 -258.5 67.5t-164.5 174t-80 239.5
t-4 264q17 144 72.5 285.5t148 255.5t220.5 181t290 63q124 -3 223.5 -62t147.5 -176l25 -1zM404 772q-16 -111 0.5 -222.5t83.5 -186.5t203 -79q144 -4 243 69t155.5 189.5t74.5 244.5q11 81 7.5 168.5t-31.5 163.5t-88 124.5t-162 51.5q-146 5 -248 -73t-161.5 -200
t-76.5 -250zM847 1739l28 180q20 127 86 244t171 194l167 -121q-48 -78 -84.5 -158.5t-53.5 -171.5l-31 -167h-283z" />
    <glyph glyph-name="Hcircumflex" unicode="&#x124;" horiz-adv-x="2031" 
d="M58 0zM723 2048l-154 -886h946l154 886h311l-355 -2048h-311l154 889h-946l-154 -889h-310l355 2048h310zM1032 2272l261 221l185 -222l250 -4l9 25l-300 375h-176l-456 -376l-9 -25z" />
    <glyph glyph-name="hcircumflex" unicode="&#x125;" horiz-adv-x="1617" 
d="M38 0zM490 892l-153 -892h-299l355 2048h295l-133 -713l10 1q85 104 200.5 163t252.5 57q162 -3 253.5 -90.5t123.5 -220.5t15 -274l-166 -971h-300l166 973q15 119 -29 212.5t-179 99.5q-115 4 -201 -51t-140 -146t-71 -196zM890 2313l261 221l185 -222l250 -4l9 25
l-300 375h-176l-456 -376l-9 -25z" />
    <glyph glyph-name="Hbar" unicode="&#x126;" horiz-adv-x="1996" 
d="M726 2048l-71 -403h947l70 403h310l-70 -403h153l-38 -220h-153l-247 -1425h-310l154 889h-946l-155 -889h-309l247 1425h-158l38 220h158l70 403h310zM572 1162h946l46 263h-946z" />
    <glyph glyph-name="hbar" unicode="&#x127;" horiz-adv-x="1647" 
d="M520 892l-153 -892h-299l295 1701h-266l37 209h265l24 138h295l-26 -138h333l-37 -209h-335l-68 -366l10 1q85 104 200.5 163t252.5 57q162 -3 253.5 -90.5t123.5 -220.5t15 -274l-166 -971h-300l166 973q15 119 -29 212.5t-179 99.5q-115 4 -201 -51t-140 -146t-71 -196
z" />
    <glyph glyph-name="Itilde" unicode="&#x128;" horiz-adv-x="736" 
d="M58 0zM723 2048l-355 -2048h-310l355 2048h310zM922 2590l195 -14q-5 -91 -44 -173t-110 -133.5t-171 -49.5q-68 2 -122.5 34.5t-108.5 64t-119 30.5q-63 0 -98.5 -44t-47.5 -101l-200 10q6 89 45.5 172.5t111 136.5t171.5 51q65 -2 120 -34t109.5 -63.5t119.5 -31.5
q64 1 100.5 45t48.5 100z" />
    <glyph glyph-name="itilde" unicode="&#x129;" horiz-adv-x="1253" 
d="M1114 2107l194 -14q-6 -92 -45 -174t-110 -133t-172 -49q-68 1 -122.5 34t-108.5 64.5t-118 31.5q-64 -1 -100.5 -45t-48.5 -101l-201 10q7 90 47 173.5t112 136.5t172 51q66 -2 120.5 -34.5t109 -64.5t119.5 -31q64 1 101.5 45t50.5 100zM883 1536l-266 -1536h-300
l266 1536h300z" />
    <glyph glyph-name="Imacron" unicode="&#x12a;" horiz-adv-x="736" 
d="M58 0zM723 2048l-355 -2048h-310l355 2048h310zM1087 2494l-34 -214h-917l34 214h917z" />
    <glyph glyph-name="imacron" unicode="&#x12b;" horiz-adv-x="693" 
d="M43 0zM610 1536l-267 -1536h-300l267 1536h300zM999 2002l-34 -214h-917l34 214h917z" />
    <glyph glyph-name="Ibreve" unicode="&#x12c;" horiz-adv-x="736" 
d="M58 0zM723 2048l-355 -2048h-310l355 2048h310zM816 2570l241 1q-6 -125 -71 -212.5t-168 -132.5t-222 -42q-175 3 -284.5 107t-108.5 280l241 -1q-3 -80 32.5 -134t123.5 -56q91 -2 147.5 50.5t68.5 139.5z" />
    <glyph glyph-name="ibreve" unicode="&#x12d;" horiz-adv-x="693" 
d="M43 0zM610 1536l-267 -1536h-300l267 1536h300zM728 2078l241 1q-6 -125 -71 -212.5t-168 -132.5t-222 -42q-175 3 -284.5 107t-108.5 280l241 -1q-3 -80 32.5 -134t123.5 -56q91 -2 147.5 50.5t68.5 139.5z" />
    <glyph glyph-name="Iogonek" unicode="&#x12e;" horiz-adv-x="736" 
d="M0 0zM723 2048l-355 -2048h-310l355 2048h310zM183 96l150 -89q-50 -33 -106 -73.5t-98.5 -91.5t-51.5 -116q-12 -84 69 -85q32 -1 62.5 9.5t58.5 23.5l15 -196q-46 -32 -102 -45t-111 -12q-117 2 -190 74.5t-69 190.5q3 105 60.5 182.5t142.5 133.5t170 94z" />
    <glyph glyph-name="iogonek" unicode="&#x12f;" horiz-adv-x="693" 
d="M0 0zM520 1711q-76 -1 -130.5 49.5t-56.5 127.5q-2 78 55 133t134 56q74 1 129 -50t57 -126q2 -80 -54 -135t-134 -55zM610 1536l-267 -1536h-300l267 1536h300zM157 85l150 -89q-50 -33 -106 -73.5t-98.5 -91.5t-51.5 -116q-12 -84 69 -85q32 -1 62.5 9.5t58.5 23.5
l15 -196q-46 -32 -102 -45t-111 -12q-117 2 -190 74.5t-69 190.5q3 105 60.5 182.5t142.5 133.5t170 94z" />
    <glyph glyph-name="Idotaccent" unicode="&#x130;" horiz-adv-x="736" 
d="M58 0zM723 2048l-355 -2048h-310l355 2048h310zM448 2398q-2 76 45.5 126t123.5 51q74 1 124 -45t52 -120q1 -76 -48.5 -123t-124.5 -48q-72 -1 -121.5 42.5t-50.5 116.5z" />
    <glyph glyph-name="dotlessi" unicode="&#x131;" horiz-adv-x="693" 
d="M610 1536l-267 -1536h-300l267 1536h300z" />
    <glyph glyph-name="IJ" unicode="&#x132;" horiz-adv-x="2465" 
d="M314 0zM979 2048l-355 -2048h-310l355 2048h310zM1889 598l248 1450h309l-249 -1450q-27 -184 -120 -327t-240.5 -223.5t-338.5 -76.5q-257 4 -399 161.5t-133 409.5h304q-6 -127 57 -211.5t196 -89.5q107 -5 183 44.5t122 132.5t61 180z" />
    <glyph glyph-name="ij" unicode="&#x133;" horiz-adv-x="1696" 
d="M299 0zM776 1711q-76 -1 -130.5 49.5t-56.5 127.5q-2 78 55 133t134 56q74 1 129 -50t57 -126q2 -80 -54 -135t-134 -55zM866 1536l-267 -1536h-300l267 1536h300zM1521 1712q-75 -1 -129.5 49t-56.5 126q-2 78 55 133t134 56q73 1 127.5 -50t56.5 -125q2 -80 -53.5 -134
t-133.5 -55zM1311 1536h300l-279 -1627q-31 -229 -172 -359.5t-375 -130.5l-104 1l37 265l55 -2q112 -1 176.5 59.5t81.5 168.5z" />
    <glyph glyph-name="Jcircumflex" unicode="&#x134;" horiz-adv-x="1473" 
d="M0 0zM897 598l248 1450h309l-249 -1450q-27 -184 -120 -327t-240.5 -223.5t-338.5 -76.5q-257 4 -399 161.5t-133 409.5h304q-6 -127 57 -211.5t196 -89.5q107 -5 183 44.5t122 132.5t61 180zM1114 2272l261 221l185 -222l250 -4l9 25l-300 375h-176l-456 -376l-9 -25z
" />
    <glyph glyph-name="jcircumflex" unicode="&#x135;" horiz-adv-x="747" 
d="M0 0zM362 1536h300l-279 -1627q-32 -227 -173 -359t-374 -131l-104 1l37 265l54 -1q111 0 175.5 60.5t83.5 166.5zM302 1726l261 221l185 -222l250 -4l9 25l-300 375h-176l-456 -376l-9 -25z" />
    <glyph glyph-name="Kcommaaccent" unicode="&#x136;" horiz-adv-x="1893" 
d="M58 0zM1261 0l-484 890l-306 -292l-103 -598h-310l355 2048h310l-176 -968l19 1l1013 967h430l-1015 -946l624 -1102h-357zM892 -42l-27 -157q-26 -152 -86.5 -297t-162.5 -263l-205 64q58 118 112.5 235.5t78.5 248.5l30 169h260z" />
    <glyph glyph-name="kcommaaccent" unicode="&#x137;" horiz-adv-x="1517" 
d="M38 0zM981 0l-360 684l-197 -186l-87 -498h-299l355 2048h300l-208 -1148l20 1l648 635h384l-698 -669l464 -867h-322zM708 -124l-27 -157q-26 -152 -86.5 -297t-162.5 -263l-205 64q58 118 112.5 235.5t78.5 248.5l30 169h260z" />
    <glyph glyph-name="kgreenlandic" unicode="&#x138;" horiz-adv-x="1780" 
d="M981 0l-340 593h-154l-103 -593h-322l258 1488h322l-104 -596h98l558 596l419 -1l-697 -734l456 -753h-391z" />
    <glyph glyph-name="Lacute" unicode="&#x139;" horiz-adv-x="1568" 
d="M58 0zM1301 272l-48 -272h-1195l355 2048h310l-308 -1776h886zM441 2191l309 416h329l-388 -416h-250z" />
    <glyph glyph-name="lacute" unicode="&#x13a;" horiz-adv-x="683" 
d="M38 0zM693 2048l-356 -2048h-299l355 2048h300zM419 2225l309 416h329l-388 -416h-250z" />
    <glyph glyph-name="Lcommaaccent" unicode="&#x13b;" horiz-adv-x="1568" 
d="M58 0zM1301 272l-48 -272h-1195l355 2048h310l-308 -1776h886zM789 -108l-27 -157q-26 -152 -86.5 -297t-162.5 -263l-205 64q58 118 112.5 235.5t78.5 248.5l30 169h260z" />
    <glyph glyph-name="lcommaaccent" unicode="&#x13c;" horiz-adv-x="683" 
d="M0 0zM693 2048l-356 -2048h-299l355 2048h300zM278 -113l-27 -157q-26 -152 -86.5 -297t-162.5 -263l-205 64q58 118 112.5 235.5t78.5 248.5l30 169h260z" />
    <glyph glyph-name="Lcaron" unicode="&#x13d;" horiz-adv-x="1568" 
d="M58 0zM1301 272l-48 -272h-1195l355 2048h310l-308 -1776h886zM1345 2031l-27 -157q-26 -152 -86.5 -297t-162.5 -263l-205 64q58 118 112.5 235.5t78.5 248.5l30 169h260z" />
    <glyph glyph-name="lcaron" unicode="&#x13e;" horiz-adv-x="833" 
d="M38 0zM693 2048l-356 -2048h-299l355 2048h300zM1162 2142l-27 -157q-26 -152 -86.5 -297t-162.5 -263l-205 64q58 118 112.5 235.5t78.5 248.5l30 169h260z" />
    <glyph glyph-name="Ldot" unicode="&#x13f;" horiz-adv-x="1568" 
d="M58 0zM1301 272l-48 -272h-1195l355 2048h310l-308 -1776h886zM848 1138q-2 76 45.5 126t123.5 51q74 1 124 -45t52 -120q1 -76 -48.5 -123t-124.5 -48q-72 -1 -121.5 42.5t-50.5 116.5z" />
    <glyph glyph-name="ldot" unicode="&#x140;" horiz-adv-x="903" 
d="M38 0zM693 2048l-356 -2048h-299l355 2048h300zM668 1089q-2 76 45.5 126t123.5 51q74 1 124 -45t52 -120q1 -76 -48.5 -123t-124.5 -48q-72 -1 -121.5 42.5t-50.5 116.5z" />
    <glyph glyph-name="L_slash" unicode="&#x141;" horiz-adv-x="1650" 
d="M1355 272l-48 -272h-1195l155 892l-202 -59l38 211l201 60l163 944h310l-147 -846l342 101l-37 -213l-341 -101l-125 -717h886z" />
    <glyph glyph-name="lslash" unicode="&#x142;" horiz-adv-x="683" 
d="M763 1306l-37 -211l-211 -73l-178 -1022h-299l158 911l-215 -73l37 211l214 74l161 925h300l-142 -814z" />
    <glyph glyph-name="Nacute" unicode="&#x143;" horiz-adv-x="2028" 
d="M58 0zM1977 2048l-355 -2048h-291l-677 1494l-21 1l-265 -1495h-310l355 2048h293l677 -1499l20 -1l266 1500h308zM1104 2191l309 416h329l-388 -416h-250z" />
    <glyph glyph-name="nacute" unicode="&#x144;" horiz-adv-x="1632" 
d="M38 0zM488 879l-151 -879h-299l266 1536h290l-50 -231l10 1q80 119 198.5 186t264.5 64q165 -3 259.5 -88.5t129 -218t17.5 -278.5l-165 -971h-301l163 956q11 81 -6.5 154.5t-69.5 122t-143 51.5q-114 5 -200.5 -54t-141 -154t-71.5 -197zM809 1707l309 416h329
l-388 -416h-250z" />
    <glyph glyph-name="Ncommaaccent" unicode="&#x145;" horiz-adv-x="2028" 
d="M58 0zM1977 2048l-355 -2048h-291l-677 1494l-21 1l-265 -1495h-310l355 2048h293l677 -1499l20 -1l266 1500h308zM966 -113l-27 -157q-26 -152 -86.5 -297t-162.5 -263l-205 64q58 118 112.5 235.5t78.5 248.5l30 169h260z" />
    <glyph glyph-name="ncommaaccent" unicode="&#x146;" horiz-adv-x="1632" 
d="M38 0zM488 879l-151 -879h-299l266 1536h290l-50 -231l10 1q80 119 198.5 186t264.5 64q165 -3 259.5 -88.5t129 -218t17.5 -278.5l-165 -971h-301l163 956q11 81 -6.5 154.5t-69.5 122t-143 51.5q-114 5 -200.5 -54t-141 -154t-71.5 -197zM775 -124l-27 -157
q-26 -152 -86.5 -297t-162.5 -263l-205 64q58 118 112.5 235.5t78.5 248.5l30 169h260z" />
    <glyph glyph-name="Ncaron" unicode="&#x147;" horiz-adv-x="2028" 
d="M58 0zM1977 2048l-355 -2048h-291l-677 1494l-21 1l-265 -1495h-310l355 2048h293l677 -1499l20 -1l266 1500h308zM1084 2599l182 -221l261 220l254 5l1 -23l-431 -377h-178l-326 378v22z" />
    <glyph glyph-name="ncaron" unicode="&#x148;" horiz-adv-x="1632" 
d="M38 0zM488 879l-151 -879h-299l266 1536h290l-50 -231l10 1q80 119 198.5 186t264.5 64q165 -3 259.5 -88.5t129 -218t17.5 -278.5l-165 -971h-301l163 956q11 81 -6.5 154.5t-69.5 122t-143 51.5q-114 5 -200.5 -54t-141 -154t-71.5 -197zM790 2115l182 -221l261 220
l254 5l1 -23l-431 -377h-178l-326 378v22z" />
    <glyph glyph-name="napostrophe" unicode="&#x149;" horiz-adv-x="1632" 
d="M0 0zM488 879l-151 -879h-299l266 1536h290l-50 -231l10 1q80 119 198.5 186t264.5 64q165 -3 259.5 -88.5t129 -218t17.5 -278.5l-165 -971h-301l163 956q11 81 -6.5 154.5t-69.5 122t-143 51.5q-114 5 -200.5 -54t-141 -154t-71.5 -197zM330 2146l-27 -157
q-26 -152 -86.5 -297t-162.5 -263l-205 64q58 118 112.5 235.5t78.5 248.5l30 169h260z" />
    <glyph glyph-name="Eng" unicode="&#x14a;" horiz-adv-x="2028" 
d="M1977 2048l-372 -2168q-29 -214 -172 -342.5t-360 -127.5q-42 0 -83 2.5t-83 10.5l28 259q21 -3 43 -5.5t43 -3.5q109 -3 183 52.5t93 164.5l23 136l-666 1468l-21 1l-265 -1495h-310l355 2048h293l677 -1499l20 -1l266 1500h308z" />
    <glyph glyph-name="eng" unicode="&#x14b;" horiz-adv-x="1632" 
d="M488 879l-151 -879h-299l266 1536h290l-50 -231l10 1q80 119 198.5 186t264.5 64q165 -3 259.5 -88.5t129 -218.5t17.5 -278l-182 -1089q-28 -206 -159 -337.5t-346 -130.5q-43 0 -86 4t-85 12l37 256q23 -5 45.5 -9t45.5 -5q103 -4 166 53t80 157l181 1074
q11 81 -7 154.5t-69.5 122t-142.5 52.5q-114 4 -200.5 -55t-141 -154t-71.5 -197z" />
    <glyph glyph-name="Omacron" unicode="&#x14c;" horiz-adv-x="2100" 
d="M151 0zM1930 1029q-28 -203 -110.5 -393t-215 -340.5t-312 -238.5t-400.5 -85q-217 3 -366 94t-234.5 242t-113 335.5t-1.5 373.5q27 203 109.5 393.5t216 341.5t313 239t401.5 85q217 -3 365.5 -94.5t233.5 -243t112 -336t2 -373.5zM1624 1030q17 123 10.5 253.5
t-50 243.5t-136 184t-246.5 74q-159 4 -284 -62t-214.5 -178t-145 -250t-75.5 -279q-18 -123 -11 -253.5t51.5 -243t137 -183t245.5 -73.5q160 -4 284.5 61.5t214 177.5t144 249.5t75.5 278.5zM1781 2494l-34 -214h-917l34 214h917z" />
    <glyph glyph-name="omacron" unicode="&#x14d;" horiz-adv-x="1656" 
d="M93 0zM689 -31q-165 2 -282.5 69t-188.5 179t-98 252t-10 288q17 158 78.5 302.5t163 257.5t239.5 177.5t308 61.5q165 -2 282 -69t188.5 -178.5t98 -251.5t10.5 -288q-17 -158 -79 -302.5t-163.5 -257.5t-239.5 -178t-307 -62zM700 231q150 -5 251.5 76t159 206.5
t74.5 255.5q11 86 5.5 177t-37 169t-95.5 128t-171 52q-149 4 -250.5 -76.5t-159 -206.5t-74.5 -255q-11 -86 -5.5 -176.5t36.5 -169t95.5 -128.5t170.5 -52zM1448 2010l-34 -214h-917l34 214h917z" />
    <glyph glyph-name="Obreve" unicode="&#x14e;" horiz-adv-x="2100" 
d="M151 0zM1930 1029q-28 -203 -110.5 -393t-215 -340.5t-312 -238.5t-400.5 -85q-217 3 -366 94t-234.5 242t-113 335.5t-1.5 373.5q27 203 109.5 393.5t216 341.5t313 239t401.5 85q217 -3 365.5 -94.5t233.5 -243t112 -336t2 -373.5zM1624 1030q17 123 10.5 253.5
t-50 243.5t-136 184t-246.5 74q-159 4 -284 -62t-214.5 -178t-145 -250t-75.5 -279q-18 -123 -11 -253.5t51.5 -243t137 -183t245.5 -73.5q160 -4 284.5 61.5t214 177.5t144 249.5t75.5 278.5zM1510 2570l241 1q-6 -125 -71 -212.5t-168 -132.5t-222 -42q-175 3 -284.5 107
t-108.5 280l241 -1q-3 -80 32.5 -134t123.5 -56q91 -2 147.5 50.5t68.5 139.5z" />
    <glyph glyph-name="obreve" unicode="&#x14f;" horiz-adv-x="1656" 
d="M93 0zM689 -31q-165 2 -282.5 69t-188.5 179t-98 252t-10 288q17 158 78.5 302.5t163 257.5t239.5 177.5t308 61.5q165 -2 282 -69t188.5 -178.5t98 -251.5t10.5 -288q-17 -158 -79 -302.5t-163.5 -257.5t-239.5 -178t-307 -62zM700 231q150 -5 251.5 76t159 206.5
t74.5 255.5q11 86 5.5 177t-37 169t-95.5 128t-171 52q-149 4 -250.5 -76.5t-159 -206.5t-74.5 -255q-11 -86 -5.5 -176.5t36.5 -169t95.5 -128.5t170.5 -52zM1177 2086l241 1q-6 -125 -71 -212.5t-168 -132.5t-222 -42q-175 3 -284.5 107t-108.5 280l241 -1
q-3 -80 32.5 -134t123.5 -56q91 -2 147.5 50.5t68.5 139.5z" />
    <glyph glyph-name="Ohungarumlaut" unicode="&#x150;" horiz-adv-x="2100" 
d="M151 0zM1930 1029q-28 -203 -110.5 -393t-215 -340.5t-312 -238.5t-400.5 -85q-217 3 -366 94t-234.5 242t-113 335.5t-1.5 373.5q27 203 109.5 393.5t216 341.5t313 239t401.5 85q217 -3 365.5 -94.5t233.5 -243t112 -336t2 -373.5zM1624 1030q17 123 10.5 253.5
t-50 243.5t-136 184t-246.5 74q-159 4 -284 -62t-214.5 -178t-145 -250t-75.5 -279q-18 -123 -11 -253.5t51.5 -243t137 -183t245.5 -73.5q160 -4 284.5 61.5t214 177.5t144 249.5t75.5 278.5zM894 2188l304 419l309 1l-369 -420h-244zM1326 2188l372 420h314l-426 -420
h-260z" />
    <glyph glyph-name="ohungarumlaut" unicode="&#x151;" horiz-adv-x="1656" 
d="M93 0zM689 -31q-165 2 -282.5 69t-188.5 179t-98 252t-10 288q17 158 78.5 302.5t163 257.5t239.5 177.5t308 61.5q165 -2 282 -69t188.5 -178.5t98 -251.5t10.5 -288q-17 -158 -79 -302.5t-163.5 -257.5t-239.5 -178t-307 -62zM700 231q150 -5 251.5 76t159 206.5
t74.5 255.5q11 86 5.5 177t-37 169t-95.5 128t-171 52q-149 4 -250.5 -76.5t-159 -206.5t-74.5 -255q-11 -86 -5.5 -176.5t36.5 -169t95.5 -128.5t170.5 -52zM561 1704l304 419l309 1l-369 -420h-244zM993 1704l372 420h314l-426 -420h-260z" />
    <glyph glyph-name="OE" unicode="&#x152;" horiz-adv-x="2704" 
d="M1129 2048h1531l-48 -272h-931l-107 -614h821l-48 -273h-820l-107 -617h943l-48 -272h-1504q-228 5 -384 117.5t-226 296t-39 402.5l70 420q35 232 156 415.5t310.5 290t430.5 106.5zM820 266l289 -1l263 1518l-252 1q-165 1 -283 -72t-189 -197.5t-96 -278.5l-70 -421
q-18 -132 3 -256.5t100 -206.5t235 -86z" />
    <glyph glyph-name="oe" unicode="&#x153;" horiz-adv-x="2732" 
d="M676 -31q-165 3 -281 70t-185.5 179t-94.5 251.5t-7 286.5q20 159 83 303.5t166.5 257.5t242.5 177.5t309 61.5q150 -3 288.5 -69.5t209.5 -204.5q114 130 261 203.5t323 70.5q214 -3 341.5 -111t175.5 -279.5t23 -363.5l-19 -129l-1042 1q-12 -114 15 -214t101 -163.5
t200 -66.5q125 -3 224 55.5t152 171.5l273 -77q-42 -139 -146 -231.5t-240 -137t-273 -42.5q-152 2 -299 65.5t-222 204.5q-114 -128 -259.5 -200.5t-319.5 -69.5zM689 230q150 -4 253.5 76.5t162.5 206.5t78 257q12 84 8 175t-33 169t-92.5 128t-169.5 53
q-150 5 -253.5 -76t-163 -207t-78.5 -256q-12 -85 -8 -175.5t33.5 -169t92.5 -128.5t170 -53zM1976 1295q-122 4 -212.5 -51.5t-154 -146.5t-105.5 -193l746 1q20 100 -4.5 188t-91.5 143.5t-178 58.5z" />
    <glyph glyph-name="Racute" unicode="&#x154;" horiz-adv-x="1777" 
d="M58 0zM1170 0l-246 782h-421l-135 -782h-310l355 2048l678 -1q191 -4 331.5 -78t210.5 -212t50 -334q-22 -207 -136 -355.5t-308 -222.5l269 -845h-338zM676 1776l-125 -717l352 -1q181 1 314 87t160 275q24 163 -52.5 257t-242.5 98zM969 2191l309 416h329l-388 -416
h-250z" />
    <glyph glyph-name="racute" unicode="&#x155;" horiz-adv-x="1100" 
d="M38 0zM1161 1505l-126 -272q-55 30 -124 32q-110 2 -198.5 -55t-147 -148.5t-77.5 -192.5l-151 -869h-299l266 1536h301l-52 -244l10 1q52 116 155 193t236 75q55 -1 107 -16.5t100 -39.5zM556 1707l309 416h329l-388 -416h-250z" />
    <glyph glyph-name="Rcommaaccent" unicode="&#x156;" horiz-adv-x="1777" 
d="M58 0zM1170 0l-246 782h-421l-135 -782h-310l355 2048l678 -1q191 -4 331.5 -78t210.5 -212t50 -334q-22 -207 -136 -355.5t-308 -222.5l269 -845h-338zM676 1776l-125 -717l352 -1q181 1 314 87t160 275q24 163 -52.5 257t-242.5 98zM825 -119l-27 -157
q-26 -152 -86.5 -297t-162.5 -263l-205 64q58 118 112.5 235.5t78.5 248.5l30 169h260z" />
    <glyph glyph-name="rcommaaccent" unicode="&#x157;" horiz-adv-x="1100" 
d="M0 0zM1161 1505l-126 -272q-55 30 -124 32q-110 2 -198.5 -55t-147 -148.5t-77.5 -192.5l-151 -869h-299l266 1536h301l-52 -244l10 1q52 116 155 193t236 75q55 -1 107 -16.5t100 -39.5zM298 -124l-27 -157q-26 -152 -86.5 -297t-162.5 -263l-205 64q58 118 112.5 235.5
t78.5 248.5l30 169h260z" />
    <glyph glyph-name="Rcaron" unicode="&#x158;" horiz-adv-x="1777" 
d="M58 0zM1170 0l-246 782h-421l-135 -782h-310l355 2048l678 -1q191 -4 331.5 -78t210.5 -212t50 -334q-22 -207 -136 -355.5t-308 -222.5l269 -845h-338zM676 1776l-125 -717l352 -1q181 1 314 87t160 275q24 163 -52.5 257t-242.5 98zM949 2599l182 -221l261 220l254 5
l1 -23l-431 -377h-178l-326 378v22z" />
    <glyph glyph-name="rcaron" unicode="&#x159;" horiz-adv-x="1100" 
d="M38 0zM1161 1505l-126 -272q-55 30 -124 32q-110 2 -198.5 -55t-147 -148.5t-77.5 -192.5l-151 -869h-299l266 1536h301l-52 -244l10 1q52 116 155 193t236 75q55 -1 107 -16.5t100 -39.5zM537 2115l182 -221l261 220l254 5l1 -23l-431 -377h-178l-326 378v22z" />
    <glyph glyph-name="Sacute" unicode="&#x15a;" horiz-adv-x="1773" 
d="M70 0zM1390 1493q-10 150 -99.5 228t-238.5 81q-98 2 -196.5 -29.5t-170.5 -99t-89 -174.5q-15 -92 33 -150t125 -94t148 -60l145 -47q137 -45 253.5 -119t182.5 -185.5t51 -271.5q-15 -154 -88.5 -268.5t-187.5 -189.5t-251 -112t-279 -35q-189 2 -337.5 71.5t-234 204
t-86.5 330.5h307q2 -165 104.5 -246.5t260.5 -84.5q105 -2 211.5 32.5t184 108.5t96.5 189q16 100 -34 161.5t-131 98.5t-159 63l-168 54q-126 42 -232.5 114.5t-167.5 179.5t-48 252t85 254.5t183.5 183t243.5 109.5t264 34q177 -3 315 -73t217.5 -199.5t81.5 -310.5h-294z
M962 2191l309 416h329l-388 -416h-250z" />
    <glyph glyph-name="sacute" unicode="&#x15b;" horiz-adv-x="1458" 
d="M11 0zM194 1101q9 153 105.5 254.5t235.5 152t275 48.5q194 -3 328 -109t182 -293l-270 -59q-26 92 -82.5 146.5t-156.5 59.5q-63 2 -131 -17t-119.5 -63t-62.5 -114q-9 -58 21 -96t78.5 -61.5t94.5 -37.5l170 -48q148 -46 253.5 -155t94.5 -275q-11 -158 -107.5 -262
t-236.5 -154.5t-281 -49.5q-213 3 -365 112t-209 315l280 75q34 -107 105 -170t188 -68q66 -2 137.5 17.5t124.5 65.5t65 121q8 56 -21.5 93.5t-77 60.5t-92.5 37l-189 56q-143 45 -245 151.5t-92 266.5zM713 1707l309 416h329l-388 -416h-250z" />
    <glyph glyph-name="Scircumflex" unicode="&#x15c;" horiz-adv-x="1773" 
d="M70 0zM1390 1493q-10 150 -99.5 228t-238.5 81q-98 2 -196.5 -29.5t-170.5 -99t-89 -174.5q-15 -92 33 -150t125 -94t148 -60l145 -47q137 -45 253.5 -119t182.5 -185.5t51 -271.5q-15 -154 -88.5 -268.5t-187.5 -189.5t-251 -112t-279 -35q-189 2 -337.5 71.5t-234 204
t-86.5 330.5h307q2 -165 104.5 -246.5t260.5 -84.5q105 -2 211.5 32.5t184 108.5t96.5 189q16 100 -34 161.5t-131 98.5t-159 63l-168 54q-126 42 -232.5 114.5t-167.5 179.5t-48 252t85 254.5t183.5 183t243.5 109.5t264 34q177 -3 315 -73t217.5 -199.5t81.5 -310.5h-294z
M885 2272l261 221l185 -222l250 -4l9 25l-300 375h-176l-456 -376l-9 -25z" />
    <glyph glyph-name="scircumflex" unicode="&#x15d;" horiz-adv-x="1458" 
d="M11 0zM194 1101q9 153 105.5 254.5t235.5 152t275 48.5q194 -3 328 -109t182 -293l-270 -59q-26 92 -82.5 146.5t-156.5 59.5q-63 2 -131 -17t-119.5 -63t-62.5 -114q-9 -58 21 -96t78.5 -61.5t94.5 -37.5l170 -48q148 -46 253.5 -155t94.5 -275q-11 -158 -107.5 -262
t-236.5 -154.5t-281 -49.5q-213 3 -365 112t-209 315l280 75q34 -107 105 -170t188 -68q66 -2 137.5 17.5t124.5 65.5t65 121q8 56 -21.5 93.5t-77 60.5t-92.5 37l-189 56q-143 45 -245 151.5t-92 266.5zM636 1788l261 221l185 -222l250 -4l9 25l-300 375h-176l-456 -376
l-9 -25z" />
    <glyph glyph-name="Scedilla" unicode="&#x15e;" horiz-adv-x="1773" 
d="M70 0zM1390 1493q-10 150 -99.5 228t-238.5 81q-98 2 -196.5 -29.5t-170.5 -99t-89 -174.5q-15 -92 33 -150t125 -94t148 -60l145 -47q137 -45 253.5 -119t182.5 -185.5t51 -271.5q-15 -154 -88.5 -268.5t-187.5 -189.5t-251 -112t-279 -35q-189 2 -337.5 71.5t-234 204
t-86.5 330.5h307q2 -165 104.5 -246.5t260.5 -84.5q105 -2 211.5 32.5t184 108.5t96.5 189q16 100 -34 161.5t-131 98.5t-159 63l-168 54q-126 42 -232.5 114.5t-167.5 179.5t-48 252t85 254.5t183.5 183t243.5 109.5t264 34q177 -3 315 -73t217.5 -199.5t81.5 -310.5h-294z
M610 -19l235 1l-30 -83q84 -16 126.5 -78t41.5 -145q-3 -127 -79.5 -194.5t-186.5 -94t-212 -28.5l8 190q66 2 131 27t80 101q9 51 -20 73t-73 28t-80 9z" />
    <glyph glyph-name="scedilla" unicode="&#x15f;" horiz-adv-x="1458" 
d="M11 0zM194 1101q9 153 105.5 254.5t235.5 152t275 48.5q194 -3 328 -109t182 -293l-270 -59q-26 92 -82.5 146.5t-156.5 59.5q-63 2 -131 -17t-119.5 -63t-62.5 -114q-9 -58 21 -96t78.5 -61.5t94.5 -37.5l170 -48q148 -46 253.5 -155t94.5 -275q-11 -158 -107.5 -262
t-236.5 -154.5t-281 -49.5q-213 3 -365 112t-209 315l280 75q34 -107 105 -170t188 -68q66 -2 137.5 17.5t124.5 65.5t65 121q8 56 -21.5 93.5t-77 60.5t-92.5 37l-189 56q-143 45 -245 151.5t-92 266.5zM460 5l235 1l-30 -83q84 -16 126.5 -78t41.5 -145
q-3 -127 -79.5 -194.5t-186.5 -94t-212 -28.5l8 190q66 2 131 27t80 101q9 51 -20 73t-73 28t-80 9z" />
    <glyph glyph-name="Scaron" unicode="&#x160;" horiz-adv-x="1773" 
d="M70 0zM1390 1493q-10 150 -99.5 228t-238.5 81q-98 2 -196.5 -29.5t-170.5 -99t-89 -174.5q-15 -92 33 -150t125 -94t148 -60l145 -47q137 -45 253.5 -119t182.5 -185.5t51 -271.5q-15 -154 -88.5 -268.5t-187.5 -189.5t-251 -112t-279 -35q-189 2 -337.5 71.5t-234 204
t-86.5 330.5h307q2 -165 104.5 -246.5t260.5 -84.5q105 -2 211.5 32.5t184 108.5t96.5 189q16 100 -34 161.5t-131 98.5t-159 63l-168 54q-126 42 -232.5 114.5t-167.5 179.5t-48 252t85 254.5t183.5 183t243.5 109.5t264 34q177 -3 315 -73t217.5 -199.5t81.5 -310.5h-294z
M942 2599l182 -221l261 220l254 5l1 -23l-431 -377h-178l-326 378v22z" />
    <glyph glyph-name="scaron" unicode="&#x161;" horiz-adv-x="1458" 
d="M11 0zM194 1101q9 153 105.5 254.5t235.5 152t275 48.5q194 -3 328 -109t182 -293l-270 -59q-26 92 -82.5 146.5t-156.5 59.5q-63 2 -131 -17t-119.5 -63t-62.5 -114q-9 -58 21 -96t78.5 -61.5t94.5 -37.5l170 -48q148 -46 253.5 -155t94.5 -275q-11 -158 -107.5 -262
t-236.5 -154.5t-281 -49.5q-213 3 -365 112t-209 315l280 75q34 -107 105 -170t188 -68q66 -2 137.5 17.5t124.5 65.5t65 121q8 56 -21.5 93.5t-77 60.5t-92.5 37l-189 56q-143 45 -245 151.5t-92 266.5zM693 2115l182 -221l261 220l254 5l1 -23l-431 -377h-178l-326 378v22
z" />
    <glyph glyph-name="Tcommaaccent" unicode="&#x162;" horiz-adv-x="1801" 
d="M273 0zM1851 2048l-48 -272h-610l-308 -1776h-308l308 1776h-612l48 272h1530zM622 10l235 1l-30 -83q84 -16 126.5 -78t41.5 -145q-3 -127 -79.5 -194.5t-186.5 -94t-212 -28.5l8 190q66 2 131 27t80 101q9 51 -20 73t-73 28t-80 9z" />
    <glyph glyph-name="tcommaaccent" unicode="&#x163;" horiz-adv-x="1004" 
d="M136 0zM978 1536l-45 -252h-290l-141 -831q-10 -80 12 -137.5t112 -58.5q26 -1 51.5 2.5t50.5 8.5l29 -258q-46 -20 -100.5 -25.5t-103.5 -4.5q-115 2 -200 58t-128 149t-32 206l150 891h-207l44 252h206l57 328h300l-57 -328h292zM322 5l235 1l-30 -83q84 -16 126.5 -78
t41.5 -145q-3 -127 -79.5 -194.5t-186.5 -94t-212 -28.5l8 190q66 2 131 27t80 101q9 51 -20 73t-73 28t-80 9z" />
    <glyph glyph-name="Tcaron" unicode="&#x164;" horiz-adv-x="1801" 
d="M273 0zM1851 2048l-48 -272h-610l-308 -1776h-308l308 1776h-612l48 272h1530zM949 2599l182 -221l261 220l254 5l1 -23l-431 -377h-178l-326 378v22z" />
    <glyph glyph-name="tcaron" unicode="&#x165;" horiz-adv-x="1044" 
d="M136 0zM978 1536l-45 -252h-290l-141 -831q-10 -80 12 -137.5t112 -58.5q26 -1 51.5 2.5t50.5 8.5l29 -258q-46 -20 -100.5 -25.5t-103.5 -4.5q-115 2 -200 58t-128 149t-32 206l150 891h-207l44 252h206l57 328h300l-57 -328h292zM1307 2321l-27 -157
q-26 -152 -86.5 -297t-162.5 -263l-205 64q58 118 112.5 235.5t78.5 248.5l30 169h260z" />
    <glyph glyph-name="Tbar" unicode="&#x166;" horiz-adv-x="1801" 
d="M1354 1311l-37 -209h-241l-191 -1102h-308l191 1102h-341l36 209h341l81 465h-612l48 272h1530l-48 -272h-610l-81 -465h242z" />
    <glyph glyph-name="tbar" unicode="&#x167;" horiz-adv-x="1004" 
d="M868 1012l-36 -209h-271l-59 -350q-10 -80 12 -137.5t112 -58.5q26 -1 51.5 2.5t50.5 8.5l29 -258q-46 -20 -100.5 -25.5t-103.5 -4.5q-115 2 -200 58t-128 149t-32 206l69 410h-321l37 209h319l46 272h-207l44 252h206l57 328h300l-57 -328h292l-45 -252h-290l-46 -272
h271z" />
    <glyph glyph-name="Utilde" unicode="&#x168;" horiz-adv-x="2034" 
d="M153 0zM1673 2048h310l-233 -1353q-35 -225 -161.5 -390t-316.5 -254.5t-415 -86.5q-210 3 -373 94.5t-247 254.5t-55 380l232 1355h310l-233 -1351q-27 -194 82.5 -315t302.5 -125q136 -3 256 50t202 153t106 238zM1582 2590l195 -14q-5 -91 -44 -173t-110 -133.5
t-171 -49.5q-68 2 -122.5 34.5t-108.5 64t-119 30.5q-63 0 -98.5 -44t-47.5 -101l-200 10q6 89 45.5 172.5t111 136.5t171.5 51q65 -2 120 -34t109.5 -63.5t119.5 -31.5q64 1 100.5 45t48.5 100z" />
    <glyph glyph-name="utilde" unicode="&#x169;" horiz-adv-x="1632" 
d="M1261 2107l194 -14q-5 -91 -44.5 -173t-111 -133t-171.5 -50q-68 1 -122.5 33.5t-108 64.5t-118.5 32q-64 -1 -100.5 -45t-48.5 -101l-200 10q6 90 46.5 173.5t112 136t172.5 50.5q65 -2 120 -34t109.5 -64t119.5 -31q63 0 100.5 44t50.5 101zM1071 644l153 892h301
l-267 -1536h-290l45 201l-10 -1q-87 -105 -204 -164.5t-255 -55.5q-159 3 -253.5 91t-131 221.5t-20.5 272.5l165 971h300l-165 -967q-15 -122 36 -218t187 -101q113 -5 199 51t139.5 148t70.5 195z" />
    <glyph glyph-name="Umacron" unicode="&#x16a;" horiz-adv-x="2034" 
d="M153 0zM1673 2048h310l-233 -1353q-35 -225 -161.5 -390t-316.5 -254.5t-415 -86.5q-210 3 -373 94.5t-247 254.5t-55 380l232 1355h310l-233 -1351q-27 -194 82.5 -315t302.5 -125q136 -3 256 50t202 153t106 238zM1747 2494l-34 -214h-917l34 214h917z" />
    <glyph glyph-name="umacron" unicode="&#x16b;" horiz-adv-x="1632" 
d="M123 0zM1072 644l153 892h301l-267 -1536h-290l45 201l-10 -1q-87 -105 -204 -165t-255 -56q-159 4 -254 92t-131.5 221t-19.5 273l165 971h300l-164 -967q-16 -122 35 -217t187 -101q113 -4 199 51.5t139.5 146.5t70.5 195zM1455 2010l-34 -214h-917l34 214h917z" />
    <glyph glyph-name="Ubreve" unicode="&#x16c;" horiz-adv-x="2034" 
d="M153 0zM1673 2048h310l-233 -1353q-35 -225 -161.5 -390t-316.5 -254.5t-415 -86.5q-210 3 -373 94.5t-247 254.5t-55 380l232 1355h310l-233 -1351q-27 -194 82.5 -315t302.5 -125q136 -3 256 50t202 153t106 238zM1476 2570l241 1q-6 -125 -71 -212.5t-168 -132.5
t-222 -42q-175 3 -284.5 107t-108.5 280l241 -1q-3 -80 32.5 -134t123.5 -56q91 -2 147.5 50.5t68.5 139.5z" />
    <glyph glyph-name="ubreve" unicode="&#x16d;" horiz-adv-x="1632" 
d="M123 0zM1072 644l153 892h301l-267 -1536h-290l45 201l-10 -1q-87 -105 -204 -165t-255 -56q-159 4 -254 92t-131.5 221t-19.5 273l165 971h300l-164 -967q-16 -122 35 -217t187 -101q113 -4 199 51.5t139.5 146.5t70.5 195zM1184 2086l241 1q-6 -125 -71 -212.5
t-168 -132.5t-222 -42q-175 3 -284.5 107t-108.5 280l241 -1q-3 -80 32.5 -134t123.5 -56q91 -2 147.5 50.5t68.5 139.5z" />
    <glyph glyph-name="Uring" unicode="&#x16e;" horiz-adv-x="2034" 
d="M153 0zM1673 2048h310l-233 -1353q-35 -225 -161.5 -390t-316.5 -254.5t-415 -86.5q-210 3 -373 94.5t-247 254.5t-55 380l232 1355h310l-233 -1351q-27 -194 82.5 -315t302.5 -125q136 -3 256 50t202 153t106 238zM961 2504q3 97 55 174t134 122t177 43
q132 -3 219.5 -96.5t82.5 -224.5q-3 -96 -54 -171t-132 -117.5t-175 -40.5q-130 3 -220.5 90.5t-86.5 220.5zM1127 2504q-9 -65 29 -115t106 -51q76 -1 135 54.5t69 128.5q9 66 -27.5 118.5t-105.5 53.5q-78 1 -137.5 -56.5t-68.5 -132.5z" />
    <glyph glyph-name="uring" unicode="&#x16f;" horiz-adv-x="1632" 
d="M123 0zM1072 644l153 892h301l-267 -1536h-290l45 201l-10 -1q-87 -105 -204 -165t-255 -56q-159 4 -254 92t-131.5 221t-19.5 273l165 971h300l-164 -967q-16 -122 35 -217t187 -101q113 -4 199 51.5t139.5 146.5t70.5 195zM670 2020q3 97 55 174t134 122t177 43
q132 -3 219.5 -96.5t82.5 -224.5q-3 -96 -54 -171t-132 -117.5t-175 -40.5q-130 3 -220.5 90.5t-86.5 220.5zM836 2020q-9 -65 29 -115t106 -51q76 -1 135 54.5t69 128.5q9 66 -27.5 118.5t-105.5 53.5q-78 1 -137.5 -56.5t-68.5 -132.5z" />
    <glyph glyph-name="Uhungarumlaut" unicode="&#x170;" horiz-adv-x="2034" 
d="M153 0zM1673 2048h310l-233 -1353q-35 -225 -161.5 -390t-316.5 -254.5t-415 -86.5q-210 3 -373 94.5t-247 254.5t-55 380l232 1355h310l-233 -1351q-27 -194 82.5 -315t302.5 -125q136 -3 256 50t202 153t106 238zM860 2188l304 419l309 1l-369 -420h-244zM1292 2188
l372 420h314l-426 -420h-260z" />
    <glyph glyph-name="uhungarumlaut" unicode="&#x171;" horiz-adv-x="1632" 
d="M123 0zM1072 644l153 892h301l-267 -1536h-290l45 201l-10 -1q-87 -105 -204 -165t-255 -56q-159 4 -254 92t-131.5 221t-19.5 273l165 971h300l-164 -967q-16 -122 35 -217t187 -101q113 -4 199 51.5t139.5 146.5t70.5 195zM568 1704l304 419l309 1l-369 -420h-244z
M1000 1704l372 420h314l-426 -420h-260z" />
    <glyph glyph-name="Uogonek" unicode="&#x172;" horiz-adv-x="2034" 
d="M1672 2048h310l-233 -1353q-30 -191 -126.5 -339t-242.5 -244.5t-325 -130.5q-46 -38 -81.5 -84.5t-44.5 -104.5q-12 -84 70 -85q32 -1 62 9.5t59 23.5l15 -196q-47 -32 -102.5 -45t-111.5 -12q-117 2 -190 74.5t-69 190.5q2 65 26.5 119.5t64.5 99.5q-183 24 -321.5 120
t-207.5 249.5t-43 352.5l232 1355h310l-233 -1351q-27 -194 82.5 -315t302.5 -125q136 -3 256 50t202 153t106 238z" />
    <glyph glyph-name="uogonek" unicode="&#x173;" horiz-adv-x="1632" 
d="M1072 644l153 892h301l-267 -1536h-115l7 -4q-50 -33 -106 -73.5t-98.5 -91.5t-51.5 -116q-12 -84 69 -85q32 -1 62.5 9.5t58.5 23.5l15 -196q-46 -32 -102 -45t-111 -12q-117 2 -190 74.5t-69 190.5q3 102 57.5 178t136 131.5t165.5 93.5l27 123l-10 -1
q-87 -105 -204 -165t-255 -56q-159 4 -254 92t-131.5 221t-19.5 273l165 971h300l-164 -967q-16 -122 35 -217t187 -101q113 -4 199 51.5t139.5 146.5t70.5 195z" />
    <glyph glyph-name="Wcircumflex" unicode="&#x174;" horiz-adv-x="2733" 
d="M262 0zM545 2049l145 -1577l20 -1l645 1577h313l148 -1577l17 -1l639 1578h307l-851 -2048h-317l-163 1522l-14 1l-645 -1523h-317l-210 2048zM1336 2272l261 221l185 -222l250 -4l9 25l-300 375h-176l-456 -376l-9 -25z" />
    <glyph glyph-name="wcircumflex" unicode="&#x175;" horiz-adv-x="2250" 
d="M215 0zM2224 1536l-692 -1536h-271l-108 1077h-22l-487 -1077h-270l-159 1536h292l72 -1096h16l482 1096h265l94 -1091h16l460 1091h312zM1035 1788l261 221l185 -222l250 -4l9 25l-300 375h-176l-456 -376l-9 -25z" />
    <glyph glyph-name="Ycircumflex" unicode="&#x176;" horiz-adv-x="1956" 
d="M280 0zM606 2049l369 -929l22 -1l693 929h365l-955 -1240l-140 -808h-309l146 841l-517 1206zM973 2272l261 221l185 -222l250 -4l9 25l-300 375h-176l-456 -376l-9 -25z" />
    <glyph glyph-name="ycircumflex" unicode="&#x177;" horiz-adv-x="1589" 
d="M0 0zM415 -112l68 131l-279 1517h305l172 -1125l16 -1l569 1126h330l-940 -1776q-78 -157 -206 -259t-312 -100q-99 1 -196 36l97 252q141 -39 226.5 18t149.5 181zM691 1788l261 221l185 -222l250 -4l9 25l-300 375h-176l-456 -376l-9 -25z" />
    <glyph glyph-name="Ydieresis" unicode="&#x178;" horiz-adv-x="1956" 
d="M280 0zM606 2049l369 -929l22 -1l693 929h365l-955 -1240l-140 -808h-309l146 841l-517 1206zM1501 2226q-66 -1 -116 47t-51 114q-2 70 46 122t119 53q70 1 117.5 -47t48.5 -116q2 -70 -46 -121t-118 -52zM949 2226q-66 -1 -116 47t-52 114q-2 71 47 122.5t119 52.5
t117.5 -47t49.5 -116q1 -70 -47 -121t-118 -52z" />
    <glyph glyph-name="Zacute" unicode="&#x179;" horiz-adv-x="1770" 
d="M11 0zM1474 272l-47 -272h-1416l39 225l1299 1549l-1038 2l48 272h1415l-39 -225l-1297 -1549zM958 2191l309 416h329l-388 -416h-250z" />
    <glyph glyph-name="zacute" unicode="&#x17a;" horiz-adv-x="1520" 
d="M11 0zM1234 265l-47 -265h-1176l41 234l953 1035l-775 2l46 265h1159l-39 -226l-952 -1043zM744 1707l309 416h329l-388 -416h-250z" />
    <glyph glyph-name="Zdotaccent" unicode="&#x17b;" horiz-adv-x="1770" 
d="M11 0zM1474 272l-47 -272h-1416l39 225l1299 1549l-1038 2l48 272h1415l-39 -225l-1297 -1549zM977 2398q-2 76 45.5 126t123.5 51q74 1 124 -45t52 -120q1 -76 -48.5 -123t-124.5 -48q-72 -1 -121.5 42.5t-50.5 116.5z" />
    <glyph glyph-name="zdotaccent" unicode="&#x17c;" horiz-adv-x="1520" 
d="M11 0zM1234 265l-47 -265h-1176l41 234l953 1035l-775 2l46 265h1159l-39 -226l-952 -1043zM763 1914q-2 76 45.5 126t123.5 51q74 1 124 -45t52 -120q1 -76 -48.5 -123t-124.5 -48q-72 -1 -121.5 42.5t-50.5 116.5z" />
    <glyph glyph-name="Zcaron" unicode="&#x17d;" horiz-adv-x="1770" 
d="M11 0zM1474 272l-47 -272h-1416l39 225l1299 1549l-1038 2l48 272h1415l-39 -225l-1297 -1549zM938 2599l182 -221l261 220l254 5l1 -23l-431 -377h-178l-326 378v22z" />
    <glyph glyph-name="zcaron" unicode="&#x17e;" horiz-adv-x="1520" 
d="M11 0zM1234 265l-47 -265h-1176l41 234l953 1035l-775 2l46 265h1159l-39 -226l-952 -1043zM725 2115l182 -221l261 220l254 5l1 -23l-431 -377h-178l-326 378v22z" />
    <glyph glyph-name="longs" unicode="&#x17f;" horiz-adv-x="756" 
d="M200 0h-323l280 1628q33 233 177 375t388 139q53 -1 105 -10t104 -20l-57 -248q-58 15 -119 16q-117 1 -186.5 -69t-88.5 -181z" />
    <glyph glyph-name="bbar" unicode="&#x180;" horiz-adv-x="1751" 
d="M458 2048h300l-23 -127h361l-37 -209h-359l-78 -397l13 1q79 113 184.5 177.5t247.5 63.5q160 -2 264.5 -73.5t162 -187.5t74 -253.5t0.5 -271.5q-17 -144 -71.5 -287.5t-146 -261t-219 -186.5t-292.5 -65q-124 3 -224.5 62.5t-147.5 177.5l-28 1l-43 -212h-293l296 1712
h-231l37 209h230zM1277 775q12 83 8.5 173t-32.5 167.5t-91 127t-168 53.5q-148 4 -247.5 -77t-155.5 -206t-73 -252q-12 -81 -10 -172t28 -171.5t86 -132.5t165 -55q150 -5 252.5 78t161 210.5t76.5 256.5z" />
    <glyph glyph-name="Bhook" unicode="&#x181;" horiz-adv-x="2179" 
d="M1189 0h-769l308 1777l-80 2q-117 -1 -171 -74.5t-71 -178.5l-15 -92h-282l24 160q29 209 170 332t353 123l812 -2q166 -4 300 -64t207.5 -179t59.5 -297q-15 -182 -121.5 -291t-281.5 -142l-10 -30q118 -7 190 -87.5t102.5 -191t21.5 -210.5q-16 -197 -127.5 -319.5
t-276.5 -179.5t-343 -56zM1037 1776l-106 -613l368 -1q154 1 280.5 81.5t150.5 243.5q22 143 -59.5 213.5t-216.5 74.5zM1640 576q22 148 -62 240t-229 97l-461 1l-111 -642l411 -1q103 1 200.5 29.5t166 95.5t85.5 180z" />
    <glyph glyph-name="Btopbar" unicode="&#x182;" horiz-adv-x="1823" 
d="M1646 2048l-47 -272h-922l-96 -548l407 -1q181 -3 326.5 -71.5t223.5 -201t59 -326.5q-21 -205 -134 -345.5t-284.5 -212t-365.5 -70.5h-755l355 2048h1233zM415 266l408 -1q112 0 212.5 45t169.5 128t87 198q23 154 -73.5 236.5t-239.5 86.5l-444 1z" />
    <glyph glyph-name="btopbar" unicode="&#x183;" horiz-adv-x="1740" 
d="M393 2048h1149l-48 -271h-848l-89 -462l13 1q79 113 184.5 177.5t247.5 63.5q160 -2 264.5 -73.5t162 -187.5t74 -253.5t0.5 -271.5q-17 -145 -71.5 -288t-146 -260.5t-219 -186.5t-292.5 -65q-124 3 -224.5 62.5t-147.5 177.5l-28 1l-43 -212h-293zM1212 775
q12 83 8.5 173t-32.5 167.5t-91 127t-168 53.5q-148 4 -247.5 -77t-155.5 -206t-74 -252q-11 -81 -9 -172t28 -171.5t86 -132.5t165 -56q150 -4 252.5 79t161 210.5t76.5 256.5z" />
    <glyph glyph-name="Tonesix" unicode="&#x184;" horiz-adv-x="1862" 
d="M1685 630q-19 -205 -132 -346t-283.5 -213t-366.5 -71h-755l240 1379l-162 230l25 143l241 233l11 63h310l-142 -820l408 -1q181 -3 325.5 -71t222 -200t58.5 -326zM504 266l409 -1q111 1 211.5 45.5t169.5 127.5t86 198q23 153 -72.5 236t-238.5 87l-445 1z" />
    <glyph glyph-name="tonesix" unicode="&#x185;" horiz-adv-x="1780" 
d="M530 2111l69 2l-13 -67l257 2l-135 -733l13 1q78 113 183.5 178t247.5 63q160 -2 265 -73.5t162 -187.5t74 -253.5t1 -271.5q-18 -144 -72.5 -287.5t-145.5 -261t-219 -186.5t-292 -65q-125 3 -225.5 62.5t-147.5 177.5l-26 1l-44 -212h-294l257 1441l-4 -1l-196 277
l26 146zM1363 775q11 83 7.5 173t-32.5 167.5t-91 127t-167 53.5q-149 4 -248.5 -77t-155 -206t-73.5 -252q-11 -81 -9.5 -172t27.5 -171.5t86 -132.5t165 -55q150 -5 252.5 78t161.5 210.5t77 256.5z" />
    <glyph glyph-name="Oopen" unicode="&#x186;" horiz-adv-x="2017" 
d="M223 1404l291 -18q76 180 220 292t347 107q154 -3 251.5 -72.5t149 -181t64.5 -243t-2 -258.5q-16 -139 -65.5 -276.5t-133.5 -250t-205 -178.5t-279 -62q-117 2 -215.5 50.5t-160.5 136.5t-69 209l-315 -22q-4 -196 84.5 -345t241.5 -233.5t344 -86.5q222 -3 405 84.5
t321.5 238t227 340.5t121.5 393q29 186 9 370.5t-99 337t-223 245.5t-362 95q-224 3 -405 -84.5t-317.5 -240.5t-225.5 -347z" />
    <glyph glyph-name="Chook" unicode="&#x187;" horiz-adv-x="2180" 
d="M1934 1386l-296 -2l-1 1l-7 -1q-23 178 -134 287.5t-295 113.5q-159 4 -284 -62t-215 -178t-145 -250t-76 -279q-18 -123 -10.5 -254t51.5 -243t137 -182.5t247 -74.5q195 -4 353 103.5t223 291.5l304 -20q-51 -201 -185 -351.5t-319.5 -233.5t-390.5 -80q-217 2 -366 93
t-235 242t-113 335.5t-2 374.5q28 203 110.5 393.5t216 341.5t313.5 239t401 86q146 -2 288 -53t242 -161q167 234 449 235q43 0 84.5 -3t83.5 -10l-27 -256q-21 3 -42.5 6t-43.5 4q-112 3 -190.5 -56.5t-97.5 -172.5z" />
    <glyph glyph-name="chook" unicode="&#x188;" horiz-adv-x="1721" 
d="M1454 1060l-280 -26q-21 114 -88.5 185t-188.5 76q-149 5 -252.5 -75t-163.5 -205t-78 -254q-12 -84 -8 -175t33 -171t92 -131t169 -54q126 -4 222 64.5t140 184.5l291 -23q-33 -154 -133 -264t-240 -168t-292 -56q-167 3 -283.5 71t-185.5 180.5t-93.5 253t-6.5 288.5
q20 157 83.5 301t167 256t242 176.5t306.5 62.5q93 -1 184 -25.5t167 -77.5q74 112 178.5 173.5t241.5 61.5q82 0 158 -17l-23 -232q-20 4 -40.5 7.5t-40.5 4.5q-103 4 -166.5 -50.5t-80.5 -154.5z" />
    <glyph glyph-name="Dbar1" unicode="&#x189;" horiz-adv-x="2117" 
d="M840 0h-662l158 907h-279l37 209h278l161 932h643q223 -3 381.5 -84t253.5 -221.5t127.5 -323t4.5 -388.5q-40 -296 -184 -529.5t-377 -368t-542 -133.5zM984 1116l-36 -209h-303l-109 -629l298 -1q231 0 400 97.5t271.5 268.5t134.5 392q29 192 -5.5 358t-151.5 269.5
t-336 107.5h-352l-114 -654h303z" />
    <glyph glyph-name="Dhook" unicode="&#x18a;" horiz-adv-x="2378" 
d="M1093 0h-662l307 1770l-92 2q-115 -1 -168.5 -71.5t-71.5 -174.5l-15 -92h-282l24 160q29 209 170.5 332t352.5 123l773 -1q224 -3 382.5 -84t253.5 -221.5t127.5 -323t4.5 -388.5q-40 -297 -184 -530t-377.5 -367.5t-542.5 -133.5zM1400 1769l-351 1l-259 -1492l298 -1
q231 0 400 97.5t271.5 268.5t135.5 391q28 193 -6.5 359.5t-152 269.5t-336.5 106z" />
    <glyph glyph-name="Dtopbar" unicode="&#x18b;" horiz-adv-x="1780" 
d="M1437 0l-715 1q-184 4 -328.5 76t-221.5 207.5t-57 330.5q20 206 133.5 343.5t284.5 206t365 68.5h420l88 506h-899l48 279h1232zM1152 274l119 684l-384 1q-162 0 -286.5 -85.5t-148.5 -253.5q-22 -149 53 -244t227 -101z" />
    <glyph glyph-name="dtopbar" unicode="&#x18c;" horiz-adv-x="1658" 
d="M1313 0h-294l46 212h-17q-78 -114 -186.5 -179t-250.5 -64q-159 2 -263.5 74.5t-161.5 189.5t-74 255t-1 270q18 145 73 288.5t147 260t220 184.5t293 64q124 -3 224 -62t148 -176l18 -1l87 461h-861l47 271h1162zM403 760q-12 -82 -8.5 -173.5t32 -171.5t91 -131
t167.5 -55q150 -4 249.5 79.5t155 211t73.5 254.5q12 82 10 171.5t-28.5 168t-86.5 128.5t-165 54q-149 4 -251.5 -76t-161.5 -205t-77 -255z" />
    <glyph glyph-name="deltaturn" unicode="&#x18d;" horiz-adv-x="1606" 
d="M1032 -516h-994l46 258l571 -1q-32 67 -88.5 121t-107.5 105q-105 106 -191 229.5t-131 263t-27 294.5l3 28q27 201 127 369.5t262 268.5t376 96q203 -3 335.5 -101.5t190 -259.5t35.5 -351l-3 -28q-23 -180 -116 -323t-238 -234t-324 -113q-15 -2 -29.5 -2.5t-29.5 -0.5
q74 -118 173 -223t186 -213zM1109 762l4 29q13 99 2 204.5t-68.5 179.5t-183.5 78q-133 4 -222.5 -66.5t-140.5 -180.5t-69 -224l-4 -28q-17 -122 13.5 -242.5t127.5 -203.5q43 -15 93 -16q135 -4 228 64.5t148 178t72 227.5z" />
    <glyph glyph-name="Eturn" unicode="&#x18e;" horiz-adv-x="1653" 
d="M304 1776l48 272h1253l-356 -2048h-1243l48 272h933l107 614h-822l48 273h820l108 617h-944z" />
    <glyph glyph-name="Schwa" unicode="&#x18f;" horiz-adv-x="2036" 
d="M860 -29q-203 2 -344.5 77.5t-224 205t-108.5 296t1 351.5l32 195h1415l-47 -268l-1075 1l-10 -46q-28 -145 3 -262.5t124 -187.5t251 -73q135 -3 240 55t181 155.5t124 215.5t68 235l25 155q26 170 -5 320.5t-136 245t-301 97.5q-133 2 -260.5 -24t-252.5 -71l-43 267
q70 55 174 80.5t212 33t192 6.5q278 -2 459 -131.5t257 -345.5t38 -479l-24 -154q-29 -181 -108.5 -351.5t-204.5 -306.5t-289.5 -215t-362.5 -77z" />
    <glyph glyph-name="Epsilon1" unicode="&#x190;" horiz-adv-x="1780" 
d="M901 1157l244 -1l-47 -268l-207 1q-173 0 -301.5 -76t-152.5 -260q-15 -110 28 -177t124 -98.5t179 -32.5q98 -2 190.5 32.5t157 104.5t78.5 174l332 1q-10 -148 -80.5 -258.5t-181 -183.5t-243 -109t-267.5 -34q-183 1 -339 61t-245.5 187.5t-71.5 332.5
q17 188 132 303.5t286 175.5q-115 69 -177 176t-51 244q17 203 134 332.5t290 190t358 57.5q168 -3 306.5 -69t219.5 -189.5t77 -300.5h-332q6 135 -75 206.5t-212 74.5q-100 3 -194 -28t-160 -98.5t-82 -175.5q-22 -150 59 -221t224 -74z" />
    <glyph glyph-name="Fhook" unicode="&#x191;" horiz-adv-x="1637" 
d="M1368 1162l-48 -273h-797l-175 -1025q-27 -205 -158.5 -324t-340.5 -119q-41 1 -82 3t-82 10l26 252q40 -8 72 -9q98 -4 167.5 43t87.5 146l376 2182h1237l-48 -272h-926l-107 -614h798z" />
    <glyph glyph-name="florin" unicode="&#x192;" horiz-adv-x="1149" 
d="M1053 1488l-38 -241h-275l-208 -1347q-27 -219 -153.5 -361.5t-358.5 -141.5q-87 1 -180 23l44 260q56 -19 127 -19q102 -1 153 74t64 165l209 1347h-231l38 241h230l19 142q18 145 83.5 261.5t176 184t265.5 66.5q59 0 118 -9.5t116 -23.5l-71 -257q-62 16 -116 17
q-113 1 -182 -64.5t-86 -174.5l-20 -142h276z" />
    <glyph glyph-name="Ghook" unicode="&#x193;" horiz-adv-x="2211" 
d="M1877 1042l-43 -258q-38 -236 -168 -420.5t-328.5 -289.5t-440.5 -102q-219 2 -368.5 92.5t-236.5 241t-114.5 335.5t-2.5 376q28 201 109.5 391.5t213.5 342t311 240t400 86.5q144 -2 282.5 -53t237.5 -160q164 256 467 255q87 0 166 -16l-27 -255l-42 8t-43 4
q-108 5 -184 -47t-95 -161l-43 -256l-304 -2q-40 166 -145 276.5t-286 114.5q-158 4 -281.5 -62.5t-212.5 -179.5t-143.5 -251t-74.5 -276q-18 -125 -10 -256t53.5 -243t139.5 -182t248 -73q162 -3 289.5 65.5t214.5 188t126 269.5l-463 -2l46 259h752z" />
    <glyph glyph-name="Gamma1" unicode="&#x194;" horiz-adv-x="1862" 
d="M263 2033l334 1l357 -1532q27 -115 70.5 -241.5t75 -254.5t22.5 -248q-13 -183 -142.5 -272.5t-302.5 -85.5q-104 2 -191.5 41t-137.5 115t-42 189q6 94 53.5 194.5t114.5 200t134 192t113 170.5l893 1532h358l-1130 -1874q-35 -60 -80.5 -129t-82.5 -141.5t-47 -143.5
q-6 -38 12 -66.5t60 -28.5q48 -1 82 31.5t44 77.5q13 63 -0.5 133t-36.5 139t-39 128z" />
    <glyph glyph-name="hv" unicode="&#x195;" horiz-adv-x="2528" 
d="M490 892l-153 -892h-299l355 2048h295l-133 -713h10q85 105 201.5 164t252.5 57q164 -3 255 -90t122 -220t14 -275l-57 -368q-10 -84 2.5 -167t61.5 -140t150 -62q109 -5 186 47.5t122 138.5t60 184l159 932h300l-160 -932q-28 -184 -114.5 -328t-229 -225.5
t-337.5 -78.5q-186 3 -305.5 87t-169.5 226t-27 319l58 369q15 118 -29 212.5t-178 99.5q-114 5 -200.5 -50.5t-140.5 -147t-71 -195.5z" />
    <glyph glyph-name="Iota1" unicode="&#x196;" horiz-adv-x="1012" 
d="M689 2112l-280 -1632q-12 -93 21 -165t140 -75q31 -1 62 3.5t62 10.5l9 -254q-43 -18 -94 -23.5t-98 -4.5q-225 5 -336.5 148t-86.5 362l279 1630h322z" />
    <glyph glyph-name="Istroke" unicode="&#x197;" horiz-adv-x="953" 
d="M969 1181l-36 -209h-287l-169 -972h-309l168 972h-294l37 209h293l151 867h309l-150 -867h287z" />
    <glyph glyph-name="Khook" unicode="&#x198;" horiz-adv-x="1918" 
d="M1261 0l-484 890l-306 -292l-103 -598h-310l355 2048h310l-176 -968l19 1l788 752l85 86q131 131 290.5 148t315.5 -79l-134 -227q-80 50 -149 24t-132 -87l-60 -59l-576 -537l624 -1102h-357z" />
    <glyph glyph-name="khook" unicode="&#x199;" horiz-adv-x="1517" 
d="M976 0l-351 656l-208 -198l-80 -458h-299l279 1637q25 203 155 323t337 119q44 -1 87 -4t86 -11l-26 -249q-20 4 -40 7t-40 3q-97 4 -167.5 -42t-89.5 -146l-134 -737l15 1l647 635h390l-699 -671l466 -865h-328z" />
    <glyph glyph-name="lbar" unicode="&#x19a;" horiz-adv-x="1018" 
d="M1008 1217l-37 -209h-292l-175 -1008h-300l175 1008h-299l37 209h298l145 831h300l-145 -831h293z" />
    <glyph glyph-name="lambdabar" unicode="&#x19b;" horiz-adv-x="1780" 
d="M673 2103q115 -2 201.5 -55t112.5 -171l163 58l-42 -256l-64 -21l261 -1281q10 -43 30.5 -81.5t70.5 -41.5l50 -1l-21 -267q-28 -7 -57 -8.5t-57 -1.5q-143 2 -216 80t-107 209l-144 719l-504 -984h-364l774 1446l-23 99l-379 -130l46 260l271 92q-15 38 -42 53.5
t-67 17.5q-19 0 -37.5 -1t-37.5 -3l21 251q75 19 161 18z" />
    <glyph glyph-name="mcapturn" unicode="&#x19c;" horiz-adv-x="2548" 
d="M1830 0l27 164q-166 -197 -431 -192q-130 3 -236.5 63.5t-140.5 194.5q-92 -124 -214 -194t-281 -67q-136 2 -220 57t-125 145t-48.5 201t7.5 227l240 1405h322l-240 -1406q-7 -66 -6 -148t35.5 -143.5t124.5 -64.5q130 -5 223.5 60t152.5 175q8 66 17 122l243 1405h319
l-239 -1406q-8 -67 -6 -149t37 -142.5t126 -64.5q111 -5 220 55.5t148 171.5l267 1535h320l-348 -2004h-294z" />
    <glyph glyph-name="Nhook" unicode="&#x19d;" horiz-adv-x="2028" 
d="M1978 2048l-355 -2048h-291l-677 1494l-21 1l-286 -1631q-28 -206 -159.5 -324.5t-340.5 -118.5q-41 1 -82 3t-81 10l26 252q39 -8 72 -9q98 -4 167.5 42.5t87.5 146.5l376 2182h293l677 -1499l20 -1l266 1500h308z" />
    <glyph glyph-name="nlegrightlong" unicode="&#x19e;" horiz-adv-x="1621" 
d="M32 0zM484 879l-151 -879h-301l266 1536h290l-50 -231l10 1q81 119 199.5 186t263.5 64q165 -3 260 -88.5t129.5 -218t17.5 -278.5l-265 -1547h-300l263 1532q10 81 -7.5 154.5t-69.5 122t-143 51.5q-114 5 -200.5 -54t-140.5 -154t-71 -197z" />
    <glyph glyph-name="Obar" unicode="&#x19f;" horiz-adv-x="2100" 
d="M151 0zM1929 1029q-27 -203 -109.5 -393t-215 -341t-312 -238.5t-400.5 -84.5q-217 2 -366 93.5t-234.5 242.5t-113 335.5t-1.5 373.5q27 203 109.5 393.5t216 341.5t313 239t401.5 85q217 -3 365.5 -94.5t233.5 -243t112 -336.5t1 -373zM1202 1785q-189 4 -324 -85.5
t-226.5 -234t-147.5 -303.5q143 35 285.5 29.5t285.5 -26t287 -33t290 8.5q11 153 -29.5 299.5t-143 243.5t-277.5 101zM907 263q190 -4 325 86t226 235.5t147 305.5q-144 -36 -287 -31t-286 25.5t-287 33.5t-289 -7q-13 -154 28 -301.5t144 -245t279 -101.5z" />
    <glyph glyph-name="Ohorn" unicode="&#x1a0;" horiz-adv-x="2144" 
d="M1927 1028q-28 -202 -110 -392t-213.5 -341t-310.5 -238.5t-401 -84.5q-217 2 -366 93.5t-234.5 242.5t-113 335.5t-1.5 373.5q27 203 109.5 393.5t216 341.5t313 239t401.5 85q166 -2 318 -67.5t255 -197.5q128 38 181 141t68 226l241 1q-15 -190 -103 -340t-277 -210
q31 -152 40 -299.5t-13 -301.5zM1624 1030q17 122 10.5 253t-50.5 244t-136 184t-246 74q-159 4 -284 -62t-215 -178.5t-145 -250t-75 -278.5q-18 -123 -11 -253.5t51.5 -243t137 -183t245.5 -73.5q160 -4 284.5 61.5t214 177.5t144 249.5t75.5 278.5z" />
    <glyph glyph-name="ohorn" unicode="&#x1a1;" horiz-adv-x="1702" 
d="M676 -31q-165 2 -281 69.5t-185.5 179.5t-94.5 251.5t-7 286.5q20 159 83.5 303.5t166.5 257.5t242 177.5t310 61.5q140 -2 267.5 -59t209.5 -175q95 48 126.5 135t42.5 185l222 1q-11 -162 -79.5 -290t-229.5 -186q14 -100 17 -199t-10 -200q-21 -157 -84 -302
t-165.5 -258t-240.5 -177.5t-310 -61.5zM689 230q151 -4 254 76.5t162.5 206.5t78.5 257q12 84 8 175t-33.5 169.5t-92.5 128t-170 53.5q-150 4 -253 -77t-162.5 -207t-78.5 -256q-12 -85 -8 -175.5t33 -169t92.5 -128.5t169.5 -53z" />
    <glyph glyph-name="OI" unicode="&#x1a2;" horiz-adv-x="2374" 
d="M2380 2004l-447 -2576h-320l383 2209l-206 -80l-216 -1291q-81 -114 -206.5 -178.5t-267.5 -91t-271 -24.5q-206 2 -347.5 83t-223.5 218t-108.5 308.5t-0.5 354.5l21 132q29 191 107 365.5t201 310t290.5 213t377.5 75.5q99 -1 206 -17t204.5 -56.5t170.5 -115.5
l391 161h262zM1142 1758q-146 2 -256.5 -56.5t-188 -158.5t-125 -223.5t-68.5 -251.5l-21 -133q-16 -112 -12.5 -231t40.5 -222t120 -167.5t225 -66.5q115 -3 214 26.5t190 97.5l228 1259q-53 83 -155 104t-191 23z" />
    <glyph glyph-name="oi" unicode="&#x1a3;" horiz-adv-x="1862" 
d="M1834 1488l-357 -2060h-319l286 1650l-165 -80l-125 -775q-95 -125 -237.5 -189.5t-297.5 -61.5q-215 4 -342.5 110t-176.5 274.5t-26 360.5l6 50q26 202 124.5 374t260.5 275.5t380 99.5q115 -2 224.5 -45.5t184.5 -132.5l327 150h253zM629 238q55 -1 105 15t97 44
l163 887q-31 37 -74.5 53t-90.5 17q-138 4 -226.5 -69.5t-137 -187.5t-65.5 -231l-6 -48q-9 -72 -9 -154t21.5 -155.5t74 -121t148.5 -49.5z" />
    <glyph glyph-name="Phook" unicode="&#x1a4;" horiz-adv-x="2150" 
d="M1267 727l-410 1l-127 -728h-309l308 1777l-80 2q-117 -1 -171 -74.5t-71 -178.5l-15 -92h-282l24 160q29 209 170 332t353 123l798 -2q298 -6 459.5 -177.5t127.5 -471.5q-23 -212 -127.5 -362t-271 -229.5t-376.5 -79.5zM1038 1776l-134 -776l375 -1q190 1 311 107
t147 294q23 167 -46 269t-245 106z" />
    <glyph glyph-name="phook" unicode="&#x1a5;" horiz-adv-x="1685" 
d="M-53 -577l349 2113v0q33 188 158.5 286t313.5 97q44 0 87 -4.5t86 -13.5l-24 -240q-50 14 -91 15q-79 3 -144.5 -35t-87.5 -118l-44 -208l20 1q79 113 184 178.5t248 63.5q160 -3 264.5 -74.5t162 -188t74 -253.5t0.5 -271q-17 -144 -71.5 -287.5t-145.5 -261
t-219 -186.5t-293 -64q-124 3 -224.5 62t-147.5 177l-21 1l-144 -788zM1212 775q12 83 8.5 173t-32.5 167.5t-91 127t-168 53.5q-148 4 -247.5 -77t-155.5 -205.5t-73 -252.5q-12 -81 -10 -172t28 -171.5t86 -132.5t165 -55q150 -5 252.5 78t161 210.5t76.5 256.5z" />
    <glyph glyph-name="YR" unicode="&#x1a6;" horiz-adv-x="2036" 
d="M1270 -491l-424 1267h-386l-135 -776h-337l343 2003h3l27 142l336 -1l-25 -140l328 -1q185 -3 331 -69t223.5 -197t57.5 -331q-21 -205 -140.5 -344.5t-308.5 -210.5l460 -1323l-1 -22zM624 1726l-117 -676l330 -1q163 1 290 88t151 257q23 157 -55 242.5t-234 88.5z" />
    <glyph glyph-name="Tonetwo" unicode="&#x1a7;" horiz-adv-x="1780" 
d="M423 509q-14 -95 26 -152.5t112.5 -84t155.5 -28.5q118 -3 224.5 35t179 118.5t88.5 206.5l332 1q-11 -156 -88.5 -275t-198.5 -199.5t-264.5 -120.5t-286.5 -38q-163 2 -310 60t-234 177t-70 304q13 146 81.5 251t173.5 179t229 124t247 85q65 18 143.5 43t152.5 62.5
t126.5 93t65.5 135.5q16 94 -23.5 153.5t-111.5 87.5t-155 30q-163 4 -288 -82t-145 -256l-331 -1q9 148 79 263t181.5 194t245.5 119t271 38q161 -1 307 -63.5t233 -184t71 -301.5q-12 -140 -82 -241t-176.5 -172t-228.5 -119.5t-239 -82.5q-97 -28 -205 -67t-189.5 -107
t-98.5 -185z" />
    <glyph glyph-name="tonetwo" unicode="&#x1a8;" horiz-adv-x="1524" 
d="M390 397q-11 -67 22 -105.5t87.5 -55t108.5 -18.5q127 -3 223.5 61t123.5 191l313 2q-6 -124 -68 -218.5t-160 -158t-212.5 -94.5t-225.5 -29q-132 1 -256.5 49.5t-202 146.5t-67.5 249q7 117 63 196.5t142.5 130.5t187.5 82.5t198 51.5q62 13 139.5 32t138 59.5
t73.5 117.5q15 94 -50.5 138.5t-148.5 45.5q-107 3 -193.5 -57.5t-102.5 -170.5l-321 -1q7 161 103.5 267t239 158t287.5 49q127 -2 245 -53t190.5 -149t63.5 -241q-7 -111 -62.5 -188.5t-141 -127.5t-184 -81t-190.5 -50q-68 -14 -147.5 -36t-141 -66.5t-74.5 -126.5z" />
    <glyph glyph-name="Esh" unicode="&#x1a9;" horiz-adv-x="1780" 
d="M1165 1021l-2 -28l-649 -712l932 -2l-49 -279h-1373l39 224l751 796l-475 801l35 197h1324l-49 -281h-897z" />
    <glyph glyph-name="eshlooprev" unicode="&#x1aa;" horiz-adv-x="1606" 
d="M294 1641q11 141 89 259t199.5 188t265.5 66q134 -3 234 -75t151 -186t37 -244l-290 -1711q-7 -54 -3.5 -108t31 -91t94.5 -39q26 -1 51.5 2.5t51.5 7.5l-25 -261q-40 -12 -82 -16.5t-83 -3.5q-147 2 -230 75t-112.5 188.5t-14.5 246.5l222 1240q-82 -33 -165 -32
q-133 1 -231.5 71.5t-149 182.5t-40.5 240zM742 1436q98 -3 161.5 64.5t74.5 160.5q10 81 -27.5 143t-125.5 64q-99 3 -164.5 -63t-76.5 -161q-11 -85 28 -146t130 -62z" />
    <glyph glyph-name="tpalatalhook" unicode="&#x1ab;" horiz-adv-x="1010" 
d="M979 1536l-45 -252h-290l-141 -831q-10 -80 11.5 -137.5t111.5 -59.5q24 -1 41 1l130 26l-69 -420q-26 -191 -147 -316t-322 -125q-83 0 -158 17l23 232q20 -4 40 -7t41 -3q104 -4 176.5 47t94.5 154l25 123q-154 21 -237.5 138.5t-69.5 269.5l150 891h-207l44 252h206
l57 328h300l-57 -328h292z" />
    <glyph glyph-name="Thook" unicode="&#x1ac;" horiz-adv-x="1891" 
d="M1959 2048l-48 -272h-611l-308 -1776h-309l308 1776l-342 2q-108 -1 -166.5 -70t-76.5 -168l-15 -93h-266l22 150q28 209 164 331t349 121z" />
    <glyph glyph-name="thook" unicode="&#x1ad;" horiz-adv-x="1094" 
d="M1036 1488l-42 -241h-257l-138 -814q-8 -66 7 -124t96 -60q30 -1 60.5 3.5t59.5 8.5l-25 -259q-50 -17 -102.5 -23.5t-105.5 -5.5q-127 2 -199 66t-98 164.5t-15 213.5l140 830h-239l42 241h239l35 230q27 207 165 324t347 114q44 0 86.5 -6.5t85.5 -15.5l-21 -221
q-45 13 -81 15q-104 4 -173 -51.5t-87 -158.5l-37 -230h257z" />
    <glyph glyph-name="Trthook" unicode="&#x1ae;" horiz-adv-x="1801" 
d="M1850 2048l-48 -272h-610l-330 -1914q-13 -94 35.5 -131.5t135.5 -41.5l95 -1l-46 -264l-136 1q-190 3 -300.5 123t-90.5 312l328 1916h-612l48 272h1531z" />
    <glyph glyph-name="Uhorn" unicode="&#x1af;" horiz-adv-x="2355" 
d="M1673 2048h310l-60 -298q147 42 204 152t73 251l236 1q-19 -250 -145.5 -416.5t-387.5 -194.5l-153 -850q-34 -225 -161 -389t-317 -252.5t-414 -86.5q-211 3 -374 94t-247 254t-55 380l232 1355h310l-233 -1351q-27 -194 82.5 -315t302.5 -126q136 -3 256 50.5t202 154
t106 237.5z" />
    <glyph glyph-name="uhorn" unicode="&#x1b0;" horiz-adv-x="1783" 
d="M1071 644l153 892h301l-49 -232q121 29 156.5 112t48.5 194l214 1q-15 -210 -116 -334t-317 -145l-204 -1132h-290l45 201l-10 -1q-87 -105 -204 -164.5t-255 -55.5q-159 3 -254 91t-131 221t-20 273l165 971h300l-165 -967q-15 -122 36 -217t187 -101q113 -4 199 51.5
t139.5 147t70.5 194.5z" />
    <glyph glyph-name="Upsilon2" unicode="&#x1b1;" horiz-adv-x="1780" 
d="M486 973l-22 -143q-13 -90 -12 -189.5t28.5 -188t93 -145t182.5 -60.5q121 -4 211 47t152 138t99 191.5t53 207.5l22 143q13 83 23 197t-1 228t-61.5 202t-158.5 119l42 284h677l-49 -278l-287 -1q99 -179 149 -361t21 -391l-22 -138q-26 -170 -98.5 -326.5t-186 -279
t-265.5 -192.5t-337 -67q-179 3 -308.5 76.5t-208.5 196.5t-107.5 276.5t-5.5 315.5l21 138q35 222 146 421.5t292 336.5l-291 -5l49 278h665l-42 -283q-119 -32 -200 -112t-133.5 -188t-82.5 -225t-47 -223z" />
    <glyph glyph-name="Vcursive" unicode="&#x1b2;" horiz-adv-x="1780" 
d="M737 -30q-204 3 -354 89.5t-222.5 241t-46.5 362.5l230 1341h332l-230 -1342q-23 -174 47 -293.5t259 -124.5q198 -5 322 112t154 307l144 857q12 97 -15 160t-134 66q-26 1 -51.5 -1.5t-50.5 -6.5l27 271q84 22 163 21q147 -2 240 -73t132.5 -186.5t23.5 -251.5
l-143 -856q-32 -212 -146.5 -368.5t-290 -242t-390.5 -82.5z" />
    <glyph glyph-name="Yhook" unicode="&#x1b3;" horiz-adv-x="2041" 
d="M606 2049l369 -929l22 -1l479 642l49 72q110 163 274 216t346 -21l-98 -245q-92 36 -159 3t-123 -108l-55 -75l-610 -795l-140 -808h-309l146 841l-517 1206z" />
    <glyph glyph-name="yhook" unicode="&#x1b4;" horiz-adv-x="1685" 
d="M400 -101l65 134l-261 1503h306l164 -1067l469 944l26 54q46 98 108.5 190t148.5 154.5t204 73.5q80 8 152 -9.5t143 -53.5l-71 -224q-34 17 -68 29t-72 10q-75 -3 -126.5 -49.5t-86.5 -111.5t-63 -124l-28 -57l-757 -1521q-77 -164 -217 -271t-328 -105q-94 1 -188 25
l28 263q22 -5 44 -7t45 -2q251 -7 363 222z" />
    <glyph glyph-name="Zbar" unicode="&#x1b5;" horiz-adv-x="1770" 
d="M1474 272l-47 -272h-1416l39 225l575 680l-203 2l39 209h331l557 658l-1038 2l48 272h1415l-39 -225l-593 -705l211 -2l-40 -209h-340l-536 -633z" />
    <glyph glyph-name="zbar" unicode="&#x1b6;" horiz-adv-x="1520" 
d="M1234 265l-47 -265h-1176l41 234l400 432l-188 2l40 209l334 1l367 391l-775 2l46 265h1159l-39 -226l-398 -431l197 -2l-39 -209l-340 -1l-372 -400z" />
    <glyph glyph-name="Ezh" unicode="&#x1b7;" horiz-adv-x="1862" 
d="M-1 98l332 -1q7 -121 38.5 -211t104.5 -140.5t206 -53.5q174 -4 291.5 68.5t184 200.5t86.5 289q19 149 0 273.5t-101 200.5t-253 79l-342 1l41 234l718 686l-985 2l49 278h1398l-41 -231l-744 -713q232 -7 371.5 -122.5t192.5 -298.5t27 -392q-31 -247 -149.5 -434.5
t-311.5 -291.5t-447 -101q-317 5 -484 189t-182 489z" />
    <glyph glyph-name="Ezhreversed" unicode="&#x1b8;" horiz-adv-x="2036" 
d="M1292 95l329 3q-30 -213 -152.5 -365.5t-303.5 -233.5t-389 -79q-245 2 -402.5 107.5t-223 289t-35.5 418.5q46 371 274.5 590t601.5 241l-487 736l36 202h1391l-49 -278h-995l488 -717l-36 -205l-305 1q-270 1 -410 -155t-174 -414q-18 -142 0 -265t97 -199.5t245 -80.5
q207 -4 329 103t171 301z" />
    <glyph glyph-name="ezhreversed" unicode="&#x1b9;" horiz-adv-x="1780" 
d="M370 1488h1210l-46 -264h-831l381 -573l-38 -217l-174 1q-199 1 -329 -96.5t-156 -301.5q-19 -144 64 -230t225 -89q144 -4 257.5 87t132.5 235l318 1q-13 -189 -118.5 -320t-265.5 -199t-338 -66q-175 3 -317.5 70t-221 196t-61.5 317q27 282 211 438t454 187l-392 630z
" />
    <glyph glyph-name="ezhtail" unicode="&#x1ba;" horiz-adv-x="1524" 
d="M263 -178q-11 -67 23 -105t89.5 -54t109.5 -17q126 -3 222.5 59t122.5 190l310 2q-6 -124 -68 -217.5t-159 -156.5t-211 -94t-224 -29q-133 2 -258 49t-202.5 144.5t-67.5 249.5q7 116 64.5 195.5t145 130.5t189 81.5t198.5 50.5q65 13 141 32t134 60.5t71 121.5
q10 62 -19 94t-78.5 44t-99.5 13l-284 1l37 211l490 344l-681 2l47 264h1166l-36 -206l-510 -400q127 -41 207.5 -141t72.5 -238q-7 -115 -62.5 -193.5t-141 -129t-185 -81t-194.5 -50.5q-65 -14 -144 -36.5t-140.5 -67t-74.5 -123.5z" />
    <glyph glyph-name="twostroke" unicode="&#x1bb;" horiz-adv-x="1674" 
d="M1382 272l-47 -272h-1347l42 243l753 662l-184 2l40 209l362 -1q77 77 148.5 168.5t90.5 203.5q22 134 -51 233t-212 103q-120 3 -204 -57.5t-131.5 -158.5t-58.5 -205l-299 -1q13 189 109.5 343.5t253 245t349.5 87.5q166 -3 295.5 -77.5t198 -205t50.5 -300.5
q-12 -110 -64 -205t-122 -177l175 4l-37 -209l-305 1q-41 -39 -82.5 -77.5t-83.5 -76.5l-540 -465l-8 -23z" />
    <glyph glyph-name="Tonefive" unicode="&#x1bc;" horiz-adv-x="1715" 
d="M547 940l-274 66l215 752h-232l48 276h250l4 14h1088l-49 -283h-809l-181 -573h3q71 61 160.5 91.5t182.5 29.5q187 -2 312 -92.5t181.5 -240t36.5 -325.5q-22 -202 -127.5 -357.5t-272 -242.5t-370.5 -83q-264 4 -403.5 164t-145.5 415h295q11 -129 72.5 -222.5
t204.5 -98.5q122 -4 219 56t158.5 159.5t76.5 213.5q14 104 -12 194t-94.5 146t-182.5 58q-199 5 -354 -117z" />
    <glyph glyph-name="tonefive" unicode="&#x1bd;" horiz-adv-x="1606" 
d="M560 645l-297 18l162 553h-220l48 272h1197l-47 -272h-674l-102 -297q60 41 136.5 60t149.5 19q227 3 348 -138t100 -363q-16 -178 -110 -295t-238.5 -173.5t-312.5 -53.5q-138 2 -261.5 53t-201 151t-77.5 251l317 23q-1 -107 68.5 -157t170.5 -52q127 -3 219 67
t109 199q15 112 -43.5 178.5t-171.5 68.5q-78 2 -147.5 -25t-121.5 -87z" />
    <glyph glyph-name="glottalstopbarinv" unicode="&#x1be;" horiz-adv-x="1524" 
d="M948 412q13 72 -23 132t-95 117.5t-119 120.5t-97.5 139t-27.5 175l21 151h-238l42 241h237l63 361h322l-63 -361h257l-42 -241h-256l-25 -149q-13 -94 21.5 -158.5t92 -116.5t117 -105t98.5 -120.5t34 -165.5q-7 -121 -67 -209t-153.5 -144.5t-203.5 -83t-216 -24.5
q-150 3 -276 62t-201 169.5t-74 269.5h312q-1 -120 67 -184.5t187 -66.5q64 -1 130 17t115 60.5t61 113.5z" />
    <glyph glyph-name="wynn" unicode="&#x1bf;" horiz-adv-x="1780" 
d="M1480 730q-29 -217 -131.5 -376t-256 -270.5t-338 -186.5t-377.5 -124l-67 -345h-322l357 2060l295 1l-24 -153q166 185 412 180q155 -3 252 -72.5t146.5 -181t61.5 -243t-4 -258.5zM924 1248q-105 3 -185.5 -45t-140.5 -129l-193 -1044q178 55 338 142.5t271.5 223
t142.5 336.5l4 29q10 72 9.5 155t-23 157.5t-75.5 123t-148 51.5z" />
    <glyph glyph-name="pipe" unicode="&#x1c0;" horiz-adv-x="754" 
d="M687 2034l-352 -2034h-225l353 2034h224z" />
    <glyph glyph-name="pipedbl" unicode="&#x1c1;" horiz-adv-x="1012" 
d="M620 2034l-353 -2034h-225l353 2034h225zM980 2034l-352 -2034h-225l353 2034h224z" />
    <glyph glyph-name="pipedblbar" unicode="&#x1c2;" horiz-adv-x="1192" 
d="M1023 817l-37 -209h-331l-106 -608h-224l105 608h-335l37 209h334l79 455h-335l37 209h334l97 553h224l-96 -553h332l-37 -209h-331l-79 -455h332z" />
    <glyph glyph-name="exclam1" unicode="&#x1c3;" horiz-adv-x="756" 
d="M738 2048l-283 -1453h-266l221 1453h328zM244 -31q-84 0 -141 58t-58 141q-1 88 59 152t149 64q83 0 140 -59.5t58 -141.5q2 -87 -58.5 -150t-148.5 -64z" />
    <glyph glyph-name="Dzcaron_" unicode="&#x1c5;" horiz-adv-x="3329" 
d="M2479 2048l181 -221l262 220l253 5l1 -23l-430 -377h-179l-326 378v22zM720 0h-662l355 2048h643q224 -3 382 -84t252.5 -221t127 -323t4.5 -389q-40 -297 -183.5 -530t-376.5 -367.5t-542 -133.5zM1027 1770h-352l-259 -1492l298 -1q233 0 400.5 97t269 268t134.5 392
q29 193 -4 359.5t-149.5 269.5t-337.5 107zM2987 265l-46 -265h-1176l41 234l952 1035l-775 2l47 265h1159l-39 -226l-952 -1043z" />
    <glyph glyph-name="dzcaron" unicode="&#x1c6;" horiz-adv-x="2967" 
d="M2139 2048l182 -221l261 220l254 5l1 -23l-431 -377h-179l-325 378l-1 22zM1310 0h-294l46 212h-17q-78 -114 -186 -179.5t-250 -63.5q-160 2 -264.5 74.5t-162 189t-74.5 254.5t-1 271q18 146 73 289.5t147.5 260t222 184.5t294.5 63q124 -4 222.5 -62.5t146.5 -175.5
l18 -1l134 732h301zM2637 265l-46 -265h-1176l41 234l952 1035l-775 2l47 265h1159l-39 -226l-952 -1043zM399 760q-12 -83 -8.5 -174t32 -171t91 -131.5t167.5 -54.5q150 -5 250 78.5t156.5 211t74.5 255.5q11 82 9 171.5t-29 168t-87.5 128.5t-165.5 54q-149 4 -251.5 -76
t-161.5 -205t-77 -255z" />
    <glyph glyph-name="LJ" unicode="&#x1c7;" horiz-adv-x="3297" 
d="M314 0zM1557 272l-48 -272h-1195l355 2048h310l-308 -1776h886zM2721 598l248 1450h309l-249 -1450q-27 -184 -120 -327t-240.5 -223.5t-338.5 -76.5q-257 4 -399 161.5t-133 409.5h304q-6 -127 57 -211.5t196 -89.5q107 -5 183 44.5t122 132.5t61 180z" />
    <glyph glyph-name="Lj" unicode="&#x1c8;" horiz-adv-x="2571" 
d="M314 0zM1557 272l-48 -272h-1195l355 2048h310l-308 -1776h886zM2396 1712q-75 -1 -129.5 49t-56.5 126q-2 78 55 133t134 56q73 1 127.5 -50t56.5 -125q2 -80 -53.5 -134t-133.5 -55zM2186 1536h300l-279 -1627q-31 -229 -172 -359.5t-375 -130.5l-104 1l37 265l55 -2
q112 -1 176.5 59.5t81.5 168.5z" />
    <glyph glyph-name="lj" unicode="&#x1c9;" horiz-adv-x="1686" 
d="M294 0zM949 2048l-356 -2048h-299l355 2048h300zM1511 1712q-75 -1 -129.5 49t-56.5 126q-2 78 55 133t134 56q73 1 127.5 -50t56.5 -125q2 -80 -53.5 -134t-133.5 -55zM1301 1536h300l-279 -1627q-31 -229 -172 -359.5t-375 -130.5l-104 1l37 265l55 -2
q112 -1 176.5 59.5t81.5 168.5z" />
    <glyph glyph-name="NJ" unicode="&#x1ca;" horiz-adv-x="3757" 
d="M314 0zM2233 2048l-355 -2048h-291l-677 1494l-21 1l-265 -1495h-310l355 2048h293l677 -1499l20 -1l266 1500h308zM3181 598l248 1450h309l-249 -1450q-27 -184 -120 -327t-240.5 -223.5t-338.5 -76.5q-257 4 -399 161.5t-133 409.5h304q-6 -127 57 -211.5t196 -89.5
q107 -5 183 44.5t122 132.5t61 180z" />
    <glyph glyph-name="Nj" unicode="&#x1cb;" horiz-adv-x="3031" 
d="M314 0zM2233 2048l-355 -2048h-291l-677 1494l-21 1l-265 -1495h-310l355 2048h293l677 -1499l20 -1l266 1500h308zM2856 1712q-75 -1 -129.5 49t-56.5 126q-2 78 55 133t134 56q73 1 127.5 -50t56.5 -125q2 -80 -53.5 -134t-133.5 -55zM2646 1536h300l-279 -1627
q-31 -229 -172 -359.5t-375 -130.5l-104 1l37 265l55 -2q112 -1 176.5 59.5t81.5 168.5z" />
    <glyph glyph-name="nj" unicode="&#x1cc;" horiz-adv-x="2635" 
d="M294 0zM744 879l-151 -879h-299l266 1536h290l-50 -231l10 1q80 119 198.5 186t264.5 64q165 -3 259.5 -88.5t129 -218t17.5 -278.5l-165 -971h-301l163 956q11 81 -6.5 154.5t-69.5 122t-143 51.5q-114 5 -200.5 -54t-141 -154t-71.5 -197zM2460 1712q-75 -1 -129.5 49
t-56.5 126q-2 78 55 133t134 56q73 1 127.5 -50t56.5 -125q2 -80 -53.5 -134t-133.5 -55zM2250 1536h300l-279 -1627q-31 -229 -172 -359.5t-375 -130.5l-104 1l37 265l55 -2q112 -1 176.5 59.5t81.5 168.5z" />
    <glyph glyph-name="Acaron" unicode="&#x1cd;" horiz-adv-x="1978" 
d="M0 0zM257 0h-341l1085 2048h325l376 -2048h-315l-82 496h-794zM1098 1644l-455 -878l618 -2l-139 879zM1041 2599l182 -221l261 220l254 5l1 -23l-431 -377h-178l-326 378v22z" />
    <glyph glyph-name="acaron" unicode="&#x1ce;" horiz-adv-x="1566" 
d="M41 0zM910 0l32 186h-6q-75 -112 -191 -167t-250 -53t-237.5 60t-160 161t-46.5 240q8 130 68.5 216.5t155 139t205.5 80t221 39.5q34 3 90.5 4.5t116.5 9.5t105 30.5t55 68.5l2 12q15 118 -34.5 193t-174.5 78q-115 4 -214.5 -52t-150.5 -160l-279 75q51 137 153.5 225
t234.5 130t271 40q241 -3 379 -145t113 -390l-173 -1021h-285zM987 536l47 211q-37 -34 -95.5 -48t-120.5 -18.5t-109 -9.5q-78 -9 -156.5 -33.5t-135 -75.5t-69.5 -141q-15 -104 53 -153.5t162 -51.5q98 -3 187.5 36.5t153 112t83.5 171.5zM760 2115l182 -221l261 220
l254 5l1 -23l-431 -377h-178l-326 378v22z" />
    <glyph glyph-name="Icaron" unicode="&#x1cf;" horiz-adv-x="736" 
d="M58 0zM723 2048l-355 -2048h-310l355 2048h310zM409 2599l182 -221l261 220l254 5l1 -23l-431 -377h-178l-326 378v22z" />
    <glyph glyph-name="icaron" unicode="&#x1d0;" horiz-adv-x="693" 
d="M43 0zM610 1536l-267 -1536h-300l267 1536h300zM321 2107l182 -221l261 220l254 5l1 -23l-431 -377h-178l-326 378v22z" />
    <glyph glyph-name="Ocaron" unicode="&#x1d1;" horiz-adv-x="2100" 
d="M151 0zM1930 1029q-28 -203 -110.5 -393t-215 -340.5t-312 -238.5t-400.5 -85q-217 3 -366 94t-234.5 242t-113 335.5t-1.5 373.5q27 203 109.5 393.5t216 341.5t313 239t401.5 85q217 -3 365.5 -94.5t233.5 -243t112 -336t2 -373.5zM1624 1030q17 123 10.5 253.5
t-50 243.5t-136 184t-246.5 74q-159 4 -284 -62t-214.5 -178t-145 -250t-75.5 -279q-18 -123 -11 -253.5t51.5 -243t137 -183t245.5 -73.5q160 -4 284.5 61.5t214 177.5t144 249.5t75.5 278.5zM1103 2599l182 -221l261 220l254 5l1 -23l-431 -377h-178l-326 378v22z" />
    <glyph glyph-name="ocaron" unicode="&#x1d2;" horiz-adv-x="1656" 
d="M93 0zM689 -31q-165 2 -282.5 69t-188.5 179t-98 252t-10 288q17 158 78.5 302.5t163 257.5t239.5 177.5t308 61.5q165 -2 282 -69t188.5 -178.5t98 -251.5t10.5 -288q-17 -158 -79 -302.5t-163.5 -257.5t-239.5 -178t-307 -62zM700 231q150 -5 251.5 76t159 206.5
t74.5 255.5q11 86 5.5 177t-37 169t-95.5 128t-171 52q-149 4 -250.5 -76.5t-159 -206.5t-74.5 -255q-11 -86 -5.5 -176.5t36.5 -169t95.5 -128.5t170.5 -52zM770 2115l182 -221l261 220l254 5l1 -23l-431 -377h-178l-326 378v22z" />
    <glyph glyph-name="Ucaron" unicode="&#x1d3;" horiz-adv-x="2034" 
d="M153 0zM1673 2048h310l-233 -1353q-35 -225 -161.5 -390t-316.5 -254.5t-415 -86.5q-210 3 -373 94.5t-247 254.5t-55 380l232 1355h310l-233 -1351q-27 -194 82.5 -315t302.5 -125q136 -3 256 50t202 153t106 238zM1069 2599l182 -221l261 220l254 5l1 -23l-431 -377
h-178l-326 378v22z" />
    <glyph glyph-name="ucaron" unicode="&#x1d4;" horiz-adv-x="1632" 
d="M123 0zM1072 644l153 892h301l-267 -1536h-290l45 201l-10 -1q-87 -105 -204 -165t-255 -56q-159 4 -254 92t-131.5 221t-19.5 273l165 971h300l-164 -967q-16 -122 35 -217t187 -101q113 -4 199 51.5t139.5 146.5t70.5 195zM778 2115l182 -221l261 220l254 5l1 -23
l-431 -377h-178l-326 378v22z" />
    <glyph glyph-name="Udieresismacron" unicode="&#x1d5;" horiz-adv-x="2034" 
d="M153 0zM1673 2048h310l-233 -1353q-35 -225 -161.5 -390t-316.5 -254.5t-415 -86.5q-210 3 -373 94.5t-247 254.5t-55 380l232 1355h310l-233 -1351q-27 -194 82.5 -315t302.5 -125q136 -3 256 50t202 153t106 238zM1855 2867l-38 -216h-917l38 216h917zM844 2374
q-2 72 45 117t118 46q68 0 116.5 -41t51.5 -111q2 -72 -46 -116.5t-118 -45.5q-67 -1 -116 40t-51 111zM1448 2372q-2 73 46 117.5t119 45.5q67 0 115.5 -41t51.5 -111q2 -72 -45.5 -116.5t-117.5 -45.5q-68 -1 -117.5 40t-51.5 111z" />
    <glyph glyph-name="udieresismacron" unicode="&#x1d6;" horiz-adv-x="1632" 
d="M123 0zM1072 644l153 892h301l-267 -1536h-290l45 201l-10 -1q-87 -105 -204 -165t-255 -56q-159 4 -254 92t-131.5 221t-19.5 273l165 971h300l-164 -967q-16 -122 35 -217t187 -101q113 -4 199 51.5t139.5 146.5t70.5 195zM1575 2423l-38 -216h-918l38 216h918z
M550 1886q-2 73 46 120.5t120 48.5q69 1 118.5 -42.5t51.5 -114.5q2 -73 -46.5 -120t-120.5 -48q-69 -2 -118 42t-51 114zM1156 1885q-2 72 46 120t120 49q70 1 118.5 -43t50.5 -115q3 -72 -45.5 -120t-120.5 -49q-69 -1 -118 43t-51 115z" />
    <glyph glyph-name="Udieresisacute" unicode="&#x1d7;" horiz-adv-x="2034" 
d="M153 0zM1673 2048h310l-233 -1353q-35 -225 -161.5 -390t-316.5 -254.5t-415 -86.5q-210 3 -373 94.5t-247 254.5t-55 380l232 1355h310l-233 -1351q-27 -194 82.5 -315t302.5 -125q136 -3 256 50t202 153t106 238zM1211 2491l221 294l283 -1l-294 -293h-210zM975 2261
q-46 21 -60 70.5t9 93.5q23 42 71 62t94 -1q48 -22 61.5 -71t-11.5 -94q-23 -42 -71 -62t-93 2zM1529 2261q-45 21 -59 70.5t9 93.5q22 42 70.5 62t94.5 -1q47 -22 61.5 -71t-10.5 -94q-23 -42 -72 -62t-94 2z" />
    <glyph glyph-name="udieresisacute" unicode="&#x1d8;" horiz-adv-x="1632" 
d="M123 0zM1072 644l153 892h301l-267 -1536h-290l45 201l-10 -1q-87 -105 -204 -165t-255 -56q-159 4 -254 92t-131.5 221t-19.5 273l165 971h300l-164 -967q-16 -122 35 -217t187 -101q113 -4 199 51.5t139.5 146.5t70.5 195zM886 2122l331 415h390l-442 -415h-279z
M550 1886q-2 73 46 120.5t120 48.5q69 1 118.5 -42.5t51.5 -114.5q2 -73 -46.5 -120t-120.5 -48q-69 -1 -118 42.5t-51 113.5zM1156 1884q-2 73 46 121t120 49q69 1 118 -43t52 -115q2 -73 -46.5 -120.5t-120.5 -48.5q-69 -1 -118 43t-51 114z" />
    <glyph glyph-name="Udieresiscaron" unicode="&#x1d9;" horiz-adv-x="2034" 
d="M153 0zM1673 2048h310l-233 -1353q-35 -225 -161.5 -390t-316.5 -254.5t-415 -86.5q-210 3 -373 94.5t-247 254.5t-55 380l232 1355h310l-233 -1351q-27 -194 82.5 -315t302.5 -125q136 -3 256 50t202 153t106 238zM1193 2864l158 -164l214 163l285 3v-28l-396 -303h-207
l-317 302l1 30zM844 2374q-2 72 45 117t118 46q68 1 116.5 -40.5t51.5 -111.5q2 -72 -46 -116.5t-118 -45.5q-67 -1 -116 40t-51 111zM1448 2372q-2 72 46 117t118 46q68 1 117 -40.5t51 -111.5q2 -72 -45.5 -116.5t-117.5 -45.5q-68 -1 -117.5 40t-51.5 111z" />
    <glyph glyph-name="udieresiscaron" unicode="&#x1da;" horiz-adv-x="1632" 
d="M123 0zM1072 644l153 892h301l-267 -1536h-290l45 201l-10 -1q-87 -105 -204 -165t-255 -56q-159 4 -254 92t-131.5 221t-19.5 273l165 971h300l-164 -967q-16 -122 35 -217t187 -101q113 -4 199 51.5t139.5 146.5t70.5 195zM923 2539l157 -213l232 212l283 5v-22
l-421 -379h-198l-317 380v22zM550 1886q-2 74 46 121t120 48q69 1 118 -42.5t51 -114.5q3 -73 -45.5 -120t-119.5 -48q-70 -2 -119 42t-51 114zM1156 1885q-2 72 46 120t120 49q70 1 118.5 -43t50.5 -115q3 -72 -45.5 -120t-120.5 -49q-69 -1 -118 43t-51 115z" />
    <glyph glyph-name="Udieresisgrave" unicode="&#x1db;" horiz-adv-x="2034" 
d="M153 0zM1673 2048h310l-233 -1353q-35 -225 -161.5 -390t-316.5 -254.5t-415 -86.5q-210 3 -373 94.5t-247 254.5t-55 380l232 1355h310l-233 -1351q-27 -194 82.5 -315t302.5 -125q136 -3 256 50t202 153t106 238zM1311 2785l123 -293l-171 -1l-197 292zM844 2374
q-2 72 45 117t118 46q68 1 117 -40.5t51 -111.5q2 -72 -46 -116.5t-118 -45.5q-68 -1 -116.5 40t-50.5 111zM1448 2372q-2 72 46 117t118 46q68 1 117 -40.5t51 -111.5q2 -72 -45.5 -116t-117.5 -46q-68 -1 -117.5 40t-51.5 111z" />
    <glyph glyph-name="udieresisgrave" unicode="&#x1dc;" horiz-adv-x="1632" 
d="M123 0zM1072 644l153 892h301l-267 -1536h-290l45 201l-10 -1q-87 -105 -204 -165t-255 -56q-159 4 -254 92t-131.5 221t-19.5 273l165 971h300l-164 -967q-16 -122 35 -217t187 -101q113 -4 199 51.5t139.5 146.5t70.5 195zM1028 2537l193 -414l-249 -1l-296 413z
M550 1886q-2 73 46 120.5t120 48.5q69 1 118.5 -42.5t51.5 -114.5q2 -73 -46.5 -120t-120.5 -48q-69 -1 -118 42.5t-51 113.5zM1156 1884q-2 73 46 121t120 49q69 1 118 -43t51 -115q3 -73 -45.5 -120.5t-120.5 -48.5q-69 -1 -118 43t-51 114z" />
    <glyph glyph-name="eturn" unicode="&#x1dd;" horiz-adv-x="1524" 
d="M69 0zM787 1518q208 -3 341 -107.5t189 -272t32 -358.5l-7 -55q-20 -141 -80 -276t-155.5 -244t-223.5 -172t-283 -61q-195 3 -315.5 96t-168 245t-23.5 332l32 195h1073l-42 -243l-746 1l-8 -39q-23 -123 27 -219t187 -101q94 -3 164.5 43.5t119 122t78 161.5t41.5 162
l8 54q14 103 -0.5 211t-77 182.5t-190.5 78.5q-118 3 -224 -32t-204 -97l-86 218q103 99 254 138t288 37z" />
    <glyph glyph-name="Adieresismacron" unicode="&#x1de;" horiz-adv-x="1978" 
d="M0 0zM257 0h-341l1085 2048h325l376 -2048h-315l-82 496h-794zM1098 1644l-455 -878l618 -2l-139 879zM1827 2867l-38 -216h-917l38 216h917zM816 2374q-2 72 45 117t118 46q68 0 116.5 -41t51.5 -111q2 -72 -46 -116.5t-118 -45.5q-67 -1 -116 40t-51 111zM1420 2372
q-2 73 46 117.5t119 45.5q67 0 115.5 -41t51.5 -111q2 -72 -45.5 -116.5t-117.5 -45.5q-68 -1 -117.5 40t-51.5 111z" />
    <glyph glyph-name="adieresismacron" unicode="&#x1df;" horiz-adv-x="1566" 
d="M41 0zM910 0l32 186h-6q-75 -112 -191 -167t-250 -53t-237.5 60t-160 161t-46.5 240q8 130 68.5 216.5t155 139t205.5 80t221 39.5q34 3 90.5 4.5t116.5 9.5t105 30.5t55 68.5l2 12q15 118 -34.5 193t-174.5 78q-115 4 -214.5 -52t-150.5 -160l-279 75q51 137 153.5 225
t234.5 130t271 40q241 -3 379 -145t113 -390l-173 -1021h-285zM987 536l47 211q-37 -34 -95.5 -48t-120.5 -18.5t-109 -9.5q-78 -9 -156.5 -33.5t-135 -75.5t-69.5 -141q-15 -104 53 -153.5t162 -51.5q98 -3 187.5 36.5t153 112t83.5 171.5zM1557 2423l-38 -216h-918l38 216
h918zM532 1886q-2 73 46 120.5t120 48.5q69 1 118.5 -42.5t51.5 -114.5q2 -73 -46.5 -120t-120.5 -48q-69 -2 -118 42t-51 114zM1138 1885q-2 72 46 120t120 49q70 1 118.5 -43t50.5 -115q3 -72 -45.5 -120t-120.5 -49q-69 -1 -118 43t-51 115z" />
    <glyph glyph-name="Adotmacron" unicode="&#x1e0;" horiz-adv-x="1978" 
d="M0 0zM257 0h-341l1085 2048h325l376 -2048h-315l-82 496h-794zM1098 1644l-455 -878l618 -2l-139 879zM1827 2867l-38 -217h-917l38 217h917zM1118 2376q-2 72 45.5 117t117.5 46q68 0 117 -41t51 -111q2 -72 -45.5 -116.5t-117.5 -45.5q-68 -1 -116.5 40t-51.5 111z" />
    <glyph glyph-name="adotmacron" unicode="&#x1e1;" horiz-adv-x="1566" 
d="M41 0zM910 0l32 186h-6q-75 -112 -191 -167t-250 -53t-237.5 60t-160 161t-46.5 240q8 130 68.5 216.5t155 139t205.5 80t221 39.5q34 3 90.5 4.5t116.5 9.5t105 30.5t55 68.5l2 12q15 118 -34.5 193t-174.5 78q-115 4 -214.5 -52t-150.5 -160l-279 75q51 137 153.5 225
t234.5 130t271 40q241 -3 379 -145t113 -390l-173 -1021h-285zM987 536l47 211q-37 -34 -95.5 -48t-120.5 -18.5t-109 -9.5q-78 -9 -156.5 -33.5t-135 -75.5t-69.5 -141q-15 -104 53 -153.5t162 -51.5q98 -3 187.5 36.5t153 112t83.5 171.5zM1560 2446l-38 -216h-917l38 216
h917zM829 1900q-2 77 47 125.5t125 49.5q73 1 123 -44t52 -119q2 -76 -47.5 -124.5t-125.5 -50.5q-72 -1 -122.5 44t-51.5 119z" />
    <glyph glyph-name="AEmacron" unicode="&#x1e2;" horiz-adv-x="2804" 
d="M0 0zM2486 266l-47 -266h-1178l67 498h-700l-348 -498h-374l1474 2048h1333l-46 -266h-868l-82 -613h735l-46 -265h-725l-85 -638h890zM806 766l558 -2l131 978zM2160 2499l-34 -214h-917l34 214h917z" />
    <glyph glyph-name="aemacron" unicode="&#x1e3;" horiz-adv-x="2542" 
d="M44 0zM219 1161q51 137 154 225t234.5 130t271.5 40q78 -1 162.5 -20t155 -63t109.5 -120q102 99 226 152t268 51q213 -3 341 -111t176.5 -279.5t23.5 -363.5l-15 -100l-1050 -90q-6 -159 74 -268t247 -114q125 -3 223.5 55.5t153.5 170.5l273 -76q-43 -139 -148 -231
t-241 -137t-272 -43q-164 2 -303.5 78.5t-198.5 237.5h-7q-48 -105 -137 -177t-199.5 -108t-222.5 -34q-136 2 -244.5 58t-169 158.5t-51.5 244.5q9 130 69.5 216.5t155 139t205.5 80t221 39.5q34 3 90.5 4.5t116.5 9.5t105 30.5t55 67.5l1 13q16 117 -34 192.5t-174 78.5
q-116 3 -215 -52.5t-151 -159.5zM1787 1296q-136 4 -232 -62.5t-159.5 -172.5t-101.5 -220l768 64q19 101 -5.5 188.5t-92 143t-177.5 59.5zM990 536l47 211q-37 -34 -95.5 -48t-120.5 -18.5t-109 -9.5q-78 -9 -156.5 -33.5t-136 -75.5t-69.5 -141q-15 -104 53 -153.5
t162 -51.5q98 -3 188 36.5t153.5 112t83.5 171.5zM1912 2010l-34 -214h-917l34 214h917z" />
    <glyph glyph-name="Gbar" unicode="&#x1e4;" horiz-adv-x="2136" 
d="M1879 1042l-47 -258q-12 -60 -36 -127l209 2l-39 -214h-241q-137 -220 -349.5 -348t-476.5 -125q-219 2 -369 92.5t-237 241t-115 335t-2 376.5q28 202 109.5 392t213.5 341.5t311 240t400 86.5q204 -2 350 -90t238.5 -237.5t136.5 -335.5l-310 -20q-39 166 -145 276
t-286 115q-158 4 -281.5 -62.5t-212.5 -179.5t-143.5 -251t-74.5 -276q-18 -124 -10 -255t53 -243t139 -182.5t248 -72.5q132 -3 245.5 49t211.5 137l-348 -4l38 214l433 -3q28 62 46 126l9 31l-462 -3l41 232h753z" />
    <glyph glyph-name="gbar" unicode="&#x1e5;" horiz-adv-x="1732" 
d="M1282 1533h294l-111 -639h224l-37 -209h-223l-113 -671q-29 -196 -136.5 -329.5t-270 -200.5t-353.5 -64q-169 2 -320 67t-248 209l201 186q76 -90 163.5 -143t209.5 -56q173 -5 301.5 87.5t158.5 267.5l44 219h-14q-79 -112 -186.5 -172.5t-247.5 -59.5
q-155 2 -259.5 67.5t-164.5 173.5t-79.5 239.5t-4.5 264.5q17 144 72.5 285t148 255.5t221 181.5t290.5 63q124 -3 223.5 -62t147.5 -176l25 -1zM403 772q-16 -112 1.5 -223t84.5 -186t202 -79q126 -4 215.5 52t149 149.5t97.5 201.5l-392 -2l37 209l373 -1q9 98 -16 189
t-89.5 150.5t-175.5 62.5q-145 5 -247.5 -73t-162.5 -200t-77 -250z" />
    <glyph glyph-name="Gcaron" unicode="&#x1e6;" horiz-adv-x="2052" 
d="M150 0zM1877 1042l-43 -258q-37 -236 -167.5 -420.5t-329 -289.5t-441.5 -102q-218 2 -368 92.5t-236.5 241t-114 335.5t-2.5 376q28 201 109.5 391.5t214 342.5t311 240t399.5 86q204 -3 350 -90.5t238 -237t137 -335.5l-310 -20q-39 167 -145 276.5t-286 114.5
q-158 4 -281.5 -62.5t-212.5 -179.5t-143.5 -251t-74.5 -276q-18 -125 -10 -256t53.5 -242.5t139.5 -182t248 -73.5q162 -3 289.5 65.5t214.5 188t126 269.5l-463 -2l46 259h752zM1098 2599l182 -221l261 220l254 5l1 -23l-431 -377h-178l-326 378v22z" />
    <glyph glyph-name="gcaron" unicode="&#x1e7;" horiz-adv-x="1685" 
d="M0 0zM1282 1533h294l-260 -1518q-29 -196 -136.5 -329.5t-269.5 -201t-354 -64.5q-168 2 -319.5 67t-248.5 209l201 186q75 -90 163 -143t209 -56q173 -5 302 87.5t159 267.5l44 219h-14q-79 -112 -186.5 -172.5t-247.5 -59.5q-154 2 -258.5 67.5t-164.5 174t-80 239.5
t-4 264q17 144 72.5 285.5t148 255.5t220.5 181t290 63q124 -3 223.5 -62t147.5 -176l25 -1zM404 772q-16 -111 0.5 -222.5t83.5 -186.5t203 -79q144 -4 243 69t155.5 189.5t74.5 244.5q11 81 7.5 168.5t-31.5 163.5t-88 124.5t-162 51.5q-146 5 -248 -73t-161.5 -200
t-76.5 -250zM816 2115l182 -221l261 220l254 5l1 -23l-431 -377h-178l-326 378v22z" />
    <glyph glyph-name="Kcaron" unicode="&#x1e8;" horiz-adv-x="1893" 
d="M58 0zM1261 0l-484 890l-306 -292l-103 -598h-310l355 2048h310l-176 -968l19 1l1013 967h430l-1015 -946l624 -1102h-357zM894 2599l182 -221l261 220l254 5l1 -23l-431 -377h-178l-326 378v22z" />
    <glyph glyph-name="kcaron" unicode="&#x1e9;" horiz-adv-x="1517" 
d="M38 0zM981 0l-360 684l-197 -186l-87 -498h-299l355 2048h300l-208 -1148l20 1l648 635h384l-698 -669l464 -867h-322zM825 2599l182 -221l261 220l254 5l1 -23l-431 -377h-178l-326 378v22z" />
    <glyph glyph-name="Oogonek" unicode="&#x1ea;" horiz-adv-x="2100" 
d="M151 0zM1930 1029q-28 -203 -110.5 -393t-215 -340.5t-312 -238.5t-400.5 -85q-217 3 -366 94t-234.5 242t-113 335.5t-1.5 373.5q27 203 109.5 393.5t216 341.5t313 239t401.5 85q217 -3 365.5 -94.5t233.5 -243t112 -336t2 -373.5zM1624 1030q17 123 10.5 253.5
t-50 243.5t-136 184t-246.5 74q-159 4 -284 -62t-214.5 -178t-145 -250t-75.5 -279q-18 -123 -11 -253.5t51.5 -243t137 -183t245.5 -73.5q160 -4 284.5 61.5t214 177.5t144 249.5t75.5 278.5zM861 85l150 -89q-50 -33 -106 -73.5t-98.5 -91.5t-51.5 -116q-12 -84 69 -85
q32 -1 62.5 9.5t58.5 23.5l15 -196q-46 -32 -102 -45t-111 -12q-117 2 -190 74.5t-69 190.5q3 105 60.5 182.5t142.5 133.5t170 94z" />
    <glyph glyph-name="oogonek" unicode="&#x1eb;" horiz-adv-x="1656" 
d="M93 0zM689 -31q-165 2 -282.5 69t-188.5 179t-98 252t-10 288q17 158 78.5 302.5t163 257.5t239.5 177.5t308 61.5q165 -2 282 -69t188.5 -178.5t98 -251.5t10.5 -288q-17 -158 -79 -302.5t-163.5 -257.5t-239.5 -178t-307 -62zM700 231q150 -5 251.5 76t159 206.5
t74.5 255.5q11 86 5.5 177t-37 169t-95.5 128t-171 52q-149 4 -250.5 -76.5t-159 -206.5t-74.5 -255q-11 -86 -5.5 -176.5t36.5 -169t95.5 -128.5t170.5 -52zM643 85l150 -89q-50 -33 -106 -73.5t-98.5 -91.5t-51.5 -116q-12 -84 69 -85q32 -1 62.5 9.5t58.5 23.5l15 -196
q-46 -32 -102 -45t-111 -12q-117 2 -190 74.5t-69 190.5q3 105 60.5 182.5t142.5 133.5t170 94z" />
    <glyph glyph-name="Oogonekmacron" unicode="&#x1ec;" horiz-adv-x="2100" 
d="M151 0zM1930 1029q-28 -203 -110.5 -393t-215 -340.5t-312 -238.5t-400.5 -85q-217 3 -366 94t-234.5 242t-113 335.5t-1.5 373.5q27 203 109.5 393.5t216 341.5t313 239t401.5 85q217 -3 365.5 -94.5t233.5 -243t112 -336t2 -373.5zM1624 1030q17 123 10.5 253.5
t-50 243.5t-136 184t-246.5 74q-159 4 -284 -62t-214.5 -178t-145 -250t-75.5 -279q-18 -123 -11 -253.5t51.5 -243t137 -183t245.5 -73.5q160 -4 284.5 61.5t214 177.5t144 249.5t75.5 278.5zM861 85l150 -89q-50 -33 -106 -73.5t-98.5 -91.5t-51.5 -116q-12 -84 69 -85
q32 -1 62.5 9.5t58.5 23.5l15 -196q-46 -32 -102 -45t-111 -12q-117 2 -190 74.5t-69 190.5q3 105 60.5 182.5t142.5 133.5t170 94zM1781 2494l-34 -214h-917l34 214h917z" />
    <glyph glyph-name="oogonekmacron" unicode="&#x1ed;" horiz-adv-x="1656" 
d="M93 0zM689 -31q-165 2 -282.5 69t-188.5 179t-98 252t-10 288q17 158 78.5 302.5t163 257.5t239.5 177.5t308 61.5q165 -2 282 -69t188.5 -178.5t98 -251.5t10.5 -288q-17 -158 -79 -302.5t-163.5 -257.5t-239.5 -178t-307 -62zM700 231q150 -5 251.5 76t159 206.5
t74.5 255.5q11 86 5.5 177t-37 169t-95.5 128t-171 52q-149 4 -250.5 -76.5t-159 -206.5t-74.5 -255q-11 -86 -5.5 -176.5t36.5 -169t95.5 -128.5t170.5 -52zM643 85l150 -89q-50 -33 -106 -73.5t-98.5 -91.5t-51.5 -116q-12 -84 69 -85q32 -1 62.5 9.5t58.5 23.5l15 -196
q-46 -32 -102 -45t-111 -12q-117 2 -190 74.5t-69 190.5q3 105 60.5 182.5t142.5 133.5t170 94zM1448 2010l-34 -214h-917l34 214h917z" />
    <glyph glyph-name="Ezhcaron" unicode="&#x1ee;" horiz-adv-x="1862" 
d="M900 2455l182 -221l261 220l254 5l1 -23l-431 -377h-179l-325 378l-1 22zM-11 98l333 -1q7 -121 38 -211t104 -140.5t207 -53.5q174 -4 291.5 68.5t184 201t86.5 289.5q19 148 0 272.5t-101.5 200.5t-252.5 80h-342l41 234l717 686l-985 2l49 278h1398l-40 -231
l-744 -713q232 -7 371 -122.5t192 -298.5t27 -392q-31 -247 -149.5 -434.5t-311.5 -291.5t-447 -100q-317 4 -484 188t-182 489z" />
    <glyph glyph-name="ezhcaron" unicode="&#x1ef;" horiz-adv-x="1606" 
d="M773 2092l153 -194l221 193l282 3v-28l-404 -342h-207l-308 342l1 29zM292 1488h1211l-39 -223l-611 -607q163 -20 269.5 -104t155 -214t33.5 -287q-19 -196 -132 -330t-281.5 -201.5t-352.5 -64.5q-176 3 -307.5 74.5t-202.5 201.5t-65 308h321q-7 -132 61.5 -225
t208.5 -97q103 -3 196 36.5t156.5 116t78.5 182.5q25 180 -56.5 277.5t-262.5 101.5l-213 1l43 246l557 542l-814 2z" />
    <glyph glyph-name="jcaron" unicode="&#x1f0;" horiz-adv-x="747" 
d="M0 0zM362 1536h300l-279 -1627q-32 -227 -173 -359t-374 -131l-104 1l37 265l54 -1q111 0 175.5 60.5t83.5 166.5zM360 2053l182 -221l261 220l254 5l1 -23l-431 -377h-178l-326 378v22z" />
    <glyph glyph-name="DZ" unicode="&#x1f1;" horiz-adv-x="4019" 
d="M314 0zM976 0h-662l355 2048h643q223 -3 381.5 -84t253.5 -221.5t128 -323t5 -388.5q-40 -296 -184.5 -529.5t-378 -368t-541.5 -133.5zM1283 1770h-352l-259 -1492l298 -1q231 0 399.5 97.5t271 268.5t135.5 391q28 193 -6.5 359t-151 269.5t-335.5 107.5zM3723 272
l-47 -272h-1416l39 225l1299 1549l-1038 2l48 272h1415l-39 -225l-1297 -1549z" />
    <glyph glyph-name="Dz" unicode="&#x1f2;" horiz-adv-x="3769" 
d="M314 0zM976 0h-662l355 2048h643q223 -3 381.5 -84t253.5 -221.5t128 -323t5 -388.5q-40 -296 -184.5 -529.5t-378 -368t-541.5 -133.5zM1283 1770h-352l-259 -1492l298 -1q231 0 399.5 97.5t271 268.5t135.5 391q28 193 -6.5 359t-151 269.5t-335.5 107.5zM3483 265
l-47 -265h-1176l41 234l953 1035l-775 2l46 265h1159l-39 -226l-952 -1043z" />
    <glyph glyph-name="Gacute" unicode="&#x1f4;" horiz-adv-x="2052" 
d="M150 0zM1877 1042l-43 -258q-37 -236 -167.5 -420.5t-329 -289.5t-441.5 -102q-218 2 -368 92.5t-236.5 241t-114 335.5t-2.5 376q28 201 109.5 391.5t214 342.5t311 240t399.5 86q204 -3 350 -90.5t238 -237t137 -335.5l-310 -20q-39 167 -145 276.5t-286 114.5
q-158 4 -281.5 -62.5t-212.5 -179.5t-143.5 -251t-74.5 -276q-18 -125 -10 -256t53.5 -242.5t139.5 -182t248 -73.5q162 -3 289.5 65.5t214.5 188t126 269.5l-463 -2l46 259h752zM1118 2191l309 416h329l-388 -416h-250z" />
    <glyph glyph-name="gacute" unicode="&#x1f5;" horiz-adv-x="1685" 
d="M0 0zM1282 1533h294l-260 -1518q-29 -196 -136.5 -329.5t-269.5 -201t-354 -64.5q-168 2 -319.5 67t-248.5 209l201 186q75 -90 163 -143t209 -56q173 -5 302 87.5t159 267.5l44 219h-14q-79 -112 -186.5 -172.5t-247.5 -59.5q-154 2 -258.5 67.5t-164.5 174t-80 239.5
t-4 264q17 144 72.5 285.5t148 255.5t220.5 181t290 63q124 -3 223.5 -62t147.5 -176l25 -1zM404 772q-16 -111 0.5 -222.5t83.5 -186.5t203 -79q144 -4 243 69t155.5 189.5t74.5 244.5q11 81 7.5 168.5t-31.5 163.5t-88 124.5t-162 51.5q-146 5 -248 -73t-161.5 -200
t-76.5 -250zM835 1707l309 416h329l-388 -416h-250z" />
    <glyph glyph-name="uni01F6" unicode="&#x1f6;" horiz-adv-x="3071" 
d="M722 2048l-155 -889h948l154 889h309l-237 -1386q-15 -110 5.5 -202.5t87 -150t188.5 -60.5q196 -6 304.5 113t136.5 301l147 858h309l-148 -857q-31 -204 -130.5 -362t-260 -247.5t-374.5 -86.5q-205 3 -342.5 93.5t-198 246.5t-34.5 355l37 227h-947l-154 -890h-309
l355 2048h309z" />
    <glyph glyph-name="uni01F7" unicode="&#x1f7;" horiz-adv-x="1862" 
d="M691 2008l-11 -57q81 43 170.5 62t180.5 18q253 -2 412 -115.5t222.5 -305.5t33.5 -430l-10 -73q-37 -256 -163 -473.5t-314.5 -388.5t-416 -288t-468.5 -172l-69 -357h-333l447 2576zM1017 1756q-112 2 -206.5 -40t-173.5 -121l-278 -1532q237 83 446.5 229t355.5 350.5
t191 463.5l12 77q21 144 4.5 274t-97.5 213t-254 86z" />
    <glyph glyph-name="uni01F8" unicode="&#x1f8;" horiz-adv-x="2028" 
d="M58 0zM1977 2048l-355 -2048h-291l-677 1494l-21 1l-265 -1495h-310l355 2048h293l677 -1499l20 -1l266 1500h308zM1217 2607l201 -415l-253 -1l-299 414z" />
    <glyph glyph-name="uni01F9" unicode="&#x1f9;" horiz-adv-x="1632" 
d="M38 0zM488 879l-151 -879h-299l266 1536h290l-50 -231l10 1q80 119 198.5 186t264.5 64q165 -3 259.5 -88.5t129 -218t17.5 -278.5l-165 -971h-301l163 956q11 81 -6.5 154.5t-69.5 122t-143 51.5q-114 5 -200.5 -54t-141 -154t-71.5 -197zM922 2123l201 -415l-253 -1
l-299 414z" />
    <glyph glyph-name="Aringacute" unicode="&#x1fa;" horiz-adv-x="1978" 
d="M0 0zM257 0h-341l1085 2048h325l376 -2048h-315l-82 496h-794zM1098 1644l-455 -878l618 -2l-139 879zM1185 2511l263 265l331 -1l-371 -265zM972 2196q-1 108 77 182.5t185 72.5q98 -2 165.5 -71t66.5 -167q0 -106 -76.5 -176t-180.5 -69q-97 1 -167 65t-70 163z
M1104 2198q-7 -45 19 -77t72 -32q52 -1 90 36.5t45 86.5q7 44 -14 80.5t-70 36.5q-54 0 -94.5 -40t-47.5 -91z" />
    <glyph glyph-name="aringacute" unicode="&#x1fb;" horiz-adv-x="1566" 
d="M41 0zM910 0l32 186h-6q-75 -112 -191 -167t-250 -53t-237.5 60t-160 161t-46.5 240q8 130 68.5 216.5t155 139t205.5 80t221 39.5q34 3 90.5 4.5t116.5 9.5t105 30.5t55 68.5l2 12q15 118 -34.5 193t-174.5 78q-115 4 -214.5 -52t-150.5 -160l-279 75q51 137 153.5 225
t234.5 130t271 40q241 -3 379 -145t113 -390l-173 -1021h-285zM987 536l47 211q-37 -34 -95.5 -48t-120.5 -18.5t-109 -9.5q-78 -9 -156.5 -33.5t-135 -75.5t-69.5 -141q-15 -104 53 -153.5t162 -51.5q98 -3 187.5 36.5t153 112t83.5 171.5zM903 2027l263 265l331 -1
l-371 -265zM690 1712q-1 108 77 182.5t185 72.5q98 -2 165.5 -71t66.5 -167q0 -106 -76.5 -176t-180.5 -69q-97 1 -167 65t-70 163zM822 1714q-7 -45 19 -77t72 -32q52 -1 90 36.5t45 86.5q7 44 -14 80.5t-70 36.5q-54 0 -94.5 -40t-47.5 -91z" />
    <glyph glyph-name="AEacute" unicode="&#x1fc;" horiz-adv-x="2804" 
d="M0 0zM2486 266l-47 -266h-1178l67 498h-700l-348 -498h-374l1474 2048h1333l-46 -266h-868l-82 -613h735l-46 -265h-725l-85 -638h890zM806 766l558 -2l131 978zM1503 2196l309 416h329l-388 -416h-250z" />
    <glyph glyph-name="aeacute" unicode="&#x1fd;" horiz-adv-x="2542" 
d="M44 0zM219 1161q51 137 154 225t234.5 130t271.5 40q78 -1 162.5 -20t155 -63t109.5 -120q102 99 226 152t268 51q213 -3 341 -111t176.5 -279.5t23.5 -363.5l-15 -100l-1050 -90q-6 -159 74 -268t247 -114q125 -3 223.5 55.5t153.5 170.5l273 -76q-43 -139 -148 -231
t-241 -137t-272 -43q-164 2 -303.5 78.5t-198.5 237.5h-7q-48 -105 -137 -177t-199.5 -108t-222.5 -34q-136 2 -244.5 58t-169 158.5t-51.5 244.5q9 130 69.5 216.5t155 139t205.5 80t221 39.5q34 3 90.5 4.5t116.5 9.5t105 30.5t55 67.5l1 13q16 117 -34 192.5t-174 78.5
q-116 3 -215 -52.5t-151 -159.5zM1787 1296q-136 4 -232 -62.5t-159.5 -172.5t-101.5 -220l768 64q19 101 -5.5 188.5t-92 143t-177.5 59.5zM990 536l47 211q-37 -34 -95.5 -48t-120.5 -18.5t-109 -9.5q-78 -9 -156.5 -33.5t-136 -75.5t-69.5 -141q-15 -104 53 -153.5
t162 -51.5q98 -3 188 36.5t153.5 112t83.5 171.5zM1254 1707l309 416h329l-388 -416h-250z" />
    <glyph glyph-name="Oslashacute" unicode="&#x1fe;" horiz-adv-x="2100" 
d="M109 0zM265 -87l-156 125l188 213q-95 183 -121.5 372.5t1.5 393.5q29 203 111 393.5t214.5 341.5t312 239t401.5 85q122 -1 240 -36t216 -110l172 201l156 -125l-189 -213q93 -184 118.5 -372.5t-2.5 -391.5t-110 -393t-214.5 -341t-311.5 -238.5t-401 -84.5
q-121 1 -238 35t-214 108zM484 1017q-19 -126 -19.5 -254.5t37.5 -251.5l982 1178q-56 52 -131.5 74t-150.5 23q-161 3 -285 -63t-213 -178t-143.5 -249.5t-76.5 -278.5zM1621 1029q19 125 19.5 252.5t-34.5 249.5l-981 -1175q56 -51 131 -72t149 -22q161 -3 284.5 62.5
t212 177t143 249t76.5 278.5zM1125 2224l309 416h329l-388 -416h-250z" />
    <glyph glyph-name="oslashacute" unicode="&#x1ff;" horiz-adv-x="1656" 
d="M61 0zM217 -87l-156 125l138 152q-68 135 -88.5 276t-1.5 290q26 212 129 395.5t273 295.5t398 109q88 -1 172.5 -22.5t159.5 -67.5l123 145l157 -125l-136 -150q67 -134 87.5 -276t1.5 -291q-26 -211 -129 -395t-273 -296.5t-398 -109.5q-87 1 -171.5 23t-158.5 68z
M402 758q-13 -79 -16 -159t10 -159l674 808q-36 27 -82 38t-90 12q-152 3 -254.5 -77.5t-161.5 -206t-80 -256.5zM687 229q151 -3 254 77.5t162 205.5t80 257q13 79 15.5 159t-10.5 159l-674 -808q36 -28 82 -38.5t91 -11.5zM773 1704l309 416h329l-388 -416h-250z" />
    <glyph glyph-name="Adblgrave" unicode="&#x200;" horiz-adv-x="1978" 
d="M0 0zM257 0h-341l1085 2048h325l376 -2048h-315l-82 496h-794zM1098 1644l-455 -878l618 -2l-139 879zM1579 2216l-239 -2l-270 363l313 2zM1182 2216l-257 -2l-344 363l330 2z" />
    <glyph glyph-name="adblgrave" unicode="&#x201;" horiz-adv-x="1566" 
d="M41 0zM910 0l32 186h-6q-75 -112 -191 -167t-250 -53t-237.5 60t-160 161t-46.5 240q8 130 68.5 216.5t155 139t205.5 80t221 39.5q34 3 90.5 4.5t116.5 9.5t105 30.5t55 68.5l2 12q15 118 -34.5 193t-174.5 78q-115 4 -214.5 -52t-150.5 -160l-279 75q51 137 153.5 225
t234.5 130t271 40q241 -3 379 -145t113 -390l-173 -1021h-285zM987 536l47 211q-37 -34 -95.5 -48t-120.5 -18.5t-109 -9.5q-78 -9 -156.5 -33.5t-135 -75.5t-69.5 -141q-15 -104 53 -153.5t162 -51.5q98 -3 187.5 36.5t153 112t83.5 171.5zM1297 1732l-239 -2l-270 363
l313 2zM900 1732l-257 -2l-344 363l330 2z" />
    <glyph glyph-name="Ainvertedbreve" unicode="&#x202;" horiz-adv-x="1978" 
d="M0 0zM257 0h-341l1085 2048h325l376 -2048h-315l-82 496h-794zM1098 1644l-455 -878l618 -2l-139 879zM1697 2255h-243q3 81 -30 136.5t-122 57.5q-93 3 -149.5 -51t-69.5 -142l-242 -1q7 126 72.5 213.5t169 132.5t223.5 42q176 -3 284 -107t107 -281z" />
    <glyph glyph-name="ainvertedbreve" unicode="&#x203;" horiz-adv-x="1566" 
d="M41 0zM910 0l32 186h-6q-75 -112 -191 -167t-250 -53t-237.5 60t-160 161t-46.5 240q8 130 68.5 216.5t155 139t205.5 80t221 39.5q34 3 90.5 4.5t116.5 9.5t105 30.5t55 68.5l2 12q15 118 -34.5 193t-174.5 78q-115 4 -214.5 -52t-150.5 -160l-279 75q51 137 153.5 225
t234.5 130t271 40q241 -3 379 -145t113 -390l-173 -1021h-285zM987 536l47 211q-37 -34 -95.5 -48t-120.5 -18.5t-109 -9.5q-78 -9 -156.5 -33.5t-135 -75.5t-69.5 -141q-15 -104 53 -153.5t162 -51.5q98 -3 187.5 36.5t153 112t83.5 171.5zM1415 1771h-243q3 81 -30 136.5
t-122 57.5q-93 3 -149.5 -51t-69.5 -142l-242 -1q7 126 72.5 213.5t169 132.5t223.5 42q176 -3 284 -107t107 -281z" />
    <glyph glyph-name="Edblgrave" unicode="&#x204;" horiz-adv-x="1664" 
d="M58 0zM1358 272l-48 -272h-1252l355 2048h1243l-48 -272h-932l-107 -614h821l-48 -273h-820l-107 -617h943zM1460 2216l-239 -2l-270 363l313 2zM1063 2216l-257 -2l-344 363l330 2z" />
    <glyph glyph-name="edblgrave" unicode="&#x205;" horiz-adv-x="1631" 
d="M84 0zM712 -31q-223 3 -365 110.5t-202.5 283.5t-37.5 383q18 159 80 305.5t164.5 261.5t241.5 180.5t310 63.5q214 -3 343.5 -111t180.5 -279.5t28 -364.5l-18 -129h-1179l37 233l878 -1q17 101 -9 189t-95 143t-179 58q-150 5 -252.5 -76.5t-161 -208t-74.5 -257.5
q-15 -123 4.5 -242t93 -198.5t221.5 -82.5q124 -3 222 56t152 170l272 -76q-42 -139 -145.5 -231t-238 -137t-271.5 -43zM1310 1732l-239 -2l-270 363l313 2zM913 1732l-257 -2l-344 363l330 2z" />
    <glyph glyph-name="Einvertedbreve" unicode="&#x206;" horiz-adv-x="1664" 
d="M58 0zM1358 272l-48 -272h-1252l355 2048h1243l-48 -272h-932l-107 -614h821l-48 -273h-820l-107 -617h943zM1578 2255h-243q3 81 -30 136.5t-122 57.5q-93 3 -149.5 -51t-69.5 -142l-242 -1q7 126 72.5 213.5t169 132.5t223.5 42q176 -3 284 -107t107 -281z" />
    <glyph glyph-name="einvertedbreve" unicode="&#x207;" horiz-adv-x="1631" 
d="M84 0zM712 -31q-223 3 -365 110.5t-202.5 283.5t-37.5 383q18 159 80 305.5t164.5 261.5t241.5 180.5t310 63.5q214 -3 343.5 -111t180.5 -279.5t28 -364.5l-18 -129h-1179l37 233l878 -1q17 101 -9 189t-95 143t-179 58q-150 5 -252.5 -76.5t-161 -208t-74.5 -257.5
q-15 -123 4.5 -242t93 -198.5t221.5 -82.5q124 -3 222 56t152 170l272 -76q-42 -139 -145.5 -231t-238 -137t-271.5 -43zM1428 1771h-243q3 81 -30 136.5t-122 57.5q-93 3 -149.5 -51t-69.5 -142l-242 -1q7 126 72.5 213.5t169 132.5t223.5 42q176 -3 284 -107t107 -281z
" />
    <glyph glyph-name="Idblgrave" unicode="&#x208;" horiz-adv-x="736" 
d="M0 0zM723 2048l-355 -2048h-310l355 2048h310zM947 2216l-239 -2l-270 363l313 2zM550 2216l-257 -2l-344 363l330 2z" />
    <glyph glyph-name="idblgrave" unicode="&#x209;" horiz-adv-x="693" 
d="M0 0zM610 1536l-267 -1536h-300l267 1536h300zM859 1724l-239 -2l-270 363l313 2zM462 1724l-257 -2l-344 363l330 2z" />
    <glyph glyph-name="Iinvertedbreve" unicode="&#x20a;" horiz-adv-x="736" 
d="M58 0zM723 2048l-355 -2048h-310l355 2048h310zM1065 2255h-243q3 81 -30 136.5t-122 57.5q-93 3 -149.5 -51t-69.5 -142l-242 -1q7 126 72.5 213.5t169 132.5t223.5 42q176 -3 284 -107t107 -281z" />
    <glyph glyph-name="iinvertedbreve" unicode="&#x20b;" horiz-adv-x="693" 
d="M43 0zM610 1536l-267 -1536h-300l267 1536h300zM977 1763h-243q3 81 -30 136.5t-122 57.5q-93 3 -149.5 -51t-69.5 -142l-242 -1q7 126 72.5 213.5t169 132.5t223.5 42q176 -3 284 -107t107 -281z" />
    <glyph glyph-name="Odblgrave" unicode="&#x20c;" horiz-adv-x="2100" 
d="M151 0zM1930 1029q-28 -203 -110.5 -393t-215 -340.5t-312 -238.5t-400.5 -85q-217 3 -366 94t-234.5 242t-113 335.5t-1.5 373.5q27 203 109.5 393.5t216 341.5t313 239t401.5 85q217 -3 365.5 -94.5t233.5 -243t112 -336t2 -373.5zM1624 1030q17 123 10.5 253.5
t-50 243.5t-136 184t-246.5 74q-159 4 -284 -62t-214.5 -178t-145 -250t-75.5 -279q-18 -123 -11 -253.5t51.5 -243t137 -183t245.5 -73.5q160 -4 284.5 61.5t214 177.5t144 249.5t75.5 278.5zM1641 2216l-239 -2l-270 363l313 2zM1244 2216l-257 -2l-344 363l330 2z" />
    <glyph glyph-name="odblgrave" unicode="&#x20d;" horiz-adv-x="1656" 
d="M93 0zM689 -31q-165 2 -282.5 69t-188.5 179t-98 252t-10 288q17 158 78.5 302.5t163 257.5t239.5 177.5t308 61.5q165 -2 282 -69t188.5 -178.5t98 -251.5t10.5 -288q-17 -158 -79 -302.5t-163.5 -257.5t-239.5 -178t-307 -62zM700 231q150 -5 251.5 76t159 206.5
t74.5 255.5q11 86 5.5 177t-37 169t-95.5 128t-171 52q-149 4 -250.5 -76.5t-159 -206.5t-74.5 -255q-11 -86 -5.5 -176.5t36.5 -169t95.5 -128.5t170.5 -52zM1308 1732l-239 -2l-270 363l313 2zM911 1732l-257 -2l-344 363l330 2z" />
    <glyph glyph-name="Oinvertedbreve" unicode="&#x20e;" horiz-adv-x="2100" 
d="M151 0zM1930 1029q-28 -203 -110.5 -393t-215 -340.5t-312 -238.5t-400.5 -85q-217 3 -366 94t-234.5 242t-113 335.5t-1.5 373.5q27 203 109.5 393.5t216 341.5t313 239t401.5 85q217 -3 365.5 -94.5t233.5 -243t112 -336t2 -373.5zM1624 1030q17 123 10.5 253.5
t-50 243.5t-136 184t-246.5 74q-159 4 -284 -62t-214.5 -178t-145 -250t-75.5 -279q-18 -123 -11 -253.5t51.5 -243t137 -183t245.5 -73.5q160 -4 284.5 61.5t214 177.5t144 249.5t75.5 278.5zM1759 2255h-243q3 81 -30 136.5t-122 57.5q-93 3 -149.5 -51t-69.5 -142
l-242 -1q7 126 72.5 213.5t169 132.5t223.5 42q176 -3 284 -107t107 -281z" />
    <glyph glyph-name="oinvertedbreve" unicode="&#x20f;" horiz-adv-x="1656" 
d="M93 0zM689 -31q-165 2 -282.5 69t-188.5 179t-98 252t-10 288q17 158 78.5 302.5t163 257.5t239.5 177.5t308 61.5q165 -2 282 -69t188.5 -178.5t98 -251.5t10.5 -288q-17 -158 -79 -302.5t-163.5 -257.5t-239.5 -178t-307 -62zM700 231q150 -5 251.5 76t159 206.5
t74.5 255.5q11 86 5.5 177t-37 169t-95.5 128t-171 52q-149 4 -250.5 -76.5t-159 -206.5t-74.5 -255q-11 -86 -5.5 -176.5t36.5 -169t95.5 -128.5t170.5 -52zM1426 1771h-243q3 81 -30 136.5t-122 57.5q-93 3 -149.5 -51t-69.5 -142l-242 -1q7 126 72.5 213.5t169 132.5
t223.5 42q176 -3 284 -107t107 -281z" />
    <glyph glyph-name="Rdblgrave" unicode="&#x210;" horiz-adv-x="1777" 
d="M58 0zM1170 0l-246 782h-421l-135 -782h-310l355 2048l678 -1q191 -4 331.5 -78t210.5 -212t50 -334q-22 -207 -136 -355.5t-308 -222.5l269 -845h-338zM676 1776l-125 -717l352 -1q181 1 314 87t160 275q24 163 -52.5 257t-242.5 98zM1487 2216l-239 -2l-270 363l313 2z
M1090 2216l-257 -2l-344 363l330 2z" />
    <glyph glyph-name="rdblgrave" unicode="&#x211;" horiz-adv-x="1100" 
d="M38 0zM1161 1505l-126 -272q-55 30 -124 32q-110 2 -198.5 -55t-147 -148.5t-77.5 -192.5l-151 -869h-299l266 1536h301l-52 -244l10 1q52 116 155 193t236 75q55 -1 107 -16.5t100 -39.5zM1074 1732l-239 -2l-270 363l313 2zM677 1732l-257 -2l-344 363l330 2z" />
    <glyph glyph-name="Rinvertedbreve" unicode="&#x212;" horiz-adv-x="1777" 
d="M58 0zM1170 0l-246 782h-421l-135 -782h-310l355 2048l678 -1q191 -4 331.5 -78t210.5 -212t50 -334q-22 -207 -136 -355.5t-308 -222.5l269 -845h-338zM676 1776l-125 -717l352 -1q181 1 314 87t160 275q24 163 -52.5 257t-242.5 98zM1605 2255h-243q3 81 -30 136.5
t-122 57.5q-93 3 -149.5 -51t-69.5 -142l-242 -1q7 126 72.5 213.5t169 132.5t223.5 42q176 -3 284 -107t107 -281z" />
    <glyph glyph-name="rinvertedbreve" unicode="&#x213;" horiz-adv-x="1100" 
d="M38 0zM1161 1505l-126 -272q-55 30 -124 32q-110 2 -198.5 -55t-147 -148.5t-77.5 -192.5l-151 -869h-299l266 1536h301l-52 -244l10 1q52 116 155 193t236 75q55 -1 107 -16.5t100 -39.5zM1192 1771h-243q3 81 -30 136.5t-122 57.5q-93 3 -149.5 -51t-69.5 -142l-242 -1
q7 126 72.5 213.5t169 132.5t223.5 42q176 -3 284 -107t107 -281z" />
    <glyph glyph-name="Udblgrave" unicode="&#x214;" horiz-adv-x="2034" 
d="M153 0zM1673 2048h310l-233 -1353q-35 -225 -161.5 -390t-316.5 -254.5t-415 -86.5q-210 3 -373 94.5t-247 254.5t-55 380l232 1355h310l-233 -1351q-27 -194 82.5 -315t302.5 -125q136 -3 256 50t202 153t106 238zM1607 2216l-239 -2l-270 363l313 2zM1210 2216l-257 -2
l-344 363l330 2z" />
    <glyph glyph-name="udblgrave" unicode="&#x215;" horiz-adv-x="1632" 
d="M123 0zM1072 644l153 892h301l-267 -1536h-290l45 201l-10 -1q-87 -105 -204 -165t-255 -56q-159 4 -254 92t-131.5 221t-19.5 273l165 971h300l-164 -967q-16 -122 35 -217t187 -101q113 -4 199 51.5t139.5 146.5t70.5 195zM1315 1732l-239 -2l-270 363l313 2zM918 1732
l-257 -2l-344 363l330 2z" />
    <glyph glyph-name="Uinvertedbreve" unicode="&#x216;" horiz-adv-x="2034" 
d="M153 0zM1673 2048h310l-233 -1353q-35 -225 -161.5 -390t-316.5 -254.5t-415 -86.5q-210 3 -373 94.5t-247 254.5t-55 380l232 1355h310l-233 -1351q-27 -194 82.5 -315t302.5 -125q136 -3 256 50t202 153t106 238zM1725 2255h-243q3 81 -30 136.5t-122 57.5
q-93 3 -149.5 -51t-69.5 -142l-242 -1q7 126 72.5 213.5t169 132.5t223.5 42q176 -3 284 -107t107 -281z" />
    <glyph glyph-name="uinvertedbreve" unicode="&#x217;" horiz-adv-x="1632" 
d="M123 0zM1072 644l153 892h301l-267 -1536h-290l45 201l-10 -1q-87 -105 -204 -165t-255 -56q-159 4 -254 92t-131.5 221t-19.5 273l165 971h300l-164 -967q-16 -122 35 -217t187 -101q113 -4 199 51.5t139.5 146.5t70.5 195zM1433 1771h-243q3 81 -30 136.5t-122 57.5
q-93 3 -149.5 -51t-69.5 -142l-242 -1q7 126 72.5 213.5t169 132.5t223.5 42q176 -3 284 -107t107 -281z" />
    <glyph glyph-name="Scommaaccent" unicode="&#x218;" horiz-adv-x="1773" 
d="M70 0zM1390 1493q-10 150 -99.5 228t-238.5 81q-98 2 -196.5 -29.5t-170.5 -99t-89 -174.5q-15 -92 33 -150t125 -94t148 -60l145 -47q137 -45 253.5 -119t182.5 -185.5t51 -271.5q-15 -154 -88.5 -268.5t-187.5 -189.5t-251 -112t-279 -35q-189 2 -337.5 71.5t-234 204
t-86.5 330.5h307q2 -165 104.5 -246.5t260.5 -84.5q105 -2 211.5 32.5t184 108.5t96.5 189q16 100 -34 161.5t-131 98.5t-159 63l-168 54q-126 42 -232.5 114.5t-167.5 179.5t-48 252t85 254.5t183.5 183t243.5 109.5t264 34q177 -3 315 -73t217.5 -199.5t81.5 -310.5h-294z
M843 -148l-27 -157q-26 -152 -86.5 -297t-162.5 -263l-205 64q58 118 112.5 235.5t78.5 248.5l30 169h260z" />
    <glyph glyph-name="scommaaccent" unicode="&#x219;" horiz-adv-x="1458" 
d="M11 0zM194 1101q9 153 105.5 254.5t235.5 152t275 48.5q194 -3 328 -109t182 -293l-270 -59q-26 92 -82.5 146.5t-156.5 59.5q-63 2 -131 -17t-119.5 -63t-62.5 -114q-9 -58 21 -96t78.5 -61.5t94.5 -37.5l170 -48q148 -46 253.5 -155t94.5 -275q-11 -158 -107.5 -262
t-236.5 -154.5t-281 -49.5q-213 3 -365 112t-209 315l280 75q34 -107 105 -170t188 -68q66 -2 137.5 17.5t124.5 65.5t65 121q8 56 -21.5 93.5t-77 60.5t-92.5 37l-189 56q-143 45 -245 151.5t-92 266.5zM693 -124l-27 -157q-26 -152 -86.5 -297t-162.5 -263l-205 64
q58 118 112.5 235.5t78.5 248.5l30 169h260z" />
    <glyph glyph-name="uni021A" unicode="&#x21a;" horiz-adv-x="1801" 
d="M273 0zM1851 2048l-48 -272h-610l-308 -1776h-308l308 1776h-612l48 272h1530zM855 -119l-27 -157q-26 -152 -86.5 -297t-162.5 -263l-205 64q58 118 112.5 235.5t78.5 248.5l30 169h260z" />
    <glyph glyph-name="uni021B" unicode="&#x21b;" horiz-adv-x="1004" 
d="M74 0zM978 1536l-45 -252h-290l-141 -831q-10 -80 12 -137.5t112 -58.5q26 -1 51.5 2.5t50.5 8.5l29 -258q-46 -20 -100.5 -25.5t-103.5 -4.5q-115 2 -200 58t-128 149t-32 206l150 891h-207l44 252h206l57 328h300l-57 -328h292zM555 -124l-27 -157q-26 -152 -86.5 -297
t-162.5 -263l-205 64q58 118 112.5 235.5t78.5 248.5l30 169h260z" />
    <glyph glyph-name="uni021C" unicode="&#x21c;" horiz-adv-x="1780" 
d="M233 433l26 255q119 37 254 79.5t267.5 100t245.5 136.5t189.5 188t97.5 256q23 154 -68.5 229t-235.5 78q-90 2 -175.5 -30t-146 -96t-74.5 -159l-331 -1q9 140 77 245.5t175.5 176.5t235 106.5t254.5 33.5q173 -1 323 -61.5t235.5 -184.5t65.5 -318
q-16 -162 -99.5 -293t-205.5 -232q104 -92 139.5 -217t21.5 -260q-23 -214 -121 -375.5t-248.5 -278.5t-332.5 -197.5t-375 -132t-374 -82.5l30 275q168 35 346.5 90.5t336 145.5t266.5 226.5t139 333.5q11 73 12 160t-51 147q-209 -123 -436.5 -206.5t-462.5 -137.5z" />
    <glyph glyph-name="uni021D" unicode="&#x21d;" horiz-adv-x="1524" 
d="M204 259l25 242q109 32 236 74.5t244 106t199 157.5t101 227q14 97 -40.5 145t-146.5 51q-95 2 -184.5 -45.5t-106.5 -149.5l-319 -1q8 155 103.5 255.5t234.5 148.5t277 46q133 -1 254 -44.5t193.5 -137.5t59.5 -246q-11 -131 -77 -235.5t-163 -187.5q79 -81 108.5 -184
t18.5 -215q-22 -220 -135 -372.5t-282.5 -252t-365.5 -157t-383 -85.5l26 254q129 35 263 81t252 115t200 172.5t107 254.5q10 59 9 119t-20 117q-158 -95 -333 -155.5t-355 -97.5z" />
    <glyph glyph-name="uni021E" unicode="&#x21e;" horiz-adv-x="2031" 
d="M58 0zM723 2048l-154 -886h946l154 886h311l-355 -2048h-311l154 889h-946l-154 -889h-310l355 2048h310zM1089 2599l182 -221l261 220l254 5l1 -23l-431 -377h-178l-326 378v22z" />
    <glyph glyph-name="uni021F" unicode="&#x21f;" horiz-adv-x="1617" 
d="M38 0zM490 892l-153 -892h-299l355 2048h295l-133 -713l10 1q85 104 200.5 163t252.5 57q162 -3 253.5 -90.5t123.5 -220.5t15 -274l-166 -971h-300l166 973q15 119 -29 212.5t-179 99.5q-115 4 -201 -51t-140 -146t-71 -196zM947 2640l182 -221l261 220l254 5l1 -23
l-431 -377h-178l-326 378v22z" />
    <glyph glyph-name="uni0220" unicode="&#x220;" horiz-adv-x="1780" 
d="M1333 -572h-323l335 1953q24 169 -47.5 273.5t-249.5 107.5q-113 2 -218 -28t-205 -80l-292 -1654h-320l348 2004l317 2l-23 -86q95 57 203 84.5t218 26.5q188 -2 329.5 -85.5t213 -230t48.5 -337.5z" />
    <glyph glyph-name="uni0221" unicode="&#x221;" horiz-adv-x="2113" 
d="M1868 -204q-6 -126 -73.5 -211.5t-172.5 -128.5t-223 -40q-124 2 -236 60.5t-142 189.5l-241 -207l-136 209l375 310l49 234v0q-78 -114 -186.5 -179t-251.5 -63q-159 2 -263 74.5t-161 189t-73.5 254.5t-0.5 270q17 145 72 288.5t147 260t220.5 184.5t292.5 64
q124 -3 224 -62t148 -176l18 -1l134 732h300l-341 -1913q78 22 162 21q159 -2 263 -98.5t96 -261.5zM423 760q-11 -82 -7.5 -173t32 -171t90.5 -131.5t167 -54.5q150 -5 249.5 78.5t155 211t73.5 255.5q11 81 9 170.5t-28 168t-86.5 128.5t-164.5 54q-149 4 -251.5 -76
t-161.5 -205t-77 -255zM1290 -194q-9 -63 22 -111.5t100 -50.5q65 -1 115 42t59 107q9 62 -27.5 94t-94.5 33q-42 1 -81.5 -11t-77.5 -28z" />
    <glyph glyph-name="uni0222" unicode="&#x222;" horiz-adv-x="1780" 
d="M902 1264l47 -1q98 0 197.5 20.5t171.5 79.5t89 174q14 101 -29.5 153.5t-136.5 78.5l28 264q216 -18 353 -141t119 -355q-13 -158 -101 -263.5t-228 -169.5q195 -197 167 -482q-21 -217 -141.5 -362t-302 -217t-384.5 -71h-30q-190 3 -344.5 75.5t-239 212t-64.5 344.5
q17 171 105.5 299t236.5 212q-201 149 -181 406q13 173 101.5 284t225.5 166t296 63l-29 -264q-102 -27 -173 -82.5t-87 -167.5q-15 -106 34.5 -160.5t132 -74t167.5 -21.5zM920 983h-29q-182 2 -319.5 -94.5t-162.5 -286.5q-24 -171 68 -259t257 -93l28 -1q183 -1 320 91
t163 283q24 172 -67 263t-258 97z" />
    <glyph glyph-name="uni0223" unicode="&#x223;" horiz-adv-x="1780" 
d="M941 1243q115 -1 217.5 30.5t172.5 105t88 199.5q15 109 -20.5 188.5t-138.5 123.5l26 251q234 -19 354.5 -175t99.5 -386q-15 -168 -102.5 -287.5t-236.5 -192.5q102 -97 143.5 -218.5t27.5 -262.5q-21 -216 -140 -360.5t-299 -216t-383 -70.5h-30q-190 3 -343 75
t-235.5 211t-62.5 343q17 173 105.5 301t239.5 209q-106 87 -147.5 202.5t-29.5 250.5q24 262 197.5 415t430.5 163l-28 -250q-115 -46 -188 -125.5t-90 -206.5q-23 -171 74 -241.5t252 -74.5zM919 981h-29q-183 2 -323 -94.5t-166 -286.5q-24 -173 69 -265t260 -98h29
q184 -2 324.5 94.5t166.5 288.5q24 173 -70.5 264t-260.5 97z" />
    <glyph glyph-name="uni0224" unicode="&#x224;" horiz-adv-x="1770" 
d="M1735 1823l-1297 -1549l586 -4q195 -6 303 -129.5t86 -319.5l-21 -143h-267l14 87q7 53 3 105.5t-33 88.5t-94 41h-1004l39 225l1298 1549l-1037 2l48 272h1415z" />
    <glyph glyph-name="zhook" unicode="&#x225;" horiz-adv-x="1517" 
d="M1396 1310l-953 -1043l367 -4q195 -5 302.5 -130t85.5 -320l-23 -153h-260l14 87q8 56 4.5 112.5t-32.5 96t-100 44.5h-790l41 234l955 1035l-777 2l46 265h1159z" />
    <glyph glyph-name="uni0226" unicode="&#x226;" horiz-adv-x="1978" 
d="M0 0zM257 0h-341l1085 2048h325l376 -2048h-315l-82 496h-794zM1098 1644l-455 -878l618 -2l-139 879zM1080 2398q-2 76 45.5 126t123.5 51q74 1 124 -45t52 -120q1 -76 -48.5 -123t-124.5 -48q-72 -1 -121.5 42.5t-50.5 116.5z" />
    <glyph glyph-name="uni0227" unicode="&#x227;" horiz-adv-x="1566" 
d="M41 0zM910 0l32 186h-6q-75 -112 -191 -167t-250 -53t-237.5 60t-160 161t-46.5 240q8 130 68.5 216.5t155 139t205.5 80t221 39.5q34 3 90.5 4.5t116.5 9.5t105 30.5t55 68.5l2 12q15 118 -34.5 193t-174.5 78q-115 4 -214.5 -52t-150.5 -160l-279 75q51 137 153.5 225
t234.5 130t271 40q241 -3 379 -145t113 -390l-173 -1021h-285zM987 536l47 211q-37 -34 -95.5 -48t-120.5 -18.5t-109 -9.5q-78 -9 -156.5 -33.5t-135 -75.5t-69.5 -141q-15 -104 53 -153.5t162 -51.5q98 -3 187.5 36.5t153 112t83.5 171.5zM798 1914q-2 76 45.5 126
t123.5 51q74 1 124 -45t52 -120q1 -76 -48.5 -123t-124.5 -48q-72 -1 -121.5 42.5t-50.5 116.5z" />
    <glyph glyph-name="uni0228" unicode="&#x228;" horiz-adv-x="1664" 
d="M58 0zM1358 272l-48 -272h-1252l355 2048h1243l-48 -272h-932l-107 -614h821l-48 -273h-820l-107 -617h943zM613 21l235 1l-30 -83q84 -16 126.5 -78t41.5 -145q-3 -127 -79.5 -194.5t-186.5 -94t-212 -28.5l8 190q66 2 131 27t80 101q9 51 -20 73t-73 28t-80 9z" />
    <glyph glyph-name="uni0229" unicode="&#x229;" horiz-adv-x="1631" 
d="M84 0zM712 -31q-223 3 -365 110.5t-202.5 283.5t-37.5 383q18 159 80 305.5t164.5 261.5t241.5 180.5t310 63.5q214 -3 343.5 -111t180.5 -279.5t28 -364.5l-18 -129h-1179l37 233l878 -1q17 101 -9 189t-95 143t-179 58q-150 5 -252.5 -76.5t-161 -208t-74.5 -257.5
q-15 -123 4.5 -242t93 -198.5t221.5 -82.5q124 -3 222 56t152 170l272 -76q-42 -139 -145.5 -231t-238 -137t-271.5 -43zM564 5l235 1l-30 -83q84 -16 126.5 -78t41.5 -145q-3 -127 -79.5 -194.5t-186.5 -94t-212 -28.5l8 190q66 2 131 27t80 101q9 51 -20 73t-73 28t-80 9z
" />
    <glyph glyph-name="uni022A" unicode="&#x22a;" horiz-adv-x="2100" 
d="M151 0zM1930 1029q-28 -203 -110.5 -393t-215 -340.5t-312 -238.5t-400.5 -85q-217 3 -366 94t-234.5 242t-113 335.5t-1.5 373.5q27 203 109.5 393.5t216 341.5t313 239t401.5 85q217 -3 365.5 -94.5t233.5 -243t112 -336t2 -373.5zM1624 1030q17 123 10.5 253.5
t-50 243.5t-136 184t-246.5 74q-159 4 -284 -62t-214.5 -178t-145 -250t-75.5 -279q-18 -123 -11 -253.5t51.5 -243t137 -183t245.5 -73.5q160 -4 284.5 61.5t214 177.5t144 249.5t75.5 278.5zM1889 2867l-38 -216h-917l38 216h917zM878 2374q-2 72 45 117t118 46
q68 0 116.5 -41t51.5 -111q2 -72 -46 -116.5t-118 -45.5q-67 -1 -116 40t-51 111zM1482 2372q-2 73 46 117.5t119 45.5q67 0 115.5 -41t51.5 -111q2 -72 -45.5 -116.5t-117.5 -45.5q-68 -1 -117.5 40t-51.5 111z" />
    <glyph glyph-name="uni022B" unicode="&#x22b;" horiz-adv-x="1656" 
d="M93 0zM689 -31q-165 2 -282.5 69t-188.5 179t-98 252t-10 288q17 158 78.5 302.5t163 257.5t239.5 177.5t308 61.5q165 -2 282 -69t188.5 -178.5t98 -251.5t10.5 -288q-17 -158 -79 -302.5t-163.5 -257.5t-239.5 -178t-307 -62zM700 231q150 -5 251.5 76t159 206.5
t74.5 255.5q11 86 5.5 177t-37 169t-95.5 128t-171 52q-149 4 -250.5 -76.5t-159 -206.5t-74.5 -255q-11 -86 -5.5 -176.5t36.5 -169t95.5 -128.5t170.5 -52zM1568 2423l-38 -216h-918l38 216h918zM543 1886q-2 73 46 120.5t120 48.5q69 1 118.5 -42.5t51.5 -114.5
q2 -73 -46.5 -120t-120.5 -48q-69 -2 -118 42t-51 114zM1149 1885q-2 72 46 120t120 49q70 1 118.5 -43t50.5 -115q3 -72 -45.5 -120t-120.5 -49q-69 -1 -118 43t-51 115z" />
    <glyph glyph-name="uni022C" unicode="&#x22c;" horiz-adv-x="2100" 
d="M151 0zM1930 1029q-28 -203 -110.5 -393t-215 -340.5t-312 -238.5t-400.5 -85q-217 3 -366 94t-234.5 242t-113 335.5t-1.5 373.5q27 203 109.5 393.5t216 341.5t313 239t401.5 85q217 -3 365.5 -94.5t233.5 -243t112 -336t2 -373.5zM1624 1030q17 123 10.5 253.5
t-50 243.5t-136 184t-246.5 74q-159 4 -284 -62t-214.5 -178t-145 -250t-75.5 -279q-18 -123 -11 -253.5t51.5 -243t137 -183t245.5 -73.5q160 -4 284.5 61.5t214 177.5t144 249.5t75.5 278.5zM1890 2871l-38 -216h-917l38 216h917zM1606 2517l130 -36q-6 -98 -65 -177.5
t-168 -79.5q-56 0 -103.5 26.5t-94 52.5t-101.5 25q-51 -2 -80.5 -39t-41.5 -82l-136 36q8 97 68.5 178t168.5 80q55 -1 102.5 -27.5t94.5 -52t102 -24.5q51 2 81.5 38.5t42.5 81.5z" />
    <glyph glyph-name="uni022D" unicode="&#x22d;" horiz-adv-x="1656" 
d="M93 0zM689 -31q-165 2 -282.5 69t-188.5 179t-98 252t-10 288q17 158 78.5 302.5t163 257.5t239.5 177.5t308 61.5q165 -2 282 -69t188.5 -178.5t98 -251.5t10.5 -288q-17 -158 -79 -302.5t-163.5 -257.5t-239.5 -178t-307 -62zM700 231q150 -5 251.5 76t159 206.5
t74.5 255.5q11 86 5.5 177t-37 169t-95.5 128t-171 52q-149 4 -250.5 -76.5t-159 -206.5t-74.5 -255q-11 -86 -5.5 -176.5t36.5 -169t95.5 -128.5t170.5 -52zM1577 2477l-39 -216h-917l38 216h918zM1331 2109l192 -14q-5 -91 -43 -174t-108.5 -135t-172.5 -49
q-67 2 -122 34.5t-109.5 64.5t-119.5 32q-63 -1 -99.5 -45t-49.5 -101l-197 10q6 91 45 175t110 137.5t172 50.5q66 -2 121 -35t110 -65.5t120 -31.5q64 0 101 44.5t50 101.5z" />
    <glyph glyph-name="uni022E" unicode="&#x22e;" horiz-adv-x="2100" 
d="M151 0zM1930 1029q-28 -203 -110.5 -393t-215 -340.5t-312 -238.5t-400.5 -85q-217 3 -366 94t-234.5 242t-113 335.5t-1.5 373.5q27 203 109.5 393.5t216 341.5t313 239t401.5 85q217 -3 365.5 -94.5t233.5 -243t112 -336t2 -373.5zM1624 1030q17 123 10.5 253.5
t-50 243.5t-136 184t-246.5 74q-159 4 -284 -62t-214.5 -178t-145 -250t-75.5 -279q-18 -123 -11 -253.5t51.5 -243t137 -183t245.5 -73.5q160 -4 284.5 61.5t214 177.5t144 249.5t75.5 278.5zM1142 2398q-2 76 45.5 126t123.5 51q74 1 124 -45t52 -120q1 -76 -48.5 -123
t-124.5 -48q-72 -1 -121.5 42.5t-50.5 116.5z" />
    <glyph glyph-name="uni022F" unicode="&#x22f;" horiz-adv-x="1656" 
d="M93 0zM689 -31q-165 2 -282.5 69t-188.5 179t-98 252t-10 288q17 158 78.5 302.5t163 257.5t239.5 177.5t308 61.5q165 -2 282 -69t188.5 -178.5t98 -251.5t10.5 -288q-17 -158 -79 -302.5t-163.5 -257.5t-239.5 -178t-307 -62zM700 231q150 -5 251.5 76t159 206.5
t74.5 255.5q11 86 5.5 177t-37 169t-95.5 128t-171 52q-149 4 -250.5 -76.5t-159 -206.5t-74.5 -255q-11 -86 -5.5 -176.5t36.5 -169t95.5 -128.5t170.5 -52zM809 1914q-2 76 45.5 126t123.5 51q74 1 124 -45t52 -120q1 -76 -48.5 -123t-124.5 -48q-72 -1 -121.5 42.5
t-50.5 116.5z" />
    <glyph glyph-name="uni0230" unicode="&#x230;" horiz-adv-x="2100" 
d="M151 0zM1930 1029q-28 -203 -110.5 -393t-215 -340.5t-312 -238.5t-400.5 -85q-217 3 -366 94t-234.5 242t-113 335.5t-1.5 373.5q27 203 109.5 393.5t216 341.5t313 239t401.5 85q217 -3 365.5 -94.5t233.5 -243t112 -336t2 -373.5zM1624 1030q17 123 10.5 253.5
t-50 243.5t-136 184t-246.5 74q-159 4 -284 -62t-214.5 -178t-145 -250t-75.5 -279q-18 -123 -11 -253.5t51.5 -243t137 -183t245.5 -73.5q160 -4 284.5 61.5t214 177.5t144 249.5t75.5 278.5zM1889 2867l-38 -217h-917l38 217h917zM1180 2376q-2 72 45.5 117t117.5 46
q68 0 117 -41t51 -111q2 -72 -45.5 -116.5t-117.5 -45.5q-68 -1 -116.5 40t-51.5 111z" />
    <glyph glyph-name="uni0231" unicode="&#x231;" horiz-adv-x="1656" 
d="M93 0zM689 -31q-165 2 -282.5 69t-188.5 179t-98 252t-10 288q17 158 78.5 302.5t163 257.5t239.5 177.5t308 61.5q165 -2 282 -69t188.5 -178.5t98 -251.5t10.5 -288q-17 -158 -79 -302.5t-163.5 -257.5t-239.5 -178t-307 -62zM700 231q150 -5 251.5 76t159 206.5
t74.5 255.5q11 86 5.5 177t-37 169t-95.5 128t-171 52q-149 4 -250.5 -76.5t-159 -206.5t-74.5 -255q-11 -86 -5.5 -176.5t36.5 -169t95.5 -128.5t170.5 -52zM1571 2446l-38 -216h-917l38 216h917zM840 1900q-2 77 47 125.5t125 49.5q73 1 123 -44t52 -119
q2 -76 -47.5 -124.5t-125.5 -50.5q-72 -1 -122.5 44t-51.5 119z" />
    <glyph glyph-name="uni0232" unicode="&#x232;" horiz-adv-x="1956" 
d="M280 0zM606 2049l369 -929l22 -1l693 929h365l-955 -1240l-140 -808h-309l146 841l-517 1206zM1708 2494l-34 -214h-917l34 214h917z" />
    <glyph glyph-name="uni0233" unicode="&#x233;" horiz-adv-x="1589" 
d="M0 0zM415 -112l68 131l-279 1517h305l172 -1125l16 -1l569 1126h330l-940 -1776q-78 -157 -206 -259t-312 -100q-99 1 -196 36l97 252q141 -39 226.5 18t149.5 181zM1426 2010l-34 -214h-917l34 214h917z" />
    <glyph glyph-name="lcurl" unicode="&#x234;" horiz-adv-x="1034" 
d="M694 2048l-340 -1901q43 14 87.5 23t90.5 8q153 -2 249.5 -105t88.5 -256q-6 -120 -69 -209.5t-163 -138t-217 -45.5q-125 2 -233 68.5t-143 191.5l-241 -206l-146 202l298 253q18 14 37 27l38 26l363 2062h300zM314 -177q-10 -62 22 -111.5t101 -49.5q62 0 107 44.5
t54 104.5q9 57 -23 90t-87 35q-42 1 -81.5 -10t-77.5 -27z" />
    <glyph glyph-name="ncurl" unicode="&#x235;" horiz-adv-x="2012" 
d="M488 879l-151 -879h-299l266 1536h290l-50 -231h10q81 119 199.5 186.5t264.5 64.5q165 -3 259.5 -88.5t128.5 -218t17 -278.5l-122 -666q43 14 87.5 22.5t90.5 8.5q153 -2 249 -105.5t88 -257.5q-6 -119 -69.5 -208t-163 -137.5t-215.5 -46.5q-125 3 -233 69t-143 192
l-241 -207l-147 203l299 253q18 14 36.5 26.5t37.5 25.5l143 813q11 81 -7 154.5t-69.5 122t-142.5 52.5q-114 4 -200.5 -55t-141 -154t-71.5 -197zM1260 -19q-9 -62 23 -111.5t100 -49.5q63 0 108 44.5t54 104.5q9 57 -23 90.5t-87 35.5q-42 1 -82 -10.5t-78 -27.5z" />
    <glyph glyph-name="tcurl" unicode="&#x236;" horiz-adv-x="1227" 
d="M1020 1536l-44 -252h-290l-112 -593q43 14 87.5 22.5t89.5 7.5q153 -2 252 -104.5t91 -256.5q-6 -121 -70.5 -210.5t-166 -138t-217.5 -45.5q-126 3 -233.5 69.5t-142.5 192.5l-242 -206l-145 203l298 252q18 14 36.5 27t37.5 25l136 755h-222l44 252h222l57 328h301
l-57 -328h290zM533 367q-9 -63 22.5 -111t99.5 -49q62 -1 110 43.5t57 104.5q9 58 -25.5 91t-89.5 35q-42 1 -81.5 -10.5t-77.5 -27.5z" />
    <glyph glyph-name="dotlessj" unicode="&#x237;" horiz-adv-x="747" 
d="M362 1536h300l-279 -1627q-32 -227 -173 -359t-374 -131l-104 1l37 265l54 -1q111 0 175.5 60.5t83.5 166.5z" />
    <glyph glyph-name="uni0238" unicode="&#x238;" horiz-adv-x="2548" 
d="M117 721l4 28q18 137 68 273.5t134 249.5t203.5 180t277.5 64q104 -2 195.5 -42.5t156.5 -123.5l142 762h321l-145 -770q161 179 401 174q155 -2 252 -72t146 -182t60.5 -244t-3.5 -259l-4 -29q-19 -135 -68 -270.5t-130.5 -246.5t-199.5 -177.5t-274 -63.5
q-109 2 -204 43.5t-162 129.5l-34 -145h-291l23 156q-80 -92 -184 -139.5t-227 -45.5q-148 3 -244 74t-148 183t-66.5 241.5t0.5 251.5zM444 750l-4 -28q-9 -71 -9.5 -152.5t20.5 -155.5t72.5 -122t146.5 -51q109 -3 191 50t143 138l115 638q-60 175 -250 181
q-137 4 -224.5 -73t-135.5 -193.5t-65 -231.5zM2003 736l4 28q10 73 11 155.5t-19.5 156t-73 121t-149.5 50.5q-110 4 -193.5 -50t-144.5 -141l-111 -619q58 -191 257 -197q138 -5 224.5 71.5t132.5 193t62 231.5z" />
    </font>
</defs>
</svg>
