<?xml version="1.0" standalone="no"?>
<!DOCTYPE svg PUBLIC "-//W3C//DTD SVG 1.1//EN" "http://www.w3.org/Graphics/SVG/1.1/DTD/svg11.dtd" >
<svg xmlns="http://www.w3.org/2000/svg" xmlns:xlink="http://www.w3.org/1999/xlink" version="1.1">
<metadata>
Created by FontForge 20170731 at Fri Jan 19 11:35:54 2018
 By ,,,
Copyright 2018 The Inter UI project authors
</metadata>
<defs>
<font id="InterUI-Italic" horiz-adv-x="0" >
  <font-face 
    font-family="Inter UI"
    font-weight="400"
    font-style="italic"
    font-stretch="normal"
    units-per-em="2816"
    panose-1="2 11 5 2 3 0 0 0 0 4"
    ascent="2252"
    descent="-564"
    x-height="1536"
    bbox="-2036 -1068.02 4002 3011"
    underline-thickness="128"
    underline-position="-448"
    slope="-9.39999"
    unicode-range="U+0002-1F16B"
  />
<missing-glyph horiz-adv-x="2794" 
d="M240 2176v512h2304v-512h-2304zM240 1472v512h2304v-512h-2304zM240 768v512h2304v-512h-2304zM240 64v512h2304v-512h-2304zM240 -640v512h2304v-512h-2304z" />
    <glyph glyph-name="longst" unicode="&#x17f;t" horiz-adv-x="1760" 
d="M1757 1536l-39 -220h-317l-148 -877q-11 -90 15 -158.5t129 -69.5q26 -1 51.5 2t51.5 8l25 -215q-38 -15 -80 -20t-83 -4q-111 2 -193.5 54.5t-124.5 141.5t-32 198l158 940h-225l38 220h225l34 177h-11l28 161q-50 28 -113.5 39t-120.5 11q-129 2 -202 -81t-91 -202
l-281 -1641h-266l223 1284h-225l35 204h225l24 152q30 218 164 361.5t366 140.5q141 -2 279.5 -42t264.5 -100l-41 -287h-28l-33 -177h318z" />
    <glyph glyph-name=".notdef" horiz-adv-x="2794" 
d="M240 2176v512h2304v-512h-2304zM240 1472v512h2304v-512h-2304zM240 768v512h2304v-512h-2304zM240 64v512h2304v-512h-2304zM240 -640v512h2304v-512h-2304z" />
    <glyph glyph-name=".null" 
 />
    <glyph glyph-name="nonmarkingreturn" horiz-adv-x="938" 
 />
    <glyph glyph-name="controlSOT" 
 />
    <glyph glyph-name="controlHT" unicode="&#x9;" horiz-adv-x="778" 
 />
    <glyph glyph-name="CR" unicode="&#xd;" horiz-adv-x="778" 
 />
    <glyph glyph-name="space" unicode=" " horiz-adv-x="778" 
 />
    <glyph glyph-name="exclam" unicode="!" horiz-adv-x="768" 
d="M718 2048l-275 -1472h-226l235 1472h266zM252 -34q-78 0 -129.5 55.5t-51.5 131.5q1 80 56 141.5t138 62.5q76 0 127.5 -57t51.5 -132q0 -79 -55.5 -140t-136.5 -62z" />
    <glyph glyph-name="quotedbl" unicode="&#x22;" horiz-adv-x="1248" 
d="M622 2048l-110 -704h-215l110 704h215zM1119 2048l-111 -704h-215l111 704h215z" />
    <glyph glyph-name="numbersign" unicode="#" horiz-adv-x="1792" 
d="M230 0l172 568h-324l35 200h349l155 512h-292l37 208h317l170 560h211l-169 -560h332l169 560h211l-170 -560h296l-36 -208h-324l-155 -512h267l-36 -200h-292l-173 -568h-207l172 568h-332l-172 -568h-211zM673 768h332l155 512h-332z" />
    <glyph glyph-name="dollar" unicode="$" horiz-adv-x="1796" 
d="M598 -256l44 225q-241 23 -394 167.5t-159 392.5h249q3 -153 95 -234t235 -103l133 759l-67 22q-123 39 -225.5 108t-160.5 171.5t-47 243.5q15 179 117 302.5t253.5 192t315.5 82.5l43 231h200l-46 -238q214 -38 341.5 -183.5t131.5 -363.5h-232q-23 262 -271 324
l-128 -716l23 -7q134 -42 249 -112t180.5 -178t50.5 -264q-16 -182 -116 -309t-251 -198.5t-320 -88.5l-44 -226h-200zM537 1505q-13 -95 30.5 -157t116.5 -101t151 -65l122 673q-98 -13 -189 -55t-154.5 -115.5t-76.5 -179.5zM1295 568q13 98 -29.5 158.5t-115.5 98
t-152 65.5l-126 -695q98 19 190 65.5t155.5 123t77.5 184.5z" />
    <glyph glyph-name="percent" unicode="%" horiz-adv-x="2272" 
d="M350 1556l12 107q14 115 72.5 210.5t153 151t216.5 52.5q116 -3 194 -60.5t113.5 -150t25.5 -202.5l-13 -108q-15 -115 -72 -210t-150 -150t-215 -53q-174 5 -263 126.5t-74 286.5zM2107 2048l-1721 -2048h-243l1721 2048h243zM564 1664l-13 -111q-9 -83 18.5 -159
t128.5 -79q104 -3 158.5 73t67.5 168l14 109q6 55 -2.5 109.5t-41 91.5t-100.5 39q-104 3 -160.5 -72.5t-69.5 -168.5zM1137 384l12 107q14 116 72.5 211t153 150.5t216.5 52.5q116 -3 194 -60t113.5 -150t24.5 -203l-13 -108q-14 -115 -71.5 -210t-150.5 -150.5t-215 -52.5
q-174 5 -263 126t-73 287zM1351 492l-14 -111q-5 -55 4.5 -109.5t43 -91t100.5 -38.5q104 -2 158 74t67 168l14 109q6 55 -2 110t-41 92t-101 38q-104 3 -160.5 -73t-68.5 -168z" />
    <glyph glyph-name="ampersand" unicode="&#x26;" horiz-adv-x="1760" 
d="M560 1128l322 219q87 56 156.5 124.5t81.5 177.5q11 90 -49.5 152.5t-148.5 63.5q-79 2 -144 -39t-106.5 -108t-52.5 -141q-11 -77 20 -153t78.5 -146t86.5 -130l732 -1148h-260l-607 936q-60 93 -130 194t-116 210.5t-36 227.5q19 228 167.5 366t378.5 133
q119 -2 219 -54t157 -146t47 -220q-11 -156 -105 -268t-217 -196l-445 -303q-55 -39 -118 -91.5t-111 -116.5t-61 -136q-18 -105 26 -184t127 -124t180 -47q143 -4 265 58t215.5 166.5t152 233t75.5 257.5l220 1q-18 -204 -103 -353t-221 -293q-13 -14 -23.5 -30t-22.5 -31
q-66 -76 -161.5 -125t-202 -71.5t-203.5 -21.5q-165 2 -298 71t-205.5 195t-56.5 299q14 144 91 250t186.5 187.5t219.5 153.5z" />
    <glyph glyph-name="quotesingle" unicode="'" horiz-adv-x="608" 
d="M591 2048l-110 -704h-215l110 704h215z" />
    <glyph glyph-name="parenleft" unicode="(" horiz-adv-x="912" 
d="M610 -387l-220 3q-96 181 -139.5 386.5t-45 416.5t26.5 410q48 330 181 647.5t352 570.5l222 -1q-182 -290 -322.5 -581t-193.5 -635q-47 -305 -21 -620t160 -597z" />
    <glyph glyph-name="parenright" unicode=")" horiz-adv-x="912" 
d="M-103 -387l224 1q215 252 347.5 573.5t182.5 646.5q47 305 17 619.5t-170 593.5h-220q96 -307 140.5 -598.5t-2.5 -614.5q-47 -331 -179 -645t-340 -576z" />
    <glyph glyph-name="asterisk" unicode="*" horiz-adv-x="1408" 
d="M291 1042l308 356l-383 136l100 203l391 -141l79 452h219l-77 -443l430 138l30 -220l-433 -137l189 -364l-182 -120l-194 361l-317 -358z" />
    <glyph glyph-name="plus" unicode="+" horiz-adv-x="1792" 
d="M1523 1008l-39 -224h-512l-92 -528h-219l92 528h-513l40 224h512l91 528h219l-92 -528h513z" />
    <glyph glyph-name="comma" unicode="," horiz-adv-x="760" 
d="M425 256l-30 -187q-24 -139 -92 -262.5t-155 -233.5l-197 41q55 109 111 218.5t80 231.5l34 192h249z" />
    <glyph glyph-name="hyphen" unicode="-" horiz-adv-x="1280" 
d="M1084 988l-39 -220h-870l38 220h871z" />
    <glyph glyph-name="period" unicode="." horiz-adv-x="760" 
d="M247 -29q-71 -1 -120 51.5t-50 122.5q0 74 52.5 129t127.5 55q70 0 119.5 -50t50.5 -120q0 -75 -52 -131.5t-128 -56.5z" />
    <glyph glyph-name="slash" unicode="/" horiz-adv-x="1024" 
d="M1112 2048l-987 -2356h-233l986 2356h234z" />
    <glyph glyph-name="zero" unicode="0" horiz-adv-x="1664" 
d="M1524 1140l-33 -195q-27 -164 -82.5 -336.5t-150 -318t-236 -234t-340.5 -84.5q-156 3 -260 64.5t-165 164t-86.5 228.5t-25 259.5t18.5 255.5l32 196q27 167 84 334t153 304.5t238.5 219t339.5 78.5q192 -3 305.5 -91t165.5 -228t58 -302.5t-16 -314.5zM1242 900l48 285
q13 90 15.5 203.5t-22.5 219t-92.5 175.5t-192.5 74q-133 4 -229.5 -58.5t-162 -165.5t-104 -222t-56.5 -227l-48 -285q-14 -90 -16 -208.5t23.5 -231t94 -188t196.5 -79.5q133 -5 229 64.5t160 180.5t101.5 234.5t55.5 228.5z" />
    <glyph glyph-name="one" unicode="1" horiz-adv-x="1244" 
d="M1047 2048l-356 -2048h-230l299 1689h-11q-45 -65 -124 -97.5t-166.5 -44t-158.5 -12.5l22 208q175 4 288.5 93t220.5 211z" />
    <glyph glyph-name="two" unicode="2" horiz-adv-x="1664" 
d="M1370 220l-35 -220h-1337l30 190l804 730q82 76 181 164t176 190.5t94 222.5q15 103 -23 187.5t-115.5 135.5t-181.5 53q-134 3 -224 -64t-140 -174.5t-63 -226.5l-236 -1q15 185 103 338t235.5 243.5t340.5 88.5q163 -3 291.5 -77t197 -202.5t51.5 -295.5
q-15 -143 -94 -270t-186.5 -236.5t-208.5 -199.5l-633 -561l-6 -18z" />
    <glyph glyph-name="three" unicode="3" horiz-adv-x="1664" 
d="M666 924l37 228l101 -1q111 0 210 44t165 126.5t80 198.5q18 151 -62 254.5t-236 106.5q-157 4 -272.5 -92t-136.5 -253l-229 -1q13 172 106 293.5t236 185.5t307 62q166 -2 290.5 -72t188.5 -195.5t47 -294.5q-16 -161 -121.5 -282.5t-245.5 -188.5q148 -65 210.5 -196
t47.5 -286q-19 -185 -124 -318t-263.5 -203.5t-335.5 -67.5q-249 3 -397 145t-136 395h250q-9 -148 64 -236t226 -92q117 -2 217 43t166.5 131t79.5 206q20 171 -80 263t-263 96z" />
    <glyph glyph-name="four" unicode="4" horiz-adv-x="1664" 
d="M1476 604l-38 -220h-271l-67 -384h-215l67 384h-936l29 168l1149 1496h261l-251 -1444h272zM362 604h627l200 1145l-59 -124z" />
    <glyph glyph-name="five" unicode="5" horiz-adv-x="1664" 
d="M450 949l-235 54l280 1045h1050l-37 -236h-828l-188 -633h6q77 57 170.5 89t189.5 32q190 -1 320.5 -88.5t192.5 -235.5t43 -331q-21 -203 -126 -355.5t-271 -236.5t-368 -81q-249 3 -385.5 150t-145.5 391h231q15 -145 94.5 -235.5t231.5 -94.5q131 -3 241 59.5t181 168
t87 232.5q13 116 -20.5 213.5t-112.5 157t-203 61.5q-223 5 -398 -126z" />
    <glyph glyph-name="six" unicode="6" horiz-adv-x="1664" 
d="M1301 1535q-19 84 -50 155.5t-88.5 116t-154.5 48.5q-123 5 -213.5 -48t-153.5 -143.5t-104 -201t-65 -222.5t-35 -205l-38 -383q-11 -116 17 -221t103.5 -173t208.5 -71q130 -3 227 60t155 167t73 225q13 109 -10.5 205.5t-92.5 158.5t-193 65q-129 4 -233.5 -52.5
t-171 -155.5t-83.5 -224h-171q18 183 105 332t232 236.5t338 83.5q178 -4 298 -97t175 -239.5t38 -313.5q-20 -187 -117.5 -339.5t-252 -241.5t-347.5 -86q-162 3 -266 68t-161 172.5t-79 239t-19 268.5t19 259l10 69q18 135 55.5 280t99.5 280.5t153 243.5t216.5 170
t290.5 59q163 -3 268.5 -77.5t163.5 -197t79 -271.5z" />
    <glyph glyph-name="seven" unicode="7" horiz-adv-x="1536" 
d="M1558 2048l-42 -268l-1064 -1780h-277l1107 1816h-1004l37 232h1243z" />
    <glyph glyph-name="eight" unicode="8" horiz-adv-x="1664" 
d="M1392 588q-19 -183 -120.5 -323t-257.5 -218t-337 -75q-171 3 -299.5 81t-194 213t-48.5 306q19 182 120.5 314.5t264.5 208.5q-105 80 -144 196.5t-27 244.5q16 174 110 295.5t238.5 184.5t310.5 60q157 -2 276 -65.5t181.5 -180t47.5 -278.5q-16 -163 -101.5 -280.5
t-231.5 -187.5q124 -86 175.5 -217t36.5 -279zM1284 1543q18 138 -70 228t-223 93q-98 3 -188.5 -38.5t-152.5 -117.5t-75 -177q-12 -91 23 -167.5t104.5 -123t161.5 -49.5q100 -2 191.5 44.5t153.5 127t75 180.5zM1154 588q14 101 -21.5 192.5t-111 150.5t-182.5 62
q-115 3 -216 -55.5t-168.5 -155t-83.5 -207.5q-14 -103 22.5 -192t113.5 -145t183 -59q116 -3 215.5 53t166 150t82.5 206z" />
    <glyph glyph-name="nine" unicode="9" horiz-adv-x="1664" 
d="M374 513q20 -84 51 -155t88.5 -115.5t155.5 -48.5q122 -6 212.5 47t153.5 143.5t104 201t65 222.5t35 205l38 383q11 116 -17 221t-104 173t-208 71q-131 3 -227.5 -59.5t-154.5 -166.5t-73 -225q-13 -109 10.5 -206t92.5 -159t192 -65q130 -4 234.5 52.5t171 155.5
t83.5 224h170q-18 -183 -104.5 -332.5t-231.5 -236.5t-338 -83q-178 4 -298.5 96.5t-175.5 239t-37 313.5q20 188 117 340t252 241t347 87q163 -2 267 -67.5t161 -173t78.5 -239.5t18.5 -269.5t-19 -259.5l-9 -68q-23 -169 -76.5 -350.5t-148 -337.5t-239.5 -251.5
t-351 -92.5q-164 3 -269.5 77t-163.5 197t-78 272z" />
    <glyph glyph-name="colon" unicode=":" horiz-adv-x="760" 
d="M445 1111q-72 -1 -121 51.5t-49 122.5q0 74 52.5 129t126.5 55q71 0 120.5 -50t49.5 -120q1 -75 -51 -131.5t-128 -56.5zM247 -29q-71 -1 -120 51.5t-50 122.5q0 74 52.5 129t127.5 55q70 0 119.5 -50t50.5 -120q0 -75 -52 -131.5t-128 -56.5z" />
    <glyph glyph-name="semicolon" unicode=";" horiz-adv-x="760" 
d="M444 1111q-72 0 -121 52t-49 122q0 74 52.5 129t126.5 55q70 0 120 -50t50 -120q1 -75 -51 -131.5t-128 -56.5zM425 256l-30 -187q-24 -139 -92.5 -262.5t-154.5 -233.5l-197 41q55 109 111 218.5t80 231.5l34 192h249z" />
    <glyph glyph-name="less" unicode="&#x3c;" horiz-adv-x="1280" 
d="M960 318l-166 -142l-661 730l889 710l134 -162l-707 -552l-6 -14z" />
    <glyph glyph-name="equal" unicode="=" horiz-adv-x="1792" 
d="M389 1280h1119l-39 -220h-1119zM294 732h1119l-38 -220h-1120z" />
    <glyph glyph-name="greater" unicode="&#x3e;" horiz-adv-x="1280" 
d="M106 318l117 -141l913 729l-643 709l-189 -161l517 -551v-13z" />
    <glyph glyph-name="question" unicode="?" horiz-adv-x="1504" 
d="M808 576l-229 -1q15 145 79 249.5t152 187t176 160.5t153.5 169.5t81.5 214.5q16 128 -47 218t-197 95q-153 6 -251.5 -90.5t-119.5 -241.5l-244 -1q15 164 103 287t225 189.5t300 63.5q155 -3 264 -72.5t161.5 -188.5t38.5 -272q-13 -133 -76.5 -229.5t-151 -175
t-176.5 -157t-156 -175t-86 -230.5zM607 -33q-77 -1 -128.5 54.5t-51.5 130.5q0 80 55 142.5t138 62.5q77 0 128.5 -57.5t51.5 -132.5q0 -79 -56 -139.5t-137 -60.5z" />
    <glyph glyph-name="at" unicode="@" horiz-adv-x="2620" 
d="M1502 1972q231 -2 416 -85.5t310 -231t177.5 -343.5t18.5 -424q-15 -100 -37 -216t-60 -229t-99.5 -205.5t-153.5 -147t-224 -51.5q-71 2 -148.5 25.5t-132 74.5t-56.5 134h-10q-142 -236 -416 -221q-134 7 -221 70.5t-134 162.5t-60 215t1 229q19 161 99 303.5
t209.5 236.5t298.5 108q56 4 133.5 -4t141.5 -41t82 -102h13l25 114h208l-154 -905q-9 -75 20.5 -140t115.5 -70q90 -6 150 41.5t97 127t57.5 171.5t31.5 178.5t19 145.5q36 252 -41 452t-253.5 318t-439.5 121q-238 2 -436.5 -79t-349.5 -228t-248 -343t-133 -423
q-47 -302 26 -541.5t270.5 -378t520.5 -139.5q137 0 269.5 32t261.5 73l39 -187q-133 -57 -285.5 -83.5t-296.5 -26.5q-383 1 -628 163.5t-344.5 446.5t-46.5 650q40 273 157 503t299.5 398.5t420.5 260.5t520 90zM1309 1182q-122 2 -213 -62.5t-146.5 -166.5t-71.5 -212
q-10 -75 -8 -158t26.5 -156t80 -120.5t151.5 -50.5q150 -6 244.5 64.5t144 187t65.5 247.5q13 115 -1.5 211t-77 155t-194.5 61z" />
    <glyph glyph-name="A" unicode="A" horiz-adv-x="1888" 
d="M177 0h-264l1085 2048h250l374 -2048h-243l-93 548h-826zM1067 1725l-494 -957h676l-158 957h-24z" />
    <glyph glyph-name="B" unicode="B" horiz-adv-x="1816" 
d="M823 0h-734l355 2048l681 -1q162 -4 287.5 -66.5t191.5 -180.5t51 -289q-16 -178 -119 -288t-275 -146l-9 -27q120 -7 192.5 -89.5t102 -196t20.5 -213.5q-18 -196 -128 -318t-274 -178t-342 -55zM649 1828l-119 -680l433 -1q110 1 209.5 44.5t167 125t83.5 196.5
q22 156 -70 233.5t-237 80.5zM1337 552q15 110 -27 194.5t-124.5 133t-190.5 51.5l-502 1l-123 -712l463 -1q111 0 220.5 31t187.5 104t96 198z" />
    <glyph glyph-name="C" unicode="C" horiz-adv-x="2032" 
d="M1936 1406l-239 1q-22 197 -149.5 315t-327.5 122q-171 4 -308.5 -66.5t-239 -190t-164 -268t-85.5 -302.5q-20 -137 -8 -278.5t66 -262t159.5 -195t271.5 -78.5q143 -2 270.5 50.5t223.5 151.5t144 234l243 1q-51 -202 -184.5 -353t-318 -234.5t-390.5 -80.5
q-217 3 -365.5 94.5t-233.5 242.5t-111.5 335.5t-0.5 373.5q28 202 111.5 392.5t217.5 342t314 239t401 84.5q202 -2 352 -88t239.5 -236t111.5 -346z" />
    <glyph glyph-name="D" unicode="D" horiz-adv-x="2008" 
d="M718 0h-629l355 2048h627q223 -3 379.5 -84.5t250 -222t124.5 -322.5t3 -387q-42 -298 -187 -531.5t-379 -367.5t-544 -133zM1046 1828h-397l-279 -1608l342 -1q247 0 432.5 104.5t300 288.5t149.5 421q32 209 -10 388.5t-172.5 291t-365.5 115.5z" />
    <glyph glyph-name="E" unicode="E" horiz-adv-x="1668" 
d="M1344 220l-39 -220h-1216l355 2048h1201l-39 -220h-957l-121 -692h858l-38 -220h-857l-121 -696h974z" />
    <glyph glyph-name="F" unicode="F" horiz-adv-x="1636" 
d="M1351 1136l-38 -220h-822l-160 -916h-242l355 2048h1193l-38 -220h-950l-121 -692h823z" />
    <glyph glyph-name="G" unicode="G" horiz-adv-x="2076" 
d="M1885 1016l-37 -219q-38 -237 -167.5 -424.5t-328 -295.5t-444.5 -105q-218 2 -368 93t-236 242t-113.5 336t-1.5 375q28 201 111 391t216 341.5t312 240t399 86.5q204 -3 349 -92.5t235.5 -240t129.5 -338.5l-241 1q-43 186 -164.5 309.5t-321.5 127.5q-171 4 -307 -67
t-236.5 -191.5t-162.5 -268.5t-84 -300q-21 -139 -8 -281.5t68.5 -262t162 -193.5t274.5 -77q182 -3 324.5 76t238 215t136.5 303l-493 -1l39 220h719z" />
    <glyph glyph-name="H" unicode="H" horiz-adv-x="2068" 
d="M687 2048l-159 -912h1058l158 912h243l-356 -2048h-242l159 916h-1057l-160 -916h-242l355 2048h243z" />
    <glyph glyph-name="I" unicode="I" horiz-adv-x="728" 
d="M687 2048l-356 -2048h-242l355 2048h243z" />
    <glyph glyph-name="J" unicode="J" horiz-adv-x="1408" 
d="M877 583l250 1465h243l-252 -1464q-28 -180 -115.5 -320t-229.5 -218.5t-332 -74.5q-158 3 -273 73.5t-175 191.5t-51 277l234 -1q-9 -142 71 -228.5t223 -91.5q178 -7 280 110t127 281z" />
    <glyph glyph-name="K" unicode="K" horiz-adv-x="1820" 
d="M1278 0l-524 951l-309 -296l-114 -655h-242l355 2048h243l-183 -1018h19l1068 1018h335l-1005 -935l632 -1113h-275z" />
    <glyph glyph-name="L" unicode="L" horiz-adv-x="1568" 
d="M1294 220l-39 -220h-1166l355 2048h243l-317 -1828h924z" />
    <glyph glyph-name="M" unicode="M" horiz-adv-x="2448" 
d="M444 2048h264l386 -1673h22l964 1673h275l-355 -2048h-227l272 1538h-16l-867 -1522h-219l-336 1521h-20l-271 -1537h-227z" />
    <glyph glyph-name="N" unicode="N" horiz-adv-x="2064" 
d="M1983 2048l-356 -2048h-226l-765 1604l-21 1l-284 -1605h-242l355 2048h227l767 -1612l22 -1l284 1613h239z" />
    <glyph glyph-name="O" unicode="O" horiz-adv-x="2128" 
d="M1943 1030q-28 -203 -111.5 -393t-217.5 -341t-314 -239t-401 -85q-217 3 -365 94.5t-233 243t-111.5 336t-0.5 372.5q28 203 111.5 393t217.5 341t314 239t401 85q217 -3 365 -94.5t233 -243t111.5 -336t0.5 -372.5zM1708 1031q20 137 8.5 278.5t-65.5 261.5t-159 195
t-272 78q-171 3 -308.5 -67t-238.5 -189.5t-164 -268t-85 -302.5q-21 -137 -9 -278.5t66 -261.5t159 -195t271 -78q172 -3 309.5 67t238.5 189.5t164 268t85 302.5z" />
    <glyph glyph-name="P" unicode="P" horiz-adv-x="1768" 
d="M900 739l-489 1l39 220l460 -1q215 0 351 118.5t164 330.5q26 192 -57.5 303.5t-282.5 115.5l-436 1l-318 -1828h-242l355 2048l650 -1q290 -5 447 -177.5t123 -462.5q-24 -207 -127 -356.5t-267 -230.5t-370 -81z" />
    <glyph glyph-name="Q" unicode="Q" horiz-adv-x="2128" 
d="M1947 1029q-36 -252 -156.5 -488t-336.5 -381l190 -352h-248l-128 239q-88 -37 -180.5 -56.5t-187.5 -18.5q-217 2 -365 94t-233 243.5t-112 336t0 372.5q28 203 111 393t217 341t314 239t401 85q216 -3 364.5 -94.5t234.5 -243t113.5 -336.5t1.5 -373zM931 640l245 1
l171 -289q158 122 247 303t118 375q20 137 7.5 279t-67 262t-160 195t-271.5 78q-171 3 -308.5 -67t-239 -189.5t-164 -268t-85.5 -302.5q-20 -136 -8 -277.5t66 -262.5t158.5 -195.5t271.5 -76.5q60 -1 119 10t116 29z" />
    <glyph glyph-name="R" unicode="R" horiz-adv-x="1768" 
d="M1217 0l-256 796h-491l-139 -796h-242l355 2048l650 -1q188 -3 324.5 -78.5t203 -213.5t45.5 -328q-24 -211 -141.5 -358.5t-315.5 -220.5l275 -848h-268zM649 1828l-140 -804l381 -1q206 -1 357 94t182 311q27 187 -63.5 290.5t-280.5 108.5z" />
    <glyph glyph-name="S" unicode="S" horiz-adv-x="1772" 
d="M1437 1519q-13 165 -117.5 249.5t-266.5 88.5q-111 2 -220.5 -36t-188 -117t-96.5 -200q-14 -98 31 -161.5t121.5 -102.5t157.5 -63l191 -58q135 -41 249 -110.5t178 -177.5t48 -264q-16 -152 -90 -266t-188 -189.5t-250 -112.5t-276 -35q-178 2 -321 65.5t-228 188.5
t-88 311h248q2 -175 120.5 -256.5t280.5 -84.5q120 -2 241.5 38.5t209 125.5t106.5 216q15 103 -32 166t-126.5 100.5t-162.5 64.5l-231 74q-122 40 -223.5 109t-158 171t-43.5 243q13 142 83.5 250.5t179 183t238 111.5t260.5 35q168 -3 302.5 -69.5t213 -190.5t80.5 -297
h-232z" />
    <glyph glyph-name="T" unicode="T" horiz-adv-x="1792" 
d="M1828 2048l-39 -220h-624l-318 -1828h-242l317 1828h-625l39 220h1492z" />
    <glyph glyph-name="U" unicode="U" horiz-adv-x="2072" 
d="M1747 2048h242l-233 -1355q-34 -220 -161 -385.5t-316 -257.5t-410 -89q-208 3 -366.5 97.5t-239 258.5t-52.5 375l232 1356h243l-234 -1357q-20 -145 30 -255.5t154.5 -173.5t248.5 -66q152 -3 286 57.5t225 173t117 265.5z" />
    <glyph glyph-name="V" unicode="V" horiz-adv-x="1888" 
d="M496 2049l323 -1726h24l860 1725h263l-1050 -2048h-249l-410 2048z" />
    <glyph glyph-name="W" unicode="W" horiz-adv-x="2656" 
d="M477 2049l157 -1670h20l685 1669h273l159 -1669h18l679 1669h253l-864 -2048h-250l-180 1633h-14l-697 -1633h-249l-223 2048z" />
    <glyph glyph-name="X" unicode="X" horiz-adv-x="1792" 
d="M529 2049l380 -853l17 -1l645 852l299 1l-794 -1035l461 -1013h-271l-379 836h-15l-645 -836h-298l809 1036l-475 1012z" />
    <glyph glyph-name="Y" unicode="Y" horiz-adv-x="1864" 
d="M543 2049l386 -957l23 -1l719 957h292l-937 -1216l-144 -832h-242l149 857l-504 1191z" />
    <glyph glyph-name="Z" unicode="Z" horiz-adv-x="1744" 
d="M1433 220l-39 -220h-1371l34 192l1347 1636h-1076l39 220h1371l-33 -192l-1347 -1636h1075z" />
    <glyph glyph-name="bracketleft" unicode="[" horiz-adv-x="912" 
d="M966 2240l-35 -220h-271l-351 -2248h272l-35 -220h-498l420 2688h498z" />
    <glyph glyph-name="backslash" unicode="\" horiz-adv-x="992" 
d="M292 2048h219l170 -2356h-220z" />
    <glyph glyph-name="bracketright" unicode="]" horiz-adv-x="912" 
d="M360 2240h499l-420 -2688h-499l35 220h271l351 2248h-272z" />
    <glyph glyph-name="asciicircum" unicode="^" horiz-adv-x="1248" 
d="M886 1004l-132 641l-352 -641h-261l574 1000h183l223 -1000h-235z" />
    <glyph glyph-name="underscore" unicode="_" horiz-adv-x="1280" 
d="M1100 0l-39 -220h-1243l39 220h1243z" />
    <glyph glyph-name="grave" unicode="`" horiz-adv-x="736" 
d="M562 2112l197 -408h-215l-289 408h307z" />
    <glyph glyph-name="a" unicode="a" horiz-adv-x="1572" 
d="M956 0l37 210l-8 -1q-79 -123 -205 -185.5t-272 -60.5q-135 2 -239.5 60.5t-160 162t-45.5 242.5q9 129 69 213t152.5 134t202 75.5t218.5 38.5q38 5 102 6t131.5 9t119 32t65.5 73v5q3 93 -12 168t-67.5 119.5t-160.5 46.5q-131 3 -247.5 -56.5t-181.5 -174.5l-214 80
q90 187 265.5 274.5t376.5 84.5q245 -4 370 -151t99 -393l-171 -1012h-224zM1047 556l46 217q-45 -42 -119 -57.5t-152 -19.5t-136 -11q-83 -9 -169.5 -35t-149 -81.5t-75.5 -152.5q-16 -125 68 -182t194 -59q117 -2 221 44.5t177 133t95 203.5z" />
    <glyph glyph-name="b" unicode="b" horiz-adv-x="1700" 
d="M413 2048h231l-138 -758h16q91 122 198.5 195.5t269.5 71.5q161 -2 269 -72.5t168 -185.5t78.5 -253.5t1.5 -275.5q-19 -148 -76.5 -292t-152.5 -260.5t-226.5 -184.5t-297.5 -64q-286 7 -397 268h-30l-46 -237h-223zM1277 775q13 93 7 191.5t-40.5 183t-105 138
t-186.5 57.5q-163 4 -274.5 -83t-175.5 -223t-83 -278q-13 -92 -8.5 -192t36.5 -187.5t101 -143.5t186 -59q122 -4 216.5 48t162 140t108 194.5t56.5 213.5z" />
    <glyph glyph-name="c" unicode="c" horiz-adv-x="1556" 
d="M1435 1075h-226q-23 122 -106 193.5t-208 75.5q-160 4 -275 -82.5t-182 -222t-85 -277.5q-12 -96 -3 -196.5t46.5 -187t111 -141.5t189.5 -58q137 -3 243.5 69.5t156.5 198.5l232 1q-31 -151 -126.5 -259.5t-230 -166t-284.5 -55.5q-165 3 -281 71.5t-184.5 182t-93 254
t-8.5 287.5q18 153 79.5 296.5t162 257t236.5 178.5t303 62q218 -4 364.5 -133.5t168.5 -347.5z" />
    <glyph glyph-name="d" unicode="d" horiz-adv-x="1700" 
d="M1304 0h-223l48 238h-19q-92 -123 -203.5 -198.5t-273.5 -73.5q-161 2 -268 74t-166.5 188.5t-77.5 255t-1 273.5q19 149 77 292.5t154 259.5t228 183t298 63q283 -8 398 -264h18l136 757h231zM351 761q-13 -93 -7.5 -193t39.5 -187t104.5 -143t186.5 -59
q123 -4 216.5 48t159.5 140t106 195t54 213q13 92 8 190.5t-38 183.5t-102 138.5t-185 56.5q-162 5 -275.5 -82t-180 -223t-86.5 -278z" />
    <glyph glyph-name="e" unicode="e" horiz-adv-x="1628" 
d="M707 -32q-222 3 -360 114t-194 288.5t-33 379.5q18 155 79 300t161 260.5t237 182t305 64.5q162 -2 272 -68.5t173 -176.5t84 -246t4 -278l-13 -100h-1150l32 204h911q17 113 -13 215.5t-107.5 167.5t-202.5 69q-162 5 -276 -82t-180 -222.5t-84 -278.5
q-16 -138 7.5 -270.5t108 -220t248.5 -91.5q134 -3 241.5 58t168.5 181l218 -63q-47 -131 -147 -218t-228.5 -129t-261.5 -40z" />
    <glyph glyph-name="f" unicode="f" horiz-adv-x="992" 
d="M159 0l228 1316h-241l39 220h241l20 144q25 184 158 292t317 106q122 -2 226 -44l-88 -201q-65 26 -127 27q-115 2 -180.5 -62t-83.5 -174l-13 -88h335l-39 -220h-333l-228 -1316h-231z" />
    <glyph glyph-name="g" unicode="g" horiz-adv-x="1700" 
d="M1348 1536h223l-266 -1547q-27 -188 -133 -315t-263 -190t-340 -60q-179 3 -328.5 76.5t-238.5 233.5l195 131q70 -106 159.5 -165.5t222.5 -63.5q120 -3 226.5 39.5t179.5 127.5t93 209l52 274l-15 -1q-91 -122 -201.5 -193t-270.5 -70q-155 2 -262 67t-169.5 172.5
t-84 239.5t-5.5 268q18 148 76.5 290t155 255.5t228 179t295.5 61.5q283 -7 398 -264h25zM354 773q-18 -126 3.5 -248.5t99 -204t227.5 -85.5q159 -4 270 75t175 207t83 270q13 92 6.5 188.5t-40 179t-102.5 134.5t-183 56q-160 4 -273 -80.5t-179.5 -217.5t-86.5 -274z" />
    <glyph glyph-name="h" unicode="h" horiz-adv-x="1620" 
d="M448 928l-159 -928h-231l355 2048h231l-134 -729h11q88 112 210 175.5t266 61.5q161 -3 254 -89t126.5 -218t16.5 -273l-166 -976h-231l167 977q18 140 -41 243.5t-213 108.5q-121 4 -218.5 -48t-161 -144t-82.5 -209z" />
    <glyph glyph-name="i" unicode="i" horiz-adv-x="652" 
d="M502 1755q-68 -1 -114.5 43t-46.5 112q-1 69 47.5 117.5t117.5 49.5q65 1 112.5 -44t48.5 -110q1 -71 -47 -119.5t-118 -48.5zM555 1536l-266 -1536h-231l267 1536h230z" />
    <glyph glyph-name="j" unicode="j" horiz-adv-x="652" 
d="M500 1755q-67 0 -113 43.5t-47 111.5q0 69 48 117.5t117 48.5q65 1 112 -43.5t48 -110.5q1 -70 -47 -118t-118 -49zM324 1536h230l-282 -1647q-30 -212 -153.5 -341t-345.5 -130h-53l24 221l40 -1q116 0 177.5 71t79.5 179z" />
    <glyph glyph-name="k" unicode="k" horiz-adv-x="1484" 
d="M1006 0l-406 730l-220 -203l-91 -527h-231l355 2048h231l-216 -1206h24l725 694h303l-711 -666l489 -870h-252z" />
    <glyph glyph-name="l" unicode="l" horiz-adv-x="652" 
d="M644 2048l-355 -2048h-231l355 2048h231z" />
    <glyph glyph-name="m" unicode="m" horiz-adv-x="2388" 
d="M1300 964l-165 -964h-235l171 1005q10 82 -3 155t-60.5 119.5t-142.5 49.5q-114 4 -202 -57t-144 -157.5t-73 -198.5l-157 -916h-231l267 1536h231l-53 -261h12q60 119 174.5 201.5t252.5 79.5q125 -2 218.5 -80t126.5 -196h14q69 126 197.5 202.5t273.5 73.5
q152 -2 238.5 -85t117 -209t15.5 -258l-170 -1004h-231l172 1013q15 120 -39 215.5t-187 100.5q-108 4 -189.5 -46t-132 -134.5t-66.5 -184.5z" />
    <glyph glyph-name="n" unicode="n" horiz-adv-x="1620" 
d="M444 908l-155 -908h-231l267 1536h231l-53 -261h11q80 132 203 208t280 73q163 -3 256 -88t125.5 -217t15.5 -275l-166 -976h-231l164 961q12 91 -9.5 173.5t-80.5 136t-161 57.5q-121 5 -219.5 -53.5t-163 -156t-83.5 -210.5z" />
    <glyph glyph-name="o" unicode="o" horiz-adv-x="1664" 
d="M688 -32q-163 2 -278.5 69.5t-184.5 180t-94.5 251.5t-8.5 285q18 156 79 301t161.5 259t237.5 179.5t307 62.5q164 -2 279 -70t184 -181.5t94 -253t9 -285.5q-18 -156 -79.5 -300t-162.5 -257.5t-237.5 -178.5t-305.5 -62zM699 180q163 -4 277 83t180.5 223t85.5 280
q13 96 3.5 196.5t-47.5 186t-111.5 139t-190.5 56.5q-163 4 -277.5 -84t-180.5 -225.5t-85 -280.5q-13 -96 -4 -196t47.5 -184.5t112 -137.5t190.5 -56z" />
    <glyph glyph-name="p" unicode="p" horiz-adv-x="1700" 
d="M-42 -576l367 2112h223l-50 -246l24 1q91 121 198.5 194.5t269.5 71.5q161 -2 269 -72.5t168 -185.5t78.5 -253.5t1.5 -275.5q-19 -148 -76.5 -292t-152.5 -260.5t-226.5 -184.5t-297.5 -64q-286 7 -397 268h-22l-146 -813h-231zM1277 775q13 93 7 191.5t-40.5 183
t-105 138t-186.5 57.5q-163 4 -274.5 -83t-175 -223t-83.5 -278q-13 -92 -8.5 -192t36.5 -187.5t101 -143.5t186 -59q122 -3 216.5 48.5t162 139.5t108 194.5t56.5 213.5z" />
    <glyph glyph-name="q" unicode="q" horiz-adv-x="1700" 
d="M1571 1536l-366 -2112h-231l147 814h-11q-91 -123 -203 -198t-274 -73q-161 2 -268 73.5t-166.5 188t-77.5 255t-1 273.5q19 149 77 292.5t154 259.5t228 183t298 63q283 -7 398 -264h25l48 245h223zM351 761q-13 -93 -7.5 -193t39.5 -187t104.5 -142.5t186.5 -59.5
q123 -3 216.5 48.5t159.5 139.5t106 195t54 213q13 92 8 190.5t-38 183.5t-102 138.5t-185 56.5q-162 5 -275.5 -82t-180 -223t-86.5 -278z" />
    <glyph glyph-name="r" unicode="r" horiz-adv-x="1072" 
d="M1140 1502l-102 -217q-57 32 -124 33q-123 2 -222.5 -63.5t-165.5 -169.5t-87 -217l-150 -868h-231l267 1536h231l-54 -265h12q57 122 170 208t253 83q54 -1 105 -17.5t98 -42.5z" />
    <glyph glyph-name="s" unicode="s" horiz-adv-x="1444" 
d="M207 1105q11 149 104 250t227.5 152t269.5 49q181 -3 304.5 -99.5t175.5 -267.5l-208 -58q-34 104 -100.5 160.5t-181.5 59.5q-73 2 -152 -22.5t-137.5 -77t-69.5 -134.5q-14 -96 54 -150.5t148 -77.5l211 -58q143 -41 244 -140.5t89 -259.5q-11 -156 -107 -259.5
t-235 -154.5t-279 -49q-203 2 -344 101.5t-209 288.5l218 80q39 -123 123.5 -191t216.5 -71q79 -1 162 24t143.5 80t72.5 143q12 86 -38 134t-125 70l-238 66q-144 42 -247 145.5t-92 266.5z" />
    <glyph glyph-name="t" unicode="t" horiz-adv-x="984" 
d="M950 1536l-39 -220h-317l-148 -877q-11 -90 15 -158.5t129 -69.5q26 -1 51.5 2t51.5 8l25 -215q-39 -15 -81.5 -20t-83.5 -4q-166 3 -264.5 116.5t-83.5 277.5l158 940h-225l38 220h225l57 328h231l-58 -328h319z" />
    <glyph glyph-name="u" unicode="u" horiz-adv-x="1620" 
d="M1105 608l159 928h230l-266 -1536h-231l45 217h-11q-88 -112 -209.5 -177t-267.5 -61q-154 4 -246.5 93t-129 221.5t-19.5 266.5l166 976h230l-166 -977q-18 -138 43 -242t211 -109q120 -4 218 48.5t162 144.5t82 207z" />
    <glyph glyph-name="v" unicode="v" horiz-adv-x="1552" 
d="M1537 1536l-791 -1536h-234l-312 1536h241l218 -1225h14l605 1225h259z" />
    <glyph glyph-name="w" unicode="w" horiz-adv-x="2272" 
d="M2247 1536l-720 -1536h-227l-118 1181h-22l-534 -1181h-226l-188 1536h234l115 -1177h15l525 1177h246l107 -1173h16l527 1173h250z" />
    <glyph glyph-name="x" unicode="x" horiz-adv-x="1504" 
d="M478 1536l258 -627l455 627h279l-611 -779l356 -757h-251l-263 595l-450 -595h-279l603 780l-349 756h252z" />
    <glyph glyph-name="y" unicode="y" horiz-adv-x="1552" 
d="M416 -153l80 157l-283 1532h240l195 -1225h17l625 1225h260l-947 -1785q-75 -151 -194 -251t-296 -97q-45 1 -89.5 7.5t-87.5 23.5l82 205q146 -39 239 18.5t159 189.5z" />
    <glyph glyph-name="z" unicode="z" horiz-adv-x="1508" 
d="M1212 220l-39 -220h-1154l37 212l1019 1104h-843l39 220h1150l-35 -200l-1020 -1116h846z" />
    <glyph glyph-name="braceleft" unicode="{" horiz-adv-x="912" 
d="M642 -328l-63 -168q-228 77 -302 248t-44 396l39 277q16 130 -29 222t-188 100l22 208q148 2 230 91t102 230l41 280q35 247 155 409.5t369 232.5l40 -167q-164 -53 -242 -183.5t-103 -291.5l-41 -280q-19 -138 -75.5 -247.5t-180.5 -181.5q91 -79 111.5 -194t7.5 -229
l-39 -277q-13 -95 -6.5 -189.5t51 -170.5t145.5 -115z" />
    <glyph glyph-name="bar" unicode="|" horiz-adv-x="732" 
d="M653 2048l-380 -2432h-215l380 2432h215z" />
    <glyph glyph-name="braceright" unicode="}" horiz-adv-x="912" 
d="M-115 -329l23 -168q242 73 368.5 237t163.5 408l39 276q17 146 94 233.5t230 90.5l45 210q-138 6 -188.5 99.5t-39.5 218.5l39 281q20 146 2 272.5t-94 221t-228 145.5l-92 -168q95 -40 140.5 -116t55.5 -170t-1 -186l-40 -281q-16 -116 0 -233t119 -192
q-118 -71 -176 -182.5t-79 -243.5l-40 -276q-23 -167 -97 -295.5t-244 -181.5z" />
    <glyph glyph-name="asciitilde" unicode="~" horiz-adv-x="2048" 
d="M1570 1060l205 -38q-20 -127 -80.5 -236t-161 -175t-240.5 -63q-108 2 -188 52.5t-153 123.5q-55 54 -118.5 106t-145.5 53q-84 1 -136 -44.5t-82 -114t-47 -136.5l-217 31q18 125 84 237t171 182t241 67q116 -3 211 -66t172 -143q47 -48 97.5 -92.5t123.5 -45.5
q86 -1 138.5 45t81.5 116t44 141z" />
    <glyph glyph-name="nbspace" unicode="&#xa0;" horiz-adv-x="778" 
 />
    <glyph glyph-name="exclamdown" unicode="&#xa1;" horiz-adv-x="768" 
d="M472 1561q76 0 128 -55.5t52 -129.5q0 -79 -55.5 -142t-136.5 -63q-78 -1 -129.5 56.5t-51.5 132.5q0 81 55.5 141t137.5 60zM271 -520h-264l273 1472h227z" />
    <glyph glyph-name="cent" unicode="&#xa2;" horiz-adv-x="1556" 
d="M1440 1074l-226 1q-21 122 -102.5 193.5t-205.5 75.5q-162 5 -279 -82t-187 -223t-89 -279q-13 -95 -5.5 -195t43.5 -187t108.5 -141.5t188.5 -57.5q137 -4 244.5 69t159.5 198l231 2q-43 -203 -197 -324.5t-353 -147.5l-61 -312h-215l61 314q-140 27 -232 105
t-141.5 188.5t-63 238t2.5 252.5q24 192 112 361t234.5 283.5t347.5 141.5l53 264h215l-53 -266q181 -36 286.5 -163.5t122.5 -308.5z" />
    <glyph glyph-name="sterling" unicode="&#xa3;" horiz-adv-x="1760" 
d="M1062 796h-459l-31 -236q-12 -96 -40 -183.5t-96 -159.5l946 3l-39 -220h-1317l39 219l67 -2q76 3 118.5 64t62.5 140.5t29 138.5l33 236h-219l40 228h211l55 404q22 180 112.5 328.5t237.5 236t337 83.5q165 -4 289 -87.5t178 -220t8 -299.5l-220 64q26 137 -44.5 228
t-211.5 96q-124 4 -221.5 -55t-159.5 -158.5t-79 -215.5l-54 -404h468z" />
    <glyph glyph-name="currency" unicode="&#xa4;" horiz-adv-x="2020" 
d="M185 831q20 149 82.5 284t165.5 245l-154 207l174 157l152 -197q112 79 239 125t266 44q125 -1 244 -45t212 -129l229 202l139 -179l-230 -195q48 -123 66.5 -250t1.5 -258q-40 -294 -232 -509l150 -196l-177 -157l-138 182q-117 -88 -251 -140t-282 -50
q-130 2 -251.5 49.5t-215.5 137.5l-205 -179l-135 179l208 175q-42 121 -58.5 244.5t0.5 252.5zM400 828q-23 -151 22.5 -296t154.5 -241t276 -100q134 -3 251.5 51t211 147.5t154 211.5t79.5 243q23 151 -21.5 296t-152.5 240.5t-276 99.5q-134 3 -252.5 -50.5t-212 -147
t-154.5 -211t-80 -243.5z" />
    <glyph glyph-name="yen" unicode="&#xa5;" horiz-adv-x="1528" 
d="M1263 624l-32 -180h-434l-78 -444h-242l78 444h-436l32 180h433l44 204l-2 13l-438 -1l32 180h348l-319 1028h256l263 -972l16 -1l605 973h282l-676 -1028h336l-32 -180l-419 2l-12 -15l-41 -203h436z" />
    <glyph glyph-name="brokenbar" unicode="&#xa6;" horiz-adv-x="732" 
d="M675 2048l-162 -932h-215l162 932h215zM201 552h215l-163 -936h-215z" />
    <glyph glyph-name="section" unicode="&#xa7;" horiz-adv-x="1536" 
d="M1358 1563l-222 1q5 76 -11.5 144t-64 111.5t-136.5 44.5q-101 2 -190 -58t-104 -167q-12 -85 38 -152.5t115 -113.5l334 -230q107 -76 170 -185.5t52 -244.5q-10 -134 -109.5 -233.5t-224.5 -131.5l-5 -14q52 -66 70.5 -146.5t11.5 -163.5q-13 -144 -92.5 -243.5
t-200 -149.5t-257.5 -47q-228 5 -350.5 149.5t-110.5 367.5l227 -1q-9 -126 51.5 -213t195.5 -91q108 -3 204 55t112 174q13 93 -34.5 155t-118.5 112l-334 225q-108 75 -170 187.5t-51 247.5q10 136 108 236.5t225 132.5l6 16q-45 68 -67.5 144t-15.5 158q11 136 88 235
t194 152t247 50q148 -3 244 -73.5t140 -186t36 -253.5zM1122 714q12 77 -26.5 141.5t-98.5 107.5l-341 230q-51 29 -99.5 11t-89 -63t-66.5 -98t-32 -93q-11 -82 28 -145t102 -109l321 -217q50 -28 101 -11t94.5 59t72 93.5t34.5 93.5z" />
    <glyph glyph-name="dieresis" unicode="&#xa8;" horiz-adv-x="1632" 
d="M685 1755q-62 0 -107.5 47.5t-46.5 107.5q-1 66 45 116t113 51q65 1 109 -45t44 -110q1 -66 -44.5 -116t-112.5 -51zM1236 1755q-62 0 -107.5 47.5t-46.5 107.5q-1 66 45 116t113 51q65 1 109 -45t44 -110q1 -66 -45 -116t-112 -51z" />
    <glyph glyph-name="copyright" unicode="&#xa9;" horiz-adv-x="2272" 
d="M183 999q25 202 118.5 388.5t241 332.5t335 230t399.5 82q206 -2 365.5 -89t264.5 -232.5t149.5 -327t20.5 -374.5q-25 -203 -118.5 -390t-240.5 -334t-334.5 -231t-400.5 -82q-207 2 -366.5 89.5t-264 234t-149 329t-20.5 374.5zM348 998q-23 -157 9 -308.5
t114.5 -273.5t211.5 -196t301 -76q179 -3 337 67.5t282 193.5t204.5 279t104.5 326q23 158 -9 308.5t-114.5 272t-212 194.5t-301.5 75q-177 3 -334.5 -67.5t-282.5 -192.5t-205.5 -277.5t-104.5 -324.5zM1318 819l204 3q-14 -208 -146.5 -323.5t-339.5 -110.5
q-148 3 -241.5 79.5t-132 196.5t-24.5 256l21 164q18 143 85 265.5t180 196t269 71.5q199 -4 303.5 -120.5t95.5 -313.5l-207 1q7 110 -38 178t-164 71q-98 2 -164 -49.5t-103.5 -132.5t-49.5 -167l-21 -165q-9 -75 3 -154.5t57.5 -134.5t138.5 -59q125 -4 191 63.5
t83 184.5z" />
    <glyph glyph-name="ordfeminine" unicode="&#xaa;" horiz-adv-x="1248" 
d="M837 970q-6 48 -4 97q-123 -117 -283 -115q-137 2 -222 83t-78 221q7 132 85 203t191 98.5t224 27.5l141 -2l13 71q11 70 -13 121t-102 53q-73 3 -131 -28.5t-74 -106.5l-228 19q9 113 77.5 184.5t168 105t201.5 31.5q169 -4 262.5 -107.5t75.5 -273.5l-70 -432
q-11 -63 -14 -125t10 -125h-230zM618 1151q60 -1 115 24.5t103 60.5l36 188l-122 1q-52 -1 -108.5 -15.5t-98 -49.5t-51.5 -96q-9 -63 30 -88t96 -25z" />
    <glyph glyph-name="guillemotleft" unicode="&#xab;" horiz-adv-x="1248" 
d="M552 220h-187l-295 598l3 30l488 600h219l-485 -627zM1049 220h-188l-294 598l2 30l489 600h219l-486 -627z" />
    <glyph glyph-name="logicalnot" unicode="&#xac;" horiz-adv-x="1504" 
d="M1338 1108l-103 -592h-270l62 356h-846l41 236h1116z" />
    <glyph glyph-name="softhyphen" unicode="&#xad;" horiz-adv-x="1280" 
d="M175 768zM1084 988l-39 -220h-870l38 220h871z" />
    <glyph glyph-name="registered" unicode="&#xae;" horiz-adv-x="2272" 
d="M183 998q25 203 118.5 389.5t241 332.5t335 230t399.5 82q206 -2 365.5 -88.5t264.5 -232.5t149.5 -327.5t20.5 -374.5q-25 -203 -118.5 -390t-240.5 -334t-334.5 -231.5t-400.5 -81.5q-207 2 -366.5 89.5t-264.5 234t-149 328.5t-20 374zM347 998q-22 -158 10 -309
t114.5 -273.5t211.5 -196t301 -75.5q179 -3 337 67.5t282.5 193t204.5 279t105 326.5q22 158 -10 308.5t-114.5 272t-212 194.5t-301.5 75q-177 3 -334.5 -67.5t-282.5 -192.5t-205.5 -277.5t-105.5 -324.5zM1146 899l-221 1l-73 -464h-203l182 1168l364 -1
q107 -2 198.5 -38t145 -111t46.5 -195q-7 -100 -66 -163.5t-144 -106.5q78 -43 102 -120t16 -161l-10 -76q-5 -46 -3.5 -88t4.5 -87l-2 -22h-201q-12 48 -9 98.5t9 98.5l10 77q9 87 -22 136t-123 54zM1006 1420l-53 -336l190 -1q79 1 153.5 40.5t88.5 127.5
q15 102 -44.5 134t-148.5 34z" />
    <glyph glyph-name="macron" unicode="&#xaf;" horiz-adv-x="1248" 
d="M1246 1988l-32 -204h-914l33 204h913z" />
    <glyph glyph-name="degree" unicode="&#xb0;" horiz-adv-x="1248" 
d="M669 1076q-121 3 -211.5 67t-137.5 166t-37 219q11 127 82 235t182.5 172.5t241.5 60.5q122 -3 212.5 -66.5t137 -165t36.5 -220.5q-11 -127 -82 -235t-182.5 -172.5t-241.5 -60.5zM681 1275q76 -2 141.5 36.5t109 101.5t52.5 136q12 98 -46 175.5t-160 80.5
q-75 2 -141 -36.5t-109.5 -101.5t-52.5 -136q-12 -98 46 -175.5t160 -80.5z" />
    <glyph glyph-name="plusminus" unicode="&#xb1;" horiz-adv-x="1792" 
d="M1533 1096l-36 -224h-508l-69 -440h-227l70 440h-509l35 224h508l69 440h227l-69 -440h509zM1396 220l-35 -220h-1243l35 220h1243z" />
    <glyph glyph-name="twosuperior" unicode="&#xb2;" horiz-adv-x="1248" 
d="M1175 1104l-33 -188h-809l29 166l436 363q57 47 125 110t81 144q9 62 -26 98.5t-96 38.5q-87 2 -142.5 -47t-69.5 -132l-225 -2q8 116 71.5 197.5t161 124t207.5 40.5q98 -2 180.5 -37.5t129.5 -106t40 -177.5q-6 -89 -56 -162t-120 -133.5t-135 -109.5l-261 -185z" />
    <glyph glyph-name="threesuperior" unicode="&#xb3;" horiz-adv-x="1248" 
d="M689 1384l29 168l102 -1q74 1 139.5 35.5t76.5 116.5q9 67 -33 98.5t-103 32.5q-62 1 -114 -29t-67 -92l-228 -1q8 106 70 174t154 100.5t189 30.5q92 -2 177 -32.5t137.5 -96.5t46.5 -171q-5 -98 -69.5 -156.5t-147.5 -93.5q80 -30 118.5 -92.5t34.5 -146.5
q-6 -117 -75.5 -190t-171 -106.5t-204.5 -31.5q-150 3 -257 84t-105 241h223q-1 -69 44.5 -102t111.5 -34q72 -1 136.5 36t75.5 115q12 83 -40 112t-122 31z" />
    <glyph glyph-name="acute" unicode="&#xb4;" horiz-adv-x="752" 
d="M304 1704l296 408h253l-363 -408h-186z" />
    <glyph glyph-name="mu" unicode="&#xb5;" horiz-adv-x="1620" 
d="M1131 692l144 844h219l-266 -1536h-192l32 216q-70 -106 -168.5 -176.5t-232.5 -66.5q-115 3 -201.5 66t-133.5 165l-142 -776h-231l366 2108h230l-144 -845q-14 -100 1.5 -209.5t77.5 -187t187 -83.5q134 -5 228.5 67.5t150.5 185t75 228.5z" />
    <glyph glyph-name="paragraph" unicode="&#xb6;" horiz-adv-x="1248" 
d="M982 0h-269l124 716l-97 1q-188 3 -321 84t-196 223.5t-42 329.5q23 199 127.5 345t266.5 226t359 80l396 -1z" />
    <glyph glyph-name="periodcentered" unicode="&#xb7;" horiz-adv-x="768" 
d="M401 863q-72 -1 -121 51.5t-49 122.5q0 74 52.5 129t126.5 55q71 0 120.5 -50t49.5 -120q1 -75 -51 -131.5t-128 -56.5z" />
    <glyph glyph-name="cedilla" unicode="&#xb8;" horiz-adv-x="736" 
d="M115 0h189l-29 -75q85 -19 128 -79t40 -146q-3 -119 -74.5 -183.5t-173.5 -91t-199 -29.5l2 160q47 1 98.5 11t90.5 39t48 85q10 54 -20 78t-75.5 31t-85.5 11z" />
    <glyph glyph-name="onesuperior" unicode="&#xb9;" horiz-adv-x="992" 
d="M916 2000l-181 -1084h-223l140 808l-297 -76l35 196l497 156h29z" />
    <glyph glyph-name="ordmasculine" unicode="&#xba;" horiz-adv-x="1248" 
d="M251 1436l13 107q18 139 88.5 251t183.5 177t258 61q139 -3 232 -70t135 -176.5t28 -241.5l-14 -108q-18 -138 -87.5 -249t-181 -175t-256.5 -60q-138 3 -232 68.5t-137.5 174t-29.5 241.5zM500 1544l-15 -110q-7 -67 5.5 -131t54 -107t120.5 -45q125 -4 192.5 85
t83.5 200l14 109q7 66 -4.5 130.5t-52.5 108t-120 45.5q-123 4 -192.5 -85t-85.5 -200z" />
    <glyph glyph-name="guillemotright" unicode="&#xbb;" horiz-adv-x="1248" 
d="M380 220l485 627l-257 601h188l294 -599l-3 -29l-488 -600h-219zM-117 220l486 627l-258 601h188l295 -599l-3 -29l-489 -600h-219z" />
    <glyph glyph-name="onequarter" unicode="&#xbc;" horiz-adv-x="2272" 
d="M864 1996l-182 -1084h-222l140 808l-297 -76l35 196l497 156h29zM1802 1719l-1209 -1553l-143 98l1211 1558zM1940 420l-33 -188h-139l-41 -232h-227l41 232h-492l19 159l609 693h238l-115 -664h140zM1308 420h265l73 369l-21 -28z" />
    <glyph glyph-name="onehalf" unicode="&#xbd;" horiz-adv-x="2272" 
d="M884 1996l-181 -1084h-223l140 808l-297 -76l35 196l497 156h29zM1768 1719l-1209 -1553l-143 99l1211 1557zM2002 188l-33 -188h-809l29 166l436 363q57 48 125 111.5t81 143.5q10 62 -25.5 98.5t-96.5 37.5q-87 2 -142.5 -47t-69.5 -132l-225 -2q8 116 71.5 197
t160.5 123.5t208 41.5q98 0 181 -36t130.5 -107.5t39.5 -178.5q-7 -89 -57 -162t-119.5 -133t-134.5 -109l-262 -185z" />
    <glyph glyph-name="threequarters" unicode="&#xbe;" horiz-adv-x="2272" 
d="M650 1384l30 168l101 -1q74 1 139.5 35.5t77.5 116.5q9 67 -33.5 99t-103.5 32q-62 1 -114 -29t-67 -92l-228 -1q8 106 70 174t154 100.5t189 30.5q93 -2 177.5 -33t137 -96.5t46.5 -170.5q-5 -98 -69.5 -156.5t-147.5 -93.5q80 -30 118.5 -93t33.5 -147
q-6 -116 -75 -189t-170.5 -106.5t-204.5 -31.5q-150 3 -257 83.5t-105 241.5h223q-1 -70 45 -102.5t111 -33.5q73 -1 137.5 36t75.5 115q12 83 -40.5 112t-122.5 31zM1989 1719l-1210 -1553l-143 99l1211 1557zM2076 420l-33 -188h-139l-41 -232h-227l41 232h-492l18 159
l610 693h238l-115 -664h140zM1444 420h265l72 369l-20 -28z" />
    <glyph glyph-name="questiondown" unicode="&#xbf;" horiz-adv-x="1504" 
d="M934 1565q77 1 128.5 -54.5t51.5 -131.5q0 -79 -55 -141.5t-137 -62.5q-77 -1 -128.5 57t-51.5 132q0 80 55.5 140.5t136.5 60.5zM734 956l229 1q-15 -145 -79 -249.5t-152 -186.5t-176 -160.5t-153 -170t-82 -214.5q-16 -128 47 -218t197 -95q154 -5 252 91t119 241
l244 1q-15 -164 -102.5 -287t-225 -190t-300.5 -63q-155 3 -264 72.5t-161.5 188.5t-38.5 271q6 65 60 170t134.5 226.5t168 238t163.5 206t120 127.5z" />
    <glyph glyph-name="Agrave" unicode="&#xc0;" horiz-adv-x="1888" 
d="M0 0zM177 0h-264l1085 2048h250l374 -2048h-243l-93 548h-826zM1067 1725l-494 -957h676l-158 957h-24zM1121 2640l197 -408h-215l-289 408h307z" />
    <glyph glyph-name="Aacute" unicode="&#xc1;" horiz-adv-x="1888" 
d="M0 0zM177 0h-264l1085 2048h250l374 -2048h-243l-93 548h-826zM1067 1725l-494 -957h676l-158 957h-24zM1051 2232l296 408h253l-363 -408h-186z" />
    <glyph glyph-name="Acircumflex" unicode="&#xc2;" horiz-adv-x="1888" 
d="M0 0zM177 0h-264l1085 2048h250l374 -2048h-243l-93 548h-826zM1067 1725l-494 -957h676l-158 957h-24zM937 2304l274 240l197 -240l190 -3l8 22l-283 373h-130l-429 -373l-7 -23z" />
    <glyph glyph-name="Atilde" unicode="&#xc3;" horiz-adv-x="1888" 
d="M1523 2632l169 -13q-7 -90 -45.5 -169.5t-108 -128.5t-169.5 -48q-68 1 -121 34.5t-105 66.5t-117 32q-66 0 -104.5 -47.5t-51.5 -105.5l-178 7q9 89 50 170.5t112.5 132t170.5 48.5q65 -2 118 -35.5t105.5 -66t117.5 -32.5q66 1 106 48.5t51 106.5zM177 0h-264
l1085 2048h250l374 -2048h-243l-93 548h-826zM1067 1725l-494 -957h676l-158 957h-24z" />
    <glyph glyph-name="Adieresis" unicode="&#xc4;" horiz-adv-x="1888" 
d="M916 2267q-61 0 -106.5 47t-46.5 107q-1 66 45 116.5t112 51.5q66 2 110 -44t44 -111q0 -66 -45.5 -116t-112.5 -51zM1467 2267q-61 0 -106.5 47t-46.5 107q-1 66 44.5 116.5t112.5 51.5q66 2 110 -44t44 -111q0 -66 -45.5 -116t-112.5 -51zM177 0h-264l1085 2048h250
l374 -2048h-244l-92 548h-826zM1067 1725l-494 -957h676l-158 957h-24z" />
    <glyph glyph-name="Aring" unicode="&#xc5;" horiz-adv-x="1888" 
d="M0 0zM177 0h-264l1085 2048h250l374 -2048h-243l-93 548h-826zM1067 1725l-494 -957h676l-158 957h-24zM881 2567q5 101 60.5 184t143 131.5t188.5 46.5q93 -3 165 -50.5t111 -124.5t34 -169q-6 -101 -60.5 -181t-140 -125.5t-185.5 -43.5q-138 3 -230.5 98t-85.5 234z
M1049 2567q-8 -71 35 -125t116 -55q81 -1 145 58.5t74 139.5q8 71 -34 129t-117 59q-84 1 -147 -62.5t-72 -143.5z" />
    <glyph glyph-name="AE" unicode="&#xc6;" horiz-adv-x="2832" 
d="M2499 220l-39 -220h-1168l74 552h-761l-403 -552h-303l1530 2048h1305l-38 -220h-923l-90 -676h788l-39 -220h-778l-96 -712h941zM763 768h631l142 1058z" />
    <glyph glyph-name="Ccedilla" unicode="&#xc7;" horiz-adv-x="2032" 
d="M163 0zM1936 1406l-239 1q-22 197 -149.5 315t-327.5 122q-171 4 -308.5 -66.5t-239 -190t-164 -268t-85.5 -302.5q-20 -137 -8 -278.5t66 -262t159.5 -195t271.5 -78.5q143 -2 270.5 50.5t223.5 151.5t144 234l243 1q-51 -202 -184.5 -353t-318 -234.5t-390.5 -80.5
q-217 3 -365.5 94.5t-233.5 242.5t-111.5 335.5t-0.5 373.5q28 202 111.5 392.5t217.5 342t314 239t401 84.5q202 -2 352 -88t239.5 -236t111.5 -346zM808 -16h189l-29 -75q85 -19 128 -79t40 -146q-3 -119 -74.5 -183.5t-173.5 -91t-199 -29.5l2 160q47 1 98.5 11t90.5 39
t48 85q10 54 -20 78t-75.5 31t-85.5 11z" />
    <glyph glyph-name="Egrave" unicode="&#xc8;" horiz-adv-x="1668" 
d="M89 0zM1344 220l-39 -220h-1216l355 2048h1201l-39 -220h-957l-121 -692h858l-38 -220h-857l-121 -696h974zM1057 2640l197 -408h-215l-289 408h307z" />
    <glyph glyph-name="Eacute" unicode="&#xc9;" horiz-adv-x="1668" 
d="M89 0zM1344 220l-39 -220h-1216l355 2048h1201l-39 -220h-957l-121 -692h858l-38 -220h-857l-121 -696h974zM987 2232l296 408h253l-363 -408h-186z" />
    <glyph glyph-name="Ecircumflex" unicode="&#xca;" horiz-adv-x="1668" 
d="M89 0zM1344 220l-39 -220h-1216l355 2048h1201l-39 -220h-957l-121 -692h858l-38 -220h-857l-121 -696h974zM873 2304l274 240l197 -240l190 -3l8 22l-283 373h-130l-429 -373l-7 -23z" />
    <glyph glyph-name="Edieresis" unicode="&#xcb;" horiz-adv-x="1668" 
d="M89 0zM1344 220l-39 -220h-1216l355 2048h1201l-39 -220h-957l-121 -692h858l-38 -220h-857l-121 -696h974zM854 2267q-62 0 -107.5 47.5t-46.5 107.5q-1 66 45 116t113 51q65 1 109 -45t44 -110q1 -66 -44.5 -116t-112.5 -51zM1405 2267q-62 0 -107.5 47.5t-46.5 107.5
q-1 66 45 116t113 51q65 1 109 -45t44 -110q1 -66 -45 -116t-112 -51z" />
    <glyph glyph-name="Igrave" unicode="&#xcc;" horiz-adv-x="728" 
d="M89 0zM687 2048l-356 -2048h-242l355 2048h243zM525 2640l197 -408h-215l-289 408h307z" />
    <glyph glyph-name="Iacute" unicode="&#xcd;" horiz-adv-x="728" 
d="M89 0zM687 2048l-356 -2048h-242l355 2048h243zM455 2232l296 408h253l-363 -408h-186z" />
    <glyph glyph-name="Icircumflex" unicode="&#xce;" horiz-adv-x="728" 
d="M89 0zM687 2048l-356 -2048h-242l355 2048h243zM341 2304l274 240l197 -240l190 -3l8 22l-283 373h-130l-429 -373l-7 -23z" />
    <glyph glyph-name="Idieresis" unicode="&#xcf;" horiz-adv-x="1016" 
d="M492 2267q-61 0 -106.5 47t-46.5 107q-1 66 45 116.5t112 51.5q66 2 110 -44t44 -111q0 -66 -45.5 -116t-112.5 -51zM1043 2267q-61 0 -106.5 47t-46.5 107q-1 66 45 116.5t112 51.5q66 2 110 -44t44 -111q0 -66 -45.5 -116t-112.5 -51zM822 2048l-356 -2048h-242
l355 2048h243z" />
    <glyph glyph-name="Eth" unicode="&#xd0;" horiz-adv-x="2038" 
d="M747 0h-629l163 936h-239l32 184h238l161 928h627q223 -3 379.5 -84.5t250 -222t124.5 -322.5t3 -387q-42 -298 -187 -531.5t-379 -367.5t-544 -133zM930 1120l-33 -184h-374l-124 -716l342 -1q247 0 432.5 104.5t300 288.5t149.5 421q32 209 -10 388.5t-172.5 291
t-365.5 115.5h-397l-123 -708h375z" />
    <glyph glyph-name="Ntilde" unicode="&#xd1;" horiz-adv-x="2064" 
d="M89 0zM1983 2048l-356 -2048h-226l-765 1604l-21 1l-284 -1605h-242l355 2048h227l767 -1612l22 -1l284 1613h239zM1606 2611l167 -12q-6 -91 -44 -170.5t-107.5 -128t-169.5 -46.5q-67 1 -120.5 34t-105.5 66t-117 32q-66 0 -104 -47.5t-49 -105.5l-179 7q7 89 47.5 170
t111 131.5t169.5 48.5q66 -1 119.5 -34.5t106.5 -66t118 -31.5q66 0 105.5 47t51.5 106z" />
    <glyph glyph-name="Ograve" unicode="&#xd2;" horiz-adv-x="2128" 
d="M163 0zM1943 1030q-28 -203 -111.5 -393t-217.5 -341t-314 -239t-401 -85q-217 3 -365 94.5t-233 243t-111.5 336t-0.5 372.5q28 203 111.5 393t217.5 341t314 239t401 85q217 -3 365 -94.5t233 -243t111.5 -336t0.5 -372.5zM1708 1031q20 137 8.5 278.5t-65.5 261.5
t-159 195t-272 78q-171 3 -308.5 -67t-238.5 -189.5t-164 -268t-85 -302.5q-21 -137 -9 -278.5t66 -261.5t159 -195t271 -78q172 -3 309.5 67t238.5 189.5t164 268t85 302.5zM1241 2640l197 -408h-215l-289 408h307z" />
    <glyph glyph-name="Oacute" unicode="&#xd3;" horiz-adv-x="2128" 
d="M163 0zM1943 1030q-28 -203 -111.5 -393t-217.5 -341t-314 -239t-401 -85q-217 3 -365 94.5t-233 243t-111.5 336t-0.5 372.5q28 203 111.5 393t217.5 341t314 239t401 85q217 -3 365 -94.5t233 -243t111.5 -336t0.5 -372.5zM1708 1031q20 137 8.5 278.5t-65.5 261.5
t-159 195t-272 78q-171 3 -308.5 -67t-238.5 -189.5t-164 -268t-85 -302.5q-21 -137 -9 -278.5t66 -261.5t159 -195t271 -78q172 -3 309.5 67t238.5 189.5t164 268t85 302.5zM1171 2232l296 408h253l-363 -408h-186z" />
    <glyph glyph-name="Ocircumflex" unicode="&#xd4;" horiz-adv-x="2128" 
d="M163 0zM1943 1030q-28 -203 -111.5 -393t-217.5 -341t-314 -239t-401 -85q-217 3 -365 94.5t-233 243t-111.5 336t-0.5 372.5q28 203 111.5 393t217.5 341t314 239t401 85q217 -3 365 -94.5t233 -243t111.5 -336t0.5 -372.5zM1708 1031q20 137 8.5 278.5t-65.5 261.5
t-159 195t-272 78q-171 3 -308.5 -67t-238.5 -189.5t-164 -268t-85 -302.5q-21 -137 -9 -278.5t66 -261.5t159 -195t271 -78q172 -3 309.5 67t238.5 189.5t164 268t85 302.5zM1057 2304l274 240l197 -240l190 -3l8 22l-283 373h-130l-429 -373l-7 -23z" />
    <glyph glyph-name="Otilde" unicode="&#xd5;" horiz-adv-x="2128" 
d="M1639 2632l168 -13q-6 -92 -44.5 -171t-108 -127.5t-169.5 -46.5q-68 1 -121 34.5t-105.5 66t-116.5 32.5q-67 -1 -105.5 -48.5t-50.5 -105.5l-178 7q8 89 48.5 170t111.5 132t170 48q66 -1 119 -34.5t106.5 -66t117.5 -32.5q67 1 106.5 48.5t51.5 106.5zM1943 1029
q-28 -202 -111.5 -392t-217.5 -341t-314 -239t-401 -85q-217 2 -365 94t-233 243.5t-111.5 336t-0.5 372.5q28 203 111.5 393t217 341t314 239t401.5 85q217 -2 365 -94t233 -243.5t111.5 -336t0.5 -373.5zM1709 1031q20 137 8 278.5t-66 262t-159 195t-272 77.5
q-171 3 -308.5 -67t-238.5 -189.5t-164 -268t-86 -302.5q-20 -137 -8 -278.5t66 -262t159 -195t271 -77.5q172 -4 309.5 66t238.5 190t164 268.5t86 302.5z" />
    <glyph glyph-name="Odieresis" unicode="&#xd6;" horiz-adv-x="2128" 
d="M1032 2267q-62 -1 -107.5 46.5t-46.5 108.5q-1 65 45 115.5t113 51.5q66 1 109.5 -44.5t43.5 -110.5q1 -65 -44.5 -115.5t-112.5 -51.5zM1583 2267q-62 -1 -107.5 46.5t-46.5 108.5q-1 65 45 115.5t113 51.5q66 1 109.5 -44.5t43.5 -110.5q1 -65 -44.5 -115.5
t-112.5 -51.5zM1943 1030q-28 -203 -111.5 -393t-217.5 -341t-314 -239t-401 -85q-217 3 -365 94.5t-233 243t-111.5 336t-0.5 372.5q28 203 111.5 393t217.5 341t314 239t401 85q217 -3 365 -94.5t233 -243t111.5 -336t0.5 -372.5zM1708 1031q20 137 8.5 278.5t-65.5 261.5
t-159 195t-272 78q-171 3 -308.5 -67t-238.5 -189.5t-164 -268t-85 -302.5q-21 -137 -9 -278.5t66 -261.5t159 -195t271 -78q172 -3 309.5 67t238.5 189.5t164 268t85 302.5z" />
    <glyph glyph-name="multiply" unicode="&#xd7;" horiz-adv-x="1792" 
d="M347 280l-130 167l518 459l-371 477l163 145l372 -476l536 476l130 -167l-537 -476l359 -460l-164 -145l-358 460z" />
    <glyph glyph-name="Oslash" unicode="&#xd8;" horiz-adv-x="2128" 
d="M264 -82l-141 112l190 218q-100 180 -125 373.5t3 396.5q29 203 112 393t216 341t313 239t402 85q123 -1 241.5 -37t216.5 -112l169 200l141 -113l-184 -210q102 -182 128 -376t-3 -398q-29 -202 -112 -392.5t-216.5 -341.5t-313.5 -239t-401 -85q-125 1 -244.5 38
t-218.5 114zM426 1018q-22 -142 -17 -287.5t63 -279.5l1071 1285q-65 57 -150.5 82t-170.5 27q-173 2 -310 -68t-237 -189.5t-163 -267.5t-86 -302zM1708 1030q21 143 16 289.5t-64 281.5l-1071 -1287q65 -58 151 -84t172 -27q173 -3 310 67t237 189.5t162.5 268t86.5 302.5
z" />
    <glyph glyph-name="Ugrave" unicode="&#xd9;" horiz-adv-x="2072" 
d="M183 0zM1747 2048h242l-233 -1355q-34 -220 -161 -385.5t-316 -257.5t-410 -89q-208 3 -366.5 97.5t-239 258.5t-52.5 375l232 1356h243l-234 -1357q-20 -145 30 -255.5t154.5 -173.5t248.5 -66q152 -3 286 57.5t225 173t117 265.5zM1213 2640l197 -408h-215l-289 408
h307z" />
    <glyph glyph-name="Uacute" unicode="&#xda;" horiz-adv-x="2072" 
d="M183 0zM1747 2048h242l-233 -1355q-34 -220 -161 -385.5t-316 -257.5t-410 -89q-208 3 -366.5 97.5t-239 258.5t-52.5 375l232 1356h243l-234 -1357q-20 -145 30 -255.5t154.5 -173.5t248.5 -66q152 -3 286 57.5t225 173t117 265.5zM1143 2232l296 408h253l-363 -408
h-186z" />
    <glyph glyph-name="Ucircumflex" unicode="&#xdb;" horiz-adv-x="2072" 
d="M183 0zM1747 2048h242l-233 -1355q-34 -220 -161 -385.5t-316 -257.5t-410 -89q-208 3 -366.5 97.5t-239 258.5t-52.5 375l232 1356h243l-234 -1357q-20 -145 30 -255.5t154.5 -173.5t248.5 -66q152 -3 286 57.5t225 173t117 265.5zM1029 2304l274 240l197 -240l190 -3
l8 22l-283 373h-130l-429 -373l-7 -23z" />
    <glyph glyph-name="Udieresis" unicode="&#xdc;" horiz-adv-x="2072" 
d="M183 0zM1747 2048h242l-233 -1355q-34 -220 -161 -385.5t-316 -257.5t-410 -89q-208 3 -366.5 97.5t-239 258.5t-52.5 375l232 1356h243l-234 -1357q-20 -145 30 -255.5t154.5 -173.5t248.5 -66q152 -3 286 57.5t225 173t117 265.5zM1010 2267q-62 0 -107.5 47.5
t-46.5 107.5q-1 66 45 116t113 51q65 1 109 -45t44 -110q1 -66 -44.5 -116t-112.5 -51zM1561 2267q-62 0 -107.5 47.5t-46.5 107.5q-1 66 45 116t113 51q65 1 109 -45t44 -110q1 -66 -45 -116t-112 -51z" />
    <glyph glyph-name="Yacute" unicode="&#xdd;" horiz-adv-x="1864" 
d="M285 0zM543 2049l386 -957l23 -1l719 957h292l-937 -1216l-144 -832h-242l149 857l-504 1191zM1039 2232l296 408h253l-363 -408h-186z" />
    <glyph glyph-name="Thorn" unicode="&#xde;" horiz-adv-x="1760" 
d="M428 2048h242l-74 -424l369 -1q170 -3 305.5 -73t208.5 -199t55 -308q-20 -192 -128.5 -325t-270.5 -202t-344 -69l-398 1l-78 -448h-242zM956 1403l-397 1l-128 -736l369 -1q122 0 230.5 39t181.5 121.5t91 213.5q23 178 -77.5 268.5t-269.5 93.5z" />
    <glyph glyph-name="germandbls" unicode="&#xdf;" horiz-adv-x="1648" 
d="M550 1524l-261 -1524h-231l262 1524q25 161 95.5 303.5t193 229.5t303.5 83q136 -2 238 -60t155.5 -161t41.5 -242q-8 -86 -44 -154.5t-82.5 -131.5t-86 -128.5t-53.5 -143.5q-13 -78 19.5 -140.5t87.5 -120t111.5 -117t93 -130.5t30.5 -162q-12 -159 -93 -266
t-208 -160.5t-279 -51.5q-107 1 -214 28.5t-197 87.5l114 193q62 -41 133 -70.5t147 -30.5q84 -2 164 26t137 86.5t70 148.5q13 86 -21 152.5t-90.5 123.5t-114.5 115.5t-95 127.5t-29 160q7 83 46 151t89 131t91.5 129.5t52.5 147.5q16 115 -51.5 180t-177.5 68
q-117 4 -188 -55.5t-107.5 -153.5t-51.5 -193z" />
    <glyph glyph-name="agrave" unicode="&#xe0;" horiz-adv-x="1572" 
d="M53 0zM956 0l37 210l-8 -1q-79 -123 -205 -185.5t-272 -60.5q-135 2 -239.5 60.5t-160 162t-45.5 242.5q9 129 69 213t152.5 134t202 75.5t218.5 38.5q38 5 102 6t131.5 9t119 32t65.5 73v5q3 93 -12 168t-67.5 119.5t-160.5 46.5q-131 3 -247.5 -56.5t-181.5 -174.5
l-214 80q90 187 265.5 274.5t376.5 84.5q245 -4 370 -151t99 -393l-171 -1012h-224zM1047 556l46 217q-45 -42 -119 -57.5t-152 -19.5t-136 -11q-83 -9 -169.5 -35t-149 -81.5t-75.5 -152.5q-16 -125 68 -182t194 -59q117 -2 221 44.5t177 133t95 203.5zM885 2128l197 -408
h-215l-289 408h307z" />
    <glyph glyph-name="aacute" unicode="&#xe1;" horiz-adv-x="1572" 
d="M53 0zM956 0l37 210l-8 -1q-79 -123 -205 -185.5t-272 -60.5q-135 2 -239.5 60.5t-160 162t-45.5 242.5q9 129 69 213t152.5 134t202 75.5t218.5 38.5q38 5 102 6t131.5 9t119 32t65.5 73v5q3 93 -12 168t-67.5 119.5t-160.5 46.5q-131 3 -247.5 -56.5t-181.5 -174.5
l-214 80q90 187 265.5 274.5t376.5 84.5q245 -4 370 -151t99 -393l-171 -1012h-224zM1047 556l46 217q-45 -42 -119 -57.5t-152 -19.5t-136 -11q-83 -9 -169.5 -35t-149 -81.5t-75.5 -152.5q-16 -125 68 -182t194 -59q117 -2 221 44.5t177 133t95 203.5zM815 1720l296 408
h253l-363 -408h-186z" />
    <glyph glyph-name="acircumflex" unicode="&#xe2;" horiz-adv-x="1572" 
d="M53 0zM956 0l37 210l-8 -1q-79 -123 -205 -185.5t-272 -60.5q-135 2 -239.5 60.5t-160 162t-45.5 242.5q9 129 69 213t152.5 134t202 75.5t218.5 38.5q38 5 102 6t131.5 9t119 32t65.5 73v5q3 93 -12 168t-67.5 119.5t-160.5 46.5q-131 3 -247.5 -56.5t-181.5 -174.5
l-214 80q90 187 265.5 274.5t376.5 84.5q245 -4 370 -151t99 -393l-171 -1012h-224zM1047 556l46 217q-45 -42 -119 -57.5t-152 -19.5t-136 -11q-83 -9 -169.5 -35t-149 -81.5t-75.5 -152.5q-16 -125 68 -182t194 -59q117 -2 221 44.5t177 133t95 203.5zM701 1792l274 240
l197 -240l190 -3l8 22l-283 373h-130l-429 -373l-7 -23z" />
    <glyph glyph-name="atilde" unicode="&#xe3;" horiz-adv-x="1572" 
d="M1245 2100l169 -13q-7 -91 -45.5 -170.5t-108 -128t-169.5 -46.5q-68 1 -121 34.5t-105 66t-117 32.5q-66 -1 -105 -48.5t-51 -105.5l-179 7q8 90 49 171t112 131t170 48q66 -1 119.5 -34.5t106.5 -66t118 -32.5q66 1 105.5 48.5t51.5 106.5zM957 0l37 210l-8 -1
q-79 -123 -205 -185.5t-272 -60.5q-135 2 -239.5 60.5t-160.5 162t-45 242.5q9 129 69 213t152.5 134t202 75.5t218.5 38.5q38 5 102 6t131.5 9t119 32t65.5 73v5q3 93 -12 168t-67 120t-161 47q-131 3 -247.5 -57t-181.5 -175l-214 80q90 187 265 274.5t377 84.5
q245 -4 370 -151t99 -393l-171 -1012h-224zM1048 556l46 217q-45 -42 -119 -58t-152 -19.5t-136 -10.5q-84 -9 -170 -35t-148.5 -81.5t-75.5 -152.5q-16 -125 68 -182t194 -59q117 -2 221 44.5t177 133t95 203.5z" />
    <glyph glyph-name="adieresis" unicode="&#xe4;" horiz-adv-x="1572" 
d="M661 1755q-62 -1 -107.5 46.5t-46.5 108.5q-1 65 45 115.5t113 51.5q66 1 109.5 -44.5t43.5 -110.5q1 -65 -44.5 -116t-112.5 -51zM1211 1755q-61 -1 -106.5 46.5t-46.5 108.5q-1 65 45 115.5t113 51.5q65 1 108.5 -44.5t44.5 -110.5q0 -65 -45.5 -116t-112.5 -51zM957 0
l37 210l-8 -1q-79 -123 -205 -185.5t-272 -60.5q-135 2 -239 60.5t-160 162.5t-46 242q10 129 69.5 213.5t152 134t202 75t218.5 38.5q39 5 102.5 6t131 9t119 32t65.5 73v5q3 93 -12 168t-67.5 119.5t-161.5 46.5q-131 3 -247 -56.5t-181 -174.5l-214 80q90 187 265.5 275
t376.5 84q246 -3 370.5 -150.5t98.5 -393.5l-171 -1012h-224zM1048 556l46 217q-45 -42 -119 -57.5t-152 -19.5t-136 -11q-83 -9 -169.5 -35t-149 -81.5t-74.5 -152.5q-17 -125 67 -182t194 -59q117 -2 221 44.5t177 133t95 203.5z" />
    <glyph glyph-name="aring" unicode="&#xe5;" horiz-adv-x="1572" 
d="M53 0zM956 0l37 210l-8 -1q-79 -123 -205 -185.5t-272 -60.5q-135 2 -239.5 60.5t-160 162t-45.5 242.5q9 129 69 213t152.5 134t202 75.5t218.5 38.5q38 5 102 6t131.5 9t119 32t65.5 73v5q3 93 -12 168t-67.5 119.5t-160.5 46.5q-131 3 -247.5 -56.5t-181.5 -174.5
l-214 80q90 187 265.5 274.5t376.5 84.5q245 -4 370 -151t99 -393l-171 -1012h-224zM1047 556l46 217q-45 -42 -119 -57.5t-152 -19.5t-136 -11q-83 -9 -169.5 -35t-149 -81.5t-75.5 -152.5q-16 -125 68 -182t194 -59q117 -2 221 44.5t177 133t95 203.5zM645 2055
q5 101 60.5 184t143 131.5t188.5 46.5q93 -3 165 -50.5t111 -124.5t34 -169q-6 -101 -60.5 -181t-140 -125.5t-185.5 -43.5q-138 3 -230.5 98t-85.5 234zM813 2055q-8 -71 35 -125t116 -55q81 -1 145 58.5t74 139.5q8 71 -34 129t-117 59q-84 1 -147 -62.5t-72 -143.5z" />
    <glyph glyph-name="ae" unicode="&#xe6;" horiz-adv-x="2588" 
d="M240 1198q91 186 266.5 274t376.5 84q86 -2 179 -27t164 -81.5t92 -153.5q101 126 234 195.5t297 66.5q161 -2 270 -68.5t170.5 -176.5t80.5 -245.5t1 -277.5l-12 -81l-1083 -85q-7 -181 82.5 -309t282.5 -133q134 -4 243 56.5t168 182.5l220 -64q-48 -132 -148.5 -218.5
t-230 -128.5t-263.5 -40q-178 3 -322 93t-194 268h-7q-48 -116 -142.5 -198.5t-214 -126t-241.5 -41.5q-135 2 -239.5 60.5t-160.5 162t-45 242.5q9 129 69 213t152.5 134t202 75.5t218.5 38.5q38 4 102 5.5t132 9.5t119.5 32t64.5 73v5q3 93 -12 168t-67.5 119.5
t-160.5 47.5q-131 3 -247.5 -57t-181.5 -175zM1838 1344q-154 5 -261.5 -71t-176 -197.5t-104.5 -251.5l855 68q20 113 -8 215t-104 167.5t-201 69.5zM1048 556l46 217q-45 -42 -119 -57.5t-152 -19.5t-136 -11q-83 -10 -169.5 -35.5t-149 -81t-75.5 -152.5
q-16 -125 68 -182t194 -59q117 -2 221 44.5t177 133t95 203.5z" />
    <glyph glyph-name="ccedilla" unicode="&#xe7;" horiz-adv-x="1556" 
d="M105 0zM1435 1075h-226q-23 122 -106 193.5t-208 75.5q-160 4 -275 -82.5t-182 -222t-85 -277.5q-12 -96 -3 -196.5t46.5 -187t111 -141.5t189.5 -58q137 -3 243.5 69.5t156.5 198.5l232 1q-31 -151 -126.5 -259.5t-230 -166t-284.5 -55.5q-165 3 -281 71.5t-184.5 182
t-93 254t-8.5 287.5q18 153 79.5 296.5t162 257t236.5 178.5t303 62q218 -4 364.5 -133.5t168.5 -347.5zM585 0h189l-29 -75q85 -19 128 -79t40 -146q-3 -119 -74.5 -183.5t-173.5 -91t-199 -29.5l2 160q47 1 98.5 11t90.5 39t48 85q10 54 -20 78t-75.5 31t-85.5 11z" />
    <glyph glyph-name="egrave" unicode="&#xe8;" horiz-adv-x="1628" 
d="M97 0zM707 -32q-222 3 -360 114t-194 288.5t-33 379.5q18 155 79 300t161 260.5t237 182t305 64.5q162 -2 272 -68.5t173 -176.5t84 -246t4 -278l-13 -100h-1150l32 204h911q17 113 -13 215.5t-107.5 167.5t-202.5 69q-162 5 -276 -82t-180 -222.5t-84 -278.5
q-16 -138 7.5 -270.5t108 -220t248.5 -91.5q134 -3 241.5 58t168.5 181l218 -63q-47 -131 -147 -218t-228.5 -129t-261.5 -40zM900 2128l197 -408h-215l-289 408h307z" />
    <glyph glyph-name="eacute" unicode="&#xe9;" horiz-adv-x="1628" 
d="M97 0zM707 -32q-222 3 -360 114t-194 288.5t-33 379.5q18 155 79 300t161 260.5t237 182t305 64.5q162 -2 272 -68.5t173 -176.5t84 -246t4 -278l-13 -100h-1150l32 204h911q17 113 -13 215.5t-107.5 167.5t-202.5 69q-162 5 -276 -82t-180 -222.5t-84 -278.5
q-16 -138 7.5 -270.5t108 -220t248.5 -91.5q134 -3 241.5 58t168.5 181l218 -63q-47 -131 -147 -218t-228.5 -129t-261.5 -40zM830 1720l296 408h253l-363 -408h-186z" />
    <glyph glyph-name="ecircumflex" unicode="&#xea;" horiz-adv-x="1628" 
d="M97 0zM707 -32q-222 3 -360 114t-194 288.5t-33 379.5q18 155 79 300t161 260.5t237 182t305 64.5q162 -2 272 -68.5t173 -176.5t84 -246t4 -278l-13 -100h-1150l32 204h911q17 113 -13 215.5t-107.5 167.5t-202.5 69q-162 5 -276 -82t-180 -222.5t-84 -278.5
q-16 -138 7.5 -270.5t108 -220t248.5 -91.5q134 -3 241.5 58t168.5 181l218 -63q-47 -131 -147 -218t-228.5 -129t-261.5 -40zM717 1792l274 240l197 -240l190 -3l8 22l-283 373h-130l-429 -373l-7 -23z" />
    <glyph glyph-name="edieresis" unicode="&#xeb;" horiz-adv-x="1624" 
d="M698 1755q-61 -1 -106.5 46.5t-46.5 108.5q-1 65 45 115.5t113 51.5q65 1 108.5 -44.5t44.5 -110.5q0 -65 -45.5 -116t-112.5 -51zM1249 1755q-61 -1 -106.5 46.5t-46.5 108.5q-1 65 45 115.5t112 51.5t109.5 -44.5t44.5 -110.5q0 -65 -45.5 -116t-112.5 -51zM694 -32
q-222 3 -357.5 114.5t-189 289t-28.5 378.5q20 155 83 300.5t165 261t239.5 182t306.5 63.5q162 -3 270.5 -69t170 -176.5t80.5 -246t1 -277.5l-15 -100h-1075q-14 -129 16.5 -244t114 -188t228.5 -76q135 -4 243.5 57t170.5 181l217 -62q-47 -133 -148 -219.5t-230 -128.5
t-263 -40zM901 1344q-139 4 -241.5 -60t-173 -169.5t-113.5 -223.5h842q20 114 -8 216t-104 167.5t-202 69.5z" />
    <glyph glyph-name="igrave" unicode="&#xec;" horiz-adv-x="652" 
d="M58 0zM555 1536l-266 -1536h-231l267 1536h230zM426 2132l197 -408h-215l-289 408h307z" />
    <glyph glyph-name="iacute" unicode="&#xed;" horiz-adv-x="652" 
d="M58 0zM555 1536l-266 -1536h-231l267 1536h230zM356 1724l296 408h253l-363 -408h-186z" />
    <glyph glyph-name="icircumflex" unicode="&#xee;" horiz-adv-x="652" 
d="M58 0zM555 1536l-266 -1536h-231l267 1536h230zM242 1796l274 240l197 -240l190 -3l8 22l-283 373h-130l-429 -373l-7 -23z" />
    <glyph glyph-name="idieresis" unicode="&#xef;" horiz-adv-x="1272" 
d="M527 1755q-61 0 -106 47t-46 107q-1 66 44.5 116.5t112.5 51.5q66 2 109.5 -44t44.5 -111q0 -66 -46 -116t-113 -51zM1078 1755q-61 0 -106 47t-46 107q-1 66 44.5 116.5t112.5 51.5q66 2 109.5 -44t43.5 -111q1 -66 -45 -116t-113 -51zM853 1536l-267 -1536h-230
l266 1536h231z" />
    <glyph glyph-name="eth" unicode="&#xf0;" horiz-adv-x="1616" 
d="M651 -33q-204 4 -331.5 108.5t-179.5 270t-29 351.5q16 134 71.5 267.5t146 242.5t213 173t272.5 60q131 -4 236.5 -72.5t159.5 -187.5l24 -1q-11 149 -79 288.5t-158 254.5l-381 -173l-43 159l300 134q-50 52 -110.5 93t-123.5 76l116 165q172 -102 308 -243l365 166
l44 -159l-294 -130q147 -253 216 -504.5t28 -547.5q-21 -155 -80 -298t-155.5 -255t-230.5 -176.5t-305 -61.5zM663 179q149 -4 259.5 68.5t178.5 191.5t88 256q13 90 4.5 185t-44.5 176.5t-106 133t-179 54.5q-153 5 -262.5 -76t-175 -208.5t-85.5 -263.5
q-17 -121 5 -238.5t97.5 -196t219.5 -82.5z" />
    <glyph glyph-name="ntilde" unicode="&#xf1;" horiz-adv-x="1620" 
d="M1249 2100l169 -13q-7 -91 -45.5 -170.5t-108.5 -127.5t-170 -47q-67 1 -120 34.5t-105.5 66t-116.5 32.5q-67 -1 -105.5 -48.5t-50.5 -105.5l-179 7q8 90 49 171t112 131t171 48q65 -1 118.5 -34.5t106.5 -66t117 -32.5q67 1 106.5 48.5t51.5 106.5zM444 908l-155 -908
h-231l267 1536h231l-53 -261h11q80 131 203 207.5t280 73.5q163 -2 256 -87.5t125.5 -217.5t15.5 -275l-166 -976h-231l164 961q12 91 -9.5 173.5t-81 136t-160.5 57.5q-121 5 -219.5 -53.5t-163 -156t-83.5 -210.5z" />
    <glyph glyph-name="ograve" unicode="&#xf2;" horiz-adv-x="1664" 
d="M105 0zM688 -32q-163 2 -278.5 69.5t-184.5 180t-94.5 251.5t-8.5 285q18 156 79 301t161.5 259t237.5 179.5t307 62.5q164 -2 279 -70t184 -181.5t94 -253t9 -285.5q-18 -156 -79.5 -300t-162.5 -257.5t-237.5 -178.5t-305.5 -62zM699 180q163 -4 277 83t180.5 223
t85.5 280q13 96 3.5 196.5t-47.5 186t-111.5 139t-190.5 56.5q-163 4 -277.5 -84t-180.5 -225.5t-85 -280.5q-13 -96 -4 -196t47.5 -184.5t112 -137.5t190.5 -56zM904 2128l197 -408h-215l-289 408h307z" />
    <glyph glyph-name="oacute" unicode="&#xf3;" horiz-adv-x="1664" 
d="M105 0zM688 -32q-163 2 -278.5 69.5t-184.5 180t-94.5 251.5t-8.5 285q18 156 79 301t161.5 259t237.5 179.5t307 62.5q164 -2 279 -70t184 -181.5t94 -253t9 -285.5q-18 -156 -79.5 -300t-162.5 -257.5t-237.5 -178.5t-305.5 -62zM699 180q163 -4 277 83t180.5 223
t85.5 280q13 96 3.5 196.5t-47.5 186t-111.5 139t-190.5 56.5q-163 4 -277.5 -84t-180.5 -225.5t-85 -280.5q-13 -96 -4 -196t47.5 -184.5t112 -137.5t190.5 -56zM834 1720l296 408h253l-363 -408h-186z" />
    <glyph glyph-name="ocircumflex" unicode="&#xf4;" horiz-adv-x="1664" 
d="M105 0zM688 -32q-163 2 -278.5 69.5t-184.5 180t-94.5 251.5t-8.5 285q18 156 79 301t161.5 259t237.5 179.5t307 62.5q164 -2 279 -70t184 -181.5t94 -253t9 -285.5q-18 -156 -79.5 -300t-162.5 -257.5t-237.5 -178.5t-305.5 -62zM699 180q163 -4 277 83t180.5 223
t85.5 280q13 96 3.5 196.5t-47.5 186t-111.5 139t-190.5 56.5q-163 4 -277.5 -84t-180.5 -225.5t-85 -280.5q-13 -96 -4 -196t47.5 -184.5t112 -137.5t190.5 -56zM721 1792l274 240l197 -240l190 -3l8 22l-283 373h-130l-429 -373l-7 -23z" />
    <glyph glyph-name="otilde" unicode="&#xf5;" horiz-adv-x="1664" 
d="M1322 2100l168 -13q-6 -92 -44.5 -171t-108.5 -127.5t-170 -46.5q-67 1 -120 34.5t-105.5 66t-117.5 32.5q-66 -1 -104.5 -48.5t-50.5 -105.5l-179 7q8 90 48.5 171t111.5 131t170 48q66 -1 119.5 -34.5t106.5 -66t118 -32.5q67 1 106.5 48.5t51.5 106.5zM674 -32
q-163 2 -277 70t-181.5 180.5t-90.5 251t-5 283.5q20 157 83 302t165 259t240.5 179.5t307.5 62.5q165 -3 279 -71t181 -181t90 -252.5t5 -285.5q-20 -156 -83 -300.5t-165.5 -257.5t-240.5 -178t-308 -62zM686 179q164 -4 280 83t184.5 223.5t89.5 281.5q14 95 6.5 195
t-43.5 185.5t-108.5 139.5t-189.5 58q-164 4 -280 -84t-184.5 -226t-89.5 -282q-14 -95 -7 -194.5t43.5 -184.5t109.5 -138.5t189 -56.5z" />
    <glyph glyph-name="odieresis" unicode="&#xf6;" horiz-adv-x="1664" 
d="M718 1755q-62 -1 -107 46.5t-46 108.5q-1 65 45 115.5t112 51.5t109.5 -44.5t43.5 -110.5q1 -65 -44.5 -115.5t-112.5 -51.5zM1269 1755q-62 -1 -107 46.5t-46 108.5q-1 65 45 115.5t112 51.5t109.5 -44.5t43.5 -110.5q1 -65 -44.5 -115.5t-112.5 -51.5zM674 -32
q-163 3 -277 70.5t-181.5 180t-90.5 251t-5 284.5q20 156 83 301t165 259t240.5 179.5t308.5 62.5q164 -3 278 -71t181 -181t90 -252.5t4 -285.5q-19 -156 -82.5 -300t-166 -257.5t-240 -178.5t-307.5 -62zM686 180q164 -5 280 82t184.5 223.5t89.5 281.5q14 95 6.5 195
t-43.5 185.5t-108.5 139.5t-189.5 57q-164 5 -280 -83t-184.5 -226t-89.5 -282q-14 -95 -6.5 -194.5t43.5 -184.5t109 -138t189 -56z" />
    <glyph glyph-name="divide" unicode="&#xf7;" horiz-adv-x="1792" 
d="M808 1402q-1 74 45 120t120 47q69 1 114.5 -42t46.5 -113q0 -72 -47 -117t-118 -46q-69 -1 -115 40t-46 111zM1523 1008l-39 -220h-1243l39 220h1243zM630 374q-1 74 45 122t120 49q70 1 115 -44t46 -115q0 -72 -47 -117t-118 -46q-69 -1 -115 40t-46 111z" />
    <glyph glyph-name="oslash" unicode="&#xf8;" horiz-adv-x="1664" 
d="M213 -82l-140 113l139 155q-71 132 -90 275.5t0 291.5q20 157 83 302t165 259t239.5 179.5t308.5 62.5q90 -1 175.5 -24.5t161.5 -72.5l124 148l141 -114l-139 -155q71 -134 89.5 -278.5t-0.5 -293.5q-20 -156 -83 -300.5t-165 -257.5t-240 -178t-308 -63
q-89 1 -174.5 24.5t-159.5 73.5zM352 755q-14 -93 -14 -187.5t27 -185.5l751 900q-45 34 -99 48.5t-109 15.5q-165 3 -280.5 -84.5t-184 -224.5t-91.5 -282zM686 178q165 -2 280.5 84.5t183.5 222.5t91 281q15 93 14 188.5t-28 186.5l-750 -899q44 -34 98.5 -48.5
t110.5 -15.5z" />
    <glyph glyph-name="ugrave" unicode="&#xf9;" horiz-adv-x="1620" 
d="M142 0zM1105 608l159 928h230l-266 -1536h-231l45 217h-11q-88 -112 -209.5 -177t-267.5 -61q-154 4 -246.5 93t-129 221.5t-19.5 266.5l166 976h230l-166 -977q-18 -138 43 -242t211 -109q120 -4 218 48.5t162 144.5t82 207zM901 2128l197 -408h-215l-289 408h307z" />
    <glyph glyph-name="uacute" unicode="&#xfa;" horiz-adv-x="1620" 
d="M142 0zM1105 608l159 928h230l-266 -1536h-231l45 217h-11q-88 -112 -209.5 -177t-267.5 -61q-154 4 -246.5 93t-129 221.5t-19.5 266.5l166 976h230l-166 -977q-18 -138 43 -242t211 -109q120 -4 218 48.5t162 144.5t82 207zM831 1720l296 408h253l-363 -408h-186z" />
    <glyph glyph-name="ucircumflex" unicode="&#xfb;" horiz-adv-x="1620" 
d="M142 0zM1105 608l159 928h230l-266 -1536h-231l45 217h-11q-88 -112 -209.5 -177t-267.5 -61q-154 4 -246.5 93t-129 221.5t-19.5 266.5l166 976h230l-166 -977q-18 -138 43 -242t211 -109q120 -4 218 48.5t162 144.5t82 207zM717 1792l274 240l197 -240l190 -3l8 22
l-283 373h-130l-429 -373l-7 -23z" />
    <glyph glyph-name="udieresis" unicode="&#xfc;" horiz-adv-x="1620" 
d="M695 1755q-62 0 -107.5 47t-46.5 108q-1 65 45 115.5t113 51.5q66 1 109 -44.5t44 -110.5q0 -65 -45.5 -115.5t-111.5 -51.5zM1245 1755q-61 0 -106.5 47t-46.5 108q-1 65 45 115.5t113 51.5q65 1 108.5 -44.5t44.5 -110.5q0 -65 -45.5 -115.5t-112.5 -51.5zM1104 608
l159 928h230l-266 -1536h-231l45 217h-11q-88 -112 -209.5 -176t-266.5 -61q-154 4 -246.5 93t-128.5 221.5t-21 265.5l166 976h230l-166 -977q-17 -137 43.5 -241t210.5 -109q119 -5 217 48t162 145t83 206z" />
    <glyph glyph-name="yacute" unicode="&#xfd;" horiz-adv-x="1552" 
d="M0 0zM416 -153l80 157l-283 1532h240l195 -1225h17l625 1225h260l-947 -1785q-75 -151 -194 -251t-296 -97q-45 1 -89.5 7.5t-87.5 23.5l82 205q146 -39 239 18.5t159 189.5zM791 1720l296 408h253l-363 -408h-186z" />
    <glyph glyph-name="thorn" unicode="&#xfe;" horiz-adv-x="1700" 
d="M413 2048h231l-138 -758h16q91 122 198.5 195.5t269.5 71.5q161 -1 269 -71.5t168 -186t78.5 -254t1.5 -275.5q-19 -148 -76.5 -292t-152.5 -261t-226.5 -185t-297.5 -63q-286 7 -397 268h-22l-146 -813h-231zM1277 775q13 93 7 191.5t-40.5 183t-105 138t-186.5 57.5
q-163 4 -274.5 -83t-175.5 -223t-83 -278q-13 -92 -8.5 -192t36.5 -187.5t101 -143.5t186 -59q122 -4 216.5 48t162 140t108.5 194.5t56 213.5z" />
    <glyph glyph-name="ydieresis" unicode="&#xff;" horiz-adv-x="1504" 
d="M641 1755q-61 0 -106.5 47t-46.5 108q-1 65 45 115.5t113 51.5q65 1 108.5 -44.5t43.5 -110.5q1 -65 -44.5 -115.5t-112.5 -51.5zM1192 1755q-61 0 -106.5 47t-46.5 108q-1 65 45 115.5t112 51.5t109.5 -44.5t43.5 -110.5q1 -65 -44.5 -115.5t-112.5 -51.5zM415 -153
l81 157l-283 1532h240l195 -1225h17l625 1225h260l-947 -1785q-74 -151 -194 -252t-297 -98q-45 1 -89.5 8t-86.5 24l82 206q145 -37 237.5 20.5t159.5 187.5z" />
    <glyph glyph-name="Amacron" unicode="&#x100;" horiz-adv-x="1888" 
d="M0 0zM177 0h-264l1085 2048h250l374 -2048h-243l-93 548h-826zM1067 1725l-494 -957h676l-158 957h-24zM1683 2528l-32 -204h-914l33 204h913z" />
    <glyph glyph-name="amacron" unicode="&#x101;" horiz-adv-x="1572" 
d="M53 0zM956 0l37 210l-8 -1q-79 -123 -205 -185.5t-272 -60.5q-135 2 -239.5 60.5t-160 162t-45.5 242.5q9 129 69 213t152.5 134t202 75.5t218.5 38.5q38 5 102 6t131.5 9t119 32t65.5 73v5q3 93 -12 168t-67.5 119.5t-160.5 46.5q-131 3 -247.5 -56.5t-181.5 -174.5
l-214 80q90 187 265.5 274.5t376.5 84.5q245 -4 370 -151t99 -393l-171 -1012h-224zM1047 556l46 217q-45 -42 -119 -57.5t-152 -19.5t-136 -11q-83 -9 -169.5 -35t-149 -81.5t-75.5 -152.5q-16 -125 68 -182t194 -59q117 -2 221 44.5t177 133t95 203.5zM1447 2016l-32 -204
h-914l33 204h913z" />
    <glyph glyph-name="Abreve" unicode="&#x102;" horiz-adv-x="1888" 
d="M0 0zM177 0h-264l1085 2048h250l374 -2048h-243l-93 548h-826zM1067 1725l-494 -957h676l-158 957h-24zM1410 2584l212 1q-12 -177 -138.5 -275t-298.5 -94q-165 3 -266.5 102.5t-96.5 266.5l214 -1q-4 -82 31.5 -138t125.5 -59q93 -2 148.5 53.5t68.5 143.5z" />
    <glyph glyph-name="abreve" unicode="&#x103;" horiz-adv-x="1572" 
d="M53 0zM956 0l37 210l-8 -1q-79 -123 -205 -185.5t-272 -60.5q-135 2 -239.5 60.5t-160 162t-45.5 242.5q9 129 69 213t152.5 134t202 75.5t218.5 38.5q38 5 102 6t131.5 9t119 32t65.5 73v5q3 93 -12 168t-67.5 119.5t-160.5 46.5q-131 3 -247.5 -56.5t-181.5 -174.5
l-214 80q90 187 265.5 274.5t376.5 84.5q245 -4 370 -151t99 -393l-171 -1012h-224zM1047 556l46 217q-45 -42 -119 -57.5t-152 -19.5t-136 -11q-83 -9 -169.5 -35t-149 -81.5t-75.5 -152.5q-16 -125 68 -182t194 -59q117 -2 221 44.5t177 133t95 203.5zM1174 2072l212 1
q-12 -177 -138.5 -275t-298.5 -94q-165 3 -266.5 102.5t-96.5 266.5l214 -1q-4 -82 31.5 -138t125.5 -59q93 -2 148.5 53.5t68.5 143.5z" />
    <glyph glyph-name="Aogonek" unicode="&#x104;" horiz-adv-x="1888" 
d="M177 0h-264l1085 2048h250l374 -2048h-18l4 -3q-52 -37 -111 -82t-103.5 -101t-53.5 -126q-11 -86 77 -88q35 0 69 10.5t66 25.5l1 -178q-47 -31 -102.5 -44.5t-112.5 -12.5q-112 1 -178 73t-61 183q5 125 88 214t188 149l-89 528h-826zM1067 1725l-494 -957h676
l-158 957h-24z" />
    <glyph glyph-name="aogonek" unicode="&#x105;" horiz-adv-x="1572" 
d="M1148 -542q-47 -31 -102.5 -44.5t-112.5 -12.5q-112 1 -178 73t-61 183q5 122 84 209.5t181 147.5l34 196l-8 -1q-79 -123 -205 -185.5t-272 -60.5q-135 2 -239.5 60.5t-160 162t-45.5 242.5q9 129 69 213t152.5 134t202 75.5t218.5 38.5q38 5 102 6t131.5 9t119 32
t65.5 73v5q3 93 -12 168t-67.5 119.5t-160.5 46.5q-131 3 -247.5 -56.5t-181.5 -174.5l-214 80q90 187 265.5 274.5t376.5 84.5q245 -4 370 -151t99 -393l-169 -997l21 -18q-52 -37 -111 -82t-103.5 -101t-53.5 -126q-11 -86 77 -88q35 0 69 10.5t66 25.5zM1047 556l46 217
q-45 -42 -119 -57.5t-152 -19.5t-136 -11q-83 -9 -169.5 -35t-149 -81.5t-75.5 -152.5q-16 -125 68 -182t194 -59q117 -2 221 44.5t177 133t95 203.5z" />
    <glyph glyph-name="Cacute" unicode="&#x106;" horiz-adv-x="2032" 
d="M163 0zM1936 1406l-239 1q-22 197 -149.5 315t-327.5 122q-171 4 -308.5 -66.5t-239 -190t-164 -268t-85.5 -302.5q-20 -137 -8 -278.5t66 -262t159.5 -195t271.5 -78.5q143 -2 270.5 50.5t223.5 151.5t144 234l243 1q-51 -202 -184.5 -353t-318 -234.5t-390.5 -80.5
q-217 3 -365.5 94.5t-233.5 242.5t-111.5 335.5t-0.5 373.5q28 202 111.5 392.5t217.5 342t314 239t401 84.5q202 -2 352 -88t239.5 -236t111.5 -346zM1171 2232l296 408h253l-363 -408h-186z" />
    <glyph glyph-name="cacute" unicode="&#x107;" horiz-adv-x="1556" 
d="M105 0zM1435 1075h-226q-23 122 -106 193.5t-208 75.5q-160 4 -275 -82.5t-182 -222t-85 -277.5q-12 -96 -3 -196.5t46.5 -187t111 -141.5t189.5 -58q137 -3 243.5 69.5t156.5 198.5l232 1q-31 -151 -126.5 -259.5t-230 -166t-284.5 -55.5q-165 3 -281 71.5t-184.5 182
t-93 254t-8.5 287.5q18 153 79.5 296.5t162 257t236.5 178.5t303 62q218 -4 364.5 -133.5t168.5 -347.5zM826 1720l296 408h253l-363 -408h-186z" />
    <glyph glyph-name="Ccircumflex" unicode="&#x108;" horiz-adv-x="2032" 
d="M163 0zM1936 1406l-239 1q-22 197 -149.5 315t-327.5 122q-171 4 -308.5 -66.5t-239 -190t-164 -268t-85.5 -302.5q-20 -137 -8 -278.5t66 -262t159.5 -195t271.5 -78.5q143 -2 270.5 50.5t223.5 151.5t144 234l243 1q-51 -202 -184.5 -353t-318 -234.5t-390.5 -80.5
q-217 3 -365.5 94.5t-233.5 242.5t-111.5 335.5t-0.5 373.5q28 202 111.5 392.5t217.5 342t314 239t401 84.5q202 -2 352 -88t239.5 -236t111.5 -346zM1057 2304l274 240l197 -240l190 -3l8 22l-283 373h-130l-429 -373l-7 -23z" />
    <glyph glyph-name="ccircumflex" unicode="&#x109;" horiz-adv-x="1556" 
d="M105 0zM1435 1075h-226q-23 122 -106 193.5t-208 75.5q-160 4 -275 -82.5t-182 -222t-85 -277.5q-12 -96 -3 -196.5t46.5 -187t111 -141.5t189.5 -58q137 -3 243.5 69.5t156.5 198.5l232 1q-31 -151 -126.5 -259.5t-230 -166t-284.5 -55.5q-165 3 -281 71.5t-184.5 182
t-93 254t-8.5 287.5q18 153 79.5 296.5t162 257t236.5 178.5t303 62q218 -4 364.5 -133.5t168.5 -347.5zM713 1792l274 240l197 -240l190 -3l8 22l-283 373h-130l-429 -373l-7 -23z" />
    <glyph glyph-name="Cdotaccent" unicode="&#x10a;" horiz-adv-x="2032" 
d="M163 0zM1936 1406l-239 1q-22 197 -149.5 315t-327.5 122q-171 4 -308.5 -66.5t-239 -190t-164 -268t-85.5 -302.5q-20 -137 -8 -278.5t66 -262t159.5 -195t271.5 -78.5q143 -2 270.5 50.5t223.5 151.5t144 234l243 1q-51 -202 -184.5 -353t-318 -234.5t-390.5 -80.5
q-217 3 -365.5 94.5t-233.5 242.5t-111.5 335.5t-0.5 373.5q28 202 111.5 392.5t217.5 342t314 239t401 84.5q202 -2 352 -88t239.5 -236t111.5 -346zM1180 2423q-1 68 40.5 114.5t111.5 47.5q68 1 111 -41.5t44 -110.5q0 -68 -44.5 -110.5t-111.5 -43.5q-65 -1 -107.5 38
t-43.5 106z" />
    <glyph glyph-name="cdotaccent" unicode="&#x10b;" horiz-adv-x="1556" 
d="M105 0zM1435 1075h-226q-23 122 -106 193.5t-208 75.5q-160 4 -275 -82.5t-182 -222t-85 -277.5q-12 -96 -3 -196.5t46.5 -187t111 -141.5t189.5 -58q137 -3 243.5 69.5t156.5 198.5l232 1q-31 -151 -126.5 -259.5t-230 -166t-284.5 -55.5q-165 3 -281 71.5t-184.5 182
t-93 254t-8.5 287.5q18 153 79.5 296.5t162 257t236.5 178.5t303 62q218 -4 364.5 -133.5t168.5 -347.5zM835 1911q-1 68 40.5 114.5t111.5 47.5q68 1 111 -41.5t44 -110.5q0 -68 -44.5 -110.5t-111.5 -43.5q-65 -1 -107.5 38t-43.5 106z" />
    <glyph glyph-name="Ccaron" unicode="&#x10c;" horiz-adv-x="2032" 
d="M163 0zM1936 1406l-239 1q-22 197 -149.5 315t-327.5 122q-171 4 -308.5 -66.5t-239 -190t-164 -268t-85.5 -302.5q-20 -137 -8 -278.5t66 -262t159.5 -195t271.5 -78.5q143 -2 270.5 50.5t223.5 151.5t144 234l243 1q-51 -202 -184.5 -353t-318 -234.5t-390.5 -80.5
q-217 3 -365.5 94.5t-233.5 242.5t-111.5 335.5t-0.5 373.5q28 202 111.5 392.5t217.5 342t314 239t401 84.5q202 -2 352 -88t239.5 -236t111.5 -346zM1116 2628l189 -239l279 238l193 3v-20l-411 -374h-133l-300 374l1 21z" />
    <glyph glyph-name="ccaron" unicode="&#x10d;" horiz-adv-x="1556" 
d="M105 0zM1435 1075h-226q-23 122 -106 193.5t-208 75.5q-160 4 -275 -82.5t-182 -222t-85 -277.5q-12 -96 -3 -196.5t46.5 -187t111 -141.5t189.5 -58q137 -3 243.5 69.5t156.5 198.5l232 1q-31 -151 -126.5 -259.5t-230 -166t-284.5 -55.5q-165 3 -281 71.5t-184.5 182
t-93 254t-8.5 287.5q18 153 79.5 296.5t162 257t236.5 178.5t303 62q218 -4 364.5 -133.5t168.5 -347.5zM771 2116l189 -239l279 238l193 3v-20l-411 -374h-133l-300 374l1 21z" />
    <glyph glyph-name="Dcaron" unicode="&#x10e;" horiz-adv-x="2008" 
d="M89 0zM718 0h-629l355 2048h627q223 -3 379.5 -84.5t250 -222t124.5 -322.5t3 -387q-42 -298 -187 -531.5t-379 -367.5t-544 -133zM1046 1828h-397l-279 -1608l342 -1q247 0 432.5 104.5t300 288.5t149.5 421q32 209 -10 388.5t-172.5 291t-365.5 115.5zM892 2628
l189 -239l279 238l193 3v-20l-411 -374h-133l-300 374l1 21z" />
    <glyph glyph-name="dcaron" unicode="&#x10f;" horiz-adv-x="1850" 
d="M103 0zM1304 0h-223l48 238h-19q-92 -123 -203.5 -198.5t-273.5 -73.5q-161 2 -268 74t-166.5 188.5t-77.5 255t-1 273.5q19 149 77 292.5t154 259.5t228 183t298 63q283 -8 398 -264h18l136 757h231zM351 761q-13 -93 -7.5 -193t39.5 -187t104.5 -143t186.5 -59
q123 -4 216.5 48t159.5 140t106 195t54 213q13 92 8 190.5t-38 183.5t-102 138.5t-185 56.5q-162 5 -275.5 -82t-180 -223t-86.5 -278zM2027 2156l-20 -123q-26 -149 -87.5 -294.5t-154.5 -265.5l-197 40q61 124 118 251.5t83 263.5l24 128h234z" />
    <glyph glyph-name="Dcroat" unicode="&#x110;" horiz-adv-x="2038" 
d="M747 0h-629l163 936h-239l32 184h238l161 928h627q223 -3 379.5 -84.5t250 -222t124.5 -322.5t3 -387q-42 -298 -187 -531.5t-379 -367.5t-544 -133zM930 1120l-33 -184h-374l-124 -716l342 -1q247 0 432.5 104.5t300 288.5t149.5 421q32 209 -10 388.5t-172.5 291
t-365.5 115.5h-397l-123 -708h375z" />
    <glyph glyph-name="dcroat" unicode="&#x111;" horiz-adv-x="1732" 
d="M1304 0h-223l48 238h-19q-92 -123 -203.5 -198.5t-273.5 -73.5q-161 2 -268 74t-166.5 188t-77.5 254.5t-1 274.5q19 149 77 293t154 259.5t228 182.5t298 63q283 -8 398 -264h18l82 445h-392l32 184h391l23 128h231l-23 -128h233l-32 -184h-233zM351 761
q-13 -93 -7.5 -193t39.5 -187.5t104.5 -143t186.5 -58.5q123 -4 216.5 48t159.5 140t106 194.5t54 213.5q13 92 8 190.5t-38 183.5t-102 138.5t-185 56.5q-162 5 -275.5 -82t-180 -223t-86.5 -278z" />
    <glyph glyph-name="Emacron" unicode="&#x112;" horiz-adv-x="1668" 
d="M89 0zM1344 220l-39 -220h-1216l355 2048h1201l-39 -220h-957l-121 -692h858l-38 -220h-857l-121 -696h974zM1619 2528l-32 -204h-914l33 204h913z" />
    <glyph glyph-name="emacron" unicode="&#x113;" horiz-adv-x="1628" 
d="M97 0zM707 -32q-222 3 -360 114t-194 288.5t-33 379.5q18 155 79 300t161 260.5t237 182t305 64.5q162 -2 272 -68.5t173 -176.5t84 -246t4 -278l-13 -100h-1150l32 204h911q17 113 -13 215.5t-107.5 167.5t-202.5 69q-162 5 -276 -82t-180 -222.5t-84 -278.5
q-16 -138 7.5 -270.5t108 -220t248.5 -91.5q134 -3 241.5 58t168.5 181l218 -63q-47 -131 -147 -218t-228.5 -129t-261.5 -40zM1462 2016l-32 -204h-914l33 204h913z" />
    <glyph glyph-name="Ebreve" unicode="&#x114;" horiz-adv-x="1668" 
d="M89 0zM1344 220l-39 -220h-1216l355 2048h1201l-39 -220h-957l-121 -692h858l-38 -220h-857l-121 -696h974zM1346 2584l212 1q-12 -177 -138.5 -275t-298.5 -94q-165 3 -266.5 102.5t-96.5 266.5l214 -1q-4 -82 31.5 -138t125.5 -59q93 -2 148.5 53.5t68.5 143.5z" />
    <glyph glyph-name="ebreve" unicode="&#x115;" horiz-adv-x="1628" 
d="M97 0zM707 -32q-222 3 -360 114t-194 288.5t-33 379.5q18 155 79 300t161 260.5t237 182t305 64.5q162 -2 272 -68.5t173 -176.5t84 -246t4 -278l-13 -100h-1150l32 204h911q17 113 -13 215.5t-107.5 167.5t-202.5 69q-162 5 -276 -82t-180 -222.5t-84 -278.5
q-16 -138 7.5 -270.5t108 -220t248.5 -91.5q134 -3 241.5 58t168.5 181l218 -63q-47 -131 -147 -218t-228.5 -129t-261.5 -40zM1189 2072l212 1q-12 -177 -138.5 -275t-298.5 -94q-165 3 -266.5 102.5t-96.5 266.5l214 -1q-4 -82 31.5 -138t125.5 -59q93 -2 148.5 53.5
t68.5 143.5z" />
    <glyph glyph-name="Edotaccent" unicode="&#x116;" horiz-adv-x="1668" 
d="M89 0zM1344 220l-39 -220h-1216l355 2048h1201l-39 -220h-957l-121 -692h858l-38 -220h-857l-121 -696h974zM996 2423q-1 68 40.5 114.5t111.5 47.5q68 1 111 -41.5t44 -110.5q0 -68 -44.5 -110.5t-111.5 -43.5q-65 -1 -107.5 38t-43.5 106z" />
    <glyph glyph-name="edotaccent" unicode="&#x117;" horiz-adv-x="1628" 
d="M97 0zM707 -32q-222 3 -360 114t-194 288.5t-33 379.5q18 155 79 300t161 260.5t237 182t305 64.5q162 -2 272 -68.5t173 -176.5t84 -246t4 -278l-13 -100h-1150l32 204h911q17 113 -13 215.5t-107.5 167.5t-202.5 69q-162 5 -276 -82t-180 -222.5t-84 -278.5
q-16 -138 7.5 -270.5t108 -220t248.5 -91.5q134 -3 241.5 58t168.5 181l218 -63q-47 -131 -147 -218t-228.5 -129t-261.5 -40zM839 1911q-1 68 40.5 114.5t111.5 47.5q68 1 111 -41.5t44 -110.5q0 -68 -44.5 -110.5t-111.5 -43.5q-65 -1 -107.5 38t-43.5 106z" />
    <glyph glyph-name="Eogonek" unicode="&#x118;" horiz-adv-x="1668" 
d="M1344 220l-39 -220h-37l4 -3q-52 -37 -111 -82t-103.5 -101t-53.5 -126q-11 -86 77 -88q35 0 69 10.5t66 25.5l1 -178q-47 -31 -102.5 -44.5t-112.5 -12.5q-112 1 -178 73t-61 183q5 115 76.5 199.5t165.5 143.5h-916l355 2048h1201l-39 -220h-957l-121 -692h858
l-38 -220h-857l-121 -696h974z" />
    <glyph glyph-name="eogonek" unicode="&#x119;" horiz-adv-x="1628" 
d="M1065 -450q-48 -31 -103.5 -44.5t-112.5 -12.5q-112 1 -177.5 73t-61.5 183q3 64 28 118.5t65 100.5q-221 4 -358 115.5t-192.5 288t-32.5 378.5q18 155 79 300t161 260.5t237 182t305 64.5q162 -2 272 -68.5t173 -176.5t84 -246t4 -278l-13 -100h-1076
q-6 -127 24.5 -242t113 -189.5t232.5 -77.5q134 -3 241.5 58t168.5 181l218 -63q-39 -108 -115 -186t-173 -126q-69 -50 -131.5 -114t-72.5 -149q-11 -86 76 -88q36 0 69.5 10.5t65.5 25.5zM892 1344q-137 4 -240 -59t-171.5 -168t-102.5 -225h837q17 113 -13 215.5
t-107.5 167.5t-202.5 69z" />
    <glyph glyph-name="Ecaron" unicode="&#x11a;" horiz-adv-x="1668" 
d="M89 0zM1344 220l-39 -220h-1216l355 2048h1201l-39 -220h-957l-121 -692h858l-38 -220h-857l-121 -696h974zM932 2628l189 -239l279 238l193 3v-20l-411 -374h-133l-300 374l1 21z" />
    <glyph glyph-name="ecaron" unicode="&#x11b;" horiz-adv-x="1628" 
d="M97 0zM707 -32q-222 3 -360 114t-194 288.5t-33 379.5q18 155 79 300t161 260.5t237 182t305 64.5q162 -2 272 -68.5t173 -176.5t84 -246t4 -278l-13 -100h-1150l32 204h911q17 113 -13 215.5t-107.5 167.5t-202.5 69q-162 5 -276 -82t-180 -222.5t-84 -278.5
q-16 -138 7.5 -270.5t108 -220t248.5 -91.5q134 -3 241.5 58t168.5 181l218 -63q-47 -131 -147 -218t-228.5 -129t-261.5 -40zM775 2116l189 -239l279 238l193 3v-20l-411 -374h-133l-300 374l1 21z" />
    <glyph glyph-name="Gcircumflex" unicode="&#x11c;" horiz-adv-x="2076" 
d="M163 0zM1885 1016l-37 -219q-38 -237 -167.5 -424.5t-328 -295.5t-444.5 -105q-218 2 -368 93t-236 242t-113.5 336t-1.5 375q28 201 111 391t216 341.5t312 240t399 86.5q204 -3 349 -92.5t235.5 -240t129.5 -338.5l-241 1q-43 186 -164.5 309.5t-321.5 127.5
q-171 4 -307 -67t-236.5 -191.5t-162.5 -268.5t-84 -300q-21 -139 -8 -281.5t68.5 -262t162 -193.5t274.5 -77q182 -3 324.5 76t238 215t136.5 303l-493 -1l39 220h719zM1049 2304l274 240l197 -240l190 -3l8 22l-283 373h-130l-429 -373l-7 -23z" />
    <glyph glyph-name="gcircumflex" unicode="&#x11d;" horiz-adv-x="1700" 
d="M2 0zM1348 1536h223l-266 -1547q-27 -188 -133 -315t-263 -190t-340 -60q-179 3 -328.5 76.5t-238.5 233.5l195 131q70 -106 159.5 -165.5t222.5 -63.5q120 -3 226.5 39.5t179.5 127.5t93 209l52 274l-15 -1q-91 -122 -201.5 -193t-270.5 -70q-155 2 -262 67
t-169.5 172.5t-84 239.5t-5.5 268q18 148 76.5 290t155 255.5t228 179t295.5 61.5q283 -7 398 -264h25zM354 773q-18 -126 3.5 -248.5t99 -204t227.5 -85.5q159 -4 270 75t175 207t83 270q13 92 6.5 188.5t-40 179t-102.5 134.5t-183 56q-160 4 -273 -80.5t-179.5 -217.5
t-86.5 -274zM785 1792l274 240l197 -240l190 -3l8 22l-283 373h-130l-429 -373l-7 -23z" />
    <glyph glyph-name="Gbreve" unicode="&#x11e;" horiz-adv-x="2076" 
d="M163 0zM1885 1016l-37 -219q-38 -237 -167.5 -424.5t-328 -295.5t-444.5 -105q-218 2 -368 93t-236 242t-113.5 336t-1.5 375q28 201 111 391t216 341.5t312 240t399 86.5q204 -3 349 -92.5t235.5 -240t129.5 -338.5l-241 1q-43 186 -164.5 309.5t-321.5 127.5
q-171 4 -307 -67t-236.5 -191.5t-162.5 -268.5t-84 -300q-21 -139 -8 -281.5t68.5 -262t162 -193.5t274.5 -77q182 -3 324.5 76t238 215t136.5 303l-493 -1l39 220h719zM1522 2584l212 1q-12 -177 -138.5 -275t-298.5 -94q-165 3 -266.5 102.5t-96.5 266.5l214 -1
q-4 -82 31.5 -138t125.5 -59q93 -2 148.5 53.5t68.5 143.5z" />
    <glyph glyph-name="gbreve" unicode="&#x11f;" horiz-adv-x="1700" 
d="M2 0zM1348 1536h223l-266 -1547q-27 -188 -133 -315t-263 -190t-340 -60q-179 3 -328.5 76.5t-238.5 233.5l195 131q70 -106 159.5 -165.5t222.5 -63.5q120 -3 226.5 39.5t179.5 127.5t93 209l52 274l-15 -1q-91 -122 -201.5 -193t-270.5 -70q-155 2 -262 67
t-169.5 172.5t-84 239.5t-5.5 268q18 148 76.5 290t155 255.5t228 179t295.5 61.5q283 -7 398 -264h25zM354 773q-18 -126 3.5 -248.5t99 -204t227.5 -85.5q159 -4 270 75t175 207t83 270q13 92 6.5 188.5t-40 179t-102.5 134.5t-183 56q-160 4 -273 -80.5t-179.5 -217.5
t-86.5 -274zM1258 2072l212 1q-12 -177 -138.5 -275t-298.5 -94q-165 3 -266.5 102.5t-96.5 266.5l214 -1q-4 -82 31.5 -138t125.5 -59q93 -2 148.5 53.5t68.5 143.5z" />
    <glyph glyph-name="Gdotaccent" unicode="&#x120;" horiz-adv-x="2076" 
d="M163 0zM1885 1016l-37 -219q-38 -237 -167.5 -424.5t-328 -295.5t-444.5 -105q-218 2 -368 93t-236 242t-113.5 336t-1.5 375q28 201 111 391t216 341.5t312 240t399 86.5q204 -3 349 -92.5t235.5 -240t129.5 -338.5l-241 1q-43 186 -164.5 309.5t-321.5 127.5
q-171 4 -307 -67t-236.5 -191.5t-162.5 -268.5t-84 -300q-21 -139 -8 -281.5t68.5 -262t162 -193.5t274.5 -77q182 -3 324.5 76t238 215t136.5 303l-493 -1l39 220h719zM1172 2423q-1 68 40.5 114.5t111.5 47.5q68 1 111 -41.5t44 -110.5q0 -68 -44.5 -110.5t-111.5 -43.5
q-65 -1 -107.5 38t-43.5 106z" />
    <glyph glyph-name="gdotaccent" unicode="&#x121;" horiz-adv-x="1700" 
d="M2 0zM1348 1536h223l-266 -1547q-27 -188 -133 -315t-263 -190t-340 -60q-179 3 -328.5 76.5t-238.5 233.5l195 131q70 -106 159.5 -165.5t222.5 -63.5q120 -3 226.5 39.5t179.5 127.5t93 209l52 274l-15 -1q-91 -122 -201.5 -193t-270.5 -70q-155 2 -262 67
t-169.5 172.5t-84 239.5t-5.5 268q18 148 76.5 290t155 255.5t228 179t295.5 61.5q283 -7 398 -264h25zM354 773q-18 -126 3.5 -248.5t99 -204t227.5 -85.5q159 -4 270 75t175 207t83 270q13 92 6.5 188.5t-40 179t-102.5 134.5t-183 56q-160 4 -273 -80.5t-179.5 -217.5
t-86.5 -274zM907 1911q-1 68 40.5 114.5t111.5 47.5q68 1 111 -41.5t44 -110.5q0 -68 -44.5 -110.5t-111.5 -43.5q-65 -1 -107.5 38t-43.5 106z" />
    <glyph glyph-name="Gcommaaccent" unicode="&#x122;" horiz-adv-x="2076" 
d="M163 0zM1885 1016l-37 -219q-38 -237 -167.5 -424.5t-328 -295.5t-444.5 -105q-218 2 -368 93t-236 242t-113.5 336t-1.5 375q28 201 111 391t216 341.5t312 240t399 86.5q204 -3 349 -92.5t235.5 -240t129.5 -338.5l-241 1q-43 186 -164.5 309.5t-321.5 127.5
q-171 4 -307 -67t-236.5 -191.5t-162.5 -268.5t-84 -300q-21 -139 -8 -281.5t68.5 -262t162 -193.5t274.5 -77q182 -3 324.5 76t238 215t136.5 303l-493 -1l39 220h719zM994 -144l-20 -123q-26 -149 -87.5 -294.5t-154.5 -265.5l-197 40q61 124 118 251.5t83 263.5l24 128
h234z" />
    <glyph glyph-name="gcommaaccent" unicode="&#x123;" horiz-adv-x="1700" 
d="M2 0zM1348 1536h223l-266 -1547q-27 -188 -133 -315t-263 -190t-340 -60q-179 3 -328.5 76.5t-238.5 233.5l195 131q70 -106 159.5 -165.5t222.5 -63.5q120 -3 226.5 39.5t179.5 127.5t93 209l52 274l-15 -1q-91 -122 -201.5 -193t-270.5 -70q-155 2 -262 67
t-169.5 172.5t-84 239.5t-5.5 268q18 148 76.5 290t155 255.5t228 179t295.5 61.5q283 -7 398 -264h25zM354 773q-18 -126 3.5 -248.5t99 -204t227.5 -85.5q159 -4 270 75t175 207t83 270q13 92 6.5 188.5t-40 179t-102.5 134.5t-183 56q-160 4 -273 -80.5t-179.5 -217.5
t-86.5 -274zM888 1740l28 174q19 126 90.5 239.5t170.5 191.5l143 -127q-48 -74 -83 -150.5t-51 -163.5l-29 -164h-269z" />
    <glyph glyph-name="Hcircumflex" unicode="&#x124;" horiz-adv-x="2068" 
d="M89 0zM687 2048l-159 -912h1058l158 912h243l-356 -2048h-242l159 916h-1057l-160 -916h-242l355 2048h243zM1025 2304l274 240l197 -240l190 -3l8 22l-283 373h-130l-429 -373l-7 -23z" />
    <glyph glyph-name="hcircumflex" unicode="&#x125;" horiz-adv-x="1620" 
d="M58 0zM448 928l-159 -928h-231l355 2048h231l-134 -729h11q88 112 210 175.5t266 61.5q161 -3 254 -89t126.5 -218t16.5 -273l-166 -976h-231l167 977q18 140 -41 243.5t-213 108.5q-121 4 -218.5 -48t-161 -144t-82.5 -209zM869 2304l274 240l197 -240l190 -3l8 22
l-283 373h-130l-429 -373l-7 -23z" />
    <glyph glyph-name="Hbar" unicode="&#x126;" horiz-adv-x="2016" 
d="M691 2048l-76 -432h1058l75 432h242l-75 -432h156l-37 -208h-155l-244 -1408h-242l159 916h-1058l-159 -916h-242l244 1408h-163l36 208h163l75 432h243zM532 1136h1058l47 272h-1057z" />
    <glyph glyph-name="hbar" unicode="&#x127;" horiz-adv-x="1650" 
d="M478 928l-159 -928h-231l298 1716h-288l32 184h288l25 148h231l-27 -148h338l-32 -184h-340l-73 -397h11q88 112 210 175.5t266 61.5q161 -3 254 -89t126.5 -218t16.5 -273l-166 -976h-231l167 977q18 140 -41 243.5t-213 108.5q-121 4 -218.5 -48t-161 -144t-82.5 -209z
" />
    <glyph glyph-name="Itilde" unicode="&#x128;" horiz-adv-x="728" 
d="M89 0zM687 2048l-356 -2048h-242l355 2048h243zM930 2611l167 -12q-6 -91 -44 -170.5t-107.5 -128t-169.5 -46.5q-67 1 -120.5 34t-105.5 66t-117 32q-66 0 -104 -47.5t-49 -105.5l-179 7q7 89 47.5 170t111 131.5t169.5 48.5q66 -1 119.5 -34.5t106.5 -66t118 -31.5
q66 0 105.5 47t51.5 106z" />
    <glyph glyph-name="itilde" unicode="&#x129;" horiz-adv-x="1240" 
d="M1119 2099l166 -12q-6 -91 -44.5 -170.5t-108.5 -128t-170 -47.5q-67 2 -120 35t-105.5 66t-117.5 33q-66 -1 -104.5 -48.5t-50.5 -105.5l-179 7q8 90 49 171t112.5 131.5t170.5 48.5q66 -2 119 -35.5t106 -66t117 -32.5q67 1 107.5 48t52.5 106zM842 1536l-266 -1536
h-231l267 1536h230z" />
    <glyph glyph-name="Imacron" unicode="&#x12a;" horiz-adv-x="728" 
d="M89 0zM687 2048l-356 -2048h-242l355 2048h243zM1087 2528l-32 -204h-914l33 204h913z" />
    <glyph glyph-name="imacron" unicode="&#x12b;" horiz-adv-x="652" 
d="M41 0zM555 1536l-266 -1536h-231l267 1536h230zM987 2020l-32 -204h-914l33 204h913z" />
    <glyph glyph-name="Ibreve" unicode="&#x12c;" horiz-adv-x="728" 
d="M89 0zM687 2048l-356 -2048h-242l355 2048h243zM814 2584l212 1q-12 -177 -138.5 -275t-298.5 -94q-165 3 -266.5 102.5t-96.5 266.5l214 -1q-4 -82 31.5 -138t125.5 -59q93 -2 148.5 53.5t68.5 143.5z" />
    <glyph glyph-name="ibreve" unicode="&#x12d;" horiz-adv-x="652" 
d="M58 0zM555 1536l-266 -1536h-231l267 1536h230zM715 2076l212 1q-12 -177 -138.5 -275t-298.5 -94q-165 3 -266.5 102.5t-96.5 266.5l214 -1q-4 -82 31.5 -138t125.5 -59q93 -2 148.5 53.5t68.5 143.5z" />
    <glyph glyph-name="Iogonek" unicode="&#x12e;" horiz-adv-x="728" 
d="M0 0zM687 2048l-356 -2048h-242l355 2048h243zM219 101l104 -88q-52 -37 -111 -82t-103.5 -101t-53.5 -126q-11 -86 77 -88q35 0 69 10.5t66 25.5l1 -178q-47 -31 -102.5 -44.5t-112.5 -12.5q-112 1 -178 73t-61 183q5 109 68.5 190.5t155.5 140t181 97.5z" />
    <glyph glyph-name="iogonek" unicode="&#x12f;" horiz-adv-x="652" 
d="M0 0zM502 1755q-68 -1 -114.5 43t-46.5 112q-1 69 47.5 117.5t117.5 49.5q65 1 112.5 -44t48.5 -110q1 -71 -47 -119.5t-118 -48.5zM555 1536l-266 -1536h-231l267 1536h230zM168 85l104 -88q-52 -37 -111 -82t-103.5 -101t-53.5 -126q-11 -86 77 -88q35 0 69 10.5
t66 25.5l1 -178q-47 -31 -102.5 -44.5t-112.5 -12.5q-112 1 -178 73t-61 183q5 109 68.5 190.5t155.5 140t181 97.5z" />
    <glyph glyph-name="Idotaccent" unicode="&#x130;" horiz-adv-x="728" 
d="M89 0zM687 2048l-356 -2048h-242l355 2048h243zM464 2423q-1 68 40.5 114.5t111.5 47.5q68 1 111 -41.5t44 -110.5q0 -68 -44.5 -110.5t-111.5 -43.5q-65 -1 -107.5 38t-43.5 106z" />
    <glyph glyph-name="dotlessi" unicode="&#x131;" horiz-adv-x="652" 
d="M555 1536l-266 -1536h-231l267 1536h230z" />
    <glyph glyph-name="IJ" unicode="&#x132;" horiz-adv-x="2392" 
d="M345 0zM943 2048l-356 -2048h-242l355 2048h243zM1861 583l250 1465h243l-252 -1464q-28 -180 -115.5 -320t-229.5 -218.5t-332 -74.5q-158 3 -273 73.5t-175 191.5t-51 277l234 -1q-9 -142 71 -228.5t223 -91.5q178 -7 280 110t127 281z" />
    <glyph glyph-name="ij" unicode="&#x133;" horiz-adv-x="1560" 
d="M314 0zM758 1755q-68 -1 -114.5 43t-46.5 112q-1 69 47.5 117.5t117.5 49.5q65 1 112.5 -44t48.5 -110q1 -71 -47 -119.5t-118 -48.5zM811 1536l-266 -1536h-231l267 1536h230zM1408 1755q-67 0 -113 43.5t-47 111.5q0 69 48 117.5t117 48.5q65 1 112 -43.5t48 -110.5
q1 -70 -47 -118t-118 -49zM1232 1536h230l-282 -1647q-30 -212 -153.5 -341t-345.5 -130h-53l24 221l40 -1q116 0 177.5 71t79.5 179z" />
    <glyph glyph-name="Jcircumflex" unicode="&#x134;" horiz-adv-x="1408" 
d="M0 0zM877 583l250 1465h243l-252 -1464q-28 -180 -115.5 -320t-229.5 -218.5t-332 -74.5q-158 3 -273 73.5t-175 191.5t-51 277l234 -1q-9 -142 71 -228.5t223 -91.5q178 -7 280 110t127 281zM1061 2304l274 240l197 -240l190 -3l8 22l-283 373h-130l-429 -373l-7 -23z
" />
    <glyph glyph-name="jcircumflex" unicode="&#x135;" horiz-adv-x="652" 
d="M0 0zM324 1536h230l-283 -1647q-30 -210 -153.5 -340t-344.5 -131h-53l24 221l40 -1q116 1 177.5 71.5t78.5 178.5zM220 1716l274 240l197 -240l190 -3l8 22l-283 373h-130l-429 -373l-7 -23z" />
    <glyph glyph-name="Kcommaaccent" unicode="&#x136;" horiz-adv-x="1820" 
d="M89 0zM1278 0l-524 951l-309 -296l-114 -655h-242l355 2048h243l-183 -1018h19l1068 1018h335l-1005 -935l632 -1113h-275zM873 -8l-20 -123q-26 -149 -87.5 -294.5t-154.5 -265.5l-197 40q61 124 118 251.5t83 263.5l24 128h234z" />
    <glyph glyph-name="kcommaaccent" unicode="&#x137;" horiz-adv-x="1484" 
d="M58 0zM1006 0l-406 730l-220 -203l-91 -527h-231l355 2048h231l-216 -1206h24l725 694h303l-711 -666l489 -870h-252zM677 -128l-20 -123q-26 -149 -87.5 -294.5t-154.5 -265.5l-197 40q61 124 118 251.5t83 263.5l24 128h234z" />
    <glyph glyph-name="kgreenlandic" unicode="&#x138;" horiz-adv-x="1760" 
d="M1011 0l-413 628h-138l-109 -628h-270l259 1488h269l-109 -624h98l625 624h342l-736 -730l502 -758h-320z" />
    <glyph glyph-name="Lacute" unicode="&#x139;" horiz-adv-x="1568" 
d="M89 0zM1294 220l-39 -220h-1166l355 2048h243l-317 -1828h924zM475 2232l296 408h253l-363 -408h-186z" />
    <glyph glyph-name="lacute" unicode="&#x13a;" horiz-adv-x="652" 
d="M58 0zM644 2048l-355 -2048h-231l355 2048h231zM431 2232l296 408h253l-363 -408h-186z" />
    <glyph glyph-name="Lcommaaccent" unicode="&#x13b;" horiz-adv-x="1568" 
d="M89 0zM1294 220l-39 -220h-1166l355 2048h243l-317 -1828h924zM795 -112l-20 -123q-26 -149 -87.5 -294.5t-154.5 -265.5l-197 40q61 124 118 251.5t83 263.5l24 128h234z" />
    <glyph glyph-name="lcommaaccent" unicode="&#x13c;" horiz-adv-x="652" 
d="M0 0zM644 2048l-355 -2048h-231l355 2048h231zM235 -112l-20 -123q-26 -149 -87.5 -294.5t-154.5 -265.5l-197 40q61 124 118 251.5t83 263.5l24 128h234z" />
    <glyph glyph-name="Lcaron" unicode="&#x13d;" horiz-adv-x="1568" 
d="M89 0zM1294 220l-39 -220h-1166l355 2048h243l-317 -1828h924zM1292 2044l-20 -123q-26 -149 -87.5 -294.5t-154.5 -265.5l-197 40q61 124 118 251.5t83 263.5l24 128h234z" />
    <glyph glyph-name="lcaron" unicode="&#x13e;" horiz-adv-x="802" 
d="M58 0zM644 2048l-355 -2048h-231l355 2048h231zM1083 2156l-20 -123q-26 -149 -87.5 -294.5t-154.5 -265.5l-197 40q61 124 118 251.5t83 263.5l24 128h234z" />
    <glyph glyph-name="Ldot" unicode="&#x13f;" horiz-adv-x="1568" 
d="M89 0zM1294 220l-39 -220h-1166l355 2048h243l-317 -1828h924zM853 1135q-1 68 40.5 114.5t111.5 47.5q68 1 111 -41.5t44 -110.5q0 -68 -44.5 -110.5t-111.5 -43.5q-65 -1 -107.5 38t-43.5 106z" />
    <glyph glyph-name="ldot" unicode="&#x140;" horiz-adv-x="872" 
d="M58 0zM644 2048l-355 -2048h-231l355 2048h231zM624 1107q-1 68 40.5 114.5t111.5 47.5q68 1 111 -41.5t44 -110.5q0 -68 -44.5 -110.5t-111.5 -43.5q-65 -1 -107.5 38t-43.5 106z" />
    <glyph glyph-name="L_slash" unicode="&#x141;" horiz-adv-x="1568" 
d="M1294 220l-39 -220h-1166l156 898l-193 -58l33 188l193 59l166 961h243l-154 -881l386 117l-33 -188l-385 -119l-131 -757h924z" />
    <glyph glyph-name="lslash" unicode="&#x142;" horiz-adv-x="652" 
d="M724 1285l-32 -186l-228 -83l-176 -1016h-231l161 925l-228 -82l32 186l228 83l162 936h231l-147 -845z" />
    <glyph glyph-name="Nacute" unicode="&#x143;" horiz-adv-x="2064" 
d="M89 0zM1983 2048l-356 -2048h-226l-765 1604l-21 1l-284 -1605h-242l355 2048h227l767 -1612l22 -1l284 1613h239zM1131 2232l296 408h253l-363 -408h-186z" />
    <glyph glyph-name="nacute" unicode="&#x144;" horiz-adv-x="1620" 
d="M58 0zM444 908l-155 -908h-231l267 1536h231l-53 -261h11q80 132 203 208t280 73q163 -3 256 -88t125.5 -217t15.5 -275l-166 -976h-231l164 961q12 91 -9.5 173.5t-80.5 136t-161 57.5q-121 5 -219.5 -53.5t-163 -156t-83.5 -210.5zM835 1720l296 408h253l-363 -408
h-186z" />
    <glyph glyph-name="Ncommaaccent" unicode="&#x145;" horiz-adv-x="2064" 
d="M89 0zM1983 2048l-356 -2048h-226l-765 1604l-21 1l-284 -1605h-242l355 2048h227l767 -1612l22 -1l284 1613h239zM931 -112l-20 -123q-26 -149 -87.5 -294.5t-154.5 -265.5l-197 40q61 124 118 251.5t83 263.5l24 128h234z" />
    <glyph glyph-name="ncommaaccent" unicode="&#x146;" horiz-adv-x="1620" 
d="M58 0zM444 908l-155 -908h-231l267 1536h231l-53 -261h11q80 132 203 208t280 73q163 -3 256 -88t125.5 -217t15.5 -275l-166 -976h-231l164 961q12 91 -9.5 173.5t-80.5 136t-161 57.5q-121 5 -219.5 -53.5t-163 -156t-83.5 -210.5zM753 -128l-20 -123
q-26 -149 -87.5 -294.5t-154.5 -265.5l-197 40q61 124 118 251.5t83 263.5l24 128h234z" />
    <glyph glyph-name="Ncaron" unicode="&#x147;" horiz-adv-x="2064" 
d="M89 0zM1983 2048l-356 -2048h-226l-765 1604l-21 1l-284 -1605h-242l355 2048h227l767 -1612l22 -1l284 1613h239zM1076 2628l189 -239l279 238l193 3v-20l-411 -374h-133l-300 374l1 21z" />
    <glyph glyph-name="ncaron" unicode="&#x148;" horiz-adv-x="1620" 
d="M58 0zM444 908l-155 -908h-231l267 1536h231l-53 -261h11q80 132 203 208t280 73q163 -3 256 -88t125.5 -217t15.5 -275l-166 -976h-231l164 961q12 91 -9.5 173.5t-80.5 136t-161 57.5q-121 5 -219.5 -53.5t-163 -156t-83.5 -210.5zM780 2116l189 -239l279 238l193 3
v-20l-411 -374h-133l-300 374l1 21z" />
    <glyph glyph-name="napostrophe" unicode="&#x149;" horiz-adv-x="1620" 
d="M0 0zM444 908l-155 -908h-231l267 1536h231l-53 -261h11q80 132 203 208t280 73q163 -3 256 -88t125.5 -217t15.5 -275l-166 -976h-231l164 961q12 91 -9.5 173.5t-80.5 136t-161 57.5q-121 5 -219.5 -53.5t-163 -156t-83.5 -210.5zM277 2164l-20 -123
q-26 -149 -87.5 -294.5t-154.5 -265.5l-197 40q61 124 118 251.5t83 263.5l24 128h234z" />
    <glyph glyph-name="Eng" unicode="&#x14a;" horiz-adv-x="2064" 
d="M1983 2048l-380 -2209q-25 -183 -145.5 -300t-309.5 -117q-36 0 -71 2.5t-70 11.5l22 203q40 -9 71 -10q107 -4 175 51t85 160l30 185l-754 1579l-21 1l-284 -1605h-242l355 2048h227l767 -1612l22 -1l284 1613h239z" />
    <glyph glyph-name="eng" unicode="&#x14b;" horiz-adv-x="1620" 
d="M444 908l-155 -908h-231l267 1536h231l-53 -261h11q80 132 203 208t280 73q163 -3 256 -88t125.5 -217t15.5 -275l-191 -1140q-24 -181 -141.5 -298t-305.5 -117q-36 0 -71 3t-70 11l21 201q40 -10 71 -11q107 -3 177 51t88 160l189 1125q12 90 -9.5 173t-80.5 136.5
t-161 57.5q-121 5 -219.5 -53.5t-163 -156t-83.5 -210.5z" />
    <glyph glyph-name="Omacron" unicode="&#x14c;" horiz-adv-x="2128" 
d="M163 0zM1943 1030q-28 -203 -111.5 -393t-217.5 -341t-314 -239t-401 -85q-217 3 -365 94.5t-233 243t-111.5 336t-0.5 372.5q28 203 111.5 393t217.5 341t314 239t401 85q217 -3 365 -94.5t233 -243t111.5 -336t0.5 -372.5zM1708 1031q20 137 8.5 278.5t-65.5 261.5
t-159 195t-272 78q-171 3 -308.5 -67t-238.5 -189.5t-164 -268t-85 -302.5q-21 -137 -9 -278.5t66 -261.5t159 -195t271 -78q172 -3 309.5 67t238.5 189.5t164 268t85 302.5zM1803 2528l-32 -204h-914l33 204h913z" />
    <glyph glyph-name="omacron" unicode="&#x14d;" horiz-adv-x="1664" 
d="M105 0zM688 -32q-163 2 -278.5 69.5t-184.5 180t-94.5 251.5t-8.5 285q18 156 79 301t161.5 259t237.5 179.5t307 62.5q164 -2 279 -70t184 -181.5t94 -253t9 -285.5q-18 -156 -79.5 -300t-162.5 -257.5t-237.5 -178.5t-305.5 -62zM699 180q163 -4 277 83t180.5 223
t85.5 280q13 96 3.5 196.5t-47.5 186t-111.5 139t-190.5 56.5q-163 4 -277.5 -84t-180.5 -225.5t-85 -280.5q-13 -96 -4 -196t47.5 -184.5t112 -137.5t190.5 -56zM1466 2016l-32 -204h-914l33 204h913z" />
    <glyph glyph-name="Obreve" unicode="&#x14e;" horiz-adv-x="2128" 
d="M163 0zM1943 1030q-28 -203 -111.5 -393t-217.5 -341t-314 -239t-401 -85q-217 3 -365 94.5t-233 243t-111.5 336t-0.5 372.5q28 203 111.5 393t217.5 341t314 239t401 85q217 -3 365 -94.5t233 -243t111.5 -336t0.5 -372.5zM1708 1031q20 137 8.5 278.5t-65.5 261.5
t-159 195t-272 78q-171 3 -308.5 -67t-238.5 -189.5t-164 -268t-85 -302.5q-21 -137 -9 -278.5t66 -261.5t159 -195t271 -78q172 -3 309.5 67t238.5 189.5t164 268t85 302.5zM1530 2584l212 1q-12 -177 -138.5 -275t-298.5 -94q-165 3 -266.5 102.5t-96.5 266.5l214 -1
q-4 -82 31.5 -138t125.5 -59q93 -2 148.5 53.5t68.5 143.5z" />
    <glyph glyph-name="obreve" unicode="&#x14f;" horiz-adv-x="1664" 
d="M105 0zM688 -32q-163 2 -278.5 69.5t-184.5 180t-94.5 251.5t-8.5 285q18 156 79 301t161.5 259t237.5 179.5t307 62.5q164 -2 279 -70t184 -181.5t94 -253t9 -285.5q-18 -156 -79.5 -300t-162.5 -257.5t-237.5 -178.5t-305.5 -62zM699 180q163 -4 277 83t180.5 223
t85.5 280q13 96 3.5 196.5t-47.5 186t-111.5 139t-190.5 56.5q-163 4 -277.5 -84t-180.5 -225.5t-85 -280.5q-13 -96 -4 -196t47.5 -184.5t112 -137.5t190.5 -56zM1193 2072l212 1q-12 -177 -138.5 -275t-298.5 -94q-165 3 -266.5 102.5t-96.5 266.5l214 -1
q-4 -82 31.5 -138t125.5 -59q93 -2 148.5 53.5t68.5 143.5z" />
    <glyph glyph-name="Ohungarumlaut" unicode="&#x150;" horiz-adv-x="2128" 
d="M163 0zM1943 1030q-28 -203 -111.5 -393t-217.5 -341t-314 -239t-401 -85q-217 3 -365 94.5t-233 243t-111.5 336t-0.5 372.5q28 203 111.5 393t217.5 341t314 239t401 85q217 -3 365 -94.5t233 -243t111.5 -336t0.5 -372.5zM1708 1031q20 137 8.5 278.5t-65.5 261.5
t-159 195t-272 78q-171 3 -308.5 -67t-238.5 -189.5t-164 -268t-85 -302.5q-21 -137 -9 -278.5t66 -261.5t159 -195t271 -78q172 -3 309.5 67t238.5 189.5t164 268t85 302.5zM1341 2218l373 424h275l-427 -424h-221zM944 2218l289 423l270 1l-361 -424h-198z" />
    <glyph glyph-name="ohungarumlaut" unicode="&#x151;" horiz-adv-x="1664" 
d="M105 0zM688 -32q-163 2 -278.5 69.5t-184.5 180t-94.5 251.5t-8.5 285q18 156 79 301t161.5 259t237.5 179.5t307 62.5q164 -2 279 -70t184 -181.5t94 -253t9 -285.5q-18 -156 -79.5 -300t-162.5 -257.5t-237.5 -178.5t-305.5 -62zM699 180q163 -4 277 83t180.5 223
t85.5 280q13 96 3.5 196.5t-47.5 186t-111.5 139t-190.5 56.5q-163 4 -277.5 -84t-180.5 -225.5t-85 -280.5q-13 -96 -4 -196t47.5 -184.5t112 -137.5t190.5 -56zM1004 1706l373 424h275l-427 -424h-221zM607 1706l289 423l270 1l-361 -424h-198z" />
    <glyph glyph-name="OE" unicode="&#x152;" horiz-adv-x="2636" 
d="M1112 2048h1506l-39 -220h-958l-120 -692h858l-39 -220h-857l-121 -696h975l-39 -220h-1491q-227 6 -375 121t-210.5 299t-32.5 396l70 420q35 226 151 410t300 293t422 109zM796 221l304 -1l279 1608l-276 1q-176 1 -300 -80t-198 -216t-100 -297l-69 -421
q-15 -105 -7 -209t47 -190t117 -139t203 -56z" />
    <glyph glyph-name="oe" unicode="&#x153;" horiz-adv-x="2772" 
d="M674 -32q-163 3 -277 70.5t-181.5 180t-90.5 251t-5 283.5q19 157 82 302t165.5 259t241 179.5t308.5 62.5q163 -3 305 -84.5t204 -237.5q112 148 265.5 237t343.5 86q161 -3 270 -69.5t170 -176.5t80 -245.5t1 -277.5l-15 -100h-1075q-13 -129 17.5 -244t113.5 -188
t228 -77q135 -3 244 57.5t169 182.5l219 -64q-48 -132 -148.5 -218.5t-230 -128.5t-263.5 -40q-165 2 -315 80t-215 238q-112 -148 -266.5 -234.5t-344.5 -83.5zM686 179q163 -4 279 83t184.5 223.5t89.5 281.5q14 95 7 195t-43.5 185.5t-109 139.5t-189.5 57
q-164 5 -280 -83t-184.5 -226t-89.5 -282q-14 -95 -6.5 -194.5t44 -184.5t109 -138.5t189.5 -56.5zM2023 1344q-139 4 -242 -60t-173 -169.5t-113 -223.5h842q20 114 -8 216t-104.5 167.5t-201.5 69.5z" />
    <glyph glyph-name="Racute" unicode="&#x154;" horiz-adv-x="1768" 
d="M89 0zM1217 0l-256 796h-491l-139 -796h-242l355 2048l650 -1q188 -3 324.5 -78.5t203 -213.5t45.5 -328q-24 -211 -141.5 -358.5t-315.5 -220.5l275 -848h-268zM649 1828l-140 -804l381 -1q206 -1 357 94t182 311q27 187 -63.5 290.5t-280.5 108.5zM1003 2232l296 408
h253l-363 -408h-186z" />
    <glyph glyph-name="racute" unicode="&#x155;" horiz-adv-x="1072" 
d="M58 0zM1140 1502l-102 -217q-57 32 -124 33q-123 2 -222.5 -63.5t-165.5 -169.5t-87 -217l-150 -868h-231l267 1536h231l-54 -265h12q57 122 170 208t253 83q54 -1 105 -17.5t98 -42.5zM563 1720l296 408h253l-363 -408h-186z" />
    <glyph glyph-name="Rcommaaccent" unicode="&#x156;" horiz-adv-x="1768" 
d="M89 0zM1217 0l-256 796h-491l-139 -796h-242l355 2048l650 -1q188 -3 324.5 -78.5t203 -213.5t45.5 -328q-24 -211 -141.5 -358.5t-315.5 -220.5l275 -848h-268zM649 1828l-140 -804l381 -1q206 -1 357 94t182 311q27 187 -63.5 290.5t-280.5 108.5zM781 -128l-20 -123
q-26 -149 -87.5 -294.5t-154.5 -265.5l-197 40q61 124 118 251.5t83 263.5l24 128h234z" />
    <glyph glyph-name="rcommaaccent" unicode="&#x157;" horiz-adv-x="1072" 
d="M0 0zM1140 1502l-102 -217q-57 32 -124 33q-123 2 -222.5 -63.5t-165.5 -169.5t-87 -217l-150 -868h-231l267 1536h231l-54 -265h12q57 122 170 208t253 83q54 -1 105 -17.5t98 -42.5zM265 -128l-20 -123q-26 -149 -87.5 -294.5t-154.5 -265.5l-197 40q61 124 118 251.5
t83 263.5l24 128h234z" />
    <glyph glyph-name="Rcaron" unicode="&#x158;" horiz-adv-x="1768" 
d="M89 0zM1217 0l-256 796h-491l-139 -796h-242l355 2048l650 -1q188 -3 324.5 -78.5t203 -213.5t45.5 -328q-24 -211 -141.5 -358.5t-315.5 -220.5l275 -848h-268zM649 1828l-140 -804l381 -1q206 -1 357 94t182 311q27 187 -63.5 290.5t-280.5 108.5zM948 2628l189 -239
l279 238l193 3v-20l-411 -374h-133l-300 374l1 21z" />
    <glyph glyph-name="rcaron" unicode="&#x159;" horiz-adv-x="1072" 
d="M58 0zM1140 1502l-102 -217q-57 32 -124 33q-123 2 -222.5 -63.5t-165.5 -169.5t-87 -217l-150 -868h-231l267 1536h231l-54 -265h12q57 122 170 208t253 83q54 -1 105 -17.5t98 -42.5zM508 2116l189 -239l279 238l193 3v-20l-411 -374h-133l-300 374l1 21z" />
    <glyph glyph-name="Sacute" unicode="&#x15a;" horiz-adv-x="1772" 
d="M83 0zM1437 1519q-13 165 -117.5 249.5t-266.5 88.5q-111 2 -220.5 -36t-188 -117t-96.5 -200q-14 -98 31 -161.5t121.5 -102.5t157.5 -63l191 -58q135 -41 249 -110.5t178 -177.5t48 -264q-16 -152 -90 -266t-188 -189.5t-250 -112.5t-276 -35q-178 2 -321 65.5
t-228 188.5t-88 311h248q2 -175 120.5 -256.5t280.5 -84.5q120 -2 241.5 38.5t209 125.5t106.5 216q15 103 -32 166t-126.5 100.5t-162.5 64.5l-231 74q-122 40 -223.5 109t-158 171t-43.5 243q13 142 83.5 250.5t179 183t238 111.5t260.5 35q168 -3 302.5 -69.5t213 -190.5
t80.5 -297h-232zM987 2232l296 408h253l-363 -408h-186z" />
    <glyph glyph-name="sacute" unicode="&#x15b;" horiz-adv-x="1444" 
d="M11 0zM207 1105q11 149 104 250t227.5 152t269.5 49q181 -3 304.5 -99.5t175.5 -267.5l-208 -58q-34 104 -100.5 160.5t-181.5 59.5q-73 2 -152 -22.5t-137.5 -77t-69.5 -134.5q-14 -96 54 -150.5t148 -77.5l211 -58q143 -41 244 -140.5t89 -259.5q-11 -156 -107 -259.5
t-235 -154.5t-279 -49q-203 2 -344 101.5t-209 288.5l218 80q39 -123 123.5 -191t216.5 -71q79 -1 162 24t143.5 80t72.5 143q12 86 -38 134t-125 70l-238 66q-144 42 -247 145.5t-92 266.5zM734 1720l296 408h253l-363 -408h-186z" />
    <glyph glyph-name="Scircumflex" unicode="&#x15c;" horiz-adv-x="1772" 
d="M83 0zM1437 1519q-13 165 -117.5 249.5t-266.5 88.5q-111 2 -220.5 -36t-188 -117t-96.5 -200q-14 -98 31 -161.5t121.5 -102.5t157.5 -63l191 -58q135 -41 249 -110.5t178 -177.5t48 -264q-16 -152 -90 -266t-188 -189.5t-250 -112.5t-276 -35q-178 2 -321 65.5
t-228 188.5t-88 311h248q2 -175 120.5 -256.5t280.5 -84.5q120 -2 241.5 38.5t209 125.5t106.5 216q15 103 -32 166t-126.5 100.5t-162.5 64.5l-231 74q-122 40 -223.5 109t-158 171t-43.5 243q13 142 83.5 250.5t179 183t238 111.5t260.5 35q168 -3 302.5 -69.5t213 -190.5
t80.5 -297h-232zM873 2304l274 240l197 -240l190 -3l8 22l-283 373h-130l-429 -373l-7 -23z" />
    <glyph glyph-name="scircumflex" unicode="&#x15d;" horiz-adv-x="1444" 
d="M11 0zM207 1105q11 149 104 250t227.5 152t269.5 49q181 -3 304.5 -99.5t175.5 -267.5l-208 -58q-34 104 -100.5 160.5t-181.5 59.5q-73 2 -152 -22.5t-137.5 -77t-69.5 -134.5q-14 -96 54 -150.5t148 -77.5l211 -58q143 -41 244 -140.5t89 -259.5q-11 -156 -107 -259.5
t-235 -154.5t-279 -49q-203 2 -344 101.5t-209 288.5l218 80q39 -123 123.5 -191t216.5 -71q79 -1 162 24t143.5 80t72.5 143q12 86 -38 134t-125 70l-238 66q-144 42 -247 145.5t-92 266.5zM621 1792l274 240l197 -240l190 -3l8 22l-283 373h-130l-429 -373l-7 -23z" />
    <glyph glyph-name="Scedilla" unicode="&#x15e;" horiz-adv-x="1772" 
d="M83 0zM1437 1519q-13 165 -117.5 249.5t-266.5 88.5q-111 2 -220.5 -36t-188 -117t-96.5 -200q-14 -98 31 -161.5t121.5 -102.5t157.5 -63l191 -58q135 -41 249 -110.5t178 -177.5t48 -264q-16 -152 -90 -266t-188 -189.5t-250 -112.5t-276 -35q-178 2 -321 65.5
t-228 188.5t-88 311h248q2 -175 120.5 -256.5t280.5 -84.5q120 -2 241.5 38.5t209 125.5t106.5 216q15 103 -32 166t-126.5 100.5t-162.5 64.5l-231 74q-122 40 -223.5 109t-158 171t-43.5 243q13 142 83.5 250.5t179 183t238 111.5t260.5 35q168 -3 302.5 -69.5t213 -190.5
t80.5 -297h-232zM621 -36h189l-29 -75q85 -19 128 -79t40 -146q-3 -119 -74.5 -183.5t-173.5 -91t-199 -29.5l2 160q47 1 98.5 11t90.5 39t48 85q10 54 -20 78t-75.5 31t-85.5 11z" />
    <glyph glyph-name="scedilla" unicode="&#x15f;" horiz-adv-x="1444" 
d="M11 0zM207 1105q11 149 104 250t227.5 152t269.5 49q181 -3 304.5 -99.5t175.5 -267.5l-208 -58q-34 104 -100.5 160.5t-181.5 59.5q-73 2 -152 -22.5t-137.5 -77t-69.5 -134.5q-14 -96 54 -150.5t148 -77.5l211 -58q143 -41 244 -140.5t89 -259.5q-11 -156 -107 -259.5
t-235 -154.5t-279 -49q-203 2 -344 101.5t-209 288.5l218 80q39 -123 123.5 -191t216.5 -71q79 -1 162 24t143.5 80t72.5 143q12 86 -38 134t-125 70l-238 66q-144 42 -247 145.5t-92 266.5zM493 0h189l-29 -75q85 -19 128 -79t40 -146q-3 -119 -74.5 -183.5t-173.5 -91
t-199 -29.5l2 160q47 1 98.5 11t90.5 39t48 85q10 54 -20 78t-75.5 31t-85.5 11z" />
    <glyph glyph-name="Scaron" unicode="&#x160;" horiz-adv-x="1772" 
d="M83 0zM1437 1519q-13 165 -117.5 249.5t-266.5 88.5q-111 2 -220.5 -36t-188 -117t-96.5 -200q-14 -98 31 -161.5t121.5 -102.5t157.5 -63l191 -58q135 -41 249 -110.5t178 -177.5t48 -264q-16 -152 -90 -266t-188 -189.5t-250 -112.5t-276 -35q-178 2 -321 65.5
t-228 188.5t-88 311h248q2 -175 120.5 -256.5t280.5 -84.5q120 -2 241.5 38.5t209 125.5t106.5 216q15 103 -32 166t-126.5 100.5t-162.5 64.5l-231 74q-122 40 -223.5 109t-158 171t-43.5 243q13 142 83.5 250.5t179 183t238 111.5t260.5 35q168 -3 302.5 -69.5t213 -190.5
t80.5 -297h-232zM932 2628l189 -239l279 238l193 3v-20l-411 -374h-133l-300 374l1 21z" />
    <glyph glyph-name="scaron" unicode="&#x161;" horiz-adv-x="1444" 
d="M11 0zM207 1105q11 149 104 250t227.5 152t269.5 49q181 -3 304.5 -99.5t175.5 -267.5l-208 -58q-34 104 -100.5 160.5t-181.5 59.5q-73 2 -152 -22.5t-137.5 -77t-69.5 -134.5q-14 -96 54 -150.5t148 -77.5l211 -58q143 -41 244 -140.5t89 -259.5q-11 -156 -107 -259.5
t-235 -154.5t-279 -49q-203 2 -344 101.5t-209 288.5l218 80q39 -123 123.5 -191t216.5 -71q79 -1 162 24t143.5 80t72.5 143q12 86 -38 134t-125 70l-238 66q-144 42 -247 145.5t-92 266.5zM679 2116l189 -239l279 238l193 3v-20l-411 -374h-133l-300 374l1 21z" />
    <glyph glyph-name="Tcommaaccent" unicode="&#x162;" horiz-adv-x="1792" 
d="M297 0zM1828 2048l-39 -220h-624l-318 -1828h-242l317 1828h-625l39 220h1492zM643 0h189l-29 -75q85 -19 128 -79t40 -146q-3 -119 -74.5 -183.5t-173.5 -91t-199 -29.5l2 160q47 1 98.5 11t90.5 39t48 85q10 54 -20 78t-75.5 31t-85.5 11z" />
    <glyph glyph-name="tcommaaccent" unicode="&#x163;" horiz-adv-x="984" 
d="M138 0zM950 1536l-39 -220h-317l-148 -877q-11 -90 15 -158.5t129 -69.5q26 -1 51.5 2t51.5 8l25 -215q-39 -15 -81.5 -20t-83.5 -4q-166 3 -264.5 116.5t-83.5 277.5l158 940h-225l38 220h225l57 328h231l-58 -328h319zM335 0h189l-29 -75q85 -19 128 -79t40 -146
q-3 -119 -74.5 -183.5t-173.5 -91t-199 -29.5l2 160q47 1 98.5 11t90.5 39t48 85q10 54 -20 78t-75.5 31t-85.5 11z" />
    <glyph glyph-name="Tcaron" unicode="&#x164;" horiz-adv-x="1792" 
d="M297 0zM1828 2048l-39 -220h-624l-318 -1828h-242l317 1828h-625l39 220h1492zM948 2628l189 -239l279 238l193 3v-20l-411 -374h-133l-300 374l1 21z" />
    <glyph glyph-name="tcaron" unicode="&#x165;" horiz-adv-x="1024" 
d="M138 0zM950 1536l-39 -220h-317l-148 -877q-11 -90 15 -158.5t129 -69.5q26 -1 51.5 2t51.5 8l25 -215q-39 -15 -81.5 -20t-83.5 -4q-166 3 -264.5 116.5t-83.5 277.5l158 940h-225l38 220h225l57 328h231l-58 -328h319zM1218 2332l-20 -123q-26 -149 -87.5 -294.5
t-154.5 -265.5l-197 40q61 124 118 251.5t83 263.5l24 128h234z" />
    <glyph glyph-name="Tbar" unicode="&#x166;" horiz-adv-x="1792" 
d="M1330 1336l-33 -184h-250l-200 -1152h-242l200 1152h-363l33 184h362l85 492h-625l39 220h1492l-39 -220h-624l-86 -492h251z" />
    <glyph glyph-name="tbar" unicode="&#x167;" horiz-adv-x="984" 
d="M822 1036l-32 -184h-274l-69 -413q-11 -90 15 -158.5t129 -69.5q26 -1 51.5 2t51.5 8l25 -215q-39 -15 -81.5 -20t-83.5 -4q-166 3 -264.5 116.5t-83.5 277.5l80 476h-352l33 184h350l47 280h-225l38 220h225l57 328h231l-58 -328h319l-39 -220h-317l-48 -280h275z" />
    <glyph glyph-name="Utilde" unicode="&#x168;" horiz-adv-x="2072" 
d="M183 0zM1747 2048h242l-233 -1355q-34 -220 -161 -385.5t-316 -257.5t-410 -89q-208 3 -366.5 97.5t-239 258.5t-52.5 375l232 1356h243l-234 -1357q-20 -145 30 -255.5t154.5 -173.5t248.5 -66q152 -3 286 57.5t225 173t117 265.5zM1618 2611l167 -12q-6 -91 -44 -170.5
t-107.5 -128t-169.5 -46.5q-67 1 -120.5 34t-105.5 66t-117 32q-66 0 -104 -47.5t-49 -105.5l-179 7q7 89 47.5 170t111 131.5t169.5 48.5q66 -1 119.5 -34.5t106.5 -66t118 -31.5q66 0 105.5 47t51.5 106z" />
    <glyph glyph-name="utilde" unicode="&#x169;" horiz-adv-x="1620" 
d="M1248 2100l169 -13q-7 -91 -45.5 -170.5t-108 -128t-170.5 -46.5q-67 1 -120 34.5t-105.5 66t-117.5 32.5q-66 -1 -104.5 -48.5t-50.5 -105.5l-179 7q8 90 49 171t112 131.5t170 47.5q66 -1 119.5 -34.5t106 -66t117.5 -32.5q67 1 106.5 48.5t51.5 106.5zM1104 608
l159 928h230l-266 -1536h-231l45 217h-11q-88 -112 -210 -176.5t-267 -60.5q-154 3 -246.5 92.5t-128.5 221.5t-20 266l166 976h230l-166 -977q-17 -137 43.5 -242t210.5 -110q119 -5 217 48.5t162.5 146t82.5 206.5z" />
    <glyph glyph-name="Umacron" unicode="&#x16a;" horiz-adv-x="2072" 
d="M183 0zM1747 2048h242l-233 -1355q-34 -220 -161 -385.5t-316 -257.5t-410 -89q-208 3 -366.5 97.5t-239 258.5t-52.5 375l232 1356h243l-234 -1357q-20 -145 30 -255.5t154.5 -173.5t248.5 -66q152 -3 286 57.5t225 173t117 265.5zM1775 2528l-32 -204h-914l33 204h913z
" />
    <glyph glyph-name="umacron" unicode="&#x16b;" horiz-adv-x="1620" 
d="M142 0zM1105 608l159 928h230l-266 -1536h-231l45 217h-11q-88 -112 -209.5 -177t-267.5 -61q-154 4 -246.5 93t-129 221.5t-19.5 266.5l166 976h230l-166 -977q-18 -138 43 -242t211 -109q120 -4 218 48.5t162 144.5t82 207zM1463 2016l-32 -204h-914l33 204h913z" />
    <glyph glyph-name="Ubreve" unicode="&#x16c;" horiz-adv-x="2072" 
d="M183 0zM1747 2048h242l-233 -1355q-34 -220 -161 -385.5t-316 -257.5t-410 -89q-208 3 -366.5 97.5t-239 258.5t-52.5 375l232 1356h243l-234 -1357q-20 -145 30 -255.5t154.5 -173.5t248.5 -66q152 -3 286 57.5t225 173t117 265.5zM1502 2584l212 1
q-12 -177 -138.5 -275t-298.5 -94q-165 3 -266.5 102.5t-96.5 266.5l214 -1q-4 -82 31.5 -138t125.5 -59q93 -2 148.5 53.5t68.5 143.5z" />
    <glyph glyph-name="ubreve" unicode="&#x16d;" horiz-adv-x="1620" 
d="M142 0zM1105 608l159 928h230l-266 -1536h-231l45 217h-11q-88 -112 -209.5 -177t-267.5 -61q-154 4 -246.5 93t-129 221.5t-19.5 266.5l166 976h230l-166 -977q-18 -138 43 -242t211 -109q120 -4 218 48.5t162 144.5t82 207zM1190 2072l212 1q-12 -177 -138.5 -275
t-298.5 -94q-165 3 -266.5 102.5t-96.5 266.5l214 -1q-4 -82 31.5 -138t125.5 -59q93 -2 148.5 53.5t68.5 143.5z" />
    <glyph glyph-name="Uring" unicode="&#x16e;" horiz-adv-x="2072" 
d="M183 0zM1747 2048h242l-233 -1355q-34 -220 -161 -385.5t-316 -257.5t-410 -89q-208 3 -366.5 97.5t-239 258.5t-52.5 375l232 1356h243l-234 -1357q-20 -145 30 -255.5t154.5 -173.5t248.5 -66q152 -3 286 57.5t225 173t117 265.5zM973 2567q5 101 60.5 184t143 131.5
t188.5 46.5q93 -3 165 -50.5t111 -124.5t34 -169q-6 -101 -60.5 -181t-140 -125.5t-185.5 -43.5q-138 3 -230.5 98t-85.5 234zM1141 2567q-8 -71 35 -125t116 -55q81 -1 145 58.5t74 139.5q8 71 -34 129t-117 59q-84 1 -147 -62.5t-72 -143.5z" />
    <glyph glyph-name="uring" unicode="&#x16f;" horiz-adv-x="1620" 
d="M142 0zM1105 608l159 928h230l-266 -1536h-231l45 217h-11q-88 -112 -209.5 -177t-267.5 -61q-154 4 -246.5 93t-129 221.5t-19.5 266.5l166 976h230l-166 -977q-18 -138 43 -242t211 -109q120 -4 218 48.5t162 144.5t82 207zM661 2055q5 101 60.5 184t143 131.5
t188.5 46.5q93 -3 165 -50.5t111 -124.5t34 -169q-6 -101 -60.5 -181t-140 -125.5t-185.5 -43.5q-138 3 -230.5 98t-85.5 234zM829 2055q-8 -71 35 -125t116 -55q81 -1 145 58.5t74 139.5q8 71 -34 129t-117 59q-84 1 -147 -62.5t-72 -143.5z" />
    <glyph glyph-name="Uhungarumlaut" unicode="&#x170;" horiz-adv-x="2072" 
d="M183 0zM1747 2048h242l-233 -1355q-34 -220 -161 -385.5t-316 -257.5t-410 -89q-208 3 -366.5 97.5t-239 258.5t-52.5 375l232 1356h243l-234 -1357q-20 -145 30 -255.5t154.5 -173.5t248.5 -66q152 -3 286 57.5t225 173t117 265.5zM1313 2218l373 424h275l-427 -424
h-221zM916 2218l289 423l270 1l-361 -424h-198z" />
    <glyph glyph-name="uhungarumlaut" unicode="&#x171;" horiz-adv-x="1620" 
d="M142 0zM1105 608l159 928h230l-266 -1536h-231l45 217h-11q-88 -112 -209.5 -177t-267.5 -61q-154 4 -246.5 93t-129 221.5t-19.5 266.5l166 976h230l-166 -977q-18 -138 43 -242t211 -109q120 -4 218 48.5t162 144.5t82 207zM1000 1706l373 424h275l-427 -424h-221z
M603 1706l289 423l270 1l-361 -424h-198z" />
    <glyph glyph-name="Uogonek" unicode="&#x172;" horiz-adv-x="2072" 
d="M1748 2048h242l-233 -1355q-30 -193 -132.5 -345.5t-257 -249.5t-340.5 -126q-54 -44 -96.5 -98.5t-51.5 -121.5q-11 -86 77 -88q35 0 69 10.5t66 25.5l2 -178q-48 -31 -103.5 -44.5t-112.5 -12.5q-112 1 -178 73t-61 183q3 75 36.5 137t84.5 112q-178 27 -310.5 125.5
t-197.5 251.5t-39 345l232 1356h243l-234 -1357q-20 -145 30 -255.5t154.5 -173.5t248.5 -66q152 -3 286 57.5t225 173t117 265.5z" />
    <glyph glyph-name="uogonek" unicode="&#x173;" horiz-adv-x="1620" 
d="M1000 85l12 -11l30 143h-11q-88 -112 -209.5 -177t-267.5 -61q-154 4 -246.5 93t-129 221.5t-19.5 266.5l166 976h230l-166 -977q-18 -138 43 -242t211 -109q120 -4 218 48.5t162 144.5t82 207l159 928h230l-266 -1536h-128l4 -3q-52 -37 -111 -82t-103.5 -101
t-53.5 -126q-11 -86 77 -88q35 0 69 10.5t66 25.5l1 -178q-47 -31 -102.5 -44.5t-112.5 -12.5q-112 1 -178 73t-61 183q5 109 68.5 190.5t155.5 140t181 97.5z" />
    <glyph glyph-name="Wcircumflex" unicode="&#x174;" horiz-adv-x="2656" 
d="M244 0zM477 2049l157 -1670h20l685 1669h273l159 -1669h18l679 1669h253l-864 -2048h-250l-180 1633h-14l-697 -1633h-249l-223 2048zM1296 2304l274 240l197 -240l190 -3l8 22l-283 373h-130l-429 -373l-7 -23z" />
    <glyph glyph-name="wcircumflex" unicode="&#x175;" horiz-adv-x="2272" 
d="M212 0zM2247 1536l-720 -1536h-227l-118 1181h-22l-534 -1181h-226l-188 1536h234l115 -1177h15l525 1177h246l107 -1173h16l527 1173h250zM1041 1792l274 240l197 -240l190 -3l8 22l-283 373h-130l-429 -373l-7 -23z" />
    <glyph glyph-name="Ycircumflex" unicode="&#x176;" horiz-adv-x="1864" 
d="M285 0zM543 2049l386 -957l23 -1l719 957h292l-937 -1216l-144 -832h-242l149 857l-504 1191zM925 2304l274 240l197 -240l190 -3l8 22l-283 373h-130l-429 -373l-7 -23z" />
    <glyph glyph-name="ycircumflex" unicode="&#x177;" horiz-adv-x="1552" 
d="M0 0zM416 -153l80 157l-283 1532h240l195 -1225h17l625 1225h260l-947 -1785q-75 -151 -194 -251t-296 -97q-45 1 -89.5 7.5t-87.5 23.5l82 205q146 -39 239 18.5t159 189.5zM677 1792l274 240l197 -240l190 -3l8 22l-283 373h-130l-429 -373l-7 -23z" />
    <glyph glyph-name="Ydieresis" unicode="&#x178;" horiz-adv-x="1864" 
d="M285 0zM543 2049l386 -957l23 -1l719 957h292l-937 -1216l-144 -832h-242l149 857l-504 1191zM906 2267q-62 0 -107.5 47.5t-46.5 107.5q-1 66 45 116t113 51q65 1 109 -45t44 -110q1 -66 -44.5 -116t-112.5 -51zM1457 2267q-62 0 -107.5 47.5t-46.5 107.5q-1 66 45 116
t113 51q65 1 109 -45t44 -110q1 -66 -45 -116t-112 -51z" />
    <glyph glyph-name="Zacute" unicode="&#x179;" horiz-adv-x="1744" 
d="M23 0zM1433 220l-39 -220h-1371l34 192l1347 1636h-1076l39 220h1371l-33 -192l-1347 -1636h1075zM979 2232l296 408h253l-363 -408h-186z" />
    <glyph glyph-name="zacute" unicode="&#x17a;" horiz-adv-x="1508" 
d="M19 0zM1212 220l-39 -220h-1154l37 212l1019 1104h-843l39 220h1150l-35 -200l-1020 -1116h846zM771 1720l296 408h253l-363 -408h-186z" />
    <glyph glyph-name="Zdotaccent" unicode="&#x17b;" horiz-adv-x="1744" 
d="M23 0zM1433 220l-39 -220h-1371l34 192l1347 1636h-1076l39 220h1371l-33 -192l-1347 -1636h1075zM988 2423q-1 68 40.5 114.5t111.5 47.5q68 1 111 -41.5t44 -110.5q0 -68 -44.5 -110.5t-111.5 -43.5q-65 -1 -107.5 38t-43.5 106z" />
    <glyph glyph-name="zdotaccent" unicode="&#x17c;" horiz-adv-x="1508" 
d="M19 0zM1212 220l-39 -220h-1154l37 212l1019 1104h-843l39 220h1150l-35 -200l-1020 -1116h846zM779 1911q-1 68 40.5 114.5t111.5 47.5q68 1 111 -41.5t44 -110.5q0 -68 -44.5 -110.5t-111.5 -43.5q-65 -1 -107.5 38t-43.5 106z" />
    <glyph glyph-name="Zcaron" unicode="&#x17d;" horiz-adv-x="1744" 
d="M23 0zM1433 220l-39 -220h-1371l34 192l1347 1636h-1076l39 220h1371l-33 -192l-1347 -1636h1075zM924 2628l189 -239l279 238l193 3v-20l-411 -374h-133l-300 374l1 21z" />
    <glyph glyph-name="zcaron" unicode="&#x17e;" horiz-adv-x="1508" 
d="M19 0zM1212 220l-39 -220h-1154l37 212l1019 1104h-843l39 220h1150l-35 -200l-1020 -1116h846zM716 2116l189 -239l279 238l193 3v-20l-411 -374h-133l-300 374l1 21z" />
    <glyph glyph-name="longs" unicode="&#x17f;" horiz-adv-x="736" 
d="M157 0h-270l282 1639q32 220 166.5 363t368.5 140q50 -1 99.5 -10t98.5 -20l-53 -203q-56 14 -115 15q-130 1 -203 -81.5t-92 -202.5z" />
    <glyph glyph-name="bbar" unicode="&#x180;" horiz-adv-x="1716" 
d="M428 2048h231l-23 -128h408l-33 -184h-406l-85 -446h16q92 122 199.5 195.5t268.5 71.5q162 -1 270 -71.5t168 -186t78.5 -254t0.5 -275.5q-18 -148 -75.5 -292t-152.5 -261t-226.5 -185t-297.5 -63q-286 7 -398 268h-29l-47 -237h-222l301 1736h-218l32 184h217z
M1291 774q14 94 7.5 192.5t-40.5 183t-104.5 138t-186.5 57.5q-163 4 -275 -83t-175.5 -223t-83.5 -278q-12 -92 -7.5 -192t36.5 -187.5t101 -143.5t185 -60q122 -3 217 49t162 140t108 194.5t56 212.5z" />
    <glyph glyph-name="Bhook" unicode="&#x181;" horiz-adv-x="2116" 
d="M1114 0h-734l317 1828l-111 2q-116 -1 -165.5 -74t-65.5 -176l-12 -76h-226l20 136q26 182 147.5 295.5t308.5 113.5l823 -2q162 -4 287.5 -66.5t191.5 -180.5t51 -289q-16 -178 -119.5 -288t-274.5 -146l-9 -27q120 -7 192.5 -89.5t102 -196t20.5 -213.5
q-18 -196 -128.5 -318t-274 -178t-341.5 -55zM940 1828l-119 -680l433 -1q111 1 210 44.5t167 125.5t83 197q22 155 -70 232.5t-237 80.5zM1628 552q16 111 -26 195t-125 132.5t-191 51.5l-502 1l-123 -712l462 -1q112 0 221.5 31t187.5 103.5t96 198.5z" />
    <glyph glyph-name="Btopbar" unicode="&#x182;" horiz-adv-x="1840" 
d="M1645 2048l-39 -220h-957l-112 -640l489 -1q176 -2 312.5 -69t208.5 -194t53 -313q-20 -199 -127 -335.5t-270.5 -206.5t-352.5 -69h-761l355 2048h1201zM369 216l491 -2q120 0 228 49t182.5 140t91.5 214q16 111 -28.5 188t-129 118t-187.5 44l-517 1z" />
    <glyph glyph-name="btopbar" unicode="&#x183;" horiz-adv-x="1700" 
d="M413 2048h1151l-39 -220h-919l-100 -538h16q91 122 198.5 195.5t269.5 71.5q161 -1 269 -71.5t168.5 -186t78.5 -254t1 -275.5q-19 -148 -76.5 -292t-152.5 -261t-226.5 -185t-297.5 -63q-286 7 -397 268h-30l-46 -237h-223zM1277 774q13 94 7 192.5t-40.5 183t-105 138
t-186.5 57.5q-163 4 -274.5 -83t-175.5 -223t-84 -278q-12 -92 -7.5 -192t36.5 -187.5t101 -143.5t185 -60q123 -3 217.5 49t162 140t108.5 194.5t56 212.5z" />
    <glyph glyph-name="Tonesix" unicode="&#x184;" horiz-adv-x="1760" 
d="M1622 611q-21 -198 -127.5 -335t-269.5 -207t-353 -69h-760l239 1379l-149 245l19 107l234 249l12 68h242l-149 -860l489 -1q176 -3 312.5 -69t208 -193.5t52.5 -313.5zM391 216l491 -2q120 0 228 49.5t182 140t92 213.5q16 111 -28.5 188t-129 118t-187.5 44l-517 1z
" />
    <glyph glyph-name="tonesix" unicode="&#x185;" horiz-adv-x="1760" 
d="M522 2111l66 2l-12 -67l196 2l-138 -758h16q91 122 199 195.5t269 71.5q161 -1 269 -71.5t168.5 -186t78.5 -254t1 -275.5q-19 -148 -76.5 -292t-152.5 -261t-226.5 -185t-297.5 -63q-286 7 -397 268h-30l-46 -237h-223l256 1441l-15 -1l-178 292l20 111zM1405 775
q13 93 7 191.5t-40.5 183t-105 138t-186.5 57.5q-163 4 -274.5 -83t-175.5 -223t-83 -278q-13 -92 -8.5 -192t36.5 -187.5t101 -143.5t186 -59q122 -4 216.5 48t162 140t108.5 194.5t56 213.5z" />
    <glyph glyph-name="Oopen" unicode="&#x186;" horiz-adv-x="2032" 
d="M236 1406l235 2q79 200 243.5 320t384.5 117q166 -3 275 -77t168.5 -193.5t76 -262t-0.5 -282.5q-19 -152 -77.5 -300t-155 -268.5t-231 -190.5t-305.5 -67q-128 3 -237.5 56t-178 150t-76.5 231l-245 -1q-6 -196 81 -346t240 -235t345 -87q222 -3 404.5 84.5
t320.5 238.5t226 341.5t120 392.5q29 186 7.5 370.5t-101 336.5t-224 245t-362.5 95q-220 3 -400.5 -83.5t-315.5 -239t-217 -347.5z" />
    <glyph glyph-name="Chook" unicode="&#x187;" horiz-adv-x="2156" 
d="M1933 1408l-234 -1q-24 197 -150.5 315t-327.5 122q-171 3 -308.5 -67t-239 -189.5t-164 -268t-85.5 -302.5q-20 -137 -8 -278.5t66 -262t159.5 -195.5t271.5 -78q214 -4 390.5 114.5t247.5 321.5l243 1q-51 -202 -184.5 -353t-318 -234.5t-390.5 -80.5
q-217 3 -365.5 94.5t-233.5 242.5t-112 335.5t0 373.5q28 203 111.5 393t217.5 341t314 239t401 85q156 -1 307 -60t248 -186q65 117 165.5 182.5t236.5 65.5q36 0 71 -2.5t70 -10.5l-21 -201q-40 10 -72 11q-106 3 -176 -51t-88 -160z" />
    <glyph glyph-name="chook" unicode="&#x188;" horiz-adv-x="1704" 
d="M1437 1076l-222 -1q-22 121 -102.5 193t-205.5 76q-162 5 -278.5 -81.5t-186 -222.5t-89.5 -279q-13 -95 -6 -195.5t43 -187t108 -141.5t189 -58q137 -4 244.5 69t159.5 198l232 2q-32 -151 -128.5 -259.5t-232.5 -166t-286 -55.5q-165 3 -279.5 71.5t-181.5 182.5
t-89.5 254t-3.5 286q19 155 82.5 298.5t166 256.5t239.5 178t304 63q98 -2 193.5 -30.5t172.5 -91.5q64 120 165.5 187.5t239.5 67.5q36 0 71 -2.5t70 -10.5l-21 -201q-40 10 -71 11q-107 3 -176.5 -51t-87.5 -160z" />
    <glyph glyph-name="Dbar1" unicode="&#x189;" horiz-adv-x="2104" 
d="M811 0h-629l159 912h-296l33 184h294l166 952h626q223 -3 380 -84.5t250 -222t124 -323t3 -386.5q-41 -298 -186 -531.5t-379.5 -367.5t-544.5 -133zM933 1096l-32 -184h-318l-120 -692l342 -1q247 0 432.5 104.5t300 288t150.5 421.5q31 209 -11 388.5t-172.5 291
t-365.5 115.5h-397l-128 -732h319z" />
    <glyph glyph-name="Dhook" unicode="&#x18a;" horiz-adv-x="2324" 
d="M1024 0h-628l317 1828l-126 2q-117 -1 -166.5 -74t-65.5 -176l-12 -76h-226l21 136q25 182 146.5 295.5t308.5 113.5l784 -1q223 -3 380 -84t250 -222t124 -323.5t3 -386.5q-41 -298 -186 -531.5t-379.5 -367.5t-544.5 -133zM1353 1828h-398l-279 -1608l342 -1
q248 0 433 104.5t299.5 288.5t150.5 422q31 209 -10.5 388.5t-172 290.5t-365.5 115z" />
    <glyph glyph-name="Dtopbar" unicode="&#x18b;" horiz-adv-x="1760" 
d="M1414 0l-727 1q-179 4 -316 74t-208 202t-50 320q21 199 128.5 332t271.5 200.5t352 67.5l479 -1l100 576h-920l41 232h1197zM1176 228l128 736l-452 2q-174 0 -303 -92.5t-154 -272.5q-21 -160 58 -263.5t245 -108.5z" />
    <glyph glyph-name="dtopbar" unicode="&#x18c;" horiz-adv-x="1700" 
d="M1304 0h-223l48 238h-19q-92 -123 -203.5 -198.5t-273.5 -73.5q-161 2 -268 74t-166.5 188t-77.5 254.5t-1 274.5q19 149 77 293t154 259.5t228 182.5t298 63q283 -8 398 -264h18l98 537h-920l39 220h1150zM351 761q-13 -93 -7.5 -193t39.5 -187.5t104.5 -143
t186.5 -58.5q123 -4 216.5 48t159.5 140t106 194.5t54 213.5q13 92 8 190.5t-38 183.5t-102 138.5t-185 56.5q-162 5 -275.5 -82t-180 -223t-86.5 -278z" />
    <glyph glyph-name="deltaturn" unicode="&#x18d;" horiz-adv-x="1504" 
d="M960 -516h-949l38 212h589q-30 74 -90 135.5t-114 116.5q-106 109 -195 235t-136 269t-28 302l4 28q26 197 124.5 366t258.5 270.5t371 97.5q205 -3 331.5 -108t177.5 -271t29 -351l-4 -29q-25 -187 -125 -324.5t-251 -220.5t-331 -109q-25 -4 -54 -5q82 -120 185 -227.5
t193 -223.5zM1098 762l4 28q10 83 5.5 170.5t-34 162.5t-91 123t-164.5 51q-144 4 -242.5 -73t-155.5 -197.5t-76 -245.5l-4 -27q-18 -128 17.5 -252.5t136.5 -210.5q51 -18 110 -19q142 -4 245.5 65.5t166 182.5t82.5 242z" />
    <glyph glyph-name="Eturn" unicode="&#x18e;" horiz-adv-x="1652" 
d="M328 1828l39 220h1216l-355 -2048h-1201l39 220h958l120 692h-858l39 220h857l121 696h-975z" />
    <glyph glyph-name="Schwa" unicode="&#x18f;" horiz-adv-x="2016" 
d="M845 -29q-201 3 -339.5 78t-217.5 203.5t-103.5 293.5t2.5 346l29 172h1441l-38 -216l-1159 1l-8 -46q-29 -160 1 -295t129.5 -218t278.5 -86q147 -3 261.5 63t197 175.5t133.5 240t72 257.5l19 117q20 133 10 263.5t-61 237t-151 171t-259 66.5q-131 2 -253.5 -26.5
t-241.5 -77.5l-47 210q72 56 168.5 84t197.5 37.5t187 8.5q211 -1 362 -80t242.5 -215t123 -311t3.5 -369l-18 -116q-29 -179 -108 -352.5t-203 -313.5t-288 -222.5t-363 -80.5z" />
    <glyph glyph-name="Epsilon1" unicode="&#x190;" horiz-adv-x="1760" 
d="M893 1137l232 -1l-40 -228l-204 1q-123 0 -229.5 -34.5t-178 -113.5t-87.5 -213q-15 -122 32 -198t136.5 -112.5t200.5 -38.5q110 -2 212 39.5t172.5 122t86.5 195.5h276q-17 -194 -130.5 -324.5t-281.5 -196t-349 -63.5q-182 1 -334.5 62t-237.5 188.5t-66 329.5
q18 188 133.5 303.5t284.5 175.5q-119 66 -179.5 174.5t-48.5 246.5q18 201 132.5 330.5t285 191t354.5 58.5q165 -3 299.5 -68.5t212 -188t69.5 -296.5l-276 1q9 149 -83 233t-237 87q-112 3 -216 -32.5t-176 -112.5t-88 -198q-23 -166 72.5 -241.5t250.5 -78.5z" />
    <glyph glyph-name="Fhook" unicode="&#x191;" horiz-adv-x="1628" 
d="M1350 1136l-38 -220h-822l-184 -1080q-26 -182 -146.5 -298t-309.5 -116q-35 0 -70 2.5t-70 11.5l22 204q40 -10 72 -11q106 -4 174 50.5t86 160.5l379 2208h1193l-38 -220h-950l-121 -692h823z" />
    <glyph glyph-name="florin" unicode="&#x192;" horiz-adv-x="1072" 
d="M981 1488l-33 -204h-271l-217 -1408q-26 -207 -144 -344t-340 -135q-80 1 -161 23l41 216q31 -11 65 -15t67 -4q70 -1 118 38.5t75 99t36 121.5l218 1408h-241l32 204h241l21 152q17 132 75 247t159 185.5t247 69.5q123 -2 236 -39l-80 -214q-56 17 -107 18
q-126 2 -198 -73t-90 -194l-21 -152h272z" />
    <glyph glyph-name="Ghook" unicode="&#x193;" horiz-adv-x="2160" 
d="M1885 1016l-37 -219q-38 -237 -167.5 -424.5t-328 -295.5t-444.5 -105q-218 2 -367.5 93t-236 242t-114 336t-1.5 375q28 201 111 391t215.5 341.5t311.5 240t399 85.5q165 -2 317.5 -69.5t247.5 -206.5q130 238 396 238q36 0 71.5 -2.5t70.5 -10.5l-21 -201
q-40 10 -71 11q-107 3 -177 -51t-88 -160l-35 -216l-237 -1q-44 186 -164.5 309.5t-321.5 127.5q-171 3 -307 -67.5t-236 -191t-162.5 -268.5t-84.5 -300q-20 -139 -7.5 -281t67.5 -262t162 -194t275 -77q181 -3 323.5 76t238.5 214.5t137 303.5l-493 -1l39 220h719z" />
    <glyph glyph-name="Gamma1" unicode="&#x194;" horiz-adv-x="1760" 
d="M236 2048h251l389 -1661q25 -102 63.5 -212t66 -221.5t18.5 -218.5q-12 -165 -125.5 -251.5t-272.5 -83.5q-145 3 -240.5 85.5t-83.5 236.5q8 112 73.5 230.5t146.5 231t136 204.5l975 1660h273l-1119 -1892q-37 -63 -86.5 -136t-90.5 -150.5t-50 -151.5q-6 -43 21 -69.5
t69 -26.5q48 0 88.5 31t50.5 78q15 66 -1.5 141t-42.5 148.5t-42 135.5z" />
    <glyph glyph-name="hv" unicode="&#x195;" horiz-adv-x="2560" 
d="M448 928l-159 -928h-231l355 2048h231l-134 -729h11q88 111 210.5 175t266.5 62q164 -3 256 -88t124.5 -217t15.5 -275l-56 -369q-12 -99 4 -195.5t75 -162t176 -70.5q126 -5 215 55.5t141 160t69 212.5l157 929h231l-159 -928q-28 -183 -110 -328.5t-220.5 -228.5
t-335.5 -79q-188 3 -300.5 89t-155 229.5t-20.5 317.5l59 369q18 139 -42 243t-212 109q-121 5 -218.5 -47.5t-161 -145t-82.5 -208.5z" />
    <glyph glyph-name="Iota1" unicode="&#x196;" horiz-adv-x="992" 
d="M647 2112l-281 -1642q-8 -68 4 -130t52.5 -102.5t119.5 -42.5q30 -1 60 3.5t60 10.5l11 -211q-46 -11 -92.5 -18.5t-94.5 -6.5q-145 2 -236.5 70t-130 180.5t-22.5 248.5l281 1640h269z" />
    <glyph glyph-name="Istroke" unicode="&#x197;" horiz-adv-x="784" 
d="M872 1192l-32 -184h-295l-175 -1008h-242l175 1008h-319l33 184h318l148 856h243l-149 -856h295z" />
    <glyph glyph-name="Khook" unicode="&#x198;" horiz-adv-x="1876" 
d="M1278 0l-524 951l-309 -296l-114 -655h-242l355 2048h243l-183 -1018l18 1l850 810l91 89q118 115 261 136t282 -73l-115 -180q-80 53 -150.5 26.5t-134.5 -86.5l-51 -48l-634 -592l632 -1113h-275z" />
    <glyph glyph-name="khook" unicode="&#x199;" horiz-adv-x="1484" 
d="M999 0l-401 706l-223 -209l-86 -497h-231l285 1664q25 180 141.5 297t304.5 117q36 0 71.5 -2.5t70.5 -11.5l-21 -200q-39 10 -71 11q-106 4 -176.5 -50.5t-87.5 -160.5l-147 -822h16l725 694h311l-712 -667l490 -869h-259z" />
    <glyph glyph-name="lbar" unicode="&#x19a;" horiz-adv-x="880" 
d="M918 1192l-33 -184h-317l-175 -1008h-231l175 1008h-307l32 184h307l148 856h231l-149 -856h319z" />
    <glyph glyph-name="lambdabar" unicode="&#x19b;" horiz-adv-x="1760" 
d="M649 2086q102 -1 182 -44t109 -146l166 61l-40 -241l-73 -26l276 -1367q11 -42 30 -73.5t67 -34.5l51 -1l-16 -223q-24 -8 -49 -11t-50 -3q-137 0 -201 75t-95 201l-165 786l-544 -1039h-306l770 1421l-36 166l-365 -132l43 242l267 98q-28 67 -103 71q-16 1 -33 -0.5
t-34 -2.5l22 210q31 7 63 10.5t64 2.5z" />
    <glyph glyph-name="mcapturn" unicode="&#x19c;" horiz-adv-x="2528" 
d="M1843 0l31 163q-84 -99 -195.5 -146t-240.5 -45q-134 3 -239.5 67.5t-137.5 201.5q-92 -130 -218 -202.5t-288 -69.5q-138 2 -220.5 59t-121.5 149.5t-45 204.5t9 226l239 1396h270l-238 -1397q-7 -53 -9.5 -121.5t10.5 -132.5t51.5 -107t114.5 -46q93 -4 181.5 32.5
t154 105t90.5 162.5q6 26 8 54t6 54l242 1396h266l-238 -1397q-7 -54 -9 -122.5t11.5 -132.5t53 -106.5t115.5 -45.5q142 -6 261.5 76.5t159.5 222.5l261 1505h265l-347 -2004h-253z" />
    <glyph glyph-name="Nhook" unicode="&#x19d;" horiz-adv-x="2064" 
d="M1982 2048l-356 -2048h-226l-765 1604l-21 1l-309 -1769q-25 -183 -146 -298.5t-311 -115.5q-35 0 -69.5 2.5t-68.5 10.5l22 205q40 -10 72 -11q106 -4 174 50.5t86 160.5l379 2208h227l767 -1612l22 -1l284 1613h239z" />
    <glyph glyph-name="nlegrightlong" unicode="&#x19e;" horiz-adv-x="1604" 
d="M50 0zM437 908l-156 -908h-231l267 1536h231l-53 -261h11q80 132 203 208t280 73q163 -3 256 -88t126 -217t15 -275l-266 -1552h-230l264 1537q11 91 -10 173.5t-80.5 136.5t-161.5 57q-120 5 -219 -53.5t-163.5 -156t-82.5 -210.5z" />
    <glyph glyph-name="Obar" unicode="&#x19f;" horiz-adv-x="2128" 
d="M163 0zM1943 1029q-28 -202 -111.5 -392t-217.5 -341t-314 -239t-401 -85q-217 2 -365 94t-233 243.5t-111.5 336t-0.5 372.5q28 203 111.5 393t217 341t313.5 239t402 85q216 -3 364.5 -94.5t233.5 -243t111.5 -336t0.5 -373.5zM1220 1844q-209 4 -361.5 -96
t-255 -261.5t-161.5 -340.5q162 38 323 32.5t322.5 -27t323.5 -33.5t326 12q9 129 -16.5 254.5t-88 228.5t-164.5 165.5t-248 65.5zM912 204q210 -4 363 96.5t255.5 263t160.5 342.5q-162 -39 -323 -34t-322.5 26.5t-324 34t-326.5 -10.5q-9 -129 16 -255.5t87.5 -230
t165 -166.5t248.5 -66z" />
    <glyph glyph-name="Ohorn" unicode="&#x1a0;" horiz-adv-x="2164" 
d="M1941 1029q-29 -202 -112 -392t-216 -341t-312 -239t-402 -85q-217 2 -365 94t-233 243.5t-111.5 336t-0.5 372.5q28 203 111.5 393t217.5 341t314 239t401 85q158 -1 304 -61t250 -182q139 30 202.5 130.5t80.5 232.5h228q-18 -192 -112.5 -335.5t-286.5 -199.5
q43 -159 54 -314t-12 -318zM1708 1030q20 137 8.5 279t-65.5 262t-159 195t-272 78q-171 3 -308.5 -67t-238.5 -189.5t-164 -268t-86 -302.5q-20 -137 -8 -278.5t66 -262t159 -195t271 -77.5q172 -4 309.5 66.5t238.5 190t164 268t85 301.5z" />
    <glyph glyph-name="ohorn" unicode="&#x1a1;" horiz-adv-x="1684" 
d="M674 -32q-163 2 -277 70t-181.5 180.5t-90.5 251t-5 283.5q20 157 83 302t165 259t240.5 179.5t308.5 62.5q134 -2 254.5 -55.5t202.5 -161.5q100 42 131.5 128.5t44.5 184.5h212q-15 -158 -81.5 -282.5t-224.5 -181.5q20 -105 23.5 -210.5t-10.5 -212.5
q-21 -156 -83.5 -300t-164.5 -257.5t-239.5 -178t-307.5 -61.5zM686 179q164 -4 280 83t184.5 223.5t89.5 281.5q14 95 6.5 195t-43.5 185.5t-108.5 139.5t-189.5 57q-164 5 -280 -83t-184.5 -226t-89.5 -282q-14 -95 -7 -194.5t43.5 -184.5t109 -138.5t189.5 -56.5z" />
    <glyph glyph-name="OI" unicode="&#x1a2;" horiz-adv-x="2272" 
d="M2285 2004l-446 -2576h-270l399 2298l-201 -70l-234 -1384q-78 -116 -198 -182t-258 -93t-269 -26q-204 2 -343 84t-218.5 219t-104 307.5t1.5 350.5l21 140q30 188 107.5 361.5t200 309t288.5 213t372 75.5q143 -1 294 -35t256 -141l382 149h220zM1121 1803
q-153 2 -270 -60.5t-200.5 -169t-135 -237.5t-72.5 -264l-23 -141q-18 -121 -12 -248t48.5 -235t133 -176t241.5 -71q126 -3 235 29.5t205 113.5l234 1313q-38 64 -103 94.5t-140 40.5t-141 11z" />
    <glyph glyph-name="oi" unicode="&#x1a3;" horiz-adv-x="1760" 
d="M1737 1488l-357 -2060h-266l295 1695l-179 -97l-138 -839q-93 -103 -222.5 -160.5t-268.5 -54.5q-210 4 -336.5 111t-175 275.5t-23.5 357.5l8 56q29 199 127 370t258 274.5t376 99.5q112 -2 217.5 -40.5t180.5 -124.5l280 137h224zM613 193q56 -1 108 15.5t101 42.5
l178 983q-37 33 -82.5 48t-93.5 16q-149 4 -248 -74.5t-155 -201t-76 -250.5l-8 -57q-11 -81 -8.5 -171.5t30 -169.5t88.5 -129t166 -52z" />
    <glyph glyph-name="Phook" unicode="&#x1a4;" horiz-adv-x="2068" 
d="M1191 739l-440 1l-129 -740h-242l317 1828l-110 2q-117 -1 -166.5 -74t-65.5 -176l-12 -76h-226l20 136q26 182 147.5 295.5t308.5 113.5l792 -2q290 -5 447 -177.5t123 -463.5q-24 -206 -127.5 -355.5t-267 -230.5t-369.5 -81zM940 1828l-151 -868l413 -1
q214 -1 350 118t165 331q25 193 -58.5 304t-282.5 115z" />
    <glyph glyph-name="phook" unicode="&#x1a5;" horiz-adv-x="1700" 
d="M-35 -576l353 2112h1q29 167 145 266.5t287 99.5q36 0 71.5 -2.5t70.5 -10.5l-21 -201q-40 9 -72 11q-106 3 -175.5 -51t-88.5 -160l-38 -198l24 1q92 120 199 194.5t269 72.5q161 -2 269 -73t168 -186.5t78.5 -253.5t1.5 -275q-19 -148 -76.5 -292t-152.5 -260.5
t-226.5 -184.5t-297.5 -64q-286 7 -397 268h-22l-146 -813h-224zM1277 775q13 93 7 191.5t-40.5 183t-105 138t-186.5 57.5q-163 4 -274.5 -83t-175 -223t-83.5 -278q-13 -92 -8.5 -192t36.5 -187.5t101 -143.5t185 -59q123 -3 217.5 48.5t162 139.5t108 194.5t56.5 213.5z
" />
    <glyph glyph-name="YR" unicode="&#x1a6;" horiz-adv-x="2016" 
d="M1298 -496l-446 1304h-434l-141 -808h-281l372 2144h281l-25 -140l354 -1q186 -3 327.5 -69.5t214 -198t51.5 -328.5q-21 -200 -144.5 -337t-307.5 -205l474 -1344v-19zM585 1772l-128 -736l354 -1q117 0 221 42t174.5 125t87.5 206q25 177 -65 268t-263 95z" />
    <glyph glyph-name="Tonetwo" unicode="&#x1a7;" horiz-adv-x="1760" 
d="M373 501q-14 -107 31.5 -172.5t127.5 -96t176 -32.5q124 -3 238 38.5t192.5 127.5t96.5 218l275 1q-13 -150 -89 -265t-193.5 -193t-256.5 -117.5t-277 -37.5q-160 2 -304.5 60t-229.5 175t-68 298q14 144 83 247.5t173.5 176t228 121t245.5 82.5q71 19 154.5 45.5
t160.5 67t131.5 100.5t66.5 147q16 105 -25.5 173t-120 101t-174.5 35q-182 4 -318 -92.5t-160 -284.5l-279 -1q11 145 82 258.5t181 192.5t242 119.5t267 38.5q159 -2 299 -65.5t221.5 -184t64.5 -295.5q-13 -137 -83 -236t-174.5 -168t-225 -115.5t-235.5 -79.5
q-106 -30 -221 -71t-200.5 -115t-102.5 -201z" />
    <glyph glyph-name="tonetwo" unicode="&#x1a8;" horiz-adv-x="1504" 
d="M346 389q-9 -75 29 -117.5t99 -61t122 -19.5q138 -4 243.5 67t135.5 209l267 2q-12 -165 -113.5 -276.5t-248.5 -167.5t-297 -53q-131 2 -250.5 50.5t-191.5 146t-61 244.5q8 113 64 190.5t141.5 127.5t184.5 81t193 52q67 15 150 35.5t147.5 64t76.5 127.5
q14 106 -60.5 155.5t-167.5 51.5q-114 2 -212.5 -65t-116.5 -185l-269 -1q12 156 104 261t228.5 158t279.5 50q124 -2 238 -52.5t183.5 -146t60.5 -234.5q-8 -111 -65.5 -187t-144 -125t-185.5 -78.5t-191 -48.5q-75 -15 -157 -40t-143 -75t-73 -140z" />
    <glyph glyph-name="Esh" unicode="&#x1a9;" horiz-adv-x="1760" 
d="M1113 1013l-2 -30l-704 -751h1012l-41 -232h-1367l38 219l769 788l-495 797l35 200h1306l-41 -232h-968z" />
    <glyph glyph-name="eshlooprev" unicode="&#x1aa;" horiz-adv-x="1504" 
d="M291 1668q11 131 83 241t185.5 174.5t247.5 61.5q124 -4 216.5 -70.5t139 -172.5t33.5 -226l-297 -1757q-7 -54 -4.5 -111t30 -96.5t96.5 -41.5q23 0 45 3t44 8l-21 -218q-36 -12 -74.5 -17t-76.5 -4q-137 2 -208.5 73t-93 179.5t-7.5 225.5l235 1331q-44 -20 -90 -31
t-95 -11q-123 2 -214 67.5t-137.5 169.5t-36.5 222zM705 1458q101 -2 165 66t75 164q9 83 -30.5 146.5t-130.5 65.5q-100 2 -166.5 -65.5t-76.5 -163.5q-10 -87 30.5 -148.5t133.5 -64.5z" />
    <glyph glyph-name="tpalatalhook" unicode="&#x1ab;" horiz-adv-x="992" 
d="M950 1536l-39 -220h-317l-148 -877q-11 -90 14 -158t128 -71q25 -1 40 1l124 24l-65 -399q-24 -181 -142.5 -297.5t-305.5 -116.5q-36 0 -71 2.5t-70 10.5l21 201q40 -10 72 -11q107 -4 176 50.5t88 160.5l29 151q-142 29 -218 137t-61 252l158 940h-225l38 220h225
l57 328h231l-58 -328h319z" />
    <glyph glyph-name="Thook" unicode="&#x1ac;" horiz-adv-x="1760" 
d="M1827 2048l-39 -220h-624l-318 -1828h-242l317 1828l-324 2q-103 -1 -159 -68t-72 -162l-13 -76h-218l17 120q26 184 147 294.5t309 110.5z" />
    <glyph glyph-name="thook" unicode="&#x1ad;" horiz-adv-x="992" 
d="M989 1488l-36 -204h-263l-147 -874q-5 -42 -2 -89t26.5 -80t78.5 -34q30 -1 60 4t60 9l-23 -220q-42 -20 -95 -24t-99 -3q-120 3 -183.5 70.5t-83 167.5t-8.5 201l147 872h-261l36 204h260l39 248q25 183 154 298t316 112q36 -1 71 -7t69 -14l-19 -185q-17 6 -35 10
t-37 5q-107 4 -169.5 -56.5t-79.5 -162.5l-40 -248h264z" />
    <glyph glyph-name="Trthook" unicode="&#x1ae;" horiz-adv-x="1792" 
d="M1828 2048l-39 -220h-625l-342 -1994q-12 -100 38 -143.5t144 -45.5l89 -1l-39 -220l-118 2q-171 6 -271.5 120.5t-83.5 285.5l341 1996h-625l39 220h1492z" />
    <glyph glyph-name="Uhorn" unicode="&#x1af;" horiz-adv-x="2388" 
d="M1747 2048h243l-54 -270q148 37 209.5 144.5t79.5 249.5h224q-23 -245 -152 -404.5t-383 -187.5l-158 -888q-34 -220 -160.5 -385.5t-315.5 -256.5t-411 -88q-208 3 -367 97t-239 257.5t-52 375.5l232 1356h243l-234 -1357q-20 -145 30 -255.5t154.5 -174t249.5 -66.5
q152 -3 285.5 57.5t224.5 173.5t117 266z" />
    <glyph glyph-name="uhorn" unicode="&#x1b0;" horiz-adv-x="1736" 
d="M1105 608l159 928h229l-41 -228q134 17 171.5 96.5t51.5 199.5l200 1q-18 -212 -121.5 -328t-320.5 -130l-205 -1147h-231l45 217h-11q-89 -112 -210 -176.5t-267 -60.5q-154 4 -247 92.5t-129 221t-19 266.5l166 976h230l-167 -977q-17 -138 44 -242t212 -109
q119 -4 216.5 48.5t161.5 144.5t83 207z" />
    <glyph glyph-name="Upsilon2" unicode="&#x1b1;" horiz-adv-x="1760" 
d="M418 1004l-25 -161q-15 -105 -12 -216t37.5 -207t111.5 -156.5t209 -63.5q136 -4 238 51.5t173 149.5t114.5 210t61.5 233l25 161q14 94 21 213.5t-12 235.5t-80.5 201.5t-184.5 112.5l35 236h670l-42 -232l-282 -2q101 -179 144 -369.5t13 -396.5l-25 -156
q-27 -169 -98.5 -327.5t-184 -283.5t-263.5 -197t-338 -70q-180 3 -307.5 79t-203.5 202t-101.5 281t-2.5 315l25 157q37 221 144.5 425t284.5 346l-284 -3l41 232h657l-36 -235q-131 -25 -222.5 -103.5t-151.5 -189.5t-95.5 -234.5t-53.5 -237.5z" />
    <glyph glyph-name="Vcursive" unicode="&#x1b2;" horiz-adv-x="1760" 
d="M722 -29q-201 3 -346 87.5t-214.5 235.5t-43.5 354l232 1356h278l-233 -1357q-26 -190 56.5 -317t284.5 -131q213 -5 349 119.5t169 329.5l152 905q12 103 -20.5 170t-145.5 71q-42 1 -89 -7l21 222q36 10 73.5 16t74.5 6q137 -1 223 -68.5t122 -176.5t21 -234l-151 -904
q-31 -206 -145 -359.5t-287 -237t-381 -80.5z" />
    <glyph glyph-name="Yhook" unicode="&#x1b3;" horiz-adv-x="1970" 
d="M543 2049l386 -957l23 -1l512 683l52 72q102 144 245.5 202t311.5 -17l-83 -198q-85 37 -150.5 8.5t-118.5 -100.5l-55 -75l-639 -834l-145 -832h-242l149 857l-504 1191z" />
    <glyph glyph-name="yhook" unicode="&#x1b4;" horiz-adv-x="1700" 
d="M397 -137l75 137l-260 1536h240l189 -1185l529 1037l28 57q50 101 116.5 206.5t159.5 177t224 68.5q73 -2 138.5 -28.5t122.5 -71.5l-78 -161q-36 21 -75 37.5t-81 18.5q-87 3 -145.5 -53t-99 -135t-70.5 -142l-28 -57l-785 -1534q-76 -159 -211.5 -268t-320.5 -105
q-45 1 -91.5 7t-91.5 15l24 220q26 -7 53.5 -8t54.5 -2q266 -6 383 233z" />
    <glyph glyph-name="Zbar" unicode="&#x1b5;" horiz-adv-x="1744" 
d="M1433 220l-39 -220h-1371l34 192l593 720h-217l33 184h335l603 732h-1076l39 220h1371l-33 -192l-626 -760h242l-32 -184h-361l-570 -692h1075z" />
    <glyph glyph-name="zbar" unicode="&#x1b6;" horiz-adv-x="1508" 
d="M1212 220l-39 -220h-1154l37 212l429 464h-205l32 184h342l421 456h-843l39 220h1149l-34 -200l-435 -476h217l-33 -184h-352l-417 -456h846z" />
    <glyph glyph-name="Ezh" unicode="&#x1b7;" horiz-adv-x="1760" 
d="M-31 93h279q9 -130 42.5 -227.5t112 -152t223.5 -58.5q271 -6 419.5 155t180.5 418q21 164 -6.5 291t-121.5 200.5t-273 76.5h-315l39 219l788 755l-1022 2l40 232h1356l-37 -215l-817 -777q243 2 396 -99.5t215 -280t33 -407.5q-30 -244 -146.5 -424t-305.5 -277.5
t-438 -93.5q-311 4 -469.5 185t-172.5 478z" />
    <glyph glyph-name="Ezhreversed" unicode="&#x1b8;" horiz-adv-x="2016" 
d="M1321 91l274 2q-38 -205 -155.5 -355t-291 -230.5t-380.5 -78.5q-240 2 -394 101t-218.5 274.5t-35.5 407.5q49 391 291 593t626 212l-537 794l34 193h1352l-41 -232h-1036l537 -779l-35 -197l-281 1q-283 1 -438 -152.5t-190 -429.5q-20 -154 4 -280t112.5 -201.5
t262.5 -79.5q227 -4 353.5 113t186.5 324z" />
    <glyph glyph-name="ezhreversed" unicode="&#x1b9;" horiz-adv-x="1760" 
d="M394 1488h1162l-39 -220h-828l383 -624l-36 -204l-185 1q-204 1 -342.5 -97.5t-163.5 -311.5q-19 -158 70.5 -256.5t247.5 -101.5q108 -3 199.5 45t152.5 131.5t77 189.5l263 1q-17 -184 -118 -316t-255.5 -201.5t-332.5 -67.5q-174 3 -311 72t-209.5 198.5t-54.5 312.5
q20 192 116 322t246 201.5t331 87.5l-401 682z" />
    <glyph glyph-name="ezhtail" unicode="&#x1ba;" horiz-adv-x="1504" 
d="M209 -184q-11 -75 28 -117.5t101.5 -60.5t123.5 -19q137 -4 242.5 65t135.5 207l264 2q-12 -163 -113.5 -273.5t-248 -166t-293.5 -53.5q-131 2 -251 49.5t-192.5 144t-61.5 244.5q8 115 67.5 193t149 127.5t191.5 79.5t197 50q70 14 147.5 35.5t135.5 66t70 129.5
q9 70 -27 103.5t-93 44.5t-111 12l-248 1l32 181l578 405l-772 2l39 220h1162l-31 -178l-550 -435q128 -36 213 -129.5t76 -233.5q-8 -115 -65 -192.5t-145 -127t-189 -79t-196 -49.5q-71 -15 -152 -39.5t-142 -73.5t-72 -135z" />
    <glyph glyph-name="twostroke" unicode="&#x1bb;" horiz-adv-x="1664" 
d="M1359 220l-38 -220h-1337l34 190l806 722h-200l32 184l367 -1q86 83 168 181.5t101 221.5q25 154 -64 263t-246 113q-134 3 -225.5 -64t-143.5 -174.5t-67 -227.5l-235 -1q17 185 107 338.5t238.5 244t342.5 87.5q162 -3 289 -76.5t193.5 -202t47.5 -295.5
q-13 -118 -75.5 -221t-140.5 -189l199 3l-33 -184h-321q-32 -29 -63.5 -58.5t-64.5 -57.5l-643 -560l-7 -20z" />
    <glyph glyph-name="Tonefive" unicode="&#x1bc;" horiz-adv-x="1664" 
d="M454 949l-235 54l230 809h-197l41 236h1275l-42 -236h-828l-199 -634l5 1q78 57 171.5 89.5t190.5 31.5q189 -1 318.5 -89t188.5 -235.5t39 -329.5q-23 -203 -130 -356t-274.5 -237.5t-370.5 -80.5q-249 4 -382.5 151t-141.5 390h232q12 -144 89.5 -235t229.5 -95
q132 -4 243.5 58.5t184.5 169t89 233.5q15 115 -16.5 212t-109 157t-200.5 62q-224 5 -401 -126z" />
    <glyph glyph-name="tonefive" unicode="&#x1bd;" horiz-adv-x="1504" 
d="M482 649l-241 20l168 583h-220l41 236h1154l-41 -236h-677l-106 -326q61 41 136.5 62.5t148.5 23.5q154 3 258 -63.5t151 -183t32 -263.5q-17 -174 -107 -292.5t-230 -178t-307 -56.5q-131 2 -246.5 55t-186 151.5t-66.5 239.5l260 23q-6 -118 67.5 -180t187.5 -65
q144 -3 244.5 79t117.5 227q15 125 -47 205t-192 82q-182 4 -299 -143z" />
    <glyph glyph-name="glottalstopbarinv" unicode="&#x1be;" horiz-adv-x="1504" 
d="M969 404q12 78 -24.5 138.5t-95.5 115t-119 113.5t-97 132.5t-27 172.5l31 208h-260l35 204h260l62 356h269l-62 -356h265l-36 -204h-264l-32 -201q-13 -91 22.5 -154.5t94 -114.5t118.5 -103t98.5 -119t32.5 -163q-10 -158 -106.5 -260.5t-236 -151.5t-280.5 -46
q-149 3 -272 61.5t-195 168.5t-66 268h269q-3 -132 73 -203t206 -74q69 -1 143 19t128 67t66 126z" />
    <glyph glyph-name="wynn" unicode="&#x1bf;" horiz-adv-x="1760" 
d="M1455 729q-31 -219 -137.5 -376.5t-264.5 -267t-345.5 -183t-378.5 -124.5l-67 -350h-269l357 2060l245 1l-23 -155q176 187 434 182q155 -3 251.5 -73.5t145.5 -182.5t60.5 -244t-4.5 -258zM911 1289q-114 3 -202.5 -52t-155.5 -141l-200 -1103q143 43 280 103t253 146
t195 206t104 283l4 27q11 81 8 172t-31 171.5t-89 132t-166 55.5z" />
    <glyph glyph-name="pipe" unicode="&#x1c0;" horiz-adv-x="732" 
d="M674 2048l-355 -2048h-215l355 2048h215z" />
    <glyph glyph-name="pipedbl" unicode="&#x1c1;" horiz-adv-x="992" 
d="M600 2048l-355 -2048h-215l355 2048h215zM961 2048l-355 -2048h-215l355 2048h215z" />
    <glyph glyph-name="pipedblbar" unicode="&#x1c2;" horiz-adv-x="1136" 
d="M973 788l-33 -184h-317l-105 -604h-215l105 604h-323l33 184h321l88 504h-323l33 184h321l100 572h215l-100 -572h319l-32 -184h-318l-88 -504h319z" />
    <glyph glyph-name="exclam1" unicode="&#x1c3;" horiz-adv-x="736" 
d="M697 2048l-274 -1472h-227l236 1472h265zM232 -34q-78 0 -129.5 55.5t-51.5 131.5q0 80 55.5 141.5t137.5 62.5q77 0 128 -57t51 -132q1 -79 -54.5 -140t-136.5 -62z" />
    <glyph glyph-name="Dzcaron_" unicode="&#x1c5;" horiz-adv-x="3352" 
d="M2497 2048l189 -239l279 238l193 3v-20l-411 -374h-133l-300 374l1 21zM718 0h-629l355 2048h627q224 -3 380.5 -84t249 -221.5t123 -323t2.5 -387.5q-41 -299 -185.5 -532t-378.5 -367t-544 -133zM1046 1828h-397l-279 -1608l342 -1q249 0 433.5 104t297.5 287.5
t149 421.5q31 210 -8.5 390t-169.5 291t-368 115zM3001 220l-39 -220h-1154l37 212l1019 1104h-844l39 220h1150l-35 -200l-1019 -1116h846z" />
    <glyph glyph-name="dzcaron" unicode="&#x1c6;" horiz-adv-x="2964" 
d="M2123 2048l190 -239l279 238l193 3v-20l-412 -374h-133l-299 374v21zM1304 0h-223l48 238h-19q-91 -123 -202.5 -198.5t-273.5 -73.5q-161 2 -268.5 73.5t-167.5 187.5t-78 254.5t-1 275.5q19 149 77.5 293t154.5 260t228.5 183t298.5 62q282 -8 397 -264h18l136 757h231
zM2623 220l-38 -220h-1154l37 212l1019 1104h-844l39 220h1150l-35 -200l-1019 -1116h845zM350 760q-13 -92 -7.5 -192.5t39.5 -187.5t104.5 -143t186.5 -59q123 -3 217 48.5t160 139.5t106 195t54 213q13 93 8 191.5t-38 183.5t-102 138.5t-185 57.5q-163 4 -276.5 -83
t-180 -223t-86.5 -279z" />
    <glyph glyph-name="LJ" unicode="&#x1c7;" horiz-adv-x="3232" 
d="M345 0zM1550 220l-39 -220h-1166l355 2048h243l-317 -1828h924zM2701 583l250 1465h243l-252 -1464q-28 -180 -115.5 -320t-229.5 -218.5t-332 -74.5q-158 3 -273 73.5t-175 191.5t-51 277l234 -1q-9 -142 71 -228.5t223 -91.5q178 -7 280 110t127 281z" />
    <glyph glyph-name="Lj" unicode="&#x1c8;" horiz-adv-x="2476" 
d="M345 0zM1550 220l-39 -220h-1166l355 2048h243l-317 -1828h924zM2324 1755q-67 0 -113 43.5t-47 111.5q0 69 48 117.5t117 48.5q65 1 112 -43.5t48 -110.5q1 -70 -47 -118t-118 -49zM2148 1536h230l-282 -1647q-30 -212 -153.5 -341t-345.5 -130h-53l24 221l40 -1
q116 0 177.5 71t79.5 179z" />
    <glyph glyph-name="lj" unicode="&#x1c9;" horiz-adv-x="1560" 
d="M314 0zM900 2048l-355 -2048h-231l355 2048h231zM1408 1755q-67 0 -113 43.5t-47 111.5q0 69 48 117.5t117 48.5q65 1 112 -43.5t48 -110.5q1 -70 -47 -118t-118 -49zM1232 1536h230l-282 -1647q-30 -212 -153.5 -341t-345.5 -130h-53l24 221l40 -1q116 0 177.5 71
t79.5 179z" />
    <glyph glyph-name="NJ" unicode="&#x1ca;" horiz-adv-x="3728" 
d="M345 0zM2239 2048l-356 -2048h-226l-765 1604l-21 1l-284 -1605h-242l355 2048h227l767 -1612l22 -1l284 1613h239zM3197 583l250 1465h243l-252 -1464q-28 -180 -115.5 -320t-229.5 -218.5t-332 -74.5q-158 3 -273 73.5t-175 191.5t-51 277l234 -1q-9 -142 71 -228.5
t223 -91.5q178 -7 280 110t127 281z" />
    <glyph glyph-name="Nj" unicode="&#x1cb;" horiz-adv-x="2972" 
d="M345 0zM2239 2048l-356 -2048h-226l-765 1604l-21 1l-284 -1605h-242l355 2048h227l767 -1612l22 -1l284 1613h239zM2820 1755q-67 0 -113 43.5t-47 111.5q0 69 48 117.5t117 48.5q65 1 112 -43.5t48 -110.5q1 -70 -47 -118t-118 -49zM2644 1536h230l-282 -1647
q-30 -212 -153.5 -341t-345.5 -130h-53l24 221l40 -1q116 0 177.5 71t79.5 179z" />
    <glyph glyph-name="nj" unicode="&#x1cc;" horiz-adv-x="2528" 
d="M314 0zM700 908l-155 -908h-231l267 1536h231l-53 -261h11q80 132 203 208t280 73q163 -3 256 -88t125.5 -217t15.5 -275l-166 -976h-231l164 961q12 91 -9.5 173.5t-80.5 136t-161 57.5q-121 5 -219.5 -53.5t-163 -156t-83.5 -210.5zM2376 1755q-67 0 -113 43.5
t-47 111.5q0 69 48 117.5t117 48.5q65 1 112 -43.5t48 -110.5q1 -70 -47 -118t-118 -49zM2200 1536h230l-282 -1647q-30 -212 -153.5 -341t-345.5 -130h-53l24 221l40 -1q116 0 177.5 71t79.5 179z" />
    <glyph glyph-name="Acaron" unicode="&#x1cd;" horiz-adv-x="1888" 
d="M0 0zM177 0h-264l1085 2048h250l374 -2048h-243l-93 548h-826zM1067 1725l-494 -957h676l-158 957h-24zM996 2628l189 -239l279 238l193 3v-20l-411 -374h-133l-300 374l1 21z" />
    <glyph glyph-name="acaron" unicode="&#x1ce;" horiz-adv-x="1572" 
d="M53 0zM956 0l37 210l-8 -1q-79 -123 -205 -185.5t-272 -60.5q-135 2 -239.5 60.5t-160 162t-45.5 242.5q9 129 69 213t152.5 134t202 75.5t218.5 38.5q38 5 102 6t131.5 9t119 32t65.5 73v5q3 93 -12 168t-67.5 119.5t-160.5 46.5q-131 3 -247.5 -56.5t-181.5 -174.5
l-214 80q90 187 265.5 274.5t376.5 84.5q245 -4 370 -151t99 -393l-171 -1012h-224zM1047 556l46 217q-45 -42 -119 -57.5t-152 -19.5t-136 -11q-83 -9 -169.5 -35t-149 -81.5t-75.5 -152.5q-16 -125 68 -182t194 -59q117 -2 221 44.5t177 133t95 203.5zM760 2116l189 -239
l279 238l193 3v-20l-411 -374h-133l-300 374l1 21z" />
    <glyph glyph-name="Icaron" unicode="&#x1cf;" horiz-adv-x="728" 
d="M89 0zM687 2048l-356 -2048h-242l355 2048h243zM400 2628l189 -239l279 238l193 3v-20l-411 -374h-133l-300 374l1 21z" />
    <glyph glyph-name="icaron" unicode="&#x1d0;" horiz-adv-x="652" 
d="M58 0zM555 1536l-266 -1536h-231l267 1536h230zM300 2120l189 -239l279 238l193 3v-20l-411 -374h-133l-300 374l1 21z" />
    <glyph glyph-name="Ocaron" unicode="&#x1d1;" horiz-adv-x="2128" 
d="M163 0zM1943 1030q-28 -203 -111.5 -393t-217.5 -341t-314 -239t-401 -85q-217 3 -365 94.5t-233 243t-111.5 336t-0.5 372.5q28 203 111.5 393t217.5 341t314 239t401 85q217 -3 365 -94.5t233 -243t111.5 -336t0.5 -372.5zM1708 1031q20 137 8.5 278.5t-65.5 261.5
t-159 195t-272 78q-171 3 -308.5 -67t-238.5 -189.5t-164 -268t-85 -302.5q-21 -137 -9 -278.5t66 -261.5t159 -195t271 -78q172 -3 309.5 67t238.5 189.5t164 268t85 302.5zM1116 2628l189 -239l279 238l193 3v-20l-411 -374h-133l-300 374l1 21z" />
    <glyph glyph-name="ocaron" unicode="&#x1d2;" horiz-adv-x="1664" 
d="M105 0zM688 -32q-163 2 -278.5 69.5t-184.5 180t-94.5 251.5t-8.5 285q18 156 79 301t161.5 259t237.5 179.5t307 62.5q164 -2 279 -70t184 -181.5t94 -253t9 -285.5q-18 -156 -79.5 -300t-162.5 -257.5t-237.5 -178.5t-305.5 -62zM699 180q163 -4 277 83t180.5 223
t85.5 280q13 96 3.5 196.5t-47.5 186t-111.5 139t-190.5 56.5q-163 4 -277.5 -84t-180.5 -225.5t-85 -280.5q-13 -96 -4 -196t47.5 -184.5t112 -137.5t190.5 -56zM779 2116l189 -239l279 238l193 3v-20l-411 -374h-133l-300 374l1 21z" />
    <glyph glyph-name="Ucaron" unicode="&#x1d3;" horiz-adv-x="2072" 
d="M183 0zM1747 2048h242l-233 -1355q-34 -220 -161 -385.5t-316 -257.5t-410 -89q-208 3 -366.5 97.5t-239 258.5t-52.5 375l232 1356h243l-234 -1357q-20 -145 30 -255.5t154.5 -173.5t248.5 -66q152 -3 286 57.5t225 173t117 265.5zM1088 2628l189 -239l279 238l193 3
v-20l-411 -374h-133l-300 374l1 21z" />
    <glyph glyph-name="ucaron" unicode="&#x1d4;" horiz-adv-x="1620" 
d="M142 0zM1105 608l159 928h230l-266 -1536h-231l45 217h-11q-88 -112 -209.5 -177t-267.5 -61q-154 4 -246.5 93t-129 221.5t-19.5 266.5l166 976h230l-166 -977q-18 -138 43 -242t211 -109q120 -4 218 48.5t162 144.5t82 207zM776 2116l189 -239l279 238l193 3v-20
l-411 -374h-133l-300 374l1 21z" />
    <glyph glyph-name="Udieresismacron" unicode="&#x1d5;" horiz-adv-x="2072" 
d="M183 0zM1747 2048h242l-233 -1355q-34 -220 -161 -385.5t-316 -257.5t-410 -89q-208 3 -366.5 97.5t-239 258.5t-52.5 375l232 1356h243l-234 -1357q-20 -145 30 -255.5t154.5 -173.5t248.5 -66q152 -3 286 57.5t225 173t117 265.5zM1874 2885l-36 -206h-912l36 206h912z
M870 2411q0 69 43 113t112 46q66 1 109 -40t44 -108q1 -68 -43 -112t-111 -45q-66 -1 -109.5 39.5t-44.5 106.5zM1495 2409q-1 69 42.5 113t112.5 45q66 1 109.5 -40t43.5 -107q1 -69 -42.5 -112.5t-111.5 -45.5q-66 -1 -110 39.5t-44 107.5z" />
    <glyph glyph-name="udieresismacron" unicode="&#x1d6;" horiz-adv-x="1620" 
d="M142 0zM1105 608l159 928h230l-266 -1536h-231l45 217h-11q-88 -112 -209.5 -177t-267.5 -61q-154 4 -246.5 93t-129 221.5t-19.5 266.5l166 976h230l-166 -977q-18 -138 43 -242t211 -109q120 -4 218 48.5t162 144.5t82 207zM1577 2416l-36 -206h-914l37 206h913z
M587 1893q-1 69 42 113t112 45q66 1 109.5 -39.5t44.5 -107.5q0 -69 -43.5 -112.5t-111.5 -45.5q-66 -1 -109.5 39.5t-43.5 107.5zM1158 1890q0 69 43 113t112 46q66 1 109.5 -40t43.5 -108q1 -68 -42.5 -112.5t-111.5 -45.5q-67 -1 -110 40t-44 107z" />
    <glyph glyph-name="Udieresisacute" unicode="&#x1d7;" horiz-adv-x="2072" 
d="M183 0zM1747 2048h242l-233 -1355q-34 -220 -161 -385.5t-316 -257.5t-410 -89q-208 3 -366.5 97.5t-239 258.5t-52.5 375l232 1356h243l-234 -1357q-20 -145 30 -255.5t154.5 -173.5t248.5 -66q152 -3 286 57.5t225 173t117 265.5zM1239 2493l225 313h261l-298 -313
h-188zM1057 2246q-61 0 -106.5 47t-46.5 107q-1 66 44.5 116.5t112.5 51.5q66 1 109.5 -45t43.5 -110q1 -66 -44.5 -116t-112.5 -51zM1608 2246q-62 0 -107 47t-46 107q-1 66 44.5 116.5t112.5 51.5q66 1 109.5 -45t43.5 -110q1 -66 -44.5 -116t-112.5 -51z" />
    <glyph glyph-name="udieresisacute" unicode="&#x1d8;" horiz-adv-x="1620" 
d="M142 0zM1105 608l159 928h230l-266 -1536h-231l45 217h-11q-88 -112 -209.5 -177t-267.5 -61q-154 4 -246.5 93t-129 221.5t-19.5 266.5l166 976h230l-166 -977q-18 -138 43 -242t211 -109q120 -4 218 48.5t162 144.5t82 207zM908 2122l329 407h341l-440 -407h-230z
M587 1893q-1 69 42 113t112 45q66 1 109.5 -40t44.5 -107q0 -69 -43.5 -112.5t-111.5 -45.5q-66 -1 -109.5 39.5t-43.5 107.5zM1158 1890q0 69 43 113t112 46q66 1 109.5 -40t43.5 -108q1 -68 -42.5 -112.5t-111.5 -45.5q-67 -1 -110 40t-44 107z" />
    <glyph glyph-name="Udieresiscaron" unicode="&#x1d9;" horiz-adv-x="2072" 
d="M183 0zM1747 2048h242l-233 -1355q-34 -220 -161 -385.5t-316 -257.5t-410 -89q-208 3 -366.5 97.5t-239 258.5t-52.5 375l232 1356h243l-234 -1357q-20 -145 30 -255.5t154.5 -173.5t248.5 -66q152 -3 286 57.5t225 173t117 265.5zM1208 2874l164 -172l224 171l238 2
l-1 -27l-386 -298h-161l-299 294l2 31zM870 2411q0 69 43 113.5t112 45.5q66 1 109.5 -40t43.5 -108q1 -68 -43 -112t-111 -45q-66 -1 -109.5 39.5t-44.5 106.5zM1495 2409q-1 69 42.5 113t112.5 45q66 1 109.5 -40t43.5 -107q1 -69 -42.5 -112.5t-111.5 -45.5
q-66 -1 -110 39.5t-44 107.5z" />
    <glyph glyph-name="udieresiscaron" unicode="&#x1da;" horiz-adv-x="1620" 
d="M142 0zM1105 608l159 928h230l-266 -1536h-231l45 217h-11q-88 -112 -209.5 -177t-267.5 -61q-154 4 -246.5 93t-129 221.5t-19.5 266.5l166 976h230l-166 -977q-18 -138 43 -242t211 -109q120 -4 218 48.5t162 144.5t82 207zM928 2532l154 -228l235 227l235 3l1 -18
l-399 -378h-161l-286 378l1 19zM587 1893q-1 69 42 113t112 45q66 1 109.5 -40t44.5 -107q0 -69 -43.5 -112.5t-111.5 -45.5q-66 -1 -109.5 39.5t-43.5 107.5zM1158 1890q0 69 43 113t112 46q66 1 109.5 -40t43.5 -108q1 -68 -42.5 -112.5t-111.5 -45.5q-67 -1 -110 40
t-44 107z" />
    <glyph glyph-name="Udieresisgrave" unicode="&#x1db;" horiz-adv-x="2072" 
d="M183 0zM1747 2048h242l-233 -1355q-34 -220 -161 -385.5t-316 -257.5t-410 -89q-208 3 -366.5 97.5t-239 258.5t-52.5 375l232 1356h243l-234 -1357q-20 -145 30 -255.5t154.5 -173.5t248.5 -66q152 -3 286 57.5t225 173t117 265.5zM1327 2806l116 -313h-155l-190 313
h229zM870 2411q0 69 43 113.5t112 45.5q66 1 109.5 -40t43.5 -108q1 -68 -43 -112t-112 -45q-65 -1 -108.5 39.5t-44.5 106.5zM1495 2409q-1 69 42.5 113t112.5 45q66 1 109.5 -40t44.5 -107q0 -69 -43.5 -112.5t-111.5 -45.5q-66 -1 -110 39.5t-44 107.5z" />
    <glyph glyph-name="udieresisgrave" unicode="&#x1dc;" horiz-adv-x="1620" 
d="M142 0zM1105 608l159 928h230l-266 -1536h-231l45 217h-11q-88 -112 -209.5 -177t-267.5 -61q-154 4 -246.5 93t-129 221.5t-19.5 266.5l166 976h230l-166 -977q-18 -138 43 -242t211 -109q120 -4 218 48.5t162 144.5t82 207zM1016 2529l187 -407h-209l-284 407h306z
M587 1893q-1 69 42 113t112 45q66 1 109.5 -40t44.5 -107q0 -69 -43.5 -112.5t-111.5 -45.5q-66 -1 -109.5 39.5t-43.5 107.5zM1159 1890q-1 69 42 113.5t112 45.5q66 1 109.5 -40.5t43.5 -107.5q1 -68 -42.5 -112t-111.5 -46q-67 -1 -110 39.5t-43 107.5z" />
    <glyph glyph-name="eturn" unicode="&#x1dd;" horiz-adv-x="1504" 
d="M69 0zM779 1519q210 -3 338.5 -110.5t179.5 -277.5t27 -359l-7 -56q-20 -135 -80 -268t-155 -241.5t-220 -173t-275 -61.5q-196 3 -313 96.5t-161 245t-20 330.5l28 172h1054l-39 -220l-777 1l-8 -38q-23 -140 37 -249.5t215 -114.5q99 -3 176 46t132 129.5t89 172
t47 173.5l8 57q12 83 7.5 173.5t-34 169.5t-92.5 129.5t-168 53.5q-120 3 -229 -36t-204 -111l-84 186q101 101 245.5 142t282.5 39z" />
    <glyph glyph-name="Adieresismacron" unicode="&#x1de;" horiz-adv-x="1888" 
d="M0 0zM177 0h-264l1085 2048h250l374 -2048h-243l-93 548h-826zM1067 1725l-494 -957h676l-158 957h-24zM1782 2885l-36 -206h-912l36 206h912zM778 2411q0 69 43 113t112 46q66 1 109 -40t44 -108q1 -68 -43 -112t-111 -45q-66 -1 -109.5 39.5t-44.5 106.5zM1403 2409
q-1 69 42.5 113t112.5 45q66 1 109.5 -40t43.5 -107q1 -69 -42.5 -112.5t-111.5 -45.5q-66 -1 -110 39.5t-44 107.5z" />
    <glyph glyph-name="adieresismacron" unicode="&#x1df;" horiz-adv-x="1572" 
d="M53 0zM956 0l37 210l-8 -1q-79 -123 -205 -185.5t-272 -60.5q-135 2 -239.5 60.5t-160 162t-45.5 242.5q9 129 69 213t152.5 134t202 75.5t218.5 38.5q38 5 102 6t131.5 9t119 32t65.5 73v5q3 93 -12 168t-67.5 119.5t-160.5 46.5q-131 3 -247.5 -56.5t-181.5 -174.5
l-214 80q90 187 265.5 274.5t376.5 84.5q245 -4 370 -151t99 -393l-171 -1012h-224zM1047 556l46 217q-45 -42 -119 -57.5t-152 -19.5t-136 -11q-83 -9 -169.5 -35t-149 -81.5t-75.5 -152.5q-16 -125 68 -182t194 -59q117 -2 221 44.5t177 133t95 203.5zM1561 2416l-36 -206
h-914l37 206h913zM571 1893q-1 69 42 113t112 45q66 1 109.5 -39.5t44.5 -107.5q0 -69 -43.5 -112.5t-111.5 -45.5q-66 -1 -109.5 39.5t-43.5 107.5zM1142 1890q0 69 43 113t112 46q66 1 109.5 -40t43.5 -108q1 -68 -42.5 -112.5t-111.5 -45.5q-67 -1 -110 40t-44 107z" />
    <glyph glyph-name="Adotmacron" unicode="&#x1e0;" horiz-adv-x="1888" 
d="M0 0zM177 0h-264l1085 2048h250l374 -2048h-243l-93 548h-826zM1067 1725l-494 -957h676l-158 957h-24zM1782 2885l-36 -206h-912l36 206h912zM1089 2409q0 69 43.5 113t111.5 45q66 1 109.5 -39.5t44.5 -107.5q1 -69 -43 -113t-112 -45q-66 -1 -109.5 40t-44.5 107z" />
    <glyph glyph-name="adotmacron" unicode="&#x1e1;" horiz-adv-x="1572" 
d="M53 0zM956 0l37 210l-8 -1q-79 -123 -205 -185.5t-272 -60.5q-135 2 -239.5 60.5t-160 162t-45.5 242.5q9 129 69 213t152.5 134t202 75.5t218.5 38.5q38 5 102 6t131.5 9t119 32t65.5 73v5q3 93 -12 168t-67.5 119.5t-160.5 46.5q-131 3 -247.5 -56.5t-181.5 -174.5
l-214 80q90 187 265.5 274.5t376.5 84.5q245 -4 370 -151t99 -393l-171 -1012h-224zM1047 556l46 217q-45 -42 -119 -57.5t-152 -19.5t-136 -11q-83 -9 -169.5 -35t-149 -81.5t-75.5 -152.5q-16 -125 68 -182t194 -59q117 -2 221 44.5t177 133t95 203.5zM1559 2412l-36 -206
h-913l36 206h913zM851 1891q0 68 43.5 112t111.5 45q67 1 110 -39.5t44 -107.5q1 -68 -43 -112.5t-112 -45.5q-66 -2 -109.5 39.5t-44.5 108.5z" />
    <glyph glyph-name="AEmacron" unicode="&#x1e2;" horiz-adv-x="2832" 
d="M0 0zM2499 220l-39 -220h-1168l74 552h-761l-403 -552h-303l1530 2048h1305l-38 -220h-923l-90 -676h788l-39 -220h-778l-96 -712h941zM763 768h631l142 1058zM2207 2528l-32 -204h-914l33 204h913z" />
    <glyph glyph-name="aemacron" unicode="&#x1e3;" horiz-adv-x="2588" 
d="M53 0zM240 1198q91 186 266.5 274t376.5 84q86 -2 179 -27t164 -81.5t92 -153.5q101 126 234 195.5t297 66.5q161 -2 270 -68.5t170.5 -176.5t80.5 -245.5t1 -277.5l-12 -81l-1083 -85q-7 -181 82.5 -309t282.5 -133q134 -4 243 56.5t168 182.5l220 -64
q-48 -132 -148.5 -218.5t-230 -128.5t-263.5 -40q-178 3 -322 93t-194 268h-7q-48 -116 -142.5 -198.5t-214 -126t-241.5 -41.5q-135 2 -239.5 60.5t-160.5 162t-45 242.5q9 129 69 213t152.5 134t202 75.5t218.5 38.5q38 4 102 5.5t132 9.5t119.5 32t64.5 73v5
q3 93 -12 168t-67.5 119.5t-160.5 47.5q-131 3 -247.5 -57t-181.5 -175zM1838 1344q-154 5 -261.5 -71t-176 -197.5t-104.5 -251.5l855 68q20 113 -8 215t-104 167.5t-201 69.5zM1048 556l46 217q-45 -42 -119 -57.5t-152 -19.5t-136 -11q-83 -10 -169.5 -35.5t-149 -81
t-75.5 -152.5q-16 -125 68 -182t194 -59q117 -2 221 44.5t177 133t95 203.5zM1927 2016l-32 -204h-914l33 204h913z" />
    <glyph glyph-name="Gbar" unicode="&#x1e4;" horiz-adv-x="2148" 
d="M1884 1016l-38 -219q-16 -85 -48 -167l222 2l-39 -220h-270q-138 -207 -344.5 -325t-458.5 -115q-218 2 -368 93t-236.5 241.5t-114 335.5t-1.5 376q28 201 111 391t216 341.5t312 240t399 86.5q204 -3 349 -92t235.5 -240.5t129.5 -338.5l-241 1q-43 186 -164.5 309.5
t-321.5 127.5q-171 4 -307 -66.5t-236.5 -191.5t-162.5 -269.5t-84 -299.5q-21 -139 -8 -281t68.5 -261.5t162 -194t273.5 -76.5q148 -3 273 55t232 156l-364 -3l38 220l459 -2q18 39 31.5 79.5t26.5 82.5l4 14l-492 -6l38 216h719z" />
    <glyph glyph-name="gbar" unicode="&#x1e5;" horiz-adv-x="1732" 
d="M1691 884l-33 -184h-232l-121 -712q-27 -188 -133 -314.5t-263.5 -189.5t-339.5 -60q-179 3 -328.5 76.5t-238.5 233.5l195 131q71 -106 160 -165.5t222 -63.5q121 -3 227 39.5t179 127.5t93 209l52 274l-15 -1q-91 -122 -201.5 -193.5t-270.5 -69.5q-155 2 -262.5 67
t-170 172.5t-83.5 239.5t-5 268q18 148 76.5 289.5t155 255.5t228 179.5t295.5 61.5q283 -7 398 -264h25l48 245h223l-113 -652h233zM353 772q-17 -125 4.5 -247t99 -204t227.5 -86q144 -4 246 60.5t169 172.5t105 233l-401 -1l33 184h385q10 113 -19.5 217t-105 172
t-203.5 72q-159 4 -272.5 -80.5t-180.5 -217.5t-87 -275z" />
    <glyph glyph-name="Gcaron" unicode="&#x1e6;" horiz-adv-x="2076" 
d="M163 0zM1885 1016l-37 -219q-38 -237 -167.5 -424.5t-328 -295.5t-444.5 -105q-218 2 -368 93t-236 242t-113.5 336t-1.5 375q28 201 111 391t216 341.5t312 240t399 86.5q204 -3 349 -92.5t235.5 -240t129.5 -338.5l-241 1q-43 186 -164.5 309.5t-321.5 127.5
q-171 4 -307 -67t-236.5 -191.5t-162.5 -268.5t-84 -300q-21 -139 -8 -281.5t68.5 -262t162 -193.5t274.5 -77q182 -3 324.5 76t238 215t136.5 303l-493 -1l39 220h719zM1108 2628l189 -239l279 238l193 3v-20l-411 -374h-133l-300 374l1 21z" />
    <glyph glyph-name="gcaron" unicode="&#x1e7;" horiz-adv-x="1700" 
d="M2 0zM1348 1536h223l-266 -1547q-27 -188 -133 -315t-263 -190t-340 -60q-179 3 -328.5 76.5t-238.5 233.5l195 131q70 -106 159.5 -165.5t222.5 -63.5q120 -3 226.5 39.5t179.5 127.5t93 209l52 274l-15 -1q-91 -122 -201.5 -193t-270.5 -70q-155 2 -262 67
t-169.5 172.5t-84 239.5t-5.5 268q18 148 76.5 290t155 255.5t228 179t295.5 61.5q283 -7 398 -264h25zM354 773q-18 -126 3.5 -248.5t99 -204t227.5 -85.5q159 -4 270 75t175 207t83 270q13 92 6.5 188.5t-40 179t-102.5 134.5t-183 56q-160 4 -273 -80.5t-179.5 -217.5
t-86.5 -274zM844 2116l189 -239l279 238l193 3v-20l-411 -374h-133l-300 374l1 21z" />
    <glyph glyph-name="Kcaron" unicode="&#x1e8;" horiz-adv-x="1820" 
d="M89 0zM1278 0l-524 951l-309 -296l-114 -655h-242l355 2048h243l-183 -1018h19l1068 1018h335l-1005 -935l632 -1113h-275zM884 2628l189 -239l279 238l193 3v-20l-411 -374h-133l-300 374l1 21z" />
    <glyph glyph-name="kcaron" unicode="&#x1e9;" horiz-adv-x="1484" 
d="M58 0zM1006 0l-406 730l-220 -203l-91 -527h-231l355 2048h231l-216 -1206h24l725 694h303l-711 -666l489 -870h-252zM776 2628l189 -239l279 238l193 3v-20l-411 -374h-133l-300 374l1 21z" />
    <glyph glyph-name="Oogonek" unicode="&#x1ea;" horiz-adv-x="2128" 
d="M163 0zM1943 1030q-28 -203 -111.5 -393t-217.5 -341t-314 -239t-401 -85q-217 3 -365 94.5t-233 243t-111.5 336t-0.5 372.5q28 203 111.5 393t217.5 341t314 239t401 85q217 -3 365 -94.5t233 -243t111.5 -336t0.5 -372.5zM1708 1031q20 137 8.5 278.5t-65.5 261.5
t-159 195t-272 78q-171 3 -308.5 -67t-238.5 -189.5t-164 -268t-85 -302.5q-21 -137 -9 -278.5t66 -261.5t159 -195t271 -78q172 -3 309.5 67t238.5 189.5t164 268t85 302.5zM912 85l104 -88q-52 -37 -111 -82t-103.5 -101t-53.5 -126q-11 -86 77 -88q35 0 69 10.5t66 25.5
l1 -178q-47 -31 -102.5 -44.5t-112.5 -12.5q-112 1 -178 73t-61 183q5 109 68.5 190.5t155.5 140t181 97.5z" />
    <glyph glyph-name="oogonek" unicode="&#x1eb;" horiz-adv-x="1664" 
d="M105 0zM688 -32q-163 2 -278.5 69.5t-184.5 180t-94.5 251.5t-8.5 285q18 156 79 301t161.5 259t237.5 179.5t307 62.5q164 -2 279 -70t184 -181.5t94 -253t9 -285.5q-18 -156 -79.5 -300t-162.5 -257.5t-237.5 -178.5t-305.5 -62zM699 180q163 -4 277 83t180.5 223
t85.5 280q13 96 3.5 196.5t-47.5 186t-111.5 139t-190.5 56.5q-163 4 -277.5 -84t-180.5 -225.5t-85 -280.5q-13 -96 -4 -196t47.5 -184.5t112 -137.5t190.5 -56zM694 85l104 -88q-52 -37 -111 -82t-103.5 -101t-53.5 -126q-11 -86 77 -88q35 0 69 10.5t66 25.5l1 -178
q-47 -31 -102.5 -44.5t-112.5 -12.5q-112 1 -178 73t-61 183q5 109 68.5 190.5t155.5 140t181 97.5z" />
    <glyph glyph-name="Oogonekmacron" unicode="&#x1ec;" horiz-adv-x="2128" 
d="M163 0zM1943 1030q-28 -203 -111.5 -393t-217.5 -341t-314 -239t-401 -85q-217 3 -365 94.5t-233 243t-111.5 336t-0.5 372.5q28 203 111.5 393t217.5 341t314 239t401 85q217 -3 365 -94.5t233 -243t111.5 -336t0.5 -372.5zM1708 1031q20 137 8.5 278.5t-65.5 261.5
t-159 195t-272 78q-171 3 -308.5 -67t-238.5 -189.5t-164 -268t-85 -302.5q-21 -137 -9 -278.5t66 -261.5t159 -195t271 -78q172 -3 309.5 67t238.5 189.5t164 268t85 302.5zM912 85l104 -88q-52 -37 -111 -82t-103.5 -101t-53.5 -126q-11 -86 77 -88q35 0 69 10.5t66 25.5
l1 -178q-47 -31 -102.5 -44.5t-112.5 -12.5q-112 1 -178 73t-61 183q5 109 68.5 190.5t155.5 140t181 97.5zM1803 2528l-32 -204h-914l33 204h913z" />
    <glyph glyph-name="oogonekmacron" unicode="&#x1ed;" horiz-adv-x="1664" 
d="M105 0zM688 -32q-163 2 -278.5 69.5t-184.5 180t-94.5 251.5t-8.5 285q18 156 79 301t161.5 259t237.5 179.5t307 62.5q164 -2 279 -70t184 -181.5t94 -253t9 -285.5q-18 -156 -79.5 -300t-162.5 -257.5t-237.5 -178.5t-305.5 -62zM699 180q163 -4 277 83t180.5 223
t85.5 280q13 96 3.5 196.5t-47.5 186t-111.5 139t-190.5 56.5q-163 4 -277.5 -84t-180.5 -225.5t-85 -280.5q-13 -96 -4 -196t47.5 -184.5t112 -137.5t190.5 -56zM694 85l104 -88q-52 -37 -111 -82t-103.5 -101t-53.5 -126q-11 -86 77 -88q35 0 69 10.5t66 25.5l1 -178
q-47 -31 -102.5 -44.5t-112.5 -12.5q-112 1 -178 73t-61 183q5 109 68.5 190.5t155.5 140t181 97.5zM1466 2016l-32 -204h-914l33 204h913z" />
    <glyph glyph-name="Ezhcaron" unicode="&#x1ee;" horiz-adv-x="1760" 
d="M855 2452l189 -239l279 238l193 3v-20l-411 -374h-133l-300 374l1 21zM-47 93h279q9 -131 42.5 -228t112 -151.5t222.5 -58.5q272 -6 420.5 155.5t180.5 418.5q21 163 -6.5 290t-121.5 200.5t-274 76.5h-314l38 219l788 755l-1022 2l41 232h1356l-38 -215l-816 -777
q243 2 395.5 -99t214.5 -280t34 -408q-31 -245 -147.5 -424.5t-305.5 -277t-438 -93.5q-310 5 -469 185.5t-172 477.5z" />
    <glyph glyph-name="ezhcaron" unicode="&#x1ef;" horiz-adv-x="1504" 
d="M706 2088l163 -199l228 198l237 2l-1 -27l-394 -338h-160l-291 335l2 30zM258 1488h1162l-31 -179l-638 -665q250 -21 381.5 -182t107.5 -410q-20 -192 -129 -326t-272.5 -203t-346.5 -66q-173 3 -299.5 76.5t-192 203.5t-55.5 303h268q-9 -144 65.5 -252t229.5 -113
q114 -3 214.5 42t168.5 130.5t83 201.5q25 190 -65.5 288t-277.5 102l-217 1l39 227l577 601h-810z" />
    <glyph glyph-name="jcaron" unicode="&#x1f0;" horiz-adv-x="652" 
d="M0 0zM324 1536h230l-283 -1647q-30 -210 -153.5 -340t-344.5 -131h-53l24 221l40 -1q116 1 177.5 71.5t78.5 178.5zM279 2040l189 -239l279 238l193 3v-20l-411 -374h-133l-300 374l1 21z" />
    <glyph glyph-name="DZ" unicode="&#x1f1;" horiz-adv-x="4008" 
d="M345 0zM974 0h-629l355 2048h627q223 -3 379.5 -84.5t250 -222t124.5 -322.5t3 -387q-42 -298 -187 -531.5t-379 -367.5t-544 -133zM1302 1828h-397l-279 -1608l342 -1q247 0 432.5 104.5t300 288.5t149.5 421q32 209 -10 388.5t-172.5 291t-365.5 115.5zM3697 220
l-39 -220h-1371l34 192l1347 1636h-1076l39 220h1371l-33 -192l-1347 -1636h1075z" />
    <glyph glyph-name="Dz" unicode="&#x1f2;" horiz-adv-x="3772" 
d="M345 0zM974 0h-629l355 2048h627q223 -3 379.5 -84.5t250 -222t124.5 -322.5t3 -387q-42 -298 -187 -531.5t-379 -367.5t-544 -133zM1302 1828h-397l-279 -1608l342 -1q247 0 432.5 104.5t300 288.5t149.5 421q32 209 -10 388.5t-172.5 291t-365.5 115.5zM3476 220
l-39 -220h-1154l37 212l1019 1104h-843l39 220h1150l-35 -200l-1020 -1116h846z" />
    <glyph glyph-name="Gacute" unicode="&#x1f4;" horiz-adv-x="2076" 
d="M163 0zM1885 1016l-37 -219q-38 -237 -167.5 -424.5t-328 -295.5t-444.5 -105q-218 2 -368 93t-236 242t-113.5 336t-1.5 375q28 201 111 391t216 341.5t312 240t399 86.5q204 -3 349 -92.5t235.5 -240t129.5 -338.5l-241 1q-43 186 -164.5 309.5t-321.5 127.5
q-171 4 -307 -67t-236.5 -191.5t-162.5 -268.5t-84 -300q-21 -139 -8 -281.5t68.5 -262t162 -193.5t274.5 -77q182 -3 324.5 76t238 215t136.5 303l-493 -1l39 220h719zM1163 2232l296 408h253l-363 -408h-186z" />
    <glyph glyph-name="gacute" unicode="&#x1f5;" horiz-adv-x="1700" 
d="M2 0zM1348 1536h223l-266 -1547q-27 -188 -133 -315t-263 -190t-340 -60q-179 3 -328.5 76.5t-238.5 233.5l195 131q70 -106 159.5 -165.5t222.5 -63.5q120 -3 226.5 39.5t179.5 127.5t93 209l52 274l-15 -1q-91 -122 -201.5 -193t-270.5 -70q-155 2 -262 67
t-169.5 172.5t-84 239.5t-5.5 268q18 148 76.5 290t155 255.5t228 179t295.5 61.5q283 -7 398 -264h25zM354 773q-18 -126 3.5 -248.5t99 -204t227.5 -85.5q159 -4 270 75t175 207t83 270q13 92 6.5 188.5t-40 179t-102.5 134.5t-183 56q-160 4 -273 -80.5t-179.5 -217.5
t-86.5 -274zM899 1720l296 408h253l-363 -408h-186z" />
    <glyph glyph-name="uni01F6" unicode="&#x1f6;" horiz-adv-x="3120" 
d="M687 2048l-159 -912h1058l158 912h243l-241 -1401q-25 -186 48.5 -314t276.5 -133q213 -6 333 120.5t151 327.5l152 888h242l-152 -888q-30 -196 -127 -351t-253 -243.5t-362 -85.5q-200 3 -331.5 93t-188.5 242.5t-31 344.5l44 268h-1057l-160 -916h-242l355 2048h243z
" />
    <glyph glyph-name="uni01F7" unicode="&#x1f7;" horiz-adv-x="1760" 
d="M617 2007l-11 -56q85 42 176.5 61.5t186.5 18.5q251 -2 407 -111.5t218.5 -297t31.5 -424.5l-10 -73q-38 -255 -163 -479t-312.5 -402t-417 -298t-476.5 -168l-66 -350h-281l447 2576zM956 1801q-236 4 -391 -169l-290 -1622q260 75 484 233t377.5 382.5t200.5 498.5
l13 77q23 160 -1.5 295.5t-117.5 218.5t-275 86z" />
    <glyph glyph-name="uni01F8" unicode="&#x1f8;" horiz-adv-x="2064" 
d="M89 0zM1983 2048l-356 -2048h-226l-765 1604l-21 1l-284 -1605h-242l355 2048h227l767 -1612l22 -1l284 1613h239zM1201 2640l197 -408h-215l-289 408h307z" />
    <glyph glyph-name="uni01F9" unicode="&#x1f9;" horiz-adv-x="1620" 
d="M58 0zM444 908l-155 -908h-231l267 1536h231l-53 -261h11q80 132 203 208t280 73q163 -3 256 -88t125.5 -217t15.5 -275l-166 -976h-231l164 961q12 91 -9.5 173.5t-80.5 136t-161 57.5q-121 5 -219.5 -53.5t-163 -156t-83.5 -210.5zM905 2128l197 -408h-215l-289 408
h307z" />
    <glyph glyph-name="Aringacute" unicode="&#x1fa;" horiz-adv-x="1888" 
d="M0 0zM177 0h-264l1085 2048h250l374 -2048h-243l-93 548h-826zM1067 1725l-494 -957h676l-158 957h-24zM1166 2525l234 251h289l-343 -252zM950 2216q1 101 73 173.5t174 71.5q94 -1 155 -69t59 -160q-2 -99 -73.5 -166.5t-169.5 -66.5q-92 1 -156 62.5t-62 154.5z
M1066 2217q-5 -43 22.5 -74t71.5 -31q50 -1 86.5 35t43.5 84q6 42 -15.5 79.5t-69.5 37.5q-53 0 -93 -40.5t-46 -90.5z" />
    <glyph glyph-name="aringacute" unicode="&#x1fb;" horiz-adv-x="1572" 
d="M53 0zM956 0l37 210l-8 -1q-79 -123 -205 -185.5t-272 -60.5q-135 2 -239.5 60.5t-160 162t-45.5 242.5q9 129 69 213t152.5 134t202 75.5t218.5 38.5q38 5 102 6t131.5 9t119 32t65.5 73v5q3 93 -12 168t-67.5 119.5t-160.5 46.5q-131 3 -247.5 -56.5t-181.5 -174.5
l-214 80q90 187 265.5 274.5t376.5 84.5q245 -4 370 -151t99 -393l-171 -1012h-224zM1047 556l46 217q-45 -42 -119 -57.5t-152 -19.5t-136 -11q-83 -9 -169.5 -35t-149 -81.5t-75.5 -152.5q-16 -125 68 -182t194 -59q117 -2 221 44.5t177 133t95 203.5zM930 2013l234 251
h289l-343 -252zM714 1704q1 101 73 173.5t174 71.5q94 -1 155 -69t59 -160q-2 -99 -73.5 -166.5t-169.5 -66.5q-92 1 -156 62.5t-62 154.5zM830 1705q-5 -43 22.5 -74t71.5 -31q50 -1 86.5 35t43.5 84q6 42 -15.5 79.5t-69.5 37.5q-53 0 -93 -40.5t-46 -90.5z" />
    <glyph glyph-name="AEacute" unicode="&#x1fc;" horiz-adv-x="2832" 
d="M0 0zM2499 220l-39 -220h-1168l74 552h-761l-403 -552h-303l1530 2048h1305l-38 -220h-923l-90 -676h788l-39 -220h-778l-96 -712h941zM763 768h631l142 1058zM1575 2232l296 408h253l-363 -408h-186z" />
    <glyph glyph-name="aeacute" unicode="&#x1fd;" horiz-adv-x="2588" 
d="M53 0zM240 1198q91 186 266.5 274t376.5 84q86 -2 179 -27t164 -81.5t92 -153.5q101 126 234 195.5t297 66.5q161 -2 270 -68.5t170.5 -176.5t80.5 -245.5t1 -277.5l-12 -81l-1083 -85q-7 -181 82.5 -309t282.5 -133q134 -4 243 56.5t168 182.5l220 -64
q-48 -132 -148.5 -218.5t-230 -128.5t-263.5 -40q-178 3 -322 93t-194 268h-7q-48 -116 -142.5 -198.5t-214 -126t-241.5 -41.5q-135 2 -239.5 60.5t-160.5 162t-45 242.5q9 129 69 213t152.5 134t202 75.5t218.5 38.5q38 4 102 5.5t132 9.5t119.5 32t64.5 73v5
q3 93 -12 168t-67.5 119.5t-160.5 47.5q-131 3 -247.5 -57t-181.5 -175zM1838 1344q-154 5 -261.5 -71t-176 -197.5t-104.5 -251.5l855 68q20 113 -8 215t-104 167.5t-201 69.5zM1048 556l46 217q-45 -42 -119 -57.5t-152 -19.5t-136 -11q-83 -10 -169.5 -35.5t-149 -81
t-75.5 -152.5q-16 -125 68 -182t194 -59q117 -2 221 44.5t177 133t95 203.5zM1295 1720l296 408h253l-363 -408h-186z" />
    <glyph glyph-name="Oslashacute" unicode="&#x1fe;" horiz-adv-x="2128" 
d="M123 0zM264 -82l-141 112l190 218q-100 180 -125 373.5t3 396.5q29 203 112 393t216 341t313 239t402 85q123 -1 241.5 -37t216.5 -112l169 200l141 -113l-184 -210q102 -182 128 -376t-3 -398q-29 -202 -112 -392.5t-216.5 -341.5t-313.5 -239t-401 -85
q-125 1 -244.5 38t-218.5 114zM426 1018q-22 -142 -17 -287.5t63 -279.5l1071 1285q-65 57 -150.5 82t-170.5 27q-173 2 -310 -68t-237 -189.5t-163 -267.5t-86 -302zM1708 1030q21 143 16 289.5t-64 281.5l-1071 -1287q65 -58 151 -84t172 -27q173 -3 310 67t237 189.5
t162.5 268t86.5 302.5zM1167 2232l296 408h253l-363 -408h-186z" />
    <glyph glyph-name="oslashacute" unicode="&#x1ff;" horiz-adv-x="1664" 
d="M73 0zM213 -82l-140 113l139 155q-71 132 -90 275.5t0 291.5q20 157 83 302t165 259t239.5 179.5t308.5 62.5q90 -1 175.5 -24.5t161.5 -72.5l124 148l141 -114l-139 -155q71 -134 89.5 -278.5t-0.5 -293.5q-20 -156 -83 -300.5t-165 -257.5t-240 -178t-308 -63
q-89 1 -174.5 24.5t-159.5 73.5zM352 755q-14 -93 -14 -187.5t27 -185.5l751 900q-45 34 -99 48.5t-109 15.5q-165 3 -280.5 -84.5t-184 -224.5t-91.5 -282zM686 178q165 -2 280.5 84.5t183.5 222.5t91 281q15 93 14 188.5t-28 186.5l-750 -899q44 -34 98.5 -48.5
t110.5 -15.5zM863 1720l296 408h253l-363 -408h-186z" />
    <glyph glyph-name="Adblgrave" unicode="&#x200;" horiz-adv-x="1888" 
d="M0 0zM177 0h-264l1085 2048h250l374 -2048h-243l-93 548h-826zM1067 1725l-494 -957h676l-158 957h-24zM1489 2245h-195l-264 365h279zM1134 2245h-220l-347 363l304 2z" />
    <glyph glyph-name="adblgrave" unicode="&#x201;" horiz-adv-x="1572" 
d="M53 0zM956 0l37 210l-8 -1q-79 -123 -205 -185.5t-272 -60.5q-135 2 -239.5 60.5t-160 162t-45.5 242.5q9 129 69 213t152.5 134t202 75.5t218.5 38.5q38 5 102 6t131.5 9t119 32t65.5 73v5q3 93 -12 168t-67.5 119.5t-160.5 46.5q-131 3 -247.5 -56.5t-181.5 -174.5
l-214 80q90 187 265.5 274.5t376.5 84.5q245 -4 370 -151t99 -393l-171 -1012h-224zM1047 556l46 217q-45 -42 -119 -57.5t-152 -19.5t-136 -11q-83 -9 -169.5 -35t-149 -81.5t-75.5 -152.5q-16 -125 68 -182t194 -59q117 -2 221 44.5t177 133t95 203.5zM1253 1733h-195
l-264 365h279zM898 1733h-220l-347 363l304 2z" />
    <glyph glyph-name="Ainvertedbreve" unicode="&#x202;" horiz-adv-x="1888" 
d="M0 0zM177 0h-264l1085 2048h250l374 -2048h-243l-93 548h-826zM1067 1725l-494 -957h676l-158 957h-24zM1628 2289l-215 1q4 81 -29.5 140t-124.5 61q-94 3 -149.5 -54.5t-68.5 -146.5h-215q14 177 141 275.5t300 94.5q167 -3 267 -103.5t94 -267.5z" />
    <glyph glyph-name="ainvertedbreve" unicode="&#x203;" horiz-adv-x="1572" 
d="M53 0zM956 0l37 210l-8 -1q-79 -123 -205 -185.5t-272 -60.5q-135 2 -239.5 60.5t-160 162t-45.5 242.5q9 129 69 213t152.5 134t202 75.5t218.5 38.5q38 5 102 6t131.5 9t119 32t65.5 73v5q3 93 -12 168t-67.5 119.5t-160.5 46.5q-131 3 -247.5 -56.5t-181.5 -174.5
l-214 80q90 187 265.5 274.5t376.5 84.5q245 -4 370 -151t99 -393l-171 -1012h-224zM1047 556l46 217q-45 -42 -119 -57.5t-152 -19.5t-136 -11q-83 -9 -169.5 -35t-149 -81.5t-75.5 -152.5q-16 -125 68 -182t194 -59q117 -2 221 44.5t177 133t95 203.5zM1391 1777l-215 1
q4 81 -29.5 140t-124.5 61q-94 3 -149.5 -54.5t-68.5 -146.5h-215q14 177 141 275.5t300 94.5q167 -3 267 -103.5t94 -267.5z" />
    <glyph glyph-name="Edblgrave" unicode="&#x204;" horiz-adv-x="1668" 
d="M89 0zM1344 220l-39 -220h-1216l355 2048h1201l-39 -220h-957l-121 -692h858l-38 -220h-857l-121 -696h974zM1425 2245h-195l-264 365h279zM1070 2245h-220l-347 363l304 2z" />
    <glyph glyph-name="edblgrave" unicode="&#x205;" horiz-adv-x="1628" 
d="M97 0zM707 -32q-222 3 -360 114t-194 288.5t-33 379.5q18 155 79 300t161 260.5t237 182t305 64.5q162 -2 272 -68.5t173 -176.5t84 -246t4 -278l-13 -100h-1150l32 204h911q17 113 -13 215.5t-107.5 167.5t-202.5 69q-162 5 -276 -82t-180 -222.5t-84 -278.5
q-16 -138 7.5 -270.5t108 -220t248.5 -91.5q134 -3 241.5 58t168.5 181l218 -63q-47 -131 -147 -218t-228.5 -129t-261.5 -40zM1268 1733h-195l-264 365h279zM913 1733h-220l-347 363l304 2z" />
    <glyph glyph-name="Einvertedbreve" unicode="&#x206;" horiz-adv-x="1668" 
d="M89 0zM1344 220l-39 -220h-1216l355 2048h1201l-39 -220h-957l-121 -692h858l-38 -220h-857l-121 -696h974zM1564 2289l-215 1q4 81 -29.5 140t-124.5 61q-94 3 -149.5 -54.5t-68.5 -146.5h-215q14 177 141 275.5t300 94.5q167 -3 267 -103.5t94 -267.5z" />
    <glyph glyph-name="einvertedbreve" unicode="&#x207;" horiz-adv-x="1628" 
d="M97 0zM707 -32q-222 3 -360 114t-194 288.5t-33 379.5q18 155 79 300t161 260.5t237 182t305 64.5q162 -2 272 -68.5t173 -176.5t84 -246t4 -278l-13 -100h-1150l32 204h911q17 113 -13 215.5t-107.5 167.5t-202.5 69q-162 5 -276 -82t-180 -222.5t-84 -278.5
q-16 -138 7.5 -270.5t108 -220t248.5 -91.5q134 -3 241.5 58t168.5 181l218 -63q-47 -131 -147 -218t-228.5 -129t-261.5 -40zM1407 1777l-215 1q4 81 -29.5 140t-124.5 61q-94 3 -149.5 -54.5t-68.5 -146.5h-215q14 177 141 275.5t300 94.5q167 -3 267 -103.5t94 -267.5z
" />
    <glyph glyph-name="Idblgrave" unicode="&#x208;" horiz-adv-x="728" 
d="M0 0zM687 2048l-356 -2048h-242l355 2048h243zM893 2245h-195l-264 365h279zM538 2245h-220l-347 363l304 2z" />
    <glyph glyph-name="idblgrave" unicode="&#x209;" horiz-adv-x="652" 
d="M0 0zM555 1536l-266 -1536h-231l267 1536h230zM794 1737h-195l-264 365h279zM439 1737h-220l-347 363l304 2z" />
    <glyph glyph-name="Iinvertedbreve" unicode="&#x20a;" horiz-adv-x="728" 
d="M89 0zM687 2048l-356 -2048h-242l355 2048h243zM1032 2289l-215 1q4 81 -29.5 140t-124.5 61q-94 3 -149.5 -54.5t-68.5 -146.5h-215q14 177 141 275.5t300 94.5q167 -3 267 -103.5t94 -267.5z" />
    <glyph glyph-name="iinvertedbreve" unicode="&#x20b;" horiz-adv-x="652" 
d="M58 0zM555 1536l-266 -1536h-231l267 1536h230zM932 1781l-215 1q4 81 -29.5 140t-124.5 61q-94 3 -149.5 -54.5t-68.5 -146.5h-215q14 177 141 275.5t300 94.5q167 -3 267 -103.5t94 -267.5z" />
    <glyph glyph-name="Odblgrave" unicode="&#x20c;" horiz-adv-x="2128" 
d="M163 0zM1943 1030q-28 -203 -111.5 -393t-217.5 -341t-314 -239t-401 -85q-217 3 -365 94.5t-233 243t-111.5 336t-0.5 372.5q28 203 111.5 393t217.5 341t314 239t401 85q217 -3 365 -94.5t233 -243t111.5 -336t0.5 -372.5zM1708 1031q20 137 8.5 278.5t-65.5 261.5
t-159 195t-272 78q-171 3 -308.5 -67t-238.5 -189.5t-164 -268t-85 -302.5q-21 -137 -9 -278.5t66 -261.5t159 -195t271 -78q172 -3 309.5 67t238.5 189.5t164 268t85 302.5zM1609 2245h-195l-264 365h279zM1254 2245h-220l-347 363l304 2z" />
    <glyph glyph-name="odblgrave" unicode="&#x20d;" horiz-adv-x="1664" 
d="M105 0zM688 -32q-163 2 -278.5 69.5t-184.5 180t-94.5 251.5t-8.5 285q18 156 79 301t161.5 259t237.5 179.5t307 62.5q164 -2 279 -70t184 -181.5t94 -253t9 -285.5q-18 -156 -79.5 -300t-162.5 -257.5t-237.5 -178.5t-305.5 -62zM699 180q163 -4 277 83t180.5 223
t85.5 280q13 96 3.5 196.5t-47.5 186t-111.5 139t-190.5 56.5q-163 4 -277.5 -84t-180.5 -225.5t-85 -280.5q-13 -96 -4 -196t47.5 -184.5t112 -137.5t190.5 -56zM1272 1733h-195l-264 365h279zM917 1733h-220l-347 363l304 2z" />
    <glyph glyph-name="Oinvertedbreve" unicode="&#x20e;" horiz-adv-x="2128" 
d="M163 0zM1943 1030q-28 -203 -111.5 -393t-217.5 -341t-314 -239t-401 -85q-217 3 -365 94.5t-233 243t-111.5 336t-0.5 372.5q28 203 111.5 393t217.5 341t314 239t401 85q217 -3 365 -94.5t233 -243t111.5 -336t0.5 -372.5zM1708 1031q20 137 8.5 278.5t-65.5 261.5
t-159 195t-272 78q-171 3 -308.5 -67t-238.5 -189.5t-164 -268t-85 -302.5q-21 -137 -9 -278.5t66 -261.5t159 -195t271 -78q172 -3 309.5 67t238.5 189.5t164 268t85 302.5zM1748 2289l-215 1q4 81 -29.5 140t-124.5 61q-94 3 -149.5 -54.5t-68.5 -146.5h-215
q14 177 141 275.5t300 94.5q167 -3 267 -103.5t94 -267.5z" />
    <glyph glyph-name="oinvertedbreve" unicode="&#x20f;" horiz-adv-x="1664" 
d="M105 0zM688 -32q-163 2 -278.5 69.5t-184.5 180t-94.5 251.5t-8.5 285q18 156 79 301t161.5 259t237.5 179.5t307 62.5q164 -2 279 -70t184 -181.5t94 -253t9 -285.5q-18 -156 -79.5 -300t-162.5 -257.5t-237.5 -178.5t-305.5 -62zM699 180q163 -4 277 83t180.5 223
t85.5 280q13 96 3.5 196.5t-47.5 186t-111.5 139t-190.5 56.5q-163 4 -277.5 -84t-180.5 -225.5t-85 -280.5q-13 -96 -4 -196t47.5 -184.5t112 -137.5t190.5 -56zM1411 1777l-215 1q4 81 -29.5 140t-124.5 61q-94 3 -149.5 -54.5t-68.5 -146.5h-215q14 177 141 275.5
t300 94.5q167 -3 267 -103.5t94 -267.5z" />
    <glyph glyph-name="Rdblgrave" unicode="&#x210;" horiz-adv-x="1768" 
d="M89 0zM1217 0l-256 796h-491l-139 -796h-242l355 2048l650 -1q188 -3 324.5 -78.5t203 -213.5t45.5 -328q-24 -211 -141.5 -358.5t-315.5 -220.5l275 -848h-268zM649 1828l-140 -804l381 -1q206 -1 357 94t182 311q27 187 -63.5 290.5t-280.5 108.5zM1441 2245h-195
l-264 365h279zM1086 2245h-220l-347 363l304 2z" />
    <glyph glyph-name="rdblgrave" unicode="&#x211;" horiz-adv-x="1072" 
d="M58 0zM1140 1502l-102 -217q-57 32 -124 33q-123 2 -222.5 -63.5t-165.5 -169.5t-87 -217l-150 -868h-231l267 1536h231l-54 -265h12q57 122 170 208t253 83q54 -1 105 -17.5t98 -42.5zM1001 1733h-195l-264 365h279zM646 1733h-220l-347 363l304 2z" />
    <glyph glyph-name="Rinvertedbreve" unicode="&#x212;" horiz-adv-x="1768" 
d="M89 0zM1217 0l-256 796h-491l-139 -796h-242l355 2048l650 -1q188 -3 324.5 -78.5t203 -213.5t45.5 -328q-24 -211 -141.5 -358.5t-315.5 -220.5l275 -848h-268zM649 1828l-140 -804l381 -1q206 -1 357 94t182 311q27 187 -63.5 290.5t-280.5 108.5zM1580 2289l-215 1
q4 81 -29.5 140t-124.5 61q-94 3 -149.5 -54.5t-68.5 -146.5h-215q14 177 141 275.5t300 94.5q167 -3 267 -103.5t94 -267.5z" />
    <glyph glyph-name="rinvertedbreve" unicode="&#x213;" horiz-adv-x="1072" 
d="M58 0zM1140 1502l-102 -217q-57 32 -124 33q-123 2 -222.5 -63.5t-165.5 -169.5t-87 -217l-150 -868h-231l267 1536h231l-54 -265h12q57 122 170 208t253 83q54 -1 105 -17.5t98 -42.5zM1139 1777l-215 1q4 81 -29.5 140t-124.5 61q-94 3 -149.5 -54.5t-68.5 -146.5h-215
q14 177 141 275.5t300 94.5q167 -3 267 -103.5t94 -267.5z" />
    <glyph glyph-name="Udblgrave" unicode="&#x214;" horiz-adv-x="2072" 
d="M183 0zM1747 2048h242l-233 -1355q-34 -220 -161 -385.5t-316 -257.5t-410 -89q-208 3 -366.5 97.5t-239 258.5t-52.5 375l232 1356h243l-234 -1357q-20 -145 30 -255.5t154.5 -173.5t248.5 -66q152 -3 286 57.5t225 173t117 265.5zM1581 2245h-195l-264 365h279z
M1226 2245h-220l-347 363l304 2z" />
    <glyph glyph-name="udblgrave" unicode="&#x215;" horiz-adv-x="1620" 
d="M142 0zM1105 608l159 928h230l-266 -1536h-231l45 217h-11q-88 -112 -209.5 -177t-267.5 -61q-154 4 -246.5 93t-129 221.5t-19.5 266.5l166 976h230l-166 -977q-18 -138 43 -242t211 -109q120 -4 218 48.5t162 144.5t82 207zM1269 1733h-195l-264 365h279zM914 1733
h-220l-347 363l304 2z" />
    <glyph glyph-name="Uinvertedbreve" unicode="&#x216;" horiz-adv-x="2072" 
d="M183 0zM1747 2048h242l-233 -1355q-34 -220 -161 -385.5t-316 -257.5t-410 -89q-208 3 -366.5 97.5t-239 258.5t-52.5 375l232 1356h243l-234 -1357q-20 -145 30 -255.5t154.5 -173.5t248.5 -66q152 -3 286 57.5t225 173t117 265.5zM1720 2289l-215 1q4 81 -29.5 140
t-124.5 61q-94 3 -149.5 -54.5t-68.5 -146.5h-215q14 177 141 275.5t300 94.5q167 -3 267 -103.5t94 -267.5z" />
    <glyph glyph-name="uinvertedbreve" unicode="&#x217;" horiz-adv-x="1620" 
d="M142 0zM1105 608l159 928h230l-266 -1536h-231l45 217h-11q-88 -112 -209.5 -177t-267.5 -61q-154 4 -246.5 93t-129 221.5t-19.5 266.5l166 976h230l-166 -977q-18 -138 43 -242t211 -109q120 -4 218 48.5t162 144.5t82 207zM1407 1777l-215 1q4 81 -29.5 140t-124.5 61
q-94 3 -149.5 -54.5t-68.5 -146.5h-215q14 177 141 275.5t300 94.5q167 -3 267 -103.5t94 -267.5z" />
    <glyph glyph-name="Scommaaccent" unicode="&#x218;" horiz-adv-x="1772" 
d="M83 0zM1437 1519q-13 165 -117.5 249.5t-266.5 88.5q-111 2 -220.5 -36t-188 -117t-96.5 -200q-14 -98 31 -161.5t121.5 -102.5t157.5 -63l191 -58q135 -41 249 -110.5t178 -177.5t48 -264q-16 -152 -90 -266t-188 -189.5t-250 -112.5t-276 -35q-178 2 -321 65.5
t-228 188.5t-88 311h248q2 -175 120.5 -256.5t280.5 -84.5q120 -2 241.5 38.5t209 125.5t106.5 216q15 103 -32 166t-126.5 100.5t-162.5 64.5l-231 74q-122 40 -223.5 109t-158 171t-43.5 243q13 142 83.5 250.5t179 183t238 111.5t260.5 35q168 -3 302.5 -69.5t213 -190.5
t80.5 -297h-232zM814 -164l-20 -123q-26 -149 -87.5 -294.5t-154.5 -265.5l-197 40q61 124 118 251.5t83 263.5l24 128h234z" />
    <glyph glyph-name="scommaaccent" unicode="&#x219;" horiz-adv-x="1444" 
d="M11 0zM207 1105q11 149 104 250t227.5 152t269.5 49q181 -3 304.5 -99.5t175.5 -267.5l-208 -58q-34 104 -100.5 160.5t-181.5 59.5q-73 2 -152 -22.5t-137.5 -77t-69.5 -134.5q-14 -96 54 -150.5t148 -77.5l211 -58q143 -41 244 -140.5t89 -259.5q-11 -156 -107 -259.5
t-235 -154.5t-279 -49q-203 2 -344 101.5t-209 288.5l218 80q39 -123 123.5 -191t216.5 -71q79 -1 162 24t143.5 80t72.5 143q12 86 -38 134t-125 70l-238 66q-144 42 -247 145.5t-92 266.5zM687 -128l-20 -123q-26 -149 -87.5 -294.5t-154.5 -265.5l-197 40
q61 124 118 251.5t83 263.5l24 128h234z" />
    <glyph glyph-name="uni021A" unicode="&#x21a;" horiz-adv-x="1792" 
d="M297 0zM1828 2048l-39 -220h-624l-318 -1828h-242l317 1828h-625l39 220h1492zM837 -128l-20 -123q-26 -149 -87.5 -294.5t-154.5 -265.5l-197 40q61 124 118 251.5t83 263.5l24 128h234z" />
    <glyph glyph-name="uni021B" unicode="&#x21b;" horiz-adv-x="984" 
d="M70 0zM950 1536l-39 -220h-317l-148 -877q-11 -90 15 -158.5t129 -69.5q26 -1 51.5 2t51.5 8l25 -215q-39 -15 -81.5 -20t-83.5 -4q-166 3 -264.5 116.5t-83.5 277.5l158 940h-225l38 220h225l57 328h231l-58 -328h319zM529 -128l-20 -123q-26 -149 -87.5 -294.5
t-154.5 -265.5l-197 40q61 124 118 251.5t83 263.5l24 128h234z" />
    <glyph glyph-name="uni021C" unicode="&#x21c;" horiz-adv-x="1760" 
d="M227 443l23 209q159 49 338 111t341 153t275 226t140 330q15 111 -30 183.5t-129 108t-186 37.5q-99 2 -194 -36t-161.5 -111t-82.5 -178l-275 -1q11 137 78 241.5t171.5 175t229 106.5t249.5 35q174 -2 320.5 -63.5t227.5 -186t60 -316.5q-16 -152 -97.5 -277
t-194.5 -223q107 -101 136 -236.5t12 -276.5q-25 -213 -122 -372t-244.5 -273t-326 -193t-368.5 -130.5t-370 -86.5l25 229q178 38 363.5 95t347.5 149.5t274 235t142 350.5q12 87 13 188.5t-58 175.5q-211 -138 -446 -230.5t-481 -148.5z" />
    <glyph glyph-name="uni021D" unicode="&#x21d;" horiz-adv-x="1504" 
d="M197 287l22 205q119 29 252.5 73t255 112t205.5 168.5t104 243.5q14 107 -56 157t-167 52q-107 2 -207.5 -55t-120.5 -170l-265 -2q12 152 106 251.5t229.5 147.5t272.5 46q133 -1 247.5 -46.5t180 -139.5t52.5 -242q-12 -120 -74 -217.5t-150 -175.5q74 -91 98 -202.5
t11 -225.5q-25 -223 -133 -377.5t-271.5 -254t-356.5 -155.5t-389 -81l24 217q140 32 281 77.5t263.5 117.5t206 183t108.5 273q11 70 9 144t-30 141q-161 -102 -340.5 -166.5t-367.5 -98.5z" />
    <glyph glyph-name="uni021E" unicode="&#x21e;" horiz-adv-x="2068" 
d="M89 0zM687 2048l-159 -912h1058l158 912h243l-356 -2048h-242l159 916h-1057l-160 -916h-242l355 2048h243zM1084 2628l189 -239l279 238l193 3v-20l-411 -374h-133l-300 374l1 21z" />
    <glyph glyph-name="uni021F" unicode="&#x21f;" horiz-adv-x="1620" 
d="M58 0zM448 928l-159 -928h-231l355 2048h231l-134 -729h11q88 112 210 175.5t266 61.5q161 -3 254 -89t126.5 -218t16.5 -273l-166 -976h-231l167 977q18 140 -41 243.5t-213 108.5q-121 4 -218.5 -48t-161 -144t-82.5 -209zM928 2628l189 -239l279 238l193 3v-20
l-411 -374h-133l-300 374l1 21z" />
    <glyph glyph-name="uni0220" unicode="&#x220;" horiz-adv-x="1760" 
d="M1318 -572h-270l332 1930q27 194 -56.5 317.5t-287.5 128.5q-122 2 -238 -24.5t-226 -77.5l-300 -1702h-265l347 2004l264 1l-21 -85q102 57 217 84.5t232 26.5q194 -2 339 -89t217 -238.5t47 -347.5z" />
    <glyph glyph-name="uni0221" unicode="&#x221;" horiz-adv-x="2008" 
d="M1429 2048h231l-345 -1938q48 19 98 30t102 10q151 -2 243.5 -102.5t83.5 -251.5q-6 -118 -67.5 -202t-158.5 -128.5t-210 -41.5q-122 3 -220 65.5t-126 187.5l-221 -201l-130 167l358 319l54 276h-11q-91 -123 -203.5 -198.5t-273.5 -73.5t-268 74t-166.5 188.5
t-77.5 255t-1 273.5q19 149 77 293t154 259.5t227.5 182.5t298.5 63q283 -7 398 -264h18zM351 761q-13 -93 -7.5 -193t39.5 -187t104.5 -143t186.5 -59q123 -4 216.5 48t159.5 140t105.5 195t54.5 213q12 92 7 190.5t-37.5 183.5t-101.5 138.5t-185 56.5q-162 5 -275.5 -82
t-180 -223t-86.5 -278zM1272 -205q-8 -69 35.5 -117t112.5 -49q72 -1 124 48t60 119q9 68 -29.5 105.5t-103.5 38.5q-51 1 -96 -17.5t-87 -44.5z" />
    <glyph glyph-name="uni0222" unicode="&#x222;" horiz-adv-x="1760" 
d="M883 1232l55 -1q110 0 222.5 23t194 90t98.5 196q15 118 -37 181t-161 94l23 218q211 -21 341 -145.5t110 -346.5q-14 -166 -109 -274.5t-241 -171.5q111 -93 157 -218.5t31 -269.5q-22 -216 -144 -357t-304 -210t-382 -68h-32q-187 3 -341 72t-239 204.5t-64 340.5
q19 176 115 305.5t249 210.5q-112 71 -162 179t-38 240q14 167 100 276.5t219 166.5t288 66l-25 -216q-119 -32 -204 -97t-102 -196q-15 -120 41.5 -182t150.5 -85t190 -25zM910 996h-32q-132 1 -248.5 -42.5t-194.5 -134t-96 -232.5q-25 -196 86.5 -285t292.5 -94h31
q133 -2 249.5 39t195 129.5t96.5 231.5q25 195 -86.5 288.5t-293.5 99.5z" />
    <glyph glyph-name="uni0223" unicode="&#x223;" horiz-adv-x="1760" 
d="M935 1219q125 -1 239 31.5t193 112t97 217.5q16 126 -28 215t-161 140l22 206q152 -15 254.5 -92t149.5 -199t32 -270q-16 -174 -112.5 -293.5t-251.5 -189.5q115 -91 162 -217.5t32 -272.5q-22 -215 -143 -356.5t-302 -210.5t-381 -68h-32q-187 3 -340 72t-237 205
t-63 340q19 178 116.5 308t254.5 211q-118 79 -165.5 198t-34.5 258q16 169 99 295.5t216 200t299 81.5l-23 -204q-131 -53 -217.5 -140.5t-104.5 -233.5q-16 -127 33 -201t140 -106.5t203 -35.5zM910 999l-31 1q-133 1 -250.5 -43.5t-196.5 -136t-97 -232.5
q-26 -196 85 -293.5t296 -102.5h30q135 -2 253 43t197.5 138t97.5 235q25 195 -88.5 290.5t-295.5 100.5z" />
    <glyph glyph-name="uni0224" unicode="&#x224;" horiz-adv-x="1744" 
d="M1705 1856l-1346 -1635l677 -3q171 -6 264.5 -119t74.5 -283l-18 -120h-219l12 77q10 76 -10 148t-113 79h-1004l34 192l1346 1636h-1075l39 220h1371z" />
    <glyph glyph-name="zhook" unicode="&#x225;" horiz-adv-x="1504" 
d="M1386 1336l-1019 -1115l472 -3q171 -7 263.5 -120t74.5 -282l-20 -136h-208l12 77q8 57 3 110.5t-35.5 90.5t-99.5 42h-810l37 212l1021 1104h-845l39 220h1149z" />
    <glyph glyph-name="uni0226" unicode="&#x226;" horiz-adv-x="1888" 
d="M0 0zM177 0h-264l1085 2048h250l374 -2048h-243l-93 548h-826zM1067 1725l-494 -957h676l-158 957h-24zM1060 2423q-1 68 40.5 114.5t111.5 47.5q68 1 111 -41.5t44 -110.5q0 -68 -44.5 -110.5t-111.5 -43.5q-65 -1 -107.5 38t-43.5 106z" />
    <glyph glyph-name="uni0227" unicode="&#x227;" horiz-adv-x="1572" 
d="M53 0zM956 0l37 210l-8 -1q-79 -123 -205 -185.5t-272 -60.5q-135 2 -239.5 60.5t-160 162t-45.5 242.5q9 129 69 213t152.5 134t202 75.5t218.5 38.5q38 5 102 6t131.5 9t119 32t65.5 73v5q3 93 -12 168t-67.5 119.5t-160.5 46.5q-131 3 -247.5 -56.5t-181.5 -174.5
l-214 80q90 187 265.5 274.5t376.5 84.5q245 -4 370 -151t99 -393l-171 -1012h-224zM1047 556l46 217q-45 -42 -119 -57.5t-152 -19.5t-136 -11q-83 -9 -169.5 -35t-149 -81.5t-75.5 -152.5q-16 -125 68 -182t194 -59q117 -2 221 44.5t177 133t95 203.5zM823 1911
q-1 68 40.5 114.5t111.5 47.5q68 1 111 -41.5t44 -110.5q0 -68 -44.5 -110.5t-111.5 -43.5q-65 -1 -107.5 38t-43.5 106z" />
    <glyph glyph-name="uni0228" unicode="&#x228;" horiz-adv-x="1668" 
d="M89 0zM1344 220l-39 -220h-1216l355 2048h1201l-39 -220h-957l-121 -692h858l-38 -220h-857l-121 -696h974zM630 16h189l-29 -75q85 -19 128 -79t40 -146q-3 -119 -74.5 -183.5t-173.5 -91t-199 -29.5l2 160q47 1 98.5 11t90.5 39t48 85q10 54 -20 78t-75.5 31t-85.5 11z
" />
    <glyph glyph-name="uni0229" unicode="&#x229;" horiz-adv-x="1628" 
d="M97 0zM707 -32q-222 3 -360 114t-194 288.5t-33 379.5q18 155 79 300t161 260.5t237 182t305 64.5q162 -2 272 -68.5t173 -176.5t84 -246t4 -278l-13 -100h-1150l32 204h911q17 113 -13 215.5t-107.5 167.5t-202.5 69q-162 5 -276 -82t-180 -222.5t-84 -278.5
q-16 -138 7.5 -270.5t108 -220t248.5 -91.5q134 -3 241.5 58t168.5 181l218 -63q-47 -131 -147 -218t-228.5 -129t-261.5 -40zM593 0h189l-29 -75q85 -19 128 -79t40 -146q-3 -119 -74.5 -183.5t-173.5 -91t-199 -29.5l2 160q47 1 98.5 11t90.5 39t48 85q10 54 -20 78
t-75.5 31t-85.5 11z" />
    <glyph glyph-name="uni022A" unicode="&#x22a;" horiz-adv-x="2128" 
d="M163 0zM1943 1030q-28 -203 -111.5 -393t-217.5 -341t-314 -239t-401 -85q-217 3 -365 94.5t-233 243t-111.5 336t-0.5 372.5q28 203 111.5 393t217.5 341t314 239t401 85q217 -3 365 -94.5t233 -243t111.5 -336t0.5 -372.5zM1708 1031q20 137 8.5 278.5t-65.5 261.5
t-159 195t-272 78q-171 3 -308.5 -67t-238.5 -189.5t-164 -268t-85 -302.5q-21 -137 -9 -278.5t66 -261.5t159 -195t271 -78q172 -3 309.5 67t238.5 189.5t164 268t85 302.5zM1902 2885l-36 -206h-912l36 206h912zM898 2411q0 69 43 113t112 46q66 1 109 -40t44 -108
q1 -68 -43 -112t-111 -45q-66 -1 -109.5 39.5t-44.5 106.5zM1523 2409q-1 69 42.5 113t112.5 45q66 1 109.5 -40t43.5 -107q1 -69 -42.5 -112.5t-111.5 -45.5q-66 -1 -110 39.5t-44 107.5z" />
    <glyph glyph-name="uni022B" unicode="&#x22b;" horiz-adv-x="1664" 
d="M105 0zM688 -32q-163 2 -278.5 69.5t-184.5 180t-94.5 251.5t-8.5 285q18 156 79 301t161.5 259t237.5 179.5t307 62.5q164 -2 279 -70t184 -181.5t94 -253t9 -285.5q-18 -156 -79.5 -300t-162.5 -257.5t-237.5 -178.5t-305.5 -62zM699 180q163 -4 277 83t180.5 223
t85.5 280q13 96 3.5 196.5t-47.5 186t-111.5 139t-190.5 56.5q-163 4 -277.5 -84t-180.5 -225.5t-85 -280.5q-13 -96 -4 -196t47.5 -184.5t112 -137.5t190.5 -56zM1581 2416l-36 -206h-914l37 206h913zM591 1893q-1 69 42 113t112 45q66 1 109.5 -39.5t44.5 -107.5
q0 -69 -43.5 -112.5t-111.5 -45.5q-66 -1 -109.5 39.5t-43.5 107.5zM1162 1890q0 69 43 113t112 46q66 1 109.5 -40t43.5 -108q1 -68 -42.5 -112.5t-111.5 -45.5q-67 -1 -110 40t-44 107z" />
    <glyph glyph-name="uni022C" unicode="&#x22c;" horiz-adv-x="2128" 
d="M163 0zM1943 1030q-28 -203 -111.5 -393t-217.5 -341t-314 -239t-401 -85q-217 3 -365 94.5t-233 243t-111.5 336t-0.5 372.5q28 203 111.5 393t217.5 341t314 239t401 85q217 -3 365 -94.5t233 -243t111.5 -336t0.5 -372.5zM1708 1031q20 137 8.5 278.5t-65.5 261.5
t-159 195t-272 78q-171 3 -308.5 -67t-238.5 -189.5t-164 -268t-85 -302.5q-21 -137 -9 -278.5t66 -261.5t159 -195t271 -78q172 -3 309.5 67t238.5 189.5t164 268t85 302.5zM1902 2885l-36 -206h-912l36 206h912zM1636 2539l113 -32q-10 -100 -72 -178t-171 -77
q-56 1 -101.5 28t-90.5 53.5t-99 25.5q-53 -1 -84.5 -38t-44.5 -84l-116 30q10 98 72.5 179.5t171.5 79.5q54 -1 100 -28t91 -53.5t99 -25.5q53 1 85.5 37t46.5 83z" />
    <glyph glyph-name="uni022D" unicode="&#x22d;" horiz-adv-x="1664" 
d="M105 0zM688 -32q-163 2 -278.5 69.5t-184.5 180t-94.5 251.5t-8.5 285q18 156 79 301t161.5 259t237.5 179.5t307 62.5q164 -2 279 -70t184 -181.5t94 -253t9 -285.5q-18 -156 -79.5 -300t-162.5 -257.5t-237.5 -178.5t-305.5 -62zM699 180q163 -4 277 83t180.5 223
t85.5 280q13 96 3.5 196.5t-47.5 186t-111.5 139t-190.5 56.5q-163 4 -277.5 -84t-180.5 -225.5t-85 -280.5q-13 -96 -4 -196t47.5 -184.5t112 -137.5t190.5 -56zM1586 2456l-36 -206h-914l37 206h913zM1354 2107l171 -15q-7 -90 -45.5 -170t-108 -129t-168.5 -47
q-68 1 -121.5 34.5t-106 66t-117.5 32.5q-67 -1 -105.5 -48.5t-49.5 -106.5l-177 9q8 89 47.5 171t110 133t169.5 48q66 -2 119.5 -35.5t107 -66t118.5 -32.5q67 1 106 49t50 107z" />
    <glyph glyph-name="uni022E" unicode="&#x22e;" horiz-adv-x="2128" 
d="M163 0zM1943 1030q-28 -203 -111.5 -393t-217.5 -341t-314 -239t-401 -85q-217 3 -365 94.5t-233 243t-111.5 336t-0.5 372.5q28 203 111.5 393t217.5 341t314 239t401 85q217 -3 365 -94.5t233 -243t111.5 -336t0.5 -372.5zM1708 1031q20 137 8.5 278.5t-65.5 261.5
t-159 195t-272 78q-171 3 -308.5 -67t-238.5 -189.5t-164 -268t-85 -302.5q-21 -137 -9 -278.5t66 -261.5t159 -195t271 -78q172 -3 309.5 67t238.5 189.5t164 268t85 302.5zM1180 2423q-1 68 40.5 114.5t111.5 47.5q68 1 111 -41.5t44 -110.5q0 -68 -44.5 -110.5
t-111.5 -43.5q-65 -1 -107.5 38t-43.5 106z" />
    <glyph glyph-name="uni022F" unicode="&#x22f;" horiz-adv-x="1664" 
d="M105 0zM688 -32q-163 2 -278.5 69.5t-184.5 180t-94.5 251.5t-8.5 285q18 156 79 301t161.5 259t237.5 179.5t307 62.5q164 -2 279 -70t184 -181.5t94 -253t9 -285.5q-18 -156 -79.5 -300t-162.5 -257.5t-237.5 -178.5t-305.5 -62zM699 180q163 -4 277 83t180.5 223
t85.5 280q13 96 3.5 196.5t-47.5 186t-111.5 139t-190.5 56.5q-163 4 -277.5 -84t-180.5 -225.5t-85 -280.5q-13 -96 -4 -196t47.5 -184.5t112 -137.5t190.5 -56zM843 1911q-1 68 40.5 114.5t111.5 47.5q68 1 111 -41.5t44 -110.5q0 -68 -44.5 -110.5t-111.5 -43.5
q-65 -1 -107.5 38t-43.5 106z" />
    <glyph glyph-name="uni0230" unicode="&#x230;" horiz-adv-x="2128" 
d="M163 0zM1943 1030q-28 -203 -111.5 -393t-217.5 -341t-314 -239t-401 -85q-217 3 -365 94.5t-233 243t-111.5 336t-0.5 372.5q28 203 111.5 393t217.5 341t314 239t401 85q217 -3 365 -94.5t233 -243t111.5 -336t0.5 -372.5zM1708 1031q20 137 8.5 278.5t-65.5 261.5
t-159 195t-272 78q-171 3 -308.5 -67t-238.5 -189.5t-164 -268t-85 -302.5q-21 -137 -9 -278.5t66 -261.5t159 -195t271 -78q172 -3 309.5 67t238.5 189.5t164 268t85 302.5zM1902 2885l-36 -206h-912l36 206h912zM1209 2409q0 69 43.5 113t111.5 45q66 1 109.5 -39.5
t44.5 -107.5q1 -69 -43 -113t-112 -45q-66 -1 -109.5 40t-44.5 107z" />
    <glyph glyph-name="uni0231" unicode="&#x231;" horiz-adv-x="1664" 
d="M105 0zM688 -32q-163 2 -278.5 69.5t-184.5 180t-94.5 251.5t-8.5 285q18 156 79 301t161.5 259t237.5 179.5t307 62.5q164 -2 279 -70t184 -181.5t94 -253t9 -285.5q-18 -156 -79.5 -300t-162.5 -257.5t-237.5 -178.5t-305.5 -62zM699 180q163 -4 277 83t180.5 223
t85.5 280q13 96 3.5 196.5t-47.5 186t-111.5 139t-190.5 56.5q-163 4 -277.5 -84t-180.5 -225.5t-85 -280.5q-13 -96 -4 -196t47.5 -184.5t112 -137.5t190.5 -56zM1579 2412l-36 -206h-913l36 206h913zM871 1891q0 68 43.5 112t111.5 45q67 1 110 -39.5t44 -107.5
q1 -68 -43 -112.5t-112 -45.5q-66 -2 -109.5 39.5t-44.5 108.5z" />
    <glyph glyph-name="uni0232" unicode="&#x232;" horiz-adv-x="1864" 
d="M285 0zM543 2049l386 -957l23 -1l719 957h292l-937 -1216l-144 -832h-242l149 857l-504 1191zM1671 2528l-32 -204h-914l33 204h913z" />
    <glyph glyph-name="uni0233" unicode="&#x233;" horiz-adv-x="1552" 
d="M0 0zM416 -153l80 157l-283 1532h240l195 -1225h17l625 1225h260l-947 -1785q-75 -151 -194 -251t-296 -97q-45 1 -89.5 7.5t-87.5 23.5l82 205q146 -39 239 18.5t159 189.5zM1423 2016l-32 -204h-914l33 204h913z" />
    <glyph glyph-name="lcurl" unicode="&#x234;" horiz-adv-x="948" 
d="M643 2048l-344 -1938q47 19 97 30t102 10q151 -2 243 -102t84 -251q-7 -117 -68 -201.5t-157.5 -129t-210.5 -42.5q-122 3 -220 66t-127 187l-219 -202l-130 168l358 319l361 2086h231zM256 -205q-8 -69 35.5 -117t112.5 -49q72 -1 123.5 48t60.5 119q8 67 -30 104.5
t-103 39.5q-51 1 -96 -17.5t-87 -44.5z" />
    <glyph glyph-name="ncurl" unicode="&#x235;" horiz-adv-x="1960" 
d="M444 908l-155 -908h-231l267 1536h231l-53 -261h11q80 131 203.5 207.5t280.5 73.5q163 -3 255.5 -88t125.5 -217t15 -275l-115 -634q48 19 97.5 30t101.5 10q151 -2 243.5 -102.5t83.5 -250.5q-7 -118 -68.5 -202.5t-158 -129t-209.5 -41.5q-121 2 -220 65t-124 188
l-223 -201l-129 167l358 319l130 767q12 91 -9.5 173.5t-81 136t-160.5 57.5q-121 5 -219.5 -53.5t-163 -156t-83.5 -210.5zM1236 27q-9 -69 35 -117t113 -49q72 -1 124 48t60 119q9 67 -29.5 105t-104.5 39q-50 1 -95 -17.5t-88 -44.5z" />
    <glyph glyph-name="tcurl" unicode="&#x236;" horiz-adv-x="1148" 
d="M973 1536l-38 -220h-318l-123 -662q48 19 97.5 29.5t101.5 10.5q151 -2 247 -101.5t88 -251.5q-7 -119 -70 -204t-161.5 -129.5t-211.5 -41.5q-122 3 -221 66.5t-124 188.5l-223 -201l-129 167l358 319l140 810h-241l39 220h240l57 328h231l-57 -328h318zM451 339
q-9 -68 35 -115.5t112 -49.5q72 -1 128 47.5t65 119.5q9 68 -34 105t-107 38q-51 1 -96 -17.5t-88 -44.5z" />
    <glyph glyph-name="dotlessj" unicode="&#x237;" horiz-adv-x="652" 
d="M324 1536h230l-283 -1647q-30 -210 -153.5 -340t-344.5 -131h-53l24 221l40 -1q116 1 177.5 71.5t78.5 178.5z" />
    </font>
</defs>
</svg>
