<?xml version="1.0" standalone="no"?>
<!DOCTYPE svg PUBLIC "-//W3C//DTD SVG 1.1//EN" "http://www.w3.org/Graphics/SVG/1.1/DTD/svg11.dtd" >
<svg xmlns="http://www.w3.org/2000/svg" xmlns:xlink="http://www.w3.org/1999/xlink" version="1.1">
<metadata>
Created by FontForge 20170731 at Fri Jan 19 11:35:53 2018
 By ,,,
Copyright 2018 The Inter UI project authors
</metadata>
<defs>
<font id="InterUI-BlackItalic" horiz-adv-x="0" >
  <font-face 
    font-family="Inter UI Black"
    font-weight="900"
    font-style="italic"
    font-stretch="normal"
    units-per-em="2816"
    panose-1="2 11 9 2 3 0 0 0 0 4"
    ascent="2252"
    descent="-564"
    x-height="1536"
    bbox="-2192 -1097 4333 2976"
    underline-thickness="256"
    underline-position="-640"
    slope="-9.39999"
    unicode-range="U+0002-1F16B"
  />
<missing-glyph horiz-adv-x="2858" 
d="M272 2176v512h2304v-512h-2304zM272 1472v512h2304v-512h-2304zM272 768v512h2304v-512h-2304zM272 64v512h2304v-512h-2304zM272 -640v512h2304v-512h-2304z" />
    <glyph glyph-name="longst" unicode="&#x17f;t" horiz-adv-x="2080" 
d="M1112 2141q185 0 355 -48t345 -99l-18 -133l23 2l-55 -326l238 -1l-57 -320h-232l-127 -734q-8 -58 7.5 -91.5t78.5 -34.5q25 -1 49.5 2.5t48.5 8.5l36 -346q-63 -30 -145.5 -35t-150.5 -4q-123 3 -212 64.5t-133.5 161.5t-32.5 220l132 788h-167l56 320h166l40 175h-7
l9 40q-47 23 -103.5 30t-106.5 7q-89 0 -150.5 -46t-78.5 -134l-278 -1608h-433l206 1167l-215 1l58 320h209l17 120q35 258 202 396t426 137z" />
    <glyph glyph-name=".notdef" horiz-adv-x="2858" 
d="M272 2176v512h2304v-512h-2304zM272 1472v512h2304v-512h-2304zM272 768v512h2304v-512h-2304zM272 64v512h2304v-512h-2304zM272 -640v512h2304v-512h-2304z" />
    <glyph glyph-name=".null" 
 />
    <glyph glyph-name="nonmarkingreturn" horiz-adv-x="938" 
 />
    <glyph glyph-name="controlSOT" 
 />
    <glyph glyph-name="controlHT" unicode="&#x9;" horiz-adv-x="810" 
 />
    <glyph glyph-name="CR" unicode="&#xd;" horiz-adv-x="810" 
 />
    <glyph glyph-name="space" unicode=" " horiz-adv-x="778" 
 />
    <glyph glyph-name="exclam" unicode="!" horiz-adv-x="800" 
d="M836 2048l-299 -1412h-353l191 1412h461zM278 -25q-98 0 -165 63.5t-69 161.5q-2 105 68 173.5t174 67.5q97 0 165.5 -63t70.5 -162q2 -106 -69.5 -174t-174.5 -67z" />
    <glyph glyph-name="quotedbl" unicode="&#x22;" horiz-adv-x="1056" 
d="M607 2048l-124 -792h-309l124 792h309zM1104 2048l-124 -792h-310l124 792h310z" />
    <glyph glyph-name="numbersign" unicode="#" horiz-adv-x="1824" 
d="M201 0l198 563l-307 1l45 252l337 1l132 362l-306 1l45 252h337l193 572h267l-201 -571l227 -1l191 572h272l-201 -571l308 -1l-45 -252l-338 -1l-132 -361l307 -2l-45 -252h-338l-190 -564h-271l197 563l-226 1l-189 -564h-267zM734 817l226 -1l130 363l-225 1z" />
    <glyph glyph-name="dollar" unicode="$" horiz-adv-x="1824" 
d="M621 -256l50 233q-198 13 -338.5 103t-214.5 240.5t-71 344.5h436q0 -124 53.5 -202.5t178.5 -104.5l103 512q-22 9 -37 14l-36 12q-134 47 -252 127.5t-188.5 197t-59.5 272.5q10 146 80.5 253t180.5 178t240 107.5t259 41.5l47 231h182l-50 -238q255 -35 388.5 -206
t132.5 -421h-427q-1 84 -29.5 144.5t-110.5 92.5l-95 -459l6 -4q137 -70 259 -148t194 -191.5t58 -290.5q-15 -193 -117 -322.5t-258.5 -199.5t-334.5 -83l-47 -234h-182zM684 1487q-11 -57 19 -94.5t77.5 -62.5t89.5 -44l87 402q-84 -15 -170 -60.5t-103 -140.5zM1123 580
q15 78 -28 128t-104 87l-95 -431q79 26 145 78t82 138z" />
    <glyph glyph-name="percent" unicode="%" horiz-adv-x="2336" 
d="M333 1556l12 107q16 130 79.5 237t167.5 169.5t242 59.5q131 -3 221 -67t132.5 -168.5t30.5 -229.5l-12 -108q-16 -130 -79.5 -235.5t-167.5 -166.5t-242 -58q-130 3 -220 65.5t-132.5 166t-31.5 228.5zM2245 2100l-1804 -2152h-376l1805 2152h375zM646 1664l-14 -111
q-7 -59 7 -121.5t90 -65.5q82 -2 124 59t53 131l15 109q5 40 1.5 84t-25.5 75.5t-74 33.5q-83 2 -124.5 -61t-52.5 -133zM1120 384l11 107q15 130 79 237t168.5 169.5t242.5 58.5q130 -3 220 -66.5t132.5 -168t30.5 -229.5l-12 -108q-16 -130 -79.5 -236.5t-167.5 -169
t-242 -58.5q-131 3 -220.5 66.5t-132 168t-30.5 229.5zM1432 492l-14 -111q-6 -59 7.5 -121.5t90.5 -65.5q82 -3 123.5 58.5t52.5 131.5l14 110q5 40 2 84t-25 75t-74 33q-83 3 -124.5 -60t-52.5 -134z" />
    <glyph glyph-name="ampersand" unicode="&#x26;" horiz-adv-x="2080" 
d="M523 1076l442 269q60 37 110 88t61 124q9 61 -24.5 106t-96.5 46q-83 2 -137.5 -54t-67.5 -134q-13 -75 14.5 -147.5t71.5 -139.5t82 -126l755 -1108h-471l-601 892q-90 138 -163 296.5t-58 328.5q14 163 94 290t211 199.5t297 69.5q136 -3 241.5 -66.5t162 -172
t47.5 -246.5q-10 -149 -99 -264.5t-208 -195.5l-494 -327q-115 -88 -135 -233q-13 -90 31 -160t141 -74q133 -6 250.5 53.5t208.5 161t147.5 224.5t68.5 245l362 1q-7 -149 -55.5 -305.5t-138.5 -291t-220 -217.5q-14 -9 -28 -16.5t-28 -16.5q-142 -95 -290.5 -150
t-323.5 -52q-168 2 -301 72t-206.5 197.5t-60.5 302.5q9 124 69.5 221t151 172.5t188.5 137.5z" />
    <glyph glyph-name="quotesingle" unicode="'" horiz-adv-x="544" 
d="M607 2048l-124 -792h-309l124 792h309z" />
    <glyph glyph-name="parenleft" unicode="(" horiz-adv-x="1072" 
d="M780 -390l-339 5q-112 174 -167.5 379.5t-64 419.5t19.5 415q46 336 190 649t366 569h369q-110 -202 -214.5 -392.5t-184 -391.5t-116.5 -433q-31 -202 -33 -413t38.5 -416.5t135.5 -390.5z" />
    <glyph glyph-name="parenright" unicode=")" horiz-adv-x="1072" 
d="M-148 -389l342 3q156 161 274.5 361t196.5 419.5t113 439.5q51 312 8 620.5t-183 592.5l-366 2q52 -210 95 -405t58 -393t-16 -418q-46 -329 -177 -647.5t-345 -574.5z" />
    <glyph glyph-name="asterisk" unicode="*" horiz-adv-x="1568" 
d="M301 957l368 363l-413 129l120 246l402 -185l55 494h282l-125 -485l433 171l52 -272l-472 -127l239 -368l-241 -156l-175 407l-309 -387z" />
    <glyph glyph-name="plus" unicode="+" horiz-adv-x="1568" 
d="M1426 1072l-61 -352h-450l-81 -464h-345l87 463l-456 1l62 352h449l81 464h345l-86 -463z" />
    <glyph glyph-name="comma" unicode="," horiz-adv-x="800" 
d="M509 348l-49 -291q-27 -176 -120.5 -331t-232.5 -265l-221 111q56 119 123.5 220.5t92.5 235.5l55 320h352z" />
    <glyph glyph-name="hyphen" unicode="-" horiz-adv-x="1312" 
d="M1169 1028l-57 -328h-996l57 328h996z" />
    <glyph glyph-name="period" unicode="." horiz-adv-x="800" 
d="M275 -29q-99 1 -165.5 74.5t-67.5 170.5q-1 103 71.5 180.5t177.5 76.5q97 -1 164.5 -73t68.5 -168q1 -103 -70.5 -182.5t-178.5 -78.5z" />
    <glyph glyph-name="slash" unicode="/" horiz-adv-x="1184" 
d="M1274 2048l-986 -2356h-399l986 2356h399z" />
    <glyph glyph-name="zero" unicode="0" horiz-adv-x="1712" 
d="M1601 1204l-56 -339q-27 -170 -89 -330.5t-163.5 -288.5t-246.5 -202.5t-338 -71.5q-187 3 -309 81.5t-188 207.5t-84 286t4 317l55 340q26 166 89.5 323t166.5 282t247 197.5t331 69.5q181 -2 302.5 -79t190 -203t89 -279.5t-0.5 -310.5zM1095 804l74 462
q8 56 11.5 128.5t-10 141.5t-54 115t-120.5 50q-118 6 -192 -64t-113 -173.5t-54 -199.5l-74 -461q-8 -58 -13 -133t6.5 -146.5t52 -120t124.5 -52.5q92 -4 156 37.5t105.5 111t65.5 150t35 154.5z" />
    <glyph glyph-name="one" unicode="1" horiz-adv-x="1408" 
d="M1179 2048l-355 -2048h-410l266 1467l-8 -1q-46 -63 -117 -90.5t-150.5 -34t-150.5 -8.5l40 371q96 2 200.5 43.5t180.5 119.5t85 188z" />
    <glyph glyph-name="two" unicode="2" horiz-adv-x="1696" 
d="M1437 384l-60 -384h-1368l55 352l730 648q65 59 134.5 131t121.5 154.5t67 174.5t-27 171t-145 83q-91 3 -155 -45.5t-100.5 -124.5t-44.5 -156l-431 -2q5 150 68.5 277t170 220.5t240.5 144.5t280 49q171 -3 308 -80t212.5 -212t59.5 -311q-15 -169 -103.5 -312.5
t-211 -267t-238.5 -230.5l-310 -262l-10 -25z" />
    <glyph glyph-name="three" unicode="3" horiz-adv-x="1696" 
d="M588 832l61 384l194 -1q129 1 215.5 79.5t104.5 205.5q14 97 -38.5 156t-149.5 61q-90 3 -169 -44.5t-94 -140.5l-434 -2q4 136 67 238.5t164.5 171.5t223.5 103.5t244 32.5q173 -1 319.5 -63.5t230.5 -187.5t70 -314q-13 -175 -125 -294.5t-263 -188.5
q141 -63 211 -183.5t59 -273.5q-10 -152 -80.5 -265t-182 -188t-246.5 -111.5t-273 -34.5q-178 2 -317.5 72t-219.5 200.5t-80 312.5h431q-1 -99 60 -160t161 -64q114 -4 209 62.5t112 184.5q20 130 -41 189t-186 62z" />
    <glyph glyph-name="four" unicode="4" horiz-adv-x="1756" 
d="M1625 784l-67 -384h-295l-70 -400h-403l76 399l-844 1l57 329l1008 1319h462l-225 -1263zM536 786l391 -2l125 681l-27 -36z" />
    <glyph glyph-name="five" unicode="5" horiz-adv-x="1696" 
d="M566 918l-351 92l278 1038h1127l-61 -384h-769l-128 -443l-1 1q55 67 138.5 93t166.5 25q180 -1 297 -99.5t168.5 -250.5t35.5 -314q-19 -200 -120 -361.5t-264.5 -254.5t-369.5 -89q-197 4 -333 90.5t-205.5 234.5t-67.5 337l431 1q3 -68 16 -136.5t53.5 -116
t123.5 -50.5q98 -3 162 51t99 136.5t46 165.5q10 85 -4.5 161t-65.5 124.5t-150 50.5q-72 1 -137.5 -24t-114.5 -78z" />
    <glyph glyph-name="six" unicode="6" horiz-adv-x="1684" 
d="M1157 1502q-17 89 -64 149t-144 65q-120 5 -195.5 -62.5t-119 -174t-65 -220t-33.5 -199.5l-50 -349q-10 -78 0.5 -165t57 -149t145.5 -66q96 -2 165 47.5t110 129t52 164.5q10 77 -5.5 150.5t-64.5 122.5t-139 52q-118 3 -206.5 -72t-103.5 -191l-102 113
q10 143 80.5 258.5t186.5 182.5t262 65q184 -3 307 -103t178.5 -256t39.5 -324q-18 -196 -122 -355.5t-268.5 -253t-365.5 -89.5q-184 3 -307 82.5t-191.5 210.5t-89.5 288t-2 315l11 80q21 149 56 309t93.5 308.5t150 267t225.5 186.5t321 65q276 -4 421.5 -165.5
t190.5 -417.5z" />
    <glyph glyph-name="seven" unicode="7" horiz-adv-x="1696" 
d="M1697 2048l-42 -269l-980 -1779h-473l948 1662l-882 2l61 384h1368z" />
    <glyph glyph-name="eight" unicode="8" horiz-adv-x="1672" 
d="M1436 572q-17 -198 -123 -332.5t-269.5 -202.5t-350.5 -65q-176 2 -318 70t-220 197.5t-63 316.5q16 184 122.5 309t270.5 196q-96 86 -145.5 193t-39.5 238q14 188 113 319.5t253 199.5t334 65q171 -2 303 -69.5t202.5 -194t56.5 -304.5q-14 -164 -106.5 -277.5
t-235.5 -182.5q115 -90 171.5 -209t44.5 -267zM1123 1484q11 86 -20.5 154t-129.5 71q-107 3 -170 -69.5t-76 -172.5q-12 -85 18 -159t130 -77q111 -4 172.5 75t75.5 178zM1010 609q14 99 -27.5 178t-152.5 82q-121 4 -201 -80t-96 -198q-14 -100 31 -174.5t153 -77.5
q120 -4 198.5 76t94.5 194z" />
    <glyph glyph-name="nine" unicode="9" horiz-adv-x="1684" 
d="M508 546q16 -89 63.5 -149t144.5 -64q119 -6 195 61.5t119 174t65 220t33 199.5l50 349q10 78 0 165t-56.5 149t-146.5 66q-95 3 -164 -47t-110.5 -129t-51.5 -164q-10 -77 5.5 -151t64 -123t138.5 -52q118 -4 206.5 71.5t103.5 191.5l102 -113q-10 -143 -80.5 -258.5
t-186.5 -183t-262 -64.5q-184 3 -307 103t-179 255.5t-40 323.5q19 197 123 356.5t268.5 252.5t365.5 91q184 -3 307 -83t191.5 -211t89.5 -288.5t2 -314.5l-11 -80q-21 -150 -56 -309.5t-93.5 -308t-150 -266.5t-225.5 -186t-320 -66q-277 4 -422.5 165.5t-190.5 417.5z
" />
    <glyph glyph-name="colon" unicode=":" horiz-adv-x="800" 
d="M454 1003q-99 1 -165.5 74.5t-67.5 170.5q-1 103 71.5 180.5t176.5 76.5q98 -1 165 -73t69 -168q1 -103 -71 -182.5t-178 -78.5zM275 -29q-99 1 -165.5 74.5t-67.5 170.5q-1 103 71.5 180.5t177.5 76.5q97 -1 164.5 -73t68.5 -168q1 -103 -70.5 -182.5t-178.5 -78.5z" />
    <glyph glyph-name="semicolon" unicode=";" horiz-adv-x="800" 
d="M464 1055q-99 1 -165.5 74.5t-67.5 170.5q-1 103 71.5 180.5t176.5 76.5q98 -1 165 -73t69 -168q1 -103 -71 -182.5t-178 -78.5zM509 348l-49 -291q-27 -176 -120.5 -331t-232.5 -265l-221 111q56 119 123.5 220.5t92.5 235.5l55 320h352z" />
    <glyph glyph-name="less" unicode="&#x3c;" horiz-adv-x="1312" 
d="M1065 399l-278 -227l-676 738l889 710l234 -258l-597 -456l-8 -21z" />
    <glyph glyph-name="equal" unicode="=" horiz-adv-x="1568" 
d="M300 1396h1120l-61 -352h-1121zM188 748h1120l-62 -352h-1120z" />
    <glyph glyph-name="greater" unicode="&#x3e;" horiz-adv-x="1312" 
d="M31 399l198 -226l929 736l-641 709l-323 -255l440 -458l1 -19z" />
    <glyph glyph-name="question" unicode="?" horiz-adv-x="1568" 
d="M904 635l-362 -2q6 132 55.5 227.5t120.5 171t144 146.5t129 151.5t74 187.5q14 83 -14 141.5t-121 61.5q-102 3 -157 -67t-70 -161l-433 -2q10 190 104.5 322t246 199.5t333.5 64.5q166 -2 296 -63.5t199.5 -181t55.5 -296.5q-11 -124 -69.5 -216t-140.5 -167.5
t-165.5 -149.5t-146 -161.5t-79.5 -205.5zM635 -17q-97 0 -165.5 63t-70.5 162q-3 105 69 173t176 68q96 -1 163 -64.5t69 -161.5q3 -103 -67.5 -172t-173.5 -68z" />
    <glyph glyph-name="at" unicode="@" horiz-adv-x="2848" 
d="M1615 2052q257 -2 467 -85.5t354.5 -237.5t208 -367t28.5 -473q-20 -151 -66 -314t-128.5 -303t-210.5 -226.5t-312 -85.5q-81 1 -147.5 14.5t-105.5 59t-38 140.5l-7 -1q-48 -77 -131 -125t-179.5 -66.5t-183.5 -9.5q-149 16 -245 86.5t-148 177.5t-66.5 234.5
t-0.5 258.5q18 170 99 325.5t215 262.5t312 132q47 7 115 6.5t137.5 -13.5t124 -45t75.5 -88h15l27 116l322 -1l-182 -1050q-3 -30 3 -42t34 -13q92 -2 151 62.5t93 161t51 193t25 158.5q56 416 -129 612.5t-599 198.5q-213 1 -396.5 -77.5t-326.5 -216.5t-236.5 -318
t-127.5 -382q-46 -280 21 -495.5t248.5 -338.5t477.5 -125q141 0 282 26.5t273 75.5l79 -313q-76 -64 -194 -93.5t-241.5 -38.5t-217.5 -9q-404 1 -668.5 167.5t-375.5 463.5t-54 689q40 283 166 526.5t322 425t447.5 282t543.5 98.5zM1421 1102q-101 1 -175.5 -51
t-120 -135t-59.5 -175q-13 -84 -12 -177t43 -158.5t154 -69.5q125 -5 216.5 52.5t146 155t69.5 213.5q20 152 -39.5 248t-222.5 97z" />
    <glyph glyph-name="A" unicode="A" horiz-adv-x="2168" 
d="M428 0h-504l1088 2048h484l389 -2048h-482l-58 384h-725zM1165 1471l-371 -713l495 -2l-103 714z" />
    <glyph glyph-name="B" unicode="B" horiz-adv-x="1784" 
d="M836 0h-841l355 2048l721 -1q172 -2 324.5 -58.5t243 -177.5t75.5 -316q-14 -188 -125 -296t-295 -133l-12 -33q115 -8 186 -83.5t101 -181.5t22 -205q-15 -198 -128 -323t-280.5 -183t-346.5 -57zM737 1664l-86 -467l236 -3q85 0 163.5 20.5t133.5 72t71 146.5
q19 116 -41 171t-172 59zM1158 629q17 107 -31 174t-159 72l-368 1l-91 -491l310 -2q124 0 220.5 56.5t118.5 189.5z" />
    <glyph glyph-name="C" unicode="C" horiz-adv-x="1984" 
d="M1932 1400l-443 -63q-28 136 -105.5 227t-225.5 96q-133 4 -230.5 -53t-163 -153.5t-104 -212.5t-53.5 -228q-13 -93 -15 -200t23 -202.5t91.5 -158t191.5 -65.5q154 -5 270 80.5t170 226.5l438 -61q-55 -200 -191.5 -349.5t-322.5 -231.5t-390 -80q-218 2 -368 92
t-236.5 240t-115 334.5t-2.5 375.5q26 204 107.5 395t213.5 342.5t311.5 239.5t402.5 85q210 -2 360 -90.5t245.5 -241t141.5 -344.5z" />
    <glyph glyph-name="D" unicode="D" horiz-adv-x="1960" 
d="M723 0h-728l355 2048h678q298 -4 486 -142.5t264.5 -369t40.5 -508.5q-38 -293 -182 -526t-376.5 -368t-537.5 -134zM986 1648h-253l-220 -1247l211 -2q194 -1 327 81.5t209.5 226t102.5 325.5q22 158 3 297t-107 227t-273 92z" />
    <glyph glyph-name="E" unicode="E" horiz-adv-x="1656" 
d="M1391 384l-67 -384h-1329l355 2048h1330l-67 -384h-876l-84 -447l747 -1l-67 -384h-740l-84 -447z" />
    <glyph glyph-name="F" unicode="F" horiz-adv-x="1656" 
d="M1400 1216l-67 -384h-741l-145 -832h-452l355 2048h1330l-67 -384h-876l-84 -447z" />
    <glyph glyph-name="G" unicode="G" horiz-adv-x="2000" 
d="M1865 1096l-57 -339q-36 -233 -169 -410.5t-332.5 -277.5t-435.5 -97q-218 2 -368 92t-236 240t-114.5 334.5t-3.5 375.5q27 203 107 394t211 342.5t309 240t402 86.5q202 -2 350 -86.5t246 -229.5t151 -329l-461 -63q-29 126 -104 206t-210 85q-132 5 -228 -53.5
t-160.5 -156t-102 -213t-52.5 -225.5q-13 -91 -14.5 -198t24 -203t92 -158.5t190.5 -65.5q178 -5 303.5 100.5t174.5 271.5l-397 -3l59 340h826z" />
    <glyph glyph-name="H" unicode="H" horiz-adv-x="1952" 
d="M803 2048l-150 -831l716 -1l145 832h453l-356 -2048h-453l150 831l-716 1l-145 -832h-452l355 2048h453z" />
    <glyph glyph-name="I" unicode="I" horiz-adv-x="752" 
d="M803 2048l-356 -2048h-452l355 2048h453z" />
    <glyph glyph-name="J" unicode="J" horiz-adv-x="1612" 
d="M944 628l244 1420h449l-244 -1420q-28 -192 -131.5 -341.5t-263.5 -234t-358 -82.5q-298 4 -448.5 174.5t-143.5 460.5h452q-2 -60 9.5 -119t47.5 -99t109 -43q82 -4 139.5 37.5t92 108t46.5 138.5z" />
    <glyph glyph-name="K" unicode="K" horiz-adv-x="2048" 
d="M1228 0l-403 759l-294 -277l-84 -482h-452l355 2048h453l-160 -860l19 1l897 859l626 -1l-1032 -967l602 -1080h-527z" />
    <glyph glyph-name="L" unicode="L" horiz-adv-x="1568" 
d="M1318 384l-67 -384h-1256l355 2048h453l-294 -1663z" />
    <glyph glyph-name="M" unicode="M" horiz-adv-x="2560" 
d="M350 2048h574l276 -1314l24 -1l738 1315h594l-355 -2048h-453l241 1337h-10l-714 -1305h-305l-256 1310l-17 1l-240 -1343h-452z" />
    <glyph glyph-name="N" unicode="N" horiz-adv-x="1952" 
d="M1967 2048l-356 -2048h-432l-486 1261l-19 2l-227 -1263h-452l355 2048h436l482 -1261l19 -2l227 1263h453z" />
    <glyph glyph-name="O" unicode="O" horiz-adv-x="2040" 
d="M1897 1026q-26 -202 -106.5 -391.5t-211 -340t-308.5 -238t-399 -84.5q-218 2 -367.5 92.5t-236 240.5t-115 334t-3.5 375q27 204 108 395t213 342.5t311.5 239.5t401.5 85q219 -3 367 -94.5t233 -243.5t111.5 -337.5t1.5 -374.5zM1440 1027q13 91 16 198.5t-20.5 205.5
t-88.5 162t-189 67q-133 4 -230.5 -53t-163 -154t-104 -212.5t-53.5 -227.5q-13 -93 -14.5 -199.5t23 -202.5t91.5 -158t191 -65q133 -4 228.5 52t160 151t101.5 209.5t52 226.5z" />
    <glyph glyph-name="P" unicode="P" horiz-adv-x="1796" 
d="M911 703l-511 1l66 380l462 -2q140 1 228 82t109 217q17 111 -23.5 193.5t-164.5 88.5l-341 1l-289 -1664h-452l355 2048l744 -1q314 -4 484 -177.5t135 -491.5q-36 -336 -254.5 -505.5t-547.5 -169.5z" />
    <glyph glyph-name="Q" unicode="Q" horiz-adv-x="2040" 
d="M1899 1025q-21 -159 -75.5 -316.5t-146.5 -293t-229 -229.5l196 -377l-403 -1l-97 205q-137 -42 -274 -40q-218 1 -367.5 91.5t-236 240.5t-114.5 334.5t-3 374.5q26 204 107 395t213 342.5t311.5 239.5t402.5 85q217 -3 366 -95t234.5 -244t113 -337.5t2.5 -374.5z
M793 703l356 1l80 -169q96 101 144.5 228t68.5 263q13 91 15.5 199t-21.5 206t-89.5 162t-189.5 67q-133 4 -230.5 -53.5t-163 -153.5t-103.5 -212t-54 -228q-13 -95 -15 -201.5t23 -201.5t92 -156.5t192 -65.5h26.5t26.5 1z" />
    <glyph glyph-name="R" unicode="R" horiz-adv-x="1796" 
d="M1073 0l-227 752h-268l-131 -752h-452l355 2048h740q196 -3 345.5 -75.5t227 -212t56.5 -344.5q-20 -202 -127.5 -351t-292.5 -229l259 -836h-485zM736 1664l-95 -530l293 -5q130 0 222.5 72.5t112.5 204.5q17 110 -32 181.5t-164 75.5z" />
    <glyph glyph-name="S" unicode="S" horiz-adv-x="1776" 
d="M1289 1438q-2 244 -245 249q-67 2 -141.5 -16.5t-132.5 -62.5t-74 -120q-12 -58 18.5 -98.5t83 -68.5t108.5 -48t93 -37l50 -25q141 -62 262 -141.5t190 -196t54 -290.5q-18 -210 -139 -346.5t-300 -201.5t-372 -63q-214 2 -373 85t-245.5 237.5t-81.5 370.5h435
q-1 -142 70 -224t218 -85q74 -1 148.5 21.5t130.5 72t73 129.5q15 68 -16 118t-86.5 85.5t-118 60t-111.5 41.5l-37 13q-133 46 -250.5 126.5t-186 197t-57.5 271.5q12 151 88.5 262t195 183t256.5 106.5t272 32.5q294 -4 472.5 -172.5t175.5 -465.5h-427z" />
    <glyph glyph-name="T" unicode="T" horiz-adv-x="1820" 
d="M1901 2048l-67 -384h-582l-288 -1664h-450l294 1663l-587 1l67 384h1613z" />
    <glyph glyph-name="U" unicode="U" horiz-adv-x="1952" 
d="M1514 2048h453l-233 -1351q-36 -235 -162.5 -398t-319 -247.5t-424.5 -82.5q-216 2 -388 88.5t-261.5 248t-60.5 390.5l232 1352h453l-230 -1337q-21 -146 59 -232.5t225 -90.5q154 -5 276 81.5t150 242.5z" />
    <glyph glyph-name="V" unicode="V" horiz-adv-x="2168" 
d="M727 2050l263 -1472h21l723 1470h491l-1054 -2048h-483l-420 2047z" />
    <glyph glyph-name="W" unicode="W" horiz-adv-x="2896" 
d="M690 2050l122 -1380l13 -1l565 1379h398l125 -1382l14 -1l553 1383h422l-825 -2048h-460l-124 1286l-14 1l-535 -1287h-460l-189 2047z" />
    <glyph glyph-name="X" unicode="X" horiz-adv-x="1976" 
d="M768 2050l254 -671h14l465 669h533l-753 -1044l436 -1004h-506l-255 673h-14l-474 -673h-540l768 1044l-419 1003z" />
    <glyph glyph-name="Y" unicode="Y" horiz-adv-x="2152" 
d="M744 2050l333 -871l21 -1l636 870h517l-993 -1290l-132 -758h-453l143 801l-544 1246z" />
    <glyph glyph-name="Z" unicode="Z" horiz-adv-x="1824" 
d="M1562 384l-67 -384h-1508l50 292l1186 1370l-948 2l67 384h1507l-48 -292l-1187 -1370z" />
    <glyph glyph-name="bracketleft" unicode="[" horiz-adv-x="1072" 
d="M1185 2348l-53 -340h-287l-336 -2152h287l-53 -336h-685l442 2828h685z" />
    <glyph glyph-name="backslash" unicode="\" horiz-adv-x="1184" 
d="M303 2048h382l177 -2356h-382z" />
    <glyph glyph-name="bracketright" unicode="]" horiz-adv-x="1072" 
d="M329 2348h686l-442 -2828h-686l53 336h287l336 2152h-288z" />
    <glyph glyph-name="asciicircum" unicode="^" horiz-adv-x="1312" 
d="M903 1004l-121 613l-334 -613h-347l569 1000h321l236 -999z" />
    <glyph glyph-name="underscore" unicode="_" horiz-adv-x="1312" 
d="M1101 0l-60 -344h-1214l60 344h1214z" />
    <glyph glyph-name="grave" unicode="`" horiz-adv-x="1056" 
d="M799 2112l207 -431l-335 -1l-316 430z" />
    <glyph glyph-name="a" unicode="a" horiz-adv-x="1552" 
d="M807 0l24 135h-4q-65 -89 -160.5 -127t-203.5 -37q-132 2 -234 59t-157.5 159t-47.5 236q8 133 70 225t159 150.5t212.5 88.5t230.5 39q39 3 92.5 7t99.5 23t60 65l7 32q10 67 -36.5 102t-106.5 37q-86 3 -144.5 -47.5t-86.5 -126.5l-413 63q28 164 136.5 269.5
t258.5 155.5t302 48q154 -2 282.5 -61t200 -173t53.5 -282l-177 -1040h-417zM857 491l50 201q-32 -26 -73.5 -35.5t-81.5 -15.5q-97 -14 -184.5 -54t-104.5 -152q-10 -62 24 -96.5t95 -36.5q86 -3 170 49.5t105 139.5z" />
    <glyph glyph-name="b" unicode="b" horiz-adv-x="1652" 
d="M350 2048h449l-130 -679l9 1q57 97 150 143t205 44q155 -3 253 -77t149.5 -191.5t65 -253t-1.5 -260.5q-15 -138 -64 -280t-133 -261t-205 -190.5t-282 -67.5q-96 3 -188.5 43.5t-127.5 139.5h-22l-37 -159h-445zM1077 775q8 62 8.5 133t-17 135t-62 105.5t-127.5 44.5
q-118 4 -191 -63.5t-110.5 -169t-50.5 -199.5q-8 -59 -11.5 -130t10.5 -136.5t55.5 -109t123.5 -46.5q120 -5 197.5 62.5t119.5 170t55 203.5z" />
    <glyph glyph-name="c" unicode="c" horiz-adv-x="1588" 
d="M1497 1029l-418 -79q-18 94 -62 166t-152 76q-120 4 -194 -62t-112 -167t-50 -201q-8 -62 -8.5 -133.5t16.5 -136.5t61.5 -108t127.5 -45q102 -3 171 57t103 151l410 -74q-38 -160 -145 -273t-254.5 -171.5t-304.5 -56.5q-223 3 -364 115.5t-201 291.5t-39 383
q23 216 126.5 398t275.5 291t401 105q248 -3 406 -146t206 -381z" />
    <glyph glyph-name="d" unicode="d" horiz-adv-x="1652" 
d="M1321 0h-445l40 159l-12 -1q-58 -97 -151 -141t-204 -42q-155 2 -253.5 77t-149.5 193t-64.5 254t0.5 262q16 137 65 278t133.5 259.5t205.5 189.5t281 67q97 -2 188.5 -44.5t126.5 -141.5h18l128 679h449zM504 760q-8 -62 -8.5 -133.5t17 -136t62.5 -107t127 -45.5
q120 -4 192.5 64.5t110 171t50.5 200.5q8 59 11 129.5t-11 135.5t-55.5 107.5t-122.5 46.5q-120 4 -197.5 -62t-119.5 -168t-56 -203z" />
    <glyph glyph-name="e" unicode="e" horiz-adv-x="1636" 
d="M717 -29q-225 3 -375.5 104.5t-218 274.5t-45.5 388q24 223 130 410.5t283 299.5t414 109q208 -3 347.5 -101t202 -261.5t38.5 -362.5l-27 -192h-1237l46 296l810 -1q22 111 -33 182.5t-171 75.5q-124 4 -203 -67t-120.5 -177.5t-54.5 -210.5q-12 -91 -0.5 -182.5
t64 -153t165.5 -63.5q105 -3 181.5 50.5t115.5 149.5l386 -106q-32 -156 -143.5 -259t-260 -153.5t-294.5 -49.5z" />
    <glyph glyph-name="f" unicode="f" horiz-adv-x="1104" 
d="M111 0l215 1215l-188 1l58 320l169 -3l6 30q49 226 182 371.5t381 144.5q81 -1 159.5 -14.5t156.5 -32.5l-110 -340q-30 10 -61.5 16.5t-63.5 6.5q-80 1 -126.5 -39t-67.5 -114l-8 -29l289 3l-56 -320h-275l-211 -1216h-449z" />
    <glyph glyph-name="g" unicode="g" horiz-adv-x="1652" 
d="M1140 1528h446l-251 -1459q-31 -213 -143.5 -360.5t-285 -223.5t-382.5 -73q-151 1 -302.5 48t-266.5 149l219 307q156 -129 351 -134q155 -3 251.5 78t127.5 230l25 105l-16 -1q-58 -89 -155.5 -126.5t-200.5 -36.5q-151 2 -249 69.5t-152 177.5t-70 239.5t-2 255.5
q14 136 63.5 275t134.5 255.5t205.5 186t277.5 65.5q98 -2 189.5 -44.5t126.5 -141.5h22zM506 772q-11 -83 -3 -171t54.5 -149.5t151.5 -64.5q113 -4 185 56t111 154t52 190q7 57 8.5 125.5t-14 131t-57 104t-119.5 44.5q-116 5 -193.5 -59t-120 -163t-55.5 -198z" />
    <glyph glyph-name="h" unicode="h" horiz-adv-x="1612" 
d="M583 816l-139 -816h-449l355 2048h433l-129 -679l7 1q163 191 408 185q163 -4 250.5 -94.5t115 -226t10.5 -274.5l-163 -960h-449l164 965q7 50 4 102t-29 88t-90 39q-101 5 -162 -56.5t-92.5 -151.5t-44.5 -170z" />
    <glyph glyph-name="i" unicode="i" horiz-adv-x="780" 
d="M554 1619q-92 1 -163 64.5t-74 156.5q-3 100 72 169t172 68q92 -1 162 -64.5t72 -156.5q3 -100 -70.5 -169t-170.5 -68zM727 1536l-267 -1536h-449l267 1536h449z" />
    <glyph glyph-name="j" unicode="j" horiz-adv-x="948" 
d="M720 1619q-92 1 -163 64.5t-74 156.5q-3 100 72.5 168.5t172.5 68.5q91 -1 160.5 -64.5t71.5 -156.5q3 -100 -70 -168.5t-170 -68.5zM443 1536h449l-271 -1583q-36 -269 -215.5 -401.5t-442.5 -132.5l-189 1l63 360l71 -2q98 1 170.5 40t92.5 142z" />
    <glyph glyph-name="k" unicode="k" horiz-adv-x="1588" 
d="M928 0l-262 582l-146 -142l-76 -440h-449l355 2048h449l-188 -1024h12l484 512l550 -1l-668 -674l408 -861h-469z" />
    <glyph glyph-name="l" unicode="l" horiz-adv-x="748" 
d="M799 2048l-355 -2048h-449l355 2048h449z" />
    <glyph glyph-name="m" unicode="m" horiz-adv-x="2440" 
d="M1421 952l-163 -952h-433l164 961q11 87 -19 157.5t-130 74.5q-102 4 -159 -64t-72 -161l-165 -968h-449l266 1536l437 1l-40 -168l3 1q82 91 184.5 140t227.5 47q109 -2 206.5 -52t129.5 -162l13 1q86 102 199.5 158t249.5 54q167 -4 254 -93.5t113 -225t10 -277.5
l-163 -960h-449l163 961q11 83 -10.5 155.5t-121.5 76.5q-111 5 -170.5 -68t-75.5 -173z" />
    <glyph glyph-name="n" unicode="n" horiz-adv-x="1656" 
d="M583 816l-139 -816h-449l266 1536l414 1l-41 -168l7 1q169 191 424 186q168 -3 266.5 -89.5t135.5 -221.5t20 -285l-163 -960h-448l161 946q12 89 -20 166t-136 81q-102 5 -163 -56t-91.5 -150t-43.5 -171z" />
    <glyph glyph-name="o" unicode="o" horiz-adv-x="1640" 
d="M687 -28q-223 3 -364 115.5t-201 292t-38 382.5q23 216 126 397.5t275 290.5t401 106q221 -3 362.5 -113.5t202.5 -287.5t39 -381q-23 -215 -126.5 -399t-275.5 -295t-401 -108zM708 339q120 -4 194 63.5t112 169.5t50 202q7 63 7.5 134t-16.5 135t-62 105.5t-128 44.5
q-120 4 -194 -62.5t-111.5 -167.5t-49.5 -201q-8 -62 -8.5 -134t16.5 -137t62 -107t128 -45z" />
    <glyph glyph-name="p" unicode="p" horiz-adv-x="1652" 
d="M-105 -576l366 2112l445 1l-41 -168l13 1q57 97 150 143t205 44q155 -3 253 -77t149.5 -191.5t65 -253t-1.5 -260.5q-15 -138 -64 -280t-133 -261t-205 -190.5t-282 -67.5q-96 3 -188.5 43.5t-127.5 139.5h-18l-137 -735h-449zM1077 775q8 62 8.5 133t-17 135t-62 105.5
t-126.5 44.5q-119 4 -192 -63.5t-110.5 -169t-50.5 -199.5q-8 -59 -11.5 -130t10.5 -136.5t55.5 -109t123.5 -46.5q120 -5 197.5 62.5t119.5 170.5t55 203z" />
    <glyph glyph-name="q" unicode="q" horiz-adv-x="1652" 
d="M1588 1536l-366 -2112h-449l139 735l-8 -1q-58 -97 -151 -141t-204 -42q-155 3 -253.5 77.5t-149.5 193t-64.5 254.5t0.5 261q16 136 65 277.5t133.5 260t205.5 189.5t281 67q97 -2 188.5 -44.5t126.5 -141.5h22l39 167h445zM504 760q-8 -61 -8.5 -133t17 -136.5
t62.5 -107t127 -45.5q120 -4 192.5 64.5t110 171t50.5 200.5q8 59 11 129.5t-11 135.5t-55.5 107.5t-122.5 46.5q-120 4 -197.5 -62t-119.5 -168t-56 -203z" />
    <glyph glyph-name="r" unicode="r" horiz-adv-x="1160" 
d="M1209 1510l-181 -389q-29 16 -62 23t-65 8q-122 2 -204 -82.5t-103 -197.5l-150 -872h-449l266 1536h450l-48 -199l6 1q46 108 125.5 165t199.5 55q111 -2 215 -48z" />
    <glyph glyph-name="s" unicode="s" horiz-adv-x="1488" 
d="M166 1097q6 119 68.5 206.5t160 144t209 83.5t214.5 25q222 -3 379 -128t188 -347l-399 -59q-14 63 -48 112t-104 59q-59 8 -127.5 -17t-84.5 -91q-11 -44 24 -66.5t82.5 -34t74.5 -21.5l81 -28q107 -40 195.5 -110t139 -167t43.5 -219q-10 -162 -107.5 -266t-240 -153.5
t-287.5 -48.5q-239 4 -406.5 134t-205.5 370l410 63q22 -75 65 -126.5t127 -60.5q61 -6 130.5 16.5t86.5 91.5q10 38 -18.5 66t-74.5 48t-90.5 33.5t-67.5 22.5l-87 32q-140 54 -239 165t-91 271z" />
    <glyph glyph-name="t" unicode="t" horiz-adv-x="1048" 
d="M1037 1536l-57 -320h-233l-126 -734q-8 -58 8 -91.5t79 -34.5q24 0 47.5 3.5t47.5 7.5l39 -346q-57 -35 -145 -39t-152 -2q-123 3 -212.5 65t-134 162.5t-32.5 220.5l133 788h-167l55 320h167l57 328h451l-63 -327z" />
    <glyph glyph-name="u" unicode="u" horiz-adv-x="1656" 
d="M1003 720l140 816h449l-267 -1536h-414l41 167l-7 -1q-81 -92 -190 -142t-233 -47q-168 4 -267 91t-136 223t-20 285l163 960h449l-161 -945q-12 -89 20.5 -166t135.5 -82t163.5 56t91 150t42.5 171z" />
    <glyph glyph-name="v" unicode="v" horiz-adv-x="1668" 
d="M1683 1536l-787 -1536h-421l-310 1535l452 1l137 -958l13 -1l441 959h475z" />
    <glyph glyph-name="w" unicode="w" horiz-adv-x="2204" 
d="M2176 1536l-631 -1536h-363l-87 855h-22l-389 -855h-364l-106 1536h427l-19 -924h17l393 924h305l66 -915l18 -1l315 916h440z" />
    <glyph glyph-name="x" unicode="x" horiz-adv-x="1568" 
d="M650 1536l143 -437l289 437h473l-526 -788l289 -748h-440l-167 434l-300 -434h-478l542 789l-270 746z" />
    <glyph glyph-name="y" unicode="y" horiz-adv-x="1668" 
d="M427 -27l28 49l-280 1513l453 1l126 -914l16 -1l449 915h477l-927 -1756q-86 -170 -232 -277t-343 -106q-62 1 -121.5 14.5t-117.5 33.5l136 350q133 -42 203 13t133 165z" />
    <glyph glyph-name="z" unicode="z" horiz-adv-x="1544" 
d="M1278 360l-62 -360h-1221l48 280l808 894l-626 2l63 360h1178l-48 -280l-808 -894z" />
    <glyph glyph-name="braceleft" unicode="{" horiz-adv-x="1072" 
d="M743 -252l-98 -244q-221 78 -323 245t-74 399l40 277q14 110 -18.5 186t-153.5 83l30 314q123 1 191 77t87 191l41 280q69 502 564 643l65 -246q-125 -48 -178 -161.5t-72 -235.5l-40 -280q-19 -155 -99 -260t-220 -171q103 -75 148 -184.5t32 -236.5l-38 -277
q-10 -72 -12.5 -151t24 -146t104.5 -102z" />
    <glyph glyph-name="bar" unicode="|" horiz-adv-x="952" 
d="M851 2048l-380 -2432h-398l380 2432h398z" />
    <glyph glyph-name="braceright" unicode="}" horiz-adv-x="1072" 
d="M-67 -252l34 -245q236 74 389 235.5t193 409.5l38 276q12 123 72.5 195.5t190.5 75.5l69 317q-113 3 -154.5 83.5t-34.5 180.5l38 281q33 227 -49.5 395t-308.5 245l-142 -247q69 -37 97 -104.5t31 -144.5t-4 -145l-40 -281q-19 -135 20.5 -246.5t160.5 -180.5
q-127 -65 -209 -174t-106 -250l-40 -276q-16 -131 -63 -241.5t-182 -158.5z" />
    <glyph glyph-name="asciitilde" unicode="~" horiz-adv-x="1824" 
d="M1347 1100l304 2q-4 -107 -36.5 -213.5t-94 -195t-153 -140.5t-213.5 -50q-108 3 -192 53.5t-155 127.5q-37 41 -81 75t-102 35q-64 1 -106.5 -36t-65 -93t-27.5 -110l-309 8q7 142 63.5 279t164.5 225.5t271 85.5q107 -3 192.5 -53t155.5 -128q35 -40 80 -74t102 -36
q63 -1 105.5 36.5t66 93t30.5 108.5z" />
    <glyph glyph-name="nbspace" unicode="&#xa0;" horiz-adv-x="778" 
 />
    <glyph glyph-name="exclamdown" unicode="&#xa1;" horiz-adv-x="800" 
d="M478 1557q98 0 166 -63t71 -162q2 -106 -70 -174t-175 -67q-98 0 -165 63.5t-69 161.5q-2 105 68.5 173.5t173.5 67.5zM388 -516h-460l299 1412h352z" />
    <glyph glyph-name="cent" unicode="&#xa2;" horiz-adv-x="1588" 
d="M1501 1029l-419 -80q-17 95 -59.5 166.5t-150.5 76.5q-121 5 -196 -61t-114.5 -167.5t-53.5 -202.5q-8 -60 -10 -132t13 -137t58.5 -108t126.5 -46q102 -3 172.5 57t105.5 151l410 -74q-33 -139 -119.5 -241t-207 -164t-256.5 -81l-67 -322h-270l67 322
q-185 36 -290 157.5t-142 286t-17 332.5q23 196 110.5 364.5t235.5 280.5t352 137l57 268h270l-58 -272q196 -41 305.5 -182t146.5 -329z" />
    <glyph glyph-name="sterling" unicode="&#xa3;" horiz-adv-x="1824" 
d="M1238 820h-400l-22 -191q-16 -150 -124 -251l832 6l-67 -384h-1427l68 384l116 -3q77 23 105 84.5t39 134.5l30 220h-219l62 360h208l39 295q20 186 112 322t239.5 209.5t334.5 69.5q276 -5 420 -162.5t140 -427.5l-426 1q4 88 -26 151.5t-129 67.5q-100 3 -152.5 -70
t-65.5 -161l-37 -295h413z" />
    <glyph glyph-name="currency" unicode="&#xa4;" horiz-adv-x="2080" 
d="M214 831q18 145 76.5 275.5t160.5 235.5l-163 214l207 185l151 -201q110 73 232 115t255 41q119 -1 234 -41t204 -119l234 205l171 -220l-232 -189q36 -122 55 -242.5t3 -247.5q-17 -139 -71.5 -264t-148.5 -229l159 -201l-210 -185l-135 184q-113 -81 -241 -129
t-269 -46q-125 1 -244 45t-211 129l-211 -183l-166 220l211 171q-32 119 -49 236t-2 241zM465 828q-23 -144 17.5 -277.5t142.5 -220.5t260 -91q168 -4 310 82t236 225.5t120 297.5q23 143 -17 276.5t-140.5 221t-258.5 90.5q-170 5 -312.5 -80t-237 -224.5t-120.5 -299.5z
" />
    <glyph glyph-name="yen" unicode="&#xa5;" horiz-adv-x="1564" 
d="M1318 668l-46 -260h-368l-71 -408h-450l76 407l-409 1l46 260l400 1l32 134l-409 1l46 260h332l-251 983l452 1l138 -726l391 726h479l-598 -982l279 -2l-47 -260l-365 -1l-32 -134z" />
    <glyph glyph-name="brokenbar" unicode="&#xa6;" horiz-adv-x="952" 
d="M874 2048l-166 -956h-399l166 956h399zM220 576h398l-166 -960h-399z" />
    <glyph glyph-name="section" unicode="&#xa7;" horiz-adv-x="1616" 
d="M1468 1534l-388 1q2 151 -149 155q-67 1 -130.5 -31.5t-77.5 -103.5q-14 -64 28.5 -106.5t91.5 -67.5l326 -170q130 -71 204.5 -185.5t51.5 -268.5q-16 -109 -91 -178t-179 -92l-23 -14q58 -83 85.5 -173.5t19.5 -191.5q-13 -168 -104.5 -285t-231.5 -177.5t-300 -57.5
q-254 4 -399 155.5t-143 402.5l388 -1q-2 -88 46.5 -131t136.5 -40q65 2 133 32.5t84 102.5q14 61 -27.5 104.5t-88.5 69.5l-327 166q-131 71 -203 188.5t-51 271.5q16 114 93 180t186 84l9 21q-53 83 -80.5 172.5t-20.5 189.5q12 161 101.5 279t226.5 181t292 60
q240 -4 375.5 -156.5t135.5 -385.5zM1047 728q25 57 -11 96t-82 64l-273 136q-52 20 -95.5 -10.5t-62.5 -77.5q-24 -57 11 -96t81 -63l279 -137q51 -17 92 13t61 75z" />
    <glyph glyph-name="dieresis" unicode="&#xa8;" horiz-adv-x="1312" 
d="M532 1711q-76 -1 -133.5 48t-61.5 127q-4 82 51.5 136t135.5 55q77 1 132.5 -50.5t58.5 -128.5q3 -79 -51 -132.5t-132 -54.5zM1087 1711q-76 -1 -134 48t-61 127q-4 82 51 136t136 55q76 1 132 -50.5t59 -128.5q3 -79 -51 -132.5t-132 -54.5z" />
    <glyph glyph-name="copyright" unicode="&#xa9;" horiz-adv-x="2336" 
d="M213 999q24 202 116 388.5t238 332.5t332.5 230t398.5 82q207 -2 367 -88.5t267 -232t153 -327.5t24 -375q-24 -203 -115.5 -390t-237.5 -334t-332.5 -231t-400.5 -82q-206 2 -366.5 89.5t-267 233.5t-152.5 328.5t-24 375.5zM379 998q-24 -157 6.5 -308t111 -273.5
t209 -196.5t300.5 -76q179 -3 337.5 67.5t284 193.5t207.5 279t108 326q24 157 -6.5 307.5t-111.5 272t-209 195t-300 75.5q-178 3 -336.5 -67.5t-284 -192.5t-208 -277.5t-108.5 -324.5zM1344 820l206 3q-6 -210 -138 -325t-340 -110q-147 3 -242 79.5t-136.5 196.5
t-28.5 256l20 164q17 142 82.5 264.5t176.5 196.5t267 72q201 -4 309.5 -120t106.5 -315l-211 1q6 111 -35 179t-161 71q-99 3 -166 -48.5t-105 -133t-51 -167.5l-22 -165q-9 -73 -0.5 -152t51 -135t135.5 -60q125 -6 196 61t86 187z" />
    <glyph glyph-name="ordfeminine" unicode="&#xaa;" horiz-adv-x="1312" 
d="M874 964q-6 52 -3 102q-118 -115 -279 -114q-138 1 -224.5 82.5t-83.5 221.5q3 132 78.5 202.5t187 96.5t220.5 25l146 -2l18 77q13 67 -7 118.5t-97 54.5q-73 3 -131.5 -29t-72.5 -107l-236 14q2 116 67.5 188.5t164 106.5t201.5 32q169 -4 267 -107t82 -274l-70 -432
q-11 -66 -13.5 -129t12.5 -128zM639 1147q61 -1 118 26t106 62l39 185l-111 1q-81 -1 -165.5 -35.5t-103.5 -125.5q-12 -61 25 -86.5t92 -26.5z" />
    <glyph glyph-name="guillemotleft" unicode="&#xab;" horiz-adv-x="1568" 
d="M1272 161l-256 -1l-284 534l1 32l445 534h297l-431 -569zM733 161l-258 -1l-282 533l1 33l444 534h298l-431 -569z" />
    <glyph glyph-name="logicalnot" unicode="&#xac;" horiz-adv-x="1568" 
d="M1370 1108l-103 -592h-272l69 355l-852 1l42 236h1116z" />
    <glyph glyph-name="softhyphen" unicode="&#xad;" horiz-adv-x="1312" 
d="M116 700zM1169 1028l-57 -328h-996l57 328h996z" />
    <glyph glyph-name="registered" unicode="&#xae;" horiz-adv-x="2336" 
d="M213 998q24 203 116 389.5t238 332.5t332.5 230t398.5 82q207 -2 367.5 -88.5t267 -232t152.5 -327.5t24 -375q-24 -203 -115.5 -390t-237.5 -334t-332.5 -231.5t-400.5 -81.5q-206 2 -366.5 89t-267 233.5t-152.5 329t-24 374.5zM379 998q-24 -157 6.5 -308t111 -273.5
t209 -196.5t300.5 -76q179 -3 337.5 67.5t284 193t207.5 279t108 326.5q24 157 -6.5 307.5t-111.5 272t-209 195t-300 75.5q-178 3 -336.5 -67.5t-284.5 -192.5t-208 -277.5t-108 -324.5zM1186 898l-230 2l-72 -464h-205l183 1168l351 -1q109 -2 202.5 -40.5t149 -116.5
t50.5 -199q-4 -92 -56 -148.5t-128 -97.5q64 -55 82 -133.5t10 -159.5l-9 -76q-5 -46 -3.5 -87.5t7.5 -86.5l-1 -25l-201 1q-13 48 -11.5 98.5t7.5 100.5l10 77q11 85 -17 134.5t-119 53.5zM1038 1420l-53 -336l149 -1q56 0 116.5 15.5t106 51.5t58.5 100
q20 103 -38.5 135.5t-147.5 34.5h-191z" />
    <glyph glyph-name="macron" unicode="&#xaf;" horiz-adv-x="1568" 
d="M1407 2004l-37 -236h-926l37 236h926z" />
    <glyph glyph-name="degree" unicode="&#xb0;" horiz-adv-x="1056" 
d="M616 1227q-109 3 -194.5 60t-133 149t-42.5 199q6 117 69.5 217.5t164.5 161.5t220 58q111 -3 193.5 -63.5t126 -155t38.5 -200.5q-6 -116 -66.5 -214t-158.5 -156t-217 -56zM617 1471q76 -1 133.5 54.5t68.5 127.5q10 61 -22 113.5t-99 54.5q-76 1 -135.5 -56.5
t-70.5 -129.5q-10 -62 24.5 -112t100.5 -52z" />
    <glyph glyph-name="plusminus" unicode="&#xb1;" horiz-adv-x="1568" 
d="M1454 1280l-55 -352h-450l-65 -416h-344l65 416h-454l55 352h453l73 464h345l-73 -464h450zM1305 352l-55 -352h-1237l56 352h1236z" />
    <glyph glyph-name="twosuperior" unicode="&#xb2;" horiz-adv-x="1312" 
d="M1246 1156l-42 -240h-837l38 221l419 332q49 39 107 94.5t75 120.5q11 45 -11.5 71t-68.5 27q-65 0 -103.5 -43.5t-48.5 -102.5l-296 -2q3 118 63.5 205t158 134t211.5 46q106 -2 198 -38t147.5 -110.5t50.5 -192.5q-4 -104 -60.5 -180.5t-137.5 -135.5t-160 -111
l-153 -93z" />
    <glyph glyph-name="threesuperior" unicode="&#xb3;" horiz-adv-x="1312" 
d="M601 1372l36 196l99 -1q60 2 110.5 29.5t64.5 90.5q11 49 -21.5 69t-74.5 21q-43 1 -82 -15t-55 -58l-301 -1q3 114 66.5 184t160 101t198.5 29q94 -2 189 -31t158 -95.5t60 -178.5q-2 -102 -69 -157t-152 -89q79 -28 118 -92.5t38 -146.5q-1 -122 -78 -194.5t-187 -104
t-212 -29.5q-163 3 -280.5 91t-122.5 261l290 -2q3 -55 41 -79t91 -24q57 -1 109.5 28.5t65.5 89.5q13 62 -24 83.5t-89 23.5z" />
    <glyph glyph-name="acute" unicode="&#xb4;" horiz-adv-x="1056" 
d="M271 1680l331 432l487 -1l-436 -431h-382z" />
    <glyph glyph-name="mu" unicode="&#xb5;" horiz-adv-x="1664" 
d="M1021 692l145 844h434l-267 -1536h-401l19 81q-124 -114 -292 -110q-118 3 -207 80l-122 -623h-434l366 2108h434l-144 -853q-9 -67 -9.5 -147t32.5 -139t125 -62q103 -4 168.5 49.5t102 137t50.5 170.5z" />
    <glyph glyph-name="paragraph" unicode="&#xb6;" horiz-adv-x="1312" 
d="M1029 0h-305l124 716l-82 1q-188 3 -323 83.5t-200.5 223t-46.5 330.5q20 200 122 346t263 225.5t358 79.5l438 -1z" />
    <glyph glyph-name="periodcentered" unicode="&#xb7;" horiz-adv-x="800" 
d="M402 695q-99 1 -165.5 74.5t-67.5 170.5q-2 103 70.5 180.5t177.5 76.5q98 -1 165 -73t68 -168q2 -103 -70 -182.5t-178 -78.5z" />
    <glyph glyph-name="cedilla" unicode="&#xb8;" horiz-adv-x="1056" 
d="M124 16l331 2l-31 -96q83 -15 125 -78.5t42 -144.5q0 -106 -51 -173.5t-131.5 -105t-173 -53.5t-176.5 -18l11 260q55 2 98.5 27.5t56.5 83.5q10 46 -18 64t-69 21.5t-72 5.5z" />
    <glyph glyph-name="onesuperior" unicode="&#xb9;" horiz-adv-x="1056" 
d="M969 1998l-176 -1082h-290l132 726l-256 -47l44 240l513 162z" />
    <glyph glyph-name="ordmasculine" unicode="&#xba;" horiz-adv-x="1312" 
d="M282 1436l12 103q16 139 84 252t179 179t258 62q139 -3 234 -70t139 -178t31 -244l-12 -104q-16 -138 -83 -250t-177.5 -177t-255.5 -61q-138 3 -234 69t-142 176t-33 243zM531 1540l-15 -106q-8 -66 2 -130t49.5 -107t118.5 -46q125 -5 195.5 84.5t88.5 200.5l15 105
q9 65 0 130.5t-47.5 110t-117.5 47.5q-126 5 -198.5 -86t-90.5 -203z" />
    <glyph glyph-name="guillemotright" unicode="&#xbb;" horiz-adv-x="1568" 
d="M123 160l426 567l-222 528l252 1l287 -535v-27l-449 -534h-294zM667 161l425 566l-221 528l251 1l287 -534v-28l-449 -534z" />
    <glyph glyph-name="onequarter" unicode="&#xbc;" horiz-adv-x="2080" 
d="M848 1994l-176 -1082h-290l132 726l-256 -47l44 240l513 162zM1681 1714l-1204 -1547l-204 119l1205 1547zM1828 460l-42 -244h-109l-38 -216h-296l46 215h-451l11 222l571 647h308l-109 -624h109zM1233 462l195 -2l58 268l-27 -35z" />
    <glyph glyph-name="onehalf" unicode="&#xbd;" horiz-adv-x="2336" 
d="M955 2006l-176 -1082h-290l132 726l-256 -47l44 240l513 162zM1759 1714l-1205 -1547l-203 119l1205 1547zM2058 240l-42 -240h-837l38 221l420 332q48 39 107 94.5t75 120.5q11 45 -12 71t-69 27q-65 0 -103.5 -43.5t-48.5 -102.5l-295 -2q2 119 62 205.5t157.5 133.5
t211.5 46q106 -2 199 -37.5t149 -110.5t51 -193q-5 -104 -62 -180.5t-138 -136t-159 -110.5l-154 -93z" />
    <glyph glyph-name="threequarters" unicode="&#xbe;" horiz-adv-x="2336" 
d="M678 1372l35 196l99 -1q60 2 110.5 29.5t64.5 90.5q10 49 -22.5 69t-74.5 21t-80.5 -15t-54.5 -58l-302 -1q2 115 66 185t161 100.5t199 28.5q94 -1 189.5 -30.5t158 -96t59.5 -178.5q-2 -103 -69 -157.5t-153 -87.5q80 -28 119.5 -93t38.5 -147q-2 -123 -79.5 -195.5
t-188 -103.5t-212.5 -29q-163 3 -280 91t-121 261l290 -2q3 -55 41 -79t91 -24q57 -1 109.5 28.5t65.5 89.5q14 62 -23.5 83.5t-90.5 23.5zM2006 1714l-1204 -1547l-203 119l1204 1547zM2165 460l-43 -244h-108l-38 -216h-297l46 215h-451l12 222l570 647h308l-108 -624h109
zM1570 462l195 -2l57 268l-26 -35z" />
    <glyph glyph-name="questiondown" unicode="&#xbf;" horiz-adv-x="1568" 
d="M835 1529q97 -1 165.5 -64t70.5 -161q3 -106 -69 -174t-176 -67q-96 0 -163 64t-69 161q-2 104 68 172.5t173 68.5zM566 877l367 1q-8 -131 -58 -226.5t-121.5 -171t-144.5 -146.5t-129 -151.5t-74 -186.5q-13 -83 14.5 -141.5t120.5 -61.5q102 -3 157 66.5t70 160.5
l432 2q-10 -190 -103.5 -322t-245.5 -199.5t-334 -65.5q-166 3 -296 64.5t-200 181t-55 295.5q6 70 53.5 169t119 208.5t152 213.5t153.5 186t122 124z" />
    <glyph glyph-name="Agrave" unicode="&#xc0;" horiz-adv-x="2168" 
d="M0 0zM428 0h-504l1088 2048h484l389 -2048h-482l-58 384h-725zM1165 1471l-371 -713l495 -2l-103 714zM1284 2536l207 -431l-335 -1l-316 430z" />
    <glyph glyph-name="Aacute" unicode="&#xc1;" horiz-adv-x="2168" 
d="M0 0zM428 0h-504l1088 2048h484l389 -2048h-482l-58 384h-725zM1165 1471l-371 -713l495 -2l-103 714zM1080 2104l331 432l487 -1l-436 -431h-382z" />
    <glyph glyph-name="Acircumflex" unicode="&#xc2;" horiz-adv-x="2168" 
d="M0 0zM428 0h-504l1088 2048h484l389 -2048h-482l-58 384h-725zM1165 1471l-371 -713l495 -2l-103 714zM1080 2201l231 184l163 -185l374 -8l12 28l-339 384h-274l-512 -384l-11 -29z" />
    <glyph glyph-name="Atilde" unicode="&#xc3;" horiz-adv-x="2168" 
d="M1604 2545l237 -12q-2 -93 -40 -181.5t-110.5 -146t-176.5 -56.5q-67 1 -123.5 31.5t-112.5 60.5t-121 30q-59 0 -88.5 -38t-40.5 -90l-249 11q4 91 45 180t114.5 146t175.5 55q65 -2 122 -31.5t113.5 -58.5t120.5 -28q59 0 90.5 38t43.5 90zM428 0h-504l1088 2048h484
l389 -2048h-482l-58 384h-725zM1165 1471l-371 -713l495 -2l-103 714z" />
    <glyph glyph-name="Adieresis" unicode="&#xc4;" horiz-adv-x="2168" 
d="M1039 2134q-76 -1 -134 48.5t-61 127.5q-4 82 50.5 136t134.5 55q77 1 133 -50t59 -129q4 -79 -50 -133t-132 -55zM1594 2134q-76 -1 -134 48.5t-62 127.5q-3 82 51 136t135 55q77 1 133 -50t59 -129q4 -79 -50 -133t-132 -55zM428 0h-504l1088 2048h484l389 -2048h-482
l-58 384h-725zM1165 1471l-371 -713l495 -2l-103 714z" />
    <glyph glyph-name="Aring" unicode="&#xc5;" horiz-adv-x="2168" 
d="M0 0zM428 0h-504l1088 2048h484l389 -2048h-482l-58 384h-725zM1165 1471l-371 -713l495 -2l-103 714zM1041 2368q0 85 44 150.5t115.5 102.5t153.5 36q115 -2 200 -78.5t85 -194.5q1 -85 -43.5 -148.5t-116 -98.5t-152.5 -34q-113 2 -199 74t-87 191zM1202 2368
q-10 -54 17.5 -95t84.5 -42q66 -1 115 44.5t59 108.5q10 54 -17.5 95t-84.5 42q-66 1 -115 -44.5t-59 -108.5z" />
    <glyph glyph-name="AE" unicode="&#xc6;" horiz-adv-x="2744" 
d="M2460 364l-64 -364h-1198l57 383l-568 1l-240 -384h-525l1356 2048h1392l-64 -364h-750l-70 -479l629 -1l-63 -360h-610l-70 -479zM905 758l396 -2l106 781z" />
    <glyph glyph-name="Ccedilla" unicode="&#xc7;" horiz-adv-x="1984" 
d="M124 0zM1932 1400l-443 -63q-28 136 -105.5 227t-225.5 96q-133 4 -230.5 -53t-163 -153.5t-104 -212.5t-53.5 -228q-13 -93 -15 -200t23 -202.5t91.5 -158t191.5 -65.5q154 -5 270 80.5t170 226.5l438 -61q-55 -200 -191.5 -349.5t-322.5 -231.5t-390 -80
q-218 2 -368 92t-236.5 240t-115 334.5t-2.5 375.5q26 204 107.5 395t213.5 342.5t311.5 239.5t402.5 85q210 -2 360 -90.5t245.5 -241t141.5 -344.5zM696 16l331 2l-31 -96q83 -15 125 -78.5t42 -144.5q0 -106 -51 -173.5t-131.5 -105t-173 -53.5t-176.5 -18l11 260
q55 2 98.5 27.5t56.5 83.5q10 46 -18 64t-69 21.5t-72 5.5z" />
    <glyph glyph-name="Egrave" unicode="&#xc8;" horiz-adv-x="1656" 
d="M0 0zM1391 384l-67 -384h-1329l355 2048h1330l-67 -384h-876l-84 -447l747 -1l-67 -384h-740l-84 -447zM1048 2536l207 -431l-335 -1l-316 430z" />
    <glyph glyph-name="Eacute" unicode="&#xc9;" horiz-adv-x="1656" 
d="M0 0zM1391 384l-67 -384h-1329l355 2048h1330l-67 -384h-876l-84 -447l747 -1l-67 -384h-740l-84 -447zM844 2104l331 432l487 -1l-436 -431h-382z" />
    <glyph glyph-name="Ecircumflex" unicode="&#xca;" horiz-adv-x="1656" 
d="M0 0zM1391 384l-67 -384h-1329l355 2048h1330l-67 -384h-876l-84 -447l747 -1l-67 -384h-740l-84 -447zM844 2201l231 184l163 -185l374 -8l12 28l-339 384h-274l-512 -384l-11 -29z" />
    <glyph glyph-name="Edieresis" unicode="&#xcb;" horiz-adv-x="1656" 
d="M0 0zM1391 384l-67 -384h-1329l355 2048h1330l-67 -384h-876l-84 -447l747 -1l-67 -384h-740l-84 -447zM814 2139q-76 -1 -133.5 48t-61.5 127q-4 82 51.5 136t135.5 55q77 1 132.5 -50.5t58.5 -128.5q3 -79 -51 -132.5t-132 -54.5zM1369 2139q-76 -1 -134 48t-61 127
q-4 82 51 136t136 55q76 1 132 -50.5t59 -128.5q3 -79 -51 -132.5t-132 -54.5z" />
    <glyph glyph-name="Igrave" unicode="&#xcc;" horiz-adv-x="752" 
d="M0 0zM803 2048l-356 -2048h-452l355 2048h453zM576 2536l207 -431l-335 -1l-316 430z" />
    <glyph glyph-name="Iacute" unicode="&#xcd;" horiz-adv-x="752" 
d="M0 0zM803 2048l-356 -2048h-452l355 2048h453zM372 2104l331 432l487 -1l-436 -431h-382z" />
    <glyph glyph-name="Icircumflex" unicode="&#xce;" horiz-adv-x="752" 
d="M0 0zM803 2048l-356 -2048h-452l355 2048h453zM372 2201l231 184l163 -185l374 -8l12 28l-339 384h-274l-512 -384l-11 -29z" />
    <glyph glyph-name="Idieresis" unicode="&#xcf;" horiz-adv-x="1120" 
d="M530 2134q-76 -1 -133.5 48.5t-61.5 127.5q-4 81 50.5 135.5t135.5 55.5q77 1 132.5 -50t59.5 -128q4 -80 -50 -134t-133 -55zM1085 2134q-76 -1 -133.5 48.5t-61.5 127.5q-4 81 50.5 135.5t135.5 55.5q77 1 132.5 -50t59.5 -128q3 -80 -51 -134t-132 -55zM981 2048
l-355 -2048h-453l355 2048h453z" />
    <glyph glyph-name="Eth" unicode="&#xd0;" horiz-adv-x="1990" 
d="M753 0h-728l151 876h-80l46 264h80l158 908h678q298 -4 486 -142.5t264.5 -369t40.5 -508.5q-38 -293 -182 -526t-376.5 -368t-537.5 -134zM1107 1140l-46 -264h-434l-84 -475l211 -2q194 -1 327 81.5t209.5 226t102.5 325.5q22 158 3 297t-107 227t-273 92h-253
l-90 -508h434z" />
    <glyph glyph-name="Ntilde" unicode="&#xd1;" horiz-adv-x="1952" 
d="M0 0zM1967 2048l-356 -2048h-432l-486 1261l-19 2l-227 -1263h-452l355 2048h436l482 -1261l19 -2l227 1263h453zM1580 2544l241 -14q-3 -93 -42 -181t-111.5 -145t-175.5 -55q-68 1 -125 31.5t-113.5 60.5t-122.5 30q-58 -1 -87.5 -38.5t-40.5 -88.5l-247 10
q3 92 43 180.5t112.5 146t175.5 55.5q65 -1 122.5 -31t115 -59t122.5 -29q58 1 89.5 38t43.5 89z" />
    <glyph glyph-name="Ograve" unicode="&#xd2;" horiz-adv-x="2040" 
d="M125 0zM1897 1026q-26 -202 -106.5 -391.5t-211 -340t-308.5 -238t-399 -84.5q-218 2 -367.5 92.5t-236 240.5t-115 334t-3.5 375q27 204 108 395t213 342.5t311.5 239.5t401.5 85q219 -3 367 -94.5t233 -243.5t111.5 -337.5t1.5 -374.5zM1440 1027q13 91 16 198.5
t-20.5 205.5t-88.5 162t-189 67q-133 4 -230.5 -53t-163 -154t-104 -212.5t-53.5 -227.5q-13 -93 -14.5 -199.5t23 -202.5t91.5 -158t191 -65q133 -4 228.5 52t160 151t101.5 209.5t52 226.5zM1224 2536l207 -431l-335 -1l-316 430z" />
    <glyph glyph-name="Oacute" unicode="&#xd3;" horiz-adv-x="2040" 
d="M125 0zM1897 1026q-26 -202 -106.5 -391.5t-211 -340t-308.5 -238t-399 -84.5q-218 2 -367.5 92.5t-236 240.5t-115 334t-3.5 375q27 204 108 395t213 342.5t311.5 239.5t401.5 85q219 -3 367 -94.5t233 -243.5t111.5 -337.5t1.5 -374.5zM1440 1027q13 91 16 198.5
t-20.5 205.5t-88.5 162t-189 67q-133 4 -230.5 -53t-163 -154t-104 -212.5t-53.5 -227.5q-13 -93 -14.5 -199.5t23 -202.5t91.5 -158t191 -65q133 -4 228.5 52t160 151t101.5 209.5t52 226.5zM1020 2104l331 432l487 -1l-436 -431h-382z" />
    <glyph glyph-name="Ocircumflex" unicode="&#xd4;" horiz-adv-x="2040" 
d="M125 0zM1897 1026q-26 -202 -106.5 -391.5t-211 -340t-308.5 -238t-399 -84.5q-218 2 -367.5 92.5t-236 240.5t-115 334t-3.5 375q27 204 108 395t213 342.5t311.5 239.5t401.5 85q219 -3 367 -94.5t233 -243.5t111.5 -337.5t1.5 -374.5zM1440 1027q13 91 16 198.5
t-20.5 205.5t-88.5 162t-189 67q-133 4 -230.5 -53t-163 -154t-104 -212.5t-53.5 -227.5q-13 -93 -14.5 -199.5t23 -202.5t91.5 -158t191 -65q133 -4 228.5 52t160 151t101.5 209.5t52 226.5zM1020 2201l231 184l163 -185l374 -8l12 28l-339 384h-274l-512 -384l-11 -29z
" />
    <glyph glyph-name="Otilde" unicode="&#xd5;" horiz-adv-x="2040" 
d="M1542 2545l238 -13q-2 -93 -40 -181.5t-110 -145.5t-176 -56q-67 1 -124 31.5t-113.5 60.5t-121.5 30q-59 0 -88.5 -38t-40.5 -90l-249 11q3 92 43 180.5t113.5 145.5t175.5 55q66 -1 123 -30.5t114.5 -58.5t121.5 -29q60 0 91 38t43 90zM1897 1026
q-27 -203 -107.5 -392.5t-211 -339.5t-308.5 -237.5t-399 -84.5q-218 2 -367.5 92.5t-236.5 240t-115 334t-3 375.5q26 204 107.5 395t213.5 342.5t311 239.5t402 85q219 -2 367 -94t233 -244t111.5 -337.5t2.5 -374.5zM1439 1027q13 91 16 198.5t-20 205.5t-88.5 162
t-189.5 68q-133 4 -230.5 -53.5t-163 -154t-104 -212.5t-53.5 -228q-13 -93 -15 -200t23 -202.5t91.5 -157.5t191.5 -66q133 -4 228.5 52.5t160 151.5t101.5 209.5t52 226.5z" />
    <glyph glyph-name="Odieresis" unicode="&#xd6;" horiz-adv-x="2040" 
d="M978 2135q-76 -1 -134 48t-62 126q-4 82 51 137t135 55q77 1 132.5 -50t59.5 -129q3 -79 -50.5 -132.5t-131.5 -54.5zM1533 2135q-76 -1 -134 48t-62 126q-4 82 51 137t135 55q77 1 132.5 -50t59.5 -129q3 -79 -50.5 -132.5t-131.5 -54.5zM1897 1026
q-26 -202 -106.5 -391.5t-211 -340t-308.5 -238t-399 -84.5q-218 2 -367.5 92.5t-236 240.5t-115 334t-3.5 375q27 204 108 395t213 342.5t311.5 239.5t401.5 85q219 -3 367 -94.5t233 -243.5t111.5 -337.5t1.5 -374.5zM1440 1027q13 91 16 198.5t-20.5 205.5t-88.5 162
t-189 67q-133 4 -230.5 -53t-163 -154t-104 -212.5t-53.5 -227.5q-13 -93 -14.5 -199.5t23 -202.5t91.5 -158t191 -65q133 -4 228.5 52t160 151t101.5 209.5t52 226.5z" />
    <glyph glyph-name="multiply" unicode="&#xd7;" horiz-adv-x="1568" 
d="M278 224l-220 269l477 419l-332 422l274 235l323 -415l467 414l225 -269l-481 -417l335 -423l-277 -235l-323 414z" />
    <glyph glyph-name="Oslash" unicode="&#xd8;" horiz-adv-x="2040" 
d="M267 -97l-188 150l185 204q-86 186 -113.5 369t0.5 388q27 204 108 395t212 342.5t309.5 239t403.5 85.5q120 -2 236 -35.5t213 -105.5l177 206l188 -150l-200 -222q75 -184 99 -364.5t-3 -378.5q-27 -203 -106.5 -392.5t-209.5 -339.5t-308 -237.5t-400 -84.5
q-115 1 -227 31.5t-208 95.5zM609 1016q-14 -91 -22.5 -182t-6.5 -182l782 935q-37 42 -93.5 57.5t-110.5 16.5q-134 4 -230.5 -53.5t-161 -153.5t-102.5 -211t-55 -227zM1438 1025q13 84 22 168.5t11 168.5l-766 -918q39 -33 91 -44.5t101 -12.5q134 -2 229 54t158 150.5
t99.5 208t54.5 225.5z" />
    <glyph glyph-name="Ugrave" unicode="&#xd9;" horiz-adv-x="1952" 
d="M89 0zM1514 2048h453l-233 -1351q-36 -235 -162.5 -398t-319 -247.5t-424.5 -82.5q-216 2 -388 88.5t-261.5 248t-60.5 390.5l232 1352h453l-230 -1337q-21 -146 59 -232.5t225 -90.5q154 -5 276 81.5t150 242.5zM1176 2536l207 -431l-335 -1l-316 430z" />
    <glyph glyph-name="Uacute" unicode="&#xda;" horiz-adv-x="1952" 
d="M89 0zM1514 2048h453l-233 -1351q-36 -235 -162.5 -398t-319 -247.5t-424.5 -82.5q-216 2 -388 88.5t-261.5 248t-60.5 390.5l232 1352h453l-230 -1337q-21 -146 59 -232.5t225 -90.5q154 -5 276 81.5t150 242.5zM972 2104l331 432l487 -1l-436 -431h-382z" />
    <glyph glyph-name="Ucircumflex" unicode="&#xdb;" horiz-adv-x="1952" 
d="M89 0zM1514 2048h453l-233 -1351q-36 -235 -162.5 -398t-319 -247.5t-424.5 -82.5q-216 2 -388 88.5t-261.5 248t-60.5 390.5l232 1352h453l-230 -1337q-21 -146 59 -232.5t225 -90.5q154 -5 276 81.5t150 242.5zM972 2201l231 184l163 -185l374 -8l12 28l-339 384h-274
l-512 -384l-11 -29z" />
    <glyph glyph-name="Udieresis" unicode="&#xdc;" horiz-adv-x="1952" 
d="M89 0zM1514 2048h453l-233 -1351q-36 -235 -162.5 -398t-319 -247.5t-424.5 -82.5q-216 2 -388 88.5t-261.5 248t-60.5 390.5l232 1352h453l-230 -1337q-21 -146 59 -232.5t225 -90.5q154 -5 276 81.5t150 242.5zM942 2139q-76 -1 -133.5 48t-61.5 127q-4 82 51.5 136
t135.5 55q77 1 132.5 -50.5t58.5 -128.5q3 -79 -51 -132.5t-132 -54.5zM1497 2139q-76 -1 -134 48t-61 127q-4 82 51 136t136 55q76 1 132 -50.5t59 -128.5q3 -79 -51 -132.5t-132 -54.5z" />
    <glyph glyph-name="Yacute" unicode="&#xdd;" horiz-adv-x="2152" 
d="M272 0zM744 2050l333 -871l21 -1l636 870h517l-993 -1290l-132 -758h-453l143 801l-544 1246zM1072 2104l331 432l487 -1l-436 -431h-382z" />
    <glyph glyph-name="Thorn" unicode="&#xde;" horiz-adv-x="1824" 
d="M350 2048h454l-70 -367l234 -2q188 -2 344 -73.5t243 -209.5t67 -341q-20 -216 -140.5 -358t-301 -212t-381.5 -70l-279 1l-73 -416h-452zM956 1323l-279 1l-100 -551l235 -3q136 1 244.5 71t131.5 212q21 125 -43.5 195.5t-188.5 74.5z" />
    <glyph glyph-name="germandbls" unicode="&#xdf;" horiz-adv-x="1768" 
d="M676 1440l-247 -1440h-434l248 1440q42 292 227 466.5t488 169.5q155 -2 287 -60.5t207.5 -173t61.5 -282.5q-7 -88 -43.5 -160.5t-77 -143t-58.5 -153.5q-15 -71 22 -139t92 -138t97.5 -146.5t37.5 -163.5q-11 -180 -114.5 -302t-258 -183.5t-319.5 -59.5q-94 0 -190 17
t-181 58l137 338q120 -54 252 -54q87 1 158 46.5t88 135.5q14 70 -11.5 124t-70 102.5t-91 98t-77.5 108t-26 134.5q5 90 47.5 163t88.5 143.5t61 156.5q13 76 -30.5 117t-116.5 44q-118 5 -178 -77t-76 -186z" />
    <glyph glyph-name="agrave" unicode="&#xe0;" horiz-adv-x="1552" 
d="M16 0zM807 0l24 135h-4q-65 -89 -160.5 -127t-203.5 -37q-132 2 -234 59t-157.5 159t-47.5 236q8 133 70 225t159 150.5t212.5 88.5t230.5 39q39 3 92.5 7t99.5 23t60 65l7 32q10 67 -36.5 102t-106.5 37q-86 3 -144.5 -47.5t-86.5 -126.5l-413 63q28 164 136.5 269.5
t258.5 155.5t302 48q154 -2 282.5 -61t200 -173t53.5 -282l-177 -1040h-417zM857 491l50 201q-32 -26 -73.5 -35.5t-81.5 -15.5q-97 -14 -184.5 -54t-104.5 -152q-10 -62 24 -96.5t95 -36.5q86 -3 170 49.5t105 139.5zM907 2112l207 -431l-335 -1l-316 430z" />
    <glyph glyph-name="aacute" unicode="&#xe1;" horiz-adv-x="1552" 
d="M16 0zM807 0l24 135h-4q-65 -89 -160.5 -127t-203.5 -37q-132 2 -234 59t-157.5 159t-47.5 236q8 133 70 225t159 150.5t212.5 88.5t230.5 39q39 3 92.5 7t99.5 23t60 65l7 32q10 67 -36.5 102t-106.5 37q-86 3 -144.5 -47.5t-86.5 -126.5l-413 63q28 164 136.5 269.5
t258.5 155.5t302 48q154 -2 282.5 -61t200 -173t53.5 -282l-177 -1040h-417zM857 491l50 201q-32 -26 -73.5 -35.5t-81.5 -15.5q-97 -14 -184.5 -54t-104.5 -152q-10 -62 24 -96.5t95 -36.5q86 -3 170 49.5t105 139.5zM703 1680l331 432l487 -1l-436 -431h-382z" />
    <glyph glyph-name="acircumflex" unicode="&#xe2;" horiz-adv-x="1552" 
d="M16 0zM807 0l24 135h-4q-65 -89 -160.5 -127t-203.5 -37q-132 2 -234 59t-157.5 159t-47.5 236q8 133 70 225t159 150.5t212.5 88.5t230.5 39q39 3 92.5 7t99.5 23t60 65l7 32q10 67 -36.5 102t-106.5 37q-86 3 -144.5 -47.5t-86.5 -126.5l-413 63q28 164 136.5 269.5
t258.5 155.5t302 48q154 -2 282.5 -61t200 -173t53.5 -282l-177 -1040h-417zM857 491l50 201q-32 -26 -73.5 -35.5t-81.5 -15.5q-97 -14 -184.5 -54t-104.5 -152q-10 -62 24 -96.5t95 -36.5q86 -3 170 49.5t105 139.5zM703 1777l231 184l163 -185l374 -8l12 28l-339 384
h-274l-512 -384l-11 -29z" />
    <glyph glyph-name="atilde" unicode="&#xe3;" horiz-adv-x="1560" 
d="M1217 2125l244 -15q-3 -92 -42.5 -180.5t-112.5 -145t-176 -55.5q-68 1 -125 31.5t-113.5 60.5t-121.5 30q-58 0 -89 -37.5t-43 -89.5l-246 10q3 92 43 180.5t113 145.5t176 55q66 -1 123.5 -30.5t114.5 -58.5t122 -29q59 0 90 38t43 90zM806 0l24 136l-4 -1
q-65 -89 -160.5 -127t-203.5 -37q-132 2 -234 59t-157.5 158.5t-47.5 236.5q8 133 70 225t159 150.5t212.5 88.5t230.5 39q39 3 92.5 7t99 23t60.5 65l7 32q10 67 -36.5 102t-107.5 37q-85 3 -143.5 -47.5t-86.5 -126.5l-413 63q28 164 136.5 269.5t258.5 155.5t301 48
q155 -2 283.5 -61t200 -173t53.5 -282l-177 -1040h-417zM856 491l50 201q-32 -26 -73.5 -35.5t-81.5 -15.5q-97 -14 -184.5 -54t-104.5 -152q-10 -62 24 -96.5t94 -36.5q87 -3 171 49.5t105 139.5z" />
    <glyph glyph-name="adieresis" unicode="&#xe4;" horiz-adv-x="1560" 
d="M675 1711q-76 -1 -134 48t-61 126q-4 82 50.5 136.5t135.5 55.5q77 1 132.5 -50t58.5 -129q4 -79 -50 -132.5t-132 -54.5zM1230 1711q-76 -1 -134 48t-62 126q-4 82 51 136.5t135 55.5q77 1 132.5 -50t59.5 -129q3 -79 -50.5 -132.5t-131.5 -54.5zM807 0l24 136l-4 -1
q-65 -89 -160.5 -127t-203.5 -37q-132 2 -234 59.5t-157.5 159t-47.5 235.5q9 132 70.5 224.5t158.5 151t212.5 88.5t230.5 39q39 3 92.5 7t99.5 23t60 65l7 32q10 67 -36 102t-107 37q-85 3 -144 -47.5t-87 -126.5l-413 63q28 163 137 269t259 156.5t301 48.5
q154 -3 283 -61.5t200 -173t53 -282.5l-177 -1040h-417zM857 491l50 201q-32 -26 -73.5 -35.5t-81.5 -15.5q-97 -14 -184.5 -54.5t-105.5 -151.5q-10 -62 24 -96.5t95 -36.5q87 -3 171 49t105 140z" />
    <glyph glyph-name="aring" unicode="&#xe5;" horiz-adv-x="1552" 
d="M16 0zM807 0l24 135h-4q-65 -89 -160.5 -127t-203.5 -37q-132 2 -234 59t-157.5 159t-47.5 236q8 133 70 225t159 150.5t212.5 88.5t230.5 39q39 3 92.5 7t99.5 23t60 65l7 32q10 67 -36.5 102t-106.5 37q-86 3 -144.5 -47.5t-86.5 -126.5l-413 63q28 164 136.5 269.5
t258.5 155.5t302 48q154 -2 282.5 -61t200 -173t53.5 -282l-177 -1040h-417zM857 491l50 201q-32 -26 -73.5 -35.5t-81.5 -15.5q-97 -14 -184.5 -54t-104.5 -152q-10 -62 24 -96.5t95 -36.5q86 -3 170 49.5t105 139.5zM664 1944q0 85 44 150.5t115.5 102.5t153.5 36
q115 -2 200 -78.5t85 -194.5q1 -85 -43.5 -148.5t-116 -98.5t-152.5 -34q-113 2 -199 74t-87 191zM825 1944q-10 -54 17.5 -95t84.5 -42q66 -1 115 44.5t59 108.5q10 54 -17.5 95t-84.5 42q-66 1 -115 -44.5t-59 -108.5z" />
    <glyph glyph-name="ae" unicode="&#xe6;" horiz-adv-x="2444" 
d="M176 1083q28 164 136.5 269.5t258.5 155.5t302 49q105 -1 211.5 -26.5t189.5 -93.5q98 58 204.5 89t220.5 29q211 -2 347 -100t195 -261t37 -361l-17 -143l-982 -98q-3 -111 54.5 -180.5t172.5 -72.5q105 -3 183.5 50t117.5 150l386 -106q-32 -154 -145 -257.5
t-263.5 -154.5t-294.5 -49q-134 1 -260 51t-199 170h-15q-77 -122 -211.5 -173t-272.5 -49q-137 1 -254 52.5t-186 152t-61 249.5q8 132 70 224.5t159.5 151t213 88.5t230.5 39q38 3 92 7t99.5 23t60.5 65l7 32q10 67 -36.5 101.5t-107.5 36.5q-85 3 -143.5 -47t-86.5 -126z
M1675 1193q-98 4 -167.5 -42t-118.5 -119.5t-84 -153.5l566 57q25 110 -27.5 182t-168.5 76zM865 491l49 201q-31 -26 -72.5 -35.5t-81.5 -15.5q-97 -14 -184.5 -54t-105.5 -152q-10 -62 24.5 -96.5t94.5 -36.5q87 -3 171 49.5t105 139.5z" />
    <glyph glyph-name="ccedilla" unicode="&#xe7;" horiz-adv-x="1588" 
d="M61 0zM1497 1029l-418 -79q-18 94 -62 166t-152 76q-120 4 -194 -62t-112 -167t-50 -201q-8 -62 -8.5 -133.5t16.5 -136.5t61.5 -108t127.5 -45q102 -3 171 57t103 151l410 -74q-38 -160 -145 -273t-254.5 -171.5t-304.5 -56.5q-223 3 -364 115.5t-201 291.5t-39 383
q23 216 126.5 398t275.5 291t401 105q248 -3 406 -146t206 -381zM506 16l331 2l-31 -96q83 -15 125 -78.5t42 -144.5q0 -106 -51 -173.5t-131.5 -105t-173 -53.5t-176.5 -18l11 260q55 2 98.5 27.5t56.5 83.5q10 46 -18 64t-69 21.5t-72 5.5z" />
    <glyph glyph-name="egrave" unicode="&#xe8;" horiz-adv-x="1636" 
d="M56 0zM717 -29q-225 3 -375.5 104.5t-218 274.5t-45.5 388q24 223 130 410.5t283 299.5t414 109q208 -3 347.5 -101t202 -261.5t38.5 -362.5l-27 -192h-1237l46 296l810 -1q22 111 -33 182.5t-171 75.5q-124 4 -203 -67t-120.5 -177.5t-54.5 -210.5q-12 -91 -0.5 -182.5
t64 -153t165.5 -63.5q105 -3 181.5 50.5t115.5 149.5l386 -106q-32 -156 -143.5 -259t-260 -153.5t-294.5 -49.5zM915 2112l207 -431l-335 -1l-316 430z" />
    <glyph glyph-name="eacute" unicode="&#xe9;" horiz-adv-x="1636" 
d="M56 0zM717 -29q-225 3 -375.5 104.5t-218 274.5t-45.5 388q24 223 130 410.5t283 299.5t414 109q208 -3 347.5 -101t202 -261.5t38.5 -362.5l-27 -192h-1237l46 296l810 -1q22 111 -33 182.5t-171 75.5q-124 4 -203 -67t-120.5 -177.5t-54.5 -210.5q-12 -91 -0.5 -182.5
t64 -153t165.5 -63.5q105 -3 181.5 50.5t115.5 149.5l386 -106q-32 -156 -143.5 -259t-260 -153.5t-294.5 -49.5zM711 1680l331 432l487 -1l-436 -431h-382z" />
    <glyph glyph-name="ecircumflex" unicode="&#xea;" horiz-adv-x="1636" 
d="M56 0zM717 -29q-225 3 -375.5 104.5t-218 274.5t-45.5 388q24 223 130 410.5t283 299.5t414 109q208 -3 347.5 -101t202 -261.5t38.5 -362.5l-27 -192h-1237l46 296l810 -1q22 111 -33 182.5t-171 75.5q-124 4 -203 -67t-120.5 -177.5t-54.5 -210.5q-12 -91 -0.5 -182.5
t64 -153t165.5 -63.5q105 -3 181.5 50.5t115.5 149.5l386 -106q-32 -156 -143.5 -259t-260 -153.5t-294.5 -49.5zM711 1777l231 184l163 -185l374 -8l12 28l-339 384h-274l-512 -384l-11 -29z" />
    <glyph glyph-name="edieresis" unicode="&#xeb;" horiz-adv-x="1636" 
d="M710 1711q-76 -1 -134 47.5t-61 126.5q-4 82 50.5 136.5t135.5 55.5q76 1 132 -50t59 -129q4 -79 -50 -133t-132 -54zM1265 1711q-76 -1 -134 47.5t-62 126.5q-4 82 51 136.5t135 55.5q77 1 132.5 -50t59.5 -129q3 -79 -50.5 -133t-131.5 -54zM706 -29q-224 3 -373 105
t-214.5 274.5t-40.5 387.5q26 223 134.5 410.5t287.5 300t416 108.5q208 -3 346 -101.5t198 -261.5t34 -362l-30 -192l-967 1q-13 -121 39 -210t187 -92q105 -3 183 50t117 150l386 -106q-33 -156 -145 -259.5t-262 -154t-296 -48.5zM890 1193q-129 4 -210.5 -76.5
t-136.5 -184.5l544 2q25 111 -27.5 183t-169.5 76z" />
    <glyph glyph-name="igrave" unicode="&#xec;" horiz-adv-x="780" 
d="M11 0zM727 1536l-267 -1536h-449l267 1536h449zM514 2080l207 -431l-335 -1l-316 430z" />
    <glyph glyph-name="iacute" unicode="&#xed;" horiz-adv-x="780" 
d="M11 0zM727 1536l-267 -1536h-449l267 1536h449zM310 1648l331 432l487 -1l-436 -431h-382z" />
    <glyph glyph-name="icircumflex" unicode="&#xee;" horiz-adv-x="780" 
d="M0 0zM727 1536l-267 -1536h-449l267 1536h449zM310 1745l231 184l163 -185l374 -8l12 28l-339 384h-274l-512 -384l-11 -29z" />
    <glyph glyph-name="idieresis" unicode="&#xef;" horiz-adv-x="1312" 
d="M550 1710q-76 0 -133.5 49t-61.5 127q-4 81 50.5 135.5t134.5 55.5q77 1 133 -50t59 -128q4 -80 -50 -134t-132 -55zM1105 1710q-76 0 -134 49t-61 127q-4 81 50.5 135.5t134.5 55.5q77 1 133 -50t59 -128q4 -80 -50 -134t-132 -55zM989 1536l-266 -1536h-449l266 1536
h449z" />
    <glyph glyph-name="eth" unicode="&#xf0;" horiz-adv-x="1536" 
d="M624 -33q-204 4 -333.5 108.5t-184 269.5t-33.5 352q16 151 83 306.5t182.5 271.5t279.5 147q86 16 177 -1.5t152 -84.5l31 -1q-19 73 -54.5 137.5t-78.5 124.5l-362 -181l-96 244l258 120q-35 36 -77.5 63.5t-84.5 53.5l223 279q77 -45 148 -98.5t133 -116.5l274 135
l93 -245l-187 -83q127 -248 191 -487.5t27 -522.5q-20 -154 -77.5 -297t-152.5 -255.5t-227.5 -177t-303.5 -61.5zM665 322q108 -4 176 57t103 154t46 182q9 72 6.5 156.5t-40 147t-133.5 66.5q-108 4 -175.5 -55t-103 -149.5t-46.5 -180.5q-9 -71 -6.5 -158t40 -151
t133.5 -69z" />
    <glyph glyph-name="ntilde" unicode="&#xf1;" horiz-adv-x="1656" 
d="M1263 2125l244 -15q-3 -92 -42.5 -180.5t-112.5 -145t-176 -55.5q-67 1 -124.5 31.5t-113.5 61t-121 29.5q-59 0 -89.5 -37.5t-42.5 -89.5l-246 10q2 92 42.5 180t113.5 145t175 56q66 -1 123.5 -30.5t115 -58.5t121.5 -29q59 0 90.5 38t42.5 90zM583 816l-139 -816h-449
l266 1536l414 1l-41 -168l8 1q168 190 423 186q167 -2 265.5 -88.5t135.5 -222.5t21 -285l-163 -960h-448l161 945q11 89 -20.5 167t-135.5 83q-102 4 -162.5 -57t-91.5 -151t-44 -171z" />
    <glyph glyph-name="ograve" unicode="&#xf2;" horiz-adv-x="1640" 
d="M62 0zM687 -28q-223 3 -364 115.5t-201 292t-38 382.5q23 216 126 397.5t275 290.5t401 106q221 -3 362.5 -113.5t202.5 -287.5t39 -381q-23 -215 -126.5 -399t-275.5 -295t-401 -108zM708 339q120 -4 194 63.5t112 169.5t50 202q7 63 7.5 134t-16.5 135t-62 105.5
t-128 44.5q-120 4 -194 -62.5t-111.5 -167.5t-49.5 -201q-8 -62 -8.5 -134t16.5 -137t62 -107t128 -45zM899 2112l207 -431l-335 -1l-316 430z" />
    <glyph glyph-name="oacute" unicode="&#xf3;" horiz-adv-x="1640" 
d="M62 0zM687 -28q-223 3 -364 115.5t-201 292t-38 382.5q23 216 126 397.5t275 290.5t401 106q221 -3 362.5 -113.5t202.5 -287.5t39 -381q-23 -215 -126.5 -399t-275.5 -295t-401 -108zM708 339q120 -4 194 63.5t112 169.5t50 202q7 63 7.5 134t-16.5 135t-62 105.5
t-128 44.5q-120 4 -194 -62.5t-111.5 -167.5t-49.5 -201q-8 -62 -8.5 -134t16.5 -137t62 -107t128 -45zM695 1680l331 432l487 -1l-436 -431h-382z" />
    <glyph glyph-name="ocircumflex" unicode="&#xf4;" horiz-adv-x="1640" 
d="M62 0zM687 -28q-223 3 -364 115.5t-201 292t-38 382.5q23 216 126 397.5t275 290.5t401 106q221 -3 362.5 -113.5t202.5 -287.5t39 -381q-23 -215 -126.5 -399t-275.5 -295t-401 -108zM708 339q120 -4 194 63.5t112 169.5t50 202q7 63 7.5 134t-16.5 135t-62 105.5
t-128 44.5q-120 4 -194 -62.5t-111.5 -167.5t-49.5 -201q-8 -62 -8.5 -134t16.5 -137t62 -107t128 -45zM695 1777l231 184l163 -185l374 -8l12 28l-339 384h-274l-512 -384l-11 -29z" />
    <glyph glyph-name="otilde" unicode="&#xf5;" horiz-adv-x="1640" 
d="M1275 2125l244 -15q-3 -93 -42.5 -181t-112.5 -144.5t-177 -55.5q-67 1 -124 31.5t-113.5 60.5t-121.5 30q-58 0 -88 -38t-41 -90l-249 11q3 92 43 180.5t113.5 145.5t176.5 55q65 -1 122.5 -30.5t114.5 -58.5t122 -29q59 0 90.5 38t42.5 90zM674 -28
q-223 3 -362.5 115.5t-196.5 292t-33 382.5q25 216 130.5 398t279 291t402.5 105q222 -3 362 -113.5t198 -287.5t34 -381q-25 -215 -130.5 -399.5t-279.5 -295.5t-404 -107zM697 339q121 -5 196.5 62.5t115 170t53.5 203.5q8 61 10 132t-14 135t-59.5 106t-126.5 45
q-121 5 -196.5 -61.5t-115 -168t-52.5 -202.5q-8 -61 -10 -133t13.5 -136.5t59 -107t126.5 -45.5z" />
    <glyph glyph-name="odieresis" unicode="&#xf6;" horiz-adv-x="1640" 
d="M710 1711q-76 -1 -133.5 48t-61.5 126q-4 82 50.5 137t135.5 55q77 1 132.5 -50t58.5 -129q4 -79 -50 -132.5t-132 -54.5zM1265 1711q-76 -1 -134 48t-61 126q-4 82 50.5 137t135.5 55q76 1 132 -50t59 -129q4 -79 -50 -132.5t-132 -54.5zM675 -28q-223 3 -362 116
t-196.5 292t-33.5 382q26 216 131 398t278.5 291t402.5 105q222 -3 362 -113.5t198 -287.5t34 -381q-25 -215 -130.5 -399.5t-279.5 -295.5t-404 -107zM698 339q121 -5 196.5 62.5t115 170t53.5 203.5q8 61 10 132.5t-14 135t-59.5 105.5t-126.5 45q-121 4 -196 -62
t-115 -167.5t-53 -202.5q-8 -61 -10 -132.5t13.5 -136.5t59 -107.5t126.5 -45.5z" />
    <glyph glyph-name="divide" unicode="&#xf7;" horiz-adv-x="1568" 
d="M628 1441q-2 105 70 170.5t175 65.5q96 -1 165.5 -61.5t71.5 -159.5q2 -106 -70.5 -170t-174.5 -63q-96 0 -165.5 59.5t-71.5 158.5zM1426 1072l-61 -352h-1245l62 352h1244zM435 329q-2 105 70.5 170.5t174.5 65.5q97 -1 166 -61.5t71 -159.5q3 -106 -69.5 -170
t-174.5 -63q-96 0 -165.5 59.5t-72.5 158.5z" />
    <glyph glyph-name="oslash" unicode="&#xf8;" horiz-adv-x="1640" 
d="M225 -98l-188 151l137 146q-127 271 -91 562q26 217 131 399t277.5 290.5t403.5 106.5q83 -1 163.5 -18.5t154.5 -56.5l123 140l188 -152l-130 -136q128 -267 93 -560q-26 -216 -131 -400t-278.5 -295t-404.5 -108q-85 1 -166.5 20t-155.5 59zM504 764q-8 -46 -15 -92.5
t-11 -93.5l500 595q-23 12 -49.5 17t-51.5 5q-122 3 -197.5 -62.5t-116 -166t-59.5 -202.5zM692 337q123 -4 198.5 63t116 168.5t58.5 203.5q9 46 15.5 92.5t11.5 92.5l-502 -597q23 -13 50 -18t52 -5z" />
    <glyph glyph-name="ugrave" unicode="&#xf9;" horiz-adv-x="1656" 
d="M82 0zM1003 720l140 816h449l-267 -1536h-414l41 167l-7 -1q-81 -92 -190 -142t-233 -47q-168 4 -267 91t-136 223t-20 285l163 960h449l-161 -945q-12 -89 20.5 -166t135.5 -82t163.5 56t91 150t42.5 171zM931 2112l207 -431l-335 -1l-316 430z" />
    <glyph glyph-name="uacute" unicode="&#xfa;" horiz-adv-x="1656" 
d="M82 0zM1003 720l140 816h449l-267 -1536h-414l41 167l-7 -1q-81 -92 -190 -142t-233 -47q-168 4 -267 91t-136 223t-20 285l163 960h449l-161 -945q-12 -89 20.5 -166t135.5 -82t163.5 56t91 150t42.5 171zM727 1680l331 432l487 -1l-436 -431h-382z" />
    <glyph glyph-name="ucircumflex" unicode="&#xfb;" horiz-adv-x="1656" 
d="M82 0zM1003 720l140 816h449l-267 -1536h-414l41 167l-7 -1q-81 -92 -190 -142t-233 -47q-168 4 -267 91t-136 223t-20 285l163 960h449l-161 -945q-12 -89 20.5 -166t135.5 -82t163.5 56t91 150t42.5 171zM727 1777l231 184l163 -185l374 -8l12 28l-339 384h-274
l-512 -384l-11 -29z" />
    <glyph glyph-name="udieresis" unicode="&#xfc;" horiz-adv-x="1656" 
d="M717 1711q-76 -1 -133.5 48t-61.5 126q-4 82 50.5 136.5t134.5 55.5q77 0 132.5 -50.5t58.5 -128.5q4 -79 -49.5 -132.5t-131.5 -54.5zM1272 1711q-76 -1 -133.5 48t-61.5 126q-4 82 50.5 136.5t134.5 55.5q77 0 132.5 -50.5t58.5 -128.5q4 -79 -49.5 -132.5
t-131.5 -54.5zM1002 720l140 816h449l-267 -1536h-414l41 167l-7 -1q-167 -190 -423 -185q-167 3 -265.5 89t-136 221t-21.5 285l163 960h449l-162 -945q-11 -90 21 -166.5t136 -81.5q102 -4 162.5 56.5t91.5 150t43 170.5z" />
    <glyph glyph-name="yacute" unicode="&#xfd;" horiz-adv-x="1668" 
d="M0 0zM427 -27l28 49l-280 1513l453 1l126 -914l16 -1l449 915h477l-927 -1756q-86 -170 -232 -277t-343 -106q-62 1 -121.5 14.5t-117.5 33.5l136 350q133 -42 203 13t133 165zM719 1680l331 432l487 -1l-436 -431h-382z" />
    <glyph glyph-name="thorn" unicode="&#xfe;" horiz-adv-x="1652" 
d="M350 2048h449l-130 -679l9 1q57 97 150 143t205 44q155 -3 253 -77t149.5 -191.5t65 -253t-1.5 -260.5q-15 -138 -64 -280t-133 -261t-205 -190.5t-282 -67.5q-96 3 -188.5 43.5t-127.5 139.5h-18l-137 -735h-449zM1077 775q8 62 8.5 133t-17 135t-62 105.5t-127.5 44.5
q-118 4 -191 -63.5t-110.5 -169t-50.5 -199.5q-8 -59 -11.5 -130t10.5 -136.5t55.5 -109t123.5 -46.5q120 -5 197.5 62.5t119.5 170t55 203.5z" />
    <glyph glyph-name="ydieresis" unicode="&#xff;" horiz-adv-x="1568" 
d="M674 1711q-75 -1 -133 48t-62 127q-4 81 50.5 135.5t135.5 55.5q77 1 132 -50t59 -129q4 -79 -50 -132.5t-132 -54.5zM1229 1711q-76 -1 -133.5 48t-61.5 127q-4 81 50.5 135.5t135.5 55.5q76 1 131.5 -50t59.5 -129q3 -79 -50.5 -132.5t-131.5 -54.5zM428 -27l27 49
l-280 1513l453 1l126 -914l16 -1l449 915h477l-927 -1757q-85 -170 -231 -276.5t-343 -104.5q-62 1 -121.5 14.5t-118.5 32.5l135 350q135 -43 205 11.5t133 166.5z" />
    <glyph glyph-name="Amacron" unicode="&#x100;" horiz-adv-x="2168" 
d="M0 0zM428 0h-504l1088 2048h484l389 -2048h-482l-58 384h-725zM1165 1471l-371 -713l495 -2l-103 714zM1795 2420l-37 -236h-926l37 236h926z" />
    <glyph glyph-name="amacron" unicode="&#x101;" horiz-adv-x="1552" 
d="M16 0zM807 0l24 135h-4q-65 -89 -160.5 -127t-203.5 -37q-132 2 -234 59t-157.5 159t-47.5 236q8 133 70 225t159 150.5t212.5 88.5t230.5 39q39 3 92.5 7t99.5 23t60 65l7 32q10 67 -36.5 102t-106.5 37q-86 3 -144.5 -47.5t-86.5 -126.5l-413 63q28 164 136.5 269.5
t258.5 155.5t302 48q154 -2 282.5 -61t200 -173t53.5 -282l-177 -1040h-417zM857 491l50 201q-32 -26 -73.5 -35.5t-81.5 -15.5q-97 -14 -184.5 -54t-104.5 -152q-10 -62 24 -96.5t95 -36.5q86 -3 170 49.5t105 139.5zM1418 1996l-37 -236h-926l37 236h926z" />
    <glyph glyph-name="Abreve" unicode="&#x102;" horiz-adv-x="2168" 
d="M0 0zM428 0h-504l1088 2048h484l389 -2048h-482l-58 384h-725zM1165 1471l-371 -713l495 -2l-103 714zM1529 2541l297 2q-1 -141 -74.5 -237t-190 -144.5t-247.5 -45.5q-194 3 -320 115.5t-129 310.5l295 -1q-2 -79 34.5 -127t120.5 -51q86 -2 144.5 45.5t69.5 132.5z
" />
    <glyph glyph-name="abreve" unicode="&#x103;" horiz-adv-x="1552" 
d="M16 0zM807 0l24 135h-4q-65 -89 -160.5 -127t-203.5 -37q-132 2 -234 59t-157.5 159t-47.5 236q8 133 70 225t159 150.5t212.5 88.5t230.5 39q39 3 92.5 7t99.5 23t60 65l7 32q10 67 -36.5 102t-106.5 37q-86 3 -144.5 -47.5t-86.5 -126.5l-413 63q28 164 136.5 269.5
t258.5 155.5t302 48q154 -2 282.5 -61t200 -173t53.5 -282l-177 -1040h-417zM857 491l50 201q-32 -26 -73.5 -35.5t-81.5 -15.5q-97 -14 -184.5 -54t-104.5 -152q-10 -62 24 -96.5t95 -36.5q86 -3 170 49.5t105 139.5zM1152 2117l297 2q-1 -141 -74.5 -237t-190 -144.5
t-247.5 -45.5q-194 3 -320 115.5t-129 310.5l295 -1q-2 -79 34.5 -127t120.5 -51q86 -2 144.5 45.5t69.5 132.5z" />
    <glyph glyph-name="Aogonek" unicode="&#x104;" horiz-adv-x="2168" 
d="M428 0h-504l1088 2048h484l389 -2048h-110l15 -6q-66 -36 -142 -87t-90 -135q-12 -76 58 -78q24 0 48 8t47 17l38 -235q-46 -30 -102 -43t-111 -12q-127 1 -213.5 76.5t-84.5 207.5q2 96 48.5 166.5t116.5 122.5l-58 382h-725zM1165 1471l-371 -713l495 -2l-103 714z" />
    <glyph glyph-name="aogonek" unicode="&#x105;" horiz-adv-x="1552" 
d="M807 0l24 135h-4q-65 -89 -160.5 -127t-203.5 -37q-132 2 -234 59t-157.5 159t-47.5 236q8 133 70 225t159 150.5t212.5 88.5t230.5 39q39 3 92.5 7t99.5 23t60 65l7 32q10 67 -36.5 102t-106.5 37q-86 3 -144.5 -47.5t-86.5 -126.5l-413 63q28 164 136.5 269.5
t258.5 155.5t302 48q154 -2 282.5 -61t200 -173t53.5 -282l-177 -1040h-4l15 -6q-66 -36 -142 -87t-90 -135q-12 -76 58 -78q24 0 48 8t47 17l38 -235q-46 -30 -102 -43t-111 -12q-127 1 -213.5 76.5t-84.5 207.5q2 95 48 165.5t115 121.5h-39zM857 491l50 201
q-32 -26 -73.5 -35.5t-81.5 -15.5q-97 -14 -184.5 -54t-104.5 -152q-10 -62 24 -96.5t95 -36.5q86 -3 170 49.5t105 139.5z" />
    <glyph glyph-name="Cacute" unicode="&#x106;" horiz-adv-x="1984" 
d="M124 0zM1932 1400l-443 -63q-28 136 -105.5 227t-225.5 96q-133 4 -230.5 -53t-163 -153.5t-104 -212.5t-53.5 -228q-13 -93 -15 -200t23 -202.5t91.5 -158t191.5 -65.5q154 -5 270 80.5t170 226.5l438 -61q-55 -200 -191.5 -349.5t-322.5 -231.5t-390 -80
q-218 2 -368 92t-236.5 240t-115 334.5t-2.5 375.5q26 204 107.5 395t213.5 342.5t311.5 239.5t402.5 85q210 -2 360 -90.5t245.5 -241t141.5 -344.5zM1020 2104l331 432l487 -1l-436 -431h-382z" />
    <glyph glyph-name="cacute" unicode="&#x107;" horiz-adv-x="1588" 
d="M61 0zM1497 1029l-418 -79q-18 94 -62 166t-152 76q-120 4 -194 -62t-112 -167t-50 -201q-8 -62 -8.5 -133.5t16.5 -136.5t61.5 -108t127.5 -45q102 -3 171 57t103 151l410 -74q-38 -160 -145 -273t-254.5 -171.5t-304.5 -56.5q-223 3 -364 115.5t-201 291.5t-39 383
q23 216 126.5 398t275.5 291t401 105q248 -3 406 -146t206 -381zM723 1680l331 432l487 -1l-436 -431h-382z" />
    <glyph glyph-name="Ccircumflex" unicode="&#x108;" horiz-adv-x="1984" 
d="M124 0zM1932 1400l-443 -63q-28 136 -105.5 227t-225.5 96q-133 4 -230.5 -53t-163 -153.5t-104 -212.5t-53.5 -228q-13 -93 -15 -200t23 -202.5t91.5 -158t191.5 -65.5q154 -5 270 80.5t170 226.5l438 -61q-55 -200 -191.5 -349.5t-322.5 -231.5t-390 -80
q-218 2 -368 92t-236.5 240t-115 334.5t-2.5 375.5q26 204 107.5 395t213.5 342.5t311.5 239.5t402.5 85q210 -2 360 -90.5t245.5 -241t141.5 -344.5zM1020 2201l231 184l163 -185l374 -8l12 28l-339 384h-274l-512 -384l-11 -29z" />
    <glyph glyph-name="ccircumflex" unicode="&#x109;" horiz-adv-x="1588" 
d="M61 0zM1497 1029l-418 -79q-18 94 -62 166t-152 76q-120 4 -194 -62t-112 -167t-50 -201q-8 -62 -8.5 -133.5t16.5 -136.5t61.5 -108t127.5 -45q102 -3 171 57t103 151l410 -74q-38 -160 -145 -273t-254.5 -171.5t-304.5 -56.5q-223 3 -364 115.5t-201 291.5t-39 383
q23 216 126.5 398t275.5 291t401 105q248 -3 406 -146t206 -381zM723 1777l231 184l163 -185l374 -8l12 28l-339 384h-274l-512 -384l-11 -29z" />
    <glyph glyph-name="Cdotaccent" unicode="&#x10a;" horiz-adv-x="1984" 
d="M124 0zM1932 1400l-443 -63q-28 136 -105.5 227t-225.5 96q-133 4 -230.5 -53t-163 -153.5t-104 -212.5t-53.5 -228q-13 -93 -15 -200t23 -202.5t91.5 -158t191.5 -65.5q154 -5 270 80.5t170 226.5l438 -61q-55 -200 -191.5 -349.5t-322.5 -231.5t-390 -80
q-218 2 -368 92t-236.5 240t-115 334.5t-2.5 375.5q26 204 107.5 395t213.5 342.5t311.5 239.5t402.5 85q210 -2 360 -90.5t245.5 -241t141.5 -344.5zM1062 2345q-3 93 59.5 150.5t152.5 57.5q86 1 149.5 -52t66.5 -142q3 -93 -59.5 -150.5t-152.5 -57.5q-86 -1 -149.5 52
t-66.5 142z" />
    <glyph glyph-name="cdotaccent" unicode="&#x10b;" horiz-adv-x="1588" 
d="M61 0zM1497 1029l-418 -79q-18 94 -62 166t-152 76q-120 4 -194 -62t-112 -167t-50 -201q-8 -62 -8.5 -133.5t16.5 -136.5t61.5 -108t127.5 -45q102 -3 171 57t103 151l410 -74q-38 -160 -145 -273t-254.5 -171.5t-304.5 -56.5q-223 3 -364 115.5t-201 291.5t-39 383
q23 216 126.5 398t275.5 291t401 105q248 -3 406 -146t206 -381zM764 1921q-3 93 59.5 150.5t152.5 57.5q86 1 149.5 -52t66.5 -142q3 -93 -59.5 -150.5t-152.5 -57.5q-86 -1 -149.5 52t-66.5 142z" />
    <glyph glyph-name="Ccaron" unicode="&#x10c;" horiz-adv-x="1984" 
d="M124 0zM1932 1400l-443 -63q-28 136 -105.5 227t-225.5 96q-133 4 -230.5 -53t-163 -153.5t-104 -212.5t-53.5 -228q-13 -93 -15 -200t23 -202.5t91.5 -158t191.5 -65.5q154 -5 270 80.5t170 226.5l438 -61q-55 -200 -191.5 -349.5t-322.5 -231.5t-390 -80
q-218 2 -368 92t-236.5 240t-115 334.5t-2.5 375.5q26 204 107.5 395t213.5 342.5t311.5 239.5t402.5 85q210 -2 360 -90.5t245.5 -241t141.5 -344.5zM1080 2536l165 -183l226 182l380 8l1 -27l-471 -384h-277l-380 386l-1 26z" />
    <glyph glyph-name="ccaron" unicode="&#x10d;" horiz-adv-x="1588" 
d="M61 0zM1497 1029l-418 -79q-18 94 -62 166t-152 76q-120 4 -194 -62t-112 -167t-50 -201q-8 -62 -8.5 -133.5t16.5 -136.5t61.5 -108t127.5 -45q102 -3 171 57t103 151l410 -74q-38 -160 -145 -273t-254.5 -171.5t-304.5 -56.5q-223 3 -364 115.5t-201 291.5t-39 383
q23 216 126.5 398t275.5 291t401 105q248 -3 406 -146t206 -381zM783 2112l165 -183l226 182l380 8l1 -27l-471 -384h-277l-380 386l-1 26z" />
    <glyph glyph-name="Dcaron" unicode="&#x10e;" horiz-adv-x="1960" 
d="M0 0zM723 0h-728l355 2048h678q298 -4 486 -142.5t264.5 -369t40.5 -508.5q-38 -293 -182 -526t-376.5 -368t-537.5 -134zM986 1648h-253l-220 -1247l211 -2q194 -1 327 81.5t209.5 226t102.5 325.5q22 158 3 297t-107 227t-273 92zM840 2536l165 -183l226 182l380 8
l1 -27l-471 -384h-277l-380 386l-1 26z" />
    <glyph glyph-name="dcaron" unicode="&#x10f;" horiz-adv-x="1802" 
d="M68 0zM1321 0h-445l40 159l-12 -1q-58 -97 -151 -141t-204 -42q-155 2 -253.5 77t-149.5 193t-64.5 254t0.5 262q16 137 65 278t133.5 259.5t205.5 189.5t281 67q97 -2 188.5 -44.5t126.5 -141.5h18l128 679h449zM504 760q-8 -62 -8.5 -133.5t17 -136t62.5 -107
t127 -45.5q120 -4 192.5 64.5t110 171t50.5 200.5q8 59 11 129.5t-11 135.5t-55.5 107.5t-122.5 46.5q-120 4 -197.5 -62t-119.5 -168t-56 -203zM2273 2112l-38 -227q-25 -160 -85.5 -303.5t-180.5 -256.5l-220 112q51 107 99 203t69 216l43 256h313z" />
    <glyph glyph-name="Dcroat" unicode="&#x110;" horiz-adv-x="1990" 
d="M753 0h-728l151 876h-80l46 264h80l158 908h678q298 -4 486 -142.5t264.5 -369t40.5 -508.5q-38 -293 -182 -526t-376.5 -368t-537.5 -134zM1107 1140l-46 -264h-434l-84 -475l211 -2q194 -1 327 81.5t209.5 226t102.5 325.5q22 158 3 297t-107 227t-273 92h-253
l-90 -508h434z" />
    <glyph glyph-name="dcroat" unicode="&#x111;" horiz-adv-x="1712" 
d="M1321 0h-445l40 159l-12 -1q-58 -97 -151 -141t-204 -42q-155 2 -253.5 77t-149.5 193t-64.5 254t0.5 262q16 136 65 277.5t133.5 260t205.5 189.5t281 67q96 -3 187.5 -45t125.5 -140h18l60 249l-339 1l47 264h333l29 164l452 -1l-36 -162l188 -1l-48 -264h-182z
M504 760q-8 -62 -8.5 -133.5t17 -136t62 -107t127.5 -45.5q120 -4 192.5 64.5t110 171t50.5 200.5q8 59 11 129.5t-11 135.5t-55.5 107.5t-122.5 46.5q-120 4 -197.5 -62t-119.5 -168t-56 -203z" />
    <glyph glyph-name="Emacron" unicode="&#x112;" horiz-adv-x="1656" 
d="M0 0zM1391 384l-67 -384h-1329l355 2048h1330l-67 -384h-876l-84 -447l747 -1l-67 -384h-740l-84 -447zM1559 2420l-37 -236h-926l37 236h926z" />
    <glyph glyph-name="emacron" unicode="&#x113;" horiz-adv-x="1636" 
d="M56 0zM717 -29q-225 3 -375.5 104.5t-218 274.5t-45.5 388q24 223 130 410.5t283 299.5t414 109q208 -3 347.5 -101t202 -261.5t38.5 -362.5l-27 -192h-1237l46 296l810 -1q22 111 -33 182.5t-171 75.5q-124 4 -203 -67t-120.5 -177.5t-54.5 -210.5q-12 -91 -0.5 -182.5
t64 -153t165.5 -63.5q105 -3 181.5 50.5t115.5 149.5l386 -106q-32 -156 -143.5 -259t-260 -153.5t-294.5 -49.5zM1426 1996l-37 -236h-926l37 236h926z" />
    <glyph glyph-name="Ebreve" unicode="&#x114;" horiz-adv-x="1656" 
d="M0 0zM1391 384l-67 -384h-1329l355 2048h1330l-67 -384h-876l-84 -447l747 -1l-67 -384h-740l-84 -447zM1293 2541l297 2q-1 -141 -74.5 -237t-190 -144.5t-247.5 -45.5q-194 3 -320 115.5t-129 310.5l295 -1q-2 -79 34.5 -127t120.5 -51q86 -2 144.5 45.5t69.5 132.5z
" />
    <glyph glyph-name="ebreve" unicode="&#x115;" horiz-adv-x="1636" 
d="M56 0zM717 -29q-225 3 -375.5 104.5t-218 274.5t-45.5 388q24 223 130 410.5t283 299.5t414 109q208 -3 347.5 -101t202 -261.5t38.5 -362.5l-27 -192h-1237l46 296l810 -1q22 111 -33 182.5t-171 75.5q-124 4 -203 -67t-120.5 -177.5t-54.5 -210.5q-12 -91 -0.5 -182.5
t64 -153t165.5 -63.5q105 -3 181.5 50.5t115.5 149.5l386 -106q-32 -156 -143.5 -259t-260 -153.5t-294.5 -49.5zM1160 2117l297 2q-1 -141 -74.5 -237t-190 -144.5t-247.5 -45.5q-194 3 -320 115.5t-129 310.5l295 -1q-2 -79 34.5 -127t120.5 -51q86 -2 144.5 45.5
t69.5 132.5z" />
    <glyph glyph-name="Edotaccent" unicode="&#x116;" horiz-adv-x="1656" 
d="M0 0zM1391 384l-67 -384h-1329l355 2048h1330l-67 -384h-876l-84 -447l747 -1l-67 -384h-740l-84 -447zM886 2345q-3 93 59.5 150.5t152.5 57.5q86 1 149.5 -52t66.5 -142q3 -93 -59.5 -150.5t-152.5 -57.5q-86 -1 -149.5 52t-66.5 142z" />
    <glyph glyph-name="edotaccent" unicode="&#x117;" horiz-adv-x="1636" 
d="M56 0zM717 -29q-225 3 -375.5 104.5t-218 274.5t-45.5 388q24 223 130 410.5t283 299.5t414 109q208 -3 347.5 -101t202 -261.5t38.5 -362.5l-27 -192h-1237l46 296l810 -1q22 111 -33 182.5t-171 75.5q-124 4 -203 -67t-120.5 -177.5t-54.5 -210.5q-12 -91 -0.5 -182.5
t64 -153t165.5 -63.5q105 -3 181.5 50.5t115.5 149.5l386 -106q-32 -156 -143.5 -259t-260 -153.5t-294.5 -49.5zM752 1921q-3 93 59.5 150.5t152.5 57.5q86 1 149.5 -52t66.5 -142q3 -93 -59.5 -150.5t-152.5 -57.5q-86 -1 -149.5 52t-66.5 142z" />
    <glyph glyph-name="Eogonek" unicode="&#x118;" horiz-adv-x="1656" 
d="M1391 384l-67 -384h-209l15 -6q-66 -36 -142 -87t-90 -135q-12 -76 58 -78q24 0 48 8t47 17l38 -235q-46 -30 -102 -43t-111 -12q-127 1 -213.5 76.5t-84.5 207.5q2 95 48 165.5t115 121.5h-746l355 2048h1330l-67 -384h-876l-84 -447l747 -1l-67 -384h-740l-84 -447z
" />
    <glyph glyph-name="eogonek" unicode="&#x119;" horiz-adv-x="1636" 
d="M1023 -468q-46 -30 -102 -43t-111 -12q-128 1 -214.5 76.5t-84.5 207.5q2 67 25.5 121.5t63.5 98.5q-187 28 -310.5 133.5t-177.5 266.5t-34 357q24 223 130 410.5t283 299.5t414 109q208 -3 347.5 -101t202 -261.5t38.5 -362.5l-27 -192h-970q0 -76 20 -144t71.5 -111.5
t144.5 -45.5q105 -3 181.5 50.5t115.5 149.5l386 -106q-30 -148 -134 -248.5t-239 -153.5q-64 -35 -131 -84t-79 -127q-12 -76 57 -78q25 0 48.5 8t46.5 17zM881 1193q-129 4 -208.5 -73t-121.5 -185h534q22 111 -33 182.5t-171 75.5z" />
    <glyph glyph-name="Ecaron" unicode="&#x11a;" horiz-adv-x="1656" 
d="M0 0zM1391 384l-67 -384h-1329l355 2048h1330l-67 -384h-876l-84 -447l747 -1l-67 -384h-740l-84 -447zM904 2536l165 -183l226 182l380 8l1 -27l-471 -384h-277l-380 386l-1 26z" />
    <glyph glyph-name="ecaron" unicode="&#x11b;" horiz-adv-x="1636" 
d="M56 0zM717 -29q-225 3 -375.5 104.5t-218 274.5t-45.5 388q24 223 130 410.5t283 299.5t414 109q208 -3 347.5 -101t202 -261.5t38.5 -362.5l-27 -192h-1237l46 296l810 -1q22 111 -33 182.5t-171 75.5q-124 4 -203 -67t-120.5 -177.5t-54.5 -210.5q-12 -91 -0.5 -182.5
t64 -153t165.5 -63.5q105 -3 181.5 50.5t115.5 149.5l386 -106q-32 -156 -143.5 -259t-260 -153.5t-294.5 -49.5zM771 2112l165 -183l226 182l380 8l1 -27l-471 -384h-277l-380 386l-1 26z" />
    <glyph glyph-name="Gcircumflex" unicode="&#x11c;" horiz-adv-x="2000" 
d="M124 0zM1865 1096l-57 -339q-36 -233 -169 -410.5t-332.5 -277.5t-435.5 -97q-218 2 -368 92t-236 240t-114.5 334.5t-3.5 375.5q27 203 107 394t211 342.5t309 240t402 86.5q202 -2 350 -86.5t246 -229.5t151 -329l-461 -63q-29 126 -104 206t-210 85q-132 5 -228 -53.5
t-160.5 -156t-102 -213t-52.5 -225.5q-13 -91 -14.5 -198t24 -203t92 -158.5t190.5 -65.5q178 -5 303.5 100.5t174.5 271.5l-397 -3l59 340h826zM1020 2201l231 184l163 -185l374 -8l12 28l-339 384h-274l-512 -384l-11 -29z" />
    <glyph glyph-name="gcircumflex" unicode="&#x11d;" horiz-adv-x="1652" 
d="M0 0zM1140 1528h446l-251 -1459q-31 -213 -143.5 -360.5t-285 -223.5t-382.5 -73q-151 1 -302.5 48t-266.5 149l219 307q156 -129 351 -134q155 -3 251.5 78t127.5 230l25 105l-16 -1q-58 -89 -155.5 -126.5t-200.5 -36.5q-151 2 -249 69.5t-152 177.5t-70 239.5
t-2 255.5q14 136 63.5 275t134.5 255.5t205.5 186t277.5 65.5q98 -2 189.5 -44.5t126.5 -141.5h22zM506 772q-11 -83 -3 -171t54.5 -149.5t151.5 -64.5q113 -4 185 56t111 154t52 190q7 57 8.5 125.5t-14 131t-57 104t-119.5 44.5q-116 5 -193.5 -59t-120 -163t-55.5 -198z
M699 1777l231 184l163 -185l374 -8l12 28l-339 384h-274l-512 -384l-11 -29z" />
    <glyph glyph-name="Gbreve" unicode="&#x11e;" horiz-adv-x="2000" 
d="M124 0zM1865 1096l-57 -339q-36 -233 -169 -410.5t-332.5 -277.5t-435.5 -97q-218 2 -368 92t-236 240t-114.5 334.5t-3.5 375.5q27 203 107 394t211 342.5t309 240t402 86.5q202 -2 350 -86.5t246 -229.5t151 -329l-461 -63q-29 126 -104 206t-210 85q-132 5 -228 -53.5
t-160.5 -156t-102 -213t-52.5 -225.5q-13 -91 -14.5 -198t24 -203t92 -158.5t190.5 -65.5q178 -5 303.5 100.5t174.5 271.5l-397 -3l59 340h826zM1469 2541l297 2q-1 -141 -74.5 -237t-190 -144.5t-247.5 -45.5q-194 3 -320 115.5t-129 310.5l295 -1q-2 -79 34.5 -127
t120.5 -51q86 -2 144.5 45.5t69.5 132.5z" />
    <glyph glyph-name="gbreve" unicode="&#x11f;" horiz-adv-x="1652" 
d="M0 0zM1140 1528h446l-251 -1459q-31 -213 -143.5 -360.5t-285 -223.5t-382.5 -73q-151 1 -302.5 48t-266.5 149l219 307q156 -129 351 -134q155 -3 251.5 78t127.5 230l25 105l-16 -1q-58 -89 -155.5 -126.5t-200.5 -36.5q-151 2 -249 69.5t-152 177.5t-70 239.5
t-2 255.5q14 136 63.5 275t134.5 255.5t205.5 186t277.5 65.5q98 -2 189.5 -44.5t126.5 -141.5h22zM506 772q-11 -83 -3 -171t54.5 -149.5t151.5 -64.5q113 -4 185 56t111 154t52 190q7 57 8.5 125.5t-14 131t-57 104t-119.5 44.5q-116 5 -193.5 -59t-120 -163t-55.5 -198z
M1148 2117l297 2q-1 -141 -74.5 -237t-190 -144.5t-247.5 -45.5q-194 3 -320 115.5t-129 310.5l295 -1q-2 -79 34.5 -127t120.5 -51q86 -2 144.5 45.5t69.5 132.5z" />
    <glyph glyph-name="Gdotaccent" unicode="&#x120;" horiz-adv-x="2000" 
d="M124 0zM1865 1096l-57 -339q-36 -233 -169 -410.5t-332.5 -277.5t-435.5 -97q-218 2 -368 92t-236 240t-114.5 334.5t-3.5 375.5q27 203 107 394t211 342.5t309 240t402 86.5q202 -2 350 -86.5t246 -229.5t151 -329l-461 -63q-29 126 -104 206t-210 85q-132 5 -228 -53.5
t-160.5 -156t-102 -213t-52.5 -225.5q-13 -91 -14.5 -198t24 -203t92 -158.5t190.5 -65.5q178 -5 303.5 100.5t174.5 271.5l-397 -3l59 340h826zM1062 2345q-3 93 59.5 150.5t152.5 57.5q86 1 149.5 -52t66.5 -142q3 -93 -59.5 -150.5t-152.5 -57.5q-86 -1 -149.5 52
t-66.5 142z" />
    <glyph glyph-name="gdotaccent" unicode="&#x121;" horiz-adv-x="1652" 
d="M0 0zM1140 1528h446l-251 -1459q-31 -213 -143.5 -360.5t-285 -223.5t-382.5 -73q-151 1 -302.5 48t-266.5 149l219 307q156 -129 351 -134q155 -3 251.5 78t127.5 230l25 105l-16 -1q-58 -89 -155.5 -126.5t-200.5 -36.5q-151 2 -249 69.5t-152 177.5t-70 239.5
t-2 255.5q14 136 63.5 275t134.5 255.5t205.5 186t277.5 65.5q98 -2 189.5 -44.5t126.5 -141.5h22zM506 772q-11 -83 -3 -171t54.5 -149.5t151.5 -64.5q113 -4 185 56t111 154t52 190q7 57 8.5 125.5t-14 131t-57 104t-119.5 44.5q-116 5 -193.5 -59t-120 -163t-55.5 -198z
M741 1921q-3 93 59.5 150.5t152.5 57.5q86 1 149.5 -52t66.5 -142q3 -93 -59.5 -150.5t-152.5 -57.5q-86 -1 -149.5 52t-66.5 142z" />
    <glyph glyph-name="Gcommaaccent" unicode="&#x122;" horiz-adv-x="2000" 
d="M124 0zM1865 1096l-57 -339q-36 -233 -169 -410.5t-332.5 -277.5t-435.5 -97q-218 2 -368 92t-236 240t-114.5 334.5t-3.5 375.5q27 203 107 394t211 342.5t309 240t402 86.5q202 -2 350 -86.5t246 -229.5t151 -329l-461 -63q-29 126 -104 206t-210 85q-132 5 -228 -53.5
t-160.5 -156t-102 -213t-52.5 -225.5q-13 -91 -14.5 -198t24 -203t92 -158.5t190.5 -65.5q178 -5 303.5 100.5t174.5 271.5l-397 -3l59 340h826zM1012 -116l-38 -227q-25 -160 -85.5 -303.5t-180.5 -256.5l-220 112q51 107 99 203t69 216l43 256h313z" />
    <glyph glyph-name="gcommaaccent" unicode="&#x123;" horiz-adv-x="1652" 
d="M0 0zM1140 1528h446l-251 -1459q-31 -213 -143.5 -360.5t-285 -223.5t-382.5 -73q-151 1 -302.5 48t-266.5 149l219 307q156 -129 351 -134q155 -3 251.5 78t127.5 230l25 105l-16 -1q-58 -89 -155.5 -126.5t-200.5 -36.5q-151 2 -249 69.5t-152 177.5t-70 239.5
t-2 255.5q14 136 63.5 275t134.5 255.5t205.5 186t277.5 65.5q98 -2 189.5 -44.5t126.5 -141.5h22zM506 772q-11 -83 -3 -171t54.5 -149.5t151.5 -64.5q113 -4 185 56t111 154t52 190q7 57 8.5 125.5t-14 131t-57 104t-119.5 44.5q-116 5 -193.5 -59t-120 -163t-55.5 -198z
M763 1736l31 191q19 133 74 257.5t174 199.5l218 -105q-48 -90 -88.5 -178t-59.5 -189l-35 -176h-314z" />
    <glyph glyph-name="Hcircumflex" unicode="&#x124;" horiz-adv-x="1952" 
d="M0 0zM803 2048l-150 -831l716 -1l145 832h453l-356 -2048h-453l150 831l-716 1l-145 -832h-452l355 2048h453zM1044 2201l231 184l163 -185l374 -8l12 28l-339 384h-274l-512 -384l-11 -29z" />
    <glyph glyph-name="hcircumflex" unicode="&#x125;" horiz-adv-x="1612" 
d="M0 0zM583 816l-139 -816h-449l355 2048h433l-129 -679l7 1q163 191 408 185q163 -4 250.5 -94.5t115 -226t10.5 -274.5l-163 -960h-449l164 965q7 50 4 102t-29 88t-90 39q-101 5 -162 -56.5t-92.5 -151.5t-44.5 -170zM931 2329l231 184l163 -185l374 -8l12 28l-339 384
h-274l-512 -384l-11 -29z" />
    <glyph glyph-name="Hbar" unicode="&#x126;" horiz-adv-x="1952" 
d="M804 2048l-66 -339l716 -1l60 340h454l-65 -339l154 -1l-46 -248h-146l-254 -1460h-452l149 831l-716 1l-145 -832h-452l257 1459l-154 1l46 248h147l59 340h454zM653 1217h713l51 242h-714z" />
    <glyph glyph-name="hbar" unicode="&#x127;" horiz-adv-x="1642" 
d="M613 816l-139 -816h-449l289 1668h-213l46 264h213l20 116h433l-22 -116h321l-46 -264h-325l-57 -299l7 1q163 191 408 185q163 -4 250.5 -94.5t115 -226t10.5 -274.5l-163 -960h-449l164 965q7 50 4 102t-29 88t-90 39q-101 5 -162 -56.5t-92.5 -151.5t-44.5 -170z" />
    <glyph glyph-name="Itilde" unicode="&#x128;" horiz-adv-x="752" 
d="M0 0zM803 2048l-356 -2048h-452l355 2048h453zM908 2544l241 -14q-3 -93 -42 -181t-111.5 -145t-175.5 -55q-68 1 -125 31.5t-113.5 60.5t-122.5 30q-58 -1 -87.5 -38.5t-40.5 -88.5l-247 10q3 92 43 180.5t112.5 146t175.5 55.5q65 -1 122.5 -31t115 -59t122.5 -29
q58 1 89.5 38t43.5 89z" />
    <glyph glyph-name="itilde" unicode="&#x129;" horiz-adv-x="1280" 
d="M1104 2124l241 -14q-3 -93 -42.5 -181t-112.5 -145t-176 -55q-68 1 -125 31.5t-113.5 60.5t-121.5 30q-58 0 -88.5 -37.5t-42.5 -89.5l-247 10q3 92 43.5 180.5t114 146t175.5 55.5q66 -1 123.5 -31t114.5 -59t121 -29q59 0 91.5 37.5t44.5 89.5zM971 1536l-266 -1536
h-450l267 1536h449z" />
    <glyph glyph-name="Imacron" unicode="&#x12a;" horiz-adv-x="752" 
d="M0 0zM803 2048l-356 -2048h-452l355 2048h453zM1087 2420l-37 -236h-926l37 236h926z" />
    <glyph glyph-name="imacron" unicode="&#x12b;" horiz-adv-x="780" 
d="M11 0zM727 1536l-267 -1536h-449l267 1536h449zM1024 1964l-37 -236h-926l37 236h926z" />
    <glyph glyph-name="Ibreve" unicode="&#x12c;" horiz-adv-x="752" 
d="M0 0zM803 2048l-356 -2048h-452l355 2048h453zM821 2541l297 2q-1 -141 -74.5 -237t-190 -144.5t-247.5 -45.5q-194 3 -320 115.5t-129 310.5l295 -1q-2 -79 34.5 -127t120.5 -51q86 -2 144.5 45.5t69.5 132.5z" />
    <glyph glyph-name="ibreve" unicode="&#x12d;" horiz-adv-x="780" 
d="M11 0zM727 1536l-267 -1536h-449l267 1536h449zM759 2085l297 2q-1 -141 -74.5 -237t-190 -144.5t-247.5 -45.5q-194 3 -320 115.5t-129 310.5l295 -1q-2 -79 34.5 -127t120.5 -51q86 -2 144.5 45.5t69.5 132.5z" />
    <glyph glyph-name="Iogonek" unicode="&#x12e;" horiz-adv-x="752" 
d="M0 0zM803 2048l-356 -2048h-452l355 2048h453zM107 84l243 -90q-66 -36 -142 -87t-90 -135q-12 -76 58 -78q24 0 48 8t47 17l38 -235q-46 -30 -102 -43t-111 -12q-127 1 -213.5 76.5t-84.5 207.5q2 141 96.5 229t212.5 142z" />
    <glyph glyph-name="iogonek" unicode="&#x12f;" horiz-adv-x="780" 
d="M0 0zM554 1619q-92 1 -163 64.5t-74 156.5q-3 100 72 169t172 68q92 -1 162 -64.5t72 -156.5q3 -100 -70.5 -169t-170.5 -68zM727 1536l-267 -1536h-449l267 1536h449zM135 84l243 -90q-66 -36 -142 -87t-90 -135q-12 -76 58 -78q24 0 48 8t47 17l38 -235
q-46 -30 -102 -43t-111 -12q-127 1 -213.5 76.5t-84.5 207.5q2 141 96.5 229t212.5 142z" />
    <glyph glyph-name="Idotaccent" unicode="&#x130;" horiz-adv-x="752" 
d="M0 0zM803 2048l-356 -2048h-452l355 2048h453zM414 2345q-3 93 59.5 150.5t152.5 57.5q86 1 149.5 -52t66.5 -142q3 -93 -59.5 -150.5t-152.5 -57.5q-86 -1 -149.5 52t-66.5 142z" />
    <glyph glyph-name="dotlessi" unicode="&#x131;" horiz-adv-x="780" 
d="M727 1536l-267 -1536h-449l267 1536h449z" />
    <glyph glyph-name="IJ" unicode="&#x132;" horiz-adv-x="2620" 
d="M251 0zM1059 2048l-356 -2048h-452l355 2048h453zM1952 628l244 1420h449l-244 -1420q-28 -192 -131.5 -341.5t-263.5 -234t-358 -82.5q-298 4 -448.5 174.5t-143.5 460.5h452q-2 -60 9.5 -119t47.5 -99t109 -43q82 -4 139.5 37.5t92 108t46.5 138.5z" />
    <glyph glyph-name="ij" unicode="&#x133;" horiz-adv-x="1984" 
d="M267 0zM810 1619q-92 1 -163 64.5t-74 156.5q-3 100 72 169t172 68q92 -1 162 -64.5t72 -156.5q3 -100 -70.5 -169t-170.5 -68zM983 1536l-267 -1536h-449l267 1536h449zM1756 1619q-92 1 -163 64.5t-74 156.5q-3 100 72.5 168.5t172.5 68.5q91 -1 160.5 -64.5
t71.5 -156.5q3 -100 -70 -168.5t-170 -68.5zM1479 1536h449l-271 -1583q-36 -269 -215.5 -401.5t-442.5 -132.5l-189 1l63 360l71 -2q98 1 170.5 40t92.5 142z" />
    <glyph glyph-name="Jcircumflex" unicode="&#x134;" horiz-adv-x="1612" 
d="M41 0zM944 628l244 1420h449l-244 -1420q-28 -192 -131.5 -341.5t-263.5 -234t-358 -82.5q-298 4 -448.5 174.5t-143.5 460.5h452q-2 -60 9.5 -119t47.5 -99t109 -43q82 -4 139.5 37.5t92 108t46.5 138.5zM1224 2201l231 184l163 -185l374 -8l12 28l-339 384h-274
l-512 -384l-11 -29z" />
    <glyph glyph-name="jcircumflex" unicode="&#x135;" horiz-adv-x="948" 
d="M0 0zM443 1536h449l-271 -1583q-36 -268 -216 -401t-442 -133l-189 1l63 360l70 -2q98 1 170.5 40.5t92.5 141.5zM478 1745l231 184l163 -185l374 -8l12 28l-339 384h-274l-512 -384l-11 -29z" />
    <glyph glyph-name="Kcommaaccent" unicode="&#x136;" horiz-adv-x="2048" 
d="M0 0zM1228 0l-403 759l-294 -277l-84 -482h-452l355 2048h453l-160 -860l19 1l897 859l626 -1l-1032 -967l602 -1080h-527zM929 -114l-38 -227q-25 -160 -85.5 -303.5t-180.5 -256.5l-220 112q51 107 99 203t69 216l43 256h313z" />
    <glyph glyph-name="kcommaaccent" unicode="&#x137;" horiz-adv-x="1588" 
d="M0 0zM928 0l-262 582l-146 -142l-76 -440h-449l355 2048h449l-188 -1024h12l484 512l550 -1l-668 -674l408 -861h-469zM772 -116l-38 -227q-25 -160 -85.5 -303.5t-180.5 -256.5l-220 112q51 107 99 203t69 216l43 256h313z" />
    <glyph glyph-name="kgreenlandic" unicode="&#x138;" horiz-adv-x="1824" 
d="M919 0l-199 520h-174l-91 -520h-433l258 1488h433l-93 -536h104l416 536l577 -1l-617 -726l360 -761h-541z" />
    <glyph glyph-name="Lacute" unicode="&#x139;" horiz-adv-x="1568" 
d="M0 0zM1318 384l-67 -384h-1256l355 2048h453l-294 -1663zM368 2104l331 432l487 -1l-436 -431h-382z" />
    <glyph glyph-name="lacute" unicode="&#x13a;" horiz-adv-x="748" 
d="M0 0zM799 2048l-355 -2048h-449l355 2048h449zM391 2212l331 432l487 -1l-436 -431h-382z" />
    <glyph glyph-name="Lcommaaccent" unicode="&#x13b;" horiz-adv-x="1568" 
d="M0 0zM1318 384l-67 -384h-1256l355 2048h453l-294 -1663zM775 -100l-38 -227q-25 -160 -85.5 -303.5t-180.5 -256.5l-220 112q51 107 99 203t69 216l43 256h313z" />
    <glyph glyph-name="lcommaaccent" unicode="&#x13c;" horiz-adv-x="748" 
d="M0 0zM799 2048l-355 -2048h-449l355 2048h449zM364 -116l-38 -227q-25 -160 -85.5 -303.5t-180.5 -256.5l-220 112q51 107 99 203t69 216l43 256h313z" />
    <glyph glyph-name="Lcaron" unicode="&#x13d;" horiz-adv-x="1568" 
d="M0 0zM1318 384l-67 -384h-1256l355 2048h453l-294 -1663zM1455 2004l-38 -227q-25 -160 -85.5 -303.5t-180.5 -256.5l-220 112q51 107 99 203t69 216l43 256h313z" />
    <glyph glyph-name="lcaron" unicode="&#x13e;" horiz-adv-x="898" 
d="M0 0zM799 2048l-355 -2048h-449l355 2048h449zM1325 2112l-38 -227q-25 -160 -85.5 -303.5t-180.5 -256.5l-220 112q51 107 99 203t69 216l43 256h313z" />
    <glyph glyph-name="Ldot" unicode="&#x13f;" horiz-adv-x="1568" 
d="M0 0zM1318 384l-67 -384h-1256l355 2048h453l-294 -1663zM839 1149q-3 93 59.5 150.5t152.5 57.5q86 1 149.5 -52t66.5 -142q3 -93 -59.5 -150.5t-152.5 -57.5q-86 -1 -149.5 52t-66.5 142z" />
    <glyph glyph-name="ldot" unicode="&#x140;" horiz-adv-x="968" 
d="M0 0zM799 2048l-355 -2048h-449l355 2048h449zM763 1053q-3 93 59.5 150.5t152.5 57.5q86 1 149.5 -52t66.5 -142q3 -93 -59.5 -150.5t-152.5 -57.5q-86 -1 -149.5 52t-66.5 142z" />
    <glyph glyph-name="L_slash" unicode="&#x141;" horiz-adv-x="1824" 
d="M1484 384l-67 -384h-1256l153 880l-220 -59l45 258l220 60l158 909h453l-140 -777l255 68l-48 -261l-247 -68l-114 -625z" />
    <glyph glyph-name="lslash" unicode="&#x142;" horiz-adv-x="748" 
d="M848 1352l-49 -263l-175 -56l-179 -1033h-449l157 884l-191 -56l49 263l184 58l156 899h449l-135 -750z" />
    <glyph glyph-name="Nacute" unicode="&#x143;" horiz-adv-x="1952" 
d="M0 0zM1967 2048l-356 -2048h-432l-486 1261l-19 2l-227 -1263h-452l355 2048h436l482 -1261l19 -2l227 1263h453zM1044 2104l331 432l487 -1l-436 -431h-382z" />
    <glyph glyph-name="nacute" unicode="&#x144;" horiz-adv-x="1656" 
d="M0 0zM583 816l-139 -816h-449l266 1536l414 1l-41 -168l7 1q169 191 424 186q168 -3 266.5 -89.5t135.5 -221.5t20 -285l-163 -960h-448l161 946q12 89 -20 166t-136 81q-102 5 -163 -56t-91.5 -150t-43.5 -171zM755 1680l331 432l487 -1l-436 -431h-382z" />
    <glyph glyph-name="Ncommaaccent" unicode="&#x145;" horiz-adv-x="1952" 
d="M0 0zM1967 2048l-356 -2048h-432l-486 1261l-19 2l-227 -1263h-452l355 2048h436l482 -1261l19 -2l227 1263h453zM1036 -116l-38 -227q-25 -160 -85.5 -303.5t-180.5 -256.5l-220 112q51 107 99 203t69 216l43 256h313z" />
    <glyph glyph-name="ncommaaccent" unicode="&#x146;" horiz-adv-x="1656" 
d="M0 0zM583 816l-139 -816h-449l266 1536l414 1l-41 -168l7 1q169 191 424 186q168 -3 266.5 -89.5t135.5 -221.5t20 -285l-163 -960h-448l161 946q12 89 -20 166t-136 81q-102 5 -163 -56t-91.5 -150t-43.5 -171zM820 -116l-38 -227q-25 -160 -85.5 -303.5t-180.5 -256.5
l-220 112q51 107 99 203t69 216l43 256h313z" />
    <glyph glyph-name="Ncaron" unicode="&#x147;" horiz-adv-x="1952" 
d="M0 0zM1967 2048l-356 -2048h-432l-486 1261l-19 2l-227 -1263h-452l355 2048h436l482 -1261l19 -2l227 1263h453zM1104 2536l165 -183l226 182l380 8l1 -27l-471 -384h-277l-380 386l-1 26z" />
    <glyph glyph-name="ncaron" unicode="&#x148;" horiz-adv-x="1656" 
d="M0 0zM583 816l-139 -816h-449l266 1536l414 1l-41 -168l7 1q169 191 424 186q168 -3 266.5 -89.5t135.5 -221.5t20 -285l-163 -960h-448l161 946q12 89 -20 166t-136 81q-102 5 -163 -56t-91.5 -150t-43.5 -171zM815 2112l165 -183l226 182l380 8l1 -27l-471 -384h-277
l-380 386l-1 26z" />
    <glyph glyph-name="napostrophe" unicode="&#x149;" horiz-adv-x="1656" 
d="M0 0zM583 816l-139 -816h-449l266 1536l414 1l-41 -168l7 1q169 191 424 186q168 -3 266.5 -89.5t135.5 -221.5t20 -285l-163 -960h-448l161 946q12 89 -20 166t-136 81q-102 5 -163 -56t-91.5 -150t-43.5 -171zM440 2108l-38 -227q-25 -160 -85.5 -303.5t-180.5 -256.5
l-220 112q51 107 99 203t69 216l43 256h313z" />
    <glyph glyph-name="Eng" unicode="&#x14a;" horiz-adv-x="1952" 
d="M1967 2048l-358 -2079q-38 -279 -228.5 -431.5t-467.5 -151.5q-54 0 -108 3t-108 10l41 375q29 -2 58.5 -4.5t58.5 -3.5q121 -2 198.5 57t117.5 169l3 8l-481 1261l-19 2l-227 -1263h-452l355 2048h436l482 -1261l19 -2l227 1263h453z" />
    <glyph glyph-name="eng" unicode="&#x14b;" horiz-adv-x="1656" 
d="M583 816l-139 -816h-449l266 1536l414 1l-41 -168l7 1q168 190 424 186q167 -3 265.5 -89.5t135.5 -221.5t21 -285l-163 -980q-36 -258 -197 -420t-431 -162q-115 0 -237 21l76 373q31 -8 63 -14t65 -6q95 -2 145.5 60t65.5 148l163 965q12 89 -20 166.5t-136 82.5
q-102 4 -162.5 -57t-91.5 -150t-44 -171z" />
    <glyph glyph-name="Omacron" unicode="&#x14c;" horiz-adv-x="2040" 
d="M125 0zM1897 1026q-26 -202 -106.5 -391.5t-211 -340t-308.5 -238t-399 -84.5q-218 2 -367.5 92.5t-236 240.5t-115 334t-3.5 375q27 204 108 395t213 342.5t311.5 239.5t401.5 85q219 -3 367 -94.5t233 -243.5t111.5 -337.5t1.5 -374.5zM1440 1027q13 91 16 198.5
t-20.5 205.5t-88.5 162t-189 67q-133 4 -230.5 -53t-163 -154t-104 -212.5t-53.5 -227.5q-13 -93 -14.5 -199.5t23 -202.5t91.5 -158t191 -65q133 -4 228.5 52t160 151t101.5 209.5t52 226.5zM1735 2420l-37 -236h-926l37 236h926z" />
    <glyph glyph-name="omacron" unicode="&#x14d;" horiz-adv-x="1640" 
d="M62 0zM687 -28q-223 3 -364 115.5t-201 292t-38 382.5q23 216 126 397.5t275 290.5t401 106q221 -3 362.5 -113.5t202.5 -287.5t39 -381q-23 -215 -126.5 -399t-275.5 -295t-401 -108zM708 339q120 -4 194 63.5t112 169.5t50 202q7 63 7.5 134t-16.5 135t-62 105.5
t-128 44.5q-120 4 -194 -62.5t-111.5 -167.5t-49.5 -201q-8 -62 -8.5 -134t16.5 -137t62 -107t128 -45zM1410 1996l-37 -236h-926l37 236h926z" />
    <glyph glyph-name="Obreve" unicode="&#x14e;" horiz-adv-x="2040" 
d="M125 0zM1897 1026q-26 -202 -106.5 -391.5t-211 -340t-308.5 -238t-399 -84.5q-218 2 -367.5 92.5t-236 240.5t-115 334t-3.5 375q27 204 108 395t213 342.5t311.5 239.5t401.5 85q219 -3 367 -94.5t233 -243.5t111.5 -337.5t1.5 -374.5zM1440 1027q13 91 16 198.5
t-20.5 205.5t-88.5 162t-189 67q-133 4 -230.5 -53t-163 -154t-104 -212.5t-53.5 -227.5q-13 -93 -14.5 -199.5t23 -202.5t91.5 -158t191 -65q133 -4 228.5 52t160 151t101.5 209.5t52 226.5zM1469 2541l297 2q-1 -141 -74.5 -237t-190 -144.5t-247.5 -45.5
q-194 3 -320 115.5t-129 310.5l295 -1q-2 -79 34.5 -127t120.5 -51q86 -2 144.5 45.5t69.5 132.5z" />
    <glyph glyph-name="obreve" unicode="&#x14f;" horiz-adv-x="1640" 
d="M62 0zM687 -28q-223 3 -364 115.5t-201 292t-38 382.5q23 216 126 397.5t275 290.5t401 106q221 -3 362.5 -113.5t202.5 -287.5t39 -381q-23 -215 -126.5 -399t-275.5 -295t-401 -108zM708 339q120 -4 194 63.5t112 169.5t50 202q7 63 7.5 134t-16.5 135t-62 105.5
t-128 44.5q-120 4 -194 -62.5t-111.5 -167.5t-49.5 -201q-8 -62 -8.5 -134t16.5 -137t62 -107t128 -45zM1144 2117l297 2q-1 -141 -74.5 -237t-190 -144.5t-247.5 -45.5q-194 3 -320 115.5t-129 310.5l295 -1q-2 -79 34.5 -127t120.5 -51q86 -2 144.5 45.5t69.5 132.5z" />
    <glyph glyph-name="Ohungarumlaut" unicode="&#x150;" horiz-adv-x="2040" 
d="M125 0zM1897 1026q-26 -202 -106.5 -391.5t-211 -340t-308.5 -238t-399 -84.5q-218 2 -367.5 92.5t-236 240.5t-115 334t-3.5 375q27 204 108 395t213 342.5t311.5 239.5t401.5 85q219 -3 367 -94.5t233 -243.5t111.5 -337.5t1.5 -374.5zM1440 1027q13 91 16 198.5
t-20.5 205.5t-88.5 162t-189 67q-133 4 -230.5 -53t-163 -154t-104 -212.5t-53.5 -227.5q-13 -93 -14.5 -199.5t23 -202.5t91.5 -158t191 -65q133 -4 228.5 52t160 151t101.5 209.5t52 226.5zM788 2124l332 412l392 -1l-386 -411h-338zM1291 2124l371 412l394 -1l-424 -411
h-341z" />
    <glyph glyph-name="ohungarumlaut" unicode="&#x151;" horiz-adv-x="1640" 
d="M62 0zM687 -28q-223 3 -364 115.5t-201 292t-38 382.5q23 216 126 397.5t275 290.5t401 106q221 -3 362.5 -113.5t202.5 -287.5t39 -381q-23 -215 -126.5 -399t-275.5 -295t-401 -108zM708 339q120 -4 194 63.5t112 169.5t50 202q7 63 7.5 134t-16.5 135t-62 105.5
t-128 44.5q-120 4 -194 -62.5t-111.5 -167.5t-49.5 -201q-8 -62 -8.5 -134t16.5 -137t62 -107t128 -45zM463 1700l332 412l392 -1l-386 -411h-338zM966 1700l371 412l394 -1l-424 -411h-341z" />
    <glyph glyph-name="OE" unicode="&#x152;" horiz-adv-x="2848" 
d="M1164 2048h1583l-67 -384h-876l-84 -447l747 -1l-67 -384h-740l-84 -447l882 -1l-67 -384h-1532q-231 4 -403.5 110.5t-257 289.5t-52.5 416l69 420q36 243 168 426t333.5 284.5t447.5 101.5zM872 361l252 -1l235 1327l-208 2q-211 2 -340 -124t-162 -329l-70 -421
q-16 -115 3.5 -217.5t88.5 -168t201 -68.5z" />
    <glyph glyph-name="oe" unicode="&#x153;" horiz-adv-x="2648" 
d="M674 -28q-222 3 -361.5 116t-197 292t-33.5 381q26 217 131.5 399t279 290.5t403.5 105.5q128 -1 255 -46.5t209 -150.5q116 98 250.5 148.5t287.5 48.5q208 -3 346 -101t198 -261t34 -362l-31 -192l-967 1q-12 -121 40 -210t186 -92q106 -3 184 50t117 150l386 -106
q-33 -157 -145 -260t-262 -153t-296 -49q-133 1 -270.5 44t-225.5 149q-111 -94 -241 -144t-277 -48zM697 339q121 -5 196.5 62.5t115.5 170t53 203.5q8 61 10 132t-14 135t-59.5 106t-126.5 45q-121 4 -196.5 -62t-115 -167.5t-52.5 -202.5q-8 -61 -10 -133t13.5 -136.5
t59 -107t126.5 -45.5zM1872 1193q-129 4 -210.5 -76.5t-136.5 -184.5l544 2q25 111 -28 183t-169 76z" />
    <glyph glyph-name="Racute" unicode="&#x154;" horiz-adv-x="1796" 
d="M0 0zM1073 0l-227 752h-268l-131 -752h-452l355 2048h740q196 -3 345.5 -75.5t227 -212t56.5 -344.5q-20 -202 -127.5 -351t-292.5 -229l259 -836h-485zM736 1664l-95 -530l293 -5q130 0 222.5 72.5t112.5 204.5q17 110 -32 181.5t-164 75.5zM896 2104l331 432l487 -1
l-436 -431h-382z" />
    <glyph glyph-name="racute" unicode="&#x155;" horiz-adv-x="1160" 
d="M0 0zM1209 1510l-181 -389q-29 16 -62 23t-65 8q-122 2 -204 -82.5t-103 -197.5l-150 -872h-449l266 1536h450l-48 -199l6 1q46 108 125.5 165t199.5 55q111 -2 215 -48zM543 1680l331 432l487 -1l-436 -431h-382z" />
    <glyph glyph-name="Rcommaaccent" unicode="&#x156;" horiz-adv-x="1796" 
d="M0 0zM1073 0l-227 752h-268l-131 -752h-452l355 2048h740q196 -3 345.5 -75.5t227 -212t56.5 -344.5q-20 -202 -127.5 -351t-292.5 -229l259 -836h-485zM736 1664l-95 -530l293 -5q130 0 222.5 72.5t112.5 204.5q17 110 -32 181.5t-164 75.5zM915 -100l-38 -227
q-25 -160 -85.5 -303.5t-180.5 -256.5l-220 112q51 107 99 203t69 216l43 256h313z" />
    <glyph glyph-name="rcommaaccent" unicode="&#x157;" horiz-adv-x="1160" 
d="M0 0zM1209 1510l-181 -389q-29 16 -62 23t-65 8q-122 2 -204 -82.5t-103 -197.5l-150 -872h-449l266 1536h450l-48 -199l6 1q46 108 125.5 165t199.5 55q111 -2 215 -48zM364 -116l-38 -227q-25 -160 -85.5 -303.5t-180.5 -256.5l-220 112q51 107 99 203t69 216l43 256
h313z" />
    <glyph glyph-name="Rcaron" unicode="&#x158;" horiz-adv-x="1796" 
d="M0 0zM1073 0l-227 752h-268l-131 -752h-452l355 2048h740q196 -3 345.5 -75.5t227 -212t56.5 -344.5q-20 -202 -127.5 -351t-292.5 -229l259 -836h-485zM736 1664l-95 -530l293 -5q130 0 222.5 72.5t112.5 204.5q17 110 -32 181.5t-164 75.5zM956 2536l165 -183l226 182
l380 8l1 -27l-471 -384h-277l-380 386l-1 26z" />
    <glyph glyph-name="rcaron" unicode="&#x159;" horiz-adv-x="1160" 
d="M0 0zM1209 1510l-181 -389q-29 16 -62 23t-65 8q-122 2 -204 -82.5t-103 -197.5l-150 -872h-449l266 1536h450l-48 -199l6 1q46 108 125.5 165t199.5 55q111 -2 215 -48zM603 2112l165 -183l226 182l380 8l1 -27l-471 -384h-277l-380 386l-1 26z" />
    <glyph glyph-name="Sacute" unicode="&#x15a;" horiz-adv-x="1776" 
d="M39 0zM1289 1438q-2 244 -245 249q-67 2 -141.5 -16.5t-132.5 -62.5t-74 -120q-12 -58 18.5 -98.5t83 -68.5t108.5 -48t93 -37l50 -25q141 -62 262 -141.5t190 -196t54 -290.5q-18 -210 -139 -346.5t-300 -201.5t-372 -63q-214 2 -373 85t-245.5 237.5t-81.5 370.5h435
q-1 -142 70 -224t218 -85q74 -1 148.5 21.5t130.5 72t73 129.5q15 68 -16 118t-86.5 85.5t-118 60t-111.5 41.5l-37 13q-133 46 -250.5 126.5t-186 197t-57.5 271.5q12 151 88.5 262t195 183t256.5 106.5t272 32.5q294 -4 472.5 -172.5t175.5 -465.5h-427zM908 2104l331 432
l487 -1l-436 -431h-382z" />
    <glyph glyph-name="sacute" unicode="&#x15b;" horiz-adv-x="1488" 
d="M15 0zM166 1097q6 119 68.5 206.5t160 144t209 83.5t214.5 25q222 -3 379 -128t188 -347l-399 -59q-14 63 -48 112t-104 59q-59 8 -127.5 -17t-84.5 -91q-11 -44 24 -66.5t82.5 -34t74.5 -21.5l81 -28q107 -40 195.5 -110t139 -167t43.5 -219q-10 -162 -107.5 -266
t-240 -153.5t-287.5 -48.5q-239 4 -406.5 134t-205.5 370l410 63q22 -75 65 -126.5t127 -60.5q61 -6 130.5 16.5t86.5 91.5q10 38 -18.5 66t-74.5 48t-90.5 33.5t-67.5 22.5l-87 32q-140 54 -239 165t-91 271zM667 1680l331 432l487 -1l-436 -431h-382z" />
    <glyph glyph-name="Scircumflex" unicode="&#x15c;" horiz-adv-x="1776" 
d="M39 0zM1289 1438q-2 244 -245 249q-67 2 -141.5 -16.5t-132.5 -62.5t-74 -120q-12 -58 18.5 -98.5t83 -68.5t108.5 -48t93 -37l50 -25q141 -62 262 -141.5t190 -196t54 -290.5q-18 -210 -139 -346.5t-300 -201.5t-372 -63q-214 2 -373 85t-245.5 237.5t-81.5 370.5h435
q-1 -142 70 -224t218 -85q74 -1 148.5 21.5t130.5 72t73 129.5q15 68 -16 118t-86.5 85.5t-118 60t-111.5 41.5l-37 13q-133 46 -250.5 126.5t-186 197t-57.5 271.5q12 151 88.5 262t195 183t256.5 106.5t272 32.5q294 -4 472.5 -172.5t175.5 -465.5h-427zM908 2201l231 184
l163 -185l374 -8l12 28l-339 384h-274l-512 -384l-11 -29z" />
    <glyph glyph-name="scircumflex" unicode="&#x15d;" horiz-adv-x="1488" 
d="M15 0zM166 1097q6 119 68.5 206.5t160 144t209 83.5t214.5 25q222 -3 379 -128t188 -347l-399 -59q-14 63 -48 112t-104 59q-59 8 -127.5 -17t-84.5 -91q-11 -44 24 -66.5t82.5 -34t74.5 -21.5l81 -28q107 -40 195.5 -110t139 -167t43.5 -219q-10 -162 -107.5 -266
t-240 -153.5t-287.5 -48.5q-239 4 -406.5 134t-205.5 370l410 63q22 -75 65 -126.5t127 -60.5q61 -6 130.5 16.5t86.5 91.5q10 38 -18.5 66t-74.5 48t-90.5 33.5t-67.5 22.5l-87 32q-140 54 -239 165t-91 271zM667 1777l231 184l163 -185l374 -8l12 28l-339 384h-274
l-512 -384l-11 -29z" />
    <glyph glyph-name="Scedilla" unicode="&#x15e;" horiz-adv-x="1776" 
d="M39 0zM1289 1438q-2 244 -245 249q-67 2 -141.5 -16.5t-132.5 -62.5t-74 -120q-12 -58 18.5 -98.5t83 -68.5t108.5 -48t93 -37l50 -25q141 -62 262 -141.5t190 -196t54 -290.5q-18 -210 -139 -346.5t-300 -201.5t-372 -63q-214 2 -373 85t-245.5 237.5t-81.5 370.5h435
q-1 -142 70 -224t218 -85q74 -1 148.5 21.5t130.5 72t73 129.5q15 68 -16 118t-86.5 85.5t-118 60t-111.5 41.5l-37 13q-133 46 -250.5 126.5t-186 197t-57.5 271.5q12 151 88.5 262t195 183t256.5 106.5t272 32.5q294 -4 472.5 -172.5t175.5 -465.5h-427zM584 16l331 2
l-31 -96q83 -15 125 -78.5t42 -144.5q0 -106 -51 -173.5t-131.5 -105t-173 -53.5t-176.5 -18l11 260q55 2 98.5 27.5t56.5 83.5q10 46 -18 64t-69 21.5t-72 5.5z" />
    <glyph glyph-name="scedilla" unicode="&#x15f;" horiz-adv-x="1488" 
d="M15 0zM166 1097q6 119 68.5 206.5t160 144t209 83.5t214.5 25q222 -3 379 -128t188 -347l-399 -59q-14 63 -48 112t-104 59q-59 8 -127.5 -17t-84.5 -91q-11 -44 24 -66.5t82.5 -34t74.5 -21.5l81 -28q107 -40 195.5 -110t139 -167t43.5 -219q-10 -162 -107.5 -266
t-240 -153.5t-287.5 -48.5q-239 4 -406.5 134t-205.5 370l410 63q22 -75 65 -126.5t127 -60.5q61 -6 130.5 16.5t86.5 91.5q10 38 -18.5 66t-74.5 48t-90.5 33.5t-67.5 22.5l-87 32q-140 54 -239 165t-91 271zM386 16l331 2l-31 -96q83 -15 125 -78.5t42 -144.5
q0 -106 -51 -173.5t-131.5 -105t-173 -53.5t-176.5 -18l11 260q55 2 98.5 27.5t56.5 83.5q10 46 -18 64t-69 21.5t-72 5.5z" />
    <glyph glyph-name="Scaron" unicode="&#x160;" horiz-adv-x="1776" 
d="M39 0zM1289 1438q-2 244 -245 249q-67 2 -141.5 -16.5t-132.5 -62.5t-74 -120q-12 -58 18.5 -98.5t83 -68.5t108.5 -48t93 -37l50 -25q141 -62 262 -141.5t190 -196t54 -290.5q-18 -210 -139 -346.5t-300 -201.5t-372 -63q-214 2 -373 85t-245.5 237.5t-81.5 370.5h435
q-1 -142 70 -224t218 -85q74 -1 148.5 21.5t130.5 72t73 129.5q15 68 -16 118t-86.5 85.5t-118 60t-111.5 41.5l-37 13q-133 46 -250.5 126.5t-186 197t-57.5 271.5q12 151 88.5 262t195 183t256.5 106.5t272 32.5q294 -4 472.5 -172.5t175.5 -465.5h-427zM968 2536
l165 -183l226 182l380 8l1 -27l-471 -384h-277l-380 386l-1 26z" />
    <glyph glyph-name="scaron" unicode="&#x161;" horiz-adv-x="1488" 
d="M15 0zM166 1097q6 119 68.5 206.5t160 144t209 83.5t214.5 25q222 -3 379 -128t188 -347l-399 -59q-14 63 -48 112t-104 59q-59 8 -127.5 -17t-84.5 -91q-11 -44 24 -66.5t82.5 -34t74.5 -21.5l81 -28q107 -40 195.5 -110t139 -167t43.5 -219q-10 -162 -107.5 -266
t-240 -153.5t-287.5 -48.5q-239 4 -406.5 134t-205.5 370l410 63q22 -75 65 -126.5t127 -60.5q61 -6 130.5 16.5t86.5 91.5q10 38 -18.5 66t-74.5 48t-90.5 33.5t-67.5 22.5l-87 32q-140 54 -239 165t-91 271zM727 2112l165 -183l226 182l380 8l1 -27l-471 -384h-277
l-380 386l-1 26z" />
    <glyph glyph-name="Tcommaaccent" unicode="&#x162;" horiz-adv-x="1820" 
d="M221 0zM1901 2048l-67 -384h-582l-288 -1664h-450l294 1663l-587 1l67 384h1613zM575 32l331 2l-31 -96q83 -15 125 -78.5t42 -144.5q0 -106 -51 -173.5t-131.5 -105t-173 -53.5t-176.5 -18l11 260q55 2 98.5 27.5t56.5 83.5q10 46 -18 64t-69 21.5t-72 5.5z" />
    <glyph glyph-name="tcommaaccent" unicode="&#x163;" horiz-adv-x="1048" 
d="M132 0zM1037 1536l-57 -320h-233l-126 -734q-8 -58 8 -91.5t79 -34.5q24 0 47.5 3.5t47.5 7.5l39 -346q-57 -35 -145 -39t-152 -2q-123 3 -212.5 65t-134 162.5t-32.5 220.5l133 788h-167l55 320h167l57 328h451l-63 -327zM292 16l331 2l-31 -96q83 -15 125 -78.5
t42 -144.5q0 -106 -51 -173.5t-131.5 -105t-173 -53.5t-176.5 -18l11 260q55 2 98.5 27.5t56.5 83.5q10 46 -18 64t-69 21.5t-72 5.5z" />
    <glyph glyph-name="Tcaron" unicode="&#x164;" horiz-adv-x="1820" 
d="M221 0zM1901 2048l-67 -384h-582l-288 -1664h-450l294 1663l-587 1l67 384h1613zM956 2536l165 -183l226 182l380 8l1 -27l-471 -384h-277l-380 386l-1 26z" />
    <glyph glyph-name="tcaron" unicode="&#x165;" horiz-adv-x="1088" 
d="M132 0zM1037 1536l-57 -320h-233l-126 -734q-8 -58 8 -91.5t79 -34.5q24 0 47.5 3.5t47.5 7.5l39 -346q-57 -35 -145 -39t-152 -2q-123 3 -212.5 65t-134 162.5t-32.5 220.5l133 788h-167l55 320h167l57 328h451l-63 -327zM1493 2296l-38 -227q-25 -160 -85.5 -303.5
t-180.5 -256.5l-220 112q51 107 99 203t69 216l43 256h313z" />
    <glyph glyph-name="Tbar" unicode="&#x166;" horiz-adv-x="1820" 
d="M1406 1260l-46 -264h-224l-172 -996h-450l177 996h-297l47 264h296l71 403l-587 1l67 384h1613l-67 -384h-582l-70 -404h224z" />
    <glyph glyph-name="tbar" unicode="&#x167;" horiz-adv-x="1048" 
d="M972 964l-47 -264h-265l-38 -218q-8 -58 8 -91.5t79 -34.5q24 0 47.5 3.5t47.5 7.5l39 -346q-57 -35 -145 -39t-152 -2q-123 3 -212.5 65t-134 162.5t-32.5 220.5l46 272h-253l47 264h250l43 252h-167l55 320h167l57 328h451l-63 -327l238 -1l-57 -320h-233l-43 -252h267
z" />
    <glyph glyph-name="Utilde" unicode="&#x168;" horiz-adv-x="1952" 
d="M89 0zM1514 2048h453l-233 -1351q-36 -235 -162.5 -398t-319 -247.5t-424.5 -82.5q-216 2 -388 88.5t-261.5 248t-60.5 390.5l232 1352h453l-230 -1337q-21 -146 59 -232.5t225 -90.5q154 -5 276 81.5t150 242.5zM1508 2544l241 -14q-3 -93 -42 -181t-111.5 -145
t-175.5 -55q-68 1 -125 31.5t-113.5 60.5t-122.5 30q-58 -1 -87.5 -38.5t-40.5 -88.5l-247 10q3 92 43 180.5t112.5 146t175.5 55.5q65 -1 122.5 -31t115 -59t122.5 -29q58 1 89.5 38t43.5 89z" />
    <glyph glyph-name="utilde" unicode="&#x169;" horiz-adv-x="1656" 
d="M1283 2125l243 -15q-3 -92 -42.5 -180.5t-112 -145t-175.5 -55.5q-68 1 -125 31.5t-113 60.5t-122 30q-58 0 -88 -38t-41 -90l-249 11q3 92 43 180.5t113 145.5t175 55q66 -1 123.5 -30.5l115 -59t122.5 -28.5q59 0 90 38t43 90zM1002 720l140 816h449l-267 -1536h-414
l41 167l-7 -1q-170 -192 -423 -187q-168 3 -267 89.5t-136 222t-20 285.5l163 960h449l-161 -945q-12 -90 20.5 -167.5t136.5 -82.5q102 -4 162.5 57.5t91 151t42.5 170.5z" />
    <glyph glyph-name="Umacron" unicode="&#x16a;" horiz-adv-x="1952" 
d="M89 0zM1514 2048h453l-233 -1351q-36 -235 -162.5 -398t-319 -247.5t-424.5 -82.5q-216 2 -388 88.5t-261.5 248t-60.5 390.5l232 1352h453l-230 -1337q-21 -146 59 -232.5t225 -90.5q154 -5 276 81.5t150 242.5zM1687 2420l-37 -236h-926l37 236h926z" />
    <glyph glyph-name="umacron" unicode="&#x16b;" horiz-adv-x="1656" 
d="M82 0zM1003 720l140 816h449l-267 -1536h-414l41 167l-7 -1q-81 -92 -190 -142t-233 -47q-168 4 -267 91t-136 223t-20 285l163 960h449l-161 -945q-12 -89 20.5 -166t135.5 -82t163.5 56t91 150t42.5 171zM1442 1996l-37 -236h-926l37 236h926z" />
    <glyph glyph-name="Ubreve" unicode="&#x16c;" horiz-adv-x="1952" 
d="M89 0zM1514 2048h453l-233 -1351q-36 -235 -162.5 -398t-319 -247.5t-424.5 -82.5q-216 2 -388 88.5t-261.5 248t-60.5 390.5l232 1352h453l-230 -1337q-21 -146 59 -232.5t225 -90.5q154 -5 276 81.5t150 242.5zM1421 2541l297 2q-1 -141 -74.5 -237t-190 -144.5
t-247.5 -45.5q-194 3 -320 115.5t-129 310.5l295 -1q-2 -79 34.5 -127t120.5 -51q86 -2 144.5 45.5t69.5 132.5z" />
    <glyph glyph-name="ubreve" unicode="&#x16d;" horiz-adv-x="1656" 
d="M82 0zM1003 720l140 816h449l-267 -1536h-414l41 167l-7 -1q-81 -92 -190 -142t-233 -47q-168 4 -267 91t-136 223t-20 285l163 960h449l-161 -945q-12 -89 20.5 -166t135.5 -82t163.5 56t91 150t42.5 171zM1176 2117l297 2q-1 -141 -74.5 -237t-190 -144.5t-247.5 -45.5
q-194 3 -320 115.5t-129 310.5l295 -1q-2 -79 34.5 -127t120.5 -51q86 -2 144.5 45.5t69.5 132.5z" />
    <glyph glyph-name="Uring" unicode="&#x16e;" horiz-adv-x="1952" 
d="M89 0zM1514 2048h453l-233 -1351q-36 -235 -162.5 -398t-319 -247.5t-424.5 -82.5q-216 2 -388 88.5t-261.5 248t-60.5 390.5l232 1352h453l-230 -1337q-21 -146 59 -232.5t225 -90.5q154 -5 276 81.5t150 242.5zM933 2368q0 85 44 150.5t115.5 102.5t153.5 36
q115 -2 200 -78.5t85 -194.5q1 -85 -43.5 -148.5t-116 -98.5t-152.5 -34q-113 2 -199 74t-87 191zM1094 2368q-10 -54 17.5 -95t84.5 -42q66 -1 115 44.5t59 108.5q10 54 -17.5 95t-84.5 42q-66 1 -115 -44.5t-59 -108.5z" />
    <glyph glyph-name="uring" unicode="&#x16f;" horiz-adv-x="1656" 
d="M82 0zM1003 720l140 816h449l-267 -1536h-414l41 167l-7 -1q-81 -92 -190 -142t-233 -47q-168 4 -267 91t-136 223t-20 285l163 960h449l-161 -945q-12 -89 20.5 -166t135.5 -82t163.5 56t91 150t42.5 171zM688 1944q0 85 44 150.5t115.5 102.5t153.5 36
q115 -2 200 -78.5t85 -194.5q1 -85 -43.5 -148.5t-116 -98.5t-152.5 -34q-113 2 -199 74t-87 191zM849 1944q-10 -54 17.5 -95t84.5 -42q66 -1 115 44.5t59 108.5q10 54 -17.5 95t-84.5 42q-66 1 -115 -44.5t-59 -108.5z" />
    <glyph glyph-name="Uhungarumlaut" unicode="&#x170;" horiz-adv-x="1952" 
d="M89 0zM1514 2048h453l-233 -1351q-36 -235 -162.5 -398t-319 -247.5t-424.5 -82.5q-216 2 -388 88.5t-261.5 248t-60.5 390.5l232 1352h453l-230 -1337q-21 -146 59 -232.5t225 -90.5q154 -5 276 81.5t150 242.5zM740 2124l332 412l392 -1l-386 -411h-338zM1243 2124
l371 412l394 -1l-424 -411h-341z" />
    <glyph glyph-name="uhungarumlaut" unicode="&#x171;" horiz-adv-x="1656" 
d="M82 0zM1003 720l140 816h449l-267 -1536h-414l41 167l-7 -1q-81 -92 -190 -142t-233 -47q-168 4 -267 91t-136 223t-20 285l163 960h449l-161 -945q-12 -89 20.5 -166t135.5 -82t163.5 56t91 150t42.5 171zM495 1700l332 412l392 -1l-386 -411h-338zM998 1700l371 412
l394 -1l-424 -411h-341z" />
    <glyph glyph-name="Uogonek" unicode="&#x172;" horiz-adv-x="1952" 
d="M1515 2048h453l-233 -1351q-42 -275 -208.5 -452t-408.5 -241q-31 -26 -53 -57.5t-28 -70.5q-12 -76 58 -78q24 0 48 8t47 17l38 -235q-46 -30 -102 -43t-111 -12q-127 1 -213.5 76.5t-84.5 207.5q1 84 42 155q-199 16 -354 105.5t-234.5 245.5t-51.5 373l232 1352h453
l-230 -1337q-21 -146 59 -232.5t225 -90.5q154 -5 276 81.5t150 242.5z" />
    <glyph glyph-name="uogonek" unicode="&#x173;" horiz-adv-x="1656" 
d="M1003 720l140 816h449l-267 -1536h-89l15 -6q-66 -36 -142 -87t-90 -135q-12 -76 58 -78q24 0 48 8t47 17l38 -235q-46 -30 -102 -43t-111 -12q-127 1 -213.5 76.5t-84.5 207.5q2 114 66.5 193t155.5 133l31 128l-7 -1q-81 -92 -190 -142t-233 -47q-168 4 -267 91
t-136 223t-20 285l163 960h449l-161 -945q-12 -89 20.5 -166t135.5 -82t163.5 56t91 150t42.5 171z" />
    <glyph glyph-name="Wcircumflex" unicode="&#x174;" horiz-adv-x="2896" 
d="M295 0zM690 2050l122 -1380l13 -1l565 1379h398l125 -1382l14 -1l553 1383h422l-825 -2048h-460l-124 1286l-14 1l-535 -1287h-460l-189 2047zM1421 2201l231 184l163 -185l374 -8l12 28l-339 384h-274l-512 -384l-11 -29z" />
    <glyph glyph-name="wcircumflex" unicode="&#x175;" horiz-adv-x="2204" 
d="M214 0zM2176 1536l-631 -1536h-363l-87 855h-22l-389 -855h-364l-106 1536h427l-19 -924h17l393 924h305l66 -915l18 -1l315 916h440zM1023 1777l231 184l163 -185l374 -8l12 28l-339 384h-274l-512 -384l-11 -29z" />
    <glyph glyph-name="Ycircumflex" unicode="&#x176;" horiz-adv-x="2152" 
d="M272 0zM744 2050l333 -871l21 -1l636 870h517l-993 -1290l-132 -758h-453l143 801l-544 1246zM1072 2201l231 184l163 -185l374 -8l12 28l-339 384h-274l-512 -384l-11 -29z" />
    <glyph glyph-name="ycircumflex" unicode="&#x177;" horiz-adv-x="1668" 
d="M0 0zM427 -27l28 49l-280 1513l453 1l126 -914l16 -1l449 915h477l-927 -1756q-86 -170 -232 -277t-343 -106q-62 1 -121.5 14.5t-117.5 33.5l136 350q133 -42 203 13t133 165zM719 1777l231 184l163 -185l374 -8l12 28l-339 384h-274l-512 -384l-11 -29z" />
    <glyph glyph-name="Ydieresis" unicode="&#x178;" horiz-adv-x="2152" 
d="M272 0zM744 2050l333 -871l21 -1l636 870h517l-993 -1290l-132 -758h-453l143 801l-544 1246zM1042 2139q-76 -1 -133.5 48t-61.5 127q-4 82 51.5 136t135.5 55q77 1 132.5 -50.5t58.5 -128.5q3 -79 -51 -132.5t-132 -54.5zM1597 2139q-76 -1 -134 48t-61 127
q-4 82 51 136t136 55q76 1 132 -50.5t59 -128.5q3 -79 -51 -132.5t-132 -54.5z" />
    <glyph glyph-name="Zacute" unicode="&#x179;" horiz-adv-x="1824" 
d="M0 0zM1562 384l-67 -384h-1508l50 292l1186 1370l-948 2l67 384h1507l-48 -292l-1187 -1370zM912 2104l331 432l487 -1l-436 -431h-382z" />
    <glyph glyph-name="zacute" unicode="&#x17a;" horiz-adv-x="1544" 
d="M0 0zM1278 360l-62 -360h-1221l48 280l808 894l-626 2l63 360h1178l-48 -280l-808 -894zM687 1680l331 432l487 -1l-436 -431h-382z" />
    <glyph glyph-name="Zdotaccent" unicode="&#x17b;" horiz-adv-x="1824" 
d="M0 0zM1562 384l-67 -384h-1508l50 292l1186 1370l-948 2l67 384h1507l-48 -292l-1187 -1370zM954 2345q-3 93 59.5 150.5t152.5 57.5q86 1 149.5 -52t66.5 -142q3 -93 -59.5 -150.5t-152.5 -57.5q-86 -1 -149.5 52t-66.5 142z" />
    <glyph glyph-name="zdotaccent" unicode="&#x17c;" horiz-adv-x="1544" 
d="M0 0zM1278 360l-62 -360h-1221l48 280l808 894l-626 2l63 360h1178l-48 -280l-808 -894zM729 1921q-3 93 59.5 150.5t152.5 57.5q86 1 149.5 -52t66.5 -142q3 -93 -59.5 -150.5t-152.5 -57.5q-86 -1 -149.5 52t-66.5 142z" />
    <glyph glyph-name="Zcaron" unicode="&#x17d;" horiz-adv-x="1824" 
d="M0 0zM1562 384l-67 -384h-1508l50 292l1186 1370l-948 2l67 384h1507l-48 -292l-1187 -1370zM972 2536l165 -183l226 182l380 8l1 -27l-471 -384h-277l-380 386l-1 26z" />
    <glyph glyph-name="zcaron" unicode="&#x17e;" horiz-adv-x="1544" 
d="M0 0zM1278 360l-62 -360h-1221l48 280l808 894l-626 2l63 360h1178l-48 -280l-808 -894zM747 2112l165 -183l226 182l380 8l1 -27l-471 -384h-277l-380 386l-1 26z" />
    <glyph glyph-name="longs" unicode="&#x17f;" horiz-adv-x="800" 
d="M288 0h-433l276 1606q36 258 201.5 398.5t427.5 138.5q58 -1 115.5 -10t114.5 -20l-67 -342q-64 16 -127 16q-89 1 -150.5 -44.5t-79.5 -134.5z" />
    <glyph glyph-name="bbar" unicode="&#x180;" horiz-adv-x="1824" 
d="M522 2048l452 -1l-30 -122l262 -1l-47 -264h-255l-63 -291l8 1q58 97 151 143t204 44q156 -3 254 -77t149.5 -191.5t64.5 -253t-1 -261.5q-15 -137 -64 -279t-133 -261t-205 -190.5t-282 -67.5q-96 3 -188.5 43.5t-127.5 139.5h-22l-37 -159h-446l292 1659l-265 1l47 264
h259zM1249 775q8 62 8.5 133t-17 135t-62.5 105.5t-127 44.5q-119 4 -191.5 -63.5t-110 -169t-51.5 -199.5q-8 -59 -11 -130t10.5 -136.5t55.5 -109t124 -46.5q120 -5 197.5 62.5t119 170t55.5 203.5z" />
    <glyph glyph-name="Bhook" unicode="&#x181;" horiz-adv-x="2312" 
d="M1349 0h-841l297 1672l-32 1q-115 -3 -176 -79.5t-79 -181.5l-22 -128h-402l34 212q37 268 220 410.5t448 142.5l788 -2q172 -3 324.5 -59.5t243 -177t75.5 -315.5q-14 -188 -125 -296t-294 -133l-13 -33q115 -8 186 -83.5t101 -181.5t22 -204q-15 -199 -128 -323.5
t-280.5 -183t-346.5 -57.5zM1250 1664l-86 -467l236 -2q85 -1 163.5 19t134 72t70.5 146q20 116 -40.5 171.5t-172.5 59.5zM1671 628q17 107 -31 174.5t-159 72.5l-368 1l-90 -491l309 -2q124 0 220.5 56.5t118.5 188.5z" />
    <glyph glyph-name="Btopbar" unicode="&#x182;" horiz-adv-x="1788" 
d="M1652 2048l-67 -384h-848l-65 -350l240 -3q192 -3 354 -76t253.5 -215t71.5 -351q-21 -220 -148 -369.5t-315 -225t-393 -74.5h-740l355 2048h1302zM511 373l240 -3q141 1 253.5 81.5t137.5 225.5q21 126 -51.5 194t-192.5 72l-287 1z" />
    <glyph glyph-name="btopbar" unicode="&#x183;" horiz-adv-x="1824" 
d="M350 2048h1147l-66 -380h-697l-65 -299l8 1q58 97 151 143t205 44q155 -3 253.5 -77t149.5 -191.5t64 -253t-1 -261.5q-15 -137 -64 -279t-133 -261t-205 -190.5t-282 -67.5q-96 3 -188.5 43.5t-127.5 139.5h-22l-37 -159h-445zM1077 775q8 62 8.5 133t-17 135t-62 105.5
t-127.5 44.5q-119 4 -191.5 -63.5t-110 -169t-50.5 -199.5q-8 -59 -11.5 -130.5t10.5 -136.5t55.5 -108.5t123.5 -47.5q120 -5 197.5 63t119.5 170.5t55 203.5z" />
    <glyph glyph-name="Tonesix" unicode="&#x184;" horiz-adv-x="2080" 
d="M1821 670q-21 -220 -147.5 -369.5t-315 -225.5t-393.5 -75h-741l244 1375l-197 198l40 220l244 183l11 74l467 -2l-128 -735l237 -2q191 -3 353 -76t253.5 -214.5t72.5 -350.5zM740 374l241 -4q141 0 254 81t137 226q21 125 -51.5 193.5t-192.5 72.5l-287 1z" />
    <glyph glyph-name="tonesix" unicode="&#x185;" horiz-adv-x="1824" 
d="M551 2112l74 3l-13 -71l386 4l-130 -679l9 1q57 97 150 143t205 44q155 -3 253 -77t149.5 -191.5t64.5 -253t-1 -260.5q-15 -138 -64 -280t-133 -261t-205 -190.5t-282 -67.5q-96 3 -188.5 43.5t-127.5 139.5h-22l-37 -159h-446l260 1466l-213 215l39 219zM1276 775
q8 62 8.5 133t-17 135t-62 105.5t-127.5 44.5q-119 4 -191.5 -63.5t-110 -169t-50.5 -199.5q-8 -59 -11.5 -130t10.5 -136.5t55.5 -109t123.5 -46.5q120 -5 197.5 62.5t119.5 170t55 203.5z" />
    <glyph glyph-name="Oopen" unicode="&#x186;" horiz-adv-x="1984" 
d="M203 1398l405 -58q66 138 170 231.5t268 89.5q127 -3 201 -64t107.5 -157t39 -205t-4.5 -208q-11 -110 -42 -223.5t-89 -209.5t-149.5 -153t-222.5 -53q-139 4 -234 86.5t-110 222.5l-461 -64q0 -195 91 -343t245 -232t343 -86q223 -3 406.5 83.5t323 236t228.5 339.5
t122 394q30 187 11.5 372t-95.5 337.5t-220.5 246t-363.5 96.5q-228 3 -410 -87.5t-321 -245.5t-238 -346z" />
    <glyph glyph-name="Chook" unicode="&#x187;" horiz-adv-x="2232" 
d="M1910 1340l-422 -2q-28 135 -105 226t-225 96q-133 5 -230.5 -52.5t-163.5 -154.5t-104 -212.5t-54 -228.5q-12 -93 -14 -199.5t23 -202.5t91.5 -158t191.5 -65q154 -5 270 80.5t170 226.5l438 -61q-55 -200 -191.5 -349.5t-322.5 -231.5t-389 -80q-219 2 -369 92
t-236.5 239.5t-115 334t-3.5 376.5q27 204 108.5 395t213.5 342.5t311.5 239.5t402.5 85q128 -1 254 -39.5t225 -122.5q225 226 549 227q55 0 109.5 -2.5t109.5 -9.5l-40 -375q-29 2 -59 5t-59 3q-126 4 -220.5 -68.5t-117.5 -197.5z" />
    <glyph glyph-name="chook" unicode="&#x188;" horiz-adv-x="1756" 
d="M1492 1027l-409 -78q-17 95 -59 167t-150 76q-121 5 -196.5 -61t-115.5 -167.5t-53 -202.5q-8 -60 -10 -132t13.5 -137t58.5 -108t126 -46q103 -3 173 57t105 151l409 -73q-37 -160 -145.5 -273t-257 -172t-306.5 -56q-223 3 -362.5 115.5t-197 291.5t-33.5 382
q26 217 131.5 399t279 291t403.5 106q84 -1 165.5 -18.5t155.5 -56.5q181 205 450 203q48 0 94.5 -7t93.5 -17l-28 -299q-25 5 -50 10.5t-50 6.5q-96 4 -145.5 -51t-64.5 -144z" />
    <glyph glyph-name="Dbar1" unicode="&#x189;" horiz-adv-x="2144" 
d="M902 0h-729l161 895l-251 1l47 264h244l154 888h679q298 -4 485.5 -142.5t264.5 -369t40 -508.5q-38 -293 -181.5 -526t-376 -368t-537.5 -134zM1096 1160l-47 -264h-267l-91 -495l211 -2q194 -1 327.5 81.5t210 226t102.5 325.5q22 158 3 297t-107 227t-274 92h-252
l-90 -487z" />
    <glyph glyph-name="Dhook" unicode="&#x18a;" horiz-adv-x="2492" 
d="M1240 0h-728l293 1652h-35q-112 -2 -173 -69t-79 -171l-22 -128h-402l34 212q36 268 220 410.5t448 142.5l749 -1q298 -4 486 -142.5t264.5 -369t40.5 -508.5q-39 -293 -182.5 -526t-375.5 -368t-538 -134zM1503 1648h-253l-220 -1247l211 -2q194 -1 327 81.5t210 225.5
t102 325q22 158 3.5 297.5t-107 227.5t-273.5 92z" />
    <glyph glyph-name="Dtopbar" unicode="&#x18b;" horiz-adv-x="1824" 
d="M1483 0h-690q-193 4 -354.5 80.5t-251.5 221t-70 354.5q22 221 148 366.5t313.5 217.5t392.5 72h289l69 355l-859 1l66 380h1303zM1099 372l105 571l-249 3q-136 0 -249.5 -71.5t-137.5 -214.5q-21 -126 46.5 -203.5t193.5 -83.5z" />
    <glyph glyph-name="dtopbar" unicode="&#x18c;" horiz-adv-x="1568" 
d="M1328 0h-445l40 159l-13 -1q-57 -97 -150 -141.5t-204 -42.5q-156 3 -254 78t-149 193t-64.5 254t0.5 262q16 137 65 278.5t133 260t205.5 189t280.5 66.5q97 -3 188.5 -45t125.5 -140l18 -1l69 298l-739 1l66 380h1182zM511 760q-8 -62 -8.5 -133.5t17 -136t62 -107
t127.5 -45.5q119 -4 192 64.5t110.5 171t50.5 200.5q8 59 11 129.5t-11 135.5t-55.5 107.5t-123.5 46.5q-120 4 -197.5 -62t-119 -168t-55.5 -203z" />
    <glyph glyph-name="deltaturn" unicode="&#x18d;" horiz-adv-x="1824" 
d="M1186 -516h-1090l62 356l536 -1q-37 49 -87.5 88.5t-93.5 81.5q-154 151 -253.5 336t-76.5 408l4 29q26 210 130.5 377.5t273.5 264t387 92.5q198 -3 341 -89t213 -236.5t50 -348.5l-3 -28q-15 -120 -64 -239.5t-128.5 -220.5t-187 -166t-238.5 -75h-65
q64 -108 151.5 -208t170.5 -194zM1134 762l4 29q10 78 6 162.5t-45.5 144.5t-143.5 63q-109 4 -179 -52.5t-108.5 -145t-52.5 -181.5l-4 -28q-14 -109 6.5 -222.5t112.5 -185.5q31 -9 58 -10q116 -4 187.5 63.5t108.5 167.5t50 195z" />
    <glyph glyph-name="Eturn" unicode="&#x18e;" horiz-adv-x="1656" 
d="M253 1664l67 384h1329l-355 -2048h-1330l67 384h876l84 447l-747 1l67 384h740l84 447z" />
    <glyph glyph-name="Schwa" unicode="&#x18f;" horiz-adv-x="2080" 
d="M890 -29q-276 3 -445.5 134t-235.5 346t-29 469l41 244h1357l-66 -380l-897 1l-11 -44q-37 -171 54.5 -264.5t259.5 -97.5q143 -3 246.5 69t167.5 188t86 244l39 237q35 227 -64.5 362.5t-338.5 139.5q-140 3 -279 -18t-274 -60l-29 393q80 49 194 69t231 24t206 4
q271 -1 464.5 -117t284.5 -321.5t53 -476.5l-38 -236q-29 -184 -111 -349t-210 -291.5t-293.5 -198.5t-362.5 -70z" />
    <glyph glyph-name="Epsilon1" unicode="&#x190;" horiz-adv-x="1824" 
d="M922 1201l266 -1l-62 -356l-217 1q-145 1 -243 -65t-120 -217q-12 -83 22.5 -131t97 -68t134.5 -22q72 -1 143 19.5t122.5 68t62.5 127.5l449 1q-6 -153 -79.5 -264.5t-190.5 -183t-255 -105.5t-273 -33q-137 1 -265.5 33t-229 101t-154.5 179t-41 268q15 191 129 306.5
t288 173.5q-109 75 -173 178.5t-55 240.5q11 156 85 267.5t189.5 181t254 101.5t277.5 30q175 -2 320.5 -68.5t233 -194t89.5 -311.5l-447 1q3 106 -58 150.5t-161 46.5q-73 2 -146 -18.5t-126 -68t-67 -128.5q-20 -116 32.5 -176t167.5 -64z" />
    <glyph glyph-name="Fhook" unicode="&#x191;" horiz-adv-x="1656" 
d="M1401 1216l-67 -384h-741l-154 -912q-34 -257 -189 -378.5t-406 -120.5q-54 1 -107.5 2t-107.5 7l38 355q36 -6 75 -6q79 -2 149.5 27t90.5 114l369 2128h1330l-67 -384h-876l-84 -447z" />
    <glyph glyph-name="florin" unicode="&#x192;" horiz-adv-x="1312" 
d="M1207 1488l-50 -320h-283l-187 -1216q-31 -243 -174 -399.5t-400 -155.5q-56 0 -110.5 6t-109.5 16l54 354q60 -20 118 -21q95 -1 135 57.5t53 142.5l188 1216h-210l50 320h210l15 120q32 257 198.5 396.5t424.5 137.5q59 0 117 -9t116 -20l-63 -341q-68 15 -132 15
q-88 0 -148.5 -45.5t-76.5 -133.5l-18 -120h283z" />
    <glyph glyph-name="Ghook" unicode="&#x193;" horiz-adv-x="2320" 
d="M1865 1096l-57 -339q-36 -232 -169 -410.5t-333 -278t-435 -97.5q-218 3 -368 93t-236.5 239.5t-114.5 334t-3 376.5q27 203 107 394t210.5 342.5t309 239.5t401.5 86q107 -1 211.5 -27t196.5 -82q113 159 275.5 243t358.5 83q56 0 110 -7t108 -17l-39 -371
q-29 5 -58.5 10t-58.5 6q-110 4 -199 -40t-112 -162l-58 -340l-449 -2q-28 125 -103 205t-210 85q-132 5 -228 -53.5t-161 -156t-102.5 -213t-52.5 -225.5q-12 -92 -13.5 -198.5t24 -202.5t92 -158.5t189.5 -65.5q179 -5 304.5 100.5t174.5 271.5l-397 -3l59 340h826z" />
    <glyph glyph-name="Gamma1" unicode="&#x194;" horiz-adv-x="2080" 
d="M323 2003l510 1l286 -1260q33 -144 87 -303.5t94 -320.5t32 -311q-8 -148 -88 -239t-201.5 -132t-253.5 -39q-121 2 -232 43.5t-179.5 128t-60.5 224.5q6 113 69.5 239t152.5 253t176.5 244t141.5 213l718 1260h539l-1155 -1837q-48 -82 -102.5 -173.5t-70.5 -187.5
q-4 -27 -2 -60t40 -34q45 -2 65.5 34t26.5 73q14 87 -9 177t-48 172z" />
    <glyph glyph-name="hv" unicode="&#x195;" horiz-adv-x="2460" 
d="M583 816l-139 -816h-449l355 2048h433l-129 -679l7 1q79 92 183.5 140t226.5 46q123 -3 202 -56.5t120.5 -140t52.5 -191t-1 -208.5l-57 -365q-7 -54 -2.5 -109.5t34.5 -94t98 -41.5q109 -5 168 72t75 174l161 940h449l-161 -940q-28 -186 -126 -328t-250.5 -220.5
t-344.5 -75.5q-179 2 -311.5 83t-197 221t-42.5 320l59 369q7 50 4 101.5t-29 88t-89 39.5q-101 5 -162.5 -56.5t-93 -151.5t-44.5 -170z" />
    <glyph glyph-name="Iota1" unicode="&#x196;" horiz-adv-x="1056" 
d="M778 2112l-276 -1611q-22 -161 131 -166q36 -2 70.5 2t68.5 9l-3 -350q-51 -11 -102.5 -18.5t-103.5 -6.5q-161 1 -278.5 66t-175.5 184t-39 283l275 1608h433z" />
    <glyph glyph-name="Istroke" unicode="&#x197;" horiz-adv-x="1312" 
d="M1178 1160l-47 -264h-267l-156 -896h-453l161 895l-251 1l48 264h244l154 888h453l-160 -887z" />
    <glyph glyph-name="Khook" unicode="&#x198;" horiz-adv-x="2008" 
d="M1228 0l-403 759l-294 -277l-84 -482h-452l355 2048h453l-160 -860l19 1l576 551l132 130q168 167 359 193t398 -82l-172 -332q-81 45 -145 18t-127 -86l-76 -75l-454 -426l602 -1080h-527z" />
    <glyph glyph-name="khook" unicode="&#x199;" horiz-adv-x="1588" 
d="M929 0l-248 548l-171 -171l-65 -377h-450l269 1580q31 255 186.5 377.5t404.5 120.5q60 0 119.5 -5t118.5 -11l-37 -351q-54 10 -98 11q-79 2 -149.5 -27.5t-89.5 -114.5l-107 -556h12l484 512l550 -1l-670 -675l410 -860h-469z" />
    <glyph glyph-name="lbar" unicode="&#x19a;" horiz-adv-x="1312" 
d="M1197 1272l-48 -264h-236l-175 -1008h-449l180 1007l-285 1l47 264h279l135 776h449l-139 -775z" />
    <glyph glyph-name="lambdabar" unicode="&#x19b;" horiz-adv-x="1824" 
d="M1227 1879l-33 -279l-42 -11l231 -1098q11 -45 32.5 -97.5t76.5 -57.5l51 -1l-37 -357q-37 -5 -74 -5t-74 1q-151 4 -250.5 88t-133.5 230l-99 567l-415 -859h-481l765 1451l-390 -119l53 295l280 82q-16 41 -49.5 54.5t-75.5 14.5q-23 1 -46 -1t-46 -3l23 337
q56 16 116.5 22t118.5 5q120 -2 216 -59.5t129 -179.5l15 -64z" />
    <glyph glyph-name="mcapturn" unicode="&#x19c;" horiz-adv-x="2592" 
d="M1803 0l22 166q-166 -198 -418 -194q-123 2 -233.5 56t-148.5 181q-91 -112 -208.5 -177t-265.5 -63q-183 2 -276 88t-119 224.5t-6 298.5l244 1424h429l-244 -1425q-8 -56 -3.5 -111.5t34.5 -94t99 -40.5q84 -4 151.5 30.5t120.5 95.5q4 31 8.5 61t10.5 60l247 1424h430
l-244 -1426q-8 -55 -3.5 -110.5t34 -93.5t97.5 -41q80 -3 146 28t120 89l274 1554h433l-347 -2004h-384z" />
    <glyph glyph-name="Nhook" unicode="&#x19d;" horiz-adv-x="1952" 
d="M1968 2048l-356 -2048h-432l-486 1261l-19 2l-236 -1343q-34 -257 -189.5 -378.5t-407.5 -120.5q-53 1 -106.5 2.5t-106.5 6.5l38 355q36 -6 76 -6q78 -2 148.5 27t90.5 114l369 2128h436l482 -1261l19 -2l227 1263h453z" />
    <glyph glyph-name="nlegrightlong" unicode="&#x19e;" horiz-adv-x="1656" 
d="M0 0zM583 816l-139 -816h-449l266 1536l414 1l-41 -168l7 1q169 191 424 186q168 -4 266.5 -90t135.5 -221t20 -285l-262 -1536h-449l261 1522q12 89 -20 166t-136 81q-102 5 -162.5 -56t-91.5 -150t-44 -171z" />
    <glyph glyph-name="Obar" unicode="&#x19f;" horiz-adv-x="2040" 
d="M125 0zM1897 1026q-26 -202 -106.5 -392t-211 -340t-308.5 -237.5t-399 -84.5q-218 2 -367.5 92.5t-236 240.5t-115 334t-3.5 375q26 204 107.5 395t213.5 342.5t311.5 239.5t401.5 85q219 -3 367 -94.5t233 -243.5t111.5 -337.5t1.5 -374.5zM1158 1660
q-143 5 -242.5 -62.5t-167 -175.5t-113.5 -226q104 26 207.5 20t206.5 -24.5t207.5 -31t210.5 1.5q10 112 -12.5 225.5t-92.5 191t-204 81.5zM898 388q145 -5 243.5 62.5t164 176.5t111.5 229q-106 -28 -209.5 -22.5t-207 24.5t-208 31.5t-211.5 -0.5q-10 -115 13.5 -229
t95.5 -191t208 -81z" />
    <glyph glyph-name="Ohorn" unicode="&#x1a0;" horiz-adv-x="2100" 
d="M1894 1025q-28 -202 -107.5 -391.5t-209 -339.5t-306.5 -237.5t-400 -84.5q-218 2 -367.5 92.5t-236.5 240t-115 334t-3 375.5q26 204 107.5 395t213.5 342.5t311 239t402 85.5q180 -2 342.5 -79t261.5 -231q104 57 138.5 161t44.5 214l267 1q-7 -124 -41.5 -239.5
t-108 -205t-196.5 -135.5q13 -136 17 -268t-14 -269zM1439 1027q13 91 16 198.5t-20.5 205.5t-88.5 162t-189 67q-133 4 -230.5 -53t-163 -154t-104 -212.5t-53.5 -227.5q-13 -93 -15 -200t23 -202.5t91.5 -157.5t191.5 -66q132 -4 228 52.5t160.5 151.5t101.5 209.5
t52 226.5z" />
    <glyph glyph-name="ohorn" unicode="&#x1a1;" horiz-adv-x="1740" 
d="M674 -28q-223 3 -362.5 115.5t-196.5 292t-33 382.5q25 216 130.5 398t279 291t403.5 105q154 -2 295 -66.5t221 -200.5q87 57 118 145t41 187l244 1q-8 -171 -81.5 -305.5t-240.5 -195.5q5 -87 5.5 -174t-10.5 -174q-28 -215 -132.5 -399t-276.5 -295t-404 -107z
M697 339q121 -5 196.5 62.5t115 170t53.5 203.5q8 61 10 132t-14 135t-59.5 106t-126.5 45q-121 4 -196.5 -62t-115 -167.5t-52.5 -202.5q-8 -61 -10 -133t13.5 -136.5t59 -107t126.5 -45.5z" />
    <glyph glyph-name="OI" unicode="&#x1a2;" horiz-adv-x="2592" 
d="M2580 2004l-447 -2576h-430l356 2020l-222 -95l-179 -1102q-86 -109 -223 -170t-288 -85.5t-279 -23.5q-209 2 -355.5 82t-233.5 217t-116 310.5t-3 362.5l17 115q30 199 109 375.5t204.5 312t296.5 212t386 73.5q110 -1 229.5 -19.5t229.5 -63.5t192 -127l409 182h347z
M1182 1662q-176 4 -288.5 -83t-173.5 -226t-85 -293l-18 -117q-13 -93 -14 -196t25.5 -193.5t93.5 -148t190 -59.5q175 -3 325 86l213 1143q-46 56 -123 71t-145 16z" />
    <glyph glyph-name="oi" unicode="&#x1a3;" horiz-adv-x="2080" 
d="M2036 1488l-357 -2060h-433l270 1558l-134 -49l-102 -641q-100 -170 -267.5 -249t-360.5 -75q-219 4 -353 108.5t-186.5 274.5t-29.5 371l4 33q27 208 126 382t263.5 276.5t388.5 98.5q123 -2 243 -52t198 -149l418 173h312zM662 333q104 -4 187 62l129 684
q-22 43 -60 62t-85 21q-112 4 -176.5 -60t-96 -159t-43.5 -185l-4 -32q-7 -53 -12.5 -119t3.5 -127.5t45.5 -102.5t112.5 -44z" />
    <glyph glyph-name="Phook" unicode="&#x1a4;" horiz-adv-x="2324" 
d="M1424 703l-341 1l-122 -704h-453l298 1673h-32q-116 -3 -176.5 -79.5t-79.5 -181.5l-22 -128h-402l34 212q37 268 220 410.5t448 142.5l811 -2q314 -6 484 -178t136 -490q-37 -336 -255.5 -506t-547.5 -170zM1249 1664l-106 -579l300 -3q138 0 226.5 81.5t108.5 217.5
q17 111 -23.5 193.5t-164.5 88.5z" />
    <glyph glyph-name="phook" unicode="&#x1a5;" horiz-adv-x="1652" 
d="M-93 -578l345 2115v-1q39 237 185 328.5t373 88.5q60 -1 119 -8.5t118 -19.5l-33 -323q-58 26 -132 28q-62 1 -103.5 -24.5t-77.5 -72.5l5 2l-43 -167l14 1q56 98 150.5 144t206.5 44q155 -3 253 -77t149.5 -191.5t65 -253t-1.5 -260.5q-15 -138 -64 -280t-133 -261
t-205 -190.5t-282 -67.5q-96 3 -188.5 43.5t-127.5 139.5h-18l-137 -735zM1078 775q8 62 8.5 133t-17 135t-62 105.5t-127.5 44.5q-118 4 -191 -63.5t-110.5 -169t-50.5 -199.5q-8 -59 -11.5 -130t10.5 -136.5t55.5 -109t123.5 -46.5q120 -5 197.5 62.5t119.5 170.5t55 203z
" />
    <glyph glyph-name="YR" unicode="&#x1a6;" horiz-adv-x="2080" 
d="M1208 -480l-377 1188h-283l-123 -708h-453l342 2003l5 -1l28 143l453 -2l-32 -138l281 -1q185 -3 339.5 -68t241 -197t67.5 -335q-39 -430 -437 -577l424 -1284v-27zM708 1628l-100 -547l282 -3q135 0 233.5 73t119.5 211q19 117 -35 189t-175 76z" />
    <glyph glyph-name="Tonetwo" unicode="&#x1a7;" horiz-adv-x="1824" 
d="M526 524q-19 -103 50.5 -144.5t158.5 -44.5q162 -5 280 69t137 244l451 2q-8 -171 -88.5 -299t-208.5 -212.5t-282 -126.5t-308 -40q-171 2 -323 60.5t-242 181t-74 315.5q12 149 80.5 258t175 186.5t232 131t251.5 91.5q70 21 164.5 52.5t172 85t96.5 138.5
q14 71 -21 113t-93.5 61t-115.5 20q-126 3 -223 -62t-112 -197l-444 -1q5 155 75.5 273t184.5 197t252.5 118.5t279.5 37.5q123 -1 246 -34.5t221.5 -101.5t154 -172.5t44.5 -247.5q-11 -146 -82.5 -252t-181.5 -181.5t-236.5 -128t-246.5 -90.5q-80 -25 -172.5 -58
t-164 -89t-88.5 -153z" />
    <glyph glyph-name="tonetwo" unicode="&#x1a8;" horiz-adv-x="1568" 
d="M479 412q-16 -75 39 -103.5t117 -30.5q101 -3 179 45.5t97 152.5l407 3q-1 -127 -65.5 -223t-167 -159.5t-221.5 -95t-228 -30.5q-101 2 -204.5 28.5t-189 81t-135 139.5t-43.5 204q6 126 62 210.5t145 138.5t194.5 85.5t211.5 49.5q50 9 115 24.5t117 48.5t65 95
q14 69 -31 103t-107 36q-92 3 -152.5 -44.5t-72.5 -138.5l-434 -2q2 130 64 223t161.5 151.5t216.5 86t229 25.5q136 -2 262 -54.5t204.5 -155t70.5 -254.5q-8 -151 -97 -243.5t-217.5 -143.5t-253.5 -78q-51 -10 -125.5 -26t-137 -50t-75.5 -99z" />
    <glyph glyph-name="Esh" unicode="&#x1a9;" horiz-adv-x="1824" 
d="M1270 1038v-22l-537 -634l766 -2l-66 -380h-1382l35 232l719 809l-435 816l34 191h1365l-67 -384h-755z" />
    <glyph glyph-name="eshlooprev" unicode="&#x1aa;" horiz-adv-x="1824" 
d="M299 1584q13 160 103 296.5t229.5 218.5t303.5 78q155 -4 271.5 -87t176.5 -215.5t43 -282.5l-274 -1614q-10 -78 10.5 -144.5t114.5 -70.5q33 -1 66 2.5t65 8.5l-36 -357q-48 -10 -97.5 -13.5t-98.5 -2.5q-168 4 -275.5 82t-153 208t-27.5 289l192 1053
q-62 -19 -127 -19q-153 0 -267 81.5t-172.5 212t-46.5 276.5zM819 1387q95 -3 156.5 63t74.5 154q11 76 -22 135t-116 61q-96 3 -160.5 -59t-77.5 -154q-12 -81 22.5 -139.5t122.5 -60.5z" />
    <glyph glyph-name="tpalatalhook" unicode="&#x1ab;" horiz-adv-x="1048" 
d="M1037 1536l-57 -320h-233l-126 -734q-8 -58 6.5 -91.5t77.5 -35.5q21 -1 37 1l149 29l-78 -465q-29 -216 -158 -356t-358 -138q-49 0 -97 6t-96 15l28 299q26 -5 51 -8t50 -4q99 -2 177 41.5t110 141.5l20 64v0q-92 -13 -164 26t-121.5 109t-72.5 153t-16 159l133 788
h-167l55 320h167l57 328h451l-63 -327z" />
    <glyph glyph-name="Thook" unicode="&#x1ac;" horiz-adv-x="2168" 
d="M2239 2048l-67 -384h-581l-289 -1664h-453l293 1663l-387 3q-117 -1 -179.5 -73.5t-81.5 -180.5l-21 -128h-371l33 211q36 261 204.5 409t433.5 146z" />
    <glyph glyph-name="thook" unicode="&#x1ad;" horiz-adv-x="1312" 
d="M1136 1488l-56 -320h-240l-118 -685q-9 -70 10.5 -105.5t92.5 -38.5q31 -1 60.5 1.5t59.5 5.5l-33 -337q-57 -22 -118 -29.5t-122 -6.5q-209 4 -307.5 127.5t-77.5 327.5l129 739l-201 1l57 320h194l29 192q32 262 189.5 381t411.5 116q122 -1 238 -24l-29 -299
q-48 15 -97 16q-98 3 -178.5 -42.5t-101.5 -147.5l-33 -192h241z" />
    <glyph glyph-name="Trthook" unicode="&#x1ae;" horiz-adv-x="1820" 
d="M1897 2048l-67 -384h-582l-303 -1746q-11 -77 35 -105.5t114 -31.5l108 -1l-63 -356h-177q-231 4 -358.5 129t-102.5 367l304 1743l-588 1l67 384h1613z" />
    <glyph glyph-name="Uhorn" unicode="&#x1af;" horiz-adv-x="2284" 
d="M1514 2048h453l-74 -355q98 32 149 96t72.5 147.5t29.5 176.5l267 1q-10 -172 -67 -312t-171.5 -229t-296.5 -108l-142 -769q-34 -235 -161.5 -398t-320 -247t-424.5 -82q-217 3 -388.5 88.5t-261 247t-60.5 391.5l232 1352h453l-231 -1337q-20 -146 60.5 -234t225.5 -92
q154 -4 275.5 84t149.5 243z" />
    <glyph glyph-name="uhorn" unicode="&#x1b0;" horiz-adv-x="1884" 
d="M1002 720l140 816h449l-51 -225q88 54 118 135.5t41 178.5l240 1q-11 -206 -106.5 -345t-306.5 -177l-202 -1104h-414l41 167l-7 -1q-170 -193 -424 -187q-168 4 -266.5 90t-135.5 221t-20 286l163 960h449l-161 -945q-12 -90 21 -167t137 -82q102 -5 162 56.5t90.5 151
t42.5 170.5z" />
    <glyph glyph-name="Upsilon2" unicode="&#x1b1;" horiz-adv-x="1824" 
d="M629 908l-15 -106q-8 -58 -11 -133.5t10.5 -148t55 -121t124.5 -52.5q90 -4 154 39t106 114t66 151.5t34 152.5l15 104q10 66 25 167t18 209.5t-22.5 199.5t-98.5 136l60 384h694l-66 -376h-296q103 -173 163.5 -342t33.5 -378l-15 -100q-34 -228 -154.5 -420
t-310.5 -306.5t-433 -111.5q-233 4 -390.5 121.5t-227.5 307.5t-42 409l15 100q33 223 148 411.5t302 314.5l-297 -6l65 376h682l-59 -384q-116 -78 -181.5 -195.5t-99 -252.5t-52.5 -264z" />
    <glyph glyph-name="Vcursive" unicode="&#x1b2;" horiz-adv-x="1824" 
d="M768 -31q-214 3 -373 93.5t-237.5 253t-50.5 380.5l224 1308h450l-225 -1309q-20 -142 27 -244.5t207 -107.5q168 -5 263 95.5t121 257.5l125 753q12 82 -2 137.5t-109 58.5q-33 1 -66 -2.5t-66 -8.5l39 373q49 12 98.5 16.5t99.5 3.5q168 -3 277 -80.5t155 -207.5
t27 -291l-126 -752q-35 -224 -151.5 -388.5t-297.5 -252.5t-409 -86z" />
    <glyph glyph-name="Yhook" unicode="&#x1b3;" horiz-adv-x="2192" 
d="M744 2050l333 -871l23 -1l370 511l72 104q134 201 333 252.5t420 -18.5l-128 -350q-106 35 -176.5 -6.5t-131.5 -125.5l-45 -60l-556 -726l-132 -759h-453l143 801l-544 1246z" />
    <glyph glyph-name="yhook" unicode="&#x1b4;" horiz-adv-x="1652" 
d="M412 -25l37 75l-274 1485l458 1l113 -816l298 648l64 145q115 260 380 347q92 30 182 29.5t184 -11.5l-62 -362q-28 7 -52 9.5t-52 -6.5q-71 -20 -114 -71.5t-73 -115.5l-29 -60l-702 -1492q-78 -174 -230 -278.5t-345 -103.5q-51 0 -98.5 7.5t-96.5 21.5l39 354
q13 -2 25.5 -4t26.5 -2q114 -4 192.5 48t128.5 152z" />
    <glyph glyph-name="Zbar" unicode="&#x1b5;" horiz-adv-x="1824" 
d="M1562 384l-67 -384h-1508l51 293l527 601l-167 2l51 264h328l446 502l-948 2l67 384l1507 1l-47 -294l-523 -593l139 -2l-52 -264h-299l-453 -510z" />
    <glyph glyph-name="zbar" unicode="&#x1b6;" horiz-adv-x="1544" 
d="M1278 360l-62 -360h-1221l48 280l344 370l-156 2l52 264l322 1l247 256l-627 3l63 360h1179l-49 -281l-313 -337l147 -2l-52 -264l-315 -1l-275 -289z" />
    <glyph glyph-name="Ezh" unicode="&#x1b7;" horiz-adv-x="2080" 
d="M66 106l447 -1q1 -152 62.5 -241t224.5 -94q157 -4 256 70t152 196t71 260q11 86 13.5 176.5t-19 168t-80 126.5t-169.5 52l-399 1l47 267l566 539l-903 2l65 376h1485l-45 -263l-602 -589q154 -25 256.5 -111t159.5 -209.5t73.5 -264.5t-0.5 -275q-33 -253 -156.5 -456
t-325 -320.5t-467.5 -114.5q-328 4 -514 194t-198 511z" />
    <glyph glyph-name="Ezhreversed" unicode="&#x1b8;" horiz-adv-x="2080" 
d="M1232 104l443 4q-12 -170 -91 -302t-203.5 -223t-276.5 -137.5t-310 -44.5q-257 3 -421 122t-232 318t-37 440q29 226 129.5 413t268.5 310t399 158l-388 618l40 224h1473l-66 -376h-908l386 -580l-41 -228l-357 1q-161 1 -261.5 -73.5t-153 -198t-71.5 -267.5
q-11 -86 -12 -175t22.5 -164.5t83 -122.5t169.5 -50q168 -5 277.5 81t137.5 253z" />
    <glyph glyph-name="ezhreversed" unicode="&#x1b9;" horiz-adv-x="1824" 
d="M322 1488h1311l-62 -356h-837l377 -462l-44 -250l-151 1q-185 1 -299 -94t-140 -280q-16 -114 54.5 -174t177.5 -63q109 -3 200 57t105 174l434 1q-6 -148 -74 -259t-177.5 -184t-241.5 -108.5t-266 -34.5q-175 2 -330 66t-245.5 192.5t-73.5 324.5q24 267 184 435
t419 216l-373 521z" />
    <glyph glyph-name="ezhtail" unicode="&#x1ba;" horiz-adv-x="1568" 
d="M379 -165q-15 -74 41 -101t116 -29q101 -3 179 46t97 153l407 3q-1 -128 -65.5 -223.5t-167.5 -159t-221.5 -95t-228.5 -29.5q-101 1 -204.5 27.5t-189.5 81.5t-135.5 140.5t-43.5 204.5q9 158 97 253t218.5 145.5t265.5 76.5q54 10 127 24.5t132 48t74 101.5
q14 67 -27 100t-102 36h-357l41 274l301 217l-480 2l62 356h1174l-46 -265l-427 -325q126 -56 199.5 -167t66.5 -250q-8 -150 -96 -243t-215.5 -145t-253.5 -78q-50 -10 -124.5 -27.5t-137 -52.5t-76.5 -100z" />
    <glyph glyph-name="twostroke" unicode="&#x1bb;" horiz-adv-x="1696" 
d="M1430 384l-67 -384h-1368l61 354l634 540l-143 2l53 264l354 -1q57 65 107 140.5t65 162.5q17 91 -22.5 169.5t-142.5 82.5q-91 4 -156 -44.5t-102.5 -125t-46.5 -156.5l-431 -2q5 150 70 277t172.5 220.5t242.5 144.5t281 49q172 -3 307.5 -79.5t208 -211.5t54.5 -312
q-10 -90 -43.5 -168.5t-86.5 -151.5l135 5l-48 -263l-273 1q-61 -59 -122 -117.5t-124 -115.5l-316 -261l-11 -28z" />
    <glyph glyph-name="Tonefive" unicode="&#x1bc;" horiz-adv-x="1824" 
d="M741 918l-351 93l187 632l-313 1l64 360h329l13 44h1142l-66 -384h-769l-140 -443v0q54 69 138.5 95t168.5 25q180 -3 295 -101.5t164.5 -249.5t32.5 -313q-21 -201 -124 -362.5t-267.5 -254.5t-370.5 -89q-198 4 -332.5 90.5t-202.5 235t-65 337.5h432q2 -67 14 -135.5
t51 -116.5t123 -51q98 -4 163.5 50t102 137t47.5 167q12 83 -1 159.5t-62.5 125t-148.5 50.5q-72 1 -138 -24t-116 -78z" />
    <glyph glyph-name="tonefive" unicode="&#x1bd;" horiz-adv-x="1824" 
d="M728 633l-418 16l157 490l-225 1l62 348h1287l-60 -348h-667l-94 -237q60 42 139 55t149 13q220 -2 351.5 -131.5t112.5 -354.5q-15 -186 -118.5 -298.5t-258 -163t-322.5 -48.5q-153 2 -292.5 49t-229 150.5t-92.5 275.5l426 20q10 -82 72 -106.5t136 -25.5
q90 -2 164 42.5t91 139.5q14 84 -39 123t-128 41q-52 1 -107 -8.5t-96 -42.5z" />
    <glyph glyph-name="glottalstopbarinv" unicode="&#x1be;" horiz-adv-x="1568" 
d="M904 428q15 62 -22 120.5t-98 120t-121.5 131t-95.5 152.5t-17 185l7 34l-205 -3l56 320h190l64 372h434l-65 -372h241l-56 -320l-229 1l-10 -40q-20 -96 10 -163.5t86 -122t115 -110t98.5 -125t35.5 -169.5q-6 -126 -70.5 -216t-165 -146t-216.5 -82t-224 -24
q-153 3 -284.5 62t-213.5 171.5t-87 274.5l403 -2q4 -192 203 -195q75 -1 146.5 31.5t90.5 114.5z" />
    <glyph glyph-name="wynn" unicode="&#x1bf;" horiz-adv-x="1824" 
d="M1533 733q-37 -284 -189.5 -478t-379.5 -314t-486 -180l-68 -333h-433l357 2060l403 1l-25 -144q71 84 162 128.5t203 42.5q154 -2 251 -71t148 -179.5t63.5 -241.5t-1.5 -258zM949 1160q-157 7 -257 -126l-177 -930q223 80 384 233t199 398l5 31q7 51 11 117t-7.5 128.5
t-48 104t-109.5 44.5z" />
    <glyph glyph-name="pipe" unicode="&#x1c0;" horiz-adv-x="800" 
d="M714 2004l-348 -2004h-243l347 2004h244z" />
    <glyph glyph-name="pipedbl" unicode="&#x1c1;" horiz-adv-x="1056" 
d="M660 2004l-347 -2004h-244l348 2004h243zM1021 2004l-348 -2004h-243l348 2004h243z" />
    <glyph glyph-name="pipedblbar" unicode="&#x1c2;" horiz-adv-x="1312" 
d="M1129 880l-46 -264h-361l-107 -616h-243l111 615l-366 1l47 264h359l66 347l-366 1l47 264h360l90 512h243l-93 -511l365 -1l-46 -264h-359l-67 -347z" />
    <glyph glyph-name="exclam1" unicode="&#x1c3;" horiz-adv-x="800" 
d="M824 2048l-299 -1412h-352l190 1412h461zM266 -25q-98 0 -165 63.5t-69 161.5q-2 105 68.5 173.5t173.5 67.5q98 0 166 -63t71 -162q2 -106 -70 -174t-175 -67z" />
    <glyph glyph-name="Dzcaron_" unicode="&#x1c5;" horiz-adv-x="3280" 
d="M2444 2048l165 -183l226 182l380 8l1 -27l-471 -384h-277l-381 386v26zM723 0h-728l355 2048h678q300 -4 487 -142.5t262 -368.5t38 -510q-38 -293 -180.5 -526t-374 -367.5t-537.5 -133.5zM986 1648h-253l-220 -1247l211 -2q194 -1 328 81.5t212 226t104 326.5
q23 159 2.5 298t-110.5 226t-274 91zM2962 360l-62 -360h-1220l44 280l811 894l-626 2l63 360h1178l-48 -280l-808 -894z" />
    <glyph glyph-name="dzcaron" unicode="&#x1c6;" horiz-adv-x="2972" 
d="M2174 2048l165 -183l225 182l380 8l2 -27l-472 -384h-277l-380 386l-1 26zM1321 0h-445l40 159l-12 -1q-58 -97 -150.5 -141.5t-204.5 -42.5q-155 3 -253.5 78t-150 193t-65 254t0.5 261q16 137 65 279t133.5 260.5t206 189t281.5 66.5q97 -3 188.5 -45t126.5 -141h18
l128 679h449zM2665 360l-63 -360h-1219l43 280l811 894l-625 2l62 360h1179l-49 -280l-808 -894zM503 760q-8 -62 -8.5 -134t17 -136.5t62.5 -107t127 -45.5q120 -4 193 64.5t110.5 171t51.5 201.5q8 59 11 129.5t-11.5 135.5t-56 107.5t-123.5 46.5q-120 4 -198 -62
t-120 -168t-55 -203z" />
    <glyph glyph-name="LJ" unicode="&#x1c7;" horiz-adv-x="3436" 
d="M251 0zM1574 384l-67 -384h-1256l355 2048h453l-294 -1663zM2768 628l244 1420h449l-244 -1420q-28 -192 -131.5 -341.5t-263.5 -234t-358 -82.5q-298 4 -448.5 174.5t-143.5 460.5h452q-2 -60 9.5 -119t47.5 -99t109 -43q82 -4 139.5 37.5t92 108t46.5 138.5z" />
    <glyph glyph-name="Lj" unicode="&#x1c8;" horiz-adv-x="2772" 
d="M251 0zM1574 384l-67 -384h-1256l355 2048h453l-294 -1663zM2544 1619q-92 1 -163 64.5t-74 156.5q-3 100 72.5 168.5t172.5 68.5q91 -1 160.5 -64.5t71.5 -156.5q3 -100 -70 -168.5t-170 -68.5zM2267 1536h449l-271 -1583q-36 -269 -215.5 -401.5t-442.5 -132.5l-189 1
l63 360l71 -2q98 1 170.5 40t92.5 142z" />
    <glyph glyph-name="lj" unicode="&#x1c9;" horiz-adv-x="1952" 
d="M251 0zM1055 2048l-355 -2048h-449l355 2048h449zM1724 1619q-92 1 -163 64.5t-74 156.5q-3 100 72.5 168.5t172.5 68.5q91 -1 160.5 -64.5t71.5 -156.5q3 -100 -70 -168.5t-170 -68.5zM1447 1536h449l-271 -1583q-36 -269 -215.5 -401.5t-442.5 -132.5l-189 1l63 360
l71 -2q98 1 170.5 40t92.5 142z" />
    <glyph glyph-name="NJ" unicode="&#x1ca;" horiz-adv-x="3820" 
d="M251 0zM2223 2048l-356 -2048h-432l-486 1261l-19 2l-227 -1263h-452l355 2048h436l482 -1261l19 -2l227 1263h453zM3152 628l244 1420h449l-244 -1420q-28 -192 -131.5 -341.5t-263.5 -234t-358 -82.5q-298 4 -448.5 174.5t-143.5 460.5h452q-2 -60 9.5 -119t47.5 -99
t109 -43q82 -4 139.5 37.5t92 108t46.5 138.5z" />
    <glyph glyph-name="Nj" unicode="&#x1cb;" horiz-adv-x="3156" 
d="M251 0zM2223 2048l-356 -2048h-432l-486 1261l-19 2l-227 -1263h-452l355 2048h436l482 -1261l19 -2l227 1263h453zM2928 1619q-92 1 -163 64.5t-74 156.5q-3 100 72.5 168.5t172.5 68.5q91 -1 160.5 -64.5t71.5 -156.5q3 -100 -70 -168.5t-170 -68.5zM2651 1536h449
l-271 -1583q-36 -269 -215.5 -401.5t-442.5 -132.5l-189 1l63 360l71 -2q98 1 170.5 40t92.5 142z" />
    <glyph glyph-name="nj" unicode="&#x1cc;" horiz-adv-x="2860" 
d="M251 0zM839 816l-139 -816h-449l266 1536l414 1l-41 -168l7 1q169 191 424 186q168 -3 266.5 -89.5t135.5 -221.5t20 -285l-163 -960h-448l161 946q12 89 -20 166t-136 81q-102 5 -163 -56t-91.5 -150t-43.5 -171zM2632 1619q-92 1 -163 64.5t-74 156.5
q-3 100 72.5 168.5t172.5 68.5q91 -1 160.5 -64.5t71.5 -156.5q3 -100 -70 -168.5t-170 -68.5zM2355 1536h449l-271 -1583q-36 -269 -215.5 -401.5t-442.5 -132.5l-189 1l63 360l71 -2q98 1 170.5 40t92.5 142z" />
    <glyph glyph-name="Acaron" unicode="&#x1cd;" horiz-adv-x="2168" 
d="M0 0zM428 0h-504l1088 2048h484l389 -2048h-482l-58 384h-725zM1165 1471l-371 -713l495 -2l-103 714zM1140 2536l165 -183l226 182l380 8l1 -27l-471 -384h-277l-380 386l-1 26z" />
    <glyph glyph-name="acaron" unicode="&#x1ce;" horiz-adv-x="1552" 
d="M16 0zM807 0l24 135h-4q-65 -89 -160.5 -127t-203.5 -37q-132 2 -234 59t-157.5 159t-47.5 236q8 133 70 225t159 150.5t212.5 88.5t230.5 39q39 3 92.5 7t99.5 23t60 65l7 32q10 67 -36.5 102t-106.5 37q-86 3 -144.5 -47.5t-86.5 -126.5l-413 63q28 164 136.5 269.5
t258.5 155.5t302 48q154 -2 282.5 -61t200 -173t53.5 -282l-177 -1040h-417zM857 491l50 201q-32 -26 -73.5 -35.5t-81.5 -15.5q-97 -14 -184.5 -54t-104.5 -152q-10 -62 24 -96.5t95 -36.5q86 -3 170 49.5t105 139.5zM763 2112l165 -183l226 182l380 8l1 -27l-471 -384
h-277l-380 386l-1 26z" />
    <glyph glyph-name="Icaron" unicode="&#x1cf;" horiz-adv-x="752" 
d="M0 0zM803 2048l-356 -2048h-452l355 2048h453zM432 2536l165 -183l226 182l380 8l1 -27l-471 -384h-277l-380 386l-1 26z" />
    <glyph glyph-name="icaron" unicode="&#x1d0;" horiz-adv-x="780" 
d="M11 0zM727 1536l-267 -1536h-449l267 1536h449zM370 2080l165 -183l226 182l380 8l1 -27l-471 -384h-277l-380 386l-1 26z" />
    <glyph glyph-name="Ocaron" unicode="&#x1d1;" horiz-adv-x="2040" 
d="M125 0zM1897 1026q-26 -202 -106.5 -391.5t-211 -340t-308.5 -238t-399 -84.5q-218 2 -367.5 92.5t-236 240.5t-115 334t-3.5 375q27 204 108 395t213 342.5t311.5 239.5t401.5 85q219 -3 367 -94.5t233 -243.5t111.5 -337.5t1.5 -374.5zM1440 1027q13 91 16 198.5
t-20.5 205.5t-88.5 162t-189 67q-133 4 -230.5 -53t-163 -154t-104 -212.5t-53.5 -227.5q-13 -93 -14.5 -199.5t23 -202.5t91.5 -158t191 -65q133 -4 228.5 52t160 151t101.5 209.5t52 226.5zM1080 2536l165 -183l226 182l380 8l1 -27l-471 -384h-277l-380 386l-1 26z" />
    <glyph glyph-name="ocaron" unicode="&#x1d2;" horiz-adv-x="1640" 
d="M62 0zM687 -28q-223 3 -364 115.5t-201 292t-38 382.5q23 216 126 397.5t275 290.5t401 106q221 -3 362.5 -113.5t202.5 -287.5t39 -381q-23 -215 -126.5 -399t-275.5 -295t-401 -108zM708 339q120 -4 194 63.5t112 169.5t50 202q7 63 7.5 134t-16.5 135t-62 105.5
t-128 44.5q-120 4 -194 -62.5t-111.5 -167.5t-49.5 -201q-8 -62 -8.5 -134t16.5 -137t62 -107t128 -45zM755 2112l165 -183l226 182l380 8l1 -27l-471 -384h-277l-380 386l-1 26z" />
    <glyph glyph-name="Ucaron" unicode="&#x1d3;" horiz-adv-x="1952" 
d="M89 0zM1514 2048h453l-233 -1351q-36 -235 -162.5 -398t-319 -247.5t-424.5 -82.5q-216 2 -388 88.5t-261.5 248t-60.5 390.5l232 1352h453l-230 -1337q-21 -146 59 -232.5t225 -90.5q154 -5 276 81.5t150 242.5zM1032 2536l165 -183l226 182l380 8l1 -27l-471 -384h-277
l-380 386l-1 26z" />
    <glyph glyph-name="ucaron" unicode="&#x1d4;" horiz-adv-x="1656" 
d="M82 0zM1003 720l140 816h449l-267 -1536h-414l41 167l-7 -1q-81 -92 -190 -142t-233 -47q-168 4 -267 91t-136 223t-20 285l163 960h449l-161 -945q-12 -89 20.5 -166t135.5 -82t163.5 56t91 150t42.5 171zM787 2112l165 -183l226 182l380 8l1 -27l-471 -384h-277
l-380 386l-1 26z" />
    <glyph glyph-name="Udieresismacron" unicode="&#x1d5;" horiz-adv-x="1952" 
d="M89 0zM1514 2048h453l-233 -1351q-36 -235 -162.5 -398t-319 -247.5t-424.5 -82.5q-216 2 -388 88.5t-261.5 248t-60.5 390.5l232 1352h453l-230 -1337q-21 -146 59 -232.5t225 -90.5q154 -5 276 81.5t150 242.5zM1810 2828l-41 -238h-928l42 238h927zM1347 2294
q-5 79 52.5 124.5t130.5 46.5q71 1 131 -41.5t64 -118.5q5 -80 -51.5 -125.5t-130.5 -46.5q-72 -1 -132 41.5t-64 119.5zM784 2294q-5 78 52 124t130 47q71 1 131.5 -41.5t65.5 -118.5q5 -80 -53 -125.5t-132 -46.5q-71 -1 -130.5 41.5t-63.5 119.5z" />
    <glyph glyph-name="udieresismacron" unicode="&#x1d6;" horiz-adv-x="1656" 
d="M82 0zM1003 720l140 816h449l-267 -1536h-414l41 167l-7 -1q-81 -92 -190 -142t-233 -47q-168 4 -267 91t-136 223t-20 285l163 960h449l-161 -945q-12 -89 20.5 -166t135.5 -82t163.5 56t91 150t42.5 171zM1572 2439l-42 -238h-927l42 238h927zM472 1872q-4 82 55 136
t138 55q76 1 136.5 -49t63.5 -128q4 -82 -54.5 -136t-137.5 -55q-76 -1 -136.5 49t-64.5 128zM1151 1872q-4 82 55 136t138 55q76 1 136.5 -49t63.5 -128q4 -82 -54.5 -136t-137.5 -55q-76 -1 -136.5 49t-64.5 128z" />
    <glyph glyph-name="Udieresisacute" unicode="&#x1d7;" horiz-adv-x="1952" 
d="M89 0zM1514 2048h453l-233 -1351q-36 -235 -162.5 -398t-319 -247.5t-424.5 -82.5q-216 2 -388 88.5t-261.5 248t-60.5 390.5l232 1352h453l-230 -1337q-21 -146 59 -232.5t225 -90.5q154 -5 276 81.5t150 242.5zM1151 2486l215 253l325 -1l-284 -252h-256zM1347 2294
q-5 79 52.5 124.5t130.5 46.5q72 1 131.5 -41.5t63.5 -118.5q5 -80 -51.5 -125.5t-130.5 -46.5q-72 -1 -132 41.5t-64 119.5zM784 2294q-5 78 52 124t130 47q71 1 131.5 -41.5t65.5 -118.5q5 -80 -53 -125.5t-132 -46.5q-72 -1 -130.5 41.5t-63.5 119.5z" />
    <glyph glyph-name="udieresisacute" unicode="&#x1d8;" horiz-adv-x="1656" 
d="M82 0zM1003 720l140 816h449l-267 -1536h-414l41 167l-7 -1q-81 -92 -190 -142t-233 -47q-168 4 -267 91t-136 223t-20 285l163 960h449l-161 -945q-12 -89 20.5 -166t135.5 -82t163.5 56t91 150t42.5 171zM839 2122l338 432l490 -1l-447 -431h-381zM472 1872
q-4 82 55 136t138 55q76 1 136.5 -49t63.5 -128q4 -82 -54.5 -136t-137.5 -55q-76 -1 -136.5 49t-64.5 128zM1151 1872q-4 82 55 136t138 55q76 1 136.5 -49t63.5 -128q4 -82 -54.5 -136t-137.5 -55q-76 -1 -136.5 49t-64.5 128z" />
    <glyph glyph-name="Udieresiscaron" unicode="&#x1d9;" horiz-adv-x="1952" 
d="M89 0zM1514 2048h453l-233 -1351q-36 -235 -162.5 -398t-319 -247.5t-424.5 -82.5q-216 2 -388 88.5t-261.5 248t-60.5 390.5l232 1352h453l-230 -1337q-21 -146 59 -232.5t225 -90.5q154 -5 276 81.5t150 242.5zM1163 2843l143 -148l195 147l381 6l1 -33l-420 -314h-303
l-353 318v31zM1347 2294q-5 79 52.5 124.5t130.5 46.5q72 1 131.5 -41.5t63.5 -118.5q5 -80 -51.5 -125.5t-130.5 -46.5q-73 -1 -132.5 41.5t-63.5 119.5zM784 2294q-5 78 52 124t130 47q71 1 131.5 -41.5t65.5 -118.5q5 -80 -53 -125.5t-132 -46.5q-71 -1 -130.5 41.5
t-63.5 119.5z" />
    <glyph glyph-name="udieresiscaron" unicode="&#x1da;" horiz-adv-x="1656" 
d="M82 0zM1003 720l140 816h449l-267 -1536h-414l41 167l-7 -1q-81 -92 -190 -142t-233 -47q-168 4 -267 91t-136 223t-20 285l163 960h449l-161 -945q-12 -89 20.5 -166t135.5 -82t163.5 56t91 150t42.5 171zM914 2555l164 -182l226 181l381 7l2 -28l-472 -382h-277
l-381 386l-1 26zM472 1872q-4 82 55 136t138 55q76 1 136.5 -49t63.5 -128q5 -82 -54 -136t-138 -55q-76 -1 -136.5 49t-64.5 128zM1151 1872q-4 82 55 136t138 55q76 1 136.5 -49t63.5 -128q5 -82 -54 -136t-138 -55q-76 -1 -136.5 49t-64.5 128z" />
    <glyph glyph-name="Udieresisgrave" unicode="&#x1db;" horiz-adv-x="1952" 
d="M89 0zM1514 2048h453l-233 -1351q-36 -235 -162.5 -398t-319 -247.5t-424.5 -82.5q-216 2 -388 88.5t-261.5 248t-60.5 390.5l232 1352h453l-230 -1337q-21 -146 59 -232.5t225 -90.5q154 -5 276 81.5t150 242.5zM1275 2739l140 -252l-208 -1l-210 251zM1347 2294
q-5 79 52.5 124.5t130.5 46.5q72 1 131.5 -41.5t63.5 -118.5q5 -80 -51.5 -125.5t-130.5 -46.5q-72 -1 -132 41.5t-64 119.5zM784 2294q-5 78 52 124t130 47q71 1 131.5 -41.5t65.5 -118.5q5 -80 -53 -125.5t-132 -46.5q-72 -1 -130.5 41.5t-63.5 119.5z" />
    <glyph glyph-name="udieresisgrave" unicode="&#x1dc;" horiz-adv-x="1656" 
d="M82 0zM1003 720l140 816h449l-267 -1536h-414l41 167l-7 -1q-81 -92 -190 -142t-233 -47q-168 4 -267 91t-136 223t-20 285l163 960h449l-161 -945q-12 -89 20.5 -166t135.5 -82t163.5 56t91 150t42.5 171zM1055 2554l205 -431l-335 -1l-313 430zM472 1872q-4 82 55 136
t138 55q76 1 136.5 -49t63.5 -128q5 -82 -54 -136t-138 -55q-76 -1 -136.5 49t-64.5 128zM1151 1872q-4 82 55 136t138 55q76 1 136.5 -49t63.5 -128q5 -82 -54 -136t-138 -55q-76 -1 -136.5 49t-64.5 128z" />
    <glyph glyph-name="eturn" unicode="&#x1dd;" horiz-adv-x="1568" 
d="M67 0zM805 1515q202 -2 343.5 -100.5t208 -261t43.5 -357.5l-7 -52q-28 -204 -126 -381.5t-260.5 -285.5t-385.5 -105q-195 3 -321 95t-179.5 244.5t-29.5 336.5l40 244h1117l-52 -292l-682 1l-10 -40q-18 -90 10.5 -158.5t131.5 -71.5q108 -4 172 64t96.5 166t45.5 183
l7 53q12 88 -4.5 169.5t-71 135t-156.5 56.5q-112 4 -214 -22.5t-204 -69.5l-87 289q73 63 172 98.5t205 49t198 12.5z" />
    <glyph glyph-name="Adieresismacron" unicode="&#x1de;" horiz-adv-x="2168" 
d="M0 0zM428 0h-504l1088 2048h484l389 -2048h-482l-58 384h-725zM1165 1471l-371 -713l495 -2l-103 714zM1918 2828l-41 -238h-928l42 238h927zM1455 2294q-5 79 52.5 124.5t130.5 46.5q71 1 131 -41.5t64 -118.5q5 -80 -51.5 -125.5t-130.5 -46.5q-72 -1 -132 41.5
t-64 119.5zM892 2294q-5 78 52 124t130 47q71 1 131.5 -41.5t65.5 -118.5q5 -80 -53 -125.5t-132 -46.5q-71 -1 -130.5 41.5t-63.5 119.5z" />
    <glyph glyph-name="adieresismacron" unicode="&#x1df;" horiz-adv-x="1552" 
d="M16 0zM807 0l24 135h-4q-65 -89 -160.5 -127t-203.5 -37q-132 2 -234 59t-157.5 159t-47.5 236q8 133 70 225t159 150.5t212.5 88.5t230.5 39q39 3 92.5 7t99.5 23t60 65l7 32q10 67 -36.5 102t-106.5 37q-86 3 -144.5 -47.5t-86.5 -126.5l-413 63q28 164 136.5 269.5
t258.5 155.5t302 48q154 -2 282.5 -61t200 -173t53.5 -282l-177 -1040h-417zM857 491l50 201q-32 -26 -73.5 -35.5t-81.5 -15.5q-97 -14 -184.5 -54t-104.5 -152q-10 -62 24 -96.5t95 -36.5q86 -3 170 49.5t105 139.5zM1548 2439l-42 -238h-927l42 238h927zM448 1872
q-4 82 55 136t138 55q76 1 136.5 -49t63.5 -128q4 -82 -54.5 -136t-137.5 -55q-76 -1 -136.5 49t-64.5 128zM1127 1872q-4 82 55 136t138 55q76 1 136.5 -49t63.5 -128q4 -82 -54.5 -136t-137.5 -55q-76 -1 -136.5 49t-64.5 128z" />
    <glyph glyph-name="Adotmacron" unicode="&#x1e0;" horiz-adv-x="2168" 
d="M0 0zM428 0h-504l1088 2048h484l389 -2048h-482l-58 384h-725zM1165 1471l-371 -713l495 -2l-103 714zM1917 2825l-42 -238h-927l42 238h927zM1174 2305q-4 79 53.5 124.5t130.5 46.5q71 1 130.5 -41.5t64.5 -118.5q5 -79 -52 -125t-131 -47q-72 -1 -131.5 41.5
t-64.5 119.5z" />
    <glyph glyph-name="adotmacron" unicode="&#x1e1;" horiz-adv-x="1552" 
d="M16 0zM807 0l24 135h-4q-65 -89 -160.5 -127t-203.5 -37q-132 2 -234 59t-157.5 159t-47.5 236q8 133 70 225t159 150.5t212.5 88.5t230.5 39q39 3 92.5 7t99.5 23t60 65l7 32q10 67 -36.5 102t-106.5 37q-86 3 -144.5 -47.5t-86.5 -126.5l-413 63q28 164 136.5 269.5
t258.5 155.5t302 48q154 -2 282.5 -61t200 -173t53.5 -282l-177 -1040h-417zM857 491l50 201q-32 -26 -73.5 -35.5t-81.5 -15.5q-97 -14 -184.5 -54t-104.5 -152q-10 -62 24 -96.5t95 -36.5q86 -3 170 49.5t105 139.5zM1562 2519l-42 -238h-927l42 238h927zM781 1922
q-4 94 58.5 152t153.5 58q87 0 149.5 -53.5t66.5 -142.5q3 -93 -59.5 -151t-153.5 -58q-86 -1 -149 52.5t-66 142.5z" />
    <glyph glyph-name="AEmacron" unicode="&#x1e2;" horiz-adv-x="2744" 
d="M0 0zM2460 364l-64 -364h-1198l57 383l-568 1l-240 -384h-525l1356 2048h1392l-64 -364h-750l-70 -479l629 -1l-63 -360h-610l-70 -479zM905 758l396 -2l106 781zM2062 2436l-37 -236h-926l37 236h926z" />
    <glyph glyph-name="aemacron" unicode="&#x1e3;" horiz-adv-x="2444" 
d="M23 0zM176 1083q28 164 136.5 269.5t258.5 155.5t302 49q105 -1 211.5 -26.5t189.5 -93.5q98 58 204.5 89t220.5 29q211 -2 347 -100t195 -261t37 -361l-17 -143l-982 -98q-3 -111 54.5 -180.5t172.5 -72.5q105 -3 183.5 50t117.5 150l386 -106q-32 -154 -145 -257.5
t-263.5 -154.5t-294.5 -49q-134 1 -260 51t-199 170h-15q-77 -122 -211.5 -173t-272.5 -49q-137 1 -254 52.5t-186 152t-61 249.5q8 132 70 224.5t159.5 151t213 88.5t230.5 39q38 3 92 7t99.5 23t60.5 65l7 32q10 67 -36.5 101.5t-107.5 36.5q-85 3 -143.5 -47t-86.5 -126z
M1675 1193q-98 4 -167.5 -42t-118.5 -119.5t-84 -153.5l566 57q25 110 -27.5 182t-168.5 76zM865 491l49 201q-31 -26 -72.5 -35.5t-81.5 -15.5q-97 -14 -184.5 -54t-105.5 -152q-10 -62 24.5 -96.5t94.5 -36.5q87 -3 171 49.5t105 139.5zM1882 1996l-37 -236h-926l37 236
h926z" />
    <glyph glyph-name="Gbar" unicode="&#x1e4;" horiz-adv-x="2112" 
d="M1853 1098l-52 -339q-3 -12 -7 -24t-8 -23l185 4l-37 -200l-187 1q-133 -251 -358 -399.5t-516 -145.5q-219 2 -369 92t-236.5 239.5t-115 334t-3.5 376.5q27 203 107 394t210.5 342.5t309 239.5t401.5 87q203 -2 351 -86.5t246 -229.5t151 -329l-462 -63
q-28 126 -103 206t-210 85q-131 5 -227.5 -53.5t-161 -155.5t-102 -212.5t-52.5 -225.5q-12 -91 -14 -198t23 -203t91 -159t189 -65q101 -2 187.5 35t164.5 98l-310 -5l36 200l368 -3q5 11 9.5 22.5t7.5 22.5l22 74h-388l47 264z" />
    <glyph glyph-name="gbar" unicode="&#x1e5;" horiz-adv-x="1732" 
d="M1140 1528h446l-111 -611l208 -1l-48 -264h-201l-99 -584q-31 -212 -144 -359.5t-285.5 -223.5t-382.5 -73q-151 1 -302 48t-266 149l219 307q156 -129 352 -134q154 -3 250.5 78t127.5 230l25 105l-16 -1q-58 -89 -155.5 -127t-200.5 -36q-151 2 -249.5 69.5t-152 177
t-70 239t-2.5 255.5q15 136 64.5 275.5t134 256t205.5 186t279 65.5q97 -2 188.5 -44.5t126.5 -141.5h22zM507 773q-11 -83 -3.5 -171t53.5 -150t151 -66q130 -4 206.5 78.5t123.5 190.5l-368 -3l46 264l346 -1q8 100 -30.5 186t-155.5 91t-194 -59t-119.5 -162.5
t-55.5 -197.5z" />
    <glyph glyph-name="Gcaron" unicode="&#x1e6;" horiz-adv-x="2000" 
d="M124 0zM1865 1096l-57 -339q-36 -233 -169 -410.5t-332.5 -277.5t-435.5 -97q-218 2 -368 92t-236 240t-114.5 334.5t-3.5 375.5q27 203 107 394t211 342.5t309 240t402 86.5q202 -2 350 -86.5t246 -229.5t151 -329l-461 -63q-29 126 -104 206t-210 85q-132 5 -228 -53.5
t-160.5 -156t-102 -213t-52.5 -225.5q-13 -91 -14.5 -198t24 -203t92 -158.5t190.5 -65.5q178 -5 303.5 100.5t174.5 271.5l-397 -3l59 340h826zM1080 2536l165 -183l226 182l380 8l1 -27l-471 -384h-277l-380 386l-1 26z" />
    <glyph glyph-name="gcaron" unicode="&#x1e7;" horiz-adv-x="1652" 
d="M0 0zM1140 1528h446l-251 -1459q-31 -213 -143.5 -360.5t-285 -223.5t-382.5 -73q-151 1 -302.5 48t-266.5 149l219 307q156 -129 351 -134q155 -3 251.5 78t127.5 230l25 105l-16 -1q-58 -89 -155.5 -126.5t-200.5 -36.5q-151 2 -249 69.5t-152 177.5t-70 239.5
t-2 255.5q14 136 63.5 275t134.5 255.5t205.5 186t277.5 65.5q98 -2 189.5 -44.5t126.5 -141.5h22zM506 772q-11 -83 -3 -171t54.5 -149.5t151.5 -64.5q113 -4 185 56t111 154t52 190q7 57 8.5 125.5t-14 131t-57 104t-119.5 44.5q-116 5 -193.5 -59t-120 -163t-55.5 -198z
M759 2112l165 -183l226 182l380 8l1 -27l-471 -384h-277l-380 386l-1 26z" />
    <glyph glyph-name="Kcaron" unicode="&#x1e8;" horiz-adv-x="2048" 
d="M0 0zM1228 0l-403 759l-294 -277l-84 -482h-452l355 2048h453l-160 -860l19 1l897 859l626 -1l-1032 -967l602 -1080h-527zM920 2536l165 -183l226 182l380 8l1 -27l-471 -384h-277l-380 386l-1 26z" />
    <glyph glyph-name="kcaron" unicode="&#x1e9;" horiz-adv-x="1588" 
d="M0 0zM928 0l-262 582l-146 -142l-76 -440h-449l355 2048h449l-188 -1024h12l484 512l550 -1l-668 -674l408 -861h-469zM932 2536l165 -183l226 182l380 8l1 -27l-471 -384h-277l-380 386l-1 26z" />
    <glyph glyph-name="Oogonek" unicode="&#x1ea;" horiz-adv-x="2040" 
d="M125 0zM1897 1026q-26 -202 -106.5 -391.5t-211 -340t-308.5 -238t-399 -84.5q-218 2 -367.5 92.5t-236 240.5t-115 334t-3.5 375q27 204 108 395t213 342.5t311.5 239.5t401.5 85q219 -3 367 -94.5t233 -243.5t111.5 -337.5t1.5 -374.5zM1440 1027q13 91 16 198.5
t-20.5 205.5t-88.5 162t-189 67q-133 4 -230.5 -53t-163 -154t-104 -212.5t-53.5 -227.5q-13 -93 -14.5 -199.5t23 -202.5t91.5 -158t191 -65q133 -4 228.5 52t160 151t101.5 209.5t52 226.5zM755 84l243 -90q-66 -36 -142 -87t-90 -135q-12 -76 58 -78q24 0 48 8t47 17
l38 -235q-46 -30 -102 -43t-111 -12q-127 1 -213.5 76.5t-84.5 207.5q2 141 96.5 229t212.5 142z" />
    <glyph glyph-name="oogonek" unicode="&#x1eb;" horiz-adv-x="1640" 
d="M62 0zM687 -28q-223 3 -364 115.5t-201 292t-38 382.5q23 216 126 397.5t275 290.5t401 106q221 -3 362.5 -113.5t202.5 -287.5t39 -381q-23 -215 -126.5 -399t-275.5 -295t-401 -108zM708 339q120 -4 194 63.5t112 169.5t50 202q7 63 7.5 134t-16.5 135t-62 105.5
t-128 44.5q-120 4 -194 -62.5t-111.5 -167.5t-49.5 -201q-8 -62 -8.5 -134t16.5 -137t62 -107t128 -45zM537 84l243 -90q-66 -36 -142 -87t-90 -135q-12 -76 58 -78q24 0 48 8t47 17l38 -235q-46 -30 -102 -43t-111 -12q-127 1 -213.5 76.5t-84.5 207.5q2 141 96.5 229
t212.5 142z" />
    <glyph glyph-name="Oogonekmacron" unicode="&#x1ec;" horiz-adv-x="2040" 
d="M125 0zM1897 1026q-26 -202 -106.5 -391.5t-211 -340t-308.5 -238t-399 -84.5q-218 2 -367.5 92.5t-236 240.5t-115 334t-3.5 375q27 204 108 395t213 342.5t311.5 239.5t401.5 85q219 -3 367 -94.5t233 -243.5t111.5 -337.5t1.5 -374.5zM1440 1027q13 91 16 198.5
t-20.5 205.5t-88.5 162t-189 67q-133 4 -230.5 -53t-163 -154t-104 -212.5t-53.5 -227.5q-13 -93 -14.5 -199.5t23 -202.5t91.5 -158t191 -65q133 -4 228.5 52t160 151t101.5 209.5t52 226.5zM755 84l243 -90q-66 -36 -142 -87t-90 -135q-12 -76 58 -78q24 0 48 8t47 17
l38 -235q-46 -30 -102 -43t-111 -12q-127 1 -213.5 76.5t-84.5 207.5q2 141 96.5 229t212.5 142zM1735 2420l-37 -236h-926l37 236h926z" />
    <glyph glyph-name="oogonekmacron" unicode="&#x1ed;" horiz-adv-x="1640" 
d="M62 0zM687 -28q-223 3 -364 115.5t-201 292t-38 382.5q23 216 126 397.5t275 290.5t401 106q221 -3 362.5 -113.5t202.5 -287.5t39 -381q-23 -215 -126.5 -399t-275.5 -295t-401 -108zM708 339q120 -4 194 63.5t112 169.5t50 202q7 63 7.5 134t-16.5 135t-62 105.5
t-128 44.5q-120 4 -194 -62.5t-111.5 -167.5t-49.5 -201q-8 -62 -8.5 -134t16.5 -137t62 -107t128 -45zM537 84l243 -90q-66 -36 -142 -87t-90 -135q-12 -76 58 -78q24 0 48 8t47 17l38 -235q-46 -30 -102 -43t-111 -12q-127 1 -213.5 76.5t-84.5 207.5q2 141 96.5 229
t212.5 142zM1410 1996l-37 -236h-926l37 236h926z" />
    <glyph glyph-name="Ezhcaron" unicode="&#x1ee;" horiz-adv-x="2080" 
d="M995 2460l165 -183l225 182l380 8l2 -27l-472 -384h-277l-380 386l-1 26zM66 106l447 -1q1 -152 62.5 -241t224.5 -94q158 -5 257 69.5t152 196.5t71 260q11 87 13 177.5t-19.5 168t-80 126t-169.5 51.5l-398 1l46 267l566 539l-903 2l65 376h1485l-45 -263l-602 -589
q155 -25 257.5 -111t158.5 -209.5t72.5 -264.5t-0.5 -275q-33 -254 -156.5 -456.5t-324.5 -320t-467 -114.5q-329 4 -514.5 194t-197.5 511z" />
    <glyph glyph-name="ezhcaron" unicode="&#x1ef;" horiz-adv-x="1824" 
d="M919 2100l134 -182l202 181l378 6l1 -31l-426 -350h-305l-342 355l-1 28zM366 1488h1315l-55 -314l-550 -492q148 -34 238 -130t126.5 -227t23.5 -271q-13 -154 -87.5 -267t-189.5 -187t-252.5 -109.5t-276.5 -33.5q-180 2 -323 70t-225 197.5t-81 317.5l431 -1
q-3 -105 55.5 -166t165.5 -63q79 -2 154.5 26.5t130 85.5t67.5 140q26 161 -39.5 256t-231.5 99l-201 1l50 285l512 425l-819 2z" />
    <glyph glyph-name="jcaron" unicode="&#x1f0;" horiz-adv-x="948" 
d="M0 0zM443 1536h449l-271 -1583q-36 -268 -216 -401t-442 -133l-189 1l63 360l70 -2q98 1 170.5 40.5t92.5 141.5zM538 2080l165 -183l226 182l380 8l1 -27l-471 -384h-277l-380 386l-1 26z" />
    <glyph glyph-name="DZ" unicode="&#x1f1;" horiz-adv-x="4040" 
d="M251 0zM979 0h-728l355 2048h678q298 -4 486 -142.5t264.5 -369t40.5 -508.5q-38 -293 -182 -526t-376.5 -368t-537.5 -134zM1242 1648h-253l-220 -1247l211 -2q194 -1 327 81.5t209.5 226t102.5 325.5q22 158 3 297t-107 227t-273 92zM3778 384l-67 -384h-1508l50 292
l1186 1370l-948 2l67 384h1507l-48 -292l-1187 -1370z" />
    <glyph glyph-name="Dz" unicode="&#x1f2;" horiz-adv-x="3760" 
d="M251 0zM979 0h-728l355 2048h678q298 -4 486 -142.5t264.5 -369t40.5 -508.5q-38 -293 -182 -526t-376.5 -368t-537.5 -134zM1242 1648h-253l-220 -1247l211 -2q194 -1 327 81.5t209.5 226t102.5 325.5q22 158 3 297t-107 227t-273 92zM3494 360l-62 -360h-1221l48 280
l808 894l-626 2l63 360h1178l-48 -280l-808 -894z" />
    <glyph glyph-name="Gacute" unicode="&#x1f4;" horiz-adv-x="2000" 
d="M124 0zM1865 1096l-57 -339q-36 -233 -169 -410.5t-332.5 -277.5t-435.5 -97q-218 2 -368 92t-236 240t-114.5 334.5t-3.5 375.5q27 203 107 394t211 342.5t309 240t402 86.5q202 -2 350 -86.5t246 -229.5t151 -329l-461 -63q-29 126 -104 206t-210 85q-132 5 -228 -53.5
t-160.5 -156t-102 -213t-52.5 -225.5q-13 -91 -14.5 -198t24 -203t92 -158.5t190.5 -65.5q178 -5 303.5 100.5t174.5 271.5l-397 -3l59 340h826zM1020 2104l331 432l487 -1l-436 -431h-382z" />
    <glyph glyph-name="gacute" unicode="&#x1f5;" horiz-adv-x="1652" 
d="M0 0zM1140 1528h446l-251 -1459q-31 -213 -143.5 -360.5t-285 -223.5t-382.5 -73q-151 1 -302.5 48t-266.5 149l219 307q156 -129 351 -134q155 -3 251.5 78t127.5 230l25 105l-16 -1q-58 -89 -155.5 -126.5t-200.5 -36.5q-151 2 -249 69.5t-152 177.5t-70 239.5
t-2 255.5q14 136 63.5 275t134.5 255.5t205.5 186t277.5 65.5q98 -2 189.5 -44.5t126.5 -141.5h22zM506 772q-11 -83 -3 -171t54.5 -149.5t151.5 -64.5q113 -4 185 56t111 154t52 190q7 57 8.5 125.5t-14 131t-57 104t-119.5 44.5q-116 5 -193.5 -59t-120 -163t-55.5 -198z
M699 1680l331 432l487 -1l-436 -431h-382z" />
    <glyph glyph-name="uni01F6" unicode="&#x1f6;" horiz-adv-x="2968" 
d="M799 2048l-151 -839l720 -1l146 840h449l-232 -1353q-11 -81 -2 -158.5t54.5 -129.5t143.5 -56q106 -4 176.5 43.5t111 127.5t56.5 174l135 792h449l-135 -792q-34 -220 -141 -385t-279 -255.5t-401 -87.5q-203 3 -359 95.5t-228.5 254t-23.5 372.5h-6l32 145l-725 1
l-145 -836h-449l355 2048h449z" />
    <glyph glyph-name="uni01F7" unicode="&#x1f7;" horiz-adv-x="2080" 
d="M849 2005l-9 -44q151 71 324 70q260 -1 423.5 -123.5t230.5 -324.5t36 -443l-10 -72q-36 -252 -164.5 -456.5t-318.5 -362.5t-414 -269.5t-451 -176.5l-74 -375h-445l447 2576zM1146 1660q-101 3 -189 -39t-166 -101l-251 -1336q190 92 368.5 212t306 284t167.5 388
l12 77q13 85 16.5 174t-16.5 165.5t-78.5 125t-169.5 50.5z" />
    <glyph glyph-name="uni01F8" unicode="&#x1f8;" horiz-adv-x="1952" 
d="M0 0zM1967 2048l-356 -2048h-432l-486 1261l-19 2l-227 -1263h-452l355 2048h436l482 -1261l19 -2l227 1263h453zM1248 2536l207 -431l-335 -1l-316 430z" />
    <glyph glyph-name="uni01F9" unicode="&#x1f9;" horiz-adv-x="1656" 
d="M0 0zM583 816l-139 -816h-449l266 1536l414 1l-41 -168l7 1q169 191 424 186q168 -3 266.5 -89.5t135.5 -221.5t20 -285l-163 -960h-448l161 946q12 89 -20 166t-136 81q-102 5 -163 -56t-91.5 -150t-43.5 -171zM959 2112l207 -431l-335 -1l-316 430z" />
    <glyph glyph-name="Aringacute" unicode="&#x1fa;" horiz-adv-x="2168" 
d="M0 0zM428 0h-504l1088 2048h484l389 -2048h-482l-58 384h-725zM1165 1471l-371 -713l495 -2l-103 714zM1228 2481l323 295l415 -1l-432 -295zM1016 2155q-1 121 89 198.5t206 75.5q108 -2 187.5 -73.5t81.5 -182.5q1 -122 -86.5 -197t-204.5 -73q-108 2 -189.5 71
t-83.5 181zM1180 2157q-7 -46 16 -81.5t72 -35.5q56 0 97 39.5t50 92.5q8 46 -13 80.5t-71 35.5q-57 2 -99 -37.5t-52 -93.5z" />
    <glyph glyph-name="aringacute" unicode="&#x1fb;" horiz-adv-x="1552" 
d="M16 0zM807 0l24 135h-4q-65 -89 -160.5 -127t-203.5 -37q-132 2 -234 59t-157.5 159t-47.5 236q8 133 70 225t159 150.5t212.5 88.5t230.5 39q39 3 92.5 7t99.5 23t60 65l7 32q10 67 -36.5 102t-106.5 37q-86 3 -144.5 -47.5t-86.5 -126.5l-413 63q28 164 136.5 269.5
t258.5 155.5t302 48q154 -2 282.5 -61t200 -173t53.5 -282l-177 -1040h-417zM857 491l50 201q-32 -26 -73.5 -35.5t-81.5 -15.5q-97 -14 -184.5 -54t-104.5 -152q-10 -62 24 -96.5t95 -36.5q86 -3 170 49.5t105 139.5zM850 2057l323 295l415 -1l-432 -295zM638 1731
q-1 121 89 198.5t206 75.5q108 -2 187.5 -73.5t81.5 -182.5q1 -122 -86.5 -197t-204.5 -73q-108 2 -189.5 71t-83.5 181zM802 1733q-7 -46 16 -81.5t72 -35.5q56 0 97 39.5t50 92.5q8 46 -13 80.5t-71 35.5q-57 2 -99 -37.5t-52 -93.5z" />
    <glyph glyph-name="AEacute" unicode="&#x1fc;" horiz-adv-x="2744" 
d="M0 0zM2460 364l-64 -364h-1198l57 383l-568 1l-240 -384h-525l1356 2048h1392l-64 -364h-750l-70 -479l629 -1l-63 -360h-610l-70 -479zM905 758l396 -2l106 781zM1347 2120l331 432l487 -1l-436 -431h-382z" />
    <glyph glyph-name="aeacute" unicode="&#x1fd;" horiz-adv-x="2444" 
d="M23 0zM176 1083q28 164 136.5 269.5t258.5 155.5t302 49q105 -1 211.5 -26.5t189.5 -93.5q98 58 204.5 89t220.5 29q211 -2 347 -100t195 -261t37 -361l-17 -143l-982 -98q-3 -111 54.5 -180.5t172.5 -72.5q105 -3 183.5 50t117.5 150l386 -106q-32 -154 -145 -257.5
t-263.5 -154.5t-294.5 -49q-134 1 -260 51t-199 170h-15q-77 -122 -211.5 -173t-272.5 -49q-137 1 -254 52.5t-186 152t-61 249.5q8 132 70 224.5t159.5 151t213 88.5t230.5 39q38 3 92 7t99.5 23t60.5 65l7 32q10 67 -36.5 101.5t-107.5 36.5q-85 3 -143.5 -47t-86.5 -126z
M1675 1193q-98 4 -167.5 -42t-118.5 -119.5t-84 -153.5l566 57q25 110 -27.5 182t-168.5 76zM865 491l49 201q-31 -26 -72.5 -35.5t-81.5 -15.5q-97 -14 -184.5 -54t-105.5 -152q-10 -62 24.5 -96.5t94.5 -36.5q87 -3 171 49.5t105 139.5zM1167 1680l331 432l487 -1
l-436 -431h-382z" />
    <glyph glyph-name="Oslashacute" unicode="&#x1fe;" horiz-adv-x="2040" 
d="M79 0zM267 -97l-188 150l185 204q-86 186 -113.5 369t0.5 388q27 204 108 395t212 342.5t309.5 239t403.5 85.5q120 -2 236 -35.5t213 -105.5l177 206l188 -150l-200 -222q75 -184 99 -364.5t-3 -378.5q-27 -203 -106.5 -392.5t-209.5 -339.5t-308 -237.5t-400 -84.5
q-115 1 -227 31.5t-208 95.5zM609 1016q-14 -91 -22.5 -182t-6.5 -182l782 935q-37 42 -93.5 57.5t-110.5 16.5q-134 4 -230.5 -53.5t-161 -153.5t-102.5 -211t-55 -227zM1438 1025q13 84 22 168.5t11 168.5l-766 -918q39 -33 91 -44.5t101 -12.5q134 -2 229 54t158 150.5
t99.5 208t54.5 225.5zM1038 2208l331 432l487 -1l-436 -431h-382z" />
    <glyph glyph-name="oslashacute" unicode="&#x1ff;" horiz-adv-x="1640" 
d="M37 0zM225 -98l-188 151l137 146q-127 271 -91 562q26 217 131 399t277.5 290.5t403.5 106.5q83 -1 163.5 -18.5t154.5 -56.5l123 140l188 -152l-130 -136q128 -267 93 -560q-26 -216 -131 -400t-278.5 -295t-404.5 -108q-85 1 -166.5 20t-155.5 59zM504 764
q-8 -46 -15 -92.5t-11 -93.5l500 595q-23 12 -49.5 17t-51.5 5q-122 3 -197.5 -62.5t-116 -166t-59.5 -202.5zM692 337q123 -4 198.5 63t116 168.5t58.5 203.5q9 46 15.5 92.5t11.5 92.5l-502 -597q23 -13 50 -18t52 -5zM582 1672l331 432l487 -1l-436 -431h-382z" />
    <glyph glyph-name="Adblgrave" unicode="&#x200;" horiz-adv-x="2168" 
d="M0 0zM428 0h-504l1088 2048h484l389 -2048h-482l-58 384h-725zM1165 1471l-371 -713l495 -2l-103 714zM1766 2150l-333 -2l-279 363l389 2zM1277 2150l-331 -2l-335 363l386 2z" />
    <glyph glyph-name="adblgrave" unicode="&#x201;" horiz-adv-x="1552" 
d="M16 0zM807 0l24 135h-4q-65 -89 -160.5 -127t-203.5 -37q-132 2 -234 59t-157.5 159t-47.5 236q8 133 70 225t159 150.5t212.5 88.5t230.5 39q39 3 92.5 7t99.5 23t60 65l7 32q10 67 -36.5 102t-106.5 37q-86 3 -144.5 -47.5t-86.5 -126.5l-413 63q28 164 136.5 269.5
t258.5 155.5t302 48q154 -2 282.5 -61t200 -173t53.5 -282l-177 -1040h-417zM857 491l50 201q-32 -26 -73.5 -35.5t-81.5 -15.5q-97 -14 -184.5 -54t-104.5 -152q-10 -62 24 -96.5t95 -36.5q86 -3 170 49.5t105 139.5zM1388 1726l-333 -2l-279 363l389 2zM899 1726l-331 -2
l-335 363l386 2z" />
    <glyph glyph-name="Ainvertedbreve" unicode="&#x202;" horiz-adv-x="2168" 
d="M0 0zM428 0h-504l1088 2048h484l389 -2048h-482l-58 384h-725zM1165 1471l-371 -713l495 -2l-103 714zM1836 2183l-298 1q3 78 -32 126t-119 51q-86 3 -146.5 -44t-72.5 -133l-299 -1q4 141 79 236.5t192.5 143t247.5 44.5q195 -4 320 -115t128 -309z" />
    <glyph glyph-name="ainvertedbreve" unicode="&#x203;" horiz-adv-x="1552" 
d="M16 0zM807 0l24 135h-4q-65 -89 -160.5 -127t-203.5 -37q-132 2 -234 59t-157.5 159t-47.5 236q8 133 70 225t159 150.5t212.5 88.5t230.5 39q39 3 92.5 7t99.5 23t60 65l7 32q10 67 -36.5 102t-106.5 37q-86 3 -144.5 -47.5t-86.5 -126.5l-413 63q28 164 136.5 269.5
t258.5 155.5t302 48q154 -2 282.5 -61t200 -173t53.5 -282l-177 -1040h-417zM857 491l50 201q-32 -26 -73.5 -35.5t-81.5 -15.5q-97 -14 -184.5 -54t-104.5 -152q-10 -62 24 -96.5t95 -36.5q86 -3 170 49.5t105 139.5zM1458 1759l-298 1q3 78 -32 126t-119 51
q-86 3 -146.5 -44t-72.5 -133l-299 -1q4 141 79 236.5t192.5 143t247.5 44.5q195 -4 320 -115t128 -309z" />
    <glyph glyph-name="Edblgrave" unicode="&#x204;" horiz-adv-x="1656" 
d="M0 0zM1391 384l-67 -384h-1329l355 2048h1330l-67 -384h-876l-84 -447l747 -1l-67 -384h-740l-84 -447zM1530 2150l-333 -2l-279 363l389 2zM1041 2150l-331 -2l-335 363l386 2z" />
    <glyph glyph-name="edblgrave" unicode="&#x205;" horiz-adv-x="1636" 
d="M56 0zM717 -29q-225 3 -375.5 104.5t-218 274.5t-45.5 388q24 223 130 410.5t283 299.5t414 109q208 -3 347.5 -101t202 -261.5t38.5 -362.5l-27 -192h-1237l46 296l810 -1q22 111 -33 182.5t-171 75.5q-124 4 -203 -67t-120.5 -177.5t-54.5 -210.5q-12 -91 -0.5 -182.5
t64 -153t165.5 -63.5q105 -3 181.5 50.5t115.5 149.5l386 -106q-32 -156 -143.5 -259t-260 -153.5t-294.5 -49.5zM1396 1726l-333 -2l-279 363l389 2zM907 1726l-331 -2l-335 363l386 2z" />
    <glyph glyph-name="Einvertedbreve" unicode="&#x206;" horiz-adv-x="1656" 
d="M0 0zM1391 384l-67 -384h-1329l355 2048h1330l-67 -384h-876l-84 -447l747 -1l-67 -384h-740l-84 -447zM1600 2183l-298 1q3 78 -32 126t-119 51q-86 3 -146.5 -44t-72.5 -133l-299 -1q4 141 79 236.5t192.5 143t247.5 44.5q195 -4 320 -115t128 -309z" />
    <glyph glyph-name="einvertedbreve" unicode="&#x207;" horiz-adv-x="1636" 
d="M56 0zM717 -29q-225 3 -375.5 104.5t-218 274.5t-45.5 388q24 223 130 410.5t283 299.5t414 109q208 -3 347.5 -101t202 -261.5t38.5 -362.5l-27 -192h-1237l46 296l810 -1q22 111 -33 182.5t-171 75.5q-124 4 -203 -67t-120.5 -177.5t-54.5 -210.5q-12 -91 -0.5 -182.5
t64 -153t165.5 -63.5q105 -3 181.5 50.5t115.5 149.5l386 -106q-32 -156 -143.5 -259t-260 -153.5t-294.5 -49.5zM1466 1759l-298 1q3 78 -32 126t-119 51q-86 3 -146.5 -44t-72.5 -133l-299 -1q4 141 79 236.5t192.5 143t247.5 44.5q195 -4 320 -115t128 -309z" />
    <glyph glyph-name="Idblgrave" unicode="&#x208;" horiz-adv-x="752" 
d="M0 0zM803 2048l-356 -2048h-452l355 2048h453zM1058 2150l-333 -2l-279 363l389 2zM569 2150l-331 -2l-335 363l386 2z" />
    <glyph glyph-name="idblgrave" unicode="&#x209;" horiz-adv-x="780" 
d="M0 0zM727 1536l-267 -1536h-449l267 1536h449zM995 1694l-333 -2l-279 363l389 2zM506 1694l-331 -2l-335 363l386 2z" />
    <glyph glyph-name="Iinvertedbreve" unicode="&#x20a;" horiz-adv-x="752" 
d="M0 0zM803 2048l-356 -2048h-452l355 2048h453zM1128 2183l-298 1q3 78 -32 126t-119 51q-86 3 -146.5 -44t-72.5 -133l-299 -1q4 141 79 236.5t192.5 143t247.5 44.5q195 -4 320 -115t128 -309z" />
    <glyph glyph-name="iinvertedbreve" unicode="&#x20b;" horiz-adv-x="780" 
d="M11 0zM727 1536l-267 -1536h-449l267 1536h449zM1065 1727l-298 1q3 78 -32 126t-119 51q-86 3 -146.5 -44t-72.5 -133l-299 -1q4 141 79 236.5t192.5 143t247.5 44.5q195 -4 320 -115t128 -309z" />
    <glyph glyph-name="Odblgrave" unicode="&#x20c;" horiz-adv-x="2040" 
d="M125 0zM1897 1026q-26 -202 -106.5 -391.5t-211 -340t-308.5 -238t-399 -84.5q-218 2 -367.5 92.5t-236 240.5t-115 334t-3.5 375q27 204 108 395t213 342.5t311.5 239.5t401.5 85q219 -3 367 -94.5t233 -243.5t111.5 -337.5t1.5 -374.5zM1440 1027q13 91 16 198.5
t-20.5 205.5t-88.5 162t-189 67q-133 4 -230.5 -53t-163 -154t-104 -212.5t-53.5 -227.5q-13 -93 -14.5 -199.5t23 -202.5t91.5 -158t191 -65q133 -4 228.5 52t160 151t101.5 209.5t52 226.5zM1706 2150l-333 -2l-279 363l389 2zM1217 2150l-331 -2l-335 363l386 2z" />
    <glyph glyph-name="odblgrave" unicode="&#x20d;" horiz-adv-x="1640" 
d="M62 0zM687 -28q-223 3 -364 115.5t-201 292t-38 382.5q23 216 126 397.5t275 290.5t401 106q221 -3 362.5 -113.5t202.5 -287.5t39 -381q-23 -215 -126.5 -399t-275.5 -295t-401 -108zM708 339q120 -4 194 63.5t112 169.5t50 202q7 63 7.5 134t-16.5 135t-62 105.5
t-128 44.5q-120 4 -194 -62.5t-111.5 -167.5t-49.5 -201q-8 -62 -8.5 -134t16.5 -137t62 -107t128 -45zM1380 1726l-333 -2l-279 363l389 2zM891 1726l-331 -2l-335 363l386 2z" />
    <glyph glyph-name="Oinvertedbreve" unicode="&#x20e;" horiz-adv-x="2040" 
d="M125 0zM1897 1026q-26 -202 -106.5 -391.5t-211 -340t-308.5 -238t-399 -84.5q-218 2 -367.5 92.5t-236 240.5t-115 334t-3.5 375q27 204 108 395t213 342.5t311.5 239.5t401.5 85q219 -3 367 -94.5t233 -243.5t111.5 -337.5t1.5 -374.5zM1440 1027q13 91 16 198.5
t-20.5 205.5t-88.5 162t-189 67q-133 4 -230.5 -53t-163 -154t-104 -212.5t-53.5 -227.5q-13 -93 -14.5 -199.5t23 -202.5t91.5 -158t191 -65q133 -4 228.5 52t160 151t101.5 209.5t52 226.5zM1776 2183l-298 1q3 78 -32 126t-119 51q-86 3 -146.5 -44t-72.5 -133l-299 -1
q4 141 79 236.5t192.5 143t247.5 44.5q195 -4 320 -115t128 -309z" />
    <glyph glyph-name="oinvertedbreve" unicode="&#x20f;" horiz-adv-x="1640" 
d="M62 0zM687 -28q-223 3 -364 115.5t-201 292t-38 382.5q23 216 126 397.5t275 290.5t401 106q221 -3 362.5 -113.5t202.5 -287.5t39 -381q-23 -215 -126.5 -399t-275.5 -295t-401 -108zM708 339q120 -4 194 63.5t112 169.5t50 202q7 63 7.5 134t-16.5 135t-62 105.5
t-128 44.5q-120 4 -194 -62.5t-111.5 -167.5t-49.5 -201q-8 -62 -8.5 -134t16.5 -137t62 -107t128 -45zM1450 1759l-298 1q3 78 -32 126t-119 51q-86 3 -146.5 -44t-72.5 -133l-299 -1q4 141 79 236.5t192.5 143t247.5 44.5q195 -4 320 -115t128 -309z" />
    <glyph glyph-name="Rdblgrave" unicode="&#x210;" horiz-adv-x="1796" 
d="M0 0zM1073 0l-227 752h-268l-131 -752h-452l355 2048h740q196 -3 345.5 -75.5t227 -212t56.5 -344.5q-20 -202 -127.5 -351t-292.5 -229l259 -836h-485zM736 1664l-95 -530l293 -5q130 0 222.5 72.5t112.5 204.5q17 110 -32 181.5t-164 75.5zM1582 2150l-333 -2l-279 363
l389 2zM1093 2150l-331 -2l-335 363l386 2z" />
    <glyph glyph-name="rdblgrave" unicode="&#x211;" horiz-adv-x="1160" 
d="M0 0zM1209 1510l-181 -389q-29 16 -62 23t-65 8q-122 2 -204 -82.5t-103 -197.5l-150 -872h-449l266 1536h450l-48 -199l6 1q46 108 125.5 165t199.5 55q111 -2 215 -48zM1228 1726l-333 -2l-279 363l389 2zM739 1726l-331 -2l-335 363l386 2z" />
    <glyph glyph-name="Rinvertedbreve" unicode="&#x212;" horiz-adv-x="1796" 
d="M0 0zM1073 0l-227 752h-268l-131 -752h-452l355 2048h740q196 -3 345.5 -75.5t227 -212t56.5 -344.5q-20 -202 -127.5 -351t-292.5 -229l259 -836h-485zM736 1664l-95 -530l293 -5q130 0 222.5 72.5t112.5 204.5q17 110 -32 181.5t-164 75.5zM1652 2183l-298 1
q3 78 -32 126t-119 51q-86 3 -146.5 -44t-72.5 -133l-299 -1q4 141 79 236.5t192.5 143t247.5 44.5q195 -4 320 -115t128 -309z" />
    <glyph glyph-name="rinvertedbreve" unicode="&#x213;" horiz-adv-x="1160" 
d="M0 0zM1209 1510l-181 -389q-29 16 -62 23t-65 8q-122 2 -204 -82.5t-103 -197.5l-150 -872h-449l266 1536h450l-48 -199l6 1q46 108 125.5 165t199.5 55q111 -2 215 -48zM1298 1759l-298 1q3 78 -32 126t-119 51q-86 3 -146.5 -44t-72.5 -133l-299 -1q4 141 79 236.5
t192.5 143t247.5 44.5q195 -4 320 -115t128 -309z" />
    <glyph glyph-name="Udblgrave" unicode="&#x214;" horiz-adv-x="1952" 
d="M89 0zM1514 2048h453l-233 -1351q-36 -235 -162.5 -398t-319 -247.5t-424.5 -82.5q-216 2 -388 88.5t-261.5 248t-60.5 390.5l232 1352h453l-230 -1337q-21 -146 59 -232.5t225 -90.5q154 -5 276 81.5t150 242.5zM1658 2150l-333 -2l-279 363l389 2zM1169 2150l-331 -2
l-335 363l386 2z" />
    <glyph glyph-name="udblgrave" unicode="&#x215;" horiz-adv-x="1656" 
d="M82 0zM1003 720l140 816h449l-267 -1536h-414l41 167l-7 -1q-81 -92 -190 -142t-233 -47q-168 4 -267 91t-136 223t-20 285l163 960h449l-161 -945q-12 -89 20.5 -166t135.5 -82t163.5 56t91 150t42.5 171zM1412 1726l-333 -2l-279 363l389 2zM923 1726l-331 -2l-335 363
l386 2z" />
    <glyph glyph-name="Uinvertedbreve" unicode="&#x216;" horiz-adv-x="1952" 
d="M89 0zM1514 2048h453l-233 -1351q-36 -235 -162.5 -398t-319 -247.5t-424.5 -82.5q-216 2 -388 88.5t-261.5 248t-60.5 390.5l232 1352h453l-230 -1337q-21 -146 59 -232.5t225 -90.5q154 -5 276 81.5t150 242.5zM1728 2183l-298 1q3 78 -32 126t-119 51
q-86 3 -146.5 -44t-72.5 -133l-299 -1q4 141 79 236.5t192.5 143t247.5 44.5q195 -4 320 -115t128 -309z" />
    <glyph glyph-name="uinvertedbreve" unicode="&#x217;" horiz-adv-x="1656" 
d="M82 0zM1003 720l140 816h449l-267 -1536h-414l41 167l-7 -1q-81 -92 -190 -142t-233 -47q-168 4 -267 91t-136 223t-20 285l163 960h449l-161 -945q-12 -89 20.5 -166t135.5 -82t163.5 56t91 150t42.5 171zM1482 1759l-298 1q3 78 -32 126t-119 51q-86 3 -146.5 -44
t-72.5 -133l-299 -1q4 141 79 236.5t192.5 143t247.5 44.5q195 -4 320 -115t128 -309z" />
    <glyph glyph-name="Scommaaccent" unicode="&#x218;" horiz-adv-x="1776" 
d="M39 0zM1289 1438q-2 244 -245 249q-67 2 -141.5 -16.5t-132.5 -62.5t-74 -120q-12 -58 18.5 -98.5t83 -68.5t108.5 -48t93 -37l50 -25q141 -62 262 -141.5t190 -196t54 -290.5q-18 -210 -139 -346.5t-300 -201.5t-372 -63q-214 2 -373 85t-245.5 237.5t-81.5 370.5h435
q-1 -142 70 -224t218 -85q74 -1 148.5 21.5t130.5 72t73 129.5q15 68 -16 118t-86.5 85.5t-118 60t-111.5 41.5l-37 13q-133 46 -250.5 126.5t-186 197t-57.5 271.5q12 151 88.5 262t195 183t256.5 106.5t272 32.5q294 -4 472.5 -172.5t175.5 -465.5h-427zM900 -116
l-38 -227q-25 -160 -85.5 -303.5t-180.5 -256.5l-220 112q51 107 99 203t69 216l43 256h313z" />
    <glyph glyph-name="scommaaccent" unicode="&#x219;" horiz-adv-x="1488" 
d="M15 0zM166 1097q6 119 68.5 206.5t160 144t209 83.5t214.5 25q222 -3 379 -128t188 -347l-399 -59q-14 63 -48 112t-104 59q-59 8 -127.5 -17t-84.5 -91q-11 -44 24 -66.5t82.5 -34t74.5 -21.5l81 -28q107 -40 195.5 -110t139 -167t43.5 -219q-10 -162 -107.5 -266
t-240 -153.5t-287.5 -48.5q-239 4 -406.5 134t-205.5 370l410 63q22 -75 65 -126.5t127 -60.5q61 -6 130.5 16.5t86.5 91.5q10 38 -18.5 66t-74.5 48t-90.5 33.5t-67.5 22.5l-87 32q-140 54 -239 165t-91 271zM702 -116l-38 -227q-25 -160 -85.5 -303.5t-180.5 -256.5
l-220 112q51 107 99 203t69 216l43 256h313z" />
    <glyph glyph-name="uni021A" unicode="&#x21a;" horiz-adv-x="1820" 
d="M221 0zM1901 2048l-67 -384h-582l-288 -1664h-450l294 1663l-587 1l67 384h1613zM891 -100l-38 -227q-25 -160 -85.5 -303.5t-180.5 -256.5l-220 112q51 107 99 203t69 216l43 256h313z" />
    <glyph glyph-name="uni021B" unicode="&#x21b;" horiz-adv-x="1048" 
d="M84 0zM1037 1536l-57 -320h-233l-126 -734q-8 -58 8 -91.5t79 -34.5q24 0 47.5 3.5t47.5 7.5l39 -346q-57 -35 -145 -39t-152 -2q-123 3 -212.5 65t-134 162.5t-32.5 220.5l133 788h-167l55 320h167l57 328h451l-63 -327zM608 -116l-38 -227q-25 -160 -85.5 -303.5
t-180.5 -256.5l-220 112q51 107 99 203t69 216l43 256h313z" />
    <glyph glyph-name="uni021C" unicode="&#x21c;" horiz-adv-x="1824" 
d="M239 410l36 351q100 32 221.5 67t244.5 81.5t230 112.5t180 158t93 219q19 124 -39.5 189.5t-183.5 68.5q-102 3 -193 -44.5t-108 -156.5l-449 -2q4 147 75.5 255.5t185 179.5t247.5 105.5t264 33.5q129 -1 252 -33.5t219 -99.5t147 -173t38 -255q-16 -173 -97 -313.5
t-216 -246.5q193 -167 170 -420q-20 -216 -121 -382.5t-258 -288.5t-346 -206.5t-387.5 -135.5t-380.5 -76l40 371q150 31 313 83.5t310 136.5t251 208.5t134 297.5q8 47 11.5 106t-34.5 97q-203 -97 -416.5 -166.5t-432.5 -121.5z" />
    <glyph glyph-name="uni021D" unicode="&#x21d;" horiz-adv-x="1568" 
d="M218 198l32 323q90 32 202 71.5t219 95.5t184 136t96 192q13 73 -10.5 120t-104.5 50q-71 3 -132 -26t-75 -104l-436 -2q3 122 61.5 210t152 144.5t203.5 83t216 24.5q101 -1 204 -23t188 -71.5t133.5 -131.5t40.5 -203q-11 -142 -75.5 -256t-172.5 -203
q81 -71 112.5 -165t22.5 -200q-13 -169 -96.5 -297.5t-213.5 -223t-284.5 -161t-312 -111t-293.5 -73.5l34 332q107 41 225.5 87.5t227 110t187.5 153.5t106 217q15 71 6 137q-149 -85 -315 -139t-332 -97z" />
    <glyph glyph-name="uni021E" unicode="&#x21e;" horiz-adv-x="1952" 
d="M0 0zM803 2048l-150 -831l716 -1l145 832h453l-356 -2048h-453l150 831l-716 1l-145 -832h-452l355 2048h453zM1104 2536l165 -183l226 182l380 8l1 -27l-471 -384h-277l-380 386l-1 26z" />
    <glyph glyph-name="uni021F" unicode="&#x21f;" horiz-adv-x="1612" 
d="M0 0zM583 816l-139 -816h-449l355 2048h433l-129 -679l7 1q163 191 408 185q163 -4 250.5 -94.5t115 -226t10.5 -274.5l-163 -960h-449l164 965q7 50 4 102t-29 88t-90 39q-101 5 -162 -56.5t-92.5 -151.5t-44.5 -170zM990 2664l165 -183l226 182l380 8l1 -27l-471 -384
h-277l-380 386l-1 26z" />
    <glyph glyph-name="uni0220" unicode="&#x220;" horiz-adv-x="1824" 
d="M1361 -572h-437l344 1998q34 243 -202 249q-87 2 -167.5 -25t-156.5 -64l-283 -1586h-433l347 2004l416 6l-13 -69q166 93 366 90q174 -2 309 -79t204.5 -213t48.5 -315z" />
    <glyph glyph-name="uni0221" unicode="&#x221;" horiz-adv-x="2336" 
d="M1921 -200q-6 -146 -86 -235t-201.5 -128.5t-250.5 -37.5q-86 2 -177.5 22.5t-165 71.5t-104.5 142l-282 -210l-153 289l418 296l34 121q-58 -84 -144.5 -121t-186.5 -35q-156 2 -254.5 77t-149.5 193t-64 254t1 262q15 137 64 278.5t133.5 260t206 189t281.5 66.5
q97 -2 188.5 -44.5t125.5 -141.5h19l127 679h449l-338 -1883q40 5 88 4q116 0 214 -40t155.5 -121.5t52.5 -207.5zM577 760q-9 -62 -9.5 -133.5t17 -136t62.5 -107t127 -45.5q120 -4 192.5 64.5t110 171t50.5 200.5q8 59 11 129.5t-11 135.5t-55.5 107.5t-122.5 46.5
q-120 4 -197.5 -62.5t-119.5 -168t-55 -202.5zM1321 -171q-8 -51 2 -100t75 -51q51 -1 94 28.5t53 81.5q10 50 -24.5 68.5t-75.5 19.5q-30 1 -59 -3.5t-58 -10.5z" />
    <glyph glyph-name="uni0222" unicode="&#x222;" horiz-adv-x="1824" 
d="M940 1332l31 -1q74 0 146.5 15t125 58.5t67.5 127.5q11 66 -15 94.5t-85 43.5l40 364q153 -8 273.5 -64t186.5 -164t54 -274q-10 -145 -85 -244.5t-201 -163.5q153 -210 129 -469q-21 -219 -139 -372t-299 -233t-391 -78h-27q-198 4 -352 83.5t-236.5 227t-62.5 354.5
q15 160 89 285.5t210 211.5q-160 159 -145 382q13 186 106.5 298.5t238.5 164.5t314 56l-41 -363q-65 -17 -106.5 -52.5t-53.5 -104.5q-14 -77 17.5 -116t89.5 -52t121 -15zM939 956l-28 1q-145 1 -239.5 -90.5t-115.5 -231.5q-17 -120 33.5 -204t178.5 -91l26 -1
q146 -1 241 87t115 230q18 121 -31.5 207t-179.5 93z" />
    <glyph glyph-name="uni0223" unicode="&#x223;" horiz-adv-x="1824" 
d="M960 1295q142 -1 243 63.5t124 213.5q11 74 -6.5 133.5t-89.5 89.5l38 347q246 -15 377.5 -164.5t110.5 -397.5q-13 -156 -84.5 -276t-208.5 -196q81 -103 111.5 -219t17.5 -246q-20 -217 -135.5 -367t-293.5 -228t-386 -77l-27 1q-197 3 -349 81t-231.5 223.5
t-60.5 352.5q15 159 87 283t210 206q-83 97 -113.5 208.5t-19.5 238.5q24 280 206 425.5t451 152.5l-38 -347q-81 -31 -127 -93.5t-59 -147.5q-21 -130 37 -192t186 -67zM937 940h-28q-143 2 -244 -84.5t-122 -228.5q-19 -124 37.5 -206.5t185.5 -88.5l27 -1
q145 -1 245 83.5t122 229.5q19 126 -36 208t-187 88z" />
    <glyph glyph-name="uni0224" unicode="&#x224;" horiz-adv-x="1824" 
d="M1803 1755l-1189 -1369l390 -3q163 -3 281 -71.5t175 -191t36 -288.5l-31 -192h-368l17 110q9 58 6.5 113.5t-32 93.5t-101.5 43h-998l47 293l1189 1369l-949 2l67 384l1507 1z" />
    <glyph glyph-name="zhook" unicode="&#x225;" horiz-adv-x="1544" 
d="M1418 1256l-806 -894l140 -2q163 -4 280.5 -72.5t174 -191.5t35.5 -288l-30 -192h-369l18 109q8 57 7.5 118.5t-28.5 106t-102 50.5h-743l48 280l808 894l-626 2l63 360h1179z" />
    <glyph glyph-name="uni0226" unicode="&#x226;" horiz-adv-x="2168" 
d="M0 0zM428 0h-504l1088 2048h484l389 -2048h-482l-58 384h-725zM1165 1471l-371 -713l495 -2l-103 714zM1122 2345q-3 93 59.5 150.5t152.5 57.5q86 1 149.5 -52t66.5 -142q3 -93 -59.5 -150.5t-152.5 -57.5q-86 -1 -149.5 52t-66.5 142z" />
    <glyph glyph-name="uni0227" unicode="&#x227;" horiz-adv-x="1552" 
d="M16 0zM807 0l24 135h-4q-65 -89 -160.5 -127t-203.5 -37q-132 2 -234 59t-157.5 159t-47.5 236q8 133 70 225t159 150.5t212.5 88.5t230.5 39q39 3 92.5 7t99.5 23t60 65l7 32q10 67 -36.5 102t-106.5 37q-86 3 -144.5 -47.5t-86.5 -126.5l-413 63q28 164 136.5 269.5
t258.5 155.5t302 48q154 -2 282.5 -61t200 -173t53.5 -282l-177 -1040h-417zM857 491l50 201q-32 -26 -73.5 -35.5t-81.5 -15.5q-97 -14 -184.5 -54t-104.5 -152q-10 -62 24 -96.5t95 -36.5q86 -3 170 49.5t105 139.5zM745 1921q-3 93 59.5 150.5t152.5 57.5q86 1 149.5 -52
t66.5 -142q3 -93 -59.5 -150.5t-152.5 -57.5q-86 -1 -149.5 52t-66.5 142z" />
    <glyph glyph-name="uni0228" unicode="&#x228;" horiz-adv-x="1656" 
d="M0 0zM1391 384l-67 -384h-1329l355 2048h1330l-67 -384h-876l-84 -447l747 -1l-67 -384h-740l-84 -447zM575 32l331 2l-31 -96q83 -15 125 -78.5t42 -144.5q0 -106 -51 -173.5t-131.5 -105t-173 -53.5t-176.5 -18l11 260q55 2 98.5 27.5t56.5 83.5q10 46 -18 64t-69 21.5
t-72 5.5z" />
    <glyph glyph-name="uni0229" unicode="&#x229;" horiz-adv-x="1636" 
d="M56 0zM717 -29q-225 3 -375.5 104.5t-218 274.5t-45.5 388q24 223 130 410.5t283 299.5t414 109q208 -3 347.5 -101t202 -261.5t38.5 -362.5l-27 -192h-1237l46 296l810 -1q22 111 -33 182.5t-171 75.5q-124 4 -203 -67t-120.5 -177.5t-54.5 -210.5q-12 -91 -0.5 -182.5
t64 -153t165.5 -63.5q105 -3 181.5 50.5t115.5 149.5l386 -106q-32 -156 -143.5 -259t-260 -153.5t-294.5 -49.5zM498 16l331 2l-31 -96q83 -15 125 -78.5t42 -144.5q0 -106 -51 -173.5t-131.5 -105t-173 -53.5t-176.5 -18l11 260q55 2 98.5 27.5t56.5 83.5q10 46 -18 64
t-69 21.5t-72 5.5z" />
    <glyph glyph-name="uni022A" unicode="&#x22a;" horiz-adv-x="2040" 
d="M125 0zM1897 1026q-26 -202 -106.5 -391.5t-211 -340t-308.5 -238t-399 -84.5q-218 2 -367.5 92.5t-236 240.5t-115 334t-3.5 375q27 204 108 395t213 342.5t311.5 239.5t401.5 85q219 -3 367 -94.5t233 -243.5t111.5 -337.5t1.5 -374.5zM1440 1027q13 91 16 198.5
t-20.5 205.5t-88.5 162t-189 67q-133 4 -230.5 -53t-163 -154t-104 -212.5t-53.5 -227.5q-13 -93 -14.5 -199.5t23 -202.5t91.5 -158t191 -65q133 -4 228.5 52t160 151t101.5 209.5t52 226.5zM1858 2828l-41 -238h-928l42 238h927zM1395 2294q-5 79 52.5 124.5t130.5 46.5
q71 1 131 -41.5t64 -118.5q5 -80 -51.5 -125.5t-130.5 -46.5q-72 -1 -132 41.5t-64 119.5zM832 2294q-5 78 52 124t130 47q71 1 131.5 -41.5t65.5 -118.5q5 -80 -53 -125.5t-132 -46.5q-71 -1 -130.5 41.5t-63.5 119.5z" />
    <glyph glyph-name="uni022B" unicode="&#x22b;" horiz-adv-x="1640" 
d="M62 0zM687 -28q-223 3 -364 115.5t-201 292t-38 382.5q23 216 126 397.5t275 290.5t401 106q221 -3 362.5 -113.5t202.5 -287.5t39 -381q-23 -215 -126.5 -399t-275.5 -295t-401 -108zM708 339q120 -4 194 63.5t112 169.5t50 202q7 63 7.5 134t-16.5 135t-62 105.5
t-128 44.5q-120 4 -194 -62.5t-111.5 -167.5t-49.5 -201q-8 -62 -8.5 -134t16.5 -137t62 -107t128 -45zM1540 2439l-42 -238h-927l42 238h927zM440 1872q-4 82 55 136t138 55q76 1 136.5 -49t63.5 -128q4 -82 -54.5 -136t-137.5 -55q-76 -1 -136.5 49t-64.5 128zM1119 1872
q-4 82 55 136t138 55q76 1 136.5 -49t63.5 -128q4 -82 -54.5 -136t-137.5 -55q-76 -1 -136.5 49t-64.5 128z" />
    <glyph glyph-name="uni022C" unicode="&#x22c;" horiz-adv-x="2040" 
d="M125 0zM1897 1026q-26 -202 -106.5 -391.5t-211 -340t-308.5 -238t-399 -84.5q-218 2 -367.5 92.5t-236 240.5t-115 334t-3.5 375q27 204 108 395t213 342.5t311.5 239.5t401.5 85q219 -3 367 -94.5t233 -243.5t111.5 -337.5t1.5 -374.5zM1440 1027q13 91 16 198.5
t-20.5 205.5t-88.5 162t-189 67q-133 4 -230.5 -53t-163 -154t-104 -212.5t-53.5 -227.5q-13 -93 -14.5 -199.5t23 -202.5t91.5 -158t191 -65q133 -4 228.5 52t160 151t101.5 209.5t52 226.5zM1860 2842l-41 -238h-928l42 238h927zM1539 2472l174 -49q-3 -96 -58.5 -176.5
t-162.5 -80.5q-58 0 -108.5 25t-100.5 49.5t-105 22.5q-50 -3 -73.5 -42t-32.5 -80l-179 53q4 95 60.5 174t162.5 79q57 -1 107.5 -26t101.5 -49t106 -21q49 3 73.5 41.5t34.5 79.5z" />
    <glyph glyph-name="uni022D" unicode="&#x22d;" horiz-adv-x="1640" 
d="M62 0zM687 -28q-223 3 -364 115.5t-201 292t-38 382.5q23 216 126 397.5t275 290.5t401 106q221 -3 362.5 -113.5t202.5 -287.5t39 -381q-23 -215 -126.5 -399t-275.5 -295t-401 -108zM708 339q120 -4 194 63.5t112 169.5t50 202q7 63 7.5 134t-16.5 135t-62 105.5
t-128 44.5q-120 4 -194 -62.5t-111.5 -167.5t-49.5 -201q-8 -62 -8.5 -134t16.5 -137t62 -107t128 -45zM1554 2522l-41 -238h-928l42 238h927zM1274 2118l244 -15q-3 -93 -42 -181.5t-112.5 -145t-177.5 -54.5q-68 1 -125 32t-113.5 61t-121.5 30q-59 0 -90 -37.5t-42 -89.5
l-245 13q4 91 44 179.5t112.5 146t175.5 55.5q66 -1 123.5 -31.5t114.5 -60.5t123 -30q59 0 90 38t42 90z" />
    <glyph glyph-name="uni022E" unicode="&#x22e;" horiz-adv-x="2040" 
d="M125 0zM1897 1026q-26 -202 -106.5 -391.5t-211 -340t-308.5 -238t-399 -84.5q-218 2 -367.5 92.5t-236 240.5t-115 334t-3.5 375q27 204 108 395t213 342.5t311.5 239.5t401.5 85q219 -3 367 -94.5t233 -243.5t111.5 -337.5t1.5 -374.5zM1440 1027q13 91 16 198.5
t-20.5 205.5t-88.5 162t-189 67q-133 4 -230.5 -53t-163 -154t-104 -212.5t-53.5 -227.5q-13 -93 -14.5 -199.5t23 -202.5t91.5 -158t191 -65q133 -4 228.5 52t160 151t101.5 209.5t52 226.5zM1062 2345q-3 93 59.5 150.5t152.5 57.5q86 1 149.5 -52t66.5 -142
q3 -93 -59.5 -150.5t-152.5 -57.5q-86 -1 -149.5 52t-66.5 142z" />
    <glyph glyph-name="uni022F" unicode="&#x22f;" horiz-adv-x="1640" 
d="M62 0zM687 -28q-223 3 -364 115.5t-201 292t-38 382.5q23 216 126 397.5t275 290.5t401 106q221 -3 362.5 -113.5t202.5 -287.5t39 -381q-23 -215 -126.5 -399t-275.5 -295t-401 -108zM708 339q120 -4 194 63.5t112 169.5t50 202q7 63 7.5 134t-16.5 135t-62 105.5
t-128 44.5q-120 4 -194 -62.5t-111.5 -167.5t-49.5 -201q-8 -62 -8.5 -134t16.5 -137t62 -107t128 -45zM736 1921q-3 93 59.5 150.5t152.5 57.5q86 1 149.5 -52t66.5 -142q3 -93 -59.5 -150.5t-152.5 -57.5q-86 -1 -149.5 52t-66.5 142z" />
    <glyph glyph-name="uni0230" unicode="&#x230;" horiz-adv-x="2040" 
d="M125 0zM1897 1026q-26 -202 -106.5 -391.5t-211 -340t-308.5 -238t-399 -84.5q-218 2 -367.5 92.5t-236 240.5t-115 334t-3.5 375q27 204 108 395t213 342.5t311.5 239.5t401.5 85q219 -3 367 -94.5t233 -243.5t111.5 -337.5t1.5 -374.5zM1440 1027q13 91 16 198.5
t-20.5 205.5t-88.5 162t-189 67q-133 4 -230.5 -53t-163 -154t-104 -212.5t-53.5 -227.5q-13 -93 -14.5 -199.5t23 -202.5t91.5 -158t191 -65q133 -4 228.5 52t160 151t101.5 209.5t52 226.5zM1857 2825l-42 -238h-927l42 238h927zM1114 2305q-4 79 53.5 124.5t130.5 46.5
q71 1 130.5 -41.5t64.5 -118.5q5 -79 -52 -125t-131 -47q-72 -1 -131.5 41.5t-64.5 119.5z" />
    <glyph glyph-name="uni0231" unicode="&#x231;" horiz-adv-x="1640" 
d="M62 0zM687 -28q-223 3 -364 115.5t-201 292t-38 382.5q23 216 126 397.5t275 290.5t401 106q221 -3 362.5 -113.5t202.5 -287.5t39 -381q-23 -215 -126.5 -399t-275.5 -295t-401 -108zM708 339q120 -4 194 63.5t112 169.5t50 202q7 63 7.5 134t-16.5 135t-62 105.5
t-128 44.5q-120 4 -194 -62.5t-111.5 -167.5t-49.5 -201q-8 -62 -8.5 -134t16.5 -137t62 -107t128 -45zM1554 2519l-42 -238h-927l42 238h927zM773 1922q-4 94 58.5 152t153.5 58q87 0 149.5 -53.5t66.5 -142.5q3 -93 -59.5 -151t-153.5 -58q-86 -1 -149 52.5t-66 142.5z
" />
    <glyph glyph-name="uni0232" unicode="&#x232;" horiz-adv-x="2152" 
d="M272 0zM744 2050l333 -871l21 -1l636 870h517l-993 -1290l-132 -758h-453l143 801l-544 1246zM1787 2420l-37 -236h-926l37 236h926z" />
    <glyph glyph-name="uni0233" unicode="&#x233;" horiz-adv-x="1668" 
d="M0 0zM427 -27l28 49l-280 1513l453 1l126 -914l16 -1l449 915h477l-927 -1756q-86 -170 -232 -277t-343 -106q-62 1 -121.5 14.5t-117.5 33.5l136 350q133 -42 203 13t133 165zM1434 1996l-37 -236h-926l37 236h926z" />
    <glyph glyph-name="lcurl" unicode="&#x234;" horiz-adv-x="1216" 
d="M800 2048l-330 -1830q70 20 136 19q106 -1 188.5 -51.5t128.5 -136t41 -190.5q-6 -125 -74 -225t-175.5 -157t-230.5 -55q-133 3 -258.5 73.5t-181.5 195.5l-281 -209l-186 271l199 143q102 73 216 130l359 2022h449zM428 -115q-8 -48 2 -100.5t76 -51.5q42 2 73.5 37
t38.5 74q7 36 -13 60.5t-55 27.5q-29 3 -58.5 -2.5t-56.5 -10.5z" />
    <glyph glyph-name="ncurl" unicode="&#x235;" horiz-adv-x="2124" 
d="M583 816l-139 -816h-449l266 1536l414 1l-41 -168l7 1q169 191 425 186q168 -3 266.5 -89.5t135 -221.5t19.5 -285l-137 -741q70 19 136 18q105 -1 187.5 -52t128.5 -137t41 -191q-5 -125 -73.5 -224t-176 -155.5t-230.5 -54.5q-133 2 -258.5 72.5t-181.5 195.5
l-280 -209l-186 271l199 143q102 73 216 130l165 919q12 89 -20 166.5t-135 81.5q-103 5 -163.5 -56t-91.5 -150t-44 -171zM1308 -115q-8 -48 1.5 -100.5t75.5 -50.5q42 1 73.5 36t38.5 74q6 36 -13.5 60.5t-54.5 27.5q-28 2 -57.5 -3t-56.5 -10z" />
    <glyph glyph-name="tcurl" unicode="&#x236;" horiz-adv-x="1396" 
d="M1120 1536l-58 -320h-232l-91 -453q70 19 136 18q105 -1 188 -52t129.5 -137t41.5 -191q-6 -125 -74.5 -224.5t-176 -156.5t-230.5 -55q-133 3 -259 73.5t-179 197.5l-284 -210l-185 271l199 143q102 73 216 130l124 645l-188 1l58 320h181l57 328h451l-63 -327zM697 429
q-8 -48 2 -100.5t76 -51.5q42 2 73.5 37t38.5 74q7 35 -13 60t-55 28q-29 2 -58 -3t-57 -10z" />
    <glyph glyph-name="dotlessj" unicode="&#x237;" horiz-adv-x="948" 
d="M443 1536h449l-271 -1583q-36 -268 -216 -401t-442 -133l-189 1l63 360l70 -2q98 1 170.5 40.5t92.5 141.5z" />
    <glyph glyph-name="uni0238" unicode="&#x238;" horiz-adv-x="2592" 
d="M129 721l3 28q19 137 66 274t127.5 249.5t198.5 179.5t277 64q200 -4 319 -164l145 760h433l-146 -752q68 76 154 117.5t190 39.5q156 -2 253.5 -71.5t147.5 -181t62 -243t-4 -259.5l-3 -29q-19 -137 -65 -273.5t-125.5 -247.5t-196.5 -177t-277 -63q-202 4 -321 155
l-33 -127h-389l21 165q-73 -90 -167 -143t-213 -51q-151 2 -247.5 72t-147.5 181.5t-64 242t2 254.5zM568 750l-4 -28q-6 -52 -10 -117.5t7 -127t47.5 -102.5t109.5 -44q84 -3 147.5 36t111.5 104l101 548q-39 137 -189 142q-110 4 -176 -62t-99.5 -163t-45.5 -186z
M1921 738l4 28q7 55 11 121t-6.5 127.5t-48 102t-114.5 43.5q-79 3 -141 -30t-110 -94l-109 -586q21 -66 72.5 -93.5t118.5 -29.5q117 -4 183 59.5t97 160t43 191.5z" />
    <glyph glyph-name="uni0239" unicode="&#x239;" horiz-adv-x="2592" 
d="M130 726l4 28q18 136 65.5 272.5t128 248.5t198 178t276.5 63q107 -3 195.5 -50t144.5 -140l65 163h350l-23 -144q71 83 161 128.5t202 43.5q154 -3 251.5 -71.5t148 -179t63 -241.5t-2.5 -259l-4 -33q-18 -133 -65.5 -268.5t-128.5 -248.5t-197.5 -180t-272.5 -64
q-201 4 -320 159l-135 -703h-434l138 705q-69 -80 -157 -122t-195 -40q-151 3 -247 73.5t-146.5 183t-64 243.5t1.5 255zM569 754l-3 -28q-7 -52 -10.5 -117.5t7 -128t46.5 -104t110 -44.5q82 -4 145.5 31t111.5 98l107 573q-21 68 -72 96.5t-120 30.5q-110 3 -176.5 -61.5
t-99.5 -160t-46 -185.5zM1923 738l4 33q6 52 9 117t-8.5 126t-48.5 102t-110 44q-79 3 -141.5 -28.5t-110.5 -91.5l-109 -586q23 -65 74 -93.5t118 -29.5q110 -3 176 62t100 160.5t47 184.5z" />
    <glyph glyph-name="uni023A" unicode="&#x23a;" horiz-adv-x="2168" 
d="M2150 2176l-546 -707l282 -1469h-482l-58 384h-579l-493 -640l-313 1l211 255h-249l1090 2048h484l46 -253l295 381h312zM1166 1471l-313 -587l349 466l-15 120zM1039 758l252 -2l-39 254z" />
    <glyph glyph-name="uni023B" unicode="&#x23b;" horiz-adv-x="1984" 
d="M490 -211l-223 90l138 234q-185 187 -237 416t-19 485q28 204 108.5 395t212 342.5t311 239.5t403.5 86q106 -1 215 -28l118 206l223 -91l-123 -207q130 -113 202 -252t112 -305l-442 -62q-10 54 -25.5 106.5t-44.5 99.5l-619 -1148q45 -11 97 -12q154 -2 270 83.5
t170 226.5l438 -61q-55 -200 -191.5 -349.5t-323 -231.5t-389.5 -81q-131 1 -255 39zM608 1015q-17 -114 -23 -236t30 -234l598 1116q-14 1 -28.5 2t-28.5 1q-134 0 -230.5 -57.5t-160.5 -152.5t-102 -210t-55 -229z" />
    <glyph glyph-name="uni023C" unicode="&#x23c;" horiz-adv-x="1588" 
d="M1501 1029l-417 -79q-5 37 -12 73.5t-20 71.5l-385 -759q7 0 13 -0.5t12 -0.5q104 2 175 60t107 152l409 -74q-38 -161 -146.5 -274t-257 -171.5t-306.5 -56.5q-40 1 -79 5.5t-77 12.5l-277 -561h-259l325 644q-150 133 -199 313t-25 376q26 216 131 399t278.5 292
t404.5 105q27 -1 53 -3.5t52 -5.5l230 456h258l-266 -522q120 -81 185 -197.5t93 -255.5zM507 763q-11 -69 -17 -139t4 -140l359 715q-114 -15 -184.5 -80t-108 -159t-53.5 -197z" />
    <glyph glyph-name="L_bar" unicode="&#x23d;" horiz-adv-x="1824" 
d="M1120 1160l-47 -264h-244l-94 -511l809 -1l-67 -384h-1256l160 895l-274 1l47 264h268l154 888h453l-160 -887z" />
    <glyph glyph-name="uni023E" unicode="&#x23e;" horiz-adv-x="1824" 
d="M320 -72l-212 122l574 872l134 741l-588 1l67 384h1130l171 260l212 -125l-104 -133l207 -2l-70 -384h-377l-277 -421l-216 -1243h-450l60 325z" />
    <glyph glyph-name="uni023F" unicode="&#x23f;" horiz-adv-x="1416" 
d="M172 1096q7 120 70 207.5t160.5 144t210 83.5t216.5 25q221 -4 376.5 -129t185.5 -347l-399 -59q-13 63 -46 112.5t-103 59.5q-60 8 -129 -17.5t-87 -91.5q-12 -43 22 -65.5t81 -34t74 -21.5l80 -28q107 -40 194.5 -110t136.5 -167t41 -218q-10 -164 -109.5 -268
t-243.5 -153t-289 -48q-30 0 -60 2t-60 5q10 -41 26.5 -91.5t47 -88.5t83.5 -40q70 -2 132 34t114 77l126 -261q-83 -80 -190 -133t-224 -51q-118 3 -201.5 61t-141 147.5t-97.5 187.5l-181 451l55 33q-24 84 -35 172l412 63q20 -76 62.5 -127.5t126.5 -59.5q62 -7 131.5 16
t88.5 92q11 37 -17 65t-73 48t-89 33.5t-67 22.5l-87 32q-139 55 -236 166t-88 269z" />
    <glyph glyph-name="uni0240" unicode="&#x240;" horiz-adv-x="1544" 
d="M604 353l3 1q98 21 164.5 -10.5t112.5 -94.5t81.5 -139t71.5 -146.5t83 -116t116 -47.5q65 -1 126 36.5t108 77.5l118 -306q-77 -83 -188.5 -134.5t-226.5 -48.5q-116 2 -189.5 59t-125.5 140.5t-101 167.5t-114.5 143t-167.5 65h-480l48 280l808 894l-626 2l63 360h1178
l-48 -280z" />
    </font>
</defs>
</svg>
