<?xml version="1.0" standalone="no"?>
<!DOCTYPE svg PUBLIC "-//W3C//DTD SVG 1.1//EN" "http://www.w3.org/Graphics/SVG/1.1/DTD/svg11.dtd" >
<svg xmlns="http://www.w3.org/2000/svg" xmlns:xlink="http://www.w3.org/1999/xlink" version="1.1">
<metadata>
Created by FontForge 20170731 at Fri Jan 19 11:35:53 2018
 By ,,,
Copyright 2018 The Inter UI project authors
</metadata>
<defs>
<font id="InterUI-BoldItalic" horiz-adv-x="0" >
  <font-face 
    font-family="Inter UI"
    font-weight="700"
    font-style="italic"
    font-stretch="normal"
    units-per-em="2816"
    panose-1="2 11 8 2 3 0 0 0 0 4"
    ascent="2252"
    descent="-564"
    x-height="1536"
    bbox="-2100 -1088 4045 2976"
    underline-thickness="128"
    underline-position="-448"
    slope="-9.39999"
    unicode-range="U+0002-1F16B"
  />
<missing-glyph horiz-adv-x="2838" 
d="M262 2176v512h2304v-512h-2304zM262 1472v512h2304v-512h-2304zM262 768v512h2304v-512h-2304zM262 64v512h2304v-512h-2304zM262 -640v512h2304v-512h-2304z" />
    <glyph glyph-name="longst" unicode="&#x17f;t" horiz-adv-x="1978" 
d="M1073 2143q170 -1 331 -47t320 -100l-19 -134l6 1l-51 -327h261l-50 -288h-261l-132 -780q-9 -68 9.5 -113t94.5 -46q25 0 49 3.5t49 8.5l33 -304q-57 -24 -124.5 -30t-127.5 -4q-119 2 -206 60.5t-131 155t-33 212.5l141 837h-186l50 288l185 -1l36 176l-7 -1l15 82
q-47 25 -106 33t-112 9q-102 0 -166.5 -58.5t-81.5 -157.5l-279 -1618h-380l209 1205h-214l49 283h215l19 130q34 243 190 385t405 140z" />
    <glyph glyph-name=".notdef" horiz-adv-x="2838" 
d="M262 2176v512h2304v-512h-2304zM262 1472v512h2304v-512h-2304zM262 768v512h2304v-512h-2304zM262 64v512h2304v-512h-2304zM262 -640v512h2304v-512h-2304z" />
    <glyph glyph-name=".null" 
 />
    <glyph glyph-name="nonmarkingreturn" horiz-adv-x="938" 
 />
    <glyph glyph-name="controlSOT" 
 />
    <glyph glyph-name="controlHT" unicode="&#x9;" horiz-adv-x="800" 
 />
    <glyph glyph-name="CR" unicode="&#xd;" horiz-adv-x="800" 
 />
    <glyph glyph-name="space" unicode=" " horiz-adv-x="778" 
 />
    <glyph glyph-name="exclam" unicode="!" horiz-adv-x="790" 
d="M797 2048l-291 -1431h-312l205 1431h398zM269 -28q-92 0 -153.5 61t-63.5 153q-1 96 64 162t162 66q91 0 154 -61t64 -152q2 -97 -64.5 -163t-162.5 -66z" />
    <glyph glyph-name="quotedbl" unicode="&#x22;" horiz-adv-x="1117" 
d="M613 2048l-120 -764h-279l120 764h279zM1109 2048l-119 -764h-279l119 764h279z" />
    <glyph glyph-name="numbersign" unicode="#" horiz-adv-x="1814" 
d="M211 0l188 563l-311 2l42 236h340l139 410l-300 1l42 238h330l185 568h250l-189 -567l259 -1l184 568h252l-190 -567l304 -1l-43 -238h-332l-141 -410l294 -1l-42 -236h-323l-184 -565h-251l187 563l-258 3l-184 -566h-248zM716 802l258 -1l138 409l-258 2z" />
    <glyph glyph-name="dollar" unicode="$" horiz-adv-x="1815" 
d="M612 -256l48 230q-278 21 -439.5 195t-161.5 452h376q3 -268 263 -317l109 596l-65 20q-131 44 -245 120.5t-180 189.5t-55 265q11 141 78.5 246.5t172.5 177t230.5 109.5t252.5 44l48 232h188l-49 -238q242 -36 373.5 -198.5t132.5 -402.5h-365q-4 98 -44 165.5
t-136 99.5l-108 -543l12 -4q138 -54 257.5 -132t188.5 -192.5t55 -280.5q-15 -189 -116 -318t-255.5 -199.5t-329.5 -84.5l-48 -232h-188zM636 1492q-11 -68 23.5 -113.5t90 -75.5t107.5 -52l99 491q-69 -12 -138.5 -41t-119.5 -80.5t-62 -128.5zM1177 576q17 100 -44 157.5
t-142 96.5l-105 -520q102 27 187 91t104 175z" />
    <glyph glyph-name="percent" unicode="%" horiz-adv-x="2316" 
d="M338 1556l12 107q15 126 77 229t163.5 162.5t233.5 56.5q127 -3 213 -64.5t126 -162t28 -220.5l-12 -108q-15 -125 -76.5 -227.5t-162 -162t-232.5 -55.5q-126 2 -213 63t-127.5 161t-29.5 221zM2201 2083l-1778 -2118h-334l1779 2118h333zM619 1664l-13 -111
q-8 -67 10.5 -133.5t102.5 -69.5q89 -3 135 63t57 143l15 109q5 45 0.5 92t-30 80t-82.5 35q-89 3 -136 -63.5t-59 -144.5zM1125 384l12 107q14 126 76 229t163.5 163t234.5 56q126 -2 212 -64t126 -162.5t29 -220.5l-13 -108q-15 -125 -76 -228t-161.5 -163t-233.5 -56
q-126 2 -213 63.5t-127.5 162t-28.5 221.5zM1405 492l-14 -110q-5 -45 0.5 -91.5t31 -79t81.5 -34.5q90 -3 136 63t58 144l14 109q5 45 0.5 92.5t-30 80.5t-82.5 34q-89 4 -136 -63t-59 -145z" />
    <glyph glyph-name="ampersand" unicode="&#x26;" horiz-adv-x="1978" 
d="M534 1093l404 252q67 42 124 100t69 141q9 70 -33 120.5t-113 52.5q-95 2 -159 -65t-78 -155q-12 -76 16 -149.5t73.5 -141.5t83.5 -127l747 -1121h-403l-602 906q-60 93 -119.5 194t-95.5 209.5t-26 224.5q14 159 91.5 281.5t204 191.5t288.5 66q131 -3 234.5 -63
t160.5 -163.5t48 -237.5q-11 -152 -102 -265.5t-211 -195.5l-477 -320q-67 -48 -120 -116.5t-66 -152.5q-17 -112 46 -190t177 -82q136 -5 255 55t211 162.5t149.5 227t70.5 248.5l316 1q-12 -220 -109.5 -422t-274.5 -338q-24 -18 -52 -42q-261 -212 -600 -207
q-167 3 -300 72.5t-206 196.5t-59 301q10 131 76 230.5t162 177.5t199 143z" />
    <glyph glyph-name="quotesingle" unicode="'" horiz-adv-x="564" 
d="M603 2048l-120 -764h-279l120 764h279z" />
    <glyph glyph-name="parenleft" unicode="(" horiz-adv-x="1021" 
d="M725 -389l-301 5q-107 176 -158.5 381t-58 418.5t21.5 413.5q47 334 187.5 648t360.5 570l323 -1q-114 -199 -218 -390t-182.5 -393t-114.5 -434q-48 -303 -24 -621t164 -597z" />
    <glyph glyph-name="parenright" unicode=")" horiz-adv-x="1021" 
d="M-134 -388l304 2q229 245 372 568t196 652q49 310 10 620t-179 593l-319 1q55 -209 98 -404t57 -393.5t-17 -417.5q-47 -329 -178 -646.5t-344 -574.5z" />
    <glyph glyph-name="asterisk" unicode="*" horiz-adv-x="1517" 
d="M298 984l349 360l-403 132l114 232l398 -170l62 480h263l-110 -471l431 160l45 -256l-458 -130l219 -369l-218 -142l-182 392l-311 -378z" />
    <glyph glyph-name="plus" unicode="+" horiz-adv-x="1640" 
d="M1456 1052l-54 -312h-470l-84 -484h-305l85 484h-470l54 312h469l85 484h304l-84 -484h470z" />
    <glyph glyph-name="comma" unicode="," horiz-adv-x="787" 
d="M482 319l-43 -258q-26 -165 -111 -309t-207 -255l-214 89q56 116 120 220t88 234l49 279h318z" />
    <glyph glyph-name="hyphen" unicode="-" horiz-adv-x="1302" 
d="M1143 1015l-52 -293h-956l52 293h956z" />
    <glyph glyph-name="period" unicode="." horiz-adv-x="787" 
d="M269 -29q-91 0 -152.5 66.5t-62.5 155.5q-2 93 64.5 163.5t160.5 70.5q89 0 151 -65.5t64 -152.5q1 -94 -64 -166t-161 -72z" />
    <glyph glyph-name="slash" unicode="/" horiz-adv-x="1133" 
d="M1223 2048l-987 -2356h-346l986 2356h347z" />
    <glyph glyph-name="zero" unicode="0" horiz-adv-x="1697" 
d="M1577 1184l-48 -293q-27 -168 -87 -332t-159 -298t-243 -213t-338 -76q-190 3 -310 86.5t-182 218t-76 295t8 318.5l48 294q26 166 87.5 326.5t162.5 289.5t244.5 204t333.5 72q185 -3 303.5 -83t182 -210.5t79.5 -287t-6 -311.5zM1143 835l67 405q10 67 13 152.5
t-14 166t-66.5 134.5t-143.5 58q-103 4 -177 -43t-123.5 -125.5t-79 -170t-42.5 -174.5l-66 -404q-10 -68 -14 -157t12 -173.5t65.5 -142t146.5 -61.5q105 -4 179.5 46.5t123.5 133.5t77.5 177.5t41.5 177.5z" />
    <glyph glyph-name="one" unicode="1" horiz-adv-x="1356" 
d="M1137 2048l-355 -2048h-353l277 1539l-8 -1q-46 -64 -119.5 -93t-155.5 -37.5t-154 -9.5l35 318q102 2 200.5 42.5t173.5 115t105 177.5z" />
    <glyph glyph-name="two" unicode="2" horiz-adv-x="1686" 
d="M1416 332l-53 -332h-1358l47 300l754 674q70 64 149 141.5t139 167t76 189.5q17 113 -40.5 201t-178.5 91q-105 4 -177.5 -50.5t-113.5 -140.5t-50 -179l-369 -1q9 195 111 350.5t265.5 245.5t357.5 88q167 -3 302 -79t208 -209t57 -306q-15 -160 -101 -298.5
t-203.5 -257.5t-228.5 -221l-413 -357l-8 -23z" />
    <glyph glyph-name="three" unicode="3" horiz-adv-x="1686" 
d="M614 861l52 335l165 -1q140 1 242 85t121 226q15 115 -46.5 187.5t-177.5 76.5q-111 2 -202 -60.5t-107 -176.5l-368 -1q7 177 109.5 299t257 184.5t316.5 60.5q170 -1 310 -66t217.5 -190t63.5 -309q-14 -170 -125 -290t-258 -188q142 -65 210.5 -188t57.5 -277
q-15 -197 -129 -330.5t-283.5 -200.5t-352.5 -65q-173 2 -307 70.5t-209.5 195.5t-72.5 305h373q-3 -115 61.5 -184.5t180.5 -72.5q134 -4 241.5 73.5t125.5 214.5q20 144 -53.5 213.5t-210.5 72.5z" />
    <glyph glyph-name="four" unicode="4" horiz-adv-x="1727" 
d="M1576 726l-57 -331h-288l-69 -395h-342l69 395h-869l48 278l1052 1375h397l-229 -1322h288zM479 728l467 -2l141 811l-53 -77z" />
    <glyph glyph-name="five" unicode="5" horiz-adv-x="1686" 
d="M531 927l-315 81l278 1040h1103l-53 -337h-789l-146 -504v1q63 64 149.5 92t173.5 27q184 -1 305 -96t176 -245.5t38 -319.5q-19 -201 -121.5 -359.5t-267 -248.5t-368.5 -87q-281 5 -431 179.5t-152 444.5h367q5 -76 26 -146.5t70.5 -116t138.5 -48.5q108 -4 187.5 53
t126.5 147.5t59 187.5q11 94 -10 177t-81 135t-165 54q-175 3 -299 -111z" />
    <glyph glyph-name="six" unicode="6" horiz-adv-x="1678" 
d="M1204 1512q-21 100 -72 171.5t-163 76.5q-130 6 -215 -66.5t-135 -186.5t-76 -237t-39 -218l-45 -360q-10 -90 5.5 -183t71.5 -156.5t166 -66.5q107 -4 185 50t124.5 141.5t58.5 184.5q11 87 -7 168t-73.5 134t-155.5 56q-142 4 -246 -86.5t-120 -230.5l-125 76
q13 155 88.5 281.5t200.5 200.5t286 71q182 -3 304 -100.5t177.5 -250.5t39.5 -321q-19 -193 -121 -350.5t-263 -249t-359 -88.5q-191 2 -311 88t-181.5 224t-76.5 300.5t5 319.5l11 76q20 145 56 300t95.5 299.5t150.5 259t222.5 181t311.5 63.5q177 -3 296 -77.5
t187.5 -202.5t96.5 -292z" />
    <glyph glyph-name="seven" unicode="7" horiz-adv-x="1645" 
d="M1652 2048l-42 -269l-1006 -1779h-411l999 1711l-921 2l53 335h1328z" />
    <glyph glyph-name="eight" unicode="8" horiz-adv-x="1669" 
d="M1422 577q-17 -193 -122 -329.5t-266 -207.5t-346 -68q-174 2 -312 73.5t-212 202.5t-58 313q17 184 122 311t268 200q-201 172 -180 434q14 183 111.5 311.5t248 195t326.5 63.5q166 -2 294.5 -68.5t196.5 -189.5t53 -296q-14 -164 -104.5 -278.5t-233.5 -184.5
q240 -182 214 -482zM1174 1504q14 103 -35 177.5t-159 77.5q-121 3 -203.5 -76.5t-98.5 -195.5q-14 -102 33 -184t159 -85q123 -4 205.5 83t98.5 203zM1056 602q17 116 -39 209.5t-183 97.5q-92 2 -167.5 -42.5t-124 -119t-60.5 -161.5q-17 -117 42 -206t184 -92
q137 -4 233.5 89.5t114.5 224.5z" />
    <glyph glyph-name="nine" unicode="9" horiz-adv-x="1678" 
d="M465 536q21 -100 72 -171.5t164 -76.5q129 -6 214 66.5t135.5 186.5t76 237t38.5 218l45 360q10 90 -5.5 183t-71.5 156.5t-166 66.5q-107 4 -185 -50t-124 -141t-58 -184q-11 -87 7 -168t73 -134.5t155 -56.5q142 -4 246 86.5t120 230.5l125 -76q-13 -155 -88.5 -281.5
t-200.5 -201t-286 -71.5q-182 4 -304 101.5t-178 250t-39 320.5q19 194 120.5 351t263.5 249t359 90q191 -3 311 -89t181.5 -224t76.5 -301t-5 -319l-11 -76q-21 -145 -56.5 -300t-95 -299t-150.5 -259t-222.5 -181t-310.5 -64q-178 3 -297 77t-188 202.5t-96 292.5z" />
    <glyph glyph-name="colon" unicode=":" horiz-adv-x="787" 
d="M454 1038q-91 0 -152.5 66.5t-62.5 155.5q-2 93 64 163.5t161 70.5q89 0 151 -65.5t63 -152.5q2 -94 -63 -166t-161 -72zM269 -29q-91 0 -152.5 66.5t-62.5 155.5q-2 93 64.5 163.5t160.5 70.5q89 0 151 -65.5t64 -152.5q1 -94 -64 -166t-161 -72z" />
    <glyph glyph-name="semicolon" unicode=";" horiz-adv-x="787" 
d="M460 1073q-91 0 -152.5 66.5t-62.5 155.5q-2 93 64 163.5t161 70.5q89 0 151 -65.5t63 -152.5q2 -94 -63 -166t-161 -72zM482 319l-43 -258q-26 -165 -110.5 -309t-207.5 -255l-214 89q56 116 120 220t88 234l49 279h318z" />
    <glyph glyph-name="less" unicode="&#x3c;" horiz-adv-x="1302" 
d="M1031 373l-243 -200l-668 738l887 709l200 -231l-630 -484l-8 -19z" />
    <glyph glyph-name="equal" unicode="=" horiz-adv-x="1640" 
d="M328 1359h1120l-55 -310h-1120zM221 743h1120l-54 -310h-1120z" />
    <glyph glyph-name="greater" unicode="&#x3e;" horiz-adv-x="1302" 
d="M55 373l173 -199l922 737l-640 707l-278 -229l462 -485l1 -17z" />
    <glyph glyph-name="question" unicode="?" horiz-adv-x="1548" 
d="M873 617l-323 -2q9 136 63.5 234.5t131.5 176.5t155.5 151t138 156.5t76.5 196.5q15 97 -24.5 165.5t-145.5 71.5q-118 5 -188 -73.5t-86 -187.5l-372 -1q11 182 103.5 310.5t239.5 196t323 64.5q162 -2 285.5 -66t187.5 -183.5t49 -288.5q-11 -127 -71 -220.5t-144 -170
t-169.5 -152t-149 -166t-80.5 -212.5zM626 -22q-91 0 -154 60.5t-65 151.5q-1 97 65.5 163.5t162.5 66.5q91 0 153 -62t63 -152q2 -96 -63.5 -162t-161.5 -66z" />
    <glyph glyph-name="at" unicode="@" horiz-adv-x="2775" 
d="M1579 2026q249 -2 450.5 -85.5t340 -235t198.5 -359.5t26 -457q-20 -142 -61.5 -300t-117 -296t-195.5 -224t-298 -83q-77 1 -147 17.5t-114.5 63.5t-43.5 139l-8 -1q-71 -115 -204.5 -167t-264.5 -40q-145 13 -238 81t-143 172.5t-64 228.5t0 249q18 167 98.5 318.5
t213 254.5t307.5 124q61 8 151 2t168 -38.5t102 -106.5h15l26 116l286 -1l-172 -1004q-5 -43 8.5 -71t60.5 -32q78 -6 132.5 38t90 117.5t56.5 158t32.5 162t18.5 127.5q55 401 -133.5 617.5t-596.5 218.5q-221 2 -409 -77.5t-333.5 -220.5t-240.5 -326t-129 -395
q-47 -287 22 -510t255.5 -351.5t490.5 -129.5q140 0 278.5 28t268.5 75l67 -273q-83 -55 -193.5 -83t-225.5 -38t-211 -10q-397 1 -655.5 166.5t-365.5 458.5t-52 676q41 280 164 519t314.5 416t438.5 275t536 96zM1386 1128q-108 1 -187.5 -55t-128.5 -145t-63 -187
q-10 -67 -12 -141t16 -138.5t65 -106.5t136 -45q133 -5 225.5 56.5t145.5 165t68 224.5q20 159 -35.5 264.5t-229.5 107.5z" />
    <glyph glyph-name="A" unicode="A" horiz-adv-x="2078" 
d="M348 0h-427l1088 2048h408l383 -2048h-404l-69 436h-758zM1135 1552l-411 -790l552 -2l-120 792h-21z" />
    <glyph glyph-name="B" unicode="B" horiz-adv-x="1794" 
d="M832 0h-807l355 2048l708 -1q169 -3 312.5 -61t226 -178t68.5 -307q-14 -185 -123.5 -293.5t-288.5 -137.5l-11 -31q116 -9 187.5 -86.5t101.5 -186t22 -207.5q-16 -198 -128 -321.5t-278.5 -181t-344.5 -56.5zM708 1716l-93 -535l295 -1q141 0 257.5 63t140.5 216
q20 128 -50 190.5t-192 65.5zM1215 604q20 126 -45.5 205t-192.5 84l-411 1l-98 -562l354 -1q139 0 254.5 61.5t138.5 211.5z" />
    <glyph glyph-name="C" unicode="C" horiz-adv-x="1999" 
d="M1931 1402l-375 -42q-27 155 -119.5 254.5t-257.5 104.5q-146 4 -256 -57.5t-187.5 -165.5t-123.5 -230t-64 -252q-15 -108 -13 -226t36.5 -221t113.5 -169.5t217 -69.5q174 -4 309.5 91.5t194.5 256.5l375 -40q-53 -201 -188 -351t-321 -232.5t-390 -80.5
q-218 2 -367.5 92.5t-235.5 240.5t-114 334.5t-3 375.5q28 203 109.5 394t214.5 342.5t312.5 239.5t402.5 85q208 -2 357.5 -90t242 -239.5t130.5 -344.5z" />
    <glyph glyph-name="D" unicode="D" horiz-adv-x="1975" 
d="M721 0h-696l355 2048h661q298 -4 483.5 -143t260 -369t37.5 -507q-40 -295 -184 -528t-377 -367.5t-540 -133.5zM1005 1706h-299l-236 -1364l250 -1q211 0 361 89.5t238.5 246t117.5 356.5q25 174 -1 326.5t-127.5 247.5t-303.5 99z" />
    <glyph glyph-name="E" unicode="E" horiz-adv-x="1660" 
d="M1376 332l-58 -332h-1293l355 2048h1288l-58 -332h-902l-91 -526h778l-58 -331h-777l-92 -527h908z" />
    <glyph glyph-name="F" unicode="F" horiz-adv-x="1650" 
d="M1383 1190l-57 -331h-766l-150 -859h-385l355 2048h1286l-58 -332h-900l-91 -526h766z" />
    <glyph glyph-name="G" unicode="G" horiz-adv-x="2024" 
d="M1872 1070l-51 -300q-36 -235 -168 -416t-331.5 -283t-438.5 -99q-218 2 -368 92t-236 240.5t-114 335t-3 375.5q27 202 108 393t212.5 342.5t310 240t400.5 86.5q204 -2 350.5 -88t241.5 -233.5t142 -332.5l-388 -41q-33 144 -122.5 238t-245.5 99q-144 4 -253 -58
t-185.5 -167t-122 -231t-62.5 -249q-15 -108 -12.5 -226t37 -221.5t114 -169.5t218.5 -69q209 -5 352.5 122.5t196.5 320.5l-427 -2l53 301h792z" />
    <glyph glyph-name="H" unicode="H" horiz-adv-x="1989" 
d="M766 2048l-149 -858h822l149 858h384l-355 -2048h-385l150 859h-822l-150 -859h-385l355 2048h386z" />
    <glyph glyph-name="I" unicode="I" horiz-adv-x="744" 
d="M766 2048l-356 -2048h-385l355 2048h386z" />
    <glyph glyph-name="J" unicode="J" horiz-adv-x="1547" 
d="M922 614l247 1434h382l-246 -1434q-28 -189 -126.5 -335t-252.5 -228.5t-350 -79.5q-278 4 -424.5 168t-138.5 437h382q-3 -108 41.5 -192t165.5 -89q94 -4 160.5 41t106.5 119.5t53 158.5z" />
    <glyph glyph-name="K" unicode="K" horiz-adv-x="1975" 
d="M1244 0l-441 821l-299 -283l-94 -538h-385l355 2048h386l-168 -910h18l953 910l533 -1l-1024 -956l611 -1091h-445z" />
    <glyph glyph-name="L" unicode="L" horiz-adv-x="1568" 
d="M1309 332l-58 -332h-1226l355 2048h386l-298 -1716h841z" />
    <glyph glyph-name="M" unicode="M" horiz-adv-x="2524" 
d="M380 2048h475l311 -1428l21 -1l812 1429h492l-355 -2048h-380l251 1401h-14l-760 -1374h-279l-281 1378h-19l-249 -1405h-380z" />
    <glyph glyph-name="N" unicode="N" horiz-adv-x="1988" 
d="M1971 2048l-355 -2048h-366l-575 1371l-20 1l-245 -1372h-385l355 2048h368l574 -1374l20 -1l246 1375h383z" />
    <glyph glyph-name="O" unicode="O" horiz-adv-x="2068" 
d="M1911 1027q-27 -202 -108 -392t-213 -340.5t-310.5 -238t-399.5 -84.5q-217 2 -366.5 93t-235.5 241t-113.5 334.5t-2.5 374.5q27 203 109 394t214.5 342.5t312 239.5t401.5 85q218 -3 366 -94.5t233 -243.5t111.5 -337t1.5 -374zM1525 1028q15 106 14 224.5t-34 223.5
t-110.5 172.5t-216.5 70.5q-146 4 -256 -57.5t-187 -165.5t-123 -230t-64 -252q-15 -107 -13 -225t36 -221.5t112.5 -169.5t217.5 -69q145 -4 254.5 56.5t185.5 163.5t121 228t63 251z" />
    <glyph glyph-name="P" unicode="P" horiz-adv-x="1787" 
d="M907 715l-504 1l57 328l462 -1q163 1 266.5 93.5t127.5 253.5q19 137 -34.5 228.5t-202.5 96.5l-371 1l-298 -1716h-385l355 2048l713 -1q306 -6 472.5 -178t132.5 -481q-25 -218 -131 -368.5t-275.5 -227.5t-384.5 -77z" />
    <glyph glyph-name="Q" unicode="Q" horiz-adv-x="2068" 
d="M1915 1026q-22 -162 -78.5 -321.5t-151.5 -296t-234 -231.5l194 -368l-354 -1l-106 215q-152 -52 -304 -51q-218 2 -367 93t-235 241.5t-114 335t-3 373.5q27 203 109 394t214.5 342.5t312 239.5t402.5 85q217 -3 365.5 -95t234 -244t113 -337t2.5 -374zM838 683l322 1
l105 -209q118 107 179.5 251.5t83.5 300.5q16 106 14.5 225t-35 224t-112 172.5t-216.5 70.5q-146 4 -256 -57.5t-187 -165.5t-123 -230t-64 -252q-15 -107 -13 -225t35.5 -222t112.5 -169.5t218 -67.5q29 -1 57.5 2t57.5 6z" />
    <glyph glyph-name="R" unicode="R" horiz-adv-x="1787" 
d="M1119 0l-236 766h-339l-134 -766h-385l355 2048l710 -1q193 -3 338.5 -75.5t219.5 -211t54 -340.5q-21 -204 -131.5 -353t-299.5 -227l263 -840h-415zM708 1716l-107 -619l318 -1q155 0 266 78.5t135 238.5q19 135 -43 216.5t-201 85.5z" />
    <glyph glyph-name="S" unicode="S" horiz-adv-x="1775" 
d="M1337 1465q-12 270 -289 277q-81 2 -167 -23t-150.5 -80.5t-81.5 -145.5q-15 -83 37.5 -136t130 -85.5t137.5 -54.5l96 -35q139 -51 257.5 -129.5t185.5 -194t53 -280.5q-14 -156 -87.5 -271t-188 -191t-252.5 -112.5t-282 -34.5q-202 2 -356 79t-240 222t-84 351h376
q0 -153 85.5 -234.5t237.5 -84.5q89 -2 179 26.5t156 89.5t84 158q18 95 -36 155t-137.5 97t-154.5 61l-99 32q-130 43 -242.5 120t-177.5 189.5t-52 262.5q12 148 86.5 258.5t189.5 183t250 108t269 33.5q187 -3 329.5 -76.5t222.5 -209.5t79 -326z" />
    <glyph glyph-name="T" unicode="T" horiz-adv-x="1811" 
d="M1878 2048l-58 -332h-595l-298 -1716h-383l297 1716h-596l58 332h1575z" />
    <glyph glyph-name="U" unicode="U" horiz-adv-x="1990" 
d="M1590 2048h385l-233 -1352q-35 -230 -162 -394.5t-318 -251.5t-420 -84q-214 3 -381.5 92t-254 251.5t-57.5 385.5l232 1353h386l-231 -1343q-23 -168 70.5 -271t260.5 -107q119 -3 223 42t175.5 131t92.5 206z" />
    <glyph glyph-name="V" unicode="V" horiz-adv-x="2078" 
d="M654 2050l282 -1553l21 -1l767 1552h419l-1052 -2048h-409l-416 2047z" />
    <glyph glyph-name="W" unicode="W" horiz-adv-x="2819" 
d="M622 2050l134 -1473h15l604 1471h358l136 -1474h15l594 1474h367l-837 -2048h-393l-142 1397l-14 1l-586 -1398h-394l-197 2048z" />
    <glyph glyph-name="X" unicode="X" horiz-adv-x="1917" 
d="M692 2050l295 -729l16 -1l522 728h459l-767 -1041l442 -1007h-429l-295 724l-14 1l-528 -725h-464l781 1042l-436 1005z" />
    <glyph glyph-name="Y" unicode="Y" horiz-adv-x="2060" 
d="M679 2050l351 -899h21l662 897h446l-976 -1267l-135 -781h-386l143 820l-529 1227z" />
    <glyph glyph-name="Z" unicode="Z" horiz-adv-x="1798" 
d="M1521 332l-58 -332h-1464l45 261l1237 1453l-989 2l58 332h1464l-45 -261l-1238 -1453z" />
    <glyph glyph-name="bracketleft" unicode="[" horiz-adv-x="1021" 
d="M1115 2313l-48 -301h-281l-341 -2183h282l-47 -299h-625l435 2783h625z" />
    <glyph glyph-name="backslash" unicode="\" horiz-adv-x="1123" 
d="M300 2048h329l173 -2356h-329z" />
    <glyph glyph-name="bracketright" unicode="]" horiz-adv-x="1021" 
d="M339 2313h626l-434 -2783h-627l47 299h282l341 2183h-282z" />
    <glyph glyph-name="asciicircum" unicode="^" horiz-adv-x="1292" 
d="M897 1004l-124 622l-340 -622h-319l570 1000h277l232 -999z" />
    <glyph glyph-name="underscore" unicode="_" horiz-adv-x="1302" 
d="M1100 0l-54 -304h-1222l53 304h1223z" />
    <glyph glyph-name="grave" unicode="`" horiz-adv-x="954" 
d="M724 2112l201 -423l-294 -1l-309 422z" />
    <glyph glyph-name="a" unicode="a" horiz-adv-x="1558" 
d="M855 0l28 159l-5 -1q-70 -99 -175 -145.5t-225 -44.5q-133 2 -236 59.5t-158.5 160t-46.5 237.5q8 132 69.5 221.5t157.5 145t209.5 84.5t225.5 39q42 4 109 7.5t124.5 23.5t71.5 73l5 23q13 91 -35 144.5t-139 56.5q-99 3 -177.5 -49t-116.5 -142l-350 68
q39 151 145 248.5t247.5 143.5t286.5 44q158 -2 281 -63.5t187.5 -178t46.5 -283.5l-174 -1031h-356zM918 511l49 207q-44 -38 -112 -47t-123 -16q-70 -9 -140 -30.5t-120.5 -67.5t-63.5 -127q-12 -82 37.5 -124.5t126.5 -44.5q114 -2 218 66t128 184z" />
    <glyph glyph-name="b" unicode="b" horiz-adv-x="1667" 
d="M370 2048h380l-132 -705l10 1q136 216 391 213q158 -2 259 -75t155.5 -190t69.5 -253t0 -266q-16 -141 -67.5 -283.5t-139.5 -261t-212.5 -189t-287.5 -66.5q-108 3 -205 53.5t-137 157.5h-24l-40 -184h-375zM1141 775q10 72 9 152t-23.5 150.5t-75.5 116t-146 48.5
q-133 4 -218.5 -69.5t-132 -186.5t-61.5 -225q-10 -69 -11 -149.5t19 -153t70 -120t143 -50.5q134 -5 223.5 69.5t139 189t64.5 228.5z" />
    <glyph glyph-name="c" unicode="c" horiz-adv-x="1578" 
d="M1476 1043l-355 -53q-20 104 -75 175.5t-170 75.5q-133 4 -220 -68.5t-134.5 -185t-61.5 -225.5q-9 -73 -6.5 -154t25.5 -153t77 -118.5t148 -48.5q113 -3 194 61t119 166l355 -51q-36 -156 -139.5 -267.5t-247 -170t-297.5 -55.5q-222 3 -360.5 116.5t-196 293.5
t-35.5 381q23 212 125.5 394.5t272.5 293t397 106.5q240 -4 393 -142.5t192 -370.5z" />
    <glyph glyph-name="d" unicode="d" horiz-adv-x="1667" 
d="M1316 0h-374l43 185l-14 -1q-136 -216 -395 -212q-157 2 -258 76t-155 191.5t-68.5 254.5t0.5 266q17 141 68.5 283t139.5 259.5t212.5 187t286.5 65.5q108 -3 205.5 -53.5t136.5 -157.5h19l130 704h379zM456 760q-10 -71 -9 -152t23.5 -152.5t75.5 -118t147 -49.5
q133 -5 218.5 70.5t131.5 190t62 225.5q10 70 10.5 149.5t-19 151t-70 117.5t-142.5 50q-134 4 -223.5 -68.5t-139.5 -185.5t-65 -228z" />
    <glyph glyph-name="e" unicode="e" horiz-adv-x="1633" 
d="M715 -30q-224 3 -370.5 107.5t-210.5 279t-41 385.5q24 217 127.5 404t277.5 300.5t406 110.5q211 -3 346 -105.5t192 -269.5t34 -364l-24 -163h-1208l42 267l842 -1q24 131 -39.5 223.5t-202.5 96.5q-136 5 -226.5 -71t-140 -192t-63.5 -232q-14 -106 1 -210.5
t77.5 -174.5t192.5 -73q113 -3 200.5 53t133.5 159l333 -91q-38 -149 -145.5 -246.5t-249.5 -145.5t-284 -47z" />
    <glyph glyph-name="f" unicode="f" horiz-adv-x="1068" 
d="M126 0l216 1248h-201l51 288l191 -1l13 64q37 214 171.5 347.5t361.5 132.5q73 -1 144 -13t141 -30l-99 -299q-31 11 -63 17.5t-65 7.5q-91 1 -145 -47t-74 -134l-9 -46l307 1l-50 -288h-294l-217 -1248h-379z" />
    <glyph glyph-name="g" unicode="g" horiz-adv-x="1667" 
d="M1208 1531h374l-256 -1488q-30 -204 -140 -345t-277.5 -213t-369.5 -69q-158 2 -310 57t-258 177l211 250q75 -74 164 -117.5t197 -46.5q162 -4 274.5 82t142.5 247l34 159l-16 -1q-67 -100 -169.5 -148.5t-222.5 -46.5q-153 2 -254 69t-157.5 176t-74 239.5t-3.5 259.5
q16 140 68 280t140.5 255.5t212.5 183.5t284 64q108 -3 205.5 -53.5t136.5 -157.5h23zM458 772q-13 -97 -1 -196t68.5 -167t175.5 -71q129 -4 213 62t131 171t62 216q9 68 8.5 145.5t-21.5 146.5t-71 114t-140 48q-130 5 -219 -65.5t-140 -180.5t-66 -223z" />
    <glyph glyph-name="h" unicode="h" horiz-adv-x="1615" 
d="M541 852l-146 -852h-380l355 2048h369l-131 -696l9 1q81 98 191 151.5t238 51.5q163 -3 252 -92.5t118.5 -224t12.5 -274.5l-164 -965h-379l165 969q9 64 0 124.5t-45.5 100t-113.5 43.5q-107 4 -179.5 -54.5t-114.5 -149t-57 -181.5z" />
    <glyph glyph-name="i" unicode="i" horiz-adv-x="739" 
d="M536 1663q-84 0 -147 57t-65 143q-2 90 64 152t154 62q83 0 146 -57.5t65 -141.5q3 -92 -62.5 -153.5t-154.5 -61.5zM671 1536l-266 -1536h-380l266 1536h380z" />
    <glyph glyph-name="j" unicode="j" horiz-adv-x="853" 
d="M651 1664q-84 0 -147 56.5t-65 142.5q-3 90 63.5 152t154.5 61q83 0 145.5 -57t64.5 -142q2 -90 -63 -152t-153 -61zM406 1536h380l-275 -1603q-35 -250 -196 -382t-411 -132l-149 1l56 314l57 -1q106 0 174.5 49t87.5 155z" />
    <glyph glyph-name="k" unicode="k" horiz-adv-x="1555" 
d="M954 0l-307 631l-171 -164l-81 -467h-380l355 2048h380l-197 -1082h15l561 570l473 -1l-683 -672l435 -863h-400z" />
    <glyph glyph-name="l" unicode="l" horiz-adv-x="717" 
d="M750 2048l-355 -2048h-380l355 2048h380z" />
    <glyph glyph-name="m" unicode="m" horiz-adv-x="2423" 
d="M1383 956l-164 -956h-370l166 975q13 99 -20 178.5t-146 83.5q-125 5 -199 -84.5t-93 -201.5l-162 -951h-380l267 1536h372l-45 -197h6q76 101 181.5 160.5t234.5 57.5q114 -3 210.5 -61t128.5 -173l14 1q82 109 199.5 172t255.5 60q162 -3 249 -90.5t115 -220t12 -271.5
l-165 -974h-379l166 978q12 95 -20 174.5t-143 84.5q-127 5 -199.5 -80t-91.5 -201z" />
    <glyph glyph-name="n" unicode="n" horiz-adv-x="1644" 
d="M540 845l-145 -845h-380l267 1536h356l-46 -197h9q81 105 194.5 162.5t248.5 54.5q165 -3 262 -89t133 -220t19 -282l-164 -965h-379l163 950q14 104 -26 193t-160 94q-107 4 -180 -56.5t-115 -152.5t-57 -183z" />
    <glyph glyph-name="o" unicode="o" horiz-adv-x="1648" 
d="M688 -29q-221 3 -359.5 116t-196.5 292t-36 380q23 214 125 396.5t272.5 293t398.5 107.5q221 -3 359.5 -115.5t196.5 -290.5t36 -379q-23 -213 -125 -396.5t-272.5 -295t-398.5 -108.5zM704 288q134 -4 221 69.5t134.5 186.5t61.5 227q9 74 7 154.5t-26 151.5t-78 116.5
t-148 48.5q-134 4 -221 -69.5t-134 -186.5t-61 -227q-10 -74 -7.5 -154.5t26 -151.5t77.5 -116.5t148 -48.5z" />
    <glyph glyph-name="p" unicode="p" horiz-adv-x="1667" 
d="M-85 -576l367 2112h375l-44 -193l15 1q136 217 391 213q158 -2 259 -75t155.5 -190t69.5 -253t0 -265q-16 -142 -67.5 -284.5t-139.5 -261t-212.5 -189t-287.5 -65.5q-108 2 -205 52.5t-137 157.5h-19l-140 -760h-380zM1141 775q10 72 9 152t-23.5 150.5t-75.5 116
t-146 48.5q-133 4 -218.5 -69.5t-132 -186.5t-61.5 -225q-10 -69 -10.5 -149.5t19 -153t69.5 -120t143 -50.5q134 -5 223.5 70t139 189t64.5 228z" />
    <glyph glyph-name="q" unicode="q" horiz-adv-x="1667" 
d="M1583 1536l-366 -2112h-379l142 761l-10 -1q-135 -216 -394 -212q-157 2 -258 76t-155 192t-68.5 254.5t0.5 265.5q17 141 68.5 283t139.5 259.5t212.5 187t286.5 65.5q108 -3 205.5 -53.5t136.5 -157.5h23l42 192h374zM456 760q-10 -71 -9 -152t24 -152.5t75.5 -118
t146.5 -49.5q133 -5 218.5 70.5t131.5 190t62 225.5q10 70 10.5 149.5t-19 151t-70 117.5t-142.5 50q-134 4 -223.5 -68.5t-139.5 -185.5t-65 -228z" />
    <glyph glyph-name="r" unicode="r" horiz-adv-x="1132" 
d="M1188 1507l-156 -334q-54 31 -127 32q-94 2 -169.5 -45.5t-125 -124.5t-65.5 -164l-150 -871h-380l267 1536h380l-50 -220h8q49 112 139.5 178.5t216.5 64.5q108 -2 212 -52z" />
    <glyph glyph-name="s" unicode="s" horiz-adv-x="1474" 
d="M180 1100q7 117 67.5 203.5t154.5 143t202.5 84t211.5 25.5q208 -3 354 -119t185 -321l-338 -59q-19 77 -64 128.5t-129 58.5q-50 4 -106.5 -10t-99.5 -48.5t-54 -90.5q-10 -51 23 -81t81.5 -46.5t84.5 -27.5l121 -38q104 -35 189.5 -100t134 -157.5t41.5 -208.5
q-10 -160 -107.5 -263.5t-239.5 -153.5t-284 -49q-226 3 -387 123.5t-209 343.5l352 69q27 -90 82.5 -147.5t155.5 -63.5q52 -3 110.5 10.5t103 48t55.5 93.5q11 55 -30 90.5t-98 56.5t-95 34l-135 43q-142 49 -242 159t-91 270z" />
    <glyph glyph-name="t" unicode="t" horiz-adv-x="1028" 
d="M1010 1536l-51 -288h-259l-134 -780q-9 -68 9.5 -113t94.5 -46q26 0 50.5 3t49.5 8l33 -304q-54 -28 -125.5 -32t-129.5 -3q-118 2 -205.5 61t-131 156t-32.5 213l141 837h-186l51 288h185l57 328h380l-58 -328h261z" />
    <glyph glyph-name="u" unicode="u" horiz-adv-x="1644" 
d="M1035 684l146 852h379l-267 -1536h-356l43 184l-9 -1q-83 -99 -196 -153.5t-244 -51.5q-163 4 -260 91.5t-134 222t-20 279.5l164 965h379l-162 -955q-14 -104 27 -190.5t159 -91.5q107 -4 180 54.5t114.5 149t56.5 181.5z" />
    <glyph glyph-name="v" unicode="v" horiz-adv-x="1631" 
d="M1636 1536l-789 -1536h-361l-310 1535l384 1l163 -1044h15l492 1044h406z" />
    <glyph glyph-name="w" unicode="w" horiz-adv-x="2226" 
d="M2199 1536l-660 -1536h-319l-96 959h-24l-434 -959h-320l-133 1535l365 1l25 -1005h15l436 1005h287l78 -997l17 -1l383 998h380z" />
    <glyph glyph-name="x" unicode="x" horiz-adv-x="1548" 
d="M593 1536l181 -498l341 498h412l-553 -786l310 -750h-380l-197 485l-348 -485h-414l561 786l-295 749z" />
    <glyph glyph-name="y" unicode="y" horiz-adv-x="1631" 
d="M418 -66l51 99l-283 1502l386 1l147 -1014h15l508 1014h408l-934 -1765q-82 -164 -220 -269t-329 -103q-56 0 -110.5 11.5t-107.5 30.5l117 304q136 -41 213.5 15t138.5 174z" />
    <glyph glyph-name="z" unicode="z" horiz-adv-x="1532" 
d="M1258 315l-55 -315h-1200l45 259l875 960l-695 2l56 315h1169l-44 -255l-876 -964z" />
    <glyph glyph-name="braceleft" unicode="{" horiz-adv-x="1021" 
d="M709 -276l-83 -221q-224 78 -318 246t-66 399l40 277q15 116 -21.5 197.5t-164.5 88.5l26 279q132 2 204.5 82t91.5 204l41 280q35 251 168.5 411.5t379.5 232.5l61 -222q-138 -49 -199 -168t-82 -254l-40 -280q-20 -149 -92 -256t-208 -174q100 -77 137 -188t24 -234
l-39 -277q-10 -79 -10 -163.5t32.5 -154t117.5 -105.5z" />
    <glyph glyph-name="bar" unicode="|" horiz-adv-x="882" 
d="M789 2048l-380 -2432h-340l380 2432h340z" />
    <glyph glyph-name="braceright" unicode="}" horiz-adv-x="1021" 
d="M-83 -277l28 -220q239 74 384 236t185 409l37 276q15 131 80.5 208t202.5 80l62 282q-121 4 -166 89t-36 193l38 281q32 225 -43.5 394t-301.5 246l-127 -222q78 -38 112 -108t39 -152.5t-3 -158.5l-40 -281q-18 -129 13.5 -242.5t147.5 -184.5q-125 -66 -199 -176
t-97 -248l-40 -276q-18 -143 -73.5 -259t-202.5 -166z" />
    <glyph glyph-name="asciitilde" unicode="~" horiz-adv-x="1896" 
d="M1417 1087l271 -10q-9 -139 -65.5 -268.5t-162.5 -212t-261 -79.5q-109 2 -192 53t-155 127q-42 45 -92.5 84.5t-115.5 40.5q-69 1 -115.5 -38.5t-72.5 -99t-34 -118.5l-277 15q10 137 69 266t166.5 211.5t261.5 79.5q110 -3 198.5 -57t160.5 -133q39 -42 86.5 -80
t108.5 -39q69 -1 115.5 39t72 100.5t33.5 118.5z" />
    <glyph glyph-name="nbspace" unicode="&#xa0;" horiz-adv-x="778" 
 />
    <glyph glyph-name="exclamdown" unicode="&#xa1;" horiz-adv-x="790" 
d="M477 1559q91 0 154 -61t65 -152q1 -97 -65 -163t-163 -66q-91 0 -153 61t-63 152q-2 97 63 163t162 66zM352 -517h-397l289 1431h313z" />
    <glyph glyph-name="cent" unicode="&#xa2;" horiz-adv-x="1578" 
d="M1479 1043l-355 -53q-18 103 -72 175t-169 76q-133 5 -221.5 -68t-138 -185.5t-64.5 -226.5q-10 -71 -9.5 -152t22 -153t74 -119t146.5 -50q114 -4 196 60.5t121 167.5l354 -50q-47 -207 -208.5 -330.5t-363.5 -151.5l-65 -319h-253l66 320q-185 36 -289.5 157.5
t-140 287t-14.5 333.5q23 195 111 363.5t235 281t350 138.5l56 267h253l-57 -270q192 -40 299.5 -176.5t136.5 -322.5z" />
    <glyph glyph-name="sterling" unicode="&#xa3;" horiz-adv-x="1804" 
d="M1182 812h-420l-25 -205q-10 -87 -40 -153.5t-94 -126.5l875 5l-58 -332h-1391l58 332l99 -3q61 6 94.5 50t49 102.5t22.5 106.5l31 224h-219l55 318h209l44 330q21 184 112.5 324.5t239 218t335.5 74.5q177 -3 302 -79.5t187 -209.5t48 -307l-364 21q9 103 -32 175.5
t-154 76.5q-128 6 -204 -86t-93 -208l-43 -330h431z" />
    <glyph glyph-name="currency" unicode="&#xa4;" horiz-adv-x="2061" 
d="M205 831q19 146 78.5 278t160.5 239l-155 214l193 174l151 -200q111 75 234.5 118.5t258.5 41.5q121 -2 237 -43t207 -122l233 204l161 -207l-232 -191q40 -122 59 -244t2 -252q-17 -139 -72.5 -265.5t-149.5 -230.5l153 -202l-197 -175l-137 184q-114 -83 -244 -132.5
t-274 -47.5q-126 2 -245.5 46.5t-212.5 131.5l-208 -182l-158 207l211 173q-35 119 -52 238.5t-2 244.5zM445 828q-24 -146 18.5 -283t146.5 -227t265 -94q171 -4 315 84.5t240 231.5t121 304q24 145 -18 282.5t-145 227.5t-264 93q-173 5 -317.5 -82.5t-240 -230.5
t-121.5 -306z" />
    <glyph glyph-name="yen" unicode="&#xa5;" horiz-adv-x="1552" 
d="M1300 654l-41 -234h-389l-74 -420h-382l73 420h-415l41 234h414l29 162h-415l41 234h337l-272 997l389 1l179 -817l463 817h417l-622 -996l297 -2l-42 -234h-390l-28 -162h390z" />
    <glyph glyph-name="brokenbar" unicode="&#xa6;" horiz-adv-x="882" 
d="M810 2048l-164 -948h-340l164 948h340zM214 568h340l-165 -952h-341z" />
    <glyph glyph-name="section" unicode="&#xa7;" horiz-adv-x="1590" 
d="M1432 1544h-335q3 87 -36 143t-133 58q-77 2 -149.5 -39.5t-86.5 -123.5q-13 -70 31.5 -121t99.5 -83l328 -189q123 -73 193.5 -185t51.5 -261q-14 -116 -96.5 -194.5t-191.5 -105.5l-19 -15q113 -153 98 -347q-13 -160 -100.5 -271.5t-221.5 -168.5t-286 -54
q-246 4 -384 153t-133 391h336q-4 -102 48.5 -158.5t156.5 -55.5q79 1 155.5 40t92.5 125q13 71 -29.5 121t-97.5 83l-330 185q-123 73 -192 188t-51 263q14 120 97.5 197.5t197.5 100.5l9 19q-51 78 -77 164t-19 180q12 153 97.5 264.5t216 171.5t277.5 57
q156 -3 264.5 -73.5t164.5 -190t53 -268.5zM1072 723q19 65 -16.5 111.5t-86.5 76.5l-296 167q-46 21 -87.5 1.5t-71.5 -59.5t-41 -80q-19 -65 16 -111.5t88 -77.5l292 -162q45 -20 87 -1t73 57.5t43 77.5z" />
    <glyph glyph-name="dieresis" unicode="&#xa8;" horiz-adv-x="1414" 
d="M1134 1725q-72 -1 -126 48t-57 121q-2 77 50 129.5t128 53.5q73 1 125 -48.5t55 -122.5q2 -75 -49.5 -127.5t-125.5 -53.5zM580 1725q-72 -1 -125.5 48t-56.5 121q-2 77 50 129.5t127 53.5q74 1 125.5 -48.5t54.5 -122.5q2 -75 -49.5 -127.5t-125.5 -53.5z" />
    <glyph glyph-name="copyright" unicode="&#xa9;" horiz-adv-x="2316" 
d="M204 999q24 202 116.5 388.5t239 332.5t333 230t398.5 82q207 -2 367 -88.5t266.5 -232t152 -327.5t22.5 -375q-24 -203 -116.5 -390t-238.5 -334t-333 -231t-400 -82q-207 2 -367 89.5t-266 233.5t-151.5 328.5t-22.5 375.5zM369 998q-23 -157 7.5 -308t112 -273.5
t210 -196.5t300.5 -76q179 -3 337.5 67.5t283.5 193.5t206.5 279t106.5 326q24 157 -7 307.5t-112.5 272.5t-210 195t-300.5 75q-177 3 -335.5 -67.5t-284 -192.5t-207 -277.5t-107.5 -324.5zM1336 820l205 2q-8 -209 -140.5 -324t-339.5 -110q-147 3 -241.5 79.5
t-135.5 196.5t-28 256l20 164q18 142 84 264.5t178 196.5t267 72q201 -4 308 -120t103 -314l-210 1q7 110 -35.5 178t-162.5 71q-98 3 -165 -49t-104.5 -133t-50.5 -167l-22 -165q-9 -74 0.5 -153t53 -134.5t136.5 -59.5q125 -6 194.5 61t85.5 187z" />
    <glyph glyph-name="ordfeminine" unicode="&#xaa;" horiz-adv-x="1292" 
d="M862 966q-6 51 -4 100q-119 -116 -280 -114q-138 1 -224 82.5t-82 221.5q4 132 80.5 202.5t188.5 97t222 25.5l144 -1l17 75q12 67 -9.5 118.5t-98.5 54.5q-73 3 -131.5 -29t-73.5 -107l-233 16q4 115 70.5 187.5t165.5 106t202 31.5q169 -4 265.5 -107t80.5 -274
l-71 -432q-11 -65 -13.5 -127.5t12.5 -127.5zM630 1148q61 -1 118 26t105 61l38 186l-114 1q-80 -1 -163.5 -35t-101.5 -125q-12 -62 25.5 -87.5t92.5 -26.5z" />
    <glyph glyph-name="guillemotleft" unicode="&#xab;" horiz-adv-x="1466" 
d="M674 180l-236 -1l-286 554l1 31l459 556h273l-446 -589zM1200 180l-237 -1l-285 554l2 32l458 555h273l-446 -589z" />
    <glyph glyph-name="logicalnot" unicode="&#xac;" horiz-adv-x="1548" 
d="M1359 1108l-103 -592h-270l62 356h-846l41 236h1116z" />
    <glyph glyph-name="softhyphen" unicode="&#xad;" horiz-adv-x="1302" 
d="M135 722zM1143 1015l-52 -293h-956l52 293h956z" />
    <glyph glyph-name="registered" unicode="&#xae;" horiz-adv-x="2316" 
d="M204 998q24 203 116.5 389.5t239 332.5t333 230t398.5 82q207 -2 367 -88.5t266.5 -232t152 -327.5t22.5 -375q-24 -203 -116.5 -390t-238.5 -334t-333 -231.5t-400 -81.5q-207 2 -367 89t-266 233.5t-151.5 329t-22.5 374.5zM369 998q-23 -157 7.5 -308t112 -273.5
t210 -196.5t300.5 -76q179 -3 337.5 67.5t283.5 193t206.5 279t106.5 326.5q24 157 -7 307.5t-112.5 272.5t-210 195t-300.5 75q-177 3 -335.5 -67.5t-284 -192.5t-207 -277.5t-107.5 -324.5zM1173 898l-227 2l-72 -464h-205l183 1168l355 -1q108 -2 201 -39.5t148 -114.5
t50 -198q-5 -95 -59.5 -153.5t-132.5 -100.5q68 -51 87.5 -129.5t12.5 -159.5l-9 -76q-6 -46 -4 -87.5t6 -86.5l-1 -24h-201q-13 48 -10.5 98.5t7.5 99.5l10 78q11 85 -18 134.5t-121 53.5zM1028 1420l-53 -336l161 -1q83 1 167.5 37.5t101.5 129.5q19 104 -39.5 136
t-148.5 34h-189z" />
    <glyph glyph-name="macron" unicode="&#xaf;" horiz-adv-x="1466" 
d="M1357 1999l-36 -226h-923l36 226h923z" />
    <glyph glyph-name="degree" unicode="&#xb0;" horiz-adv-x="1117" 
d="M634 1179q-113 2 -200 61.5t-134.5 154.5t-40.5 205q7 120 72.5 223.5t170 166t227.5 58.5q114 -2 199 -64t130 -159t38 -207q-7 -120 -71.5 -221t-167 -161t-223.5 -57zM637 1408q88 -2 155.5 63t79.5 149q11 73 -29 133.5t-118 62.5q-88 2 -156.5 -64t-81.5 -150
q-10 -73 31.5 -132.5t118.5 -61.5z" />
    <glyph glyph-name="plusminus" unicode="&#xb1;" horiz-adv-x="1640" 
d="M1480 1221l-49 -311h-468l-67 -424h-307l67 424h-472l49 311h471l71 456h307l-71 -456h469zM1335 310l-49 -310h-1239l49 310h1239z" />
    <glyph glyph-name="twosuperior" unicode="&#xb2;" horiz-adv-x="1292" 
d="M1224 1139l-39 -223h-828l36 204l423 341q52 42 114 100t77 127q11 51 -16 80.5t-77 30.5q-72 1 -116.5 -44.5t-55.5 -112.5l-273 -2q4 118 65 203t158.5 130.5t209.5 43.5q105 -1 194 -36t142 -108.5t47 -188.5q-5 -99 -59.5 -174.5t-132 -135t-150.5 -110.5l-189 -123z
" />
    <glyph glyph-name="threesuperior" unicode="&#xb3;" horiz-adv-x="1292" 
d="M629 1376l34 187l99 -1q65 2 119.5 31.5t68.5 98.5q11 54 -24 78.5t-83 24.5q-49 1 -92.5 -19t-58.5 -69l-278 -1q4 112 67.5 181t158.5 100.5t195 29.5q93 -2 185 -31.5t152 -95.5t56 -176q-3 -102 -69 -157.5t-151 -90.5q79 -28 118 -92t37 -147q-2 -120 -76.5 -193
t-182.5 -105t-210 -29q-158 3 -272.5 88.5t-117.5 253.5l269 -1q1 -59 42 -86t97 -27q62 -1 118 30.5t69 97.5q13 69 -28.5 93t-99.5 26z" />
    <glyph glyph-name="acute" unicode="&#xb4;" horiz-adv-x="959" 
d="M282 1688l319 424h412l-412 -424h-319z" />
    <glyph glyph-name="mu" unicode="&#xb5;" horiz-adv-x="1650" 
d="M1056 692l144 844h364l-266 -1536h-334l23 114q-65 -69 -147 -106.5t-179 -35.5q-152 4 -250 119l-127 -663h-369l366 2108h369l-145 -850q-10 -78 -5.5 -167.5t46.5 -154.5t145 -69q112 -5 187.5 55t118.5 153t59 189z" />
    <glyph glyph-name="paragraph" unicode="&#xb6;" horiz-adv-x="1292" 
d="M1015 0h-295l125 716l-87 1q-188 3 -322 84t-199 223t-46 330q21 200 124 346t264 225.5t358 79.5l425 -1z" />
    <glyph glyph-name="periodcentered" unicode="&#xb7;" horiz-adv-x="790" 
d="M404 749q-91 0 -152.5 66.5t-62.5 155.5q-2 93 64 163.5t161 70.5q89 0 151 -65.5t63 -152.5q2 -94 -63 -166t-161 -72z" />
    <glyph glyph-name="cedilla" unicode="&#xb8;" horiz-adv-x="954" 
d="M120 11l286 1l-30 -90q83 -16 125 -78t42 -144q-2 -101 -49.5 -165.5t-124 -101t-164 -52t-168.5 -17.5l9 227q61 2 114 27.5t67 92.5q10 49 -18 68.5t-71 24.5t-77 8z" />
    <glyph glyph-name="onesuperior" unicode="&#xb9;" horiz-adv-x="1036" 
d="M951 1998l-177 -1082h-269l131 753l-264 -57l40 227l508 158z" />
    <glyph glyph-name="ordmasculine" unicode="&#xba;" horiz-adv-x="1292" 
d="M272 1436l12 104q17 139 86 252t180.5 178.5t257.5 61.5q140 -3 234 -70t137.5 -177.5t30.5 -243.5l-13 -105q-17 -138 -84.5 -249.5t-178 -176.5t-256.5 -61q-138 3 -233.5 69t-140.5 175.5t-32 242.5zM521 1541l-15 -107q-8 -66 3 -130t51 -107t119 -46
q125 -5 195 84.5t87 200.5l15 106q8 65 -2 130.5t-49 109.5t-118 47q-125 5 -196.5 -86t-89.5 -202z" />
    <glyph glyph-name="guillemotright" unicode="&#xbb;" horiz-adv-x="1466" 
d="M45 179l443 589l-233 548l233 1l290 -555l-1 -27l-462 -556h-270zM573 179l444 589l-233 548l233 1l290 -555l-1 -26l-462 -557h-271z" />
    <glyph glyph-name="onequarter" unicode="&#xbc;" horiz-adv-x="2141" 
d="M854 1994l-178 -1082h-268l131 753l-265 -57l40 227l508 158zM1720 1715l-1206 -1548l-183 113l1206 1549zM1865 447l-40 -226h-118l-39 -221h-273l39 221h-462l18 201l580 662h287l-111 -637h119zM1256 449l218 -2l63 300l-23 -32z" />
    <glyph glyph-name="onehalf" unicode="&#xbd;" horiz-adv-x="2316" 
d="M932 2002l-177 -1082h-268l131 753l-265 -57l40 227l508 158zM1762 1715l-1206 -1548l-184 113l1206 1549zM2041 223l-40 -223h-828l36 204l424 341q52 42 114 100t77 128q10 51 -16.5 80t-76.5 30q-73 1 -117.5 -44.5t-55.5 -112.5l-273 -2q3 117 64.5 202.5t159 131.5
t209.5 45q104 -1 194 -37t142.5 -109.5t46.5 -189.5q-5 -99 -59.5 -174t-131.5 -134t-151 -111l-188 -123z" />
    <glyph glyph-name="threequarters" unicode="&#xbe;" horiz-adv-x="2316" 
d="M668 1376l34 187l99 -1q64 2 118.5 32t68.5 98q11 54 -24 78t-83 25t-91.5 -19t-58.5 -69l-278 -1q4 112 67 181.5t158.5 100.5t196.5 29q93 -2 185 -32t151.5 -96t55.5 -176q-3 -101 -69.5 -156.5t-151.5 -90.5q80 -28 119.5 -92t36.5 -147q-3 -120 -77.5 -193
t-182 -104.5t-209.5 -30.5q-159 3 -273.5 89t-116.5 254l269 -1q1 -60 42 -86.5t98 -26.5q62 0 118 31.5t69 97.5q13 69 -29 93t-100 25zM2001 1715l-1206 -1548l-184 113l1206 1549zM2136 447l-39 -226h-118l-39 -221h-273l39 221h-462l17 201l580 662h287l-110 -637h118z
M1528 449l218 -2l63 300l-24 -32z" />
    <glyph glyph-name="questiondown" unicode="&#xbf;" horiz-adv-x="1548" 
d="M866 1540q91 0 154.5 -60.5t64.5 -151.5q2 -97 -64.5 -163.5t-163.5 -66.5q-90 0 -152 62t-63 152q-2 96 63.5 162t160.5 66zM620 901l318 3q-8 -137 -62 -235.5t-130 -176.5t-154 -150.5t-137 -156.5t-77 -196q-14 -97 25 -165.5t145 -72.5q118 -4 188 74t86 187l373 1
q-12 -182 -104 -311t-239.5 -196t-323.5 -64q-162 2 -285 66.5t-187.5 183.5t-49.5 287q6 69 55 169.5t123.5 214t157 221t157 192t121.5 125.5z" />
    <glyph glyph-name="Agrave" unicode="&#xc0;" horiz-adv-x="2078" 
d="M0 0zM348 0h-427l1088 2048h408l383 -2048h-404l-69 436h-758zM1135 1552l-411 -790l552 -2l-120 792h-21zM1233 2569l201 -423l-294 -1l-309 422z" />
    <glyph glyph-name="Aacute" unicode="&#xc1;" horiz-adv-x="2078" 
d="M0 0zM348 0h-427l1088 2048h408l383 -2048h-404l-69 436h-758zM1135 1552l-411 -790l552 -2l-120 792h-21zM1071 2145l319 424h412l-412 -424h-319z" />
    <glyph glyph-name="Acircumflex" unicode="&#xc2;" horiz-adv-x="2078" 
d="M0 0zM348 0h-427l1088 2048h408l383 -2048h-404l-69 436h-758zM1135 1552l-411 -790l552 -2l-120 792h-21zM1034 2234l245 201l174 -202l315 -6l10 26l-321 380h-227l-487 -381l-9 -26z" />
    <glyph glyph-name="Atilde" unicode="&#xc3;" horiz-adv-x="2078" 
d="M1594 2648l213 -13q-4 -92 -42.5 -177.5t-110 -139.5t-173.5 -53q-67 1 -122.5 32.5t-110.5 62.5t-120 31q-60 0 -93.5 -41t-44.5 -95l-225 9q6 91 46.5 177t113.5 141t174 53q65 -2 120.5 -32.5t111 -60.5t119.5 -30q61 0 96.5 40.5t47.5 95.5zM348 0h-427l1088 2048
h408l383 -2048h-404l-69 436h-758zM1135 1552l-411 -790l552 -2l-120 792h-21z" />
    <glyph glyph-name="Adieresis" unicode="&#xc4;" horiz-adv-x="2078" 
d="M1564 2237q-72 -1 -125.5 47.5t-56.5 120.5q-3 77 49 130t128 54q73 1 125.5 -48t54.5 -123q3 -75 -49 -128t-126 -53zM1010 2237q-71 -1 -124.5 47.5t-56.5 120.5q-3 77 48.5 130t127.5 54q73 1 125.5 -48t54.5 -123q3 -75 -48.5 -128t-126.5 -53zM348 0h-427l1088 2048
h408l383 -2048h-404l-69 436h-758zM1135 1552l-411 -790l552 -2l-120 792h-21z" />
    <glyph glyph-name="Aring" unicode="&#xc5;" horiz-adv-x="2078" 
d="M0 0zM348 0h-427l1088 2048h408l383 -2048h-404l-69 436h-758zM1135 1552l-411 -790l552 -2l-120 792h-21zM990 2430q2 91 49.5 162t124 111.5t164.5 39.5q123 -2 209.5 -86.5t84.5 -209.5q-2 -90 -49.5 -158.5t-124 -106.5t-162.5 -37q-121 2 -209.5 81.5t-86.5 203.5z
M1154 2431q-9 -60 23 -105t95 -46q70 -1 124 49t64 118q10 60 -22 106.5t-96 47.5q-71 1 -124.5 -50.5t-63.5 -119.5z" />
    <glyph glyph-name="AE" unicode="&#xc6;" horiz-adv-x="2772" 
d="M2472 318l-56 -318h-1188l59 438h-631l-287 -438h-455l1412 2048h1364l-55 -318h-806l-74 -543h677l-55 -315h-664l-75 -554h834zM859 762l471 -2l118 880z" />
    <glyph glyph-name="Ccedilla" unicode="&#xc7;" horiz-adv-x="1999" 
d="M137 0zM1931 1402l-375 -42q-27 155 -119.5 254.5t-257.5 104.5q-146 4 -256 -57.5t-187.5 -165.5t-123.5 -230t-64 -252q-15 -108 -13 -226t36.5 -221t113.5 -169.5t217 -69.5q174 -4 309.5 91.5t194.5 256.5l375 -40q-53 -201 -188 -351t-321 -232.5t-390 -80.5
q-218 2 -367.5 92.5t-235.5 240.5t-114 334.5t-3 375.5q28 203 109.5 394t214.5 342.5t312.5 239.5t402.5 85q208 -2 357.5 -90t242 -239.5t130.5 -344.5zM731 6l286 1l-30 -90q83 -16 125 -78t42 -144q-2 -101 -49.5 -165.5t-124 -101t-164 -52t-168.5 -17.5l9 227
q61 2 114 27.5t67 92.5q10 49 -18 68.5t-71 24.5t-77 8z" />
    <glyph glyph-name="Egrave" unicode="&#xc8;" horiz-adv-x="1660" 
d="M25 0zM1376 332l-58 -332h-1293l355 2048h1288l-58 -332h-902l-91 -526h778l-58 -331h-777l-92 -527h908zM1052 2569l201 -423l-294 -1l-309 422z" />
    <glyph glyph-name="Eacute" unicode="&#xc9;" horiz-adv-x="1660" 
d="M25 0zM1376 332l-58 -332h-1293l355 2048h1288l-58 -332h-902l-91 -526h778l-58 -331h-777l-92 -527h908zM890 2145l319 424h412l-412 -424h-319z" />
    <glyph glyph-name="Ecircumflex" unicode="&#xca;" horiz-adv-x="1660" 
d="M25 0zM1376 332l-58 -332h-1293l355 2048h1288l-58 -332h-902l-91 -526h778l-58 -331h-777l-92 -527h908zM853 2234l245 201l174 -202l315 -6l10 26l-321 380h-227l-487 -381l-9 -26z" />
    <glyph glyph-name="Edieresis" unicode="&#xcb;" horiz-adv-x="1660" 
d="M25 0zM1376 332l-58 -332h-1293l355 2048h1288l-58 -332h-902l-91 -526h778l-58 -331h-777l-92 -527h908zM1380 2180q-72 -1 -126 48t-57 121q-2 77 50 129.5t128 53.5q73 1 125 -48.5t55 -122.5q2 -75 -49.5 -127.5t-125.5 -53.5zM826 2180q-72 -1 -125.5 48t-56.5 121
q-2 77 50 129.5t127 53.5q74 1 125.5 -48.5t54.5 -122.5q2 -75 -49.5 -127.5t-125.5 -53.5z" />
    <glyph glyph-name="Igrave" unicode="&#xcc;" horiz-adv-x="744" 
d="M25 0zM766 2048l-356 -2048h-385l355 2048h386zM561 2569l201 -423l-294 -1l-309 422z" />
    <glyph glyph-name="Iacute" unicode="&#xcd;" horiz-adv-x="744" 
d="M25 0zM766 2048l-356 -2048h-385l355 2048h386zM399 2145l319 424h412l-412 -424h-319z" />
    <glyph glyph-name="Icircumflex" unicode="&#xce;" horiz-adv-x="744" 
d="M25 0zM766 2048l-356 -2048h-385l355 2048h386zM362 2234l245 201l174 -202l315 -6l10 26l-321 380h-227l-487 -381l-9 -26z" />
    <glyph glyph-name="Idieresis" unicode="&#xcf;" horiz-adv-x="1087" 
d="M1081 2237q-71 -1 -124.5 47.5t-56.5 121.5q-3 76 48.5 129t127.5 54q74 1 126 -48t55 -123q3 -75 -49 -128t-127 -53zM528 2237q-72 -1 -125 47.5t-56 121.5q-3 76 48.5 129t127.5 54q73 1 125 -48t55 -123q3 -75 -48.5 -128t-126.5 -53zM931 2048l-356 -2048h-385
l355 2048h386z" />
    <glyph glyph-name="Eth" unicode="&#xd0;" horiz-adv-x="2005" 
d="M751 0h-696l155 895h-131l42 239h130l159 914h661q298 -4 483.5 -143t260 -369t37.5 -507q-40 -295 -184 -528t-377 -367.5t-540 -133.5zM1051 1134l-42 -239h-413l-96 -553l250 -1q211 0 361 89.5t238.5 246t117.5 356.5q25 174 -1 326.5t-127.5 247.5t-303.5 99h-299
l-99 -572h414z" />
    <glyph glyph-name="Ntilde" unicode="&#xd1;" horiz-adv-x="1988" 
d="M25 0zM1971 2048l-355 -2048h-366l-575 1371l-20 1l-245 -1372h-385l355 2048h368l574 -1374l20 -1l246 1375h383zM1586 2565l216 -13q-3 -92 -41.5 -177t-109.5 -139.5t-173 -52.5q-68 1 -124 32t-111 62t-120 30q-61 0 -93.5 -40.5t-42.5 -94.5l-226 9q4 91 44 176.5
t112 140.5t173 53q66 -1 122.5 -31.5t112.5 -60.5t120 -30q61 1 95.5 41t45.5 95z" />
    <glyph glyph-name="Ograve" unicode="&#xd2;" horiz-adv-x="2068" 
d="M137 0zM1911 1027q-27 -202 -108 -392t-213 -340.5t-310.5 -238t-399.5 -84.5q-217 2 -366.5 93t-235.5 241t-113.5 334.5t-2.5 374.5q27 203 109 394t214.5 342.5t312 239.5t401.5 85q218 -3 366 -94.5t233 -243.5t111.5 -337t1.5 -374zM1525 1028q15 106 14 224.5
t-34 223.5t-110.5 172.5t-216.5 70.5q-146 4 -256 -57.5t-187 -165.5t-123 -230t-64 -252q-15 -107 -13 -225t36 -221.5t112.5 -169.5t217.5 -69q145 -4 254.5 56.5t185.5 163.5t121 228t63 251zM1231 2569l201 -423l-294 -1l-309 422z" />
    <glyph glyph-name="Oacute" unicode="&#xd3;" horiz-adv-x="2068" 
d="M137 0zM1911 1027q-27 -202 -108 -392t-213 -340.5t-310.5 -238t-399.5 -84.5q-217 2 -366.5 93t-235.5 241t-113.5 334.5t-2.5 374.5q27 203 109 394t214.5 342.5t312 239.5t401.5 85q218 -3 366 -94.5t233 -243.5t111.5 -337t1.5 -374zM1525 1028q15 106 14 224.5
t-34 223.5t-110.5 172.5t-216.5 70.5q-146 4 -256 -57.5t-187 -165.5t-123 -230t-64 -252q-15 -107 -13 -225t36 -221.5t112.5 -169.5t217.5 -69q145 -4 254.5 56.5t185.5 163.5t121 228t63 251zM1069 2145l319 424h412l-412 -424h-319z" />
    <glyph glyph-name="Ocircumflex" unicode="&#xd4;" horiz-adv-x="2068" 
d="M137 0zM1911 1027q-27 -202 -108 -392t-213 -340.5t-310.5 -238t-399.5 -84.5q-217 2 -366.5 93t-235.5 241t-113.5 334.5t-2.5 374.5q27 203 109 394t214.5 342.5t312 239.5t401.5 85q218 -3 366 -94.5t233 -243.5t111.5 -337t1.5 -374zM1525 1028q15 106 14 224.5
t-34 223.5t-110.5 172.5t-216.5 70.5q-146 4 -256 -57.5t-187 -165.5t-123 -230t-64 -252q-15 -107 -13 -225t36 -221.5t112.5 -169.5t217.5 -69q145 -4 254.5 56.5t185.5 163.5t121 228t63 251zM1032 2234l245 201l174 -202l315 -6l10 26l-321 380h-227l-487 -381l-9 -26z
" />
    <glyph glyph-name="Otilde" unicode="&#xd5;" horiz-adv-x="2068" 
d="M1589 2648l215 -13q-3 -92 -42 -177.5t-110.5 -139.5t-173.5 -52q-68 1 -123.5 32t-110.5 62t-120 31q-61 0 -94.5 -41t-44.5 -95l-226 9q4 91 44.5 177t113.5 141t174 53q65 -1 121.5 -32t112.5 -61t121 -30q61 0 96 40.5t47 95.5zM1912 1027q-27 -202 -108 -392
t-213 -340.5t-310.5 -238t-399.5 -84.5q-217 2 -366.5 93t-235.5 241t-114 334.5t-2 374.5q27 203 108.5 394t214.5 342.5t312.5 239.5t401.5 85q218 -2 366 -94t233 -244t111.5 -337t1.5 -374zM1526 1028q15 106 14 224.5t-33.5 223.5t-110.5 172.5t-217 70.5
q-146 4 -256 -57.5t-187 -165.5t-123.5 -230t-63.5 -252q-15 -108 -13 -226t35.5 -221t112.5 -169t218 -70q145 -3 254.5 57.5t185.5 163.5t121 228t63 251z" />
    <glyph glyph-name="Odieresis" unicode="&#xd6;" horiz-adv-x="2068" 
d="M1558 2237q-71 -1 -125 47.5t-57 121.5q-3 76 49 129t128 54q74 1 125.5 -48t54.5 -123q3 -75 -48.5 -127.5t-126.5 -53.5zM1005 2237q-72 -1 -125.5 47.5t-56.5 121.5q-3 76 48.5 129t127.5 54q74 1 125.5 -48t54.5 -123q3 -75 -48.5 -127.5t-125.5 -53.5zM1911 1027
q-27 -202 -108 -392t-213 -340.5t-310.5 -238t-399.5 -84.5q-217 2 -366.5 93t-235.5 241t-113.5 334.5t-2.5 374.5q27 203 109 394t214.5 342.5t312 239.5t401.5 85q218 -3 366 -94.5t233 -243.5t111.5 -337t1.5 -374zM1525 1028q15 106 14 224.5t-34 223.5t-110.5 172.5
t-216.5 70.5q-146 4 -256 -57.5t-187 -165.5t-123 -230t-64 -252q-15 -107 -13 -225t36 -221.5t112.5 -169.5t217.5 -69q145 -4 254.5 56.5t185.5 163.5t121 228t63 251z" />
    <glyph glyph-name="multiply" unicode="&#xd7;" horiz-adv-x="1640" 
d="M300 242l-192 236l488 435l-342 437l238 206l339 -435l489 434l192 -237l-494 -438l338 -433l-238 -206l-335 430z" />
    <glyph glyph-name="Oslash" unicode="&#xd8;" horiz-adv-x="2068" 
d="M267 -93l-174 139l187 208q-89 185 -116 371t1 390t109 394.5t212.5 341.5t311 239t402.5 86q121 -1 238 -35t213 -108l176 204l173 -139l-195 -218q83 -184 107.5 -368.5t-2.5 -385.5q-27 -202 -108 -391.5t-212 -340t-309 -238t-400 -84.5q-118 1 -232.5 33t-210.5 101
zM551 1015q-17 -107 -22 -215.5t13 -215.5l878 1051q-46 47 -111 65.5t-129 19.5q-147 3 -256.5 -58.5t-185.5 -165t-121.5 -229.5t-65.5 -252zM1524 1027q16 104 21.5 209t-6.5 210l-871 -1043q46 -42 109.5 -58t123.5 -17q147 -3 255.5 57.5t183.5 163t120 227.5t64 251z
" />
    <glyph glyph-name="Ugrave" unicode="&#xd9;" horiz-adv-x="1990" 
d="M120 0zM1590 2048h385l-233 -1352q-35 -230 -162 -394.5t-318 -251.5t-420 -84q-214 3 -381.5 92t-254 251.5t-57.5 385.5l232 1353h386l-231 -1343q-23 -168 70.5 -271t260.5 -107q119 -3 223 42t175.5 131t92.5 206zM1189 2569l201 -423l-294 -1l-309 422z" />
    <glyph glyph-name="Uacute" unicode="&#xda;" horiz-adv-x="1990" 
d="M120 0zM1590 2048h385l-233 -1352q-35 -230 -162 -394.5t-318 -251.5t-420 -84q-214 3 -381.5 92t-254 251.5t-57.5 385.5l232 1353h386l-231 -1343q-23 -168 70.5 -271t260.5 -107q119 -3 223 42t175.5 131t92.5 206zM1027 2145l319 424h412l-412 -424h-319z" />
    <glyph glyph-name="Ucircumflex" unicode="&#xdb;" horiz-adv-x="1990" 
d="M120 0zM1590 2048h385l-233 -1352q-35 -230 -162 -394.5t-318 -251.5t-420 -84q-214 3 -381.5 92t-254 251.5t-57.5 385.5l232 1353h386l-231 -1343q-23 -168 70.5 -271t260.5 -107q119 -3 223 42t175.5 131t92.5 206zM990 2234l245 201l174 -202l315 -6l10 26l-321 380
h-227l-487 -381l-9 -26z" />
    <glyph glyph-name="Udieresis" unicode="&#xdc;" horiz-adv-x="1990" 
d="M120 0zM1590 2048h385l-233 -1352q-35 -230 -162 -394.5t-318 -251.5t-420 -84q-214 3 -381.5 92t-254 251.5t-57.5 385.5l232 1353h386l-231 -1343q-23 -168 70.5 -271t260.5 -107q119 -3 223 42t175.5 131t92.5 206zM1517 2180q-72 -1 -126 48t-57 121q-2 77 50 129.5
t128 53.5q73 1 125 -48.5t55 -122.5q2 -75 -49.5 -127.5t-125.5 -53.5zM963 2180q-72 -1 -125.5 48t-56.5 121q-2 77 50 129.5t127 53.5q74 1 125.5 -48.5t54.5 -122.5q2 -75 -49.5 -127.5t-125.5 -53.5z" />
    <glyph glyph-name="Yacute" unicode="&#xdd;" horiz-adv-x="2060" 
d="M276 0zM679 2050l351 -899h21l662 897h446l-976 -1267l-135 -781h-386l143 820l-529 1227zM1062 2145l319 424h412l-412 -424h-319z" />
    <glyph glyph-name="Thorn" unicode="&#xde;" horiz-adv-x="1804" 
d="M375 2048h385l-67 -386l274 -1q182 -3 331.5 -73.5t232 -205t63.5 -330.5q-19 -208 -136 -347.5t-292 -209.5t-369 -70l-318 1l-74 -426h-385zM957 1349l-318 1l-106 -611l275 -1q151 1 271.5 76.5t145.5 234.5q21 142 -54.5 219t-213.5 81z" />
    <glyph glyph-name="germandbls" unicode="&#xdf;" horiz-adv-x="1730" 
d="M636 1467l-252 -1467h-369l252 1467q27 184 112 327.5t227 224.5t337 78q148 -3 271 -61t191.5 -168.5t55.5 -270.5q-8 -96 -51.5 -173t-90 -151.5t-64.5 -164.5q-16 -79 25.5 -149t102.5 -140.5t108 -149.5t41 -174q-11 -174 -107 -291t-242 -176t-307 -57
q-98 1 -197 21.5t-187 66.5l130 292q60 -32 125.5 -50.5t134.5 -19.5q100 0 184.5 52t102.5 157q14 74 -14.5 132t-77 109.5t-98.5 103.5t-83 114t-28 143q7 97 56 174t101.5 152t67.5 168q14 88 -37 137t-135 52q-91 3 -150 -41t-91 -116t-44 -151z" />
    <glyph glyph-name="agrave" unicode="&#xe0;" horiz-adv-x="1558" 
d="M28 0zM855 0l28 159l-5 -1q-70 -99 -175 -145.5t-225 -44.5q-133 2 -236 59.5t-158.5 160t-46.5 237.5q8 132 69.5 221.5t157.5 145t209.5 84.5t225.5 39q42 4 109 7.5t124.5 23.5t71.5 73l5 23q13 91 -35 144.5t-139 56.5q-99 3 -177.5 -49t-116.5 -142l-350 68
q39 151 145 248.5t247.5 143.5t286.5 44q158 -2 281 -63.5t187.5 -178t46.5 -283.5l-174 -1031h-356zM918 511l49 207q-44 -38 -112 -47t-123 -16q-70 -9 -140 -30.5t-120.5 -67.5t-63.5 -127q-12 -82 37.5 -124.5t126.5 -44.5q114 -2 218 66t128 184zM901 2117l201 -423
l-294 -1l-309 422z" />
    <glyph glyph-name="aacute" unicode="&#xe1;" horiz-adv-x="1558" 
d="M28 0zM855 0l28 159l-5 -1q-70 -99 -175 -145.5t-225 -44.5q-133 2 -236 59.5t-158.5 160t-46.5 237.5q8 132 69.5 221.5t157.5 145t209.5 84.5t225.5 39q42 4 109 7.5t124.5 23.5t71.5 73l5 23q13 91 -35 144.5t-139 56.5q-99 3 -177.5 -49t-116.5 -142l-350 68
q39 151 145 248.5t247.5 143.5t286.5 44q158 -2 281 -63.5t187.5 -178t46.5 -283.5l-174 -1031h-356zM918 511l49 207q-44 -38 -112 -47t-123 -16q-70 -9 -140 -30.5t-120.5 -67.5t-63.5 -127q-12 -82 37.5 -124.5t126.5 -44.5q114 -2 218 66t128 184zM739 1693l319 424h412
l-412 -424h-319z" />
    <glyph glyph-name="acircumflex" unicode="&#xe2;" horiz-adv-x="1558" 
d="M28 0zM855 0l28 159l-5 -1q-70 -99 -175 -145.5t-225 -44.5q-133 2 -236 59.5t-158.5 160t-46.5 237.5q8 132 69.5 221.5t157.5 145t209.5 84.5t225.5 39q42 4 109 7.5t124.5 23.5t71.5 73l5 23q13 91 -35 144.5t-139 56.5q-99 3 -177.5 -49t-116.5 -142l-350 68
q39 151 145 248.5t247.5 143.5t286.5 44q158 -2 281 -63.5t187.5 -178t46.5 -283.5l-174 -1031h-356zM918 511l49 207q-44 -38 -112 -47t-123 -16q-70 -9 -140 -30.5t-120.5 -67.5t-63.5 -127q-12 -82 37.5 -124.5t126.5 -44.5q114 -2 218 66t128 184zM702 1782l245 201
l174 -202l315 -6l10 26l-321 380h-227l-487 -381l-9 -26z" />
    <glyph glyph-name="atilde" unicode="&#xe3;" horiz-adv-x="1564" 
d="M1228 2116l215 -13q-3 -92 -41.5 -177t-110.5 -139t-174 -53q-67 1 -123 32t-111 62t-120 31q-61 0 -94.5 -41t-44.5 -95l-226 9q4 91 44.5 177t113.5 141t174 53q66 -2 122 -32.5t112 -60.5t121 -30q61 0 96 40.5t47 95.5zM854 0l28 159l-5 -1q-70 -99 -175 -145.5
t-225 -44.5q-133 2 -236 59.5t-158.5 160t-46.5 238.5q8 131 69.5 220.5t157.5 145t209.5 84.5t225.5 39q42 4 109 7.5t124.5 23t71.5 73.5l4 22q14 92 -34 145.5t-139 56.5q-99 2 -177.5 -49.5t-116.5 -141.5l-350 68q39 151 145 248.5t247.5 143.5t287.5 44
q157 -2 280 -63.5t187 -178t47 -283.5l-174 -1031h-356zM917 511l49 207q-44 -38 -112 -47t-123 -16q-70 -9 -140 -30.5t-120.5 -67.5t-62.5 -127q-13 -82 36.5 -124t126.5 -44q114 -3 218 65t128 184z" />
    <glyph glyph-name="adieresis" unicode="&#xe4;" horiz-adv-x="1564" 
d="M1223 1725q-71 -1 -125 47.5t-57 121.5q-4 76 48.5 129t128.5 54q73 1 125 -48t55 -123q2 -75 -49 -128t-126 -53zM669 1725q-71 -1 -124.5 47.5t-56.5 121.5q-3 76 48.5 129t127.5 54q74 1 125.5 -48t54.5 -123q3 -75 -48.5 -128t-126.5 -53zM854 0l28 159l-5 -1
q-70 -99 -175 -145t-225 -44q-133 1 -235.5 59t-158 160t-47.5 237q9 132 70 221.5t157 145t209.5 84.5t225.5 39q42 4 109 7.5t124.5 23.5t71.5 73l4 23q14 91 -34 144.5t-139 56.5q-99 3 -177.5 -49t-116.5 -142l-350 68q39 151 145 248.5t247.5 143.5t287.5 44
q157 -2 280 -63.5t187.5 -178t46.5 -283.5l-174 -1031h-356zM918 511l48 207q-44 -38 -112 -47t-123 -16q-71 -9 -140.5 -31t-120.5 -67.5t-63 -126.5q-13 -83 37 -125t127 -44q114 -3 218 65.5t129 184.5z" />
    <glyph glyph-name="aring" unicode="&#xe5;" horiz-adv-x="1558" 
d="M28 0zM855 0l28 159l-5 -1q-70 -99 -175 -145.5t-225 -44.5q-133 2 -236 59.5t-158.5 160t-46.5 237.5q8 132 69.5 221.5t157.5 145t209.5 84.5t225.5 39q42 4 109 7.5t124.5 23.5t71.5 73l5 23q13 91 -35 144.5t-139 56.5q-99 3 -177.5 -49t-116.5 -142l-350 68
q39 151 145 248.5t247.5 143.5t286.5 44q158 -2 281 -63.5t187.5 -178t46.5 -283.5l-174 -1031h-356zM918 511l49 207q-44 -38 -112 -47t-123 -16q-70 -9 -140 -30.5t-120.5 -67.5t-63.5 -127q-12 -82 37.5 -124.5t126.5 -44.5q114 -2 218 66t128 184zM658 1978
q2 91 49.5 162t124 111.5t164.5 39.5q123 -2 209.5 -86.5t84.5 -209.5q-2 -90 -49.5 -158.5t-124 -106.5t-162.5 -37q-121 2 -209.5 81.5t-86.5 203.5zM822 1979q-9 -60 23 -105t95 -46q70 -1 124 49t64 118q10 60 -22 106.5t-96 47.5q-71 1 -124.5 -50.5t-63.5 -119.5z" />
    <glyph glyph-name="ae" unicode="&#xe6;" horiz-adv-x="2490" 
d="M196 1120q39 151 145 248t247 143.5t287 44.5q109 -1 224 -33.5t189 -120.5q102 76 216.5 115.5t241.5 38.5q211 -3 344 -105.5t187.5 -269.5t28.5 -363l-18 -123l-1012 -94q-4 -133 64.5 -221t207.5 -91q114 -4 202.5 52t134.5 159l331 -91q-36 -148 -145.5 -246
t-253 -146t-283.5 -46q-148 2 -281 64t-200 202h-9q-76 -139 -221 -205t-299 -64q-136 1 -249 55t-178 155.5t-57 246.5q8 132 69.5 221.5t158 145t210 84.5t225.5 39q42 4 109 7.5t124.5 23t71.5 73.5l4 22q14 92 -34 145.5t-140 55.5q-98 3 -176.5 -48.5t-115.5 -141.5z
M1726 1242q-116 4 -198 -51.5t-137.5 -144.5t-92.5 -185l662 60q26 130 -34.5 223.5t-199.5 97.5zM922 511l49 207q-44 -38 -112 -47t-123 -16q-71 -9 -140.5 -31t-120 -67.5t-62.5 -126.5q-13 -82 37 -124.5t126 -44.5q115 -3 218.5 65.5t127.5 184.5z" />
    <glyph glyph-name="ccedilla" unicode="&#xe7;" horiz-adv-x="1578" 
d="M74 0zM1476 1043l-355 -53q-20 104 -75 175.5t-170 75.5q-133 4 -220 -68.5t-134.5 -185t-61.5 -225.5q-9 -73 -6.5 -154t25.5 -153t77 -118.5t148 -48.5q113 -3 194 61t119 166l355 -51q-36 -156 -139.5 -267.5t-247 -170t-297.5 -55.5q-222 3 -360.5 116.5t-196 293.5
t-35.5 381q23 212 125.5 394.5t272.5 293t397 106.5q240 -4 393 -142.5t192 -370.5zM530 11l286 1l-30 -90q83 -16 125 -78t42 -144q-2 -101 -49.5 -165.5t-124 -101t-164 -52t-168.5 -17.5l9 227q61 2 114 27.5t67 92.5q10 49 -18 68.5t-71 24.5t-77 8z" />
    <glyph glyph-name="egrave" unicode="&#xe8;" horiz-adv-x="1633" 
d="M70 0zM715 -30q-224 3 -370.5 107.5t-210.5 279t-41 385.5q24 217 127.5 404t277.5 300.5t406 110.5q211 -3 346 -105.5t192 -269.5t34 -364l-24 -163h-1208l42 267l842 -1q24 131 -39.5 223.5t-202.5 96.5q-136 5 -226.5 -71t-140 -192t-63.5 -232q-14 -106 1 -210.5
t77.5 -174.5t192.5 -73q113 -3 200.5 53t133.5 159l333 -91q-38 -149 -145.5 -246.5t-249.5 -145.5t-284 -47zM912 2117l201 -423l-294 -1l-309 422z" />
    <glyph glyph-name="eacute" unicode="&#xe9;" horiz-adv-x="1633" 
d="M70 0zM715 -30q-224 3 -370.5 107.5t-210.5 279t-41 385.5q24 217 127.5 404t277.5 300.5t406 110.5q211 -3 346 -105.5t192 -269.5t34 -364l-24 -163h-1208l42 267l842 -1q24 131 -39.5 223.5t-202.5 96.5q-136 5 -226.5 -71t-140 -192t-63.5 -232q-14 -106 1 -210.5
t77.5 -174.5t192.5 -73q113 -3 200.5 53t133.5 159l333 -91q-38 -149 -145.5 -246.5t-249.5 -145.5t-284 -47zM750 1693l319 424h412l-412 -424h-319z" />
    <glyph glyph-name="ecircumflex" unicode="&#xea;" horiz-adv-x="1633" 
d="M70 0zM715 -30q-224 3 -370.5 107.5t-210.5 279t-41 385.5q24 217 127.5 404t277.5 300.5t406 110.5q211 -3 346 -105.5t192 -269.5t34 -364l-24 -163h-1208l42 267l842 -1q24 131 -39.5 223.5t-202.5 96.5q-136 5 -226.5 -71t-140 -192t-63.5 -232q-14 -106 1 -210.5
t77.5 -174.5t192.5 -73q113 -3 200.5 53t133.5 159l333 -91q-38 -149 -145.5 -246.5t-249.5 -145.5t-284 -47zM713 1782l245 201l174 -202l315 -6l10 26l-321 380h-227l-487 -381l-9 -26z" />
    <glyph glyph-name="edieresis" unicode="&#xeb;" horiz-adv-x="1632" 
d="M1259 1725q-71 -1 -125 47.5t-57 120.5q-3 77 49 130t128 54q73 1 125 -48t54 -123q3 -75 -48 -128t-126 -53zM705 1725q-71 -1 -124.5 47.5t-56.5 120.5q-3 77 48.5 130t127.5 54q73 1 125 -48t55 -123q2 -75 -49 -128t-126 -53zM702 -30q-224 3 -368.5 108t-206 279
t-36.5 385q26 218 132.5 405t282 300.5t408.5 109.5q211 -3 344 -106t187.5 -270t28.5 -363l-25 -163l-1002 1q-15 -145 46.5 -254t221.5 -114q114 -3 202.5 53t135.5 159l332 -91q-37 -149 -146 -247t-252 -145.5t-285 -46.5zM893 1242q-103 3 -179.5 -42.5t-132 -120.5
t-95.5 -159l642 1q27 130 -34 223t-201 98z" />
    <glyph glyph-name="igrave" unicode="&#xec;" horiz-adv-x="739" 
d="M25 0zM671 1536l-266 -1536h-380l266 1536h380zM487 2097l201 -423l-294 -1l-309 422z" />
    <glyph glyph-name="iacute" unicode="&#xed;" horiz-adv-x="739" 
d="M25 0zM671 1536l-266 -1536h-380l266 1536h380zM325 1673l319 424h412l-412 -424h-319z" />
    <glyph glyph-name="icircumflex" unicode="&#xee;" horiz-adv-x="739" 
d="M0 0zM671 1536l-266 -1536h-380l266 1536h380zM288 1762l245 201l174 -202l315 -6l10 26l-321 380h-227l-487 -381l-9 -26z" />
    <glyph glyph-name="idieresis" unicode="&#xef;" horiz-adv-x="1299" 
d="M1097 1725q-72 -1 -125.5 47.5t-56.5 121.5q-3 76 49 129t128 54q73 1 125.5 -48t54.5 -123q3 -75 -49 -128t-126 -53zM543 1725q-71 -1 -124.5 47.5t-56.5 121.5q-3 76 48.5 129t127.5 54q73 1 125 -48t55 -123q3 -75 -48.5 -128t-126.5 -53zM948 1536l-267 -1536h-380
l267 1536h380z" />
    <glyph glyph-name="eth" unicode="&#xf0;" horiz-adv-x="1562" 
d="M633 -33q-204 4 -332.5 108.5t-182.5 269.5t-33 351q14 119 59 242t120 229.5t179.5 176.5t236.5 83q99 9 195 -25.5t156 -115.5l28 -1q-18 97 -63 184.5t-102 167.5l-369 -179l-74 219l267 124q-39 41 -87.5 72.5t-96.5 59.5l189 243q79 -47 152 -102.5t137 -122.5
l301 145l80 -216l-221 -99q132 -251 198 -493t27 -530q-20 -155 -78 -298t-153.5 -255t-228.5 -176.5t-304 -61.5zM663 277q122 -5 204 59.5t128 165.5t60 207q11 88 2.5 185.5t-58 167t-162.5 74.5q-122 4 -203.5 -62t-126.5 -168t-59 -207q-11 -87 -3.5 -184t56.5 -165.5
t162 -72.5z" />
    <glyph glyph-name="ntilde" unicode="&#xf1;" horiz-adv-x="1644" 
d="M1262 2116l215 -13q-3 -92 -42 -177.5t-110.5 -139.5t-173.5 -52q-68 0 -123.5 31.5t-110.5 62.5t-120 31q-61 0 -94.5 -41t-44.5 -95l-226 9q4 91 44.5 177t113.5 140.5t174 52.5q66 -1 122 -31.5t112 -60.5t121 -30q61 0 96 40.5t47 95.5zM540 845l-145 -845h-380
l267 1536h356l-46 -197h9q81 105 194.5 162t247.5 55q166 -2 263 -88.5t132.5 -221t19.5 -281.5l-164 -965h-379l163 950q13 104 -26.5 193.5t-159.5 94.5q-107 5 -180 -56t-115 -153.5t-57 -183.5z" />
    <glyph glyph-name="ograve" unicode="&#xf2;" horiz-adv-x="1648" 
d="M74 0zM688 -29q-221 3 -359.5 116t-196.5 292t-36 380q23 214 125 396.5t272.5 293t398.5 107.5q221 -3 359.5 -115.5t196.5 -290.5t36 -379q-23 -213 -125 -396.5t-272.5 -295t-398.5 -108.5zM704 288q134 -4 221 69.5t134.5 186.5t61.5 227q9 74 7 154.5t-26 151.5
t-78 116.5t-148 48.5q-134 4 -221 -69.5t-134 -186.5t-61 -227q-10 -74 -7.5 -154.5t26 -151.5t77.5 -116.5t148 -48.5zM902 2117l201 -423l-294 -1l-309 422z" />
    <glyph glyph-name="oacute" unicode="&#xf3;" horiz-adv-x="1648" 
d="M74 0zM688 -29q-221 3 -359.5 116t-196.5 292t-36 380q23 214 125 396.5t272.5 293t398.5 107.5q221 -3 359.5 -115.5t196.5 -290.5t36 -379q-23 -213 -125 -396.5t-272.5 -295t-398.5 -108.5zM704 288q134 -4 221 69.5t134.5 186.5t61.5 227q9 74 7 154.5t-26 151.5
t-78 116.5t-148 48.5q-134 4 -221 -69.5t-134 -186.5t-61 -227q-10 -74 -7.5 -154.5t26 -151.5t77.5 -116.5t148 -48.5zM740 1693l319 424h412l-412 -424h-319z" />
    <glyph glyph-name="ocircumflex" unicode="&#xf4;" horiz-adv-x="1648" 
d="M74 0zM688 -29q-221 3 -359.5 116t-196.5 292t-36 380q23 214 125 396.5t272.5 293t398.5 107.5q221 -3 359.5 -115.5t196.5 -290.5t36 -379q-23 -213 -125 -396.5t-272.5 -295t-398.5 -108.5zM704 288q134 -4 221 69.5t134.5 186.5t61.5 227q9 74 7 154.5t-26 151.5
t-78 116.5t-148 48.5q-134 4 -221 -69.5t-134 -186.5t-61 -227q-10 -74 -7.5 -154.5t26 -151.5t77.5 -116.5t148 -48.5zM703 1782l245 201l174 -202l315 -6l10 26l-321 380h-227l-487 -381l-9 -26z" />
    <glyph glyph-name="otilde" unicode="&#xf5;" horiz-adv-x="1648" 
d="M1293 2116l215 -13q-3 -92 -42 -177.5t-110.5 -139.5t-173.5 -52q-67 1 -123 32t-111 62t-120 31q-61 0 -94.5 -41t-44.5 -95l-226 9q4 91 44.5 177t113.5 141t174 53q66 -1 122 -32t112 -61t121 -30q61 0 96 40.5t47 95.5zM676 -29q-221 3 -358 116.5t-192 292.5
t-31 379q26 213 130 396.5t276 294t401 106.5q221 -3 358 -115.5t192 -290.5t31 -379q-25 -213 -129.5 -397t-277 -295.5t-400.5 -107.5zM694 288q135 -4 223.5 69.5t137.5 186.5t65 228q10 72 9 152.5t-23 151.5t-74.5 117t-146.5 49q-135 4 -224 -69t-137.5 -186.5
t-64.5 -228.5q-10 -72 -9.5 -152.5t22.5 -151.5t75 -117t147 -49z" />
    <glyph glyph-name="odieresis" unicode="&#xf6;" horiz-adv-x="1648" 
d="M1267 1725q-71 -1 -125 47.5t-57 121.5q-4 76 48.5 129t128.5 54q73 1 125 -48t54 -123q3 -75 -48 -127.5t-126 -53.5zM713 1725q-71 -1 -124.5 47.5t-56.5 121.5q-3 76 48.5 129t127.5 54q73 1 125 -48t55 -123q2 -75 -49 -127.5t-126 -53.5zM676 -29q-221 3 -358 116.5
t-192 292.5t-31 379q26 213 130 396.5t276 294t401 106.5q221 -3 358 -115.5t192 -290.5t31 -379q-25 -213 -129.5 -397t-277 -295.5t-400.5 -107.5zM694 288q135 -4 223.5 69.5t137.5 186.5t65 228q10 72 9 152.5t-23 151.5t-74.5 117t-146.5 49q-135 4 -223.5 -69
t-137.5 -186.5t-65 -228.5q-10 -72 -9.5 -152.5t22.5 -151.5t75 -117t147 -49z" />
    <glyph glyph-name="divide" unicode="&#xf7;" horiz-adv-x="1640" 
d="M685 1428q-2 96 62 155t158 59q87 0 148.5 -55t63.5 -145q2 -95 -62 -153t-156 -57q-87 0 -149.5 53t-64.5 143zM1457 1052l-54 -310h-1244l54 310h1244zM497 344q-2 95 62 155t158 60q88 -1 149.5 -56.5t63.5 -144.5q2 -95 -62.5 -153.5t-156.5 -58.5q-87 0 -149.5 53.5
t-64.5 144.5z" />
    <glyph glyph-name="oslash" unicode="&#xf8;" horiz-adv-x="1648" 
d="M221 -93l-172 139l138 149q-128 264 -91 564q27 214 130.5 397t275 293t401.5 108q85 -1 168 -20.5t158 -62.5l121 143l173 -140l-132 -141q66 -136 87.5 -275.5t3.5 -289.5q-27 -214 -131 -397.5t-275.5 -295t-401.5 -108.5q-86 1 -169 21t-157 64zM458 760
q-10 -62 -16 -124.5t-5 -125.5l585 699q-29 19 -64.5 26.5t-69.5 8.5q-137 3 -225 -70t-137 -185.5t-68 -228.5zM692 286q136 -3 224 70.5t137 186t68 227.5q11 62 16.5 125.5t3.5 126.5l-585 -700q29 -20 65 -27.5t71 -8.5z" />
    <glyph glyph-name="ugrave" unicode="&#xf9;" horiz-adv-x="1644" 
d="M100 0zM1035 684l146 852h379l-267 -1536h-356l43 184l-9 -1q-83 -99 -196 -153.5t-244 -51.5q-163 4 -260 91.5t-134 222t-20 279.5l164 965h379l-162 -955q-14 -104 27 -190.5t159 -91.5q107 -4 180 54.5t114.5 149t56.5 181.5zM923 2117l201 -423l-294 -1l-309 422z
" />
    <glyph glyph-name="uacute" unicode="&#xfa;" horiz-adv-x="1644" 
d="M100 0zM1035 684l146 852h379l-267 -1536h-356l43 184l-9 -1q-83 -99 -196 -153.5t-244 -51.5q-163 4 -260 91.5t-134 222t-20 279.5l164 965h379l-162 -955q-14 -104 27 -190.5t159 -91.5q107 -4 180 54.5t114.5 149t56.5 181.5zM761 1693l319 424h412l-412 -424h-319z
" />
    <glyph glyph-name="ucircumflex" unicode="&#xfb;" horiz-adv-x="1644" 
d="M100 0zM1035 684l146 852h379l-267 -1536h-356l43 184l-9 -1q-83 -99 -196 -153.5t-244 -51.5q-163 4 -260 91.5t-134 222t-20 279.5l164 965h379l-162 -955q-14 -104 27 -190.5t159 -91.5q107 -4 180 54.5t114.5 149t56.5 181.5zM724 1782l245 201l174 -202l315 -6
l10 26l-321 380h-227l-487 -381l-9 -26z" />
    <glyph glyph-name="udieresis" unicode="&#xfc;" horiz-adv-x="1644" 
d="M1263 1725q-71 0 -125 48t-57 121q-3 76 49 129t128 54q73 0 124.5 -49t54.5 -122q3 -75 -48 -127.5t-126 -53.5zM709 1725q-71 0 -124.5 48t-56.5 121q-3 76 48.5 129t127.5 54q73 0 124.5 -49t54.5 -122q3 -75 -48 -127.5t-126 -53.5zM1035 684l146 852h379l-267 -1536
h-356l43 183h-8q-174 -207 -440 -203q-163 2 -259.5 90t-134 223t-21.5 278l164 965h379l-163 -955q-14 -104 27 -190t160 -91q106 -5 179 53.5t115 149t57 181.5z" />
    <glyph glyph-name="yacute" unicode="&#xfd;" horiz-adv-x="1631" 
d="M0 0zM418 -66l51 99l-283 1502l386 1l147 -1014h15l508 1014h408l-934 -1765q-82 -164 -220 -269t-329 -103q-56 0 -110.5 11.5t-107.5 30.5l117 304q136 -41 213.5 15t138.5 174zM742 1693l319 424h412l-412 -424h-319z" />
    <glyph glyph-name="thorn" unicode="&#xfe;" horiz-adv-x="1667" 
d="M370 2048h380l-132 -705l10 1q136 216 391 213q158 -2 259.5 -75t155.5 -190t69 -253t0 -266q-16 -141 -67.5 -284t-139.5 -261t-212.5 -188.5t-287.5 -66.5q-108 3 -205 53.5t-137 157.5h-19l-140 -760h-380zM1141 775q10 72 9 152t-23.5 150.5t-75.5 116t-146 48.5
q-133 4 -218.5 -70t-132 -186.5t-61.5 -224.5q-10 -69 -11 -149.5t19 -153t70 -120t143 -50.5q134 -5 223.5 69.5t139 189t64.5 228.5z" />
    <glyph glyph-name="ydieresis" unicode="&#xff;" horiz-adv-x="1548" 
d="M1217 1725q-71 0 -124.5 48t-56.5 121q-3 76 49 129t127 53q73 1 125 -48t54 -122q3 -75 -48 -127.5t-126 -53.5zM664 1725q-72 0 -125 48.5t-56 120.5q-3 76 48.5 129t127.5 53q73 1 124.5 -48t53.5 -122q3 -75 -48 -127.5t-125 -53.5zM419 -66l50 99l-283 1502l386 1
l147 -1014h15l508 1014h408l-934 -1766q-81 -163 -218.5 -268.5t-327.5 -102.5q-57 1 -112 12.5t-109 29.5l117 303q137 -41 215 15t138 175z" />
    <glyph glyph-name="Amacron" unicode="&#x100;" horiz-adv-x="2078" 
d="M0 0zM348 0h-427l1088 2048h408l383 -2048h-404l-69 436h-758zM1135 1552l-411 -790l552 -2l-120 792h-21zM1761 2454l-36 -226h-923l36 226h923z" />
    <glyph glyph-name="amacron" unicode="&#x101;" horiz-adv-x="1558" 
d="M28 0zM855 0l28 159l-5 -1q-70 -99 -175 -145.5t-225 -44.5q-133 2 -236 59.5t-158.5 160t-46.5 237.5q8 132 69.5 221.5t157.5 145t209.5 84.5t225.5 39q42 4 109 7.5t124.5 23.5t71.5 73l5 23q13 91 -35 144.5t-139 56.5q-99 3 -177.5 -49t-116.5 -142l-350 68
q39 151 145 248.5t247.5 143.5t286.5 44q158 -2 281 -63.5t187.5 -178t46.5 -283.5l-174 -1031h-356zM918 511l49 207q-44 -38 -112 -47t-123 -16q-70 -9 -140 -30.5t-120.5 -67.5t-63.5 -127q-12 -82 37.5 -124.5t126.5 -44.5q114 -2 218 66t128 184zM1429 2002l-36 -226
h-923l36 226h923z" />
    <glyph glyph-name="Abreve" unicode="&#x102;" horiz-adv-x="2078" 
d="M0 0zM348 0h-427l1088 2048h408l383 -2048h-404l-69 436h-758zM1135 1552l-411 -790l552 -2l-120 792h-21zM1490 2554l270 3q-3 -134 -72 -226t-179 -139t-236 -44q-185 3 -303 111.5t-119 296.5l269 -1q-2 -80 33.5 -131.5t122.5 -53.5q88 -2 145.5 48t68.5 136z" />
    <glyph glyph-name="abreve" unicode="&#x103;" horiz-adv-x="1558" 
d="M28 0zM855 0l28 159l-5 -1q-70 -99 -175 -145.5t-225 -44.5q-133 2 -236 59.5t-158.5 160t-46.5 237.5q8 132 69.5 221.5t157.5 145t209.5 84.5t225.5 39q42 4 109 7.5t124.5 23.5t71.5 73l5 23q13 91 -35 144.5t-139 56.5q-99 3 -177.5 -49t-116.5 -142l-350 68
q39 151 145 248.5t247.5 143.5t286.5 44q158 -2 281 -63.5t187.5 -178t46.5 -283.5l-174 -1031h-356zM918 511l49 207q-44 -38 -112 -47t-123 -16q-70 -9 -140 -30.5t-120.5 -67.5t-63.5 -127q-12 -82 37.5 -124.5t126.5 -44.5q114 -2 218 66t128 184zM1158 2102l270 3
q-3 -134 -72 -226t-179 -139t-236 -44q-185 3 -303 111.5t-119 296.5l269 -1q-2 -80 33.5 -131.5t122.5 -53.5q88 -2 145.5 48t68.5 136z" />
    <glyph glyph-name="Aogonek" unicode="&#x104;" horiz-adv-x="2078" 
d="M348 0h-427l1088 2048h408l383 -2048h-79l11 -5q-70 -43 -148.5 -101t-93.5 -149q-13 -79 62 -81q28 0 55.5 8.5t53.5 18.5l28 -214q-47 -32 -103 -45t-112 -12q-123 1 -202.5 75t-76.5 200q2 106 60 182.5t139 131.5l-67 427h-758zM1135 1552l-411 -790l552 -2l-120 792
h-21z" />
    <glyph glyph-name="aogonek" unicode="&#x105;" horiz-adv-x="1558" 
d="M855 0l28 159l-5 -1q-70 -99 -175 -145.5t-225 -44.5q-133 2 -236 59.5t-158.5 160t-46.5 237.5q8 132 69.5 221.5t157.5 145t209.5 84.5t225.5 39q42 4 109 7.5t124.5 23.5t71.5 73l5 23q13 91 -35 144.5t-139 56.5q-99 3 -177.5 -49t-116.5 -142l-350 68
q39 151 145 248.5t247.5 143.5t286.5 44q158 -2 281 -63.5t187.5 -178t46.5 -283.5l-174 -1029l14 -7q-70 -43 -148.5 -101t-93.5 -149q-13 -79 62 -81q28 0 55.5 8.5t53.5 18.5l28 -214q-47 -32 -103 -45t-112 -12q-123 1 -202.5 75t-76.5 200q2 101 55.5 176t131.5 129
h-20zM918 511l49 207q-44 -38 -112 -47t-123 -16q-70 -9 -140 -30.5t-120.5 -67.5t-63.5 -127q-12 -82 37.5 -124.5t126.5 -44.5q114 -2 218 66t128 184z" />
    <glyph glyph-name="Cacute" unicode="&#x106;" horiz-adv-x="1999" 
d="M137 0zM1931 1402l-375 -42q-27 155 -119.5 254.5t-257.5 104.5q-146 4 -256 -57.5t-187.5 -165.5t-123.5 -230t-64 -252q-15 -108 -13 -226t36.5 -221t113.5 -169.5t217 -69.5q174 -4 309.5 91.5t194.5 256.5l375 -40q-53 -201 -188 -351t-321 -232.5t-390 -80.5
q-218 2 -367.5 92.5t-235.5 240.5t-114 334.5t-3 375.5q28 203 109.5 394t214.5 342.5t312.5 239.5t402.5 85q208 -2 357.5 -90t242 -239.5t130.5 -344.5zM1069 2145l319 424h412l-412 -424h-319z" />
    <glyph glyph-name="cacute" unicode="&#x107;" horiz-adv-x="1578" 
d="M74 0zM1476 1043l-355 -53q-20 104 -75 175.5t-170 75.5q-133 4 -220 -68.5t-134.5 -185t-61.5 -225.5q-9 -73 -6.5 -154t25.5 -153t77 -118.5t148 -48.5q113 -3 194 61t119 166l355 -51q-36 -156 -139.5 -267.5t-247 -170t-297.5 -55.5q-222 3 -360.5 116.5t-196 293.5
t-35.5 381q23 212 125.5 394.5t272.5 293t397 106.5q240 -4 393 -142.5t192 -370.5zM757 1693l319 424h412l-412 -424h-319z" />
    <glyph glyph-name="Ccircumflex" unicode="&#x108;" horiz-adv-x="1999" 
d="M137 0zM1931 1402l-375 -42q-27 155 -119.5 254.5t-257.5 104.5q-146 4 -256 -57.5t-187.5 -165.5t-123.5 -230t-64 -252q-15 -108 -13 -226t36.5 -221t113.5 -169.5t217 -69.5q174 -4 309.5 91.5t194.5 256.5l375 -40q-53 -201 -188 -351t-321 -232.5t-390 -80.5
q-218 2 -367.5 92.5t-235.5 240.5t-114 334.5t-3 375.5q28 203 109.5 394t214.5 342.5t312.5 239.5t402.5 85q208 -2 357.5 -90t242 -239.5t130.5 -344.5zM1032 2234l245 201l174 -202l315 -6l10 26l-321 380h-227l-487 -381l-9 -26z" />
    <glyph glyph-name="ccircumflex" unicode="&#x109;" horiz-adv-x="1578" 
d="M74 0zM1476 1043l-355 -53q-20 104 -75 175.5t-170 75.5q-133 4 -220 -68.5t-134.5 -185t-61.5 -225.5q-9 -73 -6.5 -154t25.5 -153t77 -118.5t148 -48.5q113 -3 194 61t119 166l355 -51q-36 -156 -139.5 -267.5t-247 -170t-297.5 -55.5q-222 3 -360.5 116.5t-196 293.5
t-35.5 381q23 212 125.5 394.5t272.5 293t397 106.5q240 -4 393 -142.5t192 -370.5zM720 1782l245 201l174 -202l315 -6l10 26l-321 380h-227l-487 -381l-9 -26z" />
    <glyph glyph-name="Cdotaccent" unicode="&#x10a;" horiz-adv-x="1999" 
d="M137 0zM1931 1402l-375 -42q-27 155 -119.5 254.5t-257.5 104.5q-146 4 -256 -57.5t-187.5 -165.5t-123.5 -230t-64 -252q-15 -108 -13 -226t36.5 -221t113.5 -169.5t217 -69.5q174 -4 309.5 91.5t194.5 256.5l375 -40q-53 -201 -188 -351t-321 -232.5t-390 -80.5
q-218 2 -367.5 92.5t-235.5 240.5t-114 334.5t-3 375.5q28 203 109.5 394t214.5 342.5t312.5 239.5t402.5 85q208 -2 357.5 -90t242 -239.5t130.5 -344.5zM1099 2369q-2 86 54 140t139 54q80 1 137.5 -48.5t59.5 -131.5q3 -86 -54 -139t-140 -53q-79 -1 -136 48t-60 130z
" />
    <glyph glyph-name="cdotaccent" unicode="&#x10b;" horiz-adv-x="1578" 
d="M74 0zM1476 1043l-355 -53q-20 104 -75 175.5t-170 75.5q-133 4 -220 -68.5t-134.5 -185t-61.5 -225.5q-9 -73 -6.5 -154t25.5 -153t77 -118.5t148 -48.5q113 -3 194 61t119 166l355 -51q-36 -156 -139.5 -267.5t-247 -170t-297.5 -55.5q-222 3 -360.5 116.5t-196 293.5
t-35.5 381q23 212 125.5 394.5t272.5 293t397 106.5q240 -4 393 -142.5t192 -370.5zM786 1917q-2 86 54 140t139 54q80 1 137.5 -48.5t59.5 -131.5q3 -86 -54 -139t-140 -53q-79 -1 -136 48t-60 130z" />
    <glyph glyph-name="Ccaron" unicode="&#x10c;" horiz-adv-x="1999" 
d="M137 0zM1931 1402l-375 -42q-27 155 -119.5 254.5t-257.5 104.5q-146 4 -256 -57.5t-187.5 -165.5t-123.5 -230t-64 -252q-15 -108 -13 -226t36.5 -221t113.5 -169.5t217 -69.5q174 -4 309.5 91.5t194.5 256.5l375 -40q-53 -201 -188 -351t-321 -232.5t-390 -80.5
q-218 2 -367.5 92.5t-235.5 240.5t-114 334.5t-3 375.5q28 203 109.5 394t214.5 342.5t312.5 239.5t402.5 85q208 -2 357.5 -90t242 -239.5t130.5 -344.5zM1092 2565l173 -201l242 200l321 7l1 -25l-452 -381h-231l-355 382l-1 24z" />
    <glyph glyph-name="ccaron" unicode="&#x10d;" horiz-adv-x="1578" 
d="M74 0zM1476 1043l-355 -53q-20 104 -75 175.5t-170 75.5q-133 4 -220 -68.5t-134.5 -185t-61.5 -225.5q-9 -73 -6.5 -154t25.5 -153t77 -118.5t148 -48.5q113 -3 194 61t119 166l355 -51q-36 -156 -139.5 -267.5t-247 -170t-297.5 -55.5q-222 3 -360.5 116.5t-196 293.5
t-35.5 381q23 212 125.5 394.5t272.5 293t397 106.5q240 -4 393 -142.5t192 -370.5zM780 2113l173 -201l242 200l321 7l1 -25l-452 -381h-231l-355 382l-1 24z" />
    <glyph glyph-name="Dcaron" unicode="&#x10e;" horiz-adv-x="1975" 
d="M25 0zM721 0h-696l355 2048h661q298 -4 483.5 -143t260 -369t37.5 -507q-40 -295 -184 -528t-377 -367.5t-540 -133.5zM1005 1706h-299l-236 -1364l250 -1q211 0 361 89.5t238.5 246t117.5 356.5q25 174 -1 326.5t-127.5 247.5t-303.5 99zM857 2565l173 -201l242 200
l321 7l1 -25l-452 -381h-231l-355 382l-1 24z" />
    <glyph glyph-name="dcaron" unicode="&#x10f;" horiz-adv-x="1817" 
d="M80 0zM1316 0h-374l43 185l-14 -1q-136 -216 -395 -212q-157 2 -258 76t-155 191.5t-68.5 254.5t0.5 266q17 141 68.5 283t139.5 259.5t212.5 187t286.5 65.5q108 -3 205.5 -53.5t136.5 -157.5h19l130 704h379zM456 760q-10 -71 -9 -152t23.5 -152.5t75.5 -118t147 -49.5
q133 -5 218.5 70.5t131.5 190t62 225.5q10 70 10.5 149.5t-19 151t-70 117.5t-142.5 50q-134 4 -223.5 -68.5t-139.5 -185.5t-65 -228zM2194 2126l-32 -193q-25 -156 -86 -300t-172 -260l-212 90q54 112 105 218t73 230l37 215h287z" />
    <glyph glyph-name="Dcroat" unicode="&#x110;" horiz-adv-x="2005" 
d="M751 0h-696l155 895h-131l42 239h130l159 914h661q298 -4 483.5 -143t260 -369t37.5 -507q-40 -295 -184 -528t-377 -367.5t-540 -133.5zM1051 1134l-42 -239h-413l-96 -553l250 -1q211 0 361 89.5t238.5 246t117.5 356.5q25 174 -1 326.5t-127.5 247.5t-303.5 99h-299
l-99 -572h414z" />
    <glyph glyph-name="dcroat" unicode="&#x111;" horiz-adv-x="1718" 
d="M1316 0h-374l43 185l-14 -1q-136 -216 -395 -213q-157 3 -258 77t-155 191.5t-68.5 254.5t0.5 266q17 141 68.5 283t139.5 259.5t212.5 187t286.5 65.5q108 -3 205.5 -53.5t136.5 -157.5h18l63 313h-354l42 239h353l27 152h379l-27 -152h198l-42 -239h-197zM456 760
q-10 -71 -9 -152t23.5 -152.5t75.5 -118t147 -50.5q133 -4 218.5 71.5t131.5 190t62 225.5q10 70 10.5 149.5t-19 151t-70 117.5t-142.5 50q-134 4 -223.5 -68.5t-139.5 -185.5t-65 -228z" />
    <glyph glyph-name="Emacron" unicode="&#x112;" horiz-adv-x="1660" 
d="M25 0zM1376 332l-58 -332h-1293l355 2048h1288l-58 -332h-902l-91 -526h778l-58 -331h-777l-92 -527h908zM1580 2454l-36 -226h-923l36 226h923z" />
    <glyph glyph-name="emacron" unicode="&#x113;" horiz-adv-x="1633" 
d="M70 0zM715 -30q-224 3 -370.5 107.5t-210.5 279t-41 385.5q24 217 127.5 404t277.5 300.5t406 110.5q211 -3 346 -105.5t192 -269.5t34 -364l-24 -163h-1208l42 267l842 -1q24 131 -39.5 223.5t-202.5 96.5q-136 5 -226.5 -71t-140 -192t-63.5 -232q-14 -106 1 -210.5
t77.5 -174.5t192.5 -73q113 -3 200.5 53t133.5 159l333 -91q-38 -149 -145.5 -246.5t-249.5 -145.5t-284 -47zM1439 2002l-36 -226h-923l36 226h923z" />
    <glyph glyph-name="Ebreve" unicode="&#x114;" horiz-adv-x="1660" 
d="M25 0zM1376 332l-58 -332h-1293l355 2048h1288l-58 -332h-902l-91 -526h778l-58 -331h-777l-92 -527h908zM1309 2554l270 3q-3 -134 -72 -226t-179 -139t-236 -44q-185 3 -303 111.5t-119 296.5l269 -1q-2 -80 33.5 -131.5t122.5 -53.5q88 -2 145.5 48t68.5 136z" />
    <glyph glyph-name="ebreve" unicode="&#x115;" horiz-adv-x="1633" 
d="M70 0zM715 -30q-224 3 -370.5 107.5t-210.5 279t-41 385.5q24 217 127.5 404t277.5 300.5t406 110.5q211 -3 346 -105.5t192 -269.5t34 -364l-24 -163h-1208l42 267l842 -1q24 131 -39.5 223.5t-202.5 96.5q-136 5 -226.5 -71t-140 -192t-63.5 -232q-14 -106 1 -210.5
t77.5 -174.5t192.5 -73q113 -3 200.5 53t133.5 159l333 -91q-38 -149 -145.5 -246.5t-249.5 -145.5t-284 -47zM1169 2102l270 3q-3 -134 -72 -226t-179 -139t-236 -44q-185 3 -303 111.5t-119 296.5l269 -1q-2 -80 33.5 -131.5t122.5 -53.5q88 -2 145.5 48t68.5 136z" />
    <glyph glyph-name="Edotaccent" unicode="&#x116;" horiz-adv-x="1660" 
d="M25 0zM1376 332l-58 -332h-1293l355 2048h1288l-58 -332h-902l-91 -526h778l-58 -331h-777l-92 -527h908zM920 2369q-2 86 54 140t139 54q80 1 137.5 -48.5t59.5 -131.5q3 -86 -54 -139t-140 -53q-79 -1 -136 48t-60 130z" />
    <glyph glyph-name="edotaccent" unicode="&#x117;" horiz-adv-x="1633" 
d="M70 0zM715 -30q-224 3 -370.5 107.5t-210.5 279t-41 385.5q24 217 127.5 404t277.5 300.5t406 110.5q211 -3 346 -105.5t192 -269.5t34 -364l-24 -163h-1208l42 267l842 -1q24 131 -39.5 223.5t-202.5 96.5q-136 5 -226.5 -71t-140 -192t-63.5 -232q-14 -106 1 -210.5
t77.5 -174.5t192.5 -73q113 -3 200.5 53t133.5 159l333 -91q-38 -149 -145.5 -246.5t-249.5 -145.5t-284 -47zM779 1917q-2 86 54 140t139 54q80 1 137.5 -48.5t59.5 -131.5q3 -86 -54 -139t-140 -53q-79 -1 -136 48t-60 130z" />
    <glyph glyph-name="Eogonek" unicode="&#x118;" horiz-adv-x="1660" 
d="M1376 332l-58 -332h-154l11 -5q-70 -43 -148.5 -101t-93.5 -149q-13 -79 62 -81q28 0 55.5 8.5t53.5 18.5l28 -214q-47 -32 -103 -45t-112 -12q-123 1 -202.5 75t-76.5 200q2 101 55.5 176t131.5 129h-800l355 2048h1288l-58 -332h-902l-91 -526h778l-58 -331h-777
l-92 -527h908z" />
    <glyph glyph-name="eogonek" unicode="&#x119;" horiz-adv-x="1633" 
d="M1037 -461q-46 -32 -102.5 -45t-111.5 -12q-123 1 -203 75t-77 200q2 66 26 120t63 98q-196 22 -323.5 129.5t-182.5 273.5t-34 364q24 217 127.5 404t277.5 300.5t406 110.5q211 -3 346 -105.5t192 -269.5t34 -364l-24 -163h-1003q-2 -92 21 -175t84.5 -136t172.5 -56
q113 -3 200.5 53t133.5 159l333 -91q-35 -138 -131.5 -232t-222.5 -145q-65 -40 -126.5 -93.5t-74.5 -131.5q-13 -79 62 -81q29 0 56.5 8.5t53.5 18.5zM885 1241q-154 5 -249 -92t-141 -227l632 -1q24 131 -39.5 223.5t-202.5 96.5z" />
    <glyph glyph-name="Ecaron" unicode="&#x11a;" horiz-adv-x="1660" 
d="M25 0zM1376 332l-58 -332h-1293l355 2048h1288l-58 -332h-902l-91 -526h778l-58 -331h-777l-92 -527h908zM913 2565l173 -201l242 200l321 7l1 -25l-452 -381h-231l-355 382l-1 24z" />
    <glyph glyph-name="ecaron" unicode="&#x11b;" horiz-adv-x="1633" 
d="M70 0zM715 -30q-224 3 -370.5 107.5t-210.5 279t-41 385.5q24 217 127.5 404t277.5 300.5t406 110.5q211 -3 346 -105.5t192 -269.5t34 -364l-24 -163h-1208l42 267l842 -1q24 131 -39.5 223.5t-202.5 96.5q-136 5 -226.5 -71t-140 -192t-63.5 -232q-14 -106 1 -210.5
t77.5 -174.5t192.5 -73q113 -3 200.5 53t133.5 159l333 -91q-38 -149 -145.5 -246.5t-249.5 -145.5t-284 -47zM773 2113l173 -201l242 200l321 7l1 -25l-452 -381h-231l-355 382l-1 24z" />
    <glyph glyph-name="Gcircumflex" unicode="&#x11c;" horiz-adv-x="2024" 
d="M137 0zM1872 1070l-51 -300q-36 -235 -168 -416t-331.5 -283t-438.5 -99q-218 2 -368 92t-236 240.5t-114 335t-3 375.5q27 202 108 393t212.5 342.5t310 240t400.5 86.5q204 -2 350.5 -88t241.5 -233.5t142 -332.5l-388 -41q-33 144 -122.5 238t-245.5 99
q-144 4 -253 -58t-185.5 -167t-122 -231t-62.5 -249q-15 -108 -12.5 -226t37 -221.5t114 -169.5t218.5 -69q209 -5 352.5 122.5t196.5 320.5l-427 -2l53 301h792zM1029 2234l245 201l174 -202l315 -6l10 26l-321 380h-227l-487 -381l-9 -26z" />
    <glyph glyph-name="gcircumflex" unicode="&#x11d;" horiz-adv-x="1667" 
d="M0 0zM1208 1531h374l-256 -1488q-30 -204 -140 -345t-277.5 -213t-369.5 -69q-158 2 -310 57t-258 177l211 250q75 -74 164 -117.5t197 -46.5q162 -4 274.5 82t142.5 247l34 159l-16 -1q-67 -100 -169.5 -148.5t-222.5 -46.5q-153 2 -254 69t-157.5 176t-74 239.5
t-3.5 259.5q16 140 68 280t140.5 255.5t212.5 183.5t284 64q108 -3 205.5 -53.5t136.5 -157.5h23zM458 772q-13 -97 -1 -196t68.5 -167t175.5 -71q129 -4 213 62t131 171t62 216q9 68 8.5 145.5t-21.5 146.5t-71 114t-140 48q-130 5 -219 -65.5t-140 -180.5t-66 -223z
M726 1782l245 201l174 -202l315 -6l10 26l-321 380h-227l-487 -381l-9 -26z" />
    <glyph glyph-name="Gbreve" unicode="&#x11e;" horiz-adv-x="2024" 
d="M137 0zM1872 1070l-51 -300q-36 -235 -168 -416t-331.5 -283t-438.5 -99q-218 2 -368 92t-236 240.5t-114 335t-3 375.5q27 202 108 393t212.5 342.5t310 240t400.5 86.5q204 -2 350.5 -88t241.5 -233.5t142 -332.5l-388 -41q-33 144 -122.5 238t-245.5 99
q-144 4 -253 -58t-185.5 -167t-122 -231t-62.5 -249q-15 -108 -12.5 -226t37 -221.5t114 -169.5t218.5 -69q209 -5 352.5 122.5t196.5 320.5l-427 -2l53 301h792zM1485 2554l270 3q-3 -134 -72 -226t-179 -139t-236 -44q-185 3 -303 111.5t-119 296.5l269 -1
q-2 -80 33.5 -131.5t122.5 -53.5q88 -2 145.5 48t68.5 136z" />
    <glyph glyph-name="gbreve" unicode="&#x11f;" horiz-adv-x="1667" 
d="M0 0zM1208 1531h374l-256 -1488q-30 -204 -140 -345t-277.5 -213t-369.5 -69q-158 2 -310 57t-258 177l211 250q75 -74 164 -117.5t197 -46.5q162 -4 274.5 82t142.5 247l34 159l-16 -1q-67 -100 -169.5 -148.5t-222.5 -46.5q-153 2 -254 69t-157.5 176t-74 239.5
t-3.5 259.5q16 140 68 280t140.5 255.5t212.5 183.5t284 64q108 -3 205.5 -53.5t136.5 -157.5h23zM458 772q-13 -97 -1 -196t68.5 -167t175.5 -71q129 -4 213 62t131 171t62 216q9 68 8.5 145.5t-21.5 146.5t-71 114t-140 48q-130 5 -219 -65.5t-140 -180.5t-66 -223z
M1182 2102l270 3q-3 -134 -72 -226t-179 -139t-236 -44q-185 3 -303 111.5t-119 296.5l269 -1q-2 -80 33.5 -131.5t122.5 -53.5q88 -2 145.5 48t68.5 136z" />
    <glyph glyph-name="Gdotaccent" unicode="&#x120;" horiz-adv-x="2024" 
d="M137 0zM1872 1070l-51 -300q-36 -235 -168 -416t-331.5 -283t-438.5 -99q-218 2 -368 92t-236 240.5t-114 335t-3 375.5q27 202 108 393t212.5 342.5t310 240t400.5 86.5q204 -2 350.5 -88t241.5 -233.5t142 -332.5l-388 -41q-33 144 -122.5 238t-245.5 99
q-144 4 -253 -58t-185.5 -167t-122 -231t-62.5 -249q-15 -108 -12.5 -226t37 -221.5t114 -169.5t218.5 -69q209 -5 352.5 122.5t196.5 320.5l-427 -2l53 301h792zM1096 2369q-2 86 54 140t139 54q80 1 137.5 -48.5t59.5 -131.5q3 -86 -54 -139t-140 -53q-79 -1 -136 48
t-60 130z" />
    <glyph glyph-name="gdotaccent" unicode="&#x121;" horiz-adv-x="1667" 
d="M0 0zM1208 1531h374l-256 -1488q-30 -204 -140 -345t-277.5 -213t-369.5 -69q-158 2 -310 57t-258 177l211 250q75 -74 164 -117.5t197 -46.5q162 -4 274.5 82t142.5 247l34 159l-16 -1q-67 -100 -169.5 -148.5t-222.5 -46.5q-153 2 -254 69t-157.5 176t-74 239.5
t-3.5 259.5q16 140 68 280t140.5 255.5t212.5 183.5t284 64q108 -3 205.5 -53.5t136.5 -157.5h23zM458 772q-13 -97 -1 -196t68.5 -167t175.5 -71q129 -4 213 62t131 171t62 216q9 68 8.5 145.5t-21.5 146.5t-71 114t-140 48q-130 5 -219 -65.5t-140 -180.5t-66 -223z
M792 1917q-2 86 54 140t139 54q80 1 137.5 -48.5t59.5 -131.5q3 -86 -54 -139t-140 -53q-79 -1 -136 48t-60 130z" />
    <glyph glyph-name="Gcommaaccent" unicode="&#x122;" horiz-adv-x="2024" 
d="M137 0zM1872 1070l-51 -300q-36 -235 -168 -416t-331.5 -283t-438.5 -99q-218 2 -368 92t-236 240.5t-114 335t-3 375.5q27 202 108 393t212.5 342.5t310 240t400.5 86.5q204 -2 350.5 -88t241.5 -233.5t142 -332.5l-388 -41q-33 144 -122.5 238t-245.5 99
q-144 4 -253 -58t-185.5 -167t-122 -231t-62.5 -249q-15 -108 -12.5 -226t37 -221.5t114 -169.5t218.5 -69q209 -5 352.5 122.5t196.5 320.5l-427 -2l53 301h792zM1006 -125l-32 -193q-25 -156 -86 -300t-172 -260l-212 90q54 112 105 218t73 230l37 215h287z" />
    <glyph glyph-name="gcommaaccent" unicode="&#x123;" horiz-adv-x="1667" 
d="M0 0zM1208 1531h374l-256 -1488q-30 -204 -140 -345t-277.5 -213t-369.5 -69q-158 2 -310 57t-258 177l211 250q75 -74 164 -117.5t197 -46.5q162 -4 274.5 82t142.5 247l34 159l-16 -1q-67 -100 -169.5 -148.5t-222.5 -46.5q-153 2 -254 69t-157.5 176t-74 239.5
t-3.5 259.5q16 140 68 280t140.5 255.5t212.5 183.5t284 64q108 -3 205.5 -53.5t136.5 -157.5h23zM458 772q-13 -97 -1 -196t68.5 -167t175.5 -71q129 -4 213 62t131 171t62 216q9 68 8.5 145.5t-21.5 146.5t-71 114t-140 48q-130 5 -219 -65.5t-140 -180.5t-66 -223z
M803 1737l30 186q19 131 79 252t172 196l195 -112q-50 -84 -88.5 -168.5t-56.5 -180.5l-32 -173h-299z" />
    <glyph glyph-name="Hcircumflex" unicode="&#x124;" horiz-adv-x="1989" 
d="M25 0zM766 2048l-149 -858h822l149 858h384l-355 -2048h-385l150 859h-822l-150 -859h-385l355 2048h386zM1038 2234l245 201l174 -202l315 -6l10 26l-321 380h-227l-487 -381l-9 -26z" />
    <glyph glyph-name="hcircumflex" unicode="&#x125;" horiz-adv-x="1615" 
d="M15 0zM541 852l-146 -852h-380l355 2048h369l-131 -696l9 1q81 98 191 151.5t238 51.5q163 -3 252 -92.5t118.5 -224t12.5 -274.5l-164 -965h-379l165 969q9 64 0 124.5t-45.5 100t-113.5 43.5q-107 4 -179.5 -54.5t-114.5 -149t-57 -181.5zM910 2321l245 201l174 -202
l315 -6l10 26l-321 380h-227l-487 -381l-9 -26z" />
    <glyph glyph-name="Hbar" unicode="&#x126;" horiz-adv-x="1972" 
d="M767 2048l-65 -369h822l65 369h385l-64 -369h150l-42 -236h-149l-250 -1443h-386l150 859h-822l-150 -859h-385l250 1443h-153l42 236h152l64 369h386zM617 1190h822l45 253h-822z" />
    <glyph glyph-name="hbar" unicode="&#x127;" horiz-adv-x="1645" 
d="M571 852l-146 -852h-380l292 1683h-236l42 239h235l22 126h369l-23 -126h327l-42 -239h-330l-63 -331l9 1q81 98 191 151.5t238 51.5q163 -3 252 -92.5t118.5 -224t12.5 -274.5l-164 -965h-379l165 969q9 64 0 124.5t-45.5 100t-113.5 43.5q-107 4 -179.5 -54.5
t-114.5 -149t-57 -181.5z" />
    <glyph glyph-name="Itilde" unicode="&#x128;" horiz-adv-x="744" 
d="M25 0zM766 2048l-356 -2048h-385l355 2048h386zM913 2565l216 -13q-3 -92 -41.5 -177t-109.5 -139.5t-173 -52.5q-68 1 -124 32t-111 62t-120 30q-61 0 -93.5 -40.5t-42.5 -94.5l-226 9q4 91 44 176.5t112 140.5t173 53q66 -1 122.5 -31.5t112.5 -60.5t120 -30
q61 1 95.5 41t45.5 95z" />
    <glyph glyph-name="itilde" unicode="&#x129;" horiz-adv-x="1267" 
d="M1108 2116l215 -13q-4 -92 -42.5 -177.5t-110.5 -139.5t-174 -53q-67 1 -123 32.5t-111 62.5t-120 31q-60 0 -93.5 -41t-44.5 -95l-226 9q4 91 45 177t114 141t174 53q65 -2 121 -32.5t112 -60.5t120 -30q61 0 96.5 40.5t47.5 95.5zM929 1536l-266 -1536h-380l266 1536
h380z" />
    <glyph glyph-name="Imacron" unicode="&#x12a;" horiz-adv-x="744" 
d="M25 0zM766 2048l-356 -2048h-385l355 2048h386zM1089 2454l-36 -226h-923l36 226h923z" />
    <glyph glyph-name="imacron" unicode="&#x12b;" horiz-adv-x="739" 
d="M25 0zM671 1536l-266 -1536h-380l266 1536h380zM1014 1982l-36 -226h-923l36 226h923z" />
    <glyph glyph-name="Ibreve" unicode="&#x12c;" horiz-adv-x="744" 
d="M25 0zM766 2048l-356 -2048h-385l355 2048h386zM818 2554l270 3q-3 -134 -72 -226t-179 -139t-236 -44q-185 3 -303 111.5t-119 296.5l269 -1q-2 -80 33.5 -131.5t122.5 -53.5q88 -2 145.5 48t68.5 136z" />
    <glyph glyph-name="ibreve" unicode="&#x12d;" horiz-adv-x="739" 
d="M25 0zM671 1536l-266 -1536h-380l266 1536h380zM744 2082l270 3q-3 -134 -72 -226t-179 -139t-236 -44q-185 3 -303 111.5t-119 296.5l269 -1q-2 -80 33.5 -131.5t122.5 -53.5q88 -2 145.5 48t68.5 136z" />
    <glyph glyph-name="Iogonek" unicode="&#x12e;" horiz-adv-x="744" 
d="M0 0zM766 2048l-356 -2048h-385l355 2048h386zM141 90l199 -90q-70 -43 -148.5 -101t-93.5 -149q-13 -79 62 -81q28 0 55.5 8.5t53.5 18.5l28 -214q-47 -32 -103 -45t-112 -12q-123 1 -202.5 75t-76.5 200q2 99 52.5 172.5t127 126.5t158.5 91z" />
    <glyph glyph-name="iogonek" unicode="&#x12f;" horiz-adv-x="739" 
d="M0 0zM536 1663q-84 0 -147 57t-65 143q-2 90 64 152t154 62q83 0 146 -57.5t65 -141.5q3 -92 -62.5 -153.5t-154.5 -61.5zM671 1536l-266 -1536h-380l266 1536h380zM144 85l199 -90q-70 -43 -148.5 -101t-93.5 -149q-13 -79 62 -81q28 0 55.5 8.5t53.5 18.5l28 -214
q-47 -32 -103 -45t-112 -12q-123 1 -202.5 75t-76.5 200q2 99 52.5 172.5t127 126.5t158.5 91z" />
    <glyph glyph-name="Idotaccent" unicode="&#x130;" horiz-adv-x="744" 
d="M25 0zM766 2048l-356 -2048h-385l355 2048h386zM429 2369q-2 86 54 140t139 54q80 1 137.5 -48.5t59.5 -131.5q3 -86 -54 -139t-140 -53q-79 -1 -136 48t-60 130z" />
    <glyph glyph-name="dotlessi" unicode="&#x131;" horiz-adv-x="739" 
d="M671 1536l-266 -1536h-380l266 1536h380z" />
    <glyph glyph-name="IJ" unicode="&#x132;" horiz-adv-x="2547" 
d="M281 0zM1022 2048l-356 -2048h-385l355 2048h386zM1922 614l247 1434h382l-246 -1434q-28 -189 -126.5 -335t-252.5 -228.5t-350 -79.5q-278 4 -424.5 168t-138.5 437h382q-3 -108 41.5 -192t165.5 -89q94 -4 160.5 41t106.5 119.5t53 158.5z" />
    <glyph glyph-name="ij" unicode="&#x133;" horiz-adv-x="1848" 
d="M281 0zM792 1663q-84 0 -147 57t-65 143q-2 90 64 152t154 62q83 0 146 -57.5t65 -141.5q3 -92 -62.5 -153.5t-154.5 -61.5zM927 1536l-266 -1536h-380l266 1536h380zM1646 1664q-84 0 -147 56.5t-65 142.5q-3 90 63.5 152t154.5 61q83 0 145.5 -57t64.5 -142
q2 -90 -63 -152t-153 -61zM1401 1536h380l-275 -1603q-35 -250 -196 -382t-411 -132l-149 1l56 314l57 -1q106 0 174.5 49t87.5 155z" />
    <glyph glyph-name="Jcircumflex" unicode="&#x134;" horiz-adv-x="1547" 
d="M5 0zM922 614l247 1434h382l-246 -1434q-28 -189 -126.5 -335t-252.5 -228.5t-350 -79.5q-278 4 -424.5 168t-138.5 437h382q-3 -108 41.5 -192t165.5 -89q94 -4 160.5 41t106.5 119.5t53 158.5zM1172 2234l245 201l174 -202l315 -6l10 26l-321 380h-227l-487 -381
l-9 -26z" />
    <glyph glyph-name="jcircumflex" unicode="&#x135;" horiz-adv-x="853" 
d="M0 0zM406 1536h380l-275 -1603q-34 -249 -196.5 -381.5t-410.5 -132.5l-149 1l56 314l57 -1q104 1 173 50t88 154zM395 1736l245 201l174 -202l315 -6l10 26l-321 380h-227l-487 -381l-9 -26z" />
    <glyph glyph-name="Kcommaaccent" unicode="&#x136;" horiz-adv-x="1975" 
d="M25 0zM1244 0l-441 821l-299 -283l-94 -538h-385l355 2048h386l-168 -910h18l953 910l533 -1l-1024 -956l611 -1091h-445zM911 -80l-32 -193q-25 -156 -86 -300t-172 -260l-212 90q54 112 105 218t73 230l37 215h287z" />
    <glyph glyph-name="kcommaaccent" unicode="&#x137;" horiz-adv-x="1555" 
d="M15 0zM954 0l-307 631l-171 -164l-81 -467h-380l355 2048h380l-197 -1082h15l561 570l473 -1l-683 -672l435 -863h-400zM742 -120l-32 -193q-25 -156 -86 -300t-172 -260l-212 90q54 112 105 218t73 230l37 215h287z" />
    <glyph glyph-name="kgreenlandic" unicode="&#x138;" horiz-adv-x="1804" 
d="M950 0l-264 555h-167l-97 -555h-381l258 1488h381l-98 -564h103l482 564h502l-654 -735l404 -753h-469z" />
    <glyph glyph-name="Lacute" unicode="&#x139;" horiz-adv-x="1568" 
d="M25 0zM1309 332l-58 -332h-1226l355 2048h386l-298 -1716h841zM403 2145l319 424h412l-412 -424h-319z" />
    <glyph glyph-name="lacute" unicode="&#x13a;" horiz-adv-x="717" 
d="M15 0zM750 2048l-355 -2048h-380l355 2048h380zM404 2219l319 424h412l-412 -424h-319z" />
    <glyph glyph-name="Lcommaaccent" unicode="&#x13b;" horiz-adv-x="1568" 
d="M25 0zM1309 332l-58 -332h-1226l355 2048h386l-298 -1716h841zM782 -104l-32 -193q-25 -156 -86 -300t-172 -260l-212 90q54 112 105 218t73 230l37 215h287z" />
    <glyph glyph-name="lcommaaccent" unicode="&#x13c;" horiz-adv-x="717" 
d="M0 0zM750 2048l-355 -2048h-380l355 2048h380zM323 -115l-32 -193q-25 -156 -86 -300t-172 -260l-212 90q54 112 105 218t73 230l37 215h287z" />
    <glyph glyph-name="Lcaron" unicode="&#x13d;" horiz-adv-x="1568" 
d="M25 0zM1309 332l-58 -332h-1226l355 2048h386l-298 -1716h841zM1402 2017l-32 -193q-25 -156 -86 -300t-172 -260l-212 90q54 112 105 218t73 230l37 215h287z" />
    <glyph glyph-name="lcaron" unicode="&#x13e;" horiz-adv-x="867" 
d="M15 0zM750 2048l-355 -2048h-380l355 2048h380zM1247 2126l-32 -193q-25 -156 -86 -300t-172 -260l-212 90q54 112 105 218t73 230l37 215h287z" />
    <glyph glyph-name="Ldot" unicode="&#x13f;" horiz-adv-x="1568" 
d="M25 0zM1309 332l-58 -332h-1226l355 2048h386l-298 -1716h841zM843 1145q-2 86 54 140t139 54q80 1 137.5 -48.5t59.5 -131.5q3 -86 -54 -139t-140 -53q-79 -1 -136 48t-60 130z" />
    <glyph glyph-name="ldot" unicode="&#x140;" horiz-adv-x="937" 
d="M15 0zM750 2048l-355 -2048h-380l355 2048h380zM718 1070q-2 86 54 140t139 54q80 1 137.5 -48.5t59.5 -131.5q3 -86 -54 -139t-140 -53q-79 -1 -136 48t-60 130z" />
    <glyph glyph-name="L_slash" unicode="&#x141;" horiz-adv-x="1742" 
d="M1424 332l-58 -332h-1227l154 886l-212 -59l42 236l211 60l160 925h386l-141 -809l293 82l-42 -238l-291 -82l-117 -669h842z" />
    <glyph glyph-name="lslash" unicode="&#x142;" horiz-adv-x="717" 
d="M807 1331l-42 -239l-193 -63l-178 -1029h-380l156 897l-198 -64l42 239l197 65l158 911h380l-135 -779z" />
    <glyph glyph-name="Nacute" unicode="&#x143;" horiz-adv-x="1988" 
d="M25 0zM1971 2048l-355 -2048h-366l-575 1371l-20 1l-245 -1372h-385l355 2048h368l574 -1374l20 -1l246 1375h383zM1072 2145l319 424h412l-412 -424h-319z" />
    <glyph glyph-name="nacute" unicode="&#x144;" horiz-adv-x="1644" 
d="M15 0zM540 845l-145 -845h-380l267 1536h356l-46 -197h9q81 105 194.5 162.5t248.5 54.5q165 -3 262 -89t133 -220t19 -282l-164 -965h-379l163 950q14 104 -26 193t-160 94q-107 4 -180 -56.5t-115 -152.5t-57 -183zM781 1693l319 424h412l-412 -424h-319z" />
    <glyph glyph-name="Ncommaaccent" unicode="&#x145;" horiz-adv-x="1988" 
d="M25 0zM1971 2048l-355 -2048h-366l-575 1371l-20 1l-245 -1372h-385l355 2048h368l574 -1374l20 -1l246 1375h383zM1003 -115l-32 -193q-25 -156 -86 -300t-172 -260l-212 90q54 112 105 218t73 230l37 215h287z" />
    <glyph glyph-name="ncommaaccent" unicode="&#x146;" horiz-adv-x="1644" 
d="M15 0zM540 845l-145 -845h-380l267 1536h356l-46 -197h9q81 105 194.5 162.5t248.5 54.5q165 -3 262 -89t133 -220t19 -282l-164 -965h-379l163 950q14 104 -26 193t-160 94q-107 4 -180 -56.5t-115 -152.5t-57 -183zM799 -120l-32 -193q-25 -156 -86 -300t-172 -260
l-212 90q54 112 105 218t73 230l37 215h287z" />
    <glyph glyph-name="Ncaron" unicode="&#x147;" horiz-adv-x="1988" 
d="M25 0zM1971 2048l-355 -2048h-366l-575 1371l-20 1l-245 -1372h-385l355 2048h368l574 -1374l20 -1l246 1375h383zM1095 2565l173 -201l242 200l321 7l1 -25l-452 -381h-231l-355 382l-1 24z" />
    <glyph glyph-name="ncaron" unicode="&#x148;" horiz-adv-x="1644" 
d="M15 0zM540 845l-145 -845h-380l267 1536h356l-46 -197h9q81 105 194.5 162.5t248.5 54.5q165 -3 262 -89t133 -220t19 -282l-164 -965h-379l163 950q14 104 -26 193t-160 94q-107 4 -180 -56.5t-115 -152.5t-57 -183zM804 2113l173 -201l242 200l321 7l1 -25l-452 -381
h-231l-355 382l-1 24z" />
    <glyph glyph-name="napostrophe" unicode="&#x149;" horiz-adv-x="1644" 
d="M0 0zM540 845l-145 -845h-380l267 1536h356l-46 -197h9q81 105 194.5 162.5t248.5 54.5q165 -3 262 -89t133 -220t19 -282l-164 -965h-379l163 950q14 104 -26 193t-160 94q-107 4 -180 -56.5t-115 -152.5t-57 -183zM388 2126l-32 -193q-25 -156 -86 -300t-172 -260
l-212 90q54 112 105 218t73 230l37 215h287z" />
    <glyph glyph-name="Eng" unicode="&#x14a;" horiz-adv-x="1988" 
d="M1971 2048l-364 -2121q-34 -247 -201 -388.5t-416 -140.5q-49 0 -97.5 3t-96.5 10l35 320q25 -4 51 -6.5t51 -3.5q113 -3 193.5 55t105.5 169l12 59l-569 1367l-20 1l-245 -1372h-385l355 2048h368l574 -1374l20 -1l246 1375h383z" />
    <glyph glyph-name="eng" unicode="&#x14b;" horiz-adv-x="1644" 
d="M540 845l-145 -845h-380l267 1536h356l-46 -197h9q81 105 194.5 162.5t247.5 54.5q166 -3 263 -89t133 -220t19 -282l-172 -1031q-32 -233 -179 -380.5t-391 -147.5q-52 0 -103.5 4.5t-103.5 13.5l59 318q58 -16 109 -17q99 -2 156 57t73 152l172 1016q13 104 -26.5 193
t-159.5 94q-108 4 -181 -56t-115 -152.5t-56 -183.5z" />
    <glyph glyph-name="Omacron" unicode="&#x14c;" horiz-adv-x="2068" 
d="M137 0zM1911 1027q-27 -202 -108 -392t-213 -340.5t-310.5 -238t-399.5 -84.5q-217 2 -366.5 93t-235.5 241t-113.5 334.5t-2.5 374.5q27 203 109 394t214.5 342.5t312 239.5t401.5 85q218 -3 366 -94.5t233 -243.5t111.5 -337t1.5 -374zM1525 1028q15 106 14 224.5
t-34 223.5t-110.5 172.5t-216.5 70.5q-146 4 -256 -57.5t-187 -165.5t-123 -230t-64 -252q-15 -107 -13 -225t36 -221.5t112.5 -169.5t217.5 -69q145 -4 254.5 56.5t185.5 163.5t121 228t63 251zM1759 2454l-36 -226h-923l36 226h923z" />
    <glyph glyph-name="omacron" unicode="&#x14d;" horiz-adv-x="1648" 
d="M74 0zM688 -29q-221 3 -359.5 116t-196.5 292t-36 380q23 214 125 396.5t272.5 293t398.5 107.5q221 -3 359.5 -115.5t196.5 -290.5t36 -379q-23 -213 -125 -396.5t-272.5 -295t-398.5 -108.5zM704 288q134 -4 221 69.5t134.5 186.5t61.5 227q9 74 7 154.5t-26 151.5
t-78 116.5t-148 48.5q-134 4 -221 -69.5t-134 -186.5t-61 -227q-10 -74 -7.5 -154.5t26 -151.5t77.5 -116.5t148 -48.5zM1429 2002l-36 -226h-923l36 226h923z" />
    <glyph glyph-name="Obreve" unicode="&#x14e;" horiz-adv-x="2068" 
d="M137 0zM1911 1027q-27 -202 -108 -392t-213 -340.5t-310.5 -238t-399.5 -84.5q-217 2 -366.5 93t-235.5 241t-113.5 334.5t-2.5 374.5q27 203 109 394t214.5 342.5t312 239.5t401.5 85q218 -3 366 -94.5t233 -243.5t111.5 -337t1.5 -374zM1525 1028q15 106 14 224.5
t-34 223.5t-110.5 172.5t-216.5 70.5q-146 4 -256 -57.5t-187 -165.5t-123 -230t-64 -252q-15 -107 -13 -225t36 -221.5t112.5 -169.5t217.5 -69q145 -4 254.5 56.5t185.5 163.5t121 228t63 251zM1488 2554l270 3q-3 -134 -72 -226t-179 -139t-236 -44q-185 3 -303 111.5
t-119 296.5l269 -1q-2 -80 33.5 -131.5t122.5 -53.5q88 -2 145.5 48t68.5 136z" />
    <glyph glyph-name="obreve" unicode="&#x14f;" horiz-adv-x="1648" 
d="M74 0zM688 -29q-221 3 -359.5 116t-196.5 292t-36 380q23 214 125 396.5t272.5 293t398.5 107.5q221 -3 359.5 -115.5t196.5 -290.5t36 -379q-23 -213 -125 -396.5t-272.5 -295t-398.5 -108.5zM704 288q134 -4 221 69.5t134.5 186.5t61.5 227q9 74 7 154.5t-26 151.5
t-78 116.5t-148 48.5q-134 4 -221 -69.5t-134 -186.5t-61 -227q-10 -74 -7.5 -154.5t26 -151.5t77.5 -116.5t148 -48.5zM1159 2102l270 3q-3 -134 -72 -226t-179 -139t-236 -44q-185 3 -303 111.5t-119 296.5l269 -1q-2 -80 33.5 -131.5t122.5 -53.5q88 -2 145.5 48
t68.5 136z" />
    <glyph glyph-name="Ohungarumlaut" unicode="&#x150;" horiz-adv-x="2068" 
d="M137 0zM1911 1027q-27 -202 -108 -392t-213 -340.5t-310.5 -238t-399.5 -84.5q-217 2 -366.5 93t-235.5 241t-113.5 334.5t-2.5 374.5q27 203 109 394t214.5 342.5t312 239.5t401.5 85q218 -3 366 -94.5t233 -243.5t111.5 -337t1.5 -374zM1525 1028q15 106 14 224.5
t-34 223.5t-110.5 172.5t-216.5 70.5q-146 4 -256 -57.5t-187 -165.5t-123 -230t-64 -252q-15 -107 -13 -225t36 -221.5t112.5 -169.5t217.5 -69q145 -4 254.5 56.5t185.5 163.5t121 228t63 251zM838 2154l318 416h354l-378 -416h-294zM1307 2154l371 416h358l-426 -416
h-303z" />
    <glyph glyph-name="ohungarumlaut" unicode="&#x151;" horiz-adv-x="1648" 
d="M74 0zM688 -29q-221 3 -359.5 116t-196.5 292t-36 380q23 214 125 396.5t272.5 293t398.5 107.5q221 -3 359.5 -115.5t196.5 -290.5t36 -379q-23 -213 -125 -396.5t-272.5 -295t-398.5 -108.5zM704 288q134 -4 221 69.5t134.5 186.5t61.5 227q9 74 7 154.5t-26 151.5
t-78 116.5t-148 48.5q-134 4 -221 -69.5t-134 -186.5t-61 -227q-10 -74 -7.5 -154.5t26 -151.5t77.5 -116.5t148 -48.5zM509 1702l318 416h354l-378 -416h-294zM978 1702l371 416h358l-426 -416h-303z" />
    <glyph glyph-name="OE" unicode="&#x152;" horiz-adv-x="2780" 
d="M1148 2048h1558l-58 -332h-903l-91 -526h778l-58 -331h-777l-92 -527h908l-58 -332h-1518q-230 4 -395 113.5t-242.5 292.5t-45.5 410l69 420q36 238 162.5 421t322.5 287t440 104zM848 316l268 -1l246 1418l-226 1q-228 2 -363 -140t-170 -358l-69 -421
q-18 -123 2.5 -236t94.5 -186t217 -77z" />
    <glyph glyph-name="oe" unicode="&#x153;" horiz-adv-x="2688" 
d="M674 -29q-221 3 -357.5 116.5t-191.5 292.5t-31 378q25 215 129.5 398t276.5 293.5t401 106.5q137 -2 270.5 -56t210.5 -174q116 113 256 173t303 57q211 -3 344 -105.5t187 -269.5t29 -363l-26 -163l-1002 1q-15 -145 46.5 -254t221.5 -114q114 -3 203 53t135 159
l333 -91q-38 -149 -146.5 -247t-252 -145.5t-285.5 -46.5q-140 2 -282.5 53t-225.5 173q-113 -109 -250 -168.5t-296 -56.5zM1919 1242q-103 3 -179.5 -42.5t-132 -120.5t-94.5 -159l641 1q27 130 -34 223t-201 98zM692 288q135 -4 223.5 69t137.5 186.5t65 228.5
q10 72 9.5 152.5t-22.5 151.5t-75 116.5t-147 49.5q-135 4 -223.5 -69.5t-137.5 -186.5t-65 -228q-10 -73 -9.5 -153t22.5 -151t75 -117t147 -49z" />
    <glyph glyph-name="Racute" unicode="&#x154;" horiz-adv-x="1787" 
d="M25 0zM1119 0l-236 766h-339l-134 -766h-385l355 2048l710 -1q193 -3 338.5 -75.5t219.5 -211t54 -340.5q-21 -204 -131.5 -353t-299.5 -227l263 -840h-415zM708 1716l-107 -619l318 -1q155 0 266 78.5t135 238.5q19 135 -43 216.5t-201 85.5zM931 2145l319 424h412
l-412 -424h-319z" />
    <glyph glyph-name="racute" unicode="&#x155;" horiz-adv-x="1132" 
d="M15 0zM1188 1507l-156 -334q-54 31 -127 32q-94 2 -169.5 -45.5t-125 -124.5t-65.5 -164l-150 -871h-380l267 1536h380l-50 -220h8q49 112 139.5 178.5t216.5 64.5q108 -2 212 -52zM550 1693l319 424h412l-412 -424h-319z" />
    <glyph glyph-name="Rcommaaccent" unicode="&#x156;" horiz-adv-x="1787" 
d="M25 0zM1119 0l-236 766h-339l-134 -766h-385l355 2048l710 -1q193 -3 338.5 -75.5t219.5 -211t54 -340.5q-21 -204 -131.5 -353t-299.5 -227l263 -840h-415zM708 1716l-107 -619l318 -1q155 0 266 78.5t135 238.5q19 135 -43 216.5t-201 85.5zM872 -109l-32 -193
q-25 -156 -86 -300t-172 -260l-212 90q54 112 105 218t73 230l37 215h287z" />
    <glyph glyph-name="rcommaaccent" unicode="&#x157;" horiz-adv-x="1132" 
d="M0 0zM1188 1507l-156 -334q-54 31 -127 32q-94 2 -169.5 -45.5t-125 -124.5t-65.5 -164l-150 -871h-380l267 1536h380l-50 -220h8q49 112 139.5 178.5t216.5 64.5q108 -2 212 -52zM332 -120l-32 -193q-25 -156 -86 -300t-172 -260l-212 90q54 112 105 218t73 230l37 215
h287z" />
    <glyph glyph-name="Rcaron" unicode="&#x158;" horiz-adv-x="1787" 
d="M25 0zM1119 0l-236 766h-339l-134 -766h-385l355 2048l710 -1q193 -3 338.5 -75.5t219.5 -211t54 -340.5q-21 -204 -131.5 -353t-299.5 -227l263 -840h-415zM708 1716l-107 -619l318 -1q155 0 266 78.5t135 238.5q19 135 -43 216.5t-201 85.5zM954 2565l173 -201l242 200
l321 7l1 -25l-452 -381h-231l-355 382l-1 24z" />
    <glyph glyph-name="rcaron" unicode="&#x159;" horiz-adv-x="1132" 
d="M15 0zM1188 1507l-156 -334q-54 31 -127 32q-94 2 -169.5 -45.5t-125 -124.5t-65.5 -164l-150 -871h-380l267 1536h380l-50 -220h8q49 112 139.5 178.5t216.5 64.5q108 -2 212 -52zM573 2113l173 -201l242 200l321 7l1 -25l-452 -381h-231l-355 382l-1 24z" />
    <glyph glyph-name="Sacute" unicode="&#x15a;" horiz-adv-x="1775" 
d="M54 0zM1337 1465q-12 270 -289 277q-81 2 -167 -23t-150.5 -80.5t-81.5 -145.5q-15 -83 37.5 -136t130 -85.5t137.5 -54.5l96 -35q139 -51 257.5 -129.5t185.5 -194t53 -280.5q-14 -156 -87.5 -271t-188 -191t-252.5 -112.5t-282 -34.5q-202 2 -356 79t-240 222t-84 351
h376q0 -153 85.5 -234.5t237.5 -84.5q89 -2 179 26.5t156 89.5t84 158q18 95 -36 155t-137.5 97t-154.5 61l-99 32q-130 43 -242.5 120t-177.5 189.5t-52 262.5q12 148 86.5 258.5t189.5 183t250 108t269 33.5q187 -3 329.5 -76.5t222.5 -209.5t79 -326zM934 2145l319 424
h412l-412 -424h-319z" />
    <glyph glyph-name="sacute" unicode="&#x15b;" horiz-adv-x="1474" 
d="M12 0zM180 1100q7 117 67.5 203.5t154.5 143t202.5 84t211.5 25.5q208 -3 354 -119t185 -321l-338 -59q-19 77 -64 128.5t-129 58.5q-50 4 -106.5 -10t-99.5 -48.5t-54 -90.5q-10 -51 23 -81t81.5 -46.5t84.5 -27.5l121 -38q104 -35 189.5 -100t134 -157.5t41.5 -208.5
q-10 -160 -107.5 -263.5t-239.5 -153.5t-284 -49q-226 3 -387 123.5t-209 343.5l352 69q27 -90 82.5 -147.5t155.5 -63.5q52 -3 110.5 10.5t103 48t55.5 93.5q11 55 -30 90.5t-98 56.5t-95 34l-135 43q-142 49 -242 159t-91 270zM689 1693l319 424h412l-412 -424h-319z" />
    <glyph glyph-name="Scircumflex" unicode="&#x15c;" horiz-adv-x="1775" 
d="M54 0zM1337 1465q-12 270 -289 277q-81 2 -167 -23t-150.5 -80.5t-81.5 -145.5q-15 -83 37.5 -136t130 -85.5t137.5 -54.5l96 -35q139 -51 257.5 -129.5t185.5 -194t53 -280.5q-14 -156 -87.5 -271t-188 -191t-252.5 -112.5t-282 -34.5q-202 2 -356 79t-240 222t-84 351
h376q0 -153 85.5 -234.5t237.5 -84.5q89 -2 179 26.5t156 89.5t84 158q18 95 -36 155t-137.5 97t-154.5 61l-99 32q-130 43 -242.5 120t-177.5 189.5t-52 262.5q12 148 86.5 258.5t189.5 183t250 108t269 33.5q187 -3 329.5 -76.5t222.5 -209.5t79 -326zM897 2234l245 201
l174 -202l315 -6l10 26l-321 380h-227l-487 -381l-9 -26z" />
    <glyph glyph-name="scircumflex" unicode="&#x15d;" horiz-adv-x="1474" 
d="M12 0zM180 1100q7 117 67.5 203.5t154.5 143t202.5 84t211.5 25.5q208 -3 354 -119t185 -321l-338 -59q-19 77 -64 128.5t-129 58.5q-50 4 -106.5 -10t-99.5 -48.5t-54 -90.5q-10 -51 23 -81t81.5 -46.5t84.5 -27.5l121 -38q104 -35 189.5 -100t134 -157.5t41.5 -208.5
q-10 -160 -107.5 -263.5t-239.5 -153.5t-284 -49q-226 3 -387 123.5t-209 343.5l352 69q27 -90 82.5 -147.5t155.5 -63.5q52 -3 110.5 10.5t103 48t55.5 93.5q11 55 -30 90.5t-98 56.5t-95 34l-135 43q-142 49 -242 159t-91 270zM652 1782l245 201l174 -202l315 -6l10 26
l-321 380h-227l-487 -381l-9 -26z" />
    <glyph glyph-name="Scedilla" unicode="&#x15e;" horiz-adv-x="1775" 
d="M54 0zM1337 1465q-12 270 -289 277q-81 2 -167 -23t-150.5 -80.5t-81.5 -145.5q-15 -83 37.5 -136t130 -85.5t137.5 -54.5l96 -35q139 -51 257.5 -129.5t185.5 -194t53 -280.5q-14 -156 -87.5 -271t-188 -191t-252.5 -112.5t-282 -34.5q-202 2 -356 79t-240 222t-84 351
h376q0 -153 85.5 -234.5t237.5 -84.5q89 -2 179 26.5t156 89.5t84 158q18 95 -36 155t-137.5 97t-154.5 61l-99 32q-130 43 -242.5 120t-177.5 189.5t-52 262.5q12 148 86.5 258.5t189.5 183t250 108t269 33.5q187 -3 329.5 -76.5t222.5 -209.5t79 -326zM595 -1l286 1
l-30 -90q83 -16 125 -78t42 -144q-2 -101 -49.5 -165.5t-124 -101t-164 -52t-168.5 -17.5l9 227q61 2 114 27.5t67 92.5q10 49 -18 68.5t-71 24.5t-77 8z" />
    <glyph glyph-name="scedilla" unicode="&#x15f;" horiz-adv-x="1474" 
d="M12 0zM180 1100q7 117 67.5 203.5t154.5 143t202.5 84t211.5 25.5q208 -3 354 -119t185 -321l-338 -59q-19 77 -64 128.5t-129 58.5q-50 4 -106.5 -10t-99.5 -48.5t-54 -90.5q-10 -51 23 -81t81.5 -46.5t84.5 -27.5l121 -38q104 -35 189.5 -100t134 -157.5t41.5 -208.5
q-10 -160 -107.5 -263.5t-239.5 -153.5t-284 -49q-226 3 -387 123.5t-209 343.5l352 69q27 -90 82.5 -147.5t155.5 -63.5q52 -3 110.5 10.5t103 48t55.5 93.5q11 55 -30 90.5t-98 56.5t-95 34l-135 43q-142 49 -242 159t-91 270zM419 11l286 1l-30 -90q83 -16 125 -78
t42 -144q-2 -101 -49.5 -165.5t-124 -101t-164 -52t-168.5 -17.5l9 227q61 2 114 27.5t67 92.5q10 49 -18 68.5t-71 24.5t-77 8z" />
    <glyph glyph-name="Scaron" unicode="&#x160;" horiz-adv-x="1775" 
d="M54 0zM1337 1465q-12 270 -289 277q-81 2 -167 -23t-150.5 -80.5t-81.5 -145.5q-15 -83 37.5 -136t130 -85.5t137.5 -54.5l96 -35q139 -51 257.5 -129.5t185.5 -194t53 -280.5q-14 -156 -87.5 -271t-188 -191t-252.5 -112.5t-282 -34.5q-202 2 -356 79t-240 222t-84 351
h376q0 -153 85.5 -234.5t237.5 -84.5q89 -2 179 26.5t156 89.5t84 158q18 95 -36 155t-137.5 97t-154.5 61l-99 32q-130 43 -242.5 120t-177.5 189.5t-52 262.5q12 148 86.5 258.5t189.5 183t250 108t269 33.5q187 -3 329.5 -76.5t222.5 -209.5t79 -326zM957 2565l173 -201
l242 200l321 7l1 -25l-452 -381h-231l-355 382l-1 24z" />
    <glyph glyph-name="scaron" unicode="&#x161;" horiz-adv-x="1474" 
d="M12 0zM180 1100q7 117 67.5 203.5t154.5 143t202.5 84t211.5 25.5q208 -3 354 -119t185 -321l-338 -59q-19 77 -64 128.5t-129 58.5q-50 4 -106.5 -10t-99.5 -48.5t-54 -90.5q-10 -51 23 -81t81.5 -46.5t84.5 -27.5l121 -38q104 -35 189.5 -100t134 -157.5t41.5 -208.5
q-10 -160 -107.5 -263.5t-239.5 -153.5t-284 -49q-226 3 -387 123.5t-209 343.5l352 69q27 -90 82.5 -147.5t155.5 -63.5q52 -3 110.5 10.5t103 48t55.5 93.5q11 55 -30 90.5t-98 56.5t-95 34l-135 43q-142 49 -242 159t-91 270zM712 2113l173 -201l242 200l321 7l1 -25
l-452 -381h-231l-355 382l-1 24z" />
    <glyph glyph-name="Tcommaaccent" unicode="&#x162;" horiz-adv-x="1811" 
d="M245 0zM1878 2048l-58 -332h-595l-298 -1716h-383l297 1716h-596l58 332h1575zM596 22l286 1l-30 -90q83 -16 125 -78t42 -144q-2 -101 -49.5 -165.5t-124 -101t-164 -52t-168.5 -17.5l9 227q61 2 114 27.5t67 92.5q10 49 -18 68.5t-71 24.5t-77 8z" />
    <glyph glyph-name="tcommaaccent" unicode="&#x163;" horiz-adv-x="1028" 
d="M134 0zM1010 1536l-51 -288h-259l-134 -780q-9 -68 9.5 -113t94.5 -46q26 0 50.5 3t49.5 8l33 -304q-54 -28 -125.5 -32t-129.5 -3q-118 2 -205.5 61t-131 156t-32.5 213l141 837h-186l51 288h185l57 328h380l-58 -328h261zM305 11l286 1l-30 -90q83 -16 125 -78t42 -144
q-2 -101 -49.5 -165.5t-124 -101t-164 -52t-168.5 -17.5l9 227q61 2 114 27.5t67 92.5q10 49 -18 68.5t-71 24.5t-77 8z" />
    <glyph glyph-name="Tcaron" unicode="&#x164;" horiz-adv-x="1811" 
d="M245 0zM1878 2048l-58 -332h-595l-298 -1716h-383l297 1716h-596l58 332h1575zM954 2565l173 -201l242 200l321 7l1 -25l-452 -381h-231l-355 382l-1 24z" />
    <glyph glyph-name="tcaron" unicode="&#x165;" horiz-adv-x="1068" 
d="M134 0zM1010 1536l-51 -288h-259l-134 -780q-9 -68 9.5 -113t94.5 -46q26 0 50.5 3t49.5 8l33 -304q-54 -28 -125.5 -32t-129.5 -3q-118 2 -205.5 61t-131 156t-32.5 213l141 837h-186l51 288h185l57 328h380l-58 -328h261zM1404 2307l-32 -193q-25 -156 -86 -300
t-172 -260l-212 90q54 112 105 218t73 230l37 215h287z" />
    <glyph glyph-name="Tbar" unicode="&#x166;" horiz-adv-x="1811" 
d="M1383 1285l-42 -239h-232l-182 -1046h-383l181 1046h-314l42 239h314l74 431h-596l58 332h1575l-58 -332h-595l-75 -431h233z" />
    <glyph glyph-name="tbar" unicode="&#x167;" horiz-adv-x="1028" 
d="M924 988l-42 -239h-269l-48 -281q-9 -68 9.5 -113t94.5 -46q26 0 50.5 3t49.5 8l33 -304q-54 -28 -125.5 -32t-129.5 -3q-118 2 -205.5 61t-131 156t-32.5 213l57 338h-283l42 239h281l44 260h-186l51 288h185l57 328h380l-58 -328h261l-51 -288h-259l-45 -260h270z" />
    <glyph glyph-name="Utilde" unicode="&#x168;" horiz-adv-x="1990" 
d="M120 0zM1590 2048h385l-233 -1352q-35 -230 -162 -394.5t-318 -251.5t-420 -84q-214 3 -381.5 92t-254 251.5t-57.5 385.5l232 1353h386l-231 -1343q-23 -168 70.5 -271t260.5 -107q119 -3 223 42t175.5 131t92.5 206zM1541 2565l216 -13q-3 -92 -41.5 -177
t-109.5 -139.5t-173 -52.5q-68 1 -124 32t-111 62t-120 30q-61 0 -93.5 -40.5t-42.5 -94.5l-226 9q4 91 44 176.5t112 140.5t173 53q66 -1 122.5 -31.5t112.5 -60.5t120 -30q61 1 95.5 41t45.5 95z" />
    <glyph glyph-name="utilde" unicode="&#x169;" horiz-adv-x="1644" 
d="M1274 2116l215 -13q-3 -93 -42 -178t-110.5 -139t-173.5 -53q-68 1 -124 32.5t-111 62.5t-120 31q-60 0 -93.5 -41t-44.5 -95l-226 9q4 92 44 178t113 140.5t174 52.5q66 -2 122.5 -32.5t112 -60.5t120.5 -30q61 0 96.5 40.5t47.5 95.5zM1035 684l146 852h379l-267 -1536
h-356l43 183h-9q-83 -99 -196 -153t-244 -51q-163 3 -260 90.5t-134 222t-20 279.5l164 965h379l-163 -955q-13 -104 28 -191.5t160 -92.5q107 -4 179.5 55t114 150t56.5 182z" />
    <glyph glyph-name="Umacron" unicode="&#x16a;" horiz-adv-x="1990" 
d="M120 0zM1590 2048h385l-233 -1352q-35 -230 -162 -394.5t-318 -251.5t-420 -84q-214 3 -381.5 92t-254 251.5t-57.5 385.5l232 1353h386l-231 -1343q-23 -168 70.5 -271t260.5 -107q119 -3 223 42t175.5 131t92.5 206zM1717 2454l-36 -226h-923l36 226h923z" />
    <glyph glyph-name="umacron" unicode="&#x16b;" horiz-adv-x="1644" 
d="M100 0zM1035 684l146 852h379l-267 -1536h-356l43 184l-9 -1q-83 -99 -196 -153.5t-244 -51.5q-163 4 -260 91.5t-134 222t-20 279.5l164 965h379l-162 -955q-14 -104 27 -190.5t159 -91.5q107 -4 180 54.5t114.5 149t56.5 181.5zM1451 2002l-36 -226h-923l36 226h923z
" />
    <glyph glyph-name="Ubreve" unicode="&#x16c;" horiz-adv-x="1990" 
d="M120 0zM1590 2048h385l-233 -1352q-35 -230 -162 -394.5t-318 -251.5t-420 -84q-214 3 -381.5 92t-254 251.5t-57.5 385.5l232 1353h386l-231 -1343q-23 -168 70.5 -271t260.5 -107q119 -3 223 42t175.5 131t92.5 206zM1446 2554l270 3q-3 -134 -72 -226t-179 -139
t-236 -44q-185 3 -303 111.5t-119 296.5l269 -1q-2 -80 33.5 -131.5t122.5 -53.5q88 -2 145.5 48t68.5 136z" />
    <glyph glyph-name="ubreve" unicode="&#x16d;" horiz-adv-x="1644" 
d="M100 0zM1035 684l146 852h379l-267 -1536h-356l43 184l-9 -1q-83 -99 -196 -153.5t-244 -51.5q-163 4 -260 91.5t-134 222t-20 279.5l164 965h379l-162 -955q-14 -104 27 -190.5t159 -91.5q107 -4 180 54.5t114.5 149t56.5 181.5zM1180 2102l270 3q-3 -134 -72 -226
t-179 -139t-236 -44q-185 3 -303 111.5t-119 296.5l269 -1q-2 -80 33.5 -131.5t122.5 -53.5q88 -2 145.5 48t68.5 136z" />
    <glyph glyph-name="Uring" unicode="&#x16e;" horiz-adv-x="1990" 
d="M120 0zM1590 2048h385l-233 -1352q-35 -230 -162 -394.5t-318 -251.5t-420 -84q-214 3 -381.5 92t-254 251.5t-57.5 385.5l232 1353h386l-231 -1343q-23 -168 70.5 -271t260.5 -107q119 -3 223 42t175.5 131t92.5 206zM946 2430q2 91 49.5 162t124 111.5t164.5 39.5
q123 -2 209.5 -86.5t84.5 -209.5q-2 -90 -49.5 -158.5t-124 -106.5t-162.5 -37q-121 2 -209.5 81.5t-86.5 203.5zM1110 2431q-9 -60 23 -105t95 -46q70 -1 124 49t64 118q10 60 -22 106.5t-96 47.5q-71 1 -124.5 -50.5t-63.5 -119.5z" />
    <glyph glyph-name="uring" unicode="&#x16f;" horiz-adv-x="1644" 
d="M100 0zM1035 684l146 852h379l-267 -1536h-356l43 184l-9 -1q-83 -99 -196 -153.5t-244 -51.5q-163 4 -260 91.5t-134 222t-20 279.5l164 965h379l-162 -955q-14 -104 27 -190.5t159 -91.5q107 -4 180 54.5t114.5 149t56.5 181.5zM680 1978q2 91 49.5 162t124 111.5
t164.5 39.5q123 -2 209.5 -86.5t84.5 -209.5q-2 -90 -49.5 -158.5t-124 -106.5t-162.5 -37q-121 2 -209.5 81.5t-86.5 203.5zM844 1979q-9 -60 23 -105t95 -46q70 -1 124 49t64 118q10 60 -22 106.5t-96 47.5q-71 1 -124.5 -50.5t-63.5 -119.5z" />
    <glyph glyph-name="Uhungarumlaut" unicode="&#x170;" horiz-adv-x="1990" 
d="M120 0zM1590 2048h385l-233 -1352q-35 -230 -162 -394.5t-318 -251.5t-420 -84q-214 3 -381.5 92t-254 251.5t-57.5 385.5l232 1353h386l-231 -1343q-23 -168 70.5 -271t260.5 -107q119 -3 223 42t175.5 131t92.5 206zM796 2154l318 416h354l-378 -416h-294zM1265 2154
l371 416h358l-426 -416h-303z" />
    <glyph glyph-name="uhungarumlaut" unicode="&#x171;" horiz-adv-x="1644" 
d="M100 0zM1035 684l146 852h379l-267 -1536h-356l43 184l-9 -1q-83 -99 -196 -153.5t-244 -51.5q-163 4 -260 91.5t-134 222t-20 279.5l164 965h379l-162 -955q-14 -104 27 -190.5t159 -91.5q107 -4 180 54.5t114.5 149t56.5 181.5zM530 1702l318 416h354l-378 -416h-294z
M999 1702l371 416h358l-426 -416h-303z" />
    <glyph glyph-name="Uogonek" unicode="&#x172;" horiz-adv-x="1990" 
d="M1590 2048h385l-233 -1352q-43 -280 -220.5 -462.5t-432.5 -241.5q-37 -31 -65.5 -69.5t-36.5 -86.5q-13 -79 62 -81q29 0 56.5 8.5t53.5 18.5l27 -214q-46 -32 -102.5 -45t-111.5 -12q-123 1 -203 75t-77 200q2 54 18.5 100t44.5 85q-192 20 -338.5 112.5t-220.5 248
t-47 363.5l232 1353h386l-231 -1343q-23 -168 70.5 -271t260.5 -107q119 -3 223 42t175.5 131t92.5 206z" />
    <glyph glyph-name="uogonek" unicode="&#x173;" horiz-adv-x="1644" 
d="M1035 684l146 852h379l-267 -1536h-101l11 -5q-70 -43 -148.5 -101t-93.5 -149q-13 -79 62 -81q28 0 55.5 8.5t53.5 18.5l28 -214q-47 -32 -103 -45t-112 -12q-123 1 -202.5 75t-76.5 200q3 132 89.5 220t195.5 144l29 125l-9 -1q-83 -99 -196 -153.5t-244 -51.5
q-163 4 -260 91.5t-134 222t-20 279.5l164 965h379l-162 -955q-14 -104 27 -190.5t159 -91.5q107 -4 180 54.5t114.5 149t56.5 181.5z" />
    <glyph glyph-name="Wcircumflex" unicode="&#x174;" horiz-adv-x="2819" 
d="M282 0zM622 2050l134 -1473h15l604 1471h358l136 -1474h15l594 1474h367l-837 -2048h-393l-142 1397l-14 1l-586 -1398h-394l-197 2048zM1381 2234l245 201l174 -202l315 -6l10 26l-321 380h-227l-487 -381l-9 -26z" />
    <glyph glyph-name="wcircumflex" unicode="&#x175;" horiz-adv-x="2226" 
d="M213 0zM2199 1536l-660 -1536h-319l-96 959h-24l-434 -959h-320l-133 1535l365 1l25 -1005h15l436 1005h287l78 -997l17 -1l383 998h380zM1029 1782l245 201l174 -202l315 -6l10 26l-321 380h-227l-487 -381l-9 -26z" />
    <glyph glyph-name="Ycircumflex" unicode="&#x176;" horiz-adv-x="2060" 
d="M276 0zM679 2050l351 -899h21l662 897h446l-976 -1267l-135 -781h-386l143 820l-529 1227zM1025 2234l245 201l174 -202l315 -6l10 26l-321 380h-227l-487 -381l-9 -26z" />
    <glyph glyph-name="ycircumflex" unicode="&#x177;" horiz-adv-x="1631" 
d="M0 0zM418 -66l51 99l-283 1502l386 1l147 -1014h15l508 1014h408l-934 -1765q-82 -164 -220 -269t-329 -103q-56 0 -110.5 11.5t-107.5 30.5l117 304q136 -41 213.5 15t138.5 174zM705 1782l245 201l174 -202l315 -6l10 26l-321 380h-227l-487 -381l-9 -26z" />
    <glyph glyph-name="Ydieresis" unicode="&#x178;" horiz-adv-x="2060" 
d="M276 0zM679 2050l351 -899h21l662 897h446l-976 -1267l-135 -781h-386l143 820l-529 1227zM1552 2180q-72 -1 -126 48t-57 121q-2 77 50 129.5t128 53.5q73 1 125 -48.5t55 -122.5q2 -75 -49.5 -127.5t-125.5 -53.5zM998 2180q-72 -1 -125.5 48t-56.5 121q-2 77 50 129.5
t127 53.5q74 1 125.5 -48.5t54.5 -122.5q2 -75 -49.5 -127.5t-125.5 -53.5z" />
    <glyph glyph-name="Zacute" unicode="&#x179;" horiz-adv-x="1798" 
d="M0 0zM1521 332l-58 -332h-1464l45 261l1237 1453l-989 2l58 332h1464l-45 -261l-1238 -1453zM934 2145l319 424h412l-412 -424h-319z" />
    <glyph glyph-name="zacute" unicode="&#x17a;" horiz-adv-x="1532" 
d="M3 0zM1258 315l-55 -315h-1200l45 259l875 960l-695 2l56 315h1169l-44 -255l-876 -964zM714 1693l319 424h412l-412 -424h-319z" />
    <glyph glyph-name="Zdotaccent" unicode="&#x17b;" horiz-adv-x="1798" 
d="M0 0zM1521 332l-58 -332h-1464l45 261l1237 1453l-989 2l58 332h1464l-45 -261l-1238 -1453zM964 2369q-2 86 54 140t139 54q80 1 137.5 -48.5t59.5 -131.5q3 -86 -54 -139t-140 -53q-79 -1 -136 48t-60 130z" />
    <glyph glyph-name="zdotaccent" unicode="&#x17c;" horiz-adv-x="1532" 
d="M3 0zM1258 315l-55 -315h-1200l45 259l875 960l-695 2l56 315h1169l-44 -255l-876 -964zM743 1917q-2 86 54 140t139 54q80 1 137.5 -48.5t59.5 -131.5q3 -86 -54 -139t-140 -53q-79 -1 -136 48t-60 130z" />
    <glyph glyph-name="Zcaron" unicode="&#x17d;" horiz-adv-x="1798" 
d="M0 0zM1521 332l-58 -332h-1464l45 261l1237 1453l-989 2l58 332h1464l-45 -261l-1238 -1453zM957 2565l173 -201l242 200l321 7l1 -25l-452 -381h-231l-355 382l-1 24z" />
    <glyph glyph-name="zcaron" unicode="&#x17e;" horiz-adv-x="1532" 
d="M3 0zM1258 315l-55 -315h-1200l45 259l875 960l-695 2l56 315h1169l-44 -255l-876 -964zM737 2113l173 -201l242 200l321 7l1 -25l-452 -381h-231l-355 382l-1 24z" />
    <glyph glyph-name="longs" unicode="&#x17f;" horiz-adv-x="780" 
d="M246 0h-381l277 1617q35 246 190.5 387t407.5 139q55 -1 109.5 -9.5t108.5 -18.5l-58 -299q-63 15 -125 16q-102 0 -167.5 -57.5t-83.5 -156.5z" />
    <glyph glyph-name="bbar" unicode="&#x180;" horiz-adv-x="1789" 
d="M492 2048h380l-23 -125h304l-42 -239h-302l-70 -341l10 1q136 216 392 213q157 -2 258.5 -75t155.5 -189.5t69 -253t0 -266.5q-16 -141 -67.5 -284t-139.5 -261t-212.5 -188.5t-287.5 -66.5q-108 3 -205 53.5t-136 157.5h-24l-41 -184h-375l292 1684h-246l42 239h245z
M1263 775q9 72 8 152t-23.5 150.5t-75.5 116t-146 48.5q-133 4 -218.5 -69.5t-132 -186.5t-61.5 -225q-10 -70 -10.5 -150t19 -152.5t69.5 -120t143 -50.5q135 -5 224 69.5t138.5 189t65.5 228.5z" />
    <glyph glyph-name="Bhook" unicode="&#x181;" horiz-adv-x="2249" 
d="M1273 0h-807l305 1722l-58 1q-116 -2 -173 -77.5t-75 -179.5l-19 -112h-345l29 188q32 240 196.5 373.5t404.5 133.5l798 -2q169 -3 313 -61.5t226.5 -178t68.5 -307.5q-15 -183 -124.5 -292t-287.5 -138l-11 -31q116 -9 187 -87t101 -186t22 -207q-15 -197 -127.5 -321
t-279 -181.5t-344.5 -56.5zM1149 1716l-93 -534l296 -3q140 0 257 63.5t140 215.5q21 129 -49.5 191t-192.5 66zM1657 604q19 126 -46.5 205t-192.5 84l-411 1l-98 -562l355 -1q138 0 254 61.5t139 211.5z" />
    <glyph glyph-name="Btopbar" unicode="&#x182;" horiz-adv-x="1805" 
d="M1650 2048l-58 -332h-884l-77 -444l317 -1q186 -3 340 -74t239.5 -208t65.5 -339q-21 -213 -141 -358t-300 -219t-380 -73h-748l355 2048h1271zM936 951l-360 1l-110 -630h319q153 1 277 89.5t149 246.5q22 139 -61 214t-214 79z" />
    <glyph glyph-name="btopbar" unicode="&#x183;" horiz-adv-x="1784" 
d="M370 2048h1149l-57 -329h-768l-76 -376l10 1q136 216 391 213q158 -2 259.5 -75t155.5 -189.5t69 -253t0 -266.5q-16 -141 -67.5 -284t-139.5 -261t-212.5 -188.5t-287.5 -66.5q-108 3 -205 53.5t-137 157.5h-24l-40 -184h-375zM1141 775q10 72 9 152t-23.5 150.5
t-75.5 116t-146 48.5q-133 4 -218.5 -70t-132 -186.5t-61.5 -224.5q-10 -70 -11 -150.5t18.5 -152.5t70 -119.5t143.5 -51.5q134 -4 223.5 70.5t139 189t64.5 228.5z" />
    <glyph glyph-name="Tonesix" unicode="&#x184;" horiz-adv-x="1978" 
d="M1757 653q-21 -214 -141 -359.5t-300.5 -220t-380.5 -73.5h-747l239 1378l-178 212l32 183l238 201l12 76l398 -2l-135 -776l317 -1q185 -3 339.5 -73.5t240.5 -207t66 -337.5zM629 322l319 -1q154 1 278.5 89.5t149.5 247.5q21 139 -62.5 214t-214.5 79l-360 1z" />
    <glyph glyph-name="tonesix" unicode="&#x185;" horiz-adv-x="1804" 
d="M541 2112l71 2l-12 -69l325 3l-133 -705l11 1q136 216 391 213q157 -2 258.5 -75t156 -189.5t69.5 -253t0 -266.5q-17 -141 -68.5 -284t-139 -261t-212.5 -188.5t-287 -66.5q-108 3 -205.5 53.5t-136.5 157.5h-25l-40 -184h-374l253 1458l-201 240l32 184zM1316 775
q10 72 8.5 152t-24 150.5t-75 116t-146.5 48.5q-133 4 -218.5 -70t-131.5 -186.5t-62 -224.5q-9 -69 -10 -149.5t18.5 -153t70 -120t143.5 -50.5q134 -5 223 69.5t138.5 189t65.5 228.5z" />
    <glyph glyph-name="Oopen" unicode="&#x186;" horiz-adv-x="1999" 
d="M209 1401l355 -39q71 158 193.5 260t305.5 98q140 -3 225 -68.5t126.5 -168.5t50.5 -223t-3 -232q-14 -124 -53.5 -249t-110 -228t-175.5 -164.5t-250 -57.5q-155 4 -265.5 97.5t-124.5 252.5l-391 -43q-3 -196 86.5 -344.5t243 -233t343.5 -86.5q222 -3 405.5 83.5
t322.5 236.5t228 340t121 394q30 186 10.5 371t-97 338t-221.5 246t-363 96q-226 2 -407.5 -87.5t-320 -243.5t-234.5 -345z" />
    <glyph glyph-name="Chook" unicode="&#x187;" horiz-adv-x="2208" 
d="M1927 1361l-369 -2l-1 1l-3 -1q-24 156 -117.5 256t-258.5 104q-146 5 -256 -56.5t-187.5 -166t-123.5 -231t-64 -251.5q-15 -108 -13 -226t36.5 -221.5t113.5 -169.5t218 -69q173 -4 308.5 91.5t194.5 256.5l375 -40q-53 -201 -188 -351t-321 -232.5t-390 -80.5
q-218 2 -367.5 92.5t-235.5 240.5t-114 334.5t-3 375.5q27 203 109 394t215 342.5t312.5 239.5t402.5 86q136 -2 269 -45.5t233 -139.5q199 228 503 229q49 0 97 -2.5t96 -9.5l-33 -319q-26 2 -51.5 5t-51.5 3q-119 4 -206 -62t-107 -186z" />
    <glyph glyph-name="chook" unicode="&#x188;" horiz-adv-x="1739" 
d="M1473 1043l-348 -53q-19 103 -72.5 175t-168.5 76q-134 5 -222.5 -68t-138 -185.5t-65.5 -226.5q-9 -71 -8.5 -152t22 -153t74 -119t146.5 -50q114 -3 196 61t121 167l355 -51q-36 -157 -141 -268.5t-249 -169.5t-299 -55q-222 3 -359 117t-191.5 293.5t-30.5 379.5
q26 214 130.5 396t277 292.5t399.5 107.5q88 -1 173.5 -21.5t160.5 -64.5q169 217 437 215q44 0 86.5 -5.5t85.5 -14.5l-26 -267q-22 5 -44.5 9.5t-45.5 5.5q-100 4 -155.5 -51.5t-71.5 -149.5z" />
    <glyph glyph-name="Dbar1" unicode="&#x189;" horiz-adv-x="2131" 
d="M874 0h-697l157 901h-262l42 239h261l157 908h661q298 -4 484 -143t260 -369t37 -507q-39 -295 -183 -528t-377.5 -367.5t-539.5 -133.5zM1044 1140l-42 -239h-283l-97 -559l250 -1q211 0 361 89.5t239 246t118 356.5q25 174 -1 326.5t-128 247.5t-304 99h-298l-99 -566
h284z" />
    <glyph glyph-name="Dhook" unicode="&#x18a;" horiz-adv-x="2438" 
d="M1170 0h-696l296 1706l-56 2q-114 -1 -173 -69t-77 -173l-18 -112h-345l29 188q33 240 196.5 373.5t404.5 133.5l759 -1q298 -4 483.5 -143t259 -369t36.5 -507q-39 -295 -182.5 -528t-376.5 -367.5t-540 -133.5zM1454 1706h-299l-237 -1364l250 -1q211 0 361 89.5
t239.5 245.5t117.5 356q25 175 -1 327t-127.5 247.5t-303.5 99.5z" />
    <glyph glyph-name="Dtopbar" unicode="&#x18b;" horiz-adv-x="1804" 
d="M1461 0l-702 1q-188 4 -342 78t-238.5 214.5t-64.5 342.5q21 215 142 356.5t301 212t379 70.5h351l75 426h-875l58 333h1269zM1123 326l108 623l-309 3q-148 0 -266.5 -77.5t-142.5 -232.5q-22 -138 49.5 -223t209.5 -91z" />
    <glyph glyph-name="dtopbar" unicode="&#x18c;" horiz-adv-x="1610" 
d="M1320 0h-374l43 185l-15 -1q-135 -216 -394 -213q-157 3 -258 76.5t-155 191.5t-68.5 255t0.5 266q17 141 68.5 283t139.5 259.5t212.5 187t287.5 65.5q108 -3 205 -53.5t136 -157.5h18l74 375h-793l57 329h1171zM460 760q-9 -71 -8 -152t23.5 -152.5t75 -118.5
t146.5 -50q133 -4 219 71.5t132 189.5t62 226q9 70 10 149.5t-19 151t-70.5 117.5t-143.5 50q-133 4 -222.5 -69t-139 -185.5t-65.5 -227.5z" />
    <glyph glyph-name="deltaturn" unicode="&#x18d;" horiz-adv-x="1722" 
d="M1114 -516h-1045l54 310l553 -1q-35 57 -88 103.5t-100 93.5q-104 103 -187 222t-126 254t-26 288l3 28q26 206 128.5 374t268.5 266t383 94q200 -3 337.5 -95t201.5 -247.5t43 -349.5l-3 -28q-21 -167 -106.5 -318t-223 -252t-314.5 -118q-16 -1 -32 -0.5t-32 0.5
q69 -113 162 -215t178 -202zM1122 763l4 28q12 88 4.5 182.5t-56.5 161t-162 70.5q-121 4 -200 -59t-124 -162t-60 -202l-4 -28q-15 -115 10 -232t120 -194q34 -11 74 -13q125 -3 207 64.5t127 172t60 211.5z" />
    <glyph glyph-name="Eturn" unicode="&#x18e;" horiz-adv-x="1655" 
d="M275 1716l58 332h1294l-355 -2048h-1288l58 332h902l91 526h-778l58 331h777l92 527h-909z" />
    <glyph glyph-name="Schwa" unicode="&#x18f;" horiz-adv-x="2060" 
d="M876 -29q-206 3 -350 78.5t-229.5 206t-113.5 299t-1 356.5l37 221h1384l-57 -328l-980 1l-10 -44q-39 -194 52 -313.5t291 -124.5q160 -3 275 82.5t184.5 219t93.5 274.5l33 199q24 160 -9.5 290t-134 207t-277.5 80q-137 2 -270.5 -21t-263.5 -65l-35 335
q74 52 183.5 74.5t223 27.5t198.5 5q275 -2 462.5 -124t271.5 -332.5t45 -477.5l-31 -198q-29 -183 -110 -350.5t-207.5 -298.5t-292 -206t-362.5 -73z" />
    <glyph glyph-name="Epsilon1" unicode="&#x190;" horiz-adv-x="1804" 
d="M913 1181l255 -1l-55 -316l-213 1q-157 0 -269 -69.5t-135 -236.5q-14 -96 24.5 -153t109.5 -82.5t156 -27.5q84 -1 165 26t139 85t70 149l393 1q-8 -151 -80 -261.5t-186 -183t-249.5 -107.5t-270.5 -33q-137 1 -263 34t-223.5 102t-149 179t-38.5 266
q16 190 130.5 305.5t286.5 174.5q-111 72 -174 177t-53 242q12 155 84.5 265.5t186 181t249.5 103t275 30.5q172 -3 313.5 -69t226 -192t83.5 -307l-391 1q4 120 -66.5 177t-185.5 60q-86 2 -168.5 -23t-142 -82t-73.5 -151q-21 -132 45 -196.5t194 -68.5z" />
    <glyph glyph-name="Fhook" unicode="&#x191;" horiz-adv-x="1647" 
d="M1384 1190l-57 -331h-766l-164 -965q-31 -233 -175.5 -353.5t-375.5 -119.5q-48 0 -95.5 2t-95.5 8l33 308q37 -7 75 -8q86 -2 156 34.5t89 128.5l373 2154h1286l-58 -332h-900l-91 -526h766z" />
    <glyph glyph-name="florin" unicode="&#x192;" horiz-adv-x="1235" 
d="M1135 1488l-44 -283h-279l-197 -1277q-28 -232 -163.5 -382t-381.5 -149q-50 0 -99 5.5t-99 14.5l46 311q59 -19 122 -20q99 -1 144 66t57 154l198 1277h-220l45 283h219l17 129q30 240 181 383.5t397 141.5q60 -1 118.5 -10t116.5 -23l-69 -300q-65 16 -125 16
q-100 1 -164 -54t-80 -153l-19 -130h279z" />
    <glyph glyph-name="Ghook" unicode="&#x193;" horiz-adv-x="2269" 
d="M1871 1070l-51 -300q-37 -235 -169 -416t-331 -283t-438 -100q-218 2 -368 92.5t-236 241t-114 335t-3 375.5q27 202 108 392.5t212.5 343t310 240.5t400.5 86q124 -2 245 -38.5t218 -115.5q201 290 553 288q49 0 97 -5.5t96 -14.5l-34 -316q-25 5 -50.5 9t-50.5 5
q-109 4 -192.5 -43t-104.5 -162l-50 -300l-381 -2q-33 144 -122.5 238.5t-244.5 98.5q-145 5 -254 -57.5t-185.5 -167.5t-122 -231t-62.5 -250q-15 -107 -12.5 -225t37 -221.5t114 -169.5t218.5 -69q209 -5 352.5 122.5t196.5 320.5l-427 -2l53 301h792z" />
    <glyph glyph-name="Gamma1" unicode="&#x194;" horiz-adv-x="1978" 
d="M296 2017l425 1l319 -1389q30 -131 79.5 -274t86 -288.5t27.5 -281.5q-9 -135 -80.5 -221.5t-182 -126.5t-234.5 -38q-113 3 -213 43t-160 121.5t-51 208.5q6 104 62 218t134.5 228t156 219.5t127.5 192.5l801 1388h454l-1143 -1855q-50 -86 -112 -185.5t-79 -199.5
q-6 -33 3 -63.5t50 -30.5q47 -1 73.5 33t34.5 75q17 91 -11.5 189t-53.5 184z" />
    <glyph glyph-name="hv" unicode="&#x195;" horiz-adv-x="2492" 
d="M541 852l-146 -852h-380l355 2048h369l-131 -696l9 1q81 98 191.5 151.5t238.5 51.5q164 -3 253 -92t117.5 -224t11.5 -275l-56 -366q-9 -68 -0.5 -136.5t48 -115.5t122.5 -51q89 -4 152 39t99.5 114t49.5 151l159 936h380l-160 -936q-28 -185 -121 -328t-241 -223
t-341 -77q-183 3 -309 85t-183.5 223t-34.5 320l58 369q8 64 -0.5 124t-45.5 100.5t-112 43.5q-107 5 -180 -54t-115 -149.5t-57 -181.5z" />
    <glyph glyph-name="Iota1" unicode="&#x196;" horiz-adv-x="1036" 
d="M736 2112l-277 -1621q-11 -84 21 -141t124 -60q34 -1 67 2.5t66 9.5l3 -302q-46 -18 -99.5 -23.5t-101.5 -4.5q-234 3 -361 146t-99 376l277 1618h380z" />
    <glyph glyph-name="Istroke" unicode="&#x197;" horiz-adv-x="1143" 
d="M1078 1171l-42 -239h-275l-161 -932h-386l162 932h-269l42 239h268l152 877h386l-153 -877h276z" />
    <glyph glyph-name="Khook" unicode="&#x198;" horiz-adv-x="1966" 
d="M1244 0l-441 821l-299 -283l-94 -538h-385l355 2048h386l-168 -910h19l664 634l119 117q151 150 326.5 175t361.5 -78l-154 -286q-80 48 -146.5 22.5t-128.5 -85.5l-45 -44l-535 -502l610 -1091h-445z" />
    <glyph glyph-name="khook" unicode="&#x199;" horiz-adv-x="1555" 
d="M952 0l-298 599l-187 -183l-72 -416h-380l274 1607q29 230 173 351.5t373 120.5q106 -1 206 -17l-31 -302q-23 4 -45.5 7.5t-45.5 3.5q-87 3 -157.5 -34.5t-89.5 -129.5l-119 -641h13l561 570l475 -1l-684 -672l436 -863h-402z" />
    <glyph glyph-name="lbar" unicode="&#x19a;" horiz-adv-x="1174" 
d="M1108 1247l-42 -239h-262l-175 -1008h-380l175 1008h-288l42 239h287l139 801h380l-139 -801h263z" />
    <glyph glyph-name="lambdabar" unicode="&#x19b;" horiz-adv-x="1804" 
d="M1185 1902l-33 -265l-51 -15l246 -1185q10 -44 31 -89.5t74 -49.5l49 -1l-29 -315q-33 -6 -66.5 -7.5t-66.5 -0.5q-147 3 -234 84.5t-120 220.5l-120 639l-456 -918h-426l776 1452l-5 52l-398 -133l50 279l276 87q-17 39 -47.5 53t-71.5 15q-20 1 -40.5 -0.5t-40.5 -3.5
l20 297q48 14 100 19t102 4q119 -2 209 -58.5t120 -176.5l7 -31z" />
    <glyph glyph-name="mcapturn" unicode="&#x19c;" horiz-adv-x="2572" 
d="M1815 0l24 165q-165 -198 -425 -192q-126 2 -233.5 59t-144.5 187q-91 -117 -211 -184.5t-273 -66.5q-183 1 -274.5 91.5t-115 232t-4.5 297.5l242 1415h378l-241 -1416q-8 -60 -5 -128t35 -117.5t111 -52.5q104 -4 184.5 44t136.5 131q4 31 8.5 62t9.5 62l246 1415h377
l-242 -1416q-7 -61 -4 -129t35.5 -116.5t111.5 -52.5q100 -4 178 41t135 124l271 1549h380l-348 -2004h-342z" />
    <glyph glyph-name="Nhook" unicode="&#x19d;" horiz-adv-x="1988" 
d="M1972 2048l-355 -2048h-366l-575 1371l-20 1l-259 -1478q-32 -232 -176.5 -353.5t-375.5 -119.5q-48 0 -95.5 2t-94.5 8l33 308q37 -7 75 -8q86 -2 156 34.5t89 128.5l373 2154h368l574 -1374l20 -1l246 1375h383z" />
    <glyph glyph-name="nlegrightlong" unicode="&#x19e;" horiz-adv-x="1639" 
d="M13 0zM537 845l-145 -845h-379l267 1536h356l-46 -197h9q81 105 194.5 162.5t248.5 54.5q166 -3 262.5 -89t132 -220.5t18.5 -281.5l-264 -1541h-378l262 1526q14 104 -26 193t-160 94q-107 4 -180 -56.5t-115 -152.5t-57 -183z" />
    <glyph glyph-name="Obar" unicode="&#x19f;" horiz-adv-x="2068" 
d="M137 0zM1911 1026q-27 -201 -108 -391t-213 -340.5t-310.5 -238t-399.5 -84.5q-217 2 -366.5 93t-235.5 241t-113.5 334.5t-2.5 374.5q27 203 109 394t214.5 342.5t312 239.5t401.5 85q218 -3 366 -94.5t233 -243.5t111.5 -337.5t1.5 -374.5zM1178 1720q-165 4 -281 -74
t-194.5 -203.5t-130.5 -263.5q123 31 244.5 25.5t243.5 -25t245 -32t248 3.5q10 132 -20.5 261.5t-116 216.5t-238.5 91zM901 329q167 -5 282.5 73.5t192.5 204.5t128 265q-124 -31 -246 -26t-244 24.5t-245 32.5t-248 -3q-11 -134 20.5 -264t118 -216.5t241.5 -90.5z" />
    <glyph glyph-name="Ohorn" unicode="&#x1a0;" horiz-adv-x="2120" 
d="M1910 1026q-29 -202 -109.5 -391.5t-210.5 -340t-308 -238t-401 -84.5q-217 2 -366.5 93t-235.5 241t-114 334.5t-2 374.5q27 204 108.5 394.5t214.5 342t312.5 239t401.5 85.5q174 -2 331.5 -74t258.5 -216q116 48 158 152.5t55 219.5l253 1q-12 -187 -92.5 -343.5
t-267.5 -221.5q21 -144 27.5 -283.5t-13.5 -284.5zM1526 1028q15 106 14 224.5t-34 223.5t-110.5 172.5t-216.5 70.5q-146 4 -256 -57.5t-187 -165.5t-123.5 -230t-63.5 -252q-16 -108 -13.5 -226t36 -221t112.5 -169t218 -70q145 -3 254.5 57.5t185.5 163.5t121 228t63 251
z" />
    <glyph glyph-name="ohorn" unicode="&#x1a1;" horiz-adv-x="1722" 
d="M676 -29q-221 3 -358 116.5t-192 292.5t-31 378q26 215 130 398t276.5 293.5t401.5 106.5q148 -2 282.5 -63t215.5 -189q90 53 121.5 140.5t41.5 185.5l234 1q-10 -166 -81 -297t-235 -191q9 -94 10.5 -186.5t-10.5 -186.5q-28 -212 -131 -396t-274 -295.5t-401 -107.5z
M694 288q134 -4 223 69.5t138 186.5t65 228q10 72 9 152.5t-23 151.5t-74.5 117t-147.5 49q-134 4 -223 -69.5t-137.5 -186.5t-64.5 -228q-10 -72 -9.5 -152.5t22.5 -151.5t75 -117t147 -49z" />
    <glyph glyph-name="OI" unicode="&#x1a2;" horiz-adv-x="2490" 
d="M2486 2004l-447 -2576h-379l366 2109l-211 -88l-198 -1192q-83 -111 -214.5 -173.5t-278.5 -87.5t-276 -24q-207 2 -351 82.5t-228.5 217.5t-112 309.5t-1.5 358.5l18 124q30 195 108 370.5t203 311t294 212.5t381 74q105 -1 218.5 -18.5t218 -60.5t181.5 -121l402 172
h307zM1162 1708q-185 3 -306.5 -91t-189.5 -242.5t-93 -310.5l-20 -125q-14 -102 -13 -212.5t32.5 -207t106 -157t206.5 -62.5q100 -2 190.5 22.5t172.5 81.5l220 1197q-50 69 -139 87t-167 20z" />
    <glyph glyph-name="oi" unicode="&#x1a3;" horiz-adv-x="1978" 
d="M1941 1488l-357 -2060h-380l278 1602l-148 -63l-113 -706q-99 -148 -254 -220t-331 -69q-216 4 -347 109t-182 274.5t-28 366.5l6 41q26 205 124.5 378t262 276t383.5 99q120 -3 234.5 -50t191.5 -141l377 163h283zM647 288q54 -2 102 14t92 47l145 780q-27 40 -67 57.5
t-88 19.5q-123 4 -199 -64.5t-116 -173t-54 -206.5l-5 -40q-8 -62 -11 -135.5t12 -141t59 -111.5t130 -46z" />
    <glyph glyph-name="Phook" unicode="&#x1a4;" horiz-adv-x="2242" 
d="M1349 715l-373 1l-124 -716h-386l306 1722l-59 1q-116 -3 -173.5 -77.5t-75.5 -179.5l-18 -112h-345l29 188q33 240 196.5 373.5t404.5 133.5l804 -2q305 -5 471.5 -177.5t132.5 -481.5q-24 -218 -130.5 -368t-276 -227.5t-383.5 -77.5zM1149 1716l-116 -671l332 -3
q163 1 266 94.5t126 253.5q20 137 -34 228.5t-202 96.5z" />
    <glyph glyph-name="phook" unicode="&#x1a5;" horiz-adv-x="1667" 
d="M-75 -577l347 2114v-1q35 213 172 308t346 92q103 -1 206 -23l-28 -283q-51 20 -112 22q-72 1 -120 -29.5t-86 -88.5l4 1l-45 -192l16 1q136 217 393 213q158 -2 259 -75t155.5 -190t69.5 -253t0 -265q-16 -142 -67.5 -284.5t-139.5 -261t-212.5 -189t-287.5 -66.5
q-108 3 -205 53.5t-137 157.5h-19l-140 -760zM1140 775q10 72 9 152t-23.5 150.5t-75.5 116t-146 48.5q-133 4 -218.5 -69.5t-132 -186.5t-61.5 -225q-10 -69 -11 -149.5t18.5 -153t70 -120t143.5 -50.5q134 -5 223.5 69.5t139 189t64.5 228.5z" />
    <glyph glyph-name="YR" unicode="&#x1a6;" horiz-adv-x="2060" 
d="M1237 -485l-398 1225h-333l-129 -740h-397l343 2003l2 -1l28 143l396 -1l-24 -140h301q185 -3 335.5 -68.5t232.5 -197t63 -333.5q-20 -208 -133.5 -351t-308.5 -215l441 -1302l-1 -26zM668 1674l-106 -608l303 -1q148 0 259.5 79.5t134.5 231.5q20 137 -44.5 215
t-202.5 82z" />
    <glyph glyph-name="Tonetwo" unicode="&#x1a7;" horiz-adv-x="1804" 
d="M476 517q-13 -81 21.5 -130t96.5 -71.5t132 -23.5q170 -5 300 76t152 260l395 2q-9 -165 -88 -289t-204 -206.5t-274 -123.5t-298 -39q-167 2 -317 60.5t-238.5 179t-72.5 309.5q13 148 82 255t174.5 183t231 128t250.5 89q58 17 130.5 39.5t142.5 57t120.5 84.5
t63.5 121q15 82 -21.5 132.5t-101.5 74t-135 25.5q-144 3 -254 -72t-127 -225l-391 -2q6 152 76.5 268.5t183.5 195.5t249.5 119t275.5 38q122 -1 240.5 -35.5t213 -103t146.5 -171.5t41 -243q-12 -143 -83 -247t-179 -177.5t-232.5 -124t-243.5 -86.5q-88 -27 -188 -62
t-176.5 -97t-93.5 -168z" />
    <glyph glyph-name="tonetwo" unicode="&#x1a8;" horiz-adv-x="1548" 
d="M437 405q-10 -58 17.5 -91.5t74.5 -47.5t94 -16q112 -3 200 52.5t109 170.5l362 2q-3 -126 -66.5 -221t-163.5 -158.5t-217 -94.5t-227 -30q-133 2 -263.5 49.5t-213.5 146.5t-74 253q7 122 63.5 204.5t144.5 135t191.5 83.5t205.5 51q55 11 125.5 28t127 53.5
t68.5 105.5q14 81 -40.5 120t-126.5 40q-99 3 -172 -50.5t-86 -153.5l-380 -2q4 126 63.5 217.5t155 150.5t208.5 87t223 26q133 -2 255.5 -53.5t198 -152t66.5 -249.5q-6 -112 -60.5 -190.5t-139 -130t-182.5 -83.5t-192 -51q-58 -12 -135 -31t-138.5 -58t-75.5 -112z" />
    <glyph glyph-name="Esh" unicode="&#x1a9;" horiz-adv-x="1804" 
d="M1221 1029l-1 -25l-587 -669l841 -2l-58 -333h-1379l40 229l731 804l-452 807l34 194h1346l-58 -335h-821z" />
    <glyph glyph-name="eshlooprev" unicode="&#x1aa;" horiz-adv-x="1722" 
d="M296 1611q13 151 96.5 279t215 204t286.5 73q144 -4 253 -82t165 -201.5t40 -264.5l-281 -1660q-7 -53 -2 -103.5t33.5 -84.5t92.5 -37q30 -1 59 2.5t58 8.5l-30 -313q-45 -11 -90.5 -15t-91.5 -3q-158 3 -254 79t-134 199t-21 269l206 1140q-71 -25 -146 -24
q-143 1 -249.5 77t-161.5 198t-44 259zM782 1410q97 -3 159.5 63.5t74.5 157.5q10 78 -25 138.5t-120 62.5q-98 3 -163 -61t-77 -157q-11 -83 25.5 -142.5t125.5 -61.5z" />
    <glyph glyph-name="tpalatalhook" unicode="&#x1ab;" horiz-adv-x="1030" 
d="M1010 1536l-51 -288h-259l-133 -779q-9 -68 8.5 -113.5t92.5 -47.5q22 -1 36 1l144 28l-74 -444q-28 -205 -153 -337t-341 -131q-89 0 -177 18l26 267q22 -4 45 -7.5t46 -3.5q101 -3 178 44t101 149l21 92q-113 7 -193 68t-119 155.5t-29 203.5l141 837h-186l51 288h185
l57 328h380l-58 -328h261z" />
    <glyph glyph-name="Thook" unicode="&#x1ac;" horiz-adv-x="2037" 
d="M2106 2048l-58 -332h-595l-298 -1716h-385l297 1716l-364 2q-113 -1 -172.5 -71.5t-77.5 -174.5l-19 -111h-322l28 181q32 236 185 373t394 135z" />
    <glyph glyph-name="thook" unicode="&#x1ad;" horiz-adv-x="1210" 
d="M1089 1488l-50 -283h-247l-127 -746q-9 -68 8 -114t94 -48q30 -1 60 2l60 6l-29 -299q-54 -20 -111 -27t-114 -6q-200 4 -285 132.5t-66 317.5l131 782h-215l49 283h216l31 210q30 236 178.5 354t381.5 116q101 -1 205 -24l-24 -262q-48 14 -89 15q-100 4 -175.5 -46.5
t-94.5 -152.5l-35 -210h248z" />
    <glyph glyph-name="Trthook" unicode="&#x1ae;" horiz-adv-x="1811" 
d="M1875 2048l-58 -332h-595l-316 -1824q-12 -85 35.5 -118t123.5 -36l103 -2l-55 -312h-158q-213 4 -331 127t-96 341l311 1824h-596l58 332h1574z" />
    <glyph glyph-name="Uhorn" unicode="&#x1af;" horiz-adv-x="2317" 
d="M1590 2048h386l-68 -328q146 45 197.5 158.5t65.5 252.5l253 1q-17 -254 -142.5 -428t-391.5 -202l-147 -807q-35 -230 -162 -394t-319 -250t-420 -84q-214 3 -381.5 91.5t-254 250.5t-57.5 386l232 1353h386l-231 -1343q-23 -168 70.5 -272t260.5 -108q119 -3 223 43
t175.5 132.5t92.5 205.5z" />
    <glyph glyph-name="uhorn" unicode="&#x1b0;" horiz-adv-x="1837" 
d="M1036 684l146 852h379l-51 -231q104 43 137 126.5t44 187.5h227q-12 -208 -109.5 -340.5t-311.5 -162.5l-203 -1116h-356l43 184l-9 -1q-84 -99 -196.5 -153t-243.5 -51q-164 4 -261 91t-134 221.5t-19 279.5l164 965h379l-162 -955q-14 -104 27 -190.5t160 -91.5
q107 -5 179.5 54t114 149.5t56.5 181.5z" />
    <glyph glyph-name="Upsilon2" unicode="&#x1b1;" horiz-adv-x="1804" 
d="M562 939l-18 -124q-10 -72 -11.5 -159t18.5 -167t73 -132.5t152 -56.5q105 -4 181 43t127 125.5t81.5 170.5t43.5 178l18 123q11 72 24 179t10 218.5t-40.5 201t-127.5 128.5l51 337h686l-58 -330h-292q101 -177 157 -351.5t28 -383.5l-17 -118q-26 -171 -100 -325.5
t-190 -273.5t-268.5 -186.5t-336.5 -65.5q-177 3 -308 74t-213 191t-114 271t-10 315l17 118q34 222 148 416t297 324l-294 -5l58 330h673l-51 -337q-137 -59 -216 -180.5t-118.5 -268t-59.5 -279.5z" />
    <glyph glyph-name="Vcursive" unicode="&#x1b2;" horiz-adv-x="1804" 
d="M754 -31q-210 3 -364.5 92t-230.5 248t-48 372l226 1323h395l-226 -1324q-21 -158 35 -268.5t231 -115.5q183 -5 291.5 103.5t136.5 281.5l133 801q12 88 -7.5 147.5t-119.5 62.5q-30 1 -60 -1.5t-59 -7.5l33 324q85 23 181 21q159 -2 260.5 -76.5t144 -197.5t25.5 -273
l-134 -800q-34 -218 -149.5 -379t-293.5 -248.5t-400 -84.5z" />
    <glyph glyph-name="Yhook" unicode="&#x1b3;" horiz-adv-x="2121" 
d="M679 2050l350 -899h23l418 569l58 84q125 185 307.5 241.5t389.5 -19.5l-114 -299q-99 36 -168.5 -1.5t-127.5 -117.5l-46 -64l-586 -763l-135 -781h-386l143 820l-529 1227z" />
    <glyph glyph-name="yhook" unicode="&#x1b4;" horiz-adv-x="1667" 
d="M403 -62l59 117l-275 1480l388 1l137 -935l380 794l44 96q63 138 163.5 243t254.5 139q85 18 165.5 10t164.5 -28l-64 -301q-31 12 -59.5 19.5t-62.5 1.5q-91 -14 -140.5 -86t-85.5 -147l-29 -60l-728 -1506q-77 -170 -224 -275.5t-338 -103.5q-49 0 -96.5 7.5
t-94.5 19.5l33 312q32 -7 71 -8q234 -6 337 210z" />
    <glyph glyph-name="Zbar" unicode="&#x1b5;" horiz-adv-x="1798" 
d="M1521 332l-58 -332h-1464l45 261l549 638l-184 2l45 239h331l496 574l-989 2l58 332h1464l-45 -261l-557 -645l174 -2l-45 -239h-319l-491 -567z" />
    <glyph glyph-name="zbar" unicode="&#x1b6;" horiz-adv-x="1532" 
d="M1258 315l-55 -315h-1200l45 259l372 399l-172 2l45 239l329 1l301 319l-695 2l56 315h1169l-44 -255l-351 -380l168 -2l-47 -239l-326 -1l-320 -342z" />
    <glyph glyph-name="Ezh" unicode="&#x1b7;" horiz-adv-x="1978" 
d="M35 102l393 -1q6 -166 70.5 -264t244.5 -103q165 -5 273 68.5t167.5 198t78.5 273.5q13 98 11.5 192.5t-30 171.5t-96 124t-186.5 49l-373 1l44 253l636 607l-940 2l58 330h1443l-43 -248l-665 -645q164 -15 275 -93t174 -198.5t82.5 -263t1.5 -285.5
q-32 -251 -153 -446.5t-318.5 -306.5t-458.5 -108q-323 4 -499.5 191t-189.5 501z" />
    <glyph glyph-name="Ezhreversed" unicode="&#x1b8;" horiz-adv-x="2060" 
d="M1260 99l392 3q-25 -220 -152.5 -375.5t-316.5 -237.5t-399 -79q-251 3 -411.5 115.5t-227.5 304t-37 429.5q29 235 135.5 419.5t283 299.5t414.5 141l-432 671l38 214h1434l-57 -330h-948l432 -643l-38 -219l-333 1q-171 1 -281 -71.5t-170 -198t-81 -282.5
q-16 -128 -5 -248t79.5 -198t225.5 -82q185 -5 301.5 90.5t153.5 275.5z" />
    <glyph glyph-name="ezhreversed" unicode="&#x1b9;" horiz-adv-x="1804" 
d="M345 1488h1263l-55 -312h-834l379 -515l-42 -235l-161 1q-191 1 -312.5 -94.5t-147.5 -290.5q-17 -128 59 -200.5t200 -75.5q126 -3 227 71.5t117 202.5l380 1q-10 -193 -120.5 -324t-276.5 -197t-344 -64q-176 2 -325 67.5t-233.5 194.5t-67.5 321q25 274 196 436.5
t435 204.5l-382 570z" />
    <glyph glyph-name="ezhtail" unicode="&#x1ba;" horiz-adv-x="1548" 
d="M325 -170q-11 -58 17 -90.5t75.5 -46.5t93.5 -15q113 -3 200.5 51.5t109.5 169.5l361 3q-3 -126 -66.5 -220.5t-164 -158t-217.5 -94.5t-226 -29q-134 2 -264.5 49.5t-213 146t-73.5 253.5q7 118 62 199t140.5 133t186.5 83.5t200 50.5q60 11 134 28t132.5 54.5
t72.5 111.5q15 79 -39.5 110t-121.5 33l-324 1l42 243l387 278l-573 2l54 312h1171l-42 -237l-466 -360q127 -49 204 -155t69 -245q-6 -113 -60.5 -192.5t-138.5 -131.5t-182 -84.5t-193 -52.5q-57 -12 -133.5 -31.5t-138.5 -58.5t-75 -110z" />
    <glyph glyph-name="twostroke" unicode="&#x1bb;" horiz-adv-x="1686" 
d="M1407 332l-58 -332h-1358l52 302l691 597l-162 2l47 239l358 -1q66 70 126 153.5t76 181.5q19 111 -36 199t-175 92q-105 3 -179 -51t-116 -140.5t-52 -179.5l-369 -2q10 196 113.5 352t268.5 245.5t359 87.5q169 -3 301.5 -78.5t203 -208.5t51.5 -306
q-10 -100 -51 -185.5t-102 -163.5l152 4l-43 -238l-288 1q-51 -50 -103 -99t-106 -97l-420 -356l-9 -25z" />
    <glyph glyph-name="Tonefive" unicode="&#x1bc;" horiz-adv-x="1773" 
d="M651 927l-316 82l201 688l-276 1l57 320h292l9 30h1116l-59 -337h-788l-156 -504v1q64 63 149.5 91.5t174.5 27.5q183 -1 303 -96t172 -245.5t34 -318.5q-22 -201 -126 -360t-269.5 -249.5t-370.5 -86.5q-281 6 -428 180.5t-148 444.5h368q4 -76 24 -146.5t68 -116.5
t137 -49q109 -4 189.5 52.5t129 147.5t61.5 189q13 93 -6 175.5t-77.5 135t-164.5 54.5q-177 3 -300 -111z" />
    <glyph glyph-name="tonefive" unicode="&#x1bd;" horiz-adv-x="1722" 
d="M650 638l-361 17l160 520l-224 1l56 312h1244l-54 -312h-669l-99 -266q60 42 137 58t149 16q225 0 351.5 -134t106.5 -360q-16 -182 -115 -296.5t-248.5 -167.5t-317.5 -51q-146 2 -278 50.5t-215.5 150.5t-84.5 265l374 20q4 -94 70 -130t152 -38q108 -2 190.5 54.5
t98.5 167.5q15 97 -40.5 149.5t-148.5 54.5q-65 1 -126.5 -16.5t-107.5 -64.5z" />
    <glyph glyph-name="glottalstopbarinv" unicode="&#x1be;" horiz-adv-x="1548" 
d="M926 420q13 64 -23 124.5t-95 122t-119 129.5t-97.5 147.5t-27.5 176.5l10 85h-213l49 283h212l64 367h382l-64 -367h248l-50 -283h-246l-14 -89q-14 -96 19 -162.5t89.5 -120t115 -107t97 -122.5t33.5 -168q-6 -124 -68 -213t-159 -145.5t-210 -82.5t-220 -24
q-152 3 -281 61.5t-208.5 170t-81.5 272.5l362 -1q0 -107 60 -163t166 -58q84 -1 167.5 36t102.5 131z" />
    <glyph glyph-name="wynn" unicode="&#x1bf;" horiz-adv-x="1804" 
d="M1508 732q-29 -215 -127 -375.5t-246.5 -275t-329.5 -191.5t-375 -124l-68 -338h-380l357 2060l353 1l-25 -149q76 87 173 132.5t214 43.5q154 -3 251 -72t147.5 -180.5t62.5 -242.5t-3 -258zM937 1202q-93 3 -165 -37.5t-125 -113.5l-184 -982q163 53 303.5 139.5
t235.5 215.5t124 310l4 29q9 61 11 135t-14.5 142t-60.5 113t-129 49z" />
    <glyph glyph-name="pipe" unicode="&#x1c0;" horiz-adv-x="778" 
d="M701 2018l-350 -2018h-234l350 2018h234z" />
    <glyph glyph-name="pipedbl" unicode="&#x1c1;" horiz-adv-x="1036" 
d="M641 2018l-350 -2018h-234l350 2018h234zM1002 2018l-350 -2018h-234l350 2018h234z" />
    <glyph glyph-name="pipedblbar" unicode="&#x1c2;" horiz-adv-x="1256" 
d="M1079 851l-42 -239h-347l-106 -612h-234l106 612h-349l42 239h348l69 397h-348l42 239h347l93 531h234l-92 -531h347l-42 -239h-346l-70 -397h348z" />
    <glyph glyph-name="exclam1" unicode="&#x1c3;" horiz-adv-x="780" 
d="M784 2048l-292 -1431h-312l205 1431h399zM255 -28q-91 0 -153 61t-63 153q-2 96 63.5 162t161.5 66q91 0 154 -61t65 -152q1 -97 -65 -163t-163 -66z" />
    <glyph glyph-name="Dzcaron_" unicode="&#x1c5;" horiz-adv-x="3303" 
d="M2460 2048l174 -201l242 200l320 7l2 -25l-452 -381h-232l-355 382v24zM721 0h-696l355 2048h661q299 -4 484.5 -143t258.5 -369t36 -508q-40 -295 -183 -528t-376 -367t-540 -133zM1005 1706h-299l-236 -1364l250 -1q212 0 362 89.5t238.5 246t117.5 356.5q26 175 0 327
t-128.5 247t-304.5 99zM2975 315l-55 -315h-1200l45 259l875 960l-695 2l55 315h1170l-44 -255l-876 -964z" />
    <glyph glyph-name="dzcaron" unicode="&#x1c6;" horiz-adv-x="2969" 
d="M2157 2048l173 -201l242 200l321 7l1 -25l-452 -381h-231l-355 382l-1 24zM1315 0h-374l43 185l-14 -1q-136 -217 -394 -213q-158 3 -259 76.5t-155 191.5t-69 255t0 265q17 142 69 284.5t140 260t212.5 187t287.5 64.5q108 -3 205 -53.5t136 -157.5h18l131 704h379z
M2651 315l-55 -315h-1200l45 259l875 960l-695 2l55 315h1170l-44 -255l-876 -964zM453 760q-10 -72 -8.5 -153t24 -152.5t75.5 -118t147 -49.5q133 -5 219 70.5t132.5 190t61.5 226.5q10 70 10.5 149.5t-19 151t-70 117.5t-143.5 50q-134 4 -223.5 -68.5t-139.5 -185.5
t-66 -228z" />
    <glyph glyph-name="LJ" unicode="&#x1c7;" horiz-adv-x="3371" 
d="M281 0zM1565 332l-58 -332h-1226l355 2048h386l-298 -1716h841zM2746 614l247 1434h382l-246 -1434q-28 -189 -126.5 -335t-252.5 -228.5t-350 -79.5q-278 4 -424.5 168t-138.5 437h382q-3 -108 41.5 -192t165.5 -89q94 -4 160.5 41t106.5 119.5t53 158.5z" />
    <glyph glyph-name="Lj" unicode="&#x1c8;" horiz-adv-x="2677" 
d="M281 0zM1565 332l-58 -332h-1226l355 2048h386l-298 -1716h841zM2475 1664q-84 0 -147 56.5t-65 142.5q-3 90 63.5 152t154.5 61q83 0 145.5 -57t64.5 -142q2 -90 -63 -152t-153 -61zM2230 1536h380l-275 -1603q-35 -250 -196 -382t-411 -132l-149 1l56 314l57 -1
q106 0 174.5 49t87.5 155z" />
    <glyph glyph-name="lj" unicode="&#x1c9;" horiz-adv-x="1826" 
d="M271 0zM1006 2048l-355 -2048h-380l355 2048h380zM1624 1664q-84 0 -147 56.5t-65 142.5q-3 90 63.5 152t154.5 61q83 0 145.5 -57t64.5 -142q2 -90 -63 -152t-153 -61zM1379 1536h380l-275 -1603q-35 -250 -196 -382t-411 -132l-149 1l56 314l57 -1q106 0 174.5 49
t87.5 155z" />
    <glyph glyph-name="NJ" unicode="&#x1ca;" horiz-adv-x="3791" 
d="M281 0zM2227 2048l-355 -2048h-366l-575 1371l-20 1l-245 -1372h-385l355 2048h368l574 -1374l20 -1l246 1375h383zM3166 614l247 1434h382l-246 -1434q-28 -189 -126.5 -335t-252.5 -228.5t-350 -79.5q-278 4 -424.5 168t-138.5 437h382q-3 -108 41.5 -192t165.5 -89
q94 -4 160.5 41t106.5 119.5t53 158.5z" />
    <glyph glyph-name="Nj" unicode="&#x1cb;" horiz-adv-x="3097" 
d="M281 0zM2227 2048l-355 -2048h-366l-575 1371l-20 1l-245 -1372h-385l355 2048h368l574 -1374l20 -1l246 1375h383zM2895 1664q-84 0 -147 56.5t-65 142.5q-3 90 63.5 152t154.5 61q83 0 145.5 -57t64.5 -142q2 -90 -63 -152t-153 -61zM2650 1536h380l-275 -1603
q-35 -250 -196 -382t-411 -132l-149 1l56 314l57 -1q106 0 174.5 49t87.5 155z" />
    <glyph glyph-name="nj" unicode="&#x1cc;" horiz-adv-x="2753" 
d="M271 0zM796 845l-145 -845h-380l267 1536h356l-46 -197h9q81 105 194.5 162.5t248.5 54.5q165 -3 262 -89t133 -220t19 -282l-164 -965h-379l163 950q14 104 -26 193t-160 94q-107 4 -180 -56.5t-115 -152.5t-57 -183zM2551 1664q-84 0 -147 56.5t-65 142.5
q-3 90 63.5 152t154.5 61q83 0 145.5 -57t64.5 -142q2 -90 -63 -152t-153 -61zM2306 1536h380l-275 -1603q-35 -250 -196 -382t-411 -132l-149 1l56 314l57 -1q106 0 174.5 49t87.5 155z" />
    <glyph glyph-name="Acaron" unicode="&#x1cd;" horiz-adv-x="2078" 
d="M0 0zM348 0h-427l1088 2048h408l383 -2048h-404l-69 436h-758zM1135 1552l-411 -790l552 -2l-120 792h-21zM1094 2565l173 -201l242 200l321 7l1 -25l-452 -381h-231l-355 382l-1 24z" />
    <glyph glyph-name="acaron" unicode="&#x1ce;" horiz-adv-x="1558" 
d="M28 0zM855 0l28 159l-5 -1q-70 -99 -175 -145.5t-225 -44.5q-133 2 -236 59.5t-158.5 160t-46.5 237.5q8 132 69.5 221.5t157.5 145t209.5 84.5t225.5 39q42 4 109 7.5t124.5 23.5t71.5 73l5 23q13 91 -35 144.5t-139 56.5q-99 3 -177.5 -49t-116.5 -142l-350 68
q39 151 145 248.5t247.5 143.5t286.5 44q158 -2 281 -63.5t187.5 -178t46.5 -283.5l-174 -1031h-356zM918 511l49 207q-44 -38 -112 -47t-123 -16q-70 -9 -140 -30.5t-120.5 -67.5t-63.5 -127q-12 -82 37.5 -124.5t126.5 -44.5q114 -2 218 66t128 184zM762 2113l173 -201
l242 200l321 7l1 -25l-452 -381h-231l-355 382l-1 24z" />
    <glyph glyph-name="Icaron" unicode="&#x1cf;" horiz-adv-x="744" 
d="M25 0zM766 2048l-356 -2048h-385l355 2048h386zM422 2565l173 -201l242 200l321 7l1 -25l-452 -381h-231l-355 382l-1 24z" />
    <glyph glyph-name="icaron" unicode="&#x1d0;" horiz-adv-x="739" 
d="M25 0zM671 1536l-266 -1536h-380l266 1536h380zM348 2093l173 -201l242 200l321 7l1 -25l-452 -381h-231l-355 382l-1 24z" />
    <glyph glyph-name="Ocaron" unicode="&#x1d1;" horiz-adv-x="2068" 
d="M137 0zM1911 1027q-27 -202 -108 -392t-213 -340.5t-310.5 -238t-399.5 -84.5q-217 2 -366.5 93t-235.5 241t-113.5 334.5t-2.5 374.5q27 203 109 394t214.5 342.5t312 239.5t401.5 85q218 -3 366 -94.5t233 -243.5t111.5 -337t1.5 -374zM1525 1028q15 106 14 224.5
t-34 223.5t-110.5 172.5t-216.5 70.5q-146 4 -256 -57.5t-187 -165.5t-123 -230t-64 -252q-15 -107 -13 -225t36 -221.5t112.5 -169.5t217.5 -69q145 -4 254.5 56.5t185.5 163.5t121 228t63 251zM1092 2565l173 -201l242 200l321 7l1 -25l-452 -381h-231l-355 382l-1 24z
" />
    <glyph glyph-name="ocaron" unicode="&#x1d2;" horiz-adv-x="1648" 
d="M74 0zM688 -29q-221 3 -359.5 116t-196.5 292t-36 380q23 214 125 396.5t272.5 293t398.5 107.5q221 -3 359.5 -115.5t196.5 -290.5t36 -379q-23 -213 -125 -396.5t-272.5 -295t-398.5 -108.5zM704 288q134 -4 221 69.5t134.5 186.5t61.5 227q9 74 7 154.5t-26 151.5
t-78 116.5t-148 48.5q-134 4 -221 -69.5t-134 -186.5t-61 -227q-10 -74 -7.5 -154.5t26 -151.5t77.5 -116.5t148 -48.5zM763 2113l173 -201l242 200l321 7l1 -25l-452 -381h-231l-355 382l-1 24z" />
    <glyph glyph-name="Ucaron" unicode="&#x1d3;" horiz-adv-x="1990" 
d="M120 0zM1590 2048h385l-233 -1352q-35 -230 -162 -394.5t-318 -251.5t-420 -84q-214 3 -381.5 92t-254 251.5t-57.5 385.5l232 1353h386l-231 -1343q-23 -168 70.5 -271t260.5 -107q119 -3 223 42t175.5 131t92.5 206zM1050 2565l173 -201l242 200l321 7l1 -25l-452 -381
h-231l-355 382l-1 24z" />
    <glyph glyph-name="ucaron" unicode="&#x1d4;" horiz-adv-x="1644" 
d="M100 0zM1035 684l146 852h379l-267 -1536h-356l43 184l-9 -1q-83 -99 -196 -153.5t-244 -51.5q-163 4 -260 91.5t-134 222t-20 279.5l164 965h379l-162 -955q-14 -104 27 -190.5t159 -91.5q107 -4 180 54.5t114.5 149t56.5 181.5zM784 2113l173 -201l242 200l321 7l1 -25
l-452 -381h-231l-355 382l-1 24z" />
    <glyph glyph-name="Udieresismacron" unicode="&#x1d5;" horiz-adv-x="1990" 
d="M120 0zM1590 2048h385l-233 -1352q-35 -230 -162 -394.5t-318 -251.5t-420 -84q-214 3 -381.5 92t-254 251.5t-57.5 385.5l232 1353h386l-231 -1343q-23 -168 70.5 -271t260.5 -107q119 -3 223 42t175.5 131t92.5 206zM1830 2846l-40 -228h-923l40 228h923zM810 2331
q-3 75 49 120.5t124 46.5q70 1 125 -41t58 -115q4 -76 -49 -121t-125 -46q-70 -1 -124.5 40.5t-57.5 115.5zM1393 2331q-3 75 49.5 120t124.5 46q69 1 124 -40.5t58 -114.5q4 -76 -48.5 -121.5t-125.5 -46.5q-70 -1 -124.5 41t-57.5 116z" />
    <glyph glyph-name="udieresismacron" unicode="&#x1d6;" horiz-adv-x="1644" 
d="M100 0zM1035 684l146 852h379l-267 -1536h-356l43 184l-9 -1q-83 -99 -196 -153.5t-244 -51.5q-163 4 -260 91.5t-134 222t-20 279.5l164 965h379l-162 -955q-14 -104 27 -190.5t159 -91.5q107 -4 180 54.5t114.5 149t56.5 181.5zM1573 2432l-40 -228h-923l40 228h923z
M508 1879q-3 78 51 128.5t129 51.5q73 1 128 -46t58 -122q3 -77 -51 -128t-129 -51q-73 -1 -128 45.5t-58 121.5zM1153 1878q-3 78 50.5 128.5t129.5 51.5q73 1 127.5 -46t57.5 -122q4 -77 -50 -128t-130 -51q-72 -1 -127 45.5t-58 121.5z" />
    <glyph glyph-name="Udieresisacute" unicode="&#x1d7;" horiz-adv-x="1990" 
d="M120 0zM1590 2048h385l-233 -1352q-35 -230 -162 -394.5t-318 -251.5t-420 -84q-214 3 -381.5 92t-254 251.5t-57.5 385.5l232 1353h386l-231 -1343q-23 -168 70.5 -271t260.5 -107q119 -3 223 42t175.5 131t92.5 206zM1179 2488l218 272l304 -1l-288 -271h-234z
M874 2277q-25 51 -3 99.5t71 68.5q50 20 105 8t81 -64q25 -51 2.5 -99.5t-73.5 -68.5q-48 -20 -103 -7t-80 63zM1433 2277q-26 51 -3 99.5t73 68.5t104 8t80 -64q25 -50 3 -99t-73 -69q-48 -20 -104 -7t-80 63z" />
    <glyph glyph-name="udieresisacute" unicode="&#x1d8;" horiz-adv-x="1644" 
d="M100 0zM1035 684l146 852h379l-267 -1536h-356l43 184l-9 -1q-83 -99 -196 -153.5t-244 -51.5q-163 4 -260 91.5t-134 222t-20 279.5l164 965h379l-162 -955q-14 -104 27 -190.5t159 -91.5q107 -4 180 54.5t114.5 149t56.5 181.5zM860 2122l335 424l443 -1l-445 -423
h-333zM508 1879q-3 78 51 128.5t129 51.5q73 1 128 -46t58 -122q3 -77 -51 -128t-130 -51q-72 -1 -127 45.5t-58 121.5zM1153 1878q-3 78 50.5 128.5t129.5 51.5q73 1 127.5 -46t57.5 -122q4 -77 -50 -128t-130 -51q-72 -1 -127 45.5t-58 121.5z" />
    <glyph glyph-name="Udieresiscaron" unicode="&#x1d9;" horiz-adv-x="1990" 
d="M120 0zM1590 2048h385l-233 -1352q-35 -230 -162 -394.5t-318 -251.5t-420 -84q-214 3 -381.5 92t-254 251.5t-57.5 385.5l232 1353h386l-231 -1343q-23 -168 70.5 -271t260.5 -107q119 -3 223 42t175.5 131t92.5 206zM1176 2853l150 -157l204 156l336 5l1 -31l-410 -310
h-257l-336 311v30zM810 2331q-3 75 49 120.5t124 46.5q70 1 125 -41t58 -115q3 -76 -49.5 -121t-124.5 -46q-70 -1 -124.5 40.5t-57.5 115.5zM1393 2330q-3 76 49.5 121t124.5 46q69 1 124 -40.5t58 -114.5q4 -76 -48.5 -121.5t-125.5 -46.5q-70 -1 -124.5 41t-57.5 115z
" />
    <glyph glyph-name="udieresiscaron" unicode="&#x1da;" horiz-adv-x="1644" 
d="M100 0zM1035 684l146 852h379l-267 -1536h-356l43 184l-9 -1q-83 -99 -196 -153.5t-244 -51.5q-163 4 -260 91.5t-134 222t-20 279.5l164 965h379l-162 -955q-14 -104 27 -190.5t159 -91.5q107 -4 180 54.5t114.5 149t56.5 181.5zM918 2548l160 -198l230 197l334 6l1 -25
l-449 -381h-240l-350 383v24zM508 1879q-3 78 51 128.5t129 51.5q73 1 128 -46t58 -122q3 -77 -51 -128t-129 -51q-73 -1 -128 45.5t-58 121.5zM1153 1878q-3 78 50.5 128.5t129.5 51.5q73 1 127.5 -46t57.5 -122q4 -77 -50 -128t-129 -51q-73 -1 -128 45.5t-58 121.5z" />
    <glyph glyph-name="Udieresisgrave" unicode="&#x1db;" horiz-adv-x="1990" 
d="M120 0zM1590 2048h385l-233 -1352q-35 -230 -162 -394.5t-318 -251.5t-420 -84q-214 3 -381.5 92t-254 251.5t-57.5 385.5l232 1353h386l-231 -1343q-23 -168 70.5 -271t260.5 -107q119 -3 223 42t175.5 131t92.5 206zM1290 2760l133 -271l-191 -1l-204 270zM810 2331
q-3 75 49 120.5t124 46.5q70 1 125 -41t58 -115q4 -76 -49 -121t-125 -46q-70 -1 -124.5 40.5t-57.5 115.5zM1393 2331q-3 75 49.5 120t124.5 46q69 1 124 -40.5t58 -114.5q4 -76 -48.5 -121.5t-125.5 -46.5q-70 -1 -124.5 41t-57.5 116z" />
    <glyph glyph-name="udieresisgrave" unicode="&#x1dc;" horiz-adv-x="1644" 
d="M100 0zM1035 684l146 852h379l-267 -1536h-356l43 184l-9 -1q-83 -99 -196 -153.5t-244 -51.5q-163 4 -260 91.5t-134 222t-20 279.5l164 965h379l-162 -955q-14 -104 27 -190.5t159 -91.5q107 -4 180 54.5t114.5 149t56.5 181.5zM1042 2546l199 -423l-295 -1l-305 422z
M508 1879q-3 78 51 128.5t129 51.5q73 1 128 -46t58 -122q3 -77 -51 -128t-130 -51q-72 -1 -127 45.5t-58 121.5zM1153 1878q-3 78 50.5 128.5t129.5 51.5q73 1 127.5 -46t57.5 -122q4 -77 -50 -128t-130 -51q-72 -1 -127 45.5t-58 121.5z" />
    <glyph glyph-name="eturn" unicode="&#x1dd;" horiz-adv-x="1548" 
d="M68 0zM796 1516q205 -3 342.5 -103.5t199 -264.5t38.5 -357l-8 -55q-20 -148 -80 -285.5t-157 -246.5t-228 -171.5t-292 -60.5q-196 3 -319 95.5t-173.5 245t-26.5 334.5l36 221h1097l-47 -269l-714 1l-9 -40q-20 -105 18.5 -187t158.5 -86q87 -3 149.5 40t104.5 112.5
t66.5 149t35.5 149.5l7 52q14 95 -2 189t-75 157t-173 67q-115 4 -217.5 -27t-203.5 -82l-87 256q106 96 263.5 132t295.5 34z" />
    <glyph glyph-name="Adieresismacron" unicode="&#x1de;" horiz-adv-x="2078" 
d="M0 0zM348 0h-427l1088 2048h408l383 -2048h-404l-69 436h-758zM1135 1552l-411 -790l552 -2l-120 792h-21zM1874 2846l-40 -228h-923l40 228h923zM854 2331q-3 75 49 120.5t124 46.5q70 1 125 -41t58 -115q4 -76 -49 -121t-125 -46q-70 -1 -124.5 40.5t-57.5 115.5z
M1437 2331q-3 75 49.5 120t124.5 46q69 1 124 -40.5t58 -114.5q4 -76 -48.5 -121.5t-125.5 -46.5q-70 -1 -124.5 41t-57.5 116z" />
    <glyph glyph-name="adieresismacron" unicode="&#x1df;" horiz-adv-x="1558" 
d="M28 0zM855 0l28 159l-5 -1q-70 -99 -175 -145.5t-225 -44.5q-133 2 -236 59.5t-158.5 160t-46.5 237.5q8 132 69.5 221.5t157.5 145t209.5 84.5t225.5 39q42 4 109 7.5t124.5 23.5t71.5 73l5 23q13 91 -35 144.5t-139 56.5q-99 3 -177.5 -49t-116.5 -142l-350 68
q39 151 145 248.5t247.5 143.5t286.5 44q158 -2 281 -63.5t187.5 -178t46.5 -283.5l-174 -1031h-356zM918 511l49 207q-44 -38 -112 -47t-123 -16q-70 -9 -140 -30.5t-120.5 -67.5t-63.5 -127q-12 -82 37.5 -124.5t126.5 -44.5q114 -2 218 66t128 184zM1551 2432l-40 -228
h-923l40 228h923zM486 1879q-3 78 51 128.5t129 51.5q73 1 128 -46t58 -122q3 -77 -51 -128t-129 -51q-73 -1 -128 45.5t-58 121.5zM1131 1878q-3 78 50.5 128.5t129.5 51.5q73 1 127.5 -46t57.5 -122q4 -77 -50 -128t-130 -51q-72 -1 -127 45.5t-58 121.5z" />
    <glyph glyph-name="Adotmacron" unicode="&#x1e0;" horiz-adv-x="2078" 
d="M0 0zM348 0h-427l1088 2048h408l383 -2048h-404l-69 436h-758zM1135 1552l-411 -790l552 -2l-120 792h-21zM1874 2843l-40 -227h-923l40 227h923zM1147 2337q-3 76 50 121t125 46q69 1 124 -41t58 -114q4 -76 -49 -121.5t-125 -46.5q-70 -1 -125 40.5t-58 115.5z" />
    <glyph glyph-name="adotmacron" unicode="&#x1e1;" horiz-adv-x="1558" 
d="M28 0zM855 0l28 159l-5 -1q-70 -99 -175 -145.5t-225 -44.5q-133 2 -236 59.5t-158.5 160t-46.5 237.5q8 132 69.5 221.5t157.5 145t209.5 84.5t225.5 39q42 4 109 7.5t124.5 23.5t71.5 73l5 23q13 91 -35 144.5t-139 56.5q-99 3 -177.5 -49t-116.5 -142l-350 68
q39 151 145 248.5t247.5 143.5t286.5 44q158 -2 281 -63.5t187.5 -178t46.5 -283.5l-174 -1031h-356zM918 511l49 207q-44 -38 -112 -47t-123 -16q-70 -9 -140 -30.5t-120.5 -67.5t-63.5 -127q-12 -82 37.5 -124.5t126.5 -44.5q114 -2 218 66t128 184zM1560 2485l-40 -228
h-923l40 228h923zM802 1912q-2 85 54 139t140 55q80 0 136.5 -49.5t59.5 -131.5q3 -85 -53.5 -138.5t-139.5 -54.5q-80 -1 -137 48.5t-60 131.5z" />
    <glyph glyph-name="AEmacron" unicode="&#x1e2;" horiz-adv-x="2772" 
d="M0 0zM2472 318l-56 -318h-1188l59 438h-631l-287 -438h-455l1412 2048h1364l-55 -318h-806l-74 -543h677l-55 -315h-664l-75 -554h834zM859 762l471 -2l118 880zM2110 2465l-36 -226h-923l36 226h923z" />
    <glyph glyph-name="aemacron" unicode="&#x1e3;" horiz-adv-x="2490" 
d="M32 0zM196 1120q39 151 145 248t247 143.5t287 44.5q109 -1 224 -33.5t189 -120.5q102 76 216.5 115.5t241.5 38.5q211 -3 344 -105.5t187.5 -269.5t28.5 -363l-18 -123l-1012 -94q-4 -133 64.5 -221t207.5 -91q114 -4 202.5 52t134.5 159l331 -91q-36 -148 -145.5 -246
t-253 -146t-283.5 -46q-148 2 -281 64t-200 202h-9q-76 -139 -221 -205t-299 -64q-136 1 -249 55t-178 155.5t-57 246.5q8 132 69.5 221.5t158 145t210 84.5t225.5 39q42 4 109 7.5t124.5 23t71.5 73.5l4 22q14 92 -34 145.5t-140 55.5q-98 3 -176.5 -48.5t-115.5 -141.5z
M1726 1242q-116 4 -198 -51.5t-137.5 -144.5t-92.5 -185l662 60q26 130 -34.5 223.5t-199.5 97.5zM922 511l49 207q-44 -38 -112 -47t-123 -16q-71 -9 -140.5 -31t-120 -67.5t-62.5 -126.5q-13 -82 37 -124.5t126 -44.5q115 -3 218.5 65.5t127.5 184.5zM1898 2002l-36 -226
h-923l36 226h923z" />
    <glyph glyph-name="Gbar" unicode="&#x1e4;" horiz-adv-x="2124" 
d="M1861 1071l-45 -301q-5 -21 -11.5 -42t-13.5 -42l195 3l-37 -206l-212 1q-135 -237 -355 -376t-498 -136q-219 2 -369 92t-236.5 240t-114.5 334.5t-3 376.5q27 202 108 393t212.5 342.5t310 240t400.5 86.5q204 -2 350.5 -88t241.5 -233.5t142 -332.5l-388 -41
q-33 144 -122.5 238t-244.5 99q-145 4 -254 -58t-185.5 -167t-122 -231t-62.5 -249q-15 -107 -12.5 -225t37 -222t113.5 -170t217 -68q116 -3 215 41.5t186 116.5l-327 -4l37 206l402 -3q19 45 30 82l17 57l-427 -3l44 248z" />
    <glyph glyph-name="gbar" unicode="&#x1e5;" horiz-adv-x="1732" 
d="M1207 1531h374l-109 -625h212l-42 -239h-211l-106 -625q-29 -204 -139.5 -345t-278.5 -212.5t-369 -68.5q-158 2 -310 56.5t-258 177.5l211 250q76 -74 164.5 -117.5t196.5 -46.5q163 -4 275 82t142 247l34 159l-16 -1q-67 -100 -169.5 -148.5t-222.5 -46.5
q-153 1 -254 68t-157.5 176t-74.5 239.5t-4 259.5q16 140 68.5 280.5t140.5 256t212.5 183.5t284.5 64q108 -3 205.5 -53.5t136.5 -157.5h23zM458 773q-13 -96 -1.5 -195.5t67.5 -168t176 -72.5q105 -3 180 43.5t126 123.5t85 165l-379 -2l43 239l358 -1q6 81 -13 157
t-71.5 126t-145.5 53q-131 5 -220 -65.5t-139.5 -180t-65.5 -222.5z" />
    <glyph glyph-name="Gcaron" unicode="&#x1e6;" horiz-adv-x="2024" 
d="M137 0zM1872 1070l-51 -300q-36 -235 -168 -416t-331.5 -283t-438.5 -99q-218 2 -368 92t-236 240.5t-114 335t-3 375.5q27 202 108 393t212.5 342.5t310 240t400.5 86.5q204 -2 350.5 -88t241.5 -233.5t142 -332.5l-388 -41q-33 144 -122.5 238t-245.5 99
q-144 4 -253 -58t-185.5 -167t-122 -231t-62.5 -249q-15 -108 -12.5 -226t37 -221.5t114 -169.5t218.5 -69q209 -5 352.5 122.5t196.5 320.5l-427 -2l53 301h792zM1089 2565l173 -201l242 200l321 7l1 -25l-452 -381h-231l-355 382l-1 24z" />
    <glyph glyph-name="gcaron" unicode="&#x1e7;" horiz-adv-x="1667" 
d="M0 0zM1208 1531h374l-256 -1488q-30 -204 -140 -345t-277.5 -213t-369.5 -69q-158 2 -310 57t-258 177l211 250q75 -74 164 -117.5t197 -46.5q162 -4 274.5 82t142.5 247l34 159l-16 -1q-67 -100 -169.5 -148.5t-222.5 -46.5q-153 2 -254 69t-157.5 176t-74 239.5
t-3.5 259.5q16 140 68 280t140.5 255.5t212.5 183.5t284 64q108 -3 205.5 -53.5t136.5 -157.5h23zM458 772q-13 -97 -1 -196t68.5 -167t175.5 -71q129 -4 213 62t131 171t62 216q9 68 8.5 145.5t-21.5 146.5t-71 114t-140 48q-130 5 -219 -65.5t-140 -180.5t-66 -223z
M786 2113l173 -201l242 200l321 7l1 -25l-452 -381h-231l-355 382l-1 24z" />
    <glyph glyph-name="Kcaron" unicode="&#x1e8;" horiz-adv-x="1975" 
d="M25 0zM1244 0l-441 821l-299 -283l-94 -538h-385l355 2048h386l-168 -910h18l953 910l533 -1l-1024 -956l611 -1091h-445zM909 2565l173 -201l242 200l321 7l1 -25l-452 -381h-231l-355 382l-1 24z" />
    <glyph glyph-name="kcaron" unicode="&#x1e9;" horiz-adv-x="1555" 
d="M15 0zM954 0l-307 631l-171 -164l-81 -467h-380l355 2048h380l-197 -1082h15l561 570l473 -1l-683 -672l435 -863h-400zM882 2565l173 -201l242 200l321 7l1 -25l-452 -381h-231l-355 382l-1 24z" />
    <glyph glyph-name="Oogonek" unicode="&#x1ea;" horiz-adv-x="2068" 
d="M137 0zM1911 1027q-27 -202 -108 -392t-213 -340.5t-310.5 -238t-399.5 -84.5q-217 2 -366.5 93t-235.5 241t-113.5 334.5t-2.5 374.5q27 203 109 394t214.5 342.5t312 239.5t401.5 85q218 -3 366 -94.5t233 -243.5t111.5 -337t1.5 -374zM1525 1028q15 106 14 224.5
t-34 223.5t-110.5 172.5t-216.5 70.5q-146 4 -256 -57.5t-187 -165.5t-123 -230t-64 -252q-15 -107 -13 -225t36 -221.5t112.5 -169.5t217.5 -69q145 -4 254.5 56.5t185.5 163.5t121 228t63 251zM804 85l199 -90q-70 -43 -148.5 -101t-93.5 -149q-13 -79 62 -81
q28 0 55.5 8.5t53.5 18.5l28 -214q-47 -32 -103 -45t-112 -12q-123 1 -202.5 75t-76.5 200q2 99 52.5 172.5t127 126.5t158.5 91z" />
    <glyph glyph-name="oogonek" unicode="&#x1eb;" horiz-adv-x="1648" 
d="M74 0zM688 -29q-221 3 -359.5 116t-196.5 292t-36 380q23 214 125 396.5t272.5 293t398.5 107.5q221 -3 359.5 -115.5t196.5 -290.5t36 -379q-23 -213 -125 -396.5t-272.5 -295t-398.5 -108.5zM704 288q134 -4 221 69.5t134.5 186.5t61.5 227q9 74 7 154.5t-26 151.5
t-78 116.5t-148 48.5q-134 4 -221 -69.5t-134 -186.5t-61 -227q-10 -74 -7.5 -154.5t26 -151.5t77.5 -116.5t148 -48.5zM586 85l199 -90q-70 -43 -148.5 -101t-93.5 -149q-13 -79 62 -81q28 0 55.5 8.5t53.5 18.5l28 -214q-47 -32 -103 -45t-112 -12q-123 1 -202.5 75
t-76.5 200q2 99 52.5 172.5t127 126.5t158.5 91z" />
    <glyph glyph-name="Oogonekmacron" unicode="&#x1ec;" horiz-adv-x="2068" 
d="M137 0zM1911 1027q-27 -202 -108 -392t-213 -340.5t-310.5 -238t-399.5 -84.5q-217 2 -366.5 93t-235.5 241t-113.5 334.5t-2.5 374.5q27 203 109 394t214.5 342.5t312 239.5t401.5 85q218 -3 366 -94.5t233 -243.5t111.5 -337t1.5 -374zM1525 1028q15 106 14 224.5
t-34 223.5t-110.5 172.5t-216.5 70.5q-146 4 -256 -57.5t-187 -165.5t-123 -230t-64 -252q-15 -107 -13 -225t36 -221.5t112.5 -169.5t217.5 -69q145 -4 254.5 56.5t185.5 163.5t121 228t63 251zM804 85l199 -90q-70 -43 -148.5 -101t-93.5 -149q-13 -79 62 -81
q28 0 55.5 8.5t53.5 18.5l28 -214q-47 -32 -103 -45t-112 -12q-123 1 -202.5 75t-76.5 200q2 99 52.5 172.5t127 126.5t158.5 91zM1759 2454l-36 -226h-923l36 226h923z" />
    <glyph glyph-name="oogonekmacron" unicode="&#x1ed;" horiz-adv-x="1648" 
d="M74 0zM688 -29q-221 3 -359.5 116t-196.5 292t-36 380q23 214 125 396.5t272.5 293t398.5 107.5q221 -3 359.5 -115.5t196.5 -290.5t36 -379q-23 -213 -125 -396.5t-272.5 -295t-398.5 -108.5zM704 288q134 -4 221 69.5t134.5 186.5t61.5 227q9 74 7 154.5t-26 151.5
t-78 116.5t-148 48.5q-134 4 -221 -69.5t-134 -186.5t-61 -227q-10 -74 -7.5 -154.5t26 -151.5t77.5 -116.5t148 -48.5zM586 85l199 -90q-70 -43 -148.5 -101t-93.5 -149q-13 -79 62 -81q28 0 55.5 8.5t53.5 18.5l28 -214q-47 -32 -103 -45t-112 -12q-123 1 -202.5 75
t-76.5 200q2 99 52.5 172.5t127 126.5t158.5 91zM1429 2002l-36 -226h-923l36 226h923z" />
    <glyph glyph-name="Ezhcaron" unicode="&#x1ee;" horiz-adv-x="1978" 
d="M949 2457l174 -201l242 200l320 7l1 -25l-452 -381h-231l-355 382v24zM30 102l393 -1q6 -166 71 -264.5t245 -103.5q165 -4 273 69.5t167 198t79 274.5q12 98 10.5 192.5t-30 171t-96 123.5t-186.5 49l-372 1l43 253l636 607l-940 2l58 330h1443l-43 -248l-665 -645
q165 -15 276 -93t173.5 -198.5t82 -263t1.5 -286.5q-32 -251 -153 -446t-318.5 -306t-458.5 -107q-323 4 -499.5 191t-189.5 500z" />
    <glyph glyph-name="ezhcaron" unicode="&#x1ef;" horiz-adv-x="1722" 
d="M849 2096l144 -188l210 187l333 5l1 -29l-416 -347h-258l-327 349l1 28zM331 1488h1265l-47 -271l-577 -545q155 -27 252.5 -118t138.5 -222.5t28 -278.5q-18 -201 -136.5 -334t-292 -199t-358.5 -63q-178 2 -315.5 72t-214 199.5t-72.5 312.5h378q-4 -118 59 -194.5
t186 -79.5q90 -2 173.5 32t142 100.5t72.5 159.5q26 170 -47.5 266t-246.5 100l-206 1l46 268l534 480l-817 2z" />
    <glyph glyph-name="jcaron" unicode="&#x1f0;" horiz-adv-x="853" 
d="M0 0zM406 1536h380l-275 -1603q-34 -249 -196.5 -381.5t-410.5 -132.5l-149 1l56 314l57 -1q104 1 173 50t88 154zM455 2067l173 -201l242 200l321 7l1 -25l-452 -381h-231l-355 382l-1 24z" />
    <glyph glyph-name="DZ" unicode="&#x1f1;" horiz-adv-x="4029" 
d="M281 0zM977 0h-696l355 2048h661q298 -4 483.5 -143t260 -369t37.5 -507q-40 -295 -184 -528t-377 -367.5t-540 -133.5zM1261 1706h-299l-236 -1364l250 -1q211 0 361 89.5t238.5 246t117.5 356.5q25 174 -1 326.5t-127.5 247.5t-303.5 99zM3752 332l-58 -332h-1464
l45 261l1237 1453l-989 2l58 332h1464l-45 -261l-1238 -1453z" />
    <glyph glyph-name="Dz" unicode="&#x1f2;" horiz-adv-x="3763" 
d="M281 0zM977 0h-696l355 2048h661q298 -4 483.5 -143t260 -369t37.5 -507q-40 -295 -184 -528t-377 -367.5t-540 -133.5zM1261 1706h-299l-236 -1364l250 -1q211 0 361 89.5t238.5 246t117.5 356.5q25 174 -1 326.5t-127.5 247.5t-303.5 99zM3489 315l-55 -315h-1200
l45 259l875 960l-695 2l56 315h1169l-44 -255l-876 -964z" />
    <glyph glyph-name="Gacute" unicode="&#x1f4;" horiz-adv-x="2024" 
d="M137 0zM1872 1070l-51 -300q-36 -235 -168 -416t-331.5 -283t-438.5 -99q-218 2 -368 92t-236 240.5t-114 335t-3 375.5q27 202 108 393t212.5 342.5t310 240t400.5 86.5q204 -2 350.5 -88t241.5 -233.5t142 -332.5l-388 -41q-33 144 -122.5 238t-245.5 99
q-144 4 -253 -58t-185.5 -167t-122 -231t-62.5 -249q-15 -108 -12.5 -226t37 -221.5t114 -169.5t218.5 -69q209 -5 352.5 122.5t196.5 320.5l-427 -2l53 301h792zM1066 2145l319 424h412l-412 -424h-319z" />
    <glyph glyph-name="gacute" unicode="&#x1f5;" horiz-adv-x="1667" 
d="M0 0zM1208 1531h374l-256 -1488q-30 -204 -140 -345t-277.5 -213t-369.5 -69q-158 2 -310 57t-258 177l211 250q75 -74 164 -117.5t197 -46.5q162 -4 274.5 82t142.5 247l34 159l-16 -1q-67 -100 -169.5 -148.5t-222.5 -46.5q-153 2 -254 69t-157.5 176t-74 239.5
t-3.5 259.5q16 140 68 280t140.5 255.5t212.5 183.5t284 64q108 -3 205.5 -53.5t136.5 -157.5h23zM458 772q-13 -97 -1 -196t68.5 -167t175.5 -71q129 -4 213 62t131 171t62 216q9 68 8.5 145.5t-21.5 146.5t-71 114t-140 48q-130 5 -219 -65.5t-140 -180.5t-66 -223z
M763 1693l319 424h412l-412 -424h-319z" />
    <glyph glyph-name="uni01F6" unicode="&#x1f6;" horiz-adv-x="3017" 
d="M763 2048l-150 -863h825l150 863h382l-233 -1368q-13 -94 1 -179t68.5 -140t165.5 -59q176 -5 270.5 107t119.5 272l140 822h383l-142 -822q-33 -211 -135.5 -373t-268.5 -252.5t-388 -87.5q-211 3 -354.5 95t-207.5 251.5t-36 366.5l29 181h-825l-149 -862h-383
l355 2048h383z" />
    <glyph glyph-name="uni01F7" unicode="&#x1f7;" horiz-adv-x="1978" 
d="M775 2005l-10 -47q157 74 337 73q256 -1 417.5 -119.5t227.5 -316t34 -437.5l-10 -72q-37 -254 -164 -464.5t-316 -374t-414.5 -277.5t-459.5 -176l-72 -366h-393l447 2576zM1085 1706q-106 2 -196.5 -40t-169.5 -109l-264 -1431q212 89 405 221t329 315t178 424l13 77
q14 96 14 191t-27.5 173.5t-94.5 127t-187 51.5z" />
    <glyph glyph-name="uni01F8" unicode="&#x1f8;" horiz-adv-x="1988" 
d="M25 0zM1971 2048l-355 -2048h-366l-575 1371l-20 1l-245 -1372h-385l355 2048h368l574 -1374l20 -1l246 1375h383zM1234 2569l201 -423l-294 -1l-309 422z" />
    <glyph glyph-name="uni01F9" unicode="&#x1f9;" horiz-adv-x="1644" 
d="M15 0zM540 845l-145 -845h-380l267 1536h356l-46 -197h9q81 105 194.5 162.5t248.5 54.5q165 -3 262 -89t133 -220t19 -282l-164 -965h-379l163 950q14 104 -26 193t-160 94q-107 4 -180 -56.5t-115 -152.5t-57 -183zM943 2117l201 -423l-294 -1l-309 422z" />
    <glyph glyph-name="Aringacute" unicode="&#x1fa;" horiz-adv-x="2078" 
d="M0 0zM348 0h-427l1088 2048h408l383 -2048h-404l-69 436h-758zM1135 1552l-411 -790l552 -2l-120 792h-21zM1207 2494l295 282l375 -1l-403 -281h-267zM995 2175q-1 115 83 190.5t196 73.5q104 -2 177 -72t74 -176q0 -114 -82 -186t-193 -71q-103 1 -178.5 67.5
t-76.5 173.5zM1143 2175q-7 -45 18 -78.5t72 -33.5q54 -1 94 37.5t48 90.5q7 45 -14 80.5t-71 35.5q-55 1 -97 -38.5t-50 -93.5z" />
    <glyph glyph-name="aringacute" unicode="&#x1fb;" horiz-adv-x="1558" 
d="M28 0zM855 0l28 159l-5 -1q-70 -99 -175 -145.5t-225 -44.5q-133 2 -236 59.5t-158.5 160t-46.5 237.5q8 132 69.5 221.5t157.5 145t209.5 84.5t225.5 39q42 4 109 7.5t124.5 23.5t71.5 73l5 23q13 91 -35 144.5t-139 56.5q-99 3 -177.5 -49t-116.5 -142l-350 68
q39 151 145 248.5t247.5 143.5t286.5 44q158 -2 281 -63.5t187.5 -178t46.5 -283.5l-174 -1031h-356zM918 511l49 207q-44 -38 -112 -47t-123 -16q-70 -9 -140 -30.5t-120.5 -67.5t-63.5 -127q-12 -82 37.5 -124.5t126.5 -44.5q114 -2 218 66t128 184zM875 2042l295 282
l375 -1l-403 -281h-267zM663 1723q-1 115 83 190.5t196 73.5q104 -2 177 -72t74 -176q0 -114 -82 -186t-193 -71q-103 1 -178.5 67.5t-76.5 173.5zM811 1723q-7 -45 18 -78.5t72 -33.5q54 -1 94 37.5t48 90.5q7 45 -14 80.5t-71 35.5q-55 1 -97 -38.5t-50 -93.5z" />
    <glyph glyph-name="AEacute" unicode="&#x1fc;" horiz-adv-x="2772" 
d="M0 0zM2472 318l-56 -318h-1188l59 438h-631l-287 -438h-455l1412 2048h1364l-55 -318h-806l-74 -543h677l-55 -315h-664l-75 -554h834zM859 762l471 -2l118 880zM1420 2156l319 424h412l-412 -424h-319z" />
    <glyph glyph-name="aeacute" unicode="&#x1fd;" horiz-adv-x="2490" 
d="M32 0zM196 1120q39 151 145 248t247 143.5t287 44.5q109 -1 224 -33.5t189 -120.5q102 76 216.5 115.5t241.5 38.5q211 -3 344 -105.5t187.5 -269.5t28.5 -363l-18 -123l-1012 -94q-4 -133 64.5 -221t207.5 -91q114 -4 202.5 52t134.5 159l331 -91q-36 -148 -145.5 -246
t-253 -146t-283.5 -46q-148 2 -281 64t-200 202h-9q-76 -139 -221 -205t-299 -64q-136 1 -249 55t-178 155.5t-57 246.5q8 132 69.5 221.5t158 145t210 84.5t225.5 39q42 4 109 7.5t124.5 23t71.5 73.5l4 22q14 92 -34 145.5t-140 55.5q-98 3 -176.5 -48.5t-115.5 -141.5z
M1726 1242q-116 4 -198 -51.5t-137.5 -144.5t-92.5 -185l662 60q26 130 -34.5 223.5t-199.5 97.5zM922 511l49 207q-44 -38 -112 -47t-123 -16q-71 -9 -140.5 -31t-120 -67.5t-62.5 -126.5q-13 -82 37 -124.5t126 -44.5q115 -3 218.5 65.5t127.5 184.5zM1208 1693l319 424
h412l-412 -424h-319z" />
    <glyph glyph-name="Oslashacute" unicode="&#x1fe;" horiz-adv-x="2068" 
d="M93 0zM267 -93l-174 139l187 208q-89 185 -116 371t1 390t109 394.5t212.5 341.5t311 239t402.5 86q121 -1 238 -35t213 -108l176 204l173 -139l-195 -218q83 -184 107.5 -368.5t-2.5 -385.5q-27 -202 -108 -391.5t-212 -340t-309 -238t-400 -84.5q-118 1 -232.5 33
t-210.5 101zM551 1015q-17 -107 -22 -215.5t13 -215.5l878 1051q-46 47 -111 65.5t-129 19.5q-147 3 -256.5 -58.5t-185.5 -165t-121.5 -229.5t-65.5 -252zM1524 1027q16 104 21.5 209t-6.5 210l-871 -1043q46 -42 109.5 -58t123.5 -17q147 -3 255.5 57.5t183.5 163
t120 227.5t64 251zM1080 2216l319 424h412l-412 -424h-319z" />
    <glyph glyph-name="oslashacute" unicode="&#x1ff;" horiz-adv-x="1648" 
d="M49 0zM221 -93l-172 139l138 149q-128 264 -91 564q27 214 130.5 397t275 293t401.5 108q85 -1 168 -20.5t158 -62.5l121 143l173 -140l-132 -141q66 -136 87.5 -275.5t3.5 -289.5q-27 -214 -131 -397.5t-275.5 -295t-401.5 -108.5q-86 1 -169 21t-157 64zM458 760
q-10 -62 -16 -124.5t-5 -125.5l585 699q-29 19 -64.5 26.5t-69.5 8.5q-137 3 -225 -70t-137 -185.5t-68 -228.5zM692 286q136 -3 224 70.5t137 186t68 227.5q11 62 16.5 125.5t3.5 126.5l-585 -700q29 -20 65 -27.5t71 -8.5zM672 1688l319 424h412l-412 -424h-319z" />
    <glyph glyph-name="Adblgrave" unicode="&#x200;" horiz-adv-x="2078" 
d="M0 0zM348 0h-427l1088 2048h408l383 -2048h-404l-69 436h-758zM1135 1552l-411 -790l552 -2l-120 792h-21zM1678 2181l-289 -2l-275 363l355 2zM1231 2181l-294 -2l-340 363l360 2z" />
    <glyph glyph-name="adblgrave" unicode="&#x201;" horiz-adv-x="1558" 
d="M28 0zM855 0l28 159l-5 -1q-70 -99 -175 -145.5t-225 -44.5q-133 2 -236 59.5t-158.5 160t-46.5 237.5q8 132 69.5 221.5t157.5 145t209.5 84.5t225.5 39q42 4 109 7.5t124.5 23.5t71.5 73l5 23q13 91 -35 144.5t-139 56.5q-99 3 -177.5 -49t-116.5 -142l-350 68
q39 151 145 248.5t247.5 143.5t286.5 44q158 -2 281 -63.5t187.5 -178t46.5 -283.5l-174 -1031h-356zM918 511l49 207q-44 -38 -112 -47t-123 -16q-70 -9 -140 -30.5t-120.5 -67.5t-63.5 -127q-12 -82 37.5 -124.5t126.5 -44.5q114 -2 218 66t128 184zM1346 1729l-289 -2
l-275 363l355 2zM899 1729l-294 -2l-340 363l360 2z" />
    <glyph glyph-name="Ainvertedbreve" unicode="&#x202;" horiz-adv-x="2078" 
d="M0 0zM348 0h-427l1088 2048h408l383 -2048h-404l-69 436h-758zM1135 1552l-411 -790l552 -2l-120 792h-21zM1768 2217l-270 1q2 79 -32.5 131t-120.5 54q-89 3 -147.5 -47.5t-71.5 -136.5l-272 -1q6 133 76.5 224.5t181 138t236.5 43.5q185 -4 302.5 -111.5t117.5 -295.5
z" />
    <glyph glyph-name="ainvertedbreve" unicode="&#x203;" horiz-adv-x="1558" 
d="M28 0zM855 0l28 159l-5 -1q-70 -99 -175 -145.5t-225 -44.5q-133 2 -236 59.5t-158.5 160t-46.5 237.5q8 132 69.5 221.5t157.5 145t209.5 84.5t225.5 39q42 4 109 7.5t124.5 23.5t71.5 73l5 23q13 91 -35 144.5t-139 56.5q-99 3 -177.5 -49t-116.5 -142l-350 68
q39 151 145 248.5t247.5 143.5t286.5 44q158 -2 281 -63.5t187.5 -178t46.5 -283.5l-174 -1031h-356zM918 511l49 207q-44 -38 -112 -47t-123 -16q-70 -9 -140 -30.5t-120.5 -67.5t-63.5 -127q-12 -82 37.5 -124.5t126.5 -44.5q114 -2 218 66t128 184zM1436 1765l-270 1
q2 79 -32.5 131t-120.5 54q-89 3 -147.5 -47.5t-71.5 -136.5l-272 -1q6 133 76.5 224.5t181 138t236.5 43.5q185 -4 302.5 -111.5t117.5 -295.5z" />
    <glyph glyph-name="Edblgrave" unicode="&#x204;" horiz-adv-x="1660" 
d="M25 0zM1376 332l-58 -332h-1293l355 2048h1288l-58 -332h-902l-91 -526h778l-58 -331h-777l-92 -527h908zM1497 2181l-289 -2l-275 363l355 2zM1050 2181l-294 -2l-340 363l360 2z" />
    <glyph glyph-name="edblgrave" unicode="&#x205;" horiz-adv-x="1633" 
d="M70 0zM715 -30q-224 3 -370.5 107.5t-210.5 279t-41 385.5q24 217 127.5 404t277.5 300.5t406 110.5q211 -3 346 -105.5t192 -269.5t34 -364l-24 -163h-1208l42 267l842 -1q24 131 -39.5 223.5t-202.5 96.5q-136 5 -226.5 -71t-140 -192t-63.5 -232q-14 -106 1 -210.5
t77.5 -174.5t192.5 -73q113 -3 200.5 53t133.5 159l333 -91q-38 -149 -145.5 -246.5t-249.5 -145.5t-284 -47zM1357 1729l-289 -2l-275 363l355 2zM910 1729l-294 -2l-340 363l360 2z" />
    <glyph glyph-name="Einvertedbreve" unicode="&#x206;" horiz-adv-x="1660" 
d="M25 0zM1376 332l-58 -332h-1293l355 2048h1288l-58 -332h-902l-91 -526h778l-58 -331h-777l-92 -527h908zM1587 2217l-270 1q2 79 -32.5 131t-120.5 54q-89 3 -147.5 -47.5t-71.5 -136.5l-272 -1q6 133 76.5 224.5t181 138t236.5 43.5q185 -4 302.5 -111.5t117.5 -295.5z
" />
    <glyph glyph-name="einvertedbreve" unicode="&#x207;" horiz-adv-x="1633" 
d="M70 0zM715 -30q-224 3 -370.5 107.5t-210.5 279t-41 385.5q24 217 127.5 404t277.5 300.5t406 110.5q211 -3 346 -105.5t192 -269.5t34 -364l-24 -163h-1208l42 267l842 -1q24 131 -39.5 223.5t-202.5 96.5q-136 5 -226.5 -71t-140 -192t-63.5 -232q-14 -106 1 -210.5
t77.5 -174.5t192.5 -73q113 -3 200.5 53t133.5 159l333 -91q-38 -149 -145.5 -246.5t-249.5 -145.5t-284 -47zM1447 1765l-270 1q2 79 -32.5 131t-120.5 54q-89 3 -147.5 -47.5t-71.5 -136.5l-272 -1q6 133 76.5 224.5t181 138t236.5 43.5q185 -4 302.5 -111.5t117.5 -295.5
z" />
    <glyph glyph-name="Idblgrave" unicode="&#x208;" horiz-adv-x="744" 
d="M0 0zM766 2048l-356 -2048h-385l355 2048h386zM1006 2181l-289 -2l-275 363l355 2zM559 2181l-294 -2l-340 363l360 2z" />
    <glyph glyph-name="idblgrave" unicode="&#x209;" horiz-adv-x="739" 
d="M0 0zM671 1536l-266 -1536h-380l266 1536h380zM931 1709l-289 -2l-275 363l355 2zM484 1709l-294 -2l-340 363l360 2z" />
    <glyph glyph-name="Iinvertedbreve" unicode="&#x20a;" horiz-adv-x="744" 
d="M25 0zM766 2048l-356 -2048h-385l355 2048h386zM1096 2217l-270 1q2 79 -32.5 131t-120.5 54q-89 3 -147.5 -47.5t-71.5 -136.5l-272 -1q6 133 76.5 224.5t181 138t236.5 43.5q185 -4 302.5 -111.5t117.5 -295.5z" />
    <glyph glyph-name="iinvertedbreve" unicode="&#x20b;" horiz-adv-x="739" 
d="M25 0zM671 1536l-266 -1536h-380l266 1536h380zM1022 1745l-270 1q2 79 -32.5 131t-120.5 54q-89 3 -147.5 -47.5t-71.5 -136.5l-272 -1q6 133 76.5 224.5t181 138t236.5 43.5q185 -4 302.5 -111.5t117.5 -295.5z" />
    <glyph glyph-name="Odblgrave" unicode="&#x20c;" horiz-adv-x="2068" 
d="M137 0zM1911 1027q-27 -202 -108 -392t-213 -340.5t-310.5 -238t-399.5 -84.5q-217 2 -366.5 93t-235.5 241t-113.5 334.5t-2.5 374.5q27 203 109 394t214.5 342.5t312 239.5t401.5 85q218 -3 366 -94.5t233 -243.5t111.5 -337t1.5 -374zM1525 1028q15 106 14 224.5
t-34 223.5t-110.5 172.5t-216.5 70.5q-146 4 -256 -57.5t-187 -165.5t-123 -230t-64 -252q-15 -107 -13 -225t36 -221.5t112.5 -169.5t217.5 -69q145 -4 254.5 56.5t185.5 163.5t121 228t63 251zM1676 2181l-289 -2l-275 363l355 2zM1229 2181l-294 -2l-340 363l360 2z" />
    <glyph glyph-name="odblgrave" unicode="&#x20d;" horiz-adv-x="1648" 
d="M74 0zM688 -29q-221 3 -359.5 116t-196.5 292t-36 380q23 214 125 396.5t272.5 293t398.5 107.5q221 -3 359.5 -115.5t196.5 -290.5t36 -379q-23 -213 -125 -396.5t-272.5 -295t-398.5 -108.5zM704 288q134 -4 221 69.5t134.5 186.5t61.5 227q9 74 7 154.5t-26 151.5
t-78 116.5t-148 48.5q-134 4 -221 -69.5t-134 -186.5t-61 -227q-10 -74 -7.5 -154.5t26 -151.5t77.5 -116.5t148 -48.5zM1347 1729l-289 -2l-275 363l355 2zM900 1729l-294 -2l-340 363l360 2z" />
    <glyph glyph-name="Oinvertedbreve" unicode="&#x20e;" horiz-adv-x="2068" 
d="M137 0zM1911 1027q-27 -202 -108 -392t-213 -340.5t-310.5 -238t-399.5 -84.5q-217 2 -366.5 93t-235.5 241t-113.5 334.5t-2.5 374.5q27 203 109 394t214.5 342.5t312 239.5t401.5 85q218 -3 366 -94.5t233 -243.5t111.5 -337t1.5 -374zM1525 1028q15 106 14 224.5
t-34 223.5t-110.5 172.5t-216.5 70.5q-146 4 -256 -57.5t-187 -165.5t-123 -230t-64 -252q-15 -107 -13 -225t36 -221.5t112.5 -169.5t217.5 -69q145 -4 254.5 56.5t185.5 163.5t121 228t63 251zM1766 2217l-270 1q2 79 -32.5 131t-120.5 54q-89 3 -147.5 -47.5
t-71.5 -136.5l-272 -1q6 133 76.5 224.5t181 138t236.5 43.5q185 -4 302.5 -111.5t117.5 -295.5z" />
    <glyph glyph-name="oinvertedbreve" unicode="&#x20f;" horiz-adv-x="1648" 
d="M74 0zM688 -29q-221 3 -359.5 116t-196.5 292t-36 380q23 214 125 396.5t272.5 293t398.5 107.5q221 -3 359.5 -115.5t196.5 -290.5t36 -379q-23 -213 -125 -396.5t-272.5 -295t-398.5 -108.5zM704 288q134 -4 221 69.5t134.5 186.5t61.5 227q9 74 7 154.5t-26 151.5
t-78 116.5t-148 48.5q-134 4 -221 -69.5t-134 -186.5t-61 -227q-10 -74 -7.5 -154.5t26 -151.5t77.5 -116.5t148 -48.5zM1437 1765l-270 1q2 79 -32.5 131t-120.5 54q-89 3 -147.5 -47.5t-71.5 -136.5l-272 -1q6 133 76.5 224.5t181 138t236.5 43.5q185 -4 302.5 -111.5
t117.5 -295.5z" />
    <glyph glyph-name="Rdblgrave" unicode="&#x210;" horiz-adv-x="1787" 
d="M25 0zM1119 0l-236 766h-339l-134 -766h-385l355 2048l710 -1q193 -3 338.5 -75.5t219.5 -211t54 -340.5q-21 -204 -131.5 -353t-299.5 -227l263 -840h-415zM708 1716l-107 -619l318 -1q155 0 266 78.5t135 238.5q19 135 -43 216.5t-201 85.5zM1538 2181l-289 -2
l-275 363l355 2zM1091 2181l-294 -2l-340 363l360 2z" />
    <glyph glyph-name="rdblgrave" unicode="&#x211;" horiz-adv-x="1132" 
d="M15 0zM1188 1507l-156 -334q-54 31 -127 32q-94 2 -169.5 -45.5t-125 -124.5t-65.5 -164l-150 -871h-380l267 1536h380l-50 -220h8q49 112 139.5 178.5t216.5 64.5q108 -2 212 -52zM1157 1729l-289 -2l-275 363l355 2zM710 1729l-294 -2l-340 363l360 2z" />
    <glyph glyph-name="Rinvertedbreve" unicode="&#x212;" horiz-adv-x="1787" 
d="M25 0zM1119 0l-236 766h-339l-134 -766h-385l355 2048l710 -1q193 -3 338.5 -75.5t219.5 -211t54 -340.5q-21 -204 -131.5 -353t-299.5 -227l263 -840h-415zM708 1716l-107 -619l318 -1q155 0 266 78.5t135 238.5q19 135 -43 216.5t-201 85.5zM1628 2217l-270 1
q2 79 -32.5 131t-120.5 54q-89 3 -147.5 -47.5t-71.5 -136.5l-272 -1q6 133 76.5 224.5t181 138t236.5 43.5q185 -4 302.5 -111.5t117.5 -295.5z" />
    <glyph glyph-name="rinvertedbreve" unicode="&#x213;" horiz-adv-x="1132" 
d="M15 0zM1188 1507l-156 -334q-54 31 -127 32q-94 2 -169.5 -45.5t-125 -124.5t-65.5 -164l-150 -871h-380l267 1536h380l-50 -220h8q49 112 139.5 178.5t216.5 64.5q108 -2 212 -52zM1247 1765l-270 1q2 79 -32.5 131t-120.5 54q-89 3 -147.5 -47.5t-71.5 -136.5l-272 -1
q6 133 76.5 224.5t181 138t236.5 43.5q185 -4 302.5 -111.5t117.5 -295.5z" />
    <glyph glyph-name="Udblgrave" unicode="&#x214;" horiz-adv-x="1990" 
d="M120 0zM1590 2048h385l-233 -1352q-35 -230 -162 -394.5t-318 -251.5t-420 -84q-214 3 -381.5 92t-254 251.5t-57.5 385.5l232 1353h386l-231 -1343q-23 -168 70.5 -271t260.5 -107q119 -3 223 42t175.5 131t92.5 206zM1634 2181l-289 -2l-275 363l355 2zM1187 2181
l-294 -2l-340 363l360 2z" />
    <glyph glyph-name="udblgrave" unicode="&#x215;" horiz-adv-x="1644" 
d="M100 0zM1035 684l146 852h379l-267 -1536h-356l43 184l-9 -1q-83 -99 -196 -153.5t-244 -51.5q-163 4 -260 91.5t-134 222t-20 279.5l164 965h379l-162 -955q-14 -104 27 -190.5t159 -91.5q107 -4 180 54.5t114.5 149t56.5 181.5zM1368 1729l-289 -2l-275 363l355 2z
M921 1729l-294 -2l-340 363l360 2z" />
    <glyph glyph-name="Uinvertedbreve" unicode="&#x216;" horiz-adv-x="1990" 
d="M120 0zM1590 2048h385l-233 -1352q-35 -230 -162 -394.5t-318 -251.5t-420 -84q-214 3 -381.5 92t-254 251.5t-57.5 385.5l232 1353h386l-231 -1343q-23 -168 70.5 -271t260.5 -107q119 -3 223 42t175.5 131t92.5 206zM1724 2217l-270 1q2 79 -32.5 131t-120.5 54
q-89 3 -147.5 -47.5t-71.5 -136.5l-272 -1q6 133 76.5 224.5t181 138t236.5 43.5q185 -4 302.5 -111.5t117.5 -295.5z" />
    <glyph glyph-name="uinvertedbreve" unicode="&#x217;" horiz-adv-x="1644" 
d="M100 0zM1035 684l146 852h379l-267 -1536h-356l43 184l-9 -1q-83 -99 -196 -153.5t-244 -51.5q-163 4 -260 91.5t-134 222t-20 279.5l164 965h379l-162 -955q-14 -104 27 -190.5t159 -91.5q107 -4 180 54.5t114.5 149t56.5 181.5zM1458 1765l-270 1q2 79 -32.5 131
t-120.5 54q-89 3 -147.5 -47.5t-71.5 -136.5l-272 -1q6 133 76.5 224.5t181 138t236.5 43.5q185 -4 302.5 -111.5t117.5 -295.5z" />
    <glyph glyph-name="Scommaaccent" unicode="&#x218;" horiz-adv-x="1775" 
d="M54 0zM1337 1465q-12 270 -289 277q-81 2 -167 -23t-150.5 -80.5t-81.5 -145.5q-15 -83 37.5 -136t130 -85.5t137.5 -54.5l96 -35q139 -51 257.5 -129.5t185.5 -194t53 -280.5q-14 -156 -87.5 -271t-188 -191t-252.5 -112.5t-282 -34.5q-202 2 -356 79t-240 222t-84 351
h376q0 -153 85.5 -234.5t237.5 -84.5q89 -2 179 26.5t156 89.5t84 158q18 95 -36 155t-137.5 97t-154.5 61l-99 32q-130 43 -242.5 120t-177.5 189.5t-52 262.5q12 148 86.5 258.5t189.5 183t250 108t269 33.5q187 -3 329.5 -76.5t222.5 -209.5t79 -326zM873 -132l-32 -193
q-25 -156 -86 -300t-172 -260l-212 90q54 112 105 218t73 230l37 215h287z" />
    <glyph glyph-name="scommaaccent" unicode="&#x219;" horiz-adv-x="1474" 
d="M12 0zM180 1100q7 117 67.5 203.5t154.5 143t202.5 84t211.5 25.5q208 -3 354 -119t185 -321l-338 -59q-19 77 -64 128.5t-129 58.5q-50 4 -106.5 -10t-99.5 -48.5t-54 -90.5q-10 -51 23 -81t81.5 -46.5t84.5 -27.5l121 -38q104 -35 189.5 -100t134 -157.5t41.5 -208.5
q-10 -160 -107.5 -263.5t-239.5 -153.5t-284 -49q-226 3 -387 123.5t-209 343.5l352 69q27 -90 82.5 -147.5t155.5 -63.5q52 -3 110.5 10.5t103 48t55.5 93.5q11 55 -30 90.5t-98 56.5t-95 34l-135 43q-142 49 -242 159t-91 270zM697 -120l-32 -193q-25 -156 -86 -300
t-172 -260l-212 90q54 112 105 218t73 230l37 215h287z" />
    <glyph glyph-name="uni021A" unicode="&#x21a;" horiz-adv-x="1811" 
d="M245 0zM1878 2048l-58 -332h-595l-298 -1716h-383l297 1716h-596l58 332h1575zM874 -109l-32 -193q-25 -156 -86 -300t-172 -260l-212 90q54 112 105 218t73 230l37 215h287z" />
    <glyph glyph-name="uni021B" unicode="&#x21b;" horiz-adv-x="1028" 
d="M81 0zM1010 1536l-51 -288h-259l-134 -780q-9 -68 9.5 -113t94.5 -46q26 0 50.5 3t49.5 8l33 -304q-54 -28 -125.5 -32t-129.5 -3q-118 2 -205.5 61t-131 156t-32.5 213l141 837h-186l51 288h185l57 328h380l-58 -328h261zM583 -120l-32 -193q-25 -156 -86 -300
t-172 -260l-212 90q54 112 105 218t73 230l37 215h287z" />
    <glyph glyph-name="uni021C" unicode="&#x21c;" horiz-adv-x="1804" 
d="M235 420l32 306q109 34 237 73t255 90.5t237 123.5t184.5 172.5t94.5 236.5q21 138 -53 208t-208 73q-117 3 -221.5 -56.5t-123.5 -184.5l-393 -2q6 144 76 251.5t180.5 178.5t241.5 105.5t259 33.5q130 -1 251 -34t214 -101t141.5 -174t34.5 -253q-16 -168 -99 -305
t-212 -241q100 -85 140.5 -199.5t27.5 -244.5q-21 -215 -120.5 -379t-253.5 -284t-340 -202.5t-382 -134t-377 -79.5l35 326q158 33 328.5 87t323 140.5t258.5 216.5t136 315q9 58 11 130t-43 120q-206 -109 -426 -184.5t-446 -128.5z" />
    <glyph glyph-name="uni021D" unicode="&#x21d;" horiz-adv-x="1548" 
d="M212 226l28 286q99 32 218 73t230.5 100.5t191 145.5t98.5 208q28 178 -149 183q-82 2 -156.5 -35.5t-89.5 -125.5l-381 -1q4 119 62 206t149.5 143t199.5 82.5t213 25.5q100 -2 199.5 -25t179.5 -73t124.5 -131.5t35.5 -200.5q-11 -137 -77.5 -247.5t-170.5 -197.5
q82 -74 113 -171.5t22 -206.5q-15 -172 -95.5 -302t-206 -225.5t-276 -161.5t-307.5 -108.5t-299 -68.5l31 295q116 39 242 85.5t239.5 112t194 162t105.5 235.5q9 46 9 91.5t-11 90.5q-155 -89 -324.5 -146t-341.5 -98z" />
    <glyph glyph-name="uni021E" unicode="&#x21e;" horiz-adv-x="1989" 
d="M25 0zM766 2048l-149 -858h822l149 858h384l-355 -2048h-385l150 859h-822l-150 -859h-385l355 2048h386zM1098 2565l173 -201l242 200l321 7l1 -25l-452 -381h-231l-355 382l-1 24z" />
    <glyph glyph-name="uni021F" unicode="&#x21f;" horiz-adv-x="1615" 
d="M15 0zM541 852l-146 -852h-380l355 2048h369l-131 -696l9 1q81 98 191 151.5t238 51.5q163 -3 252 -92.5t118.5 -224t12.5 -274.5l-164 -965h-379l165 969q9 64 0 124.5t-45.5 100t-113.5 43.5q-107 4 -179.5 -54.5t-114.5 -149t-57 -181.5zM970 2652l173 -201l242 200
l321 7l1 -25l-452 -381h-231l-355 382l-1 24z" />
    <glyph glyph-name="uni0220" unicode="&#x220;" horiz-adv-x="1804" 
d="M1347 -572h-383l340 1976q19 142 -39.5 225t-207.5 87q-99 3 -191 -27t-180 -74l-286 -1615h-380l348 2004l363 4l-14 -78q188 104 394 101q181 -2 319 -82t208 -221t48 -326z" />
    <glyph glyph-name="uni0221" unicode="&#x221;" horiz-adv-x="2231" 
d="M1897 -201q-6 -137 -80 -224.5t-187.5 -128.5t-237.5 -38q-85 1 -171 24t-152.5 75.5t-92.5 142.5l-263 -210l-140 254l393 301l44 180q-64 -102 -163.5 -153.5t-219.5 -50.5q-158 3 -259 76.5t-155 191.5t-69 255t0 266q17 141 69 283.5t140 259.5t212.5 186.5
t286.5 65.5q109 -3 205.5 -53.5t136.5 -157.5h18l130 704h380l-339 -1894q59 10 122 10q167 -2 283 -95t109 -270zM506 760q-10 -71 -9 -152t23.5 -152.5t75 -118t146.5 -50.5q133 -4 219 71.5t132 189.5t62 226q9 70 10 149.5t-19 151t-70.5 117.5t-142.5 50
q-134 4 -223 -69t-139 -185.5t-65 -227.5zM1309 -182q-9 -57 10.5 -105.5t86.5 -49.5q58 -2 104 34t56 94q9 55 -25.5 79.5t-83.5 25.5q-34 1 -68 -6t-67 -16z" />
    <glyph glyph-name="uni0222" unicode="&#x222;" horiz-adv-x="1804" 
d="M921 1300l39 -1q86 0 170.5 18t146.5 69t77 149q13 82 -21 121.5t-109 60.5l33 317q149 -10 265 -67t179 -164.5t51 -267.5q-12 -150 -92.5 -253t-212.5 -167q173 -204 146 -475q-21 -218 -140 -367.5t-300.5 -225.5t-388.5 -75h-29q-194 3 -348.5 79.5t-237 220
t-62.5 350.5q33 331 317 503q-177 155 -160 394q13 180 104 291.5t232.5 165t305.5 58.5l-35 -316q-82 -22 -138 -66.5t-70 -132.5q-14 -92 25.5 -138.5t109 -63t143.5 -17.5zM930 969h-30q-162 2 -276.5 -92t-137.5 -257q-20 -144 49 -230t215 -92l29 -1q163 -1 277.5 88.5
t138.5 255.5q20 145 -48.5 233.5t-216.5 94.5z" />
    <glyph glyph-name="uni0223" unicode="&#x223;" horiz-adv-x="1804" 
d="M951 1271q157 -1 275.5 68t143.5 236q13 91 -13 159.5t-112 105.5l32 302q241 -17 366.5 -169.5t104.5 -392.5q-29 -327 -313 -476q90 -101 125 -219.5t22 -253.5q-21 -216 -138 -363.5t-295.5 -222.5t-384.5 -74l-29 1q-194 3 -346 78.5t-233 217.5t-61 347
q32 337 317 500q-93 92 -128 206t-24 244q24 271 202.5 420t441.5 157l-33 -301q-201 -78 -231 -283q-21 -149 56 -215.5t217 -70.5zM928 959h-29q-162 2 -281 -89t-143 -256q-21 -147 52.5 -234t220.5 -93l29 -1q163 -1 282 89t143 257q21 148 -52.5 234.5t-221.5 92.5z
" />
    <glyph glyph-name="uni0224" unicode="&#x224;" horiz-adv-x="1798" 
d="M1769 1787l-1237 -1453l480 -3q221 -5 347 -142.5t98 -361.5l-27 -169h-322l16 100q8 55 5 109t-32 91t-97 42h-1001l45 261l1237 1453l-989 2l58 332h1464z" />
    <glyph glyph-name="zhook" unicode="&#x225;" horiz-adv-x="1531" 
d="M1409 1281l-877 -964l246 -3q222 -5 346.5 -142.5t97.5 -360.5l-27 -175h-318l16 99q9 57 7 116t-31 101.5t-101 47.5h-765l45 259l877 960l-696 2l55 315h1169z" />
    <glyph glyph-name="uni0226" unicode="&#x226;" horiz-adv-x="2078" 
d="M0 0zM348 0h-427l1088 2048h408l383 -2048h-404l-69 436h-758zM1135 1552l-411 -790l552 -2l-120 792h-21zM1101 2369q-2 86 54 140t139 54q80 1 137.5 -48.5t59.5 -131.5q3 -86 -54 -139t-140 -53q-79 -1 -136 48t-60 130z" />
    <glyph glyph-name="uni0227" unicode="&#x227;" horiz-adv-x="1558" 
d="M28 0zM855 0l28 159l-5 -1q-70 -99 -175 -145.5t-225 -44.5q-133 2 -236 59.5t-158.5 160t-46.5 237.5q8 132 69.5 221.5t157.5 145t209.5 84.5t225.5 39q42 4 109 7.5t124.5 23.5t71.5 73l5 23q13 91 -35 144.5t-139 56.5q-99 3 -177.5 -49t-116.5 -142l-350 68
q39 151 145 248.5t247.5 143.5t286.5 44q158 -2 281 -63.5t187.5 -178t46.5 -283.5l-174 -1031h-356zM918 511l49 207q-44 -38 -112 -47t-123 -16q-70 -9 -140 -30.5t-120.5 -67.5t-63.5 -127q-12 -82 37.5 -124.5t126.5 -44.5q114 -2 218 66t128 184zM768 1917
q-2 86 54 140t139 54q80 1 137.5 -48.5t59.5 -131.5q3 -86 -54 -139t-140 -53q-79 -1 -136 48t-60 130z" />
    <glyph glyph-name="uni0228" unicode="&#x228;" horiz-adv-x="1660" 
d="M25 0zM1376 332l-58 -332h-1293l355 2048h1288l-58 -332h-902l-91 -526h778l-58 -331h-777l-92 -527h908zM592 27l286 1l-30 -90q83 -16 125 -78t42 -144q-2 -101 -49.5 -165.5t-124 -101t-164 -52t-168.5 -17.5l9 227q61 2 114 27.5t67 92.5q10 49 -18 68.5t-71 24.5
t-77 8z" />
    <glyph glyph-name="uni0229" unicode="&#x229;" horiz-adv-x="1633" 
d="M70 0zM715 -30q-224 3 -370.5 107.5t-210.5 279t-41 385.5q24 217 127.5 404t277.5 300.5t406 110.5q211 -3 346 -105.5t192 -269.5t34 -364l-24 -163h-1208l42 267l842 -1q24 131 -39.5 223.5t-202.5 96.5q-136 5 -226.5 -71t-140 -192t-63.5 -232q-14 -106 1 -210.5
t77.5 -174.5t192.5 -73q113 -3 200.5 53t133.5 159l333 -91q-38 -149 -145.5 -246.5t-249.5 -145.5t-284 -47zM527 11l286 1l-30 -90q83 -16 125 -78t42 -144q-2 -101 -49.5 -165.5t-124 -101t-164 -52t-168.5 -17.5l9 227q61 2 114 27.5t67 92.5q10 49 -18 68.5t-71 24.5
t-77 8z" />
    <glyph glyph-name="uni022A" unicode="&#x22a;" horiz-adv-x="2068" 
d="M137 0zM1911 1027q-27 -202 -108 -392t-213 -340.5t-310.5 -238t-399.5 -84.5q-217 2 -366.5 93t-235.5 241t-113.5 334.5t-2.5 374.5q27 203 109 394t214.5 342.5t312 239.5t401.5 85q218 -3 366 -94.5t233 -243.5t111.5 -337t1.5 -374zM1525 1028q15 106 14 224.5
t-34 223.5t-110.5 172.5t-216.5 70.5q-146 4 -256 -57.5t-187 -165.5t-123 -230t-64 -252q-15 -107 -13 -225t36 -221.5t112.5 -169.5t217.5 -69q145 -4 254.5 56.5t185.5 163.5t121 228t63 251zM1872 2846l-40 -228h-923l40 228h923zM852 2331q-3 75 49 120.5t124 46.5
q70 1 125 -41t58 -115q4 -76 -49 -121t-125 -46q-70 -1 -124.5 40.5t-57.5 115.5zM1435 2331q-3 75 49.5 120t124.5 46q69 1 124 -40.5t58 -114.5q4 -76 -48.5 -121.5t-125.5 -46.5q-70 -1 -124.5 41t-57.5 116z" />
    <glyph glyph-name="uni022B" unicode="&#x22b;" horiz-adv-x="1648" 
d="M74 0zM688 -29q-221 3 -359.5 116t-196.5 292t-36 380q23 214 125 396.5t272.5 293t398.5 107.5q221 -3 359.5 -115.5t196.5 -290.5t36 -379q-23 -213 -125 -396.5t-272.5 -295t-398.5 -108.5zM704 288q134 -4 221 69.5t134.5 186.5t61.5 227q9 74 7 154.5t-26 151.5
t-78 116.5t-148 48.5q-134 4 -221 -69.5t-134 -186.5t-61 -227q-10 -74 -7.5 -154.5t26 -151.5t77.5 -116.5t148 -48.5zM1552 2432l-40 -228h-923l40 228h923zM487 1879q-3 78 51 128.5t129 51.5q73 1 128 -46t58 -122q3 -77 -51 -128t-129 -51q-73 -1 -128 45.5t-58 121.5z
M1132 1878q-3 78 50.5 128.5t129.5 51.5q73 1 127.5 -46t57.5 -122q4 -77 -50 -128t-130 -51q-72 -1 -127 45.5t-58 121.5z" />
    <glyph glyph-name="uni022C" unicode="&#x22c;" horiz-adv-x="2068" 
d="M137 0zM1911 1027q-27 -202 -108 -392t-213 -340.5t-310.5 -238t-399.5 -84.5q-217 2 -366.5 93t-235.5 241t-113.5 334.5t-2.5 374.5q27 203 109 394t214.5 342.5t312 239.5t401.5 85q218 -3 366 -94.5t233 -243.5t111.5 -337t1.5 -374zM1525 1028q15 106 14 224.5
t-34 223.5t-110.5 172.5t-216.5 70.5q-146 4 -256 -57.5t-187 -165.5t-123 -230t-64 -252q-15 -107 -13 -225t36 -221.5t112.5 -169.5t217.5 -69q145 -4 254.5 56.5t185.5 163.5t121 228t63 251zM1873 2856l-40 -228h-923l40 228h923zM1567 2495l158 -47q-6 -97 -64 -176
t-166 -78q-57 0 -106 26t-97 51t-103 23q-51 -1 -78.5 -39.5t-37.5 -82.5l-156 46q6 96 64 176t165 79q56 -1 105 -26.5t98 -50.5t104 -23q50 1 77 39.5t37 82.5z" />
    <glyph glyph-name="uni022D" unicode="&#x22d;" horiz-adv-x="1648" 
d="M74 0zM688 -29q-221 3 -359.5 116t-196.5 292t-36 380q23 214 125 396.5t272.5 293t398.5 107.5q221 -3 359.5 -115.5t196.5 -290.5t36 -379q-23 -213 -125 -396.5t-272.5 -295t-398.5 -108.5zM704 288q134 -4 221 69.5t134.5 186.5t61.5 227q9 74 7 154.5t-26 151.5
t-78 116.5t-148 48.5q-134 4 -221 -69.5t-134 -186.5t-61 -227q-10 -74 -7.5 -154.5t26 -151.5t77.5 -116.5t148 -48.5zM1564 2501l-40 -228h-923l40 228h923zM1302 2114l216 -14q-3 -92 -41.5 -178.5t-110 -140.5t-175.5 -51q-67 1 -123 32.5t-111.5 62.5t-120.5 31
q-62 0 -95 -41t-43 -96l-225 13q5 91 44.5 177.5t111.5 142t174 52.5q66 -2 122.5 -33.5t112.5 -62t121 -30.5q61 0 96 40.5t47 95.5z" />
    <glyph glyph-name="uni022E" unicode="&#x22e;" horiz-adv-x="2068" 
d="M137 0zM1911 1027q-27 -202 -108 -392t-213 -340.5t-310.5 -238t-399.5 -84.5q-217 2 -366.5 93t-235.5 241t-113.5 334.5t-2.5 374.5q27 203 109 394t214.5 342.5t312 239.5t401.5 85q218 -3 366 -94.5t233 -243.5t111.5 -337t1.5 -374zM1525 1028q15 106 14 224.5
t-34 223.5t-110.5 172.5t-216.5 70.5q-146 4 -256 -57.5t-187 -165.5t-123 -230t-64 -252q-15 -107 -13 -225t36 -221.5t112.5 -169.5t217.5 -69q145 -4 254.5 56.5t185.5 163.5t121 228t63 251zM1099 2369q-2 86 54 140t139 54q80 1 137.5 -48.5t59.5 -131.5
q3 -86 -54 -139t-140 -53q-79 -1 -136 48t-60 130z" />
    <glyph glyph-name="uni022F" unicode="&#x22f;" horiz-adv-x="1648" 
d="M74 0zM688 -29q-221 3 -359.5 116t-196.5 292t-36 380q23 214 125 396.5t272.5 293t398.5 107.5q221 -3 359.5 -115.5t196.5 -290.5t36 -379q-23 -213 -125 -396.5t-272.5 -295t-398.5 -108.5zM704 288q134 -4 221 69.5t134.5 186.5t61.5 227q9 74 7 154.5t-26 151.5
t-78 116.5t-148 48.5q-134 4 -221 -69.5t-134 -186.5t-61 -227q-10 -74 -7.5 -154.5t26 -151.5t77.5 -116.5t148 -48.5zM769 1917q-2 86 54 140t139 54q80 1 137.5 -48.5t59.5 -131.5q3 -86 -54 -139t-140 -53q-79 -1 -136 48t-60 130z" />
    <glyph glyph-name="uni0230" unicode="&#x230;" horiz-adv-x="2068" 
d="M137 0zM1911 1027q-27 -202 -108 -392t-213 -340.5t-310.5 -238t-399.5 -84.5q-217 2 -366.5 93t-235.5 241t-113.5 334.5t-2.5 374.5q27 203 109 394t214.5 342.5t312 239.5t401.5 85q218 -3 366 -94.5t233 -243.5t111.5 -337t1.5 -374zM1525 1028q15 106 14 224.5
t-34 223.5t-110.5 172.5t-216.5 70.5q-146 4 -256 -57.5t-187 -165.5t-123 -230t-64 -252q-15 -107 -13 -225t36 -221.5t112.5 -169.5t217.5 -69q145 -4 254.5 56.5t185.5 163.5t121 228t63 251zM1872 2843l-40 -227h-923l40 227h923zM1145 2337q-3 76 50 121t125 46
q69 1 124 -41t58 -114q4 -76 -49 -121.5t-125 -46.5q-70 -1 -125 40.5t-58 115.5z" />
    <glyph glyph-name="uni0231" unicode="&#x231;" horiz-adv-x="1648" 
d="M74 0zM688 -29q-221 3 -359.5 116t-196.5 292t-36 380q23 214 125 396.5t272.5 293t398.5 107.5q221 -3 359.5 -115.5t196.5 -290.5t36 -379q-23 -213 -125 -396.5t-272.5 -295t-398.5 -108.5zM704 288q134 -4 221 69.5t134.5 186.5t61.5 227q9 74 7 154.5t-26 151.5
t-78 116.5t-148 48.5q-134 4 -221 -69.5t-134 -186.5t-61 -227q-10 -74 -7.5 -154.5t26 -151.5t77.5 -116.5t148 -48.5zM1561 2485l-40 -228h-923l40 228h923zM803 1912q-2 85 54 139t140 55q80 0 136.5 -49.5t59.5 -131.5q3 -85 -53.5 -138.5t-139.5 -54.5
q-80 -1 -137 48.5t-60 131.5z" />
    <glyph glyph-name="uni0232" unicode="&#x232;" horiz-adv-x="2060" 
d="M276 0zM679 2050l351 -899h21l662 897h446l-976 -1267l-135 -781h-386l143 820l-529 1227zM1752 2454l-36 -226h-923l36 226h923z" />
    <glyph glyph-name="uni0233" unicode="&#x233;" horiz-adv-x="1631" 
d="M0 0zM418 -66l51 99l-283 1502l386 1l147 -1014h15l508 1014h408l-934 -1765q-82 -164 -220 -269t-329 -103q-56 0 -110.5 11.5t-107.5 30.5l117 304q136 -41 213.5 15t138.5 174zM1432 2002l-36 -226h-923l36 226h923z" />
    <glyph glyph-name="lcurl" unicode="&#x234;" horiz-adv-x="1130" 
d="M749 2048l-334 -1862q38 11 77 17.5t79 6.5q104 -1 184.5 -50.5t124.5 -133t39 -186.5q-6 -123 -72 -218.5t-169.5 -148.5t-224.5 -51q-128 3 -246.5 72t-163.5 194l-263 -209l-162 242l242 193q36 27 73 50t76 45l360 2039h380zM375 -143q-9 -56 11 -106.5t87 -49.5
q52 0 90.5 40t46.5 89q7 45 -18.5 73.5t-69.5 31.5q-34 2 -67.5 -5t-66.5 -16z" />
    <glyph glyph-name="ncurl" unicode="&#x235;" horiz-adv-x="2072" 
d="M540 845l-145 -845h-380l267 1536h356l-46 -197h9q82 105 195.5 162.5t247.5 54.5q166 -3 263 -89t132.5 -220t18.5 -282l-130 -705q38 11 77 17.5t79 6.5q104 -1 184.5 -51t124.5 -134t38 -187q-6 -123 -72 -217.5t-170 -147t-223 -50.5q-129 3 -246.5 71.5
t-162.5 194.5l-264 -209l-162 242l242 192q36 27 73.5 50.5t76.5 45.5l155 866q13 104 -26.5 193t-158.5 94q-108 4 -181 -56t-115 -152.5t-57 -183.5zM1288 -69q-9 -56 10.5 -106.5t87.5 -50.5q52 1 90 41t46 89q7 45 -18 73.5t-69 31.5q-34 2 -67.5 -5t-66.5 -16z" />
    <glyph glyph-name="tcurl" unicode="&#x236;" horiz-adv-x="1317" 
d="M1073 1536l-51 -288h-260l-101 -518q38 11 77 17.5t79 5.5q104 -1 185 -50.5t126 -133t40 -187.5q-6 -123 -72.5 -218t-171 -148t-224.5 -51q-130 3 -247.5 72t-162.5 196l-263 -210l-164 242l243 193q35 27 73 50.5t77 44.5l127 695h-201l50 288h201l57 328h379
l-58 -328h262zM621 400q-10 -55 10 -106t88 -50q52 1 91.5 40.5t47.5 89.5q8 45 -19 73.5t-71 31.5q-34 2 -68 -5.5t-66 -16.5z" />
    <glyph glyph-name="dotlessj" unicode="&#x237;" horiz-adv-x="853" 
d="M406 1536h380l-275 -1603q-34 -249 -196.5 -381.5t-410.5 -132.5l-149 1l56 314l57 -1q104 1 173 50t88 154z" />
    <glyph glyph-name="uni0238" unicode="&#x238;" horiz-adv-x="2572" 
d="M124 721l4 28q18 136 66.5 273t130.5 250t200.5 180t277.5 64q101 -2 186.5 -43.5t147.5 -121.5l144 761h381l-146 -760q152 168 371 165q155 -3 252.5 -72.5t147 -181t61 -243.5t-3.5 -259l-4 -29q-19 -136 -66.5 -272t-128 -247.5t-197.5 -177.5t-276 -63
q-102 2 -190 42t-151 122l-34 -136h-343l22 160q-77 -90 -176 -140.5t-220 -48.5q-149 3 -245 73.5t-147 182t-65 241.5t1 253zM510 750l-4 -28q-7 -60 -9.5 -133.5t12.5 -140.5t59 -111.5t128 -47.5q95 -3 167.5 42.5t126.5 120.5l108 590q-48 154 -218 160
q-123 4 -199 -67.5t-116 -177.5t-55 -207zM1961 737l4 28q8 63 10.5 137t-12.5 141t-59.5 111t-130.5 47q-95 4 -167.5 -39t-125.5 -117l-109 -600q24 -79 82 -117.5t139 -41.5q127 -4 202.5 65.5t113.5 175.5t53 210z" />
    <glyph glyph-name="uni0239" unicode="&#x239;" horiz-adv-x="2572" 
d="M124 725l4 28q18 137 66.5 273.5t130.5 248.5t200.5 178t277.5 63q108 -2 199.5 -47t151.5 -135l58 154l308 1l-22 -148q76 86 173 132t214 44q155 -3 252 -72.5t147 -180.5t61.5 -242.5t-3.5 -258.5l-4 -31q-18 -133 -66.5 -268.5t-130 -248t-198.5 -179.5t-272 -64
q-102 2 -190 42t-151 120l-134 -706h-382l136 703q-151 -163 -368 -160q-151 3 -247.5 73.5t-147.5 182.5t-64.5 243t1.5 255zM510 753l-4 -28q-8 -61 -10 -135t13.5 -142t59 -113t128.5 -48q92 -4 163.5 37t125.5 112l114 625q-26 74 -83.5 108t-133.5 36
q-123 3 -200 -67.5t-118 -176.5t-55 -208zM1958 737l4 31q8 61 9.5 134.5t-15 140.5t-61 111t-128.5 47q-91 4 -161.5 -35.5t-124.5 -109.5l-114 -621q26 -75 83.5 -111t135.5 -38q122 -4 199 67.5t118 177.5t55 206z" />
    <glyph glyph-name="uni023A" unicode="&#x23a;" horiz-adv-x="2078" 
d="M2063 2176l-539 -712l275 -1464h-404l-69 436h-579l-509 -672l-291 1l189 235h-217l1089 2048h408l51 -276l306 404h290zM1134 1552l-409 -775l452 610l-22 165h-21zM982 762l294 -2l-49 309z" />
    <glyph glyph-name="uni023B" unicode="&#x23b;" horiz-adv-x="1999" 
d="M474 -204l-204 86l139 236q-181 184 -230.5 414.5t-16.5 481.5q27 204 108.5 394.5t214 342t312 239.5t403.5 86q114 -1 229 -32l119 204l204 -86l-123 -205q131 -110 201 -250.5t104 -305.5l-379 -43q-11 68 -32 132.5t-64 119.5l-695 -1263q33 -11 67.5 -16t69.5 -6
q173 -2 309 93t192 259l378 -44q-53 -201 -188.5 -350.5t-321.5 -231.5t-390 -80q-145 0 -278 46zM549 1015q-19 -131 -20.5 -272t60.5 -264l678 1234q-46 8 -90 8q-146 1 -255.5 -60.5t-185.5 -164.5t-121.5 -228.5t-65.5 -252.5z" />
    <glyph glyph-name="uni023C" unicode="&#x23c;" horiz-adv-x="1561" 
d="M1458 1042l-352 -51q-6 40 -15 78.5t-27 75.5l-453 -855q32 -5 57 -5q114 -1 197.5 62.5t121.5 168.5l356 -52q-36 -157 -141 -268.5t-249.5 -169.5t-299.5 -56q-86 1 -176 22l-296 -564h-240l343 648q-145 134 -190 314t-21 371q26 214 130.5 396.5t276.5 292.5t401 107
q34 -1 68 -4.5t67 -9.5l244 461h238l-282 -531q107 -80 163.5 -190t78.5 -241zM437 762q-13 -84 -16 -173t24 -171l438 827h-9h-8q-135 -1 -223.5 -72.5t-138 -182t-67.5 -228.5z" />
    <glyph glyph-name="L_bar" unicode="&#x23d;" horiz-adv-x="1742" 
d="M1055 1171l-42 -239h-287l-104 -600h842l-58 -332h-1227l162 932h-258l42 239h257l152 877h386l-152 -877h287z" />
    </font>
</defs>
</svg>
