<?xml version="1.0" standalone="no"?>
<!DOCTYPE svg PUBLIC "-//W3C//DTD SVG 1.1//EN" "http://www.w3.org/Graphics/SVG/1.1/DTD/svg11.dtd" >
<svg xmlns="http://www.w3.org/2000/svg" xmlns:xlink="http://www.w3.org/1999/xlink" version="1.1">
<metadata>
Created by FontForge 20170731 at Fri Jan 19 11:35:53 2018
 By ,,,
Copyright 2018 The Inter UI project authors
</metadata>
<defs>
<font id="InterUI-Medium" horiz-adv-x="0" >
  <font-face 
    font-family="Inter UI Medium"
    font-weight="500"
    font-stretch="normal"
    units-per-em="2816"
    panose-1="2 11 6 2 3 0 0 0 0 4"
    ascent="2252"
    descent="-564"
    x-height="1536"
    bbox="-2064 -1076 3867 2976"
    underline-thickness="128"
    underline-position="-448"
    unicode-range="U+0002-1F16B"
  />
<missing-glyph horiz-adv-x="2804" 
d="M250 2176v512h2304v-512h-2304zM250 1472v512h2304v-512h-2304zM250 768v512h2304v-512h-2304zM250 64v512h2304v-512h-2304zM250 -640v512h2304v-512h-2304z" />
    <glyph glyph-name="longst" unicode="&#x17f;t" horiz-adv-x="1862" 
d="M853 2140q154 0 321 -41t301 -102v-286h-11v-175h299v-252h-299v-830q0 -130 54.5 -165t125.5 -35q34 0 59.5 4t42.5 8l54 -253q-22 -9 -78 -21t-141 -12q-108 0 -205.5 47t-158.5 139t-61 227v891h-213v252h213v175h-11v121q-34 18 -105.5 31t-138.5 13q-110 0 -168 -64
t-58 -182v-1630h-327v1247h-227v241h227v142q0 248 135 379t370 131z" />
    <glyph glyph-name=".notdef" horiz-adv-x="2804" 
d="M250 2176v512h2304v-512h-2304zM250 1472v512h2304v-512h-2304zM250 768v512h2304v-512h-2304zM250 64v512h2304v-512h-2304zM250 -640v512h2304v-512h-2304z" />
    <glyph glyph-name=".null" 
 />
    <glyph glyph-name="nonmarkingreturn" horiz-adv-x="938" 
 />
    <glyph glyph-name="controlSOT" 
 />
    <glyph glyph-name="controlHT" unicode="&#x9;" horiz-adv-x="778" 
 />
    <glyph glyph-name="CR" unicode="&#xd;" horiz-adv-x="778" 
 />
    <glyph glyph-name="space" unicode=" " horiz-adv-x="768" 
 />
    <glyph glyph-name="exclam" unicode="!" horiz-adv-x="778" 
d="M558 2048l-31 -1453h-273l-32 1453h336zM389 -29q-91 0 -150 59t-59 145q0 87 59 147.5t150 60.5q89 0 149.5 -60.5t60.5 -147.5q0 -86 -60.5 -145t-149.5 -59z" />
    <glyph glyph-name="quotedbl" unicode="&#x22;" horiz-adv-x="1187" 
d="M439 2048v-732h-251v732h251zM951 2048v-732h-251v732h251z" />
    <glyph glyph-name="numbersign" unicode="#" horiz-adv-x="1802" 
d="M379 0l82 567h-328v216h359l67 465h-306v222h338l81 564h228l-81 -564h312l81 564h230l-82 -564h309v-222h-341l-67 -465h288v-216h-320l-82 -567h-227l81 567h-312l-81 -567h-229zM720 783h312l67 465h-312z" />
    <glyph glyph-name="dollar" unicode="$" horiz-adv-x="1805" 
d="M800 -256l3 226q-194 13 -344 87.5t-238.5 204.5t-95.5 310h317q11 -148 113.5 -229t250.5 -97l9 676l-90 26q-245 72 -394 206.5t-149 348.5q0 162 84.5 285.5t230.5 198t332 87.5l3 230h197l-3 -236q256 -32 415.5 -187t168.5 -387h-304q-16 120 -90 195t-193 101
l-8 -633l26 -8q290 -85 439 -222.5t149 -361.5q0 -242 -167 -403t-462 -190l-3 -228h-197zM490 1507q0 -105 84 -172.5t244 -119.5l8 583q-153 -16 -244.5 -95t-91.5 -196zM1322 564q0 108 -74.5 174.5t-236.5 123.5l-8 -610q146 26 232.5 110t86.5 202z" />
    <glyph glyph-name="percent" unicode="%" horiz-adv-x="2292" 
d="M223 1556v108q0 116 48.5 214t141 156.5t225.5 58.5q135 0 227 -58.5t139 -156.5t47 -214v-108q0 -116 -48 -213.5t-140 -155.5t-225 -58q-135 0 -227.5 58t-140 155.5t-47.5 213.5zM1985 2065l-1430 -2082h-271l1429 2082h272zM459 1664v-108q0 -86 39.5 -154.5
t139.5 -68.5q98 0 137.5 68.5t39.5 154.5v108q0 86 -38 155.5t-139 69.5q-98 0 -138.5 -69.5t-40.5 -155.5zM1243 384v108q0 116 48.5 214t141 156.5t225.5 58.5q135 0 227 -58.5t139 -156.5t47 -214v-108q0 -116 -48 -214t-140 -156.5t-225 -58.5q-135 0 -227.5 58.5
t-140 156.5t-47.5 214zM1479 492v-108q0 -86 39.5 -154.5t139.5 -68.5q98 0 137.5 68.5t39.5 154.5v108q0 86 -38 155.5t-139 69.5q-98 0 -138.5 -69.5t-40.5 -155.5z" />
    <glyph glyph-name="ampersand" unicode="&#x26;" horiz-adv-x="1862" 
d="M534 1111l331 236q87 57 130 117.5t43 146.5q0 71 -60 137t-161 66q-107 0 -170.5 -74t-63.5 -174q0 -94 80.5 -201t181.5 -230l942 -1135h-353l-773 922q-151 185 -258 334t-107 303q0 239 142 375.5t380 136.5q153 0 264.5 -62t172 -164.5t60.5 -222.5
q0 -145 -73.5 -254.5t-195.5 -200.5l-422 -311q-116 -89 -153 -169.5t-37 -130.5q0 -133 96.5 -229.5t259.5 -96.5q148 0 286.5 87t227.5 246t89 373h274q0 -220 -64.5 -392t-209.5 -306q-13 -9 -23 -25t-21 -26q-113 -109 -261.5 -162t-306.5 -53q-202 0 -348 74t-225 204
t-79 297q0 187 112.5 313.5t292.5 250.5z" />
    <glyph glyph-name="quotesingle" unicode="'" horiz-adv-x="588" 
d="M417 2048v-732h-251v732h251z" />
    <glyph glyph-name="parenleft" unicode="(" horiz-adv-x="963" 
d="M875 -384h-277q-104 148 -185.5 341.5t-127.5 416t-46 458.5q0 354 103 674t271 542h266q-180 -306 -260 -594.5t-80 -621.5q0 -321 79.5 -615.5t256.5 -600.5z" />
    <glyph glyph-name="parenright" unicode=")" horiz-adv-x="963" 
d="M78 -384h277q105 148 186 341.5t127 416t46 458.5q0 354 -103 674t-271 542h-266q180 -306 260 -594.5t80 -621.5q0 -321 -79.5 -615.5t-256.5 -600.5z" />
    <glyph glyph-name="asterisk" unicode="*" horiz-adv-x="1459" 
d="M273 1003l273 365l-427 132l73 227l428 -153l-10 460h244l-11 -463l424 151l74 -227l-430 -132l270 -362l-194 -139l-260 374l-260 -370z" />
    <glyph glyph-name="plus" unicode="+" horiz-adv-x="1720" 
d="M1500 1028v-264h-507v-508h-265v508h-508v264h508v508h265v-508h507z" />
    <glyph glyph-name="comma" unicode="," horiz-adv-x="773" 
d="M562 285v-221q-2 -143 -60 -279.5t-150 -248.5l-207 63q49 112 88 218t39 235v233h290z" />
    <glyph glyph-name="hyphen" unicode="-" horiz-adv-x="1290" 
d="M1114 1001v-255h-937v255h937z" />
    <glyph glyph-name="period" unicode="." horiz-adv-x="773" 
d="M386 -28q-83 0 -142 59t-59 144q0 84 60 141.5t141 57.5q84 0 143 -58.5t59 -140.5q0 -85 -59 -144t-143 -59z" />
    <glyph glyph-name="slash" unicode="/" horiz-adv-x="1075" 
d="M976 2048l-596 -2356h-284l596 2356h284z" />
    <glyph glyph-name="zero" unicode="0" horiz-adv-x="1679" 
d="M1538 1160v-242q0 -453 -183.5 -699.5t-509.5 -246.5q-329 0 -516 246.5t-187 699.5v242q0 444 186 680t514 236q326 0 511 -236t185 -680zM1224 869v341q0 272 -97 434t-285 162q-189 0 -288 -162t-99 -434v-341q0 -277 100.5 -451.5t289.5 -174.5q187 0 283 174.5
t96 451.5z" />
    <glyph glyph-name="one" unicode="1" horiz-adv-x="1296" 
d="M904 2048v-2048h-295v1616h-16q-26 -47 -138 -95.5t-284 -48.5v259q127 0 212.5 45t137.5 105.5t77 109.5t31 57h275z" />
    <glyph glyph-name="two" unicode="2" horiz-adv-x="1674" 
d="M1522 272v-272h-1386v230l702 716q172 176 249.5 294.5t77.5 236.5q0 137 -93 240.5t-254 103.5q-120 0 -192.5 -59t-105 -154.5t-32.5 -205.5h-308q0 173 70 327t213 250.5t363 96.5q190 0 334.5 -75.5t226.5 -208.5t82 -305q0 -188 -121 -370t-297 -363l-459 -470v-12
h930z" />
    <glyph glyph-name="three" unicode="3" horiz-adv-x="1674" 
d="M652 895v277h149q173 0 265.5 98t92.5 236q0 145 -91.5 233.5t-242.5 88.5q-143 0 -234.5 -81.5t-91.5 -211.5h-302q0 157 76.5 279t216.5 192t332 70q188 0 333 -65t227.5 -191.5t82.5 -312.5q0 -121 -75.5 -254.5t-233.5 -209.5q190 -64 269.5 -199.5t79.5 -286.5
q0 -185 -92.5 -315.5t-249 -200t-347.5 -69.5q-176 0 -321.5 61.5t-233 184.5t-87.5 308h316q0 -135 88 -215t240 -80q158 0 264 85.5t106 244.5q0 173 -107.5 253.5t-279.5 80.5h-149z" />
    <glyph glyph-name="four" unicode="4" horiz-adv-x="1693" 
d="M1598 662v-273h-287v-389h-282v389h-932v205l890 1454h324v-1386h287zM454 662h575v997l-42 -100z" />
    <glyph glyph-name="five" unicode="5" horiz-adv-x="1674" 
d="M469 938l-273 63l120 1047h1104v-283h-836l-73 -571h11q47 44 137.5 81.5t201.5 37.5q191 0 335.5 -82.5t225.5 -231.5t81 -349q0 -191 -79.5 -344.5t-234 -243.5t-379.5 -90q-270 0 -446.5 149t-195.5 429h306q23 -146 109 -232.5t237 -86.5q164 0 273 116.5t109 301.5
q0 210 -114.5 309.5t-272.5 99.5q-128 0 -209 -35t-137 -85z" />
    <glyph glyph-name="six" unicode="6" horiz-adv-x="1670" 
d="M1172 1526q-21 70 -57 135.5t-99 107.5t-166 42q-108 0 -199.5 -65t-147 -231.5t-55.5 -470.5l13 -373q0 -147 53 -244t140 -145t188 -48q160 0 257 110t97 298q0 110 -37 201.5t-114.5 146.5t-200.5 55q-172 0 -277.5 -106t-105.5 -271l-156 36q0 200 79.5 334
t210.5 202t285 68q194 0 332.5 -94t212 -246t73.5 -326q0 -180 -78 -332.5t-226 -245t-358 -92.5q-330 0 -508.5 250t-178.5 722v72q0 325 69.5 564t222.5 370t403 131q262 0 418 -145.5t209 -409.5h-299z" />
    <glyph glyph-name="seven" unicode="7" horiz-adv-x="1587" 
d="M1454 2048v-253l-789 -1795h-335l801 1767h-998v281h1321z" />
    <glyph glyph-name="eight" unicode="8" horiz-adv-x="1667" 
d="M1494 575q0 -188 -87 -323t-236.5 -207.5t-335.5 -72.5t-337 72t-239.5 207t-88.5 324q0 176 83 304.5t224 198.5q-120 64 -190 178t-70 274q0 178 80.5 300t220 184t316.5 62t316 -62t219 -184t80 -300q0 -161 -71 -274.5t-192 -177.5q141 -70 224.5 -198.5t83.5 -304.5
zM1149 1515q0 136 -93.5 217.5t-224.5 81.5q-127 0 -220.5 -77t-93.5 -217t94 -227.5t224 -87.5t222 86.5t92 223.5zM1186 586q0 103 -48 186t-128.5 131.5t-179.5 48.5q-98 0 -178.5 -48.5t-128.5 -131t-48 -183.5t48 -182t130 -128.5t183 -47.5q152 0 251 103t99 252z" />
    <glyph glyph-name="nine" unicode="9" horiz-adv-x="1670" 
d="M488 522q21 -70 57 -135.5t99 -107.5t166 -42q108 0 199.5 65t147 231.5t55.5 470.5l-13 373q0 147 -53 244t-140 145t-188 48q-160 0 -257 -110t-97 -298q0 -110 37 -201.5t114.5 -146.5t200.5 -55q172 0 277.5 106t105.5 271l156 -36q0 -200 -79.5 -334t-210.5 -202
t-285 -68q-194 0 -332.5 94t-212 246t-73.5 326q0 180 78 332.5t226 245t358 92.5q330 0 508.5 -250t178.5 -722v-72q0 -325 -69.5 -564t-222.5 -370t-403 -131q-262 0 -418 145.5t-209 409.5h299z" />
    <glyph glyph-name="colon" unicode=":" horiz-adv-x="773" 
d="M386 1077q-83 0 -142 59t-59 144q0 84 60 141.5t141 57.5q84 0 143 -58.5t59 -140.5q0 -85 -59 -144t-143 -59zM386 -28q-83 0 -142 59t-59 144q0 84 60 141.5t141 57.5q84 0 143 -58.5t59 -140.5q0 -85 -59 -144t-143 -59z" />
    <glyph glyph-name="semicolon" unicode=";" horiz-adv-x="773" 
d="M386 1094q-83 0 -142 59t-59 144q0 84 60 141.5t141 57.5q84 0 143 -58.5t59 -140.5q0 -85 -59 -144t-143 -59zM562 285v-221q-2 -143 -60 -279.5t-150 -248.5l-207 63q49 112 88 218t39 235v233h290z" />
    <glyph glyph-name="less" unicode="&#x3c;" horiz-adv-x="1290" 
d="M1109 356l-190 -181l-801 721l801 721l190 -181l-600 -536v-8z" />
    <glyph glyph-name="equal" unicode="=" horiz-adv-x="1720" 
d="M284 1317h1152v-262h-1152v262zM284 737h1152v-262h-1152v262z" />
    <glyph glyph-name="greater" unicode="&#x3e;" horiz-adv-x="1290" 
d="M171 356l190 -181l801 721l-801 721l-190 -181l600 -536v-8z" />
    <glyph glyph-name="question" unicode="?" horiz-adv-x="1524" 
d="M898 595h-285q0 158 34 265.5t87.5 180t113.5 126.5t113.5 104.5t87.5 112t34 151.5q0 135 -74.5 209.5t-201.5 74.5q-107 0 -194.5 -69t-88.5 -228h-313q1 182 80 305t214 186t302 63q275 0 428.5 -149t153.5 -394q0 -120 -35.5 -202.5t-91 -144.5t-118 -117
t-118.5 -118t-91.5 -148t-36.5 -208zM757 -27q-91 0 -150.5 59t-59.5 146t59.5 147t150.5 60q88 0 148.5 -60t60.5 -147t-60.5 -146t-148.5 -59z" />
    <glyph glyph-name="at" unicode="@" horiz-adv-x="2693" 
d="M1396 1998q287 0 507 -90.5t369.5 -247t225.5 -356.5t76 -420q0 -166 -21 -322t-76 -279.5t-155 -196t-258 -72.5q-76 0 -155 18t-137 67t-70 141h-12q-38 -91 -152 -156.5t-271 -57.5q-258 14 -401.5 204t-143.5 506q0 196 75 338t196.5 225t261.5 100q155 19 273 -28
t141 -113h12v112h249v-950q0 -74 38.5 -118.5t105.5 -44.5q132 0 187 148t55 483q0 253 -104 449.5t-311.5 308.5t-516.5 112q-306 0 -524.5 -129t-334.5 -363t-116 -550q0 -497 261 -764.5t762 -267.5q108 0 213.5 19t190 43.5t128.5 40.5l72 -224q-58 -29 -160 -57
t-221 -46.5t-231 -18.5q-625 0 -955.5 332t-330.5 951q0 388 150.5 674t432 443t675.5 157zM1318 1154q-158 0 -247.5 -119.5t-89.5 -286.5q-1 -126 30 -232t103 -170t196 -64q190 0 280.5 115.5t90.5 350.5q0 238 -96.5 323t-266.5 83z" />
    <glyph glyph-name="A" unicode="A" horiz-adv-x="1978" 
d="M406 0h-337l753 2048h333l753 -2048h-336l-172 496h-822zM977 1642l-305 -878h634l-305 878h-24z" />
    <glyph glyph-name="B" unicode="B" horiz-adv-x="1806" 
d="M981 0h-772v2048h733q225 0 371.5 -73t218.5 -197t72 -279q0 -192 -98.5 -291.5t-241.5 -136.5v-19q102 -9 195.5 -70.5t153 -171.5t59.5 -262q0 -158 -74 -282t-227 -195t-390 -71zM526 1776v-613h398q168 0 270.5 84t102.5 231q0 122 -82.5 210t-276.5 88h-412z
M1365 568q0 140 -99.5 243t-282.5 103h-457v-642h444q213 0 304 84.5t91 211.5z" />
    <glyph glyph-name="C" unicode="C" horiz-adv-x="2017" 
d="M1884 1407l-312 -21q-45 196 -190.5 297.5t-330.5 101.5q-168 0 -301.5 -85t-211.5 -254.5t-78 -422.5t78 -422t211.5 -253.5t301.5 -84.5q185 0 329.5 100t189.5 295l313 -21q-44 -211 -162.5 -359.5t-291.5 -227t-378 -78.5q-261 0 -465.5 126.5t-321.5 362t-117 562.5
t117 563t321.5 363t465.5 127q205 0 378 -79t292 -228.5t163 -361.5z" />
    <glyph glyph-name="D" unicode="D" horiz-adv-x="1993" 
d="M871 0h-662v2048h681q298 0 512 -122.5t328.5 -351t114.5 -547.5q0 -320 -115 -550t-333 -353.5t-526 -123.5zM871 1770h-345v-1492h327q341 0 510 193t169 556q0 360 -166.5 551.5t-494.5 191.5z" />
    <glyph glyph-name="E" unicode="E" horiz-adv-x="1664" 
d="M1498 272v-272h-1289v2048h1279v-272h-962v-614h846v-273h-846v-617h972z" />
    <glyph glyph-name="F" unicode="F" horiz-adv-x="1642" 
d="M1348 1162v-273h-822v-889h-317v2048h1273v-272h-956v-614h822z" />
    <glyph glyph-name="G" unicode="G" horiz-adv-x="2052" 
d="M1896 1042v-259q0 -247 -111 -429t-301 -282t-427 -100q-263 0 -469 126t-323.5 361.5t-117.5 563.5q0 329 116.5 564.5t319.5 362t460 126.5q302 0 525 -172.5t315 -486.5l-321 -21q-64 194 -204 291.5t-315 97.5q-163 0 -295 -84.5t-210 -253.5t-78 -424t79 -423.5
t214 -252.5t304 -84q153 0 273.5 65t189.5 182.5t69 272.5h-467v259h774z" />
    <glyph glyph-name="H" unicode="H" horiz-adv-x="2031" 
d="M526 2048v-886h978v886h318v-2048h-318v889h-978v-889h-317v2048h317z" />
    <glyph glyph-name="I" unicode="I" horiz-adv-x="736" 
d="M526 2048v-2048h-317v2048h317z" />
    <glyph glyph-name="J" unicode="J" horiz-adv-x="1473" 
d="M964 598v1450h316v-1450q0 -298 -174 -462t-455 -164q-173 0 -313.5 66.5t-223 193.5t-82.5 309h312q1 -144 93.5 -222t224.5 -78q76 0 145.5 33.5t113 111.5t43.5 212z" />
    <glyph glyph-name="K" unicode="K" horiz-adv-x="1893" 
d="M1438 0l-660 892l-252 -280v-612h-317v2048h317v-965h26l872 965h415l-863 -932l844 -1116h-382z" />
    <glyph glyph-name="L" unicode="L" horiz-adv-x="1568" 
d="M1439 272v-272h-1230v2048h317v-1776h913z" />
    <glyph glyph-name="M" unicode="M" horiz-adv-x="2484" 
d="M209 2048h380l644 -1557h24l638 1557h380v-2048h-307v1471h-18l-582 -1450h-252l-582 1452h-18v-1473h-307v2048z" />
    <glyph glyph-name="N" unicode="N" horiz-adv-x="2028" 
d="M1819 2048v-2048h-309l-965 1494h-19v-1494h-317v2048h311l966 -1499h18v1499h315z" />
    <glyph glyph-name="O" unicode="O" horiz-adv-x="2100" 
d="M1953 1023q0 -328 -117.5 -563.5t-321.5 -361.5t-463 -126q-260 0 -464.5 126t-322 361.5t-117.5 563.5q0 329 117.5 564.5t322 362t464.5 126.5q259 0 463 -126.5t321.5 -362t117.5 -564.5zM1640 1023q0 255 -77.5 424t-211 253.5t-300.5 84.5t-300.5 -84.5t-212 -253.5
t-78.5 -424t78.5 -423.5t212 -252.5t300.5 -84t300.5 84t211 252.5t77.5 423.5z" />
    <glyph glyph-name="P" unicode="P" horiz-adv-x="1777" 
d="M931 728h-492v272h492q215 0 300.5 112t85.5 279t-85.5 276t-303.5 109h-402v-1776h-317v2048h719q247 0 402 -85t227.5 -233.5t72.5 -338.5q0 -191 -73.5 -341t-228 -236t-397.5 -86z" />
    <glyph glyph-name="Q" unicode="Q" horiz-adv-x="2100" 
d="M1953 1023q0 -286 -90.5 -502t-248.5 -350l267 -363h-321l-167 228q-159 -64 -342 -64q-260 0 -464.5 126t-322 361.5t-117.5 563.5q0 329 117.5 564.5t322 362t464.5 126.5q259 0 463 -126.5t321.5 -362t117.5 -564.5zM938 660h306l188 -250q96 93 152 246.5t56 366.5
q0 255 -77.5 424t-211 253.5t-300.5 84.5t-300.5 -84.5t-212 -253.5t-78.5 -424t78.5 -423.5t212 -252.5t300.5 -84q88 0 166 23z" />
    <glyph glyph-name="R" unicode="R" horiz-adv-x="1777" 
d="M1347 0l-394 782h-427v-782h-317v2048h718q243 0 398.5 -83t230 -226t74.5 -323q0 -212 -95.5 -353.5t-262.5 -216.5l434 -846h-359zM526 1776v-717h382q223 0 316 97t93 256q0 94 -35 177t-119.5 135t-235.5 52h-401z" />
    <glyph glyph-name="S" unicode="S" horiz-adv-x="1773" 
d="M1306 1494q-20 149 -128 228.5t-282 79.5q-182 0 -294 -82.5t-112 -212.5q0 -115 100.5 -185.5t291.5 -126.5l159 -46q290 -85 439 -222.5t149 -361.5q0 -177 -90 -311.5t-256.5 -210.5t-398.5 -76q-215 0 -383.5 71.5t-268 206.5t-107.5 327h317q12 -166 139 -248
t303 -82q196 0 317 91t121 231q0 124 -98 195t-315 136l-184 53q-245 72 -394 206.5t-149 348.5q0 172 95 301t258 200.5t366 71.5q205 0 362 -73.5t248.5 -205t98.5 -303.5h-304z" />
    <glyph glyph-name="T" unicode="T" horiz-adv-x="1801" 
d="M1688 2048v-272h-630v-1776h-315v1776h-630v272h1575z" />
    <glyph glyph-name="U" unicode="U" horiz-adv-x="2034" 
d="M1507 2048h317v-1355q0 -231 -107.5 -393t-290 -247.5t-408.5 -85.5t-409.5 85.5t-291.5 247.5t-108 393v1355h317v-1350q0 -140 67 -239t179 -150.5t246 -51.5t245.5 51.5t177.5 150.5t66 239v1350z" />
    <glyph glyph-name="V" unicode="V" horiz-adv-x="1978" 
d="M402 2048l575 -1642h24l575 1642h332l-753 -2048h-333l-753 2048h333z" />
    <glyph glyph-name="W" unicode="W" horiz-adv-x="2733" 
d="M376 2048l401 -1575h19l410 1575h321l410 -1576h19l401 1576h306l-547 -2048h-325l-417 1521h-16l-416 -1521h-325l-547 2048h306z" />
    <glyph glyph-name="X" unicode="X" horiz-adv-x="1851" 
d="M441 2048l476 -793h16l477 793h366l-628 -1024l634 -1024h-369l-480 784h-16l-479 -784h-369l645 1024l-640 1024h367z" />
    <glyph glyph-name="Y" unicode="Y" horiz-adv-x="1956" 
d="M421 2048l545 -928h24l545 928h354l-752 -1224v-824h-317v824l-753 1224h354z" />
    <glyph glyph-name="Z" unicode="Z" horiz-adv-x="1770" 
d="M1617 272v-272h-1457v209l1065 1567h-1073v272h1457v-209l-1064 -1567h1072z" />
    <glyph glyph-name="bracketleft" unicode="[" horiz-adv-x="963" 
d="M835 2275v-259h-286v-2217h286v-257h-574v2733h574z" />
    <glyph glyph-name="backslash" unicode="\" horiz-adv-x="1053" 
d="M85 2048h285l596 -2356h-285z" />
    <glyph glyph-name="bracketright" unicode="]" horiz-adv-x="963" 
d="M129 2275h573v-2733h-573v257h285v2217h-285v259z" />
    <glyph glyph-name="asciicircum" unicode="^" horiz-adv-x="1268" 
d="M881 1004l-246 635l-245 -635h-282l411 1000h233l409 -1000h-280z" />
    <glyph glyph-name="underscore" unicode="_" horiz-adv-x="1290" 
d="M1280 0v-260h-1270v260h1270z" />
    <glyph glyph-name="grave" unicode="`" horiz-adv-x="838" 
d="M459 2112l270 -416h-276l-370 416h376z" />
    <glyph glyph-name="a" unicode="a" horiz-adv-x="1566" 
d="M1077 0v184h-12q-24 -47 -77 -97.5t-138.5 -85t-208.5 -34.5q-144 0 -261.5 54.5t-187 159.5t-69.5 254q0 161 81.5 257t219.5 143.5t305 65.5q89 11 166.5 18.5t125.5 27t48 65.5v13q0 149 -79.5 211t-198.5 62q-142 0 -225.5 -65t-116.5 -148l-288 75q49 140 145 227.5
t222.5 128t264.5 40.5q93 0 195 -22t190.5 -79.5t144 -162.5t55.5 -271v-1021h-301zM1069 536v209q-17 -20 -80 -35t-134.5 -24.5t-114.5 -15.5q-138 -17 -226 -69t-88 -171q0 -104 76.5 -158.5t196.5 -54.5q171 0 270.5 97.5t99.5 221.5z" />
    <glyph glyph-name="b" unicode="b" horiz-adv-x="1685" 
d="M188 2048h307v-730h19q26 46 73.5 101.5t129 96t209.5 40.5q181 0 324.5 -93.5t227 -270t83.5 -427.5q0 -249 -82 -427t-225 -272.5t-325 -94.5q-127 0 -209 40t-131 96t-75 103h-26v-210h-300v2048zM1263 768q0 230 -100 378.5t-300 148.5q-197 0 -292 -147.5
t-95 -379.5q0 -233 95 -385t292 -152q198 0 299 152.5t101 384.5z" />
    <glyph glyph-name="c" unicode="c" horiz-adv-x="1566" 
d="M1456 1062l-294 -26q-27 107 -109.5 183t-224.5 76q-190 0 -297.5 -144t-107.5 -383q0 -243 106 -390t299 -147q128 0 214 66.5t117 182.5l296 -24q-37 -212 -203.5 -349.5t-423.5 -137.5q-218 0 -376 102t-243.5 282.5t-85.5 414.5q0 230 86.5 408t244.5 279t371 101
q252 0 424 -135t207 -359z" />
    <glyph glyph-name="d" unicode="d" horiz-adv-x="1685" 
d="M1497 0h-301v210h-23q-26 -47 -75.5 -103t-132.5 -96t-209 -40q-182 0 -325.5 94.5t-225.5 272.5t-82 427q0 251 83.5 427.5t227.5 270t325 93.5q127 0 209.5 -40.5t130.5 -96t74 -101.5h16v730h308v-2048zM422 768q0 -232 100.5 -384.5t298.5 -152.5q197 0 292.5 152
t95.5 385q0 232 -95 379.5t-293 147.5q-199 0 -299 -148.5t-100 -378.5z" />
    <glyph glyph-name="e" unicode="e" horiz-adv-x="1631" 
d="M852 -31q-226 0 -389.5 96.5t-251.5 272.5t-88 414q0 236 86 417t245.5 284t377.5 103q176 0 330 -77t248.5 -243t94.5 -434v-129h-1213v233h912q0 167 -100 278t-273 111q-186 0 -297.5 -141.5t-111.5 -393.5q0 -254 110.5 -391.5t318.5 -137.5q139 0 225 61.5
t124 165.5l284 -78q-32 -110 -114 -204t-212 -150.5t-306 -56.5z" />
    <glyph glyph-name="f" unicode="f" horiz-adv-x="1028" 
d="M297 0v1284h-229v252h229v106q0 145 62.5 241.5t166.5 144.5t226 48q92 0 156 -14.5t96 -26.5l-71 -248q-22 7 -54 15t-78 8q-104 0 -150.5 -52t-46.5 -154v-68h325v-252h-325v-1284h-307z" />
    <glyph glyph-name="g" unicode="g" horiz-adv-x="1685" 
d="M1196 1533h301v-1519q0 -202 -93.5 -334t-251.5 -196t-350 -64q-233 0 -387.5 84t-223.5 187l189 190q36 -37 89 -83.5t133 -80.5t195 -34q167 0 282.5 85.5t113.5 269.5v217h-21q-24 -41 -71 -95t-130 -93.5t-215 -39.5q-176 0 -319.5 84.5t-228.5 251.5t-85 414
q0 245 83.5 419t227.5 267t325 93q127 0 209.5 -40.5t130.5 -96t74 -101.5h23v215zM422 780q0 -227 102.5 -361t296.5 -134q193 0 290.5 133t97.5 362q0 223 -96 369t-292 146q-199 0 -299 -147.5t-100 -367.5z" />
    <glyph glyph-name="h" unicode="h" horiz-adv-x="1617" 
d="M495 892v-892h-307v2048h302v-711h16q60 87 169 153t268 66q213 0 350 -146.5t137 -438.5v-971h-308v972q0 147 -74.5 229.5t-208.5 82.5q-137 0 -240.5 -97t-103.5 -295z" />
    <glyph glyph-name="i" unicode="i" horiz-adv-x="693" 
d="M346 1712q-86 0 -140 54t-54 128q0 70 54 126t140 56t139 -56t53 -126q0 -74 -53 -128t-139 -54zM500 1536v-1536h-307v1536h307z" />
    <glyph glyph-name="j" unicode="j" horiz-adv-x="747" 
d="M401 1712q-85 0 -139.5 54t-54.5 128q0 70 54.5 126t139.5 56t138.5 -56t53.5 -126q0 -74 -53.5 -128t-138.5 -54zM248 1536h307v-1628q0 -234 -129.5 -361t-362.5 -127h-87v265h61q117 0 164 61.5t47 164.5v1625z" />
    <glyph glyph-name="k" unicode="k" horiz-adv-x="1517" 
d="M1149 0l-495 686l-159 -175v-511h-307v2048h307v-1145h26l555 633h368l-586 -655l638 -881h-347z" />
    <glyph glyph-name="l" unicode="l" horiz-adv-x="683" 
d="M495 2048v-2048h-307v2048h307z" />
    <glyph glyph-name="m" unicode="m" horiz-adv-x="2405" 
d="M1357 960v-960h-305v990q0 158 -71 226t-186 68q-117 0 -208.5 -92t-91.5 -259v-933h-307v1536h303v-229h15q44 93 149.5 171t250.5 78q142 0 241 -73t149 -183h16q42 95 160.5 175.5t279.5 80.5q128 0 234 -58.5t168.5 -183.5t62.5 -324v-990h-308v995q0 110 -41 173
t-102 89.5t-122 26.5q-136 0 -211.5 -86.5t-75.5 -237.5z" />
    <glyph glyph-name="n" unicode="n" horiz-adv-x="1632" 
d="M495 879v-879h-307v1536h296v-229h16q58 107 170 178t272 71q140 0 253.5 -61t181 -190t67.5 -334v-971h-308v955q0 154 -84.5 241.5t-214.5 87.5q-87 0 -165 -46t-127.5 -136t-49.5 -223z" />
    <glyph glyph-name="o" unicode="o" horiz-adv-x="1656" 
d="M828 -31q-214 0 -372 100t-245.5 278.5t-87.5 415.5t87.5 415.5t245.5 278t372 99.5t372.5 -99.5t245.5 -278t87 -415.5t-87 -415.5t-245.5 -278.5t-372.5 -100zM828 231q141 0 230.5 72t132 193t42.5 267q0 145 -42.5 266t-132 193.5t-230.5 72.5q-140 0 -230 -72.5
t-132.5 -193.5t-42.5 -266q0 -146 42.5 -267t132.5 -193t230 -72z" />
    <glyph glyph-name="p" unicode="p" horiz-adv-x="1685" 
d="M188 -576v2112h300v-218h26q26 46 73.5 101.5t129 96t209.5 40.5q181 0 324.5 -93.5t227 -270t83.5 -427.5q0 -249 -82 -427t-225 -272.5t-325 -94.5q-127 0 -209 40t-131 96t-75 103h-19v-786h-307zM1263 768q0 230 -100 378.5t-300 148.5q-197 0 -292 -147.5
t-95 -379.5q0 -233 95 -385t292 -152q198 0 299 152.5t101 384.5z" />
    <glyph glyph-name="q" unicode="q" horiz-adv-x="1685" 
d="M1497 1536v-2112h-308v786h-16q-26 -47 -75.5 -103t-132.5 -96t-209 -40q-182 0 -325.5 94.5t-225.5 272.5t-82 427q0 251 83.5 427.5t227.5 270t325 93.5q127 0 209.5 -40.5t130.5 -96t74 -101.5h23v218h301zM422 768q0 -232 100.5 -384.5t298.5 -152.5q197 0 292.5 152
t95.5 385q0 232 -95 379.5t-293 147.5q-199 0 -299 -148.5t-100 -378.5z" />
    <glyph glyph-name="r" unicode="r" horiz-adv-x="1100" 
d="M1079 1507l-99 -275q-17 9 -51 19.5t-82 10.5q-110 0 -188 -58.5t-120.5 -149t-43.5 -185.5v-869h-307v1536h307v-242h15q33 114 136.5 189.5t228.5 75.5q60 0 114.5 -16.5t89.5 -35.5z" />
    <glyph glyph-name="s" unicode="s" horiz-adv-x="1458" 
d="M155 1109q0 131 78.5 231.5t211 158t293.5 57.5q223 0 369.5 -109t196.5 -290l-275 -60q-13 38 -42 85t-85 82.5t-152 37.5q-119 3 -201 -50t-82 -138q0 -73 64 -121.5t185 -80.5l184 -47q217 -59 314.5 -179t97.5 -259q0 -122 -69.5 -226.5t-201 -168t-319.5 -63.5
q-183 0 -312.5 58.5t-208.5 154.5t-113 211l281 75q35 -92 112 -163t228 -74q137 -2 216 55.5t79 141.5q0 133 -245 200l-205 54q-208 58 -303.5 176t-95.5 251z" />
    <glyph glyph-name="t" unicode="t" horiz-adv-x="1004" 
d="M880 1536v-252h-300v-830q0 -130 55 -165t126 -35q34 0 59.5 4t42.5 8l54 -253q-23 -9 -78.5 -21t-140.5 -12q-108 0 -205 47t-158.5 139t-61.5 227v891h-213v252h213v328h307v-328h300z" />
    <glyph glyph-name="u" unicode="u" horiz-adv-x="1632" 
d="M1136 644v892h308v-1536h-296v199h-16q-60 -85 -171 -152t-271 -67q-118 0 -233.5 59.5t-192 188t-76.5 337.5v971h307v-966q0 -154 84.5 -236t214.5 -82q88 0 166 43t127 129.5t49 219.5z" />
    <glyph glyph-name="v" unicode="v" horiz-adv-x="1589" 
d="M1511 1536l-566 -1536h-302l-565 1536h325l384 -1138h16l383 1138h325z" />
    <glyph glyph-name="w" unicode="w" horiz-adv-x="2250" 
d="M2160 1536l-439 -1536h-277l-308 1075h-24l-306 -1075h-277l-438 1536h309l274 -1094h18l298 1094h271l296 -1089h18l275 1089h310z" />
    <glyph glyph-name="x" unicode="x" horiz-adv-x="1524" 
d="M442 1536l320 -568l323 568h334l-467 -768l472 -768h-333l-329 545l-327 -545h-335l467 768l-460 768h335z" />
    <glyph glyph-name="y" unicode="y" horiz-adv-x="1589" 
d="M600 -111l42 112l-564 1535h325l383 -1124h17l383 1124h325l-655 -1775q-58 -157 -175 -257.5t-305 -100.5q-62 0 -111 10t-80 23l73 254q134 -34 208.5 5t133.5 194z" />
    <glyph glyph-name="z" unicode="z" horiz-adv-x="1520" 
d="M1370 265v-265h-1210v219l800 1052h-802v265h1193v-211l-798 -1060h817z" />
    <glyph glyph-name="braceleft" unicode="{" horiz-adv-x="963" 
d="M877 -304l-65 -192q-188 54 -287 149.5t-135.5 222t-36.5 272.5v276q0 140 -63 223.5t-204 83.5v242q141 0 204 81.5t63 221.5v280q0 144 36.5 270.5t135.5 222t287 147.5l65 -188q-143 -48 -195 -170.5t-52 -281.5v-280q0 -136 -48.5 -247.5t-164.5 -176.5
q116 -65 164.5 -177.5t48.5 -250.5v-276q0 -159 52 -281.5t195 -170.5z" />
    <glyph glyph-name="bar" unicode="|" horiz-adv-x="802" 
d="M541 2048v-2432h-280v2432h280z" />
    <glyph glyph-name="braceright" unicode="}" horiz-adv-x="963" 
d="M76 -304q143 48 195 170.5t52 281.5v276q0 138 48.5 250.5t164.5 177.5q-116 65 -164.5 176.5t-48.5 247.5v280q0 159 -52 281.5t-195 170.5l65 188q188 -52 287 -147.5t135.5 -222t36.5 -270.5v-280q0 -140 63 -221.5t204 -81.5v-242q-141 0 -204 -83.5t-63 -223.5v-276
q0 -146 -36.5 -272.5t-135.5 -222t-287 -149.5z" />
    <glyph glyph-name="asciitilde" unicode="~" horiz-adv-x="1976" 
d="M1514 1073l250 -27q-12 -222 -127.5 -367t-322.5 -145q-122 0 -203.5 48.5t-169.5 128.5q-62 56 -124.5 98.5t-139.5 42.5q-83 0 -126.5 -50t-62 -115t-23.5 -109l-253 24q6 152 66 268.5t161 182.5t229 66q116 0 212 -54.5t194 -144.5q64 -62 116 -94.5t115 -32.5
q86 0 129.5 52.5t59.5 119.5t20 108z" />
    <glyph glyph-name="nbspace" unicode="&#xa0;" horiz-adv-x="768" 
 />
    <glyph glyph-name="exclamdown" unicode="&#xa1;" horiz-adv-x="778" 
d="M389 1558q89 0 149.5 -59t60.5 -145q0 -87 -60.5 -147.5t-149.5 -60.5q-91 0 -150 60.5t-59 147.5q0 86 59 145t150 59zM558 -519h-336l32 1453h273z" />
    <glyph glyph-name="cent" unicode="&#xa2;" horiz-adv-x="1566" 
d="M1455 1062l-294 -26q-27 107 -109.5 183t-224.5 76q-190 0 -297.5 -144t-107.5 -383q0 -243 106 -390t299 -147q128 0 214 66.5t117 182.5l296 -24q-33 -186 -166 -316.5t-341 -161.5v-314h-238v314q-183 27 -314.5 133.5t-202 275t-70.5 381.5q0 209 71.5 375.5
t203.5 272t312 132.5v264h238v-265q204 -32 340.5 -161t167.5 -324z" />
    <glyph glyph-name="sterling" unicode="&#xa3;" horiz-adv-x="1780" 
d="M1156 804h-452l8 -222q4 -93 -15 -171.5t-68 -138.5h940v-272h-1392v272h99q55 4 82.5 55t36.5 120t8 126l-7 231h-225v270h216l-12 369q-6 207 76.5 348t224.5 213t312 72q196 0 339 -84t212 -221t44 -297l-298 44q9 97 -30 161t-108 96t-149 32q-122 0 -220 -87.5
t-98 -276.5l14 -369h462v-270z" />
    <glyph glyph-name="currency" unicode="&#xa4;" horiz-adv-x="2039" 
d="M198 836q0 147 42 277.5t116 236.5l-195 201l170 178l196 -199q103 79 227.5 122.5t261.5 43.5q138 0 263.5 -44.5t228.5 -125.5l197 203l174 -178l-201 -204q73 -106 114.5 -236t41.5 -275q0 -139 -38 -264.5t-106 -229.5l189 -189l-174 -178l-178 183
q-105 -88 -235.5 -137t-275.5 -49q-144 0 -273.5 48.5t-234.5 134.5l-177 -180l-170 178l183 186q-69 104 -107.5 230.5t-38.5 266.5zM430 836q0 -174 79 -316.5t212 -227.5t295 -85q160 0 292 85t210.5 227.5t78.5 316.5q0 176 -78.5 318.5t-210.5 226.5t-292 84
q-162 0 -295 -84t-212 -226.5t-79 -318.5z" />
    <glyph glyph-name="yen" unicode="&#xa5;" horiz-adv-x="1540" 
d="M1351 638v-206h-426v-432h-316v432h-437v206h437v190h-437v206h345l-484 1014h339l398 -914l398 914h338l-484 -1014h329v-206h-426v-190h426z" />
    <glyph glyph-name="brokenbar" unicode="&#xa6;" horiz-adv-x="802" 
d="M541 2048v-940h-280v940h280zM261 560h280v-944h-280v944z" />
    <glyph glyph-name="section" unicode="&#xa7;" horiz-adv-x="1562" 
d="M1300 1555h-283q0 109 -59.5 181.5t-184.5 72.5q-112 0 -172.5 -57t-60.5 -131q0 -85 68.5 -148t134.5 -98l382 -209q52 -28 124.5 -82t125.5 -143t48 -223q-5 -117 -87.5 -208t-178.5 -121l-1 -4q150 -132 150 -342q0 -152 -73.5 -254t-195 -153t-266.5 -51
q-166 0 -294 64.5t-201 183t-73 281.5h286q0 -128 80 -196t203 -66q97 2 173.5 48t76.5 143q0 100 -68.5 155t-133.5 91l-382 205q-52 28 -124 83t-125.5 145t-48.5 224q4 115 83.5 208.5t182.5 123.5v7q-67 67 -108 150t-41 186q0 131 66 234t182.5 162t267.5 59
q161 0 279 -67t183 -184.5t65 -269.5zM1154 709q3 73 -47.5 131.5t-127.5 99.5l-365 198q-40 22 -87.5 3t-82.5 -68.5t-37 -117.5q-3 -79 48.5 -135t129.5 -98l353 -191q38 -20 88 -1.5t88 65.5t40 114z" />
    <glyph glyph-name="dieresis" unicode="&#xa8;" horiz-adv-x="1530" 
d="M481 1742q-71 0 -121.5 49.5t-50.5 116.5q0 72 50.5 120t121.5 48q73 0 121.5 -48t48.5 -120q0 -67 -48.5 -116.5t-121.5 -49.5zM1050 1742q-70 0 -120.5 49.5t-50.5 116.5q0 72 50.5 120t120.5 48q74 0 122 -48t48 -120q0 -67 -48 -116.5t-122 -49.5z" />
    <glyph glyph-name="copyright" unicode="&#xa9;" horiz-adv-x="2292" 
d="M170 1004q0 218 76 404.5t211 327t311.5 218.5t377.5 78q202 0 379 -78t311.5 -218.5t210 -327t75.5 -404.5q0 -219 -75.5 -407t-210 -328t-311.5 -218.5t-379 -78.5q-201 0 -377.5 78.5t-311.5 218.5t-211 328t-76 407zM338 1004q0 -183 63 -339.5t174.5 -273.5
t258 -182t312.5 -65q168 0 314.5 65t257.5 182t173.5 273.5t62.5 339.5q0 182 -62.5 337.5t-173.5 272t-257.5 181.5t-314.5 65q-166 0 -312.5 -65t-258 -181.5t-174.5 -272t-63 -337.5zM1374 820h216q0 -216 -125 -324t-336 -108q-221 0 -350.5 147.5t-129.5 384.5v164
q0 237 129.5 384.5t350.5 147.5q211 0 336 -108t125 -324h-213q0 132 -63.5 190t-184.5 58q-132 0 -199.5 -97.5t-67.5 -250.5v-164q0 -153 67.5 -250.5t199.5 -97.5q121 0 183 56.5t62 191.5z" />
    <glyph glyph-name="ordfeminine" unicode="&#xaa;" horiz-adv-x="1268" 
d="M834 971q-14 45 -22 95q-42 -46 -110.5 -80t-167.5 -34q-165 0 -253.5 85.5t-88.5 226.5q0 153 116.5 236t353.5 83h140v69q0 176 -160 176q-90 0 -140 -35t-50 -101l-238 19q0 139 116.5 230t311.5 91q180 0 290 -95.5t110 -284.5v-432q0 -67 7.5 -128t28.5 -121h-244z
M594 1151q56 0 113.5 25.5t94.5 60.5v186h-140q-120 0 -174 -46t-54 -106q0 -120 160 -120z" />
    <glyph glyph-name="guillemotleft" unicode="&#xab;" horiz-adv-x="1350" 
d="M744 201h-229l-395 579v28l395 580h229l-362 -594zM1270 201h-229l-395 579v28l395 580h229l-362 -594z" />
    <glyph glyph-name="logicalnot" unicode="&#xac;" horiz-adv-x="1524" 
d="M1338 1108v-592h-276v356h-872v236h1148z" />
    <glyph glyph-name="softhyphen" unicode="&#xad;" horiz-adv-x="1290" 
d="M177 746zM1114 1001v-255h-937v255h937z" />
    <glyph glyph-name="registered" unicode="&#xae;" horiz-adv-x="2292" 
d="M170 1004q0 218 76 404.5t211 327t311.5 218.5t377.5 78q202 0 379 -78t311.5 -218.5t210 -327t75.5 -404.5q0 -219 -75.5 -407t-210 -328t-311.5 -218.5t-379 -78.5q-201 0 -377.5 78.5t-311.5 218.5t-211 328t-76 407zM338 1004q0 -183 63 -339.5t174.5 -273.5
t258 -182t312.5 -65q168 0 314.5 65t257.5 182t173.5 273.5t62.5 339.5q0 182 -62.5 337.5t-173.5 272t-257.5 181.5t-314.5 65q-166 0 -312.5 -65t-258 -181.5t-174.5 -272t-63 -337.5zM1166 900h-216v-464h-208v1168h387q205 0 325 -89.5t120 -266.5q0 -163 -165 -249
q90 -41 125.5 -117.5t35.5 -173.5v-76q0 -110 24 -176v-20h-212q-15 33 -17.5 99.5t-2.5 96.5v76q0 96 -44 144t-152 48zM950 1420v-336h198q88 0 155 40.5t67 119.5q0 99 -54 137.5t-187 38.5h-179z" />
    <glyph glyph-name="macron" unicode="&#xaf;" horiz-adv-x="1350" 
d="M1148 1993v-214h-943v214h943z" />
    <glyph glyph-name="degree" unicode="&#xb0;" horiz-adv-x="1187" 
d="M595 1125q-122 0 -224.5 60t-163.5 161.5t-61 224.5q0 124 61 226t163.5 162.5t224.5 60.5q123 0 224 -60.5t160.5 -162.5t59.5 -226q0 -123 -59.5 -224.5t-160.5 -161.5t-224 -60zM595 1339q95 0 164 68.5t69 165.5t-69 166.5t-164 69.5q-96 0 -165.5 -69.5
t-69.5 -166.5q0 -96 69.5 -165t165.5 -69z" />
    <glyph glyph-name="plusminus" unicode="&#xb1;" horiz-adv-x="1720" 
d="M1500 1155v-265h-505v-432h-270v432h-506v265h506v448h270v-448h505zM1499 262v-262h-1278v262h1278z" />
    <glyph glyph-name="twosuperior" unicode="&#xb2;" horiz-adv-x="1268" 
d="M1180 1121v-205h-841v171l395 365q86 74 121 133t35 98q0 58 -38 94.5t-109 36.5q-89 0 -131.5 -48t-42.5 -116h-254q0 149 112 257.5t306 108.5t302.5 -88t108.5 -245q0 -114 -72 -203t-207 -201l-198 -158h513z" />
    <glyph glyph-name="threesuperior" unicode="&#xb3;" horiz-adv-x="1268" 
d="M584 1380v177h118q88 0 130.5 37.5t42.5 96.5q0 49 -37.5 86t-123.5 37q-65 0 -110 -28t-45 -77h-254q0 147 119.5 227t284.5 80q187 0 303 -79t116 -230q0 -79 -48.5 -140t-135.5 -94q204 -57 204 -253q0 -152 -126 -236t-313 -84q-103 0 -199 34t-157.5 107t-61.5 191
h255q0 -52 47 -89t128 -37q88 0 131 39t43 95q0 77 -52 108.5t-141 31.5h-118z" />
    <glyph glyph-name="acute" unicode="&#xb4;" horiz-adv-x="849" 
d="M172 1696l251 416h317l-332 -416h-236z" />
    <glyph glyph-name="mu" unicode="&#xb5;" horiz-adv-x="1634" 
d="M1152 692v844h295v-1536h-267l-13 160q-132 -188 -352 -188q-95 0 -178.5 42.5t-146.5 129.5v-716h-302v2108h302v-847q0 -229 97.5 -333t229.5 -104q143 0 239 111t96 329z" />
    <glyph glyph-name="paragraph" unicode="&#xb6;" horiz-adv-x="1268" 
d="M1175 0h-287v716h-115q-219 0 -369.5 83.5t-228.5 229t-78 331.5q0 184 78 329.5t228.5 230t369.5 84.5h402v-2004z" />
    <glyph glyph-name="periodcentered" unicode="&#xb7;" horiz-adv-x="778" 
d="M386 810q-83 0 -142 59t-59 144q0 84 60 141.5t141 57.5q84 0 143 -58.5t59 -140.5q0 -85 -59 -144t-143 -59z" />
    <glyph glyph-name="cedilla" unicode="&#xb8;" horiz-adv-x="838" 
d="M280 5h238l-16 -77q77 -12 142 -65.5t65 -170.5q0 -136 -113 -221.5t-333 -85.5l-9 188q81 0 135 27.5t54 92.5t-49 88t-158 31z" />
    <glyph glyph-name="onesuperior" unicode="&#xb9;" horiz-adv-x="1012" 
d="M759 1999v-1083h-250v786l-278 -67v201l504 163h24z" />
    <glyph glyph-name="ordmasculine" unicode="&#xba;" horiz-adv-x="1268" 
d="M158 1436v107q0 214 128.5 351.5t347.5 137.5q222 0 349 -137.5t127 -351.5v-107q0 -213 -126.5 -349t-345.5 -136q-222 0 -351 136t-129 349zM398 1543v-107q0 -123 60 -203.5t180 -80.5q117 0 174.5 80.5t57.5 203.5v107q0 121 -58 203t-178 82q-117 0 -176.5 -82
t-59.5 -203z" />
    <glyph glyph-name="guillemotright" unicode="&#xbb;" horiz-adv-x="1350" 
d="M81 201l360 593l-360 593h228l396 -580v-27l-396 -579h-228zM608 201l360 593l-360 593h228l396 -580v-27l-396 -579h-228z" />
    <glyph glyph-name="onequarter" unicode="&#xbc;" horiz-adv-x="2211" 
d="M684 1995v-1083h-250v786l-278 -67v201l504 163h24zM1655 1728l-976 -1564l-170 97l976 1567zM2032 433v-206h-134v-227h-253v227h-494l-12 165l503 692h256v-651h134zM1388 433h257v334l-18 -29z" />
    <glyph glyph-name="onehalf" unicode="&#xbd;" horiz-adv-x="2292" 
d="M732 1999v-1083h-250v786l-278 -67v201l504 163h24zM1656 1728l-976 -1564l-170 97l976 1567zM2191 205v-205h-841v171l395 365q86 74 121 133t35 98q0 58 -38.5 94.5t-108.5 36.5q-89 0 -131.5 -48t-42.5 -116h-254q0 149 112 257.5t306 108.5t302.5 -88t108.5 -245
q0 -114 -72 -203t-207 -201l-198 -158h513z" />
    <glyph glyph-name="threequarters" unicode="&#xbe;" horiz-adv-x="2292" 
d="M583 1380v177h118q89 0 131 37.5t42 96.5q0 49 -37.5 86t-123.5 37q-65 0 -110 -28t-45 -77h-254q0 147 119.5 227t284.5 80q188 0 303.5 -79t115.5 -230q0 -79 -48.5 -140t-135.5 -94q204 -57 204 -253q0 -152 -125.5 -236t-313.5 -84q-104 0 -199.5 34t-157 107
t-61.5 191h255q0 -52 47 -89t128 -37q88 0 131 39t43 95q0 77 -52 108.5t-141 31.5h-118zM1893 1728l-976 -1564l-170 97l976 1567zM2239 433v-206h-134v-227h-253v227h-494l-12 165l503 692h256v-651h134zM1595 433h257v334l-18 -29z" />
    <glyph glyph-name="questiondown" unicode="&#xbf;" horiz-adv-x="1524" 
d="M832 1553q91 0 150.5 -59t59.5 -146t-59.5 -147t-150.5 -60q-88 0 -148.5 60t-60.5 147t60.5 146t148.5 59zM691 931h285q0 -158 -34 -265.5t-87.5 -180t-113.5 -126.5t-113.5 -104.5t-87.5 -112t-34 -151.5q0 -135 74.5 -209.5t201.5 -74.5q107 0 194.5 69t88.5 228h313
q0 -182 -79.5 -305t-214.5 -186t-302 -63q-274 0 -428 149t-154 394q0 120 35.5 202.5t91 144.5t118 117t118.5 118t91.5 148t36.5 208z" />
    <glyph glyph-name="Agrave" unicode="&#xc0;" horiz-adv-x="1978" 
d="M69 0zM406 0h-337l753 2048h333l753 -2048h-336l-172 496h-822zM977 1642l-305 -878h634l-305 878h-24zM893 2607l270 -416h-276l-370 416h376z" />
    <glyph glyph-name="Aacute" unicode="&#xc1;" horiz-adv-x="1978" 
d="M69 0zM406 0h-337l753 2048h333l753 -2048h-336l-172 496h-822zM977 1642l-305 -878h634l-305 878h-24zM838 2191l251 416h317l-332 -416h-236z" />
    <glyph glyph-name="Acircumflex" unicode="&#xc2;" horiz-adv-x="1978" 
d="M69 0zM406 0h-337l753 2048h333l753 -2048h-336l-172 496h-822zM977 1642l-305 -878h634l-305 878h-24zM761 2271l228 222l230 -222h251v15l-390 381h-183l-388 -381v-15h252z" />
    <glyph glyph-name="Atilde" unicode="&#xc3;" horiz-adv-x="1978" 
d="M1291 2640l202 -16q0 -154 -88 -253t-220 -99q-90 0 -144 31t-102.5 62t-122.5 31q-53 0 -89 -40t-36 -103l-205 10q0 151 88 254t220 103q74 0 131 -31t112.5 -61.5t125.5 -30.5q53 0 90.5 40t37.5 103zM406 0h-337l753 2048h333l753 -2048h-336l-172 496h-822z
M977 1642l-305 -878h634l-305 878h-24z" />
    <glyph glyph-name="Adieresis" unicode="&#xc4;" horiz-adv-x="1978" 
d="M705 2254q-71 0 -121.5 49.5t-50.5 116.5q0 72 50.5 120t121.5 48q73 0 121.5 -48t48.5 -120q0 -67 -48.5 -116.5t-121.5 -49.5zM1274 2254q-70 0 -120.5 49.5t-50.5 116.5q0 72 50.5 120t120.5 48q74 0 122 -48t48 -120q0 -67 -48 -116.5t-122 -49.5zM406 0h-337
l753 2048h333l753 -2048h-336l-172 496h-822zM977 1642l-305 -878h634l-305 878h-24z" />
    <glyph glyph-name="Aring" unicode="&#xc5;" horiz-adv-x="1978" 
d="M69 0zM406 0h-337l753 2048h333l753 -2048h-336l-172 496h-822zM977 1642l-305 -878h634l-305 878h-24zM645 2513q0 89 45.5 164t123.5 120t177 45q98 0 175.5 -45t122.5 -120t45 -164q0 -135 -98 -227t-245 -92q-148 0 -247 92t-99 227zM814 2513q0 -68 49 -121t128 -53
q78 0 127 53t49 121q0 70 -49 124.5t-127 54.5q-79 0 -128 -54.5t-49 -124.5z" />
    <glyph glyph-name="AE" unicode="&#xc6;" horiz-adv-x="2804" 
d="M2662 266v-266h-1213l-20 498h-733l-269 -498h-366l1154 2048h1363v-266h-894l25 -613h757v-265h-747l26 -638h917zM839 764h579l-41 997z" />
    <glyph glyph-name="Ccedilla" unicode="&#xc7;" horiz-adv-x="2017" 
d="M147 0zM1884 1407l-312 -21q-45 196 -190.5 297.5t-330.5 101.5q-168 0 -301.5 -85t-211.5 -254.5t-78 -422.5t78 -422t211.5 -253.5t301.5 -84.5q185 0 329.5 100t189.5 295l313 -21q-44 -211 -162.5 -359.5t-291.5 -227t-378 -78.5q-261 0 -465.5 126.5t-321.5 362
t-117 562.5t117 563t321.5 363t465.5 127q205 0 378 -79t292 -228.5t163 -361.5zM936 -6h238l-16 -77q77 -12 142 -65.5t65 -170.5q0 -136 -113 -221.5t-333 -85.5l-9 188q81 0 135 27.5t54 92.5t-49 88t-158 31z" />
    <glyph glyph-name="Egrave" unicode="&#xc8;" horiz-adv-x="1664" 
d="M209 0zM1498 272v-272h-1289v2048h1279v-272h-962v-614h846v-273h-846v-617h972zM774 2607l270 -416h-276l-370 416h376z" />
    <glyph glyph-name="Eacute" unicode="&#xc9;" horiz-adv-x="1664" 
d="M209 0zM1498 272v-272h-1289v2048h1279v-272h-962v-614h846v-273h-846v-617h972zM719 2191l251 416h317l-332 -416h-236z" />
    <glyph glyph-name="Ecircumflex" unicode="&#xca;" horiz-adv-x="1664" 
d="M209 0zM1498 272v-272h-1289v2048h1279v-272h-962v-614h846v-273h-846v-617h972zM642 2271l228 222l230 -222h251v15l-390 381h-183l-388 -381v-15h252z" />
    <glyph glyph-name="Edieresis" unicode="&#xcb;" horiz-adv-x="1664" 
d="M209 0zM1498 272v-272h-1289v2048h1279v-272h-962v-614h846v-273h-846v-617h972zM586 2227q-71 0 -121.5 49.5t-50.5 116.5q0 72 50.5 120t121.5 48q73 0 121.5 -48t48.5 -120q0 -67 -48.5 -116.5t-121.5 -49.5zM1155 2227q-70 0 -120.5 49.5t-50.5 116.5q0 72 50.5 120
t120.5 48q74 0 122 -48t48 -120q0 -67 -48 -116.5t-122 -49.5z" />
    <glyph glyph-name="Igrave" unicode="&#xcc;" horiz-adv-x="736" 
d="M0 0zM526 2048v-2048h-317v2048h317zM261 2607l270 -416h-276l-370 416h376z" />
    <glyph glyph-name="Iacute" unicode="&#xcd;" horiz-adv-x="736" 
d="M206 0zM526 2048v-2048h-317v2048h317zM206 2191l251 416h317l-332 -416h-236z" />
    <glyph glyph-name="Icircumflex" unicode="&#xce;" horiz-adv-x="736" 
d="M0 0zM526 2048v-2048h-317v2048h317zM129 2271l228 222l230 -222h251v15l-390 381h-183l-388 -381v-15h252z" />
    <glyph glyph-name="Idieresis" unicode="&#xcf;" horiz-adv-x="1049" 
d="M241 2254q-71 0 -121.5 49.5t-50.5 116.5q0 72 50.5 120t121.5 48q73 0 121.5 -48t48.5 -120q0 -67 -48.5 -116.5t-121.5 -49.5zM810 2254q-70 0 -120.5 49.5t-50.5 116.5q0 72 50.5 120t120.5 48q74 0 122 -48t48 -120q0 -67 -48 -116.5t-122 -49.5zM680 2048v-2048
h-317v2048h317z" />
    <glyph glyph-name="Eth" unicode="&#xd0;" horiz-adv-x="2023" 
d="M901 0h-662v917h-189v209h189v922h681q298 0 512 -122.5t328.5 -351t114.5 -547.5q0 -320 -115 -550t-333 -353.5t-526 -123.5zM966 1126v-209h-410v-639h327q341 0 510 193t169 556q0 360 -166.5 551.5t-494.5 191.5h-345v-644h410z" />
    <glyph glyph-name="Ntilde" unicode="&#xd1;" horiz-adv-x="2028" 
d="M209 0zM1819 2048v-2048h-309l-965 1494h-19v-1494h-317v2048h311l966 -1499h18v1499h315zM1334 2591l202 -16q0 -154 -88 -253t-220 -99q-90 0 -144 31t-102.5 62t-122.5 31q-53 0 -89 -40t-36 -103l-205 10q0 151 88 254t220 103q75 0 131.5 -31t112 -61.5t125.5 -30.5
q53 0 90.5 40t37.5 103z" />
    <glyph glyph-name="Ograve" unicode="&#xd2;" horiz-adv-x="2100" 
d="M147 0zM1953 1023q0 -328 -117.5 -563.5t-321.5 -361.5t-463 -126q-260 0 -464.5 126t-322 361.5t-117.5 563.5q0 329 117.5 564.5t322 362t464.5 126.5q259 0 463 -126.5t321.5 -362t117.5 -564.5zM1640 1023q0 255 -77.5 424t-211 253.5t-300.5 84.5t-300.5 -84.5
t-212 -253.5t-78.5 -424t78.5 -423.5t212 -252.5t300.5 -84t300.5 84t211 252.5t77.5 423.5zM955 2607l270 -416h-276l-370 416h376z" />
    <glyph glyph-name="Oacute" unicode="&#xd3;" horiz-adv-x="2100" 
d="M147 0zM1953 1023q0 -328 -117.5 -563.5t-321.5 -361.5t-463 -126q-260 0 -464.5 126t-322 361.5t-117.5 563.5q0 329 117.5 564.5t322 362t464.5 126.5q259 0 463 -126.5t321.5 -362t117.5 -564.5zM1640 1023q0 255 -77.5 424t-211 253.5t-300.5 84.5t-300.5 -84.5
t-212 -253.5t-78.5 -424t78.5 -423.5t212 -252.5t300.5 -84t300.5 84t211 252.5t77.5 423.5zM900 2191l251 416h317l-332 -416h-236z" />
    <glyph glyph-name="Ocircumflex" unicode="&#xd4;" horiz-adv-x="2100" 
d="M147 0zM1953 1023q0 -328 -117.5 -563.5t-321.5 -361.5t-463 -126q-260 0 -464.5 126t-322 361.5t-117.5 563.5q0 329 117.5 564.5t322 362t464.5 126.5q259 0 463 -126.5t321.5 -362t117.5 -564.5zM1640 1023q0 255 -77.5 424t-211 253.5t-300.5 84.5t-300.5 -84.5
t-212 -253.5t-78.5 -424t78.5 -423.5t212 -252.5t300.5 -84t300.5 84t211 252.5t77.5 423.5zM823 2271l228 222l230 -222h251v15l-390 381h-183l-388 -381v-15h252z" />
    <glyph glyph-name="Otilde" unicode="&#xd5;" horiz-adv-x="2100" 
d="M1352 2640l202 -16q0 -154 -88 -253t-220 -99q-90 0 -144 31t-102.5 62t-122.5 31q-53 0 -89 -40t-36 -103l-205 10q0 151 88 254t220 103q75 0 131.5 -31t112 -61.5t125.5 -30.5q53 0 90.5 40t37.5 103zM1953 1023q0 -328 -117.5 -563.5t-321.5 -361.5t-463 -126
q-260 0 -464.5 126t-322 361.5t-117.5 563.5q0 329 117.5 564.5t322 362t464.5 126.5q259 0 463 -126.5t321.5 -362t117.5 -564.5zM1640 1023q0 255 -77.5 424t-211 253.5t-300.5 84.5t-300.5 -84.5t-212 -253.5t-78.5 -424t78.5 -423.5t212 -252.5t300.5 -84t300.5 84
t211 252.5t77.5 423.5z" />
    <glyph glyph-name="Odieresis" unicode="&#xd6;" horiz-adv-x="2100" 
d="M766 2254q-70 0 -121 49.5t-51 116.5q0 72 51 120t121 48q74 0 122 -48t48 -120q0 -67 -48 -116.5t-122 -49.5zM1335 2254q-71 0 -121 49.5t-50 116.5q0 72 50 120t121 48q73 0 121.5 -48t48.5 -120q0 -67 -48.5 -116.5t-121.5 -49.5zM1953 1023q0 -328 -117.5 -563.5
t-321.5 -361.5t-463 -126q-260 0 -464.5 126t-322 361.5t-117.5 563.5q0 329 117.5 564.5t322 362t464.5 126.5q259 0 463 -126.5t321.5 -362t117.5 -564.5zM1640 1023q0 255 -77.5 424t-211 253.5t-300.5 84.5t-300.5 -84.5t-212 -253.5t-78.5 -424t78.5 -423.5t212 -252.5
t300.5 -84t300.5 84t211 252.5t77.5 423.5z" />
    <glyph glyph-name="multiply" unicode="&#xd7;" horiz-adv-x="1720" 
d="M422 262l-185 187l439 447l-450 458l185 187l449 -457l449 457l185 -187l-450 -458l439 -447l-185 -187l-438 446z" />
    <glyph glyph-name="Oslash" unicode="&#xd8;" horiz-adv-x="2100" 
d="M424 -89l-167 114l150 223q-122 135 -191 331t-69 444q0 329 117.5 564.5t322 362t464.5 126.5q279 0 493 -146l137 203l167 -114l-151 -224q120 -135 188 -330.5t68 -441.5q0 -328 -117.5 -563.5t-321.5 -361.5t-463 -126q-277 0 -490 142zM460 1023q0 -163 33.5 -290.5
t92.5 -220.5l791 1171q-138 102 -326 102q-167 0 -300.5 -84.5t-212 -253.5t-78.5 -424zM1640 1023q0 161 -32 287.5t-90 219.5l-790 -1169q138 -98 323 -98q167 0 300.5 84t211 252.5t77.5 423.5z" />
    <glyph glyph-name="Ugrave" unicode="&#xd9;" horiz-adv-x="2034" 
d="M209 0zM1507 2048h317v-1355q0 -231 -107.5 -393t-290 -247.5t-408.5 -85.5t-409.5 85.5t-291.5 247.5t-108 393v1355h317v-1350q0 -140 67 -239t179 -150.5t246 -51.5t245.5 51.5t177.5 150.5t66 239v1350zM921 2607l270 -416h-276l-370 416h376z" />
    <glyph glyph-name="Uacute" unicode="&#xda;" horiz-adv-x="2034" 
d="M209 0zM1507 2048h317v-1355q0 -231 -107.5 -393t-290 -247.5t-408.5 -85.5t-409.5 85.5t-291.5 247.5t-108 393v1355h317v-1350q0 -140 67 -239t179 -150.5t246 -51.5t245.5 51.5t177.5 150.5t66 239v1350zM866 2191l251 416h317l-332 -416h-236z" />
    <glyph glyph-name="Ucircumflex" unicode="&#xdb;" horiz-adv-x="2034" 
d="M209 0zM1507 2048h317v-1355q0 -231 -107.5 -393t-290 -247.5t-408.5 -85.5t-409.5 85.5t-291.5 247.5t-108 393v1355h317v-1350q0 -140 67 -239t179 -150.5t246 -51.5t245.5 51.5t177.5 150.5t66 239v1350zM789 2271l228 222l230 -222h251v15l-390 381h-183l-388 -381
v-15h252z" />
    <glyph glyph-name="Udieresis" unicode="&#xdc;" horiz-adv-x="2034" 
d="M209 0zM1507 2048h317v-1355q0 -231 -107.5 -393t-290 -247.5t-408.5 -85.5t-409.5 85.5t-291.5 247.5t-108 393v1355h317v-1350q0 -140 67 -239t179 -150.5t246 -51.5t245.5 51.5t177.5 150.5t66 239v1350zM733 2227q-71 0 -121.5 49.5t-50.5 116.5q0 72 50.5 120
t121.5 48q73 0 121.5 -48t48.5 -120q0 -67 -48.5 -116.5t-121.5 -49.5zM1302 2227q-70 0 -120.5 49.5t-50.5 116.5q0 72 50.5 120t120.5 48q74 0 122 -48t48 -120q0 -67 -48 -116.5t-122 -49.5z" />
    <glyph glyph-name="Yacute" unicode="&#xdd;" horiz-adv-x="1956" 
d="M67 0zM421 2048l545 -928h24l545 928h354l-752 -1224v-824h-317v824l-753 1224h354zM827 2191l251 416h317l-332 -416h-236z" />
    <glyph glyph-name="Thorn" unicode="&#xde;" horiz-adv-x="1780" 
d="M198 2048h318v-406h353q227 0 384 -80t238 -216.5t81 -305.5t-81 -305.5t-238 -216.5t-384 -80h-353v-438h-318v2048zM869 1378h-353v-677h353q199 0 300 91t101 244q0 154 -101 248t-300 94z" />
    <glyph glyph-name="germandbls" unicode="&#xdf;" horiz-adv-x="1686" 
d="M490 1497v-1497h-302v1497q0 309 152 466t406 157q142 0 268.5 -51t206.5 -159t80 -279q0 -97 -24.5 -166t-56 -123t-56 -105t-24.5 -114q0 -74 45 -126t111 -98.5t132.5 -102t111.5 -135t45 -199.5q0 -226 -148.5 -358t-419.5 -132q-131 0 -241 30t-169 69l98 242
q43 -23 120.5 -53.5t172.5 -30.5q149 0 218.5 68t69.5 158q0 85 -46 145t-114 109t-136.5 102.5t-114.5 125.5t-46 178q0 83 27 146t62.5 118t62.5 113.5t27 131.5q0 117 -79 172.5t-183 55.5q-126 0 -191 -84.5t-65 -270.5z" />
    <glyph glyph-name="agrave" unicode="&#xe0;" horiz-adv-x="1566" 
d="M123 0zM1077 0v184h-12q-24 -47 -77 -97.5t-138.5 -85t-208.5 -34.5q-144 0 -261.5 54.5t-187 159.5t-69.5 254q0 161 81.5 257t219.5 143.5t305 65.5q89 11 166.5 18.5t125.5 27t48 65.5v13q0 149 -79.5 211t-198.5 62q-142 0 -225.5 -65t-116.5 -148l-288 75
q49 140 145 227.5t222.5 128t264.5 40.5q93 0 195 -22t190.5 -79.5t144 -162.5t55.5 -271v-1021h-301zM1069 536v209q-17 -20 -80 -35t-134.5 -24.5t-114.5 -15.5q-138 -17 -226 -69t-88 -171q0 -104 76.5 -158.5t196.5 -54.5q171 0 270.5 97.5t99.5 221.5zM695 2123
l270 -416h-276l-370 416h376z" />
    <glyph glyph-name="aacute" unicode="&#xe1;" horiz-adv-x="1566" 
d="M123 0zM1077 0v184h-12q-24 -47 -77 -97.5t-138.5 -85t-208.5 -34.5q-144 0 -261.5 54.5t-187 159.5t-69.5 254q0 161 81.5 257t219.5 143.5t305 65.5q89 11 166.5 18.5t125.5 27t48 65.5v13q0 149 -79.5 211t-198.5 62q-142 0 -225.5 -65t-116.5 -148l-288 75
q49 140 145 227.5t222.5 128t264.5 40.5q93 0 195 -22t190.5 -79.5t144 -162.5t55.5 -271v-1021h-301zM1069 536v209q-17 -20 -80 -35t-134.5 -24.5t-114.5 -15.5q-138 -17 -226 -69t-88 -171q0 -104 76.5 -158.5t196.5 -54.5q171 0 270.5 97.5t99.5 221.5zM640 1707
l251 416h317l-332 -416h-236z" />
    <glyph glyph-name="acircumflex" unicode="&#xe2;" horiz-adv-x="1566" 
d="M123 0zM1077 0v184h-12q-24 -47 -77 -97.5t-138.5 -85t-208.5 -34.5q-144 0 -261.5 54.5t-187 159.5t-69.5 254q0 161 81.5 257t219.5 143.5t305 65.5q89 11 166.5 18.5t125.5 27t48 65.5v13q0 149 -79.5 211t-198.5 62q-142 0 -225.5 -65t-116.5 -148l-288 75
q49 140 145 227.5t222.5 128t264.5 40.5q93 0 195 -22t190.5 -79.5t144 -162.5t55.5 -271v-1021h-301zM1069 536v209q-17 -20 -80 -35t-134.5 -24.5t-114.5 -15.5q-138 -17 -226 -69t-88 -171q0 -104 76.5 -158.5t196.5 -54.5q171 0 270.5 97.5t99.5 221.5zM563 1787
l228 222l230 -222h251v15l-390 381h-183l-388 -381v-15h252z" />
    <glyph glyph-name="atilde" unicode="&#xe3;" horiz-adv-x="1568" 
d="M1056 2108l202 -16q0 -154 -88 -253t-220 -99q-90 0 -144 31t-102.5 62t-122.5 31q-53 0 -89 -40t-36 -103l-205 10q0 151 88 254t220 103q75 0 131.5 -31t112 -61.5t125.5 -30.5q53 0 90.5 40t37.5 103zM1077 0v184h-12q-24 -47 -77 -97.5t-138.5 -85t-208.5 -34.5
q-144 0 -261.5 54.5t-187 159.5t-69.5 254q0 161 81.5 257t219.5 143.5t305 65.5q89 11 166.5 18.5t125.5 27t48 65.5v13q0 149 -79.5 211t-198.5 62q-142 0 -225.5 -65t-116.5 -148l-288 75q49 140 145 227.5t222.5 128t264.5 40.5q93 0 195 -22t190.5 -79.5t144 -162.5
t55.5 -271v-1021h-301zM1069 536v209q-17 -20 -80 -35t-134.5 -24.5t-114.5 -15.5q-138 -17 -226 -69t-88 -171q0 -104 76.5 -158.5t196.5 -54.5q171 0 270.5 97.5t99.5 221.5z" />
    <glyph glyph-name="adieresis" unicode="&#xe4;" horiz-adv-x="1568" 
d="M492 1742q-70 0 -121 49.5t-51 116.5q0 72 51 120t121 48q74 0 122 -48t48 -120q0 -67 -48 -116.5t-122 -49.5zM1061 1742q-71 0 -121 49.5t-50 116.5q0 72 50 120t121 48q73 0 121.5 -48t48.5 -120q0 -67 -48.5 -116.5t-121.5 -49.5zM1077 0v184h-12q-24 -47 -77 -97.5
t-138.5 -85t-208.5 -34.5q-144 0 -261.5 54.5t-187 159.5t-69.5 254q0 161 81.5 257t219.5 143.5t305 65.5q89 11 166.5 18.5t125.5 27t48 65.5v13q0 149 -79.5 211t-198.5 62q-142 0 -225.5 -65t-116.5 -148l-288 75q49 140 145 227.5t222.5 128t264.5 40.5q93 0 195 -22
t190.5 -79.5t144 -162.5t55.5 -271v-1021h-301zM1069 536v209q-17 -20 -80 -35t-134.5 -24.5t-114.5 -15.5q-138 -17 -226 -69t-88 -171q0 -104 76.5 -158.5t196.5 -54.5q171 0 270.5 97.5t99.5 221.5z" />
    <glyph glyph-name="aring" unicode="&#xe5;" horiz-adv-x="1566" 
d="M123 0zM1077 0v184h-12q-24 -47 -77 -97.5t-138.5 -85t-208.5 -34.5q-144 0 -261.5 54.5t-187 159.5t-69.5 254q0 161 81.5 257t219.5 143.5t305 65.5q89 11 166.5 18.5t125.5 27t48 65.5v13q0 149 -79.5 211t-198.5 62q-142 0 -225.5 -65t-116.5 -148l-288 75
q49 140 145 227.5t222.5 128t264.5 40.5q93 0 195 -22t190.5 -79.5t144 -162.5t55.5 -271v-1021h-301zM1069 536v209q-17 -20 -80 -35t-134.5 -24.5t-114.5 -15.5q-138 -17 -226 -69t-88 -171q0 -104 76.5 -158.5t196.5 -54.5q171 0 270.5 97.5t99.5 221.5zM447 2029
q0 89 45.5 164t123.5 120t177 45q98 0 175.5 -45t122.5 -120t45 -164q0 -135 -98 -227t-245 -92q-148 0 -247 92t-99 227zM616 2029q0 -68 49 -121t128 -53q78 0 127 53t49 121q0 70 -49 124.5t-127 54.5q-79 0 -128 -54.5t-49 -124.5z" />
    <glyph glyph-name="ae" unicode="&#xe6;" horiz-adv-x="2542" 
d="M163 1160q49 140 145 227.5t223 128t265 40.5q171 0 290.5 -56.5t182.5 -147.5q85 97 205 150.5t272 53.5q176 0 330 -77t248.5 -243t94.5 -434v-99l-1072 -92q30 -183 136.5 -281.5t281.5 -98.5q140 0 225.5 61.5t123.5 165.5l285 -78q-33 -110 -115.5 -204t-213 -150.5
t-304.5 -56.5q-207 0 -346 83t-219 232h-7q-10 -48 -70.5 -123t-175 -134.5t-284.5 -59.5q-144 0 -266.5 52t-197 156.5t-74.5 259.5q0 161 81.5 257t219 143.5t305.5 65.5q88 11 165.5 18.5t126 27t48.5 65.5v13q0 149 -80 211t-198 62q-142 0 -225.5 -65t-117.5 -148z
M1745 1295q-170 0 -278.5 -119t-127.5 -334l780 64q0 167 -100.5 278t-273.5 111zM1072 536v209q-18 -20 -80.5 -35t-134 -24.5t-114.5 -15.5q-138 -17 -226.5 -69t-88.5 -171q0 -104 76.5 -158.5t196.5 -54.5q172 0 271.5 97.5t99.5 221.5z" />
    <glyph glyph-name="ccedilla" unicode="&#xe7;" horiz-adv-x="1566" 
d="M123 0zM1456 1062l-294 -26q-27 107 -109.5 183t-224.5 76q-190 0 -297.5 -144t-107.5 -383q0 -243 106 -390t299 -147q128 0 214 66.5t117 182.5l296 -24q-37 -212 -203.5 -349.5t-423.5 -137.5q-218 0 -376 102t-243.5 282.5t-85.5 414.5q0 230 86.5 408t244.5 279
t371 101q252 0 424 -135t207 -359zM708 5h238l-16 -77q77 -12 142 -65.5t65 -170.5q0 -136 -113 -221.5t-333 -85.5l-9 188q81 0 135 27.5t54 92.5t-49 88t-158 31z" />
    <glyph glyph-name="egrave" unicode="&#xe8;" horiz-adv-x="1631" 
d="M123 0zM852 -31q-226 0 -389.5 96.5t-251.5 272.5t-88 414q0 236 86 417t245.5 284t377.5 103q176 0 330 -77t248.5 -243t94.5 -434v-129h-1213v233h912q0 167 -100 278t-273 111q-186 0 -297.5 -141.5t-111.5 -393.5q0 -254 110.5 -391.5t318.5 -137.5q139 0 225 61.5
t124 165.5l284 -78q-32 -110 -114 -204t-212 -150.5t-306 -56.5zM724 2123l270 -416h-276l-370 416h376z" />
    <glyph glyph-name="eacute" unicode="&#xe9;" horiz-adv-x="1631" 
d="M123 0zM852 -31q-226 0 -389.5 96.5t-251.5 272.5t-88 414q0 236 86 417t245.5 284t377.5 103q176 0 330 -77t248.5 -243t94.5 -434v-129h-1213v233h912q0 167 -100 278t-273 111q-186 0 -297.5 -141.5t-111.5 -393.5q0 -254 110.5 -391.5t318.5 -137.5q139 0 225 61.5
t124 165.5l284 -78q-32 -110 -114 -204t-212 -150.5t-306 -56.5zM669 1707l251 416h317l-332 -416h-236z" />
    <glyph glyph-name="ecircumflex" unicode="&#xea;" horiz-adv-x="1631" 
d="M123 0zM852 -31q-226 0 -389.5 96.5t-251.5 272.5t-88 414q0 236 86 417t245.5 284t377.5 103q176 0 330 -77t248.5 -243t94.5 -434v-129h-1213v233h912q0 167 -100 278t-273 111q-186 0 -297.5 -141.5t-111.5 -393.5q0 -254 110.5 -391.5t318.5 -137.5q139 0 225 61.5
t124 165.5l284 -78q-32 -110 -114 -204t-212 -150.5t-306 -56.5zM592 1787l228 222l230 -222h251v15l-390 381h-183l-388 -381v-15h252z" />
    <glyph glyph-name="edieresis" unicode="&#xeb;" horiz-adv-x="1628" 
d="M531 1742q-71 0 -121.5 49.5t-50.5 116.5q0 72 50.5 120t121.5 48q73 0 121.5 -48t48.5 -120q0 -67 -48.5 -116.5t-121.5 -49.5zM1100 1742q-70 0 -120.5 49.5t-50.5 116.5q0 72 50.5 120t120.5 48q74 0 122 -48t48 -120q0 -67 -48 -116.5t-122 -49.5zM852 -31
q-226 0 -389.5 96.5t-251.5 272.5t-88 414q0 236 86 417t245.5 284t377.5 103q176 0 330 -77t248.5 -243t94.5 -434v-129h-1079q18 -213 127 -327.5t298 -114.5q139 0 225 61.5t124 165.5l284 -78q-32 -110 -114 -204t-212 -150.5t-306 -56.5zM831 1295q-157 0 -262 -102
t-136 -287h771q0 167 -100 278t-273 111z" />
    <glyph glyph-name="igrave" unicode="&#xec;" horiz-adv-x="693" 
d="M0 0zM500 1536v-1536h-307v1536h307zM258 2115l270 -416h-276l-370 416h376z" />
    <glyph glyph-name="iacute" unicode="&#xed;" horiz-adv-x="693" 
d="M193 0zM500 1536v-1536h-307v1536h307zM203 1699l251 416h317l-332 -416h-236z" />
    <glyph glyph-name="icircumflex" unicode="&#xee;" horiz-adv-x="693" 
d="M0 0zM500 1536v-1536h-307v1536h307zM126 1779l228 222l230 -222h251v15l-390 381h-183l-388 -381v-15h252z" />
    <glyph glyph-name="idieresis" unicode="&#xef;" horiz-adv-x="1285" 
d="M359 1742q-71 0 -121.5 49.5t-50.5 116.5q0 72 50.5 120t121.5 48q73 0 121.5 -48t48.5 -120q0 -67 -48.5 -116.5t-121.5 -49.5zM928 1742q-70 0 -120.5 49.5t-50.5 116.5q0 72 50.5 120t120.5 48q74 0 122 -48t48 -120q0 -67 -48 -116.5t-122 -49.5zM796 1536v-1536
h-307v1536h307z" />
    <glyph glyph-name="eth" unicode="&#xf0;" horiz-adv-x="1590" 
d="M795 -32q-206 0 -357 95t-233 261t-82 380t78 375t206.5 254t280.5 101q145 5 251 -58t160 -146h20q-48 110 -121 225t-190 228l-348 -173l-86 173l272 136q-110 81 -243 152l136 205q88 -46 177 -105t174 -131l310 155l85 -174l-246 -123q184 -196 306 -459t122 -587
q0 -248 -84 -423.5t-235 -268t-353 -92.5zM802 226q186 0 284.5 130t98.5 338q0 132 -41 246t-125.5 183.5t-216.5 69.5q-186 0 -282.5 -138t-96.5 -350q0 -203 92 -341t287 -138z" />
    <glyph glyph-name="ntilde" unicode="&#xf1;" horiz-adv-x="1632" 
d="M1074 2108l202 -16q0 -154 -88 -253t-220 -99q-90 0 -144 31t-102.5 62t-122.5 31q-53 0 -89 -40t-36 -103l-205 10q0 151 88 254t220 103q75 0 131.5 -31t112 -61.5t125.5 -30.5q53 0 90.5 40t37.5 103zM495 879v-879h-307v1536h296v-229h16q58 107 170 178t272 71
q140 0 253.5 -61t181 -190t67.5 -334v-971h-308v955q0 154 -84.5 241.5t-214.5 87.5q-87 0 -165 -46t-127.5 -136t-49.5 -223z" />
    <glyph glyph-name="ograve" unicode="&#xf2;" horiz-adv-x="1656" 
d="M123 0zM828 -31q-214 0 -372 100t-245.5 278.5t-87.5 415.5t87.5 415.5t245.5 278t372 99.5t372.5 -99.5t245.5 -278t87 -415.5t-87 -415.5t-245.5 -278.5t-372.5 -100zM828 231q141 0 230.5 72t132 193t42.5 267q0 145 -42.5 266t-132 193.5t-230.5 72.5
q-140 0 -230 -72.5t-132.5 -193.5t-42.5 -266q0 -146 42.5 -267t132.5 -193t230 -72zM722 2123l270 -416h-276l-370 416h376z" />
    <glyph glyph-name="oacute" unicode="&#xf3;" horiz-adv-x="1656" 
d="M123 0zM828 -31q-214 0 -372 100t-245.5 278.5t-87.5 415.5t87.5 415.5t245.5 278t372 99.5t372.5 -99.5t245.5 -278t87 -415.5t-87 -415.5t-245.5 -278.5t-372.5 -100zM828 231q141 0 230.5 72t132 193t42.5 267q0 145 -42.5 266t-132 193.5t-230.5 72.5
q-140 0 -230 -72.5t-132.5 -193.5t-42.5 -266q0 -146 42.5 -267t132.5 -193t230 -72zM667 1707l251 416h317l-332 -416h-236z" />
    <glyph glyph-name="ocircumflex" unicode="&#xf4;" horiz-adv-x="1656" 
d="M123 0zM828 -31q-214 0 -372 100t-245.5 278.5t-87.5 415.5t87.5 415.5t245.5 278t372 99.5t372.5 -99.5t245.5 -278t87 -415.5t-87 -415.5t-245.5 -278.5t-372.5 -100zM828 231q141 0 230.5 72t132 193t42.5 267q0 145 -42.5 266t-132 193.5t-230.5 72.5
q-140 0 -230 -72.5t-132.5 -193.5t-42.5 -266q0 -146 42.5 -267t132.5 -193t230 -72zM590 1787l228 222l230 -222h251v15l-390 381h-183l-388 -381v-15h252z" />
    <glyph glyph-name="otilde" unicode="&#xf5;" horiz-adv-x="1656" 
d="M1130 2108l202 -16q0 -154 -88 -253t-220 -99q-90 0 -144 31t-102.5 62t-122.5 31q-53 0 -89 -40t-36 -103l-205 10q0 151 88 254t220 103q75 0 131.5 -31t112 -61.5t125.5 -30.5q53 0 90.5 40t37.5 103zM828 -31q-214 0 -372 100t-245.5 278.5t-87.5 415.5t87.5 415.5
t245.5 278t372 99.5t372.5 -99.5t245.5 -278t87 -415.5t-87 -415.5t-245.5 -278.5t-372.5 -100zM828 231q141 0 230.5 72t132 193t42.5 267q0 145 -42.5 266t-132 193.5t-230.5 72.5q-140 0 -230 -72.5t-132.5 -193.5t-42.5 -266q0 -146 42.5 -267t132.5 -193t230 -72z" />
    <glyph glyph-name="odieresis" unicode="&#xf6;" horiz-adv-x="1656" 
d="M544 1742q-70 0 -121 49.5t-51 116.5q0 72 51 120t121 48q74 0 122 -48t48 -120q0 -67 -48 -116.5t-122 -49.5zM1113 1742q-71 0 -121 49.5t-50 116.5q0 72 50 120t121 48q73 0 121.5 -48t48.5 -120q0 -67 -48.5 -116.5t-121.5 -49.5zM828 -31q-214 0 -372 100
t-245.5 278.5t-87.5 415.5t87.5 415.5t245.5 278t372 99.5t372.5 -99.5t245.5 -278t87 -415.5t-87 -415.5t-245.5 -278.5t-372.5 -100zM828 231q141 0 230.5 72t132 193t42.5 267q0 145 -42.5 266t-132 193.5t-230.5 72.5q-140 0 -230 -72.5t-132.5 -193.5t-42.5 -266
q0 -146 42.5 -267t132.5 -193t230 -72z" />
    <glyph glyph-name="divide" unicode="&#xf7;" horiz-adv-x="1720" 
d="M667 1421q0 79 50.5 130.5t142.5 51.5q91 0 142.5 -51.5t51.5 -130.5q0 -77 -51.5 -127.5t-142.5 -50.5q-92 0 -142.5 50.5t-50.5 127.5zM1500 1028v-262h-1280v262h1280zM667 366q0 79 50.5 131.5t142.5 52.5q91 0 142.5 -52.5t51.5 -131.5q0 -76 -51.5 -127t-142.5 -51
q-92 0 -142.5 51t-50.5 127z" />
    <glyph glyph-name="oslash" unicode="&#xf8;" horiz-adv-x="1656" 
d="M375 -89l-168 114l110 162q-93 105 -143.5 251.5t-50.5 324.5q0 237 87.5 415.5t246 278t371.5 99.5q198 0 353 -88l98 145l168 -114l-108 -160q93 -104 143.5 -250.5t50.5 -325.5q0 -237 -87 -415.5t-245.5 -278.5t-372.5 -100q-198 0 -354 89zM423 763q0 -90 16 -172
t49 -149l541 800q-86 53 -201 53q-140 0 -230 -72.5t-132.5 -193.5t-42.5 -266zM828 231q141 0 230.5 72t132 193t42.5 267q0 90 -16 172.5t-50 149.5l-540 -801q86 -53 201 -53z" />
    <glyph glyph-name="ugrave" unicode="&#xf9;" horiz-adv-x="1632" 
d="M188 0zM1136 644v892h308v-1536h-296v199h-16q-60 -85 -171 -152t-271 -67q-118 0 -233.5 59.5t-192 188t-76.5 337.5v971h307v-966q0 -154 84.5 -236t214.5 -82q88 0 166 43t127 129.5t49 219.5zM713 2123l270 -416h-276l-370 416h376z" />
    <glyph glyph-name="uacute" unicode="&#xfa;" horiz-adv-x="1632" 
d="M188 0zM1136 644v892h308v-1536h-296v199h-16q-60 -85 -171 -152t-271 -67q-118 0 -233.5 59.5t-192 188t-76.5 337.5v971h307v-966q0 -154 84.5 -236t214.5 -82q88 0 166 43t127 129.5t49 219.5zM658 1707l251 416h317l-332 -416h-236z" />
    <glyph glyph-name="ucircumflex" unicode="&#xfb;" horiz-adv-x="1632" 
d="M188 0zM1136 644v892h308v-1536h-296v199h-16q-60 -85 -171 -152t-271 -67q-118 0 -233.5 59.5t-192 188t-76.5 337.5v971h307v-966q0 -154 84.5 -236t214.5 -82q88 0 166 43t127 129.5t49 219.5zM581 1787l228 222l230 -222h251v15l-390 381h-183l-388 -381v-15h252z
" />
    <glyph glyph-name="udieresis" unicode="&#xfc;" horiz-adv-x="1632" 
d="M531 1742q-71 0 -121.5 49.5t-50.5 116.5q0 72 50.5 120t121.5 48q73 0 121.5 -48t48.5 -120q0 -67 -48.5 -116.5t-121.5 -49.5zM1100 1742q-70 0 -120.5 49.5t-50.5 116.5q0 72 50.5 120t120.5 48q74 0 122 -48t48 -120q0 -67 -48 -116.5t-122 -49.5zM1136 644v892h308
v-1536h-296v199h-16q-60 -85 -171 -152t-271 -67q-118 0 -233.5 59.5t-192 188t-76.5 337.5v971h307v-966q0 -154 84.5 -236t214.5 -82q88 0 166 43t127 129.5t49 219.5z" />
    <glyph glyph-name="yacute" unicode="&#xfd;" horiz-adv-x="1589" 
d="M78 0zM600 -111l42 112l-564 1535h325l383 -1124h17l383 1124h325l-655 -1775q-58 -157 -175 -257.5t-305 -100.5q-62 0 -111 10t-80 23l73 254q134 -34 208.5 5t133.5 194zM629 1707l251 416h317l-332 -416h-236z" />
    <glyph glyph-name="thorn" unicode="&#xfe;" horiz-adv-x="1685" 
d="M188 2048h307v-730h19q26 46 73.5 101.5t129 96t209.5 40.5q181 0 324.5 -93.5t227 -270t83.5 -427.5q0 -249 -82 -427t-225 -272.5t-325 -94.5q-127 0 -209 40t-131 96t-75 103h-19v-786h-307v2624zM1263 768q0 230 -100 378.5t-300 148.5q-197 0 -292 -147.5
t-95 -379.5q0 -233 95 -385t292 -152q198 0 299 152.5t101 384.5z" />
    <glyph glyph-name="ydieresis" unicode="&#xff;" horiz-adv-x="1524" 
d="M478 1742q-70 0 -121 49.5t-51 116.5q0 72 51 120t121 48q74 0 122 -48t48 -120q0 -67 -48 -116.5t-122 -49.5zM1047 1742q-71 0 -121 49.5t-50 116.5q0 72 50 120t121 48q73 0 121.5 -48t48.5 -120q0 -67 -48.5 -116.5t-121.5 -49.5zM600 -111l42 112l-564 1535h325
l383 -1124h17l383 1124h325l-655 -1775q-58 -157 -175 -257.5t-305 -100.5q-62 0 -111 10t-80 23l73 254q134 -34 208.5 5t133.5 194z" />
    <glyph glyph-name="Amacron" unicode="&#x100;" horiz-adv-x="1978" 
d="M69 0zM406 0h-337l753 2048h333l753 -2048h-336l-172 496h-822zM977 1642l-305 -878h634l-305 878h-24zM1467 2494v-214h-943v214h943z" />
    <glyph glyph-name="amacron" unicode="&#x101;" horiz-adv-x="1566" 
d="M123 0zM1077 0v184h-12q-24 -47 -77 -97.5t-138.5 -85t-208.5 -34.5q-144 0 -261.5 54.5t-187 159.5t-69.5 254q0 161 81.5 257t219.5 143.5t305 65.5q89 11 166.5 18.5t125.5 27t48 65.5v13q0 149 -79.5 211t-198.5 62q-142 0 -225.5 -65t-116.5 -148l-288 75
q49 140 145 227.5t222.5 128t264.5 40.5q93 0 195 -22t190.5 -79.5t144 -162.5t55.5 -271v-1021h-301zM1069 536v209q-17 -20 -80 -35t-134.5 -24.5t-114.5 -15.5q-138 -17 -226 -69t-88 -171q0 -104 76.5 -158.5t196.5 -54.5q171 0 270.5 97.5t99.5 221.5zM1269 2010v-214
h-943v214h943z" />
    <glyph glyph-name="Abreve" unicode="&#x102;" horiz-adv-x="1978" 
d="M69 0zM406 0h-337l753 2048h333l753 -2048h-336l-172 496h-822zM977 1642l-305 -878h634l-305 878h-24zM1184 2570h248q0 -169 -119 -277.5t-324 -108.5q-201 0 -320 108.5t-119 277.5h247q0 -75 43.5 -132t148.5 -57t150 57t45 132z" />
    <glyph glyph-name="abreve" unicode="&#x103;" horiz-adv-x="1566" 
d="M123 0zM1077 0v184h-12q-24 -47 -77 -97.5t-138.5 -85t-208.5 -34.5q-144 0 -261.5 54.5t-187 159.5t-69.5 254q0 161 81.5 257t219.5 143.5t305 65.5q89 11 166.5 18.5t125.5 27t48 65.5v13q0 149 -79.5 211t-198.5 62q-142 0 -225.5 -65t-116.5 -148l-288 75
q49 140 145 227.5t222.5 128t264.5 40.5q93 0 195 -22t190.5 -79.5t144 -162.5t55.5 -271v-1021h-301zM1069 536v209q-17 -20 -80 -35t-134.5 -24.5t-114.5 -15.5q-138 -17 -226 -69t-88 -171q0 -104 76.5 -158.5t196.5 -54.5q171 0 270.5 97.5t99.5 221.5zM986 2086h248
q0 -169 -119 -277.5t-324 -108.5q-201 0 -320 108.5t-119 277.5h247q0 -75 43.5 -132t148.5 -57t150 57t45 132z" />
    <glyph glyph-name="Aogonek" unicode="&#x104;" horiz-adv-x="1978" 
d="M406 0h-337l753 2048h333l753 -2048h-81q-96 -63 -159.5 -128.5t-63.5 -148.5q0 -43 21.5 -68.5t77.5 -25.5q42 0 72.5 11.5t50.5 21.5l27 -193q-34 -21 -88 -40.5t-137 -19.5q-122 0 -206 69.5t-84 203.5q0 89 51 176.5t175 165.5l-164 472h-822zM977 1642l-305 -878
h634l-305 878h-24z" />
    <glyph glyph-name="aogonek" unicode="&#x105;" horiz-adv-x="1566" 
d="M1400 -531q-34 -21 -88 -40.5t-137 -19.5q-121 0 -205.5 69.5t-84.5 203.5q0 83 43.5 164.5t148.5 155.5v182h-12q-24 -47 -77 -97.5t-138.5 -85t-208.5 -34.5q-144 0 -261.5 54.5t-187 159.5t-69.5 254q0 161 81.5 257t219.5 143.5t305 65.5q89 11 166.5 18.5t125.5 27
t48 65.5v13q0 149 -79.5 211t-198.5 62q-142 0 -225.5 -65t-116.5 -148l-288 75q49 140 145 227.5t222.5 128t264.5 40.5q93 0 195 -22t190.5 -79.5t144 -162.5t55.5 -271v-1021h-4q-96 -63 -159.5 -128.5t-63.5 -148.5q0 -43 21.5 -68.5t77.5 -25.5q42 0 72.5 11.5
t50.5 21.5zM1069 536v209q-17 -20 -80 -35t-134.5 -24.5t-114.5 -15.5q-138 -17 -226 -69t-88 -171q0 -104 76.5 -158.5t196.5 -54.5q171 0 270.5 97.5t99.5 221.5z" />
    <glyph glyph-name="Cacute" unicode="&#x106;" horiz-adv-x="2017" 
d="M147 0zM1884 1407l-312 -21q-45 196 -190.5 297.5t-330.5 101.5q-168 0 -301.5 -85t-211.5 -254.5t-78 -422.5t78 -422t211.5 -253.5t301.5 -84.5q185 0 329.5 100t189.5 295l313 -21q-44 -211 -162.5 -359.5t-291.5 -227t-378 -78.5q-261 0 -465.5 126.5t-321.5 362
t-117 562.5t117 563t321.5 363t465.5 127q205 0 378 -79t292 -228.5t163 -361.5zM900 2191l251 416h317l-332 -416h-236z" />
    <glyph glyph-name="cacute" unicode="&#x107;" horiz-adv-x="1566" 
d="M123 0zM1456 1062l-294 -26q-27 107 -109.5 183t-224.5 76q-190 0 -297.5 -144t-107.5 -383q0 -243 106 -390t299 -147q128 0 214 66.5t117 182.5l296 -24q-37 -212 -203.5 -349.5t-423.5 -137.5q-218 0 -376 102t-243.5 282.5t-85.5 414.5q0 230 86.5 408t244.5 279
t371 101q252 0 424 -135t207 -359zM670 1707l251 416h317l-332 -416h-236z" />
    <glyph glyph-name="Ccircumflex" unicode="&#x108;" horiz-adv-x="2017" 
d="M147 0zM1884 1407l-312 -21q-45 196 -190.5 297.5t-330.5 101.5q-168 0 -301.5 -85t-211.5 -254.5t-78 -422.5t78 -422t211.5 -253.5t301.5 -84.5q185 0 329.5 100t189.5 295l313 -21q-44 -211 -162.5 -359.5t-291.5 -227t-378 -78.5q-261 0 -465.5 126.5t-321.5 362
t-117 562.5t117 563t321.5 363t465.5 127q205 0 378 -79t292 -228.5t163 -361.5zM823 2271l228 222l230 -222h251v15l-390 381h-183l-388 -381v-15h252z" />
    <glyph glyph-name="ccircumflex" unicode="&#x109;" horiz-adv-x="1566" 
d="M123 0zM1456 1062l-294 -26q-27 107 -109.5 183t-224.5 76q-190 0 -297.5 -144t-107.5 -383q0 -243 106 -390t299 -147q128 0 214 66.5t117 182.5l296 -24q-37 -212 -203.5 -349.5t-423.5 -137.5q-218 0 -376 102t-243.5 282.5t-85.5 414.5q0 230 86.5 408t244.5 279
t371 101q252 0 424 -135t207 -359zM593 1787l228 222l230 -222h251v15l-390 381h-183l-388 -381v-15h252z" />
    <glyph glyph-name="Cdotaccent" unicode="&#x10a;" horiz-adv-x="2017" 
d="M147 0zM1884 1407l-312 -21q-45 196 -190.5 297.5t-330.5 101.5q-168 0 -301.5 -85t-211.5 -254.5t-78 -422.5t78 -422t211.5 -253.5t301.5 -84.5q185 0 329.5 100t189.5 295l313 -21q-44 -211 -162.5 -359.5t-291.5 -227t-378 -78.5q-261 0 -465.5 126.5t-321.5 362
t-117 562.5t117 563t321.5 363t465.5 127q205 0 378 -79t292 -228.5t163 -361.5zM875 2404q0 73 45.5 121.5t130.5 48.5t132 -48.5t47 -121.5q0 -70 -47 -117t-132 -47t-130.5 47t-45.5 117z" />
    <glyph glyph-name="cdotaccent" unicode="&#x10b;" horiz-adv-x="1566" 
d="M123 0zM1456 1062l-294 -26q-27 107 -109.5 183t-224.5 76q-190 0 -297.5 -144t-107.5 -383q0 -243 106 -390t299 -147q128 0 214 66.5t117 182.5l296 -24q-37 -212 -203.5 -349.5t-423.5 -137.5q-218 0 -376 102t-243.5 282.5t-85.5 414.5q0 230 86.5 408t244.5 279
t371 101q252 0 424 -135t207 -359zM645 1920q0 73 45.5 121.5t130.5 48.5t132 -48.5t47 -121.5q0 -70 -47 -117t-132 -47t-130.5 47t-45.5 117z" />
    <glyph glyph-name="Ccaron" unicode="&#x10c;" horiz-adv-x="2017" 
d="M147 0zM1884 1407l-312 -21q-45 196 -190.5 297.5t-330.5 101.5q-168 0 -301.5 -85t-211.5 -254.5t-78 -422.5t78 -422t211.5 -253.5t301.5 -84.5q185 0 329.5 100t189.5 295l313 -21q-44 -211 -162.5 -359.5t-291.5 -227t-378 -78.5q-261 0 -465.5 126.5t-321.5 362
t-117 562.5t117 563t321.5 363t465.5 127q205 0 378 -79t292 -228.5t163 -361.5zM823 2599l228 -222l230 222h251v-15l-390 -381h-183l-388 381v15h252z" />
    <glyph glyph-name="ccaron" unicode="&#x10d;" horiz-adv-x="1566" 
d="M123 0zM1456 1062l-294 -26q-27 107 -109.5 183t-224.5 76q-190 0 -297.5 -144t-107.5 -383q0 -243 106 -390t299 -147q128 0 214 66.5t117 182.5l296 -24q-37 -212 -203.5 -349.5t-423.5 -137.5q-218 0 -376 102t-243.5 282.5t-85.5 414.5q0 230 86.5 408t244.5 279
t371 101q252 0 424 -135t207 -359zM593 2115l228 -222l230 222h251v-15l-390 -381h-183l-388 381v15h252z" />
    <glyph glyph-name="Dcaron" unicode="&#x10e;" horiz-adv-x="1993" 
d="M209 0zM871 0h-662v2048h681q298 0 512 -122.5t328.5 -351t114.5 -547.5q0 -320 -115 -550t-333 -353.5t-526 -123.5zM871 1770h-345v-1492h327q341 0 510 193t169 556q0 360 -166.5 551.5t-494.5 191.5zM594 2599l228 -222l230 222h251v-15l-390 -381h-183l-388 381v15
h252z" />
    <glyph glyph-name="dcaron" unicode="&#x10f;" horiz-adv-x="1835" 
d="M123 0zM1497 0h-301v210h-23q-26 -47 -75.5 -103t-132.5 -96t-209 -40q-182 0 -325.5 94.5t-225.5 272.5t-82 427q0 251 83.5 427.5t227.5 270t325 93.5q127 0 209.5 -40.5t130.5 -96t74 -101.5h16v730h308v-2048zM422 768q0 -232 100.5 -384.5t298.5 -152.5
q197 0 292.5 152t95.5 385q0 232 -95 379.5t-293 147.5q-199 0 -299 -148.5t-100 -378.5zM1893 2142v-158q-2 -143 -43.5 -295t-128.5 -265l-208 63q49 112 81.5 234t32.5 252v169h266z" />
    <glyph glyph-name="Dcroat" unicode="&#x110;" horiz-adv-x="2023" 
d="M901 0h-662v917h-189v209h189v922h681q298 0 512 -122.5t328.5 -351t114.5 -547.5q0 -320 -115 -550t-333 -353.5t-526 -123.5zM966 1126v-209h-410v-639h327q341 0 510 193t169 556q0 360 -166.5 551.5t-494.5 191.5h-345v-644h410z" />
    <glyph glyph-name="dcroat" unicode="&#x111;" horiz-adv-x="1726" 
d="M1497 0h-301v210h-23q-26 -47 -75.5 -103t-132.5 -96t-209 -40q-182 0 -325.5 94.5t-225.5 272.5t-82 427q0 251 83.5 427.5t227.5 270t325 93.5q127 0 209.5 -40.5t130.5 -96t74 -101.5h16v381h-384v209h384v140h308v-140h224v-209h-224v-1699zM422 768
q0 -232 100.5 -384.5t298.5 -152.5q197 0 292.5 152t95.5 385q0 232 -95 379.5t-293 147.5q-199 0 -299 -148.5t-100 -378.5z" />
    <glyph glyph-name="Emacron" unicode="&#x112;" horiz-adv-x="1664" 
d="M209 0zM1498 272v-272h-1289v2048h1279v-272h-962v-614h846v-273h-846v-617h972zM1348 2494v-214h-943v214h943z" />
    <glyph glyph-name="emacron" unicode="&#x113;" horiz-adv-x="1631" 
d="M123 0zM852 -31q-226 0 -389.5 96.5t-251.5 272.5t-88 414q0 236 86 417t245.5 284t377.5 103q176 0 330 -77t248.5 -243t94.5 -434v-129h-1213v233h912q0 167 -100 278t-273 111q-186 0 -297.5 -141.5t-111.5 -393.5q0 -254 110.5 -391.5t318.5 -137.5q139 0 225 61.5
t124 165.5l284 -78q-32 -110 -114 -204t-212 -150.5t-306 -56.5zM1298 2010v-214h-943v214h943z" />
    <glyph glyph-name="Ebreve" unicode="&#x114;" horiz-adv-x="1664" 
d="M209 0zM1498 272v-272h-1289v2048h1279v-272h-962v-614h846v-273h-846v-617h972zM1065 2570h248q0 -169 -119 -277.5t-324 -108.5q-201 0 -320 108.5t-119 277.5h247q0 -75 43.5 -132t148.5 -57t150 57t45 132z" />
    <glyph glyph-name="ebreve" unicode="&#x115;" horiz-adv-x="1631" 
d="M123 0zM852 -31q-226 0 -389.5 96.5t-251.5 272.5t-88 414q0 236 86 417t245.5 284t377.5 103q176 0 330 -77t248.5 -243t94.5 -434v-129h-1213v233h912q0 167 -100 278t-273 111q-186 0 -297.5 -141.5t-111.5 -393.5q0 -254 110.5 -391.5t318.5 -137.5q139 0 225 61.5
t124 165.5l284 -78q-32 -110 -114 -204t-212 -150.5t-306 -56.5zM1015 2086h248q0 -169 -119 -277.5t-324 -108.5q-201 0 -320 108.5t-119 277.5h247q0 -75 43.5 -132t148.5 -57t150 57t45 132z" />
    <glyph glyph-name="Edotaccent" unicode="&#x116;" horiz-adv-x="1664" 
d="M209 0zM1498 272v-272h-1289v2048h1279v-272h-962v-614h846v-273h-846v-617h972zM694 2404q0 73 45.5 121.5t130.5 48.5t132 -48.5t47 -121.5q0 -70 -47 -117t-132 -47t-130.5 47t-45.5 117z" />
    <glyph glyph-name="edotaccent" unicode="&#x117;" horiz-adv-x="1631" 
d="M123 0zM852 -31q-226 0 -389.5 96.5t-251.5 272.5t-88 414q0 236 86 417t245.5 284t377.5 103q176 0 330 -77t248.5 -243t94.5 -434v-129h-1213v233h912q0 167 -100 278t-273 111q-186 0 -297.5 -141.5t-111.5 -393.5q0 -254 110.5 -391.5t318.5 -137.5q139 0 225 61.5
t124 165.5l284 -78q-32 -110 -114 -204t-212 -150.5t-306 -56.5zM644 1920q0 73 45.5 121.5t130.5 48.5t132 -48.5t47 -121.5q0 -70 -47 -117t-132 -47t-130.5 47t-45.5 117z" />
    <glyph glyph-name="Eogonek" unicode="&#x118;" horiz-adv-x="1664" 
d="M1498 272v-272h-111q-96 -63 -159.5 -128.5t-63.5 -148.5q0 -43 21.5 -68.5t77.5 -25.5q42 0 72.5 11.5t50.5 21.5l27 -193q-34 -21 -88 -40.5t-137 -19.5q-122 0 -206 69.5t-84 203.5q0 82 43 163.5t147 154.5h-879v2048h1279v-272h-962v-614h846v-273h-846v-617h972z
" />
    <glyph glyph-name="eogonek" unicode="&#x119;" horiz-adv-x="1631" 
d="M1263 -453q-34 -21 -88 -40.5t-137 -19.5q-122 0 -206 69.5t-84 203.5q0 53 17 106t56 103q-217 7 -373.5 105.5t-240.5 271.5t-84 406q0 236 86 417t245.5 284t377.5 103q176 0 330 -77t248.5 -243t94.5 -434v-129h-1079q18 -213 127 -327.5t298 -114.5q139 0 225 61.5
t124 165.5l284 -78q-31 -108 -110 -201t-204 -148q-70 -51 -113 -107t-43 -123q0 -43 21.5 -68.5t77.5 -25.5q42 0 72.5 11.5t50.5 21.5zM831 1295q-157 0 -262 -102t-136 -287h771q0 167 -100 278t-273 111z" />
    <glyph glyph-name="Ecaron" unicode="&#x11a;" horiz-adv-x="1664" 
d="M209 0zM1498 272v-272h-1289v2048h1279v-272h-962v-614h846v-273h-846v-617h972zM642 2599l228 -222l230 222h251v-15l-390 -381h-183l-388 381v15h252z" />
    <glyph glyph-name="ecaron" unicode="&#x11b;" horiz-adv-x="1631" 
d="M123 0zM852 -31q-226 0 -389.5 96.5t-251.5 272.5t-88 414q0 236 86 417t245.5 284t377.5 103q176 0 330 -77t248.5 -243t94.5 -434v-129h-1213v233h912q0 167 -100 278t-273 111q-186 0 -297.5 -141.5t-111.5 -393.5q0 -254 110.5 -391.5t318.5 -137.5q139 0 225 61.5
t124 165.5l284 -78q-32 -110 -114 -204t-212 -150.5t-306 -56.5zM592 2115l228 -222l230 222h251v-15l-390 -381h-183l-388 381v15h252z" />
    <glyph glyph-name="Gcircumflex" unicode="&#x11c;" horiz-adv-x="2052" 
d="M147 0zM1896 1042v-259q0 -247 -111 -429t-301 -282t-427 -100q-263 0 -469 126t-323.5 361.5t-117.5 563.5q0 329 116.5 564.5t319.5 362t460 126.5q302 0 525 -172.5t315 -486.5l-321 -21q-64 194 -204 291.5t-315 97.5q-163 0 -295 -84.5t-210 -253.5t-78 -424
t79 -423.5t214 -252.5t304 -84q153 0 273.5 65t189.5 182.5t69 272.5h-467v259h774zM818 2271l228 222l230 -222h251v15l-390 381h-183l-388 -381v-15h252z" />
    <glyph glyph-name="gcircumflex" unicode="&#x11d;" horiz-adv-x="1685" 
d="M123 0zM1196 1533h301v-1519q0 -202 -93.5 -334t-251.5 -196t-350 -64q-233 0 -387.5 84t-223.5 187l189 190q36 -37 89 -83.5t133 -80.5t195 -34q167 0 282.5 85.5t113.5 269.5v217h-21q-24 -41 -71 -95t-130 -93.5t-215 -39.5q-176 0 -319.5 84.5t-228.5 251.5t-85 414
q0 245 83.5 419t227.5 267t325 93q127 0 209.5 -40.5t130.5 -96t74 -101.5h23v215zM422 780q0 -227 102.5 -361t296.5 -134q193 0 290.5 133t97.5 362q0 223 -96 369t-292 146q-199 0 -299 -147.5t-100 -367.5zM619 1787l228 222l230 -222h251v15l-390 381h-183l-388 -381
v-15h252z" />
    <glyph glyph-name="Gbreve" unicode="&#x11e;" horiz-adv-x="2052" 
d="M147 0zM1896 1042v-259q0 -247 -111 -429t-301 -282t-427 -100q-263 0 -469 126t-323.5 361.5t-117.5 563.5q0 329 116.5 564.5t319.5 362t460 126.5q302 0 525 -172.5t315 -486.5l-321 -21q-64 194 -204 291.5t-315 97.5q-163 0 -295 -84.5t-210 -253.5t-78 -424
t79 -423.5t214 -252.5t304 -84q153 0 273.5 65t189.5 182.5t69 272.5h-467v259h774zM1241 2570h248q0 -169 -119 -277.5t-324 -108.5q-201 0 -320 108.5t-119 277.5h247q0 -75 43.5 -132t148.5 -57t150 57t45 132z" />
    <glyph glyph-name="gbreve" unicode="&#x11f;" horiz-adv-x="1685" 
d="M123 0zM1196 1533h301v-1519q0 -202 -93.5 -334t-251.5 -196t-350 -64q-233 0 -387.5 84t-223.5 187l189 190q36 -37 89 -83.5t133 -80.5t195 -34q167 0 282.5 85.5t113.5 269.5v217h-21q-24 -41 -71 -95t-130 -93.5t-215 -39.5q-176 0 -319.5 84.5t-228.5 251.5t-85 414
q0 245 83.5 419t227.5 267t325 93q127 0 209.5 -40.5t130.5 -96t74 -101.5h23v215zM422 780q0 -227 102.5 -361t296.5 -134q193 0 290.5 133t97.5 362q0 223 -96 369t-292 146q-199 0 -299 -147.5t-100 -367.5zM1042 2086h248q0 -169 -119 -277.5t-324 -108.5
q-201 0 -320 108.5t-119 277.5h247q0 -75 43.5 -132t148.5 -57t150 57t45 132z" />
    <glyph glyph-name="Gdotaccent" unicode="&#x120;" horiz-adv-x="2052" 
d="M147 0zM1896 1042v-259q0 -247 -111 -429t-301 -282t-427 -100q-263 0 -469 126t-323.5 361.5t-117.5 563.5q0 329 116.5 564.5t319.5 362t460 126.5q302 0 525 -172.5t315 -486.5l-321 -21q-64 194 -204 291.5t-315 97.5q-163 0 -295 -84.5t-210 -253.5t-78 -424
t79 -423.5t214 -252.5t304 -84q153 0 273.5 65t189.5 182.5t69 272.5h-467v259h774zM870 2404q0 73 45.5 121.5t130.5 48.5t132 -48.5t47 -121.5q0 -70 -47 -117t-132 -47t-130.5 47t-45.5 117z" />
    <glyph glyph-name="gdotaccent" unicode="&#x121;" horiz-adv-x="1685" 
d="M123 0zM1196 1533h301v-1519q0 -202 -93.5 -334t-251.5 -196t-350 -64q-233 0 -387.5 84t-223.5 187l189 190q36 -37 89 -83.5t133 -80.5t195 -34q167 0 282.5 85.5t113.5 269.5v217h-21q-24 -41 -71 -95t-130 -93.5t-215 -39.5q-176 0 -319.5 84.5t-228.5 251.5t-85 414
q0 245 83.5 419t227.5 267t325 93q127 0 209.5 -40.5t130.5 -96t74 -101.5h23v215zM422 780q0 -227 102.5 -361t296.5 -134q193 0 290.5 133t97.5 362q0 223 -96 369t-292 146q-199 0 -299 -147.5t-100 -367.5zM671 1920q0 73 45.5 121.5t130.5 48.5t132 -48.5t47 -121.5
q0 -70 -47 -117t-132 -47t-130.5 47t-45.5 117z" />
    <glyph glyph-name="Gcommaaccent" unicode="&#x122;" horiz-adv-x="2052" 
d="M147 0zM1896 1042v-259q0 -247 -111 -429t-301 -282t-427 -100q-263 0 -469 126t-323.5 361.5t-117.5 563.5q0 329 116.5 564.5t319.5 362t460 126.5q302 0 525 -172.5t315 -486.5l-321 -21q-64 194 -204 291.5t-315 97.5q-163 0 -295 -84.5t-210 -253.5t-78 -424
t79 -423.5t214 -252.5t304 -84q153 0 273.5 65t189.5 182.5t69 272.5h-467v259h774zM1180 -135v-158q-2 -143 -43.5 -295t-128.5 -265l-208 63q49 112 81.5 234t32.5 252v169h266z" />
    <glyph glyph-name="gcommaaccent" unicode="&#x123;" horiz-adv-x="1685" 
d="M123 0zM1196 1533h301v-1519q0 -202 -93.5 -334t-251.5 -196t-350 -64q-233 0 -387.5 84t-223.5 187l189 190q36 -37 89 -83.5t133 -80.5t195 -34q167 0 282.5 85.5t113.5 269.5v217h-21q-24 -41 -71 -95t-130 -93.5t-215 -39.5q-176 0 -319.5 84.5t-228.5 251.5t-85 414
q0 245 83.5 419t227.5 267t325 93q127 0 209.5 -40.5t130.5 -96t74 -101.5h23v215zM422 780q0 -227 102.5 -361t296.5 -134q193 0 290.5 133t97.5 362q0 223 -96 369t-292 146q-199 0 -299 -147.5t-100 -367.5zM696 1739v181q0 134 63.5 256.5t138.5 180.5l176 -118
q-42 -74 -64 -154.5t-22 -178.5l-2 -167h-290z" />
    <glyph glyph-name="Hcircumflex" unicode="&#x124;" horiz-adv-x="2031" 
d="M209 0zM526 2048v-886h978v886h318v-2048h-318v889h-978v-889h-317v2048h317zM809 2271l228 222l230 -222h251v15l-390 381h-183l-388 -381v-15h252z" />
    <glyph glyph-name="hcircumflex" unicode="&#x125;" horiz-adv-x="1617" 
d="M188 0zM495 892v-892h-307v2048h302v-711h16q60 87 169 153t268 66q213 0 350 -146.5t137 -438.5v-971h-308v972q0 147 -74.5 229.5t-208.5 82.5q-137 0 -240.5 -97t-103.5 -295zM660 2312l228 222l230 -222h251v15l-390 381h-183l-388 -381v-15h252z" />
    <glyph glyph-name="Hbar" unicode="&#x126;" horiz-adv-x="1996" 
d="M529 2048v-403h978v403h317v-403h158v-220h-158v-1425h-317v889h-978v-889h-317v1425h-163v220h163v403h317zM529 1162h978v263h-978v-263z" />
    <glyph glyph-name="hbar" unicode="&#x127;" horiz-adv-x="1647" 
d="M525 892v-892h-307v1701h-265v209h265v138h302v-138h349v-209h-349v-364h16q60 87 169 153t268 66q213 0 350 -146.5t137 -438.5v-971h-308v972q0 147 -74.5 229.5t-208.5 82.5q-137 0 -240.5 -97t-103.5 -295z" />
    <glyph glyph-name="Itilde" unicode="&#x128;" horiz-adv-x="736" 
d="M0 0zM526 2048v-2048h-317v2048h317zM659 2591l202 -16q0 -154 -88 -253t-220 -99q-90 0 -144 31t-102.5 62t-122.5 31q-53 0 -89 -40t-36 -103l-205 10q0 151 88 254t220 103q75 0 131.5 -31t112 -61.5t125.5 -30.5q53 0 90.5 40t37.5 103z" />
    <glyph glyph-name="itilde" unicode="&#x129;" horiz-adv-x="1253" 
d="M928 2108l202 -16q0 -154 -88 -253t-220 -99q-90 0 -144 31t-102.5 62t-122.5 31q-53 0 -89 -40t-36 -103l-205 10q0 151 88 254t220 103q75 0 131.5 -31t112 -61.5t125.5 -30.5q53 0 90.5 40t37.5 103zM782 1536v-1536h-307v1536h307z" />
    <glyph glyph-name="Imacron" unicode="&#x12a;" horiz-adv-x="736" 
d="M0 0zM526 2048v-2048h-317v2048h317zM835 2494v-214h-943v214h943z" />
    <glyph glyph-name="imacron" unicode="&#x12b;" horiz-adv-x="693" 
d="M0 0zM500 1536v-1536h-307v1536h307zM832 2002v-214h-943v214h943z" />
    <glyph glyph-name="Ibreve" unicode="&#x12c;" horiz-adv-x="736" 
d="M0 0zM526 2048v-2048h-317v2048h317zM552 2570h248q0 -169 -119 -277.5t-324 -108.5q-201 0 -320 108.5t-119 277.5h247q0 -75 43.5 -132t148.5 -57t150 57t45 132z" />
    <glyph glyph-name="ibreve" unicode="&#x12d;" horiz-adv-x="693" 
d="M0 0zM500 1536v-1536h-307v1536h307zM549 2078h248q0 -169 -119 -277.5t-324 -108.5q-201 0 -320 108.5t-119 277.5h247q0 -75 43.5 -132t148.5 -57t150 57t45 132z" />
    <glyph glyph-name="Iogonek" unicode="&#x12e;" horiz-adv-x="736" 
d="M2 0zM526 2048v-2048h-317v2048h317zM341 95l150 -84q-96 -63 -159.5 -128.5t-63.5 -148.5q0 -43 21.5 -68.5t77.5 -25.5q42 0 72.5 11.5t50.5 21.5l27 -193q-34 -21 -88 -40.5t-137 -19.5q-121 0 -205.5 69.5t-84.5 203.5q0 107 75 211.5t264 190.5z" />
    <glyph glyph-name="iogonek" unicode="&#x12f;" horiz-adv-x="693" 
d="M0 0zM346 1712q-86 0 -140 54t-54 128q0 70 54 126t140 56t139 -56t53 -126q0 -74 -53 -128t-139 -54zM500 1536v-1536h-307v1536h307zM317 84l150 -84q-96 -63 -159.5 -128.5t-63.5 -148.5q0 -43 21.5 -68.5t77.5 -25.5q42 0 72.5 11.5t50.5 21.5l27 -193
q-34 -21 -88 -40.5t-137 -19.5q-121 0 -205.5 69.5t-84.5 203.5q0 107 75 211.5t264 190.5z" />
    <glyph glyph-name="Idotaccent" unicode="&#x130;" horiz-adv-x="736" 
d="M181 0zM526 2048v-2048h-317v2048h317zM181 2404q0 73 45.5 121.5t130.5 48.5t132 -48.5t47 -121.5q0 -70 -47 -117t-132 -47t-130.5 47t-45.5 117z" />
    <glyph glyph-name="dotlessi" unicode="&#x131;" horiz-adv-x="693" 
d="M500 1536v-1536h-307v1536h307z" />
    <glyph glyph-name="IJ" unicode="&#x132;" horiz-adv-x="2465" 
d="M465 0zM782 2048v-2048h-317v2048h317zM1956 598v1450h316v-1450q0 -298 -174 -462t-455 -164q-173 0 -313.5 66.5t-223 193.5t-82.5 309h312q1 -144 93.5 -222t224.5 -78q76 0 145.5 33.5t113 111.5t43.5 212z" />
    <glyph glyph-name="ij" unicode="&#x133;" horiz-adv-x="1696" 
d="M408 0zM602 1712q-86 0 -140 54t-54 128q0 70 54 126t140 56t139 -56t53 -126q0 -74 -53 -128t-139 -54zM756 1536v-1536h-307v1536h307zM1350 1712q-85 0 -139.5 54t-54.5 128q0 70 54.5 126t139.5 56t138.5 -56t53.5 -126q0 -74 -53.5 -128t-138.5 -54zM1197 1536h307
v-1628q0 -234 -129.5 -361t-362.5 -127h-87v265h61q117 0 164 61.5t47 164.5v1625z" />
    <glyph glyph-name="Jcircumflex" unicode="&#x134;" horiz-adv-x="1473" 
d="M32 0zM964 598v1450h316v-1450q0 -298 -174 -462t-455 -164q-173 0 -313.5 66.5t-223 193.5t-82.5 309h312q1 -144 93.5 -222t224.5 -78q76 0 145.5 33.5t113 111.5t43.5 212zM891 2271l228 222l230 -222h251v15l-390 381h-183l-388 -381v-15h252z" />
    <glyph glyph-name="jcircumflex" unicode="&#x135;" horiz-adv-x="747" 
d="M0 0zM248 1536h307v-1628q0 -234 -129.5 -361t-362.5 -127h-87v265h61q117 0 164 61.5t47 164.5v1625zM174 1725l228 222l230 -222h251v15l-390 381h-183l-388 -381v-15h252z" />
    <glyph glyph-name="Kcommaaccent" unicode="&#x136;" horiz-adv-x="1893" 
d="M209 0zM1438 0l-660 892l-252 -280v-612h-317v2048h317v-965h26l872 965h415l-863 -932l844 -1116h-382zM1055 -42v-158q-2 -143 -43.5 -295t-128.5 -265l-208 63q49 112 81.5 234t32.5 252v169h266z" />
    <glyph glyph-name="kcommaaccent" unicode="&#x137;" horiz-adv-x="1517" 
d="M188 0zM1149 0l-495 686l-159 -175v-511h-307v2048h307v-1145h26l555 633h368l-586 -655l638 -881h-347zM885 -124v-158q-2 -143 -43.5 -295t-128.5 -265l-208 63q49 112 81.5 234t32.5 252v169h266z" />
    <glyph glyph-name="kgreenlandic" unicode="&#x138;" horiz-adv-x="1780" 
d="M1149 0l-457 593h-149v-593h-330v1488h330v-596h115l468 596h407l-576 -720l611 -768h-419z" />
    <glyph glyph-name="Lacute" unicode="&#x139;" horiz-adv-x="1568" 
d="M209 0zM1439 272v-272h-1230v2048h317v-1776h913zM218 2191l251 416h317l-332 -416h-236z" />
    <glyph glyph-name="lacute" unicode="&#x13a;" horiz-adv-x="683" 
d="M188 0zM495 2048v-2048h-307v2048h307zM190 2225l251 416h317l-332 -416h-236z" />
    <glyph glyph-name="Lcommaaccent" unicode="&#x13b;" horiz-adv-x="1568" 
d="M209 0zM1439 272v-272h-1230v2048h317v-1776h913zM964 -108v-158q-2 -143 -43.5 -295t-128.5 -265l-208 63q49 112 81.5 234t32.5 252v169h266z" />
    <glyph glyph-name="lcommaaccent" unicode="&#x13c;" horiz-adv-x="683" 
d="M73 0zM495 2048v-2048h-307v2048h307zM453 -113v-158q-2 -143 -43.5 -295t-128.5 -265l-208 63q49 112 81.5 234t32.5 252v169h266z" />
    <glyph glyph-name="Lcaron" unicode="&#x13d;" horiz-adv-x="1568" 
d="M209 0zM1439 272v-272h-1230v2048h317v-1776h913zM1150 2031v-158q-2 -143 -43.5 -295t-128.5 -265l-208 63q49 112 81.5 234t32.5 252v169h266z" />
    <glyph glyph-name="lcaron" unicode="&#x13e;" horiz-adv-x="833" 
d="M188 0zM495 2048v-2048h-307v2048h307zM948 2142v-158q-2 -143 -43.5 -295t-128.5 -265l-208 63q49 112 81.5 234t32.5 252v169h266z" />
    <glyph glyph-name="Ldot" unicode="&#x13f;" horiz-adv-x="1568" 
d="M209 0zM1439 272v-272h-1230v2048h317v-1776h913zM799 1144q0 73 45.5 121.5t130.5 48.5t132 -48.5t47 -121.5q0 -70 -47 -117t-132 -47t-130.5 47t-45.5 117z" />
    <glyph glyph-name="ldot" unicode="&#x140;" horiz-adv-x="903" 
d="M188 0zM495 2048v-2048h-307v2048h307zM627 1095q0 73 45.5 121.5t130.5 48.5t132 -48.5t47 -121.5q0 -70 -47 -117t-132 -47t-130.5 47t-45.5 117z" />
    <glyph glyph-name="L_slash" unicode="&#x141;" horiz-adv-x="1650" 
d="M1494 272v-272h-1230v898l-197 -59v200l197 60v949h317v-853l334 102v-202l-334 -101v-722h913z" />
    <glyph glyph-name="lslash" unicode="&#x142;" horiz-adv-x="683" 
d="M700 1300v-199l-205 -73v-1028h-307v918l-208 -74v199l208 74v931h307v-821z" />
    <glyph glyph-name="Nacute" unicode="&#x143;" horiz-adv-x="2028" 
d="M209 0zM1819 2048v-2048h-309l-965 1494h-19v-1494h-317v2048h311l966 -1499h18v1499h315zM881 2191l251 416h317l-332 -416h-236z" />
    <glyph glyph-name="nacute" unicode="&#x144;" horiz-adv-x="1632" 
d="M188 0zM495 879v-879h-307v1536h296v-229h16q58 107 170 178t272 71q140 0 253.5 -61t181 -190t67.5 -334v-971h-308v955q0 154 -84.5 241.5t-214.5 87.5q-87 0 -165 -46t-127.5 -136t-49.5 -223zM670 1707l251 416h317l-332 -416h-236z" />
    <glyph glyph-name="Ncommaaccent" unicode="&#x145;" horiz-adv-x="2028" 
d="M209 0zM1819 2048v-2048h-309l-965 1494h-19v-1494h-317v2048h311l966 -1499h18v1499h315zM1141 -113v-158q-2 -143 -43.5 -295t-128.5 -265l-208 63q49 112 81.5 234t32.5 252v169h266z" />
    <glyph glyph-name="ncommaaccent" unicode="&#x146;" horiz-adv-x="1632" 
d="M188 0zM495 879v-879h-307v1536h296v-229h16q58 107 170 178t272 71q140 0 253.5 -61t181 -190t67.5 -334v-971h-308v955q0 154 -84.5 241.5t-214.5 87.5q-87 0 -165 -46t-127.5 -136t-49.5 -223zM952 -124v-158q-2 -143 -43.5 -295t-128.5 -265l-208 63q49 112 81.5 234
t32.5 252v169h266z" />
    <glyph glyph-name="Ncaron" unicode="&#x147;" horiz-adv-x="2028" 
d="M209 0zM1819 2048v-2048h-309l-965 1494h-19v-1494h-317v2048h311l966 -1499h18v1499h315zM804 2599l228 -222l230 222h251v-15l-390 -381h-183l-388 381v15h252z" />
    <glyph glyph-name="ncaron" unicode="&#x148;" horiz-adv-x="1632" 
d="M188 0zM495 879v-879h-307v1536h296v-229h16q58 107 170 178t272 71q140 0 253.5 -61t181 -190t67.5 -334v-971h-308v955q0 154 -84.5 241.5t-214.5 87.5q-87 0 -165 -46t-127.5 -136t-49.5 -223zM593 2115l228 -222l230 222h251v-15l-390 -381h-183l-388 381v15h252z
" />
    <glyph glyph-name="napostrophe" unicode="&#x149;" horiz-adv-x="1632" 
d="M0 0zM495 879v-879h-307v1536h296v-229h16q58 107 170 178t272 71q140 0 253.5 -61t181 -190t67.5 -334v-971h-308v955q0 154 -84.5 241.5t-214.5 87.5q-87 0 -165 -46t-127.5 -136t-49.5 -223zM115 2146v-158q-2 -143 -43.5 -295t-128.5 -265l-208 63q49 112 81.5 234
t32.5 252v169h266z" />
    <glyph glyph-name="Eng" unicode="&#x14a;" horiz-adv-x="2028" 
d="M1819 2048v-2170q0 -154 -65 -257.5t-174.5 -156t-240.5 -52.5q-40 0 -82.5 1.5t-77.5 10.5v258q18 -2 44.5 -4t48.5 -2q94 0 163 45t69 169v119l-959 1485h-19v-1494h-317v2048h311l966 -1499h18v1499h315z" />
    <glyph glyph-name="eng" unicode="&#x14b;" horiz-adv-x="1632" 
d="M495 879v-879h-307v1536h296v-229h16q58 107 170 178t272 71q140 0 253.5 -61t181 -190t67.5 -334v-1089q0 -225 -128.5 -345.5t-325.5 -120.5q-43 0 -85.5 2.5t-79.5 12.5l11 255q20 -4 43.5 -7.5t52.5 -3.5q90 0 147 45.5t57 161.5v1073q0 154 -84.5 241.5t-214.5 87.5
q-87 0 -165 -46t-127.5 -136t-49.5 -223z" />
    <glyph glyph-name="Omacron" unicode="&#x14c;" horiz-adv-x="2100" 
d="M147 0zM1953 1023q0 -328 -117.5 -563.5t-321.5 -361.5t-463 -126q-260 0 -464.5 126t-322 361.5t-117.5 563.5q0 329 117.5 564.5t322 362t464.5 126.5q259 0 463 -126.5t321.5 -362t117.5 -564.5zM1640 1023q0 255 -77.5 424t-211 253.5t-300.5 84.5t-300.5 -84.5
t-212 -253.5t-78.5 -424t78.5 -423.5t212 -252.5t300.5 -84t300.5 84t211 252.5t77.5 423.5zM1529 2494v-214h-943v214h943z" />
    <glyph glyph-name="omacron" unicode="&#x14d;" horiz-adv-x="1656" 
d="M123 0zM828 -31q-214 0 -372 100t-245.5 278.5t-87.5 415.5t87.5 415.5t245.5 278t372 99.5t372.5 -99.5t245.5 -278t87 -415.5t-87 -415.5t-245.5 -278.5t-372.5 -100zM828 231q141 0 230.5 72t132 193t42.5 267q0 145 -42.5 266t-132 193.5t-230.5 72.5
q-140 0 -230 -72.5t-132.5 -193.5t-42.5 -266q0 -146 42.5 -267t132.5 -193t230 -72zM1296 2010v-214h-943v214h943z" />
    <glyph glyph-name="Obreve" unicode="&#x14e;" horiz-adv-x="2100" 
d="M147 0zM1953 1023q0 -328 -117.5 -563.5t-321.5 -361.5t-463 -126q-260 0 -464.5 126t-322 361.5t-117.5 563.5q0 329 117.5 564.5t322 362t464.5 126.5q259 0 463 -126.5t321.5 -362t117.5 -564.5zM1640 1023q0 255 -77.5 424t-211 253.5t-300.5 84.5t-300.5 -84.5
t-212 -253.5t-78.5 -424t78.5 -423.5t212 -252.5t300.5 -84t300.5 84t211 252.5t77.5 423.5zM1246 2570h248q0 -169 -119 -277.5t-324 -108.5q-201 0 -320 108.5t-119 277.5h247q0 -75 43.5 -132t148.5 -57t150 57t45 132z" />
    <glyph glyph-name="obreve" unicode="&#x14f;" horiz-adv-x="1656" 
d="M123 0zM828 -31q-214 0 -372 100t-245.5 278.5t-87.5 415.5t87.5 415.5t245.5 278t372 99.5t372.5 -99.5t245.5 -278t87 -415.5t-87 -415.5t-245.5 -278.5t-372.5 -100zM828 231q141 0 230.5 72t132 193t42.5 267q0 145 -42.5 266t-132 193.5t-230.5 72.5
q-140 0 -230 -72.5t-132.5 -193.5t-42.5 -266q0 -146 42.5 -267t132.5 -193t230 -72zM1013 2086h248q0 -169 -119 -277.5t-324 -108.5q-201 0 -320 108.5t-119 277.5h247q0 -75 43.5 -132t148.5 -57t150 57t45 132z" />
    <glyph glyph-name="Ohungarumlaut" unicode="&#x150;" horiz-adv-x="2100" 
d="M147 0zM1953 1023q0 -328 -117.5 -563.5t-321.5 -361.5t-463 -126q-260 0 -464.5 126t-322 361.5t-117.5 563.5q0 329 117.5 564.5t322 362t464.5 126.5q259 0 463 -126.5t321.5 -362t117.5 -564.5zM1640 1023q0 255 -77.5 424t-211 253.5t-300.5 84.5t-300.5 -84.5
t-212 -253.5t-78.5 -424t78.5 -423.5t212 -252.5t300.5 -84t300.5 84t211 252.5t77.5 423.5zM1118 2188l308 420h298l-364 -420h-242zM671 2188l238 419l296 1l-305 -420h-229z" />
    <glyph glyph-name="ohungarumlaut" unicode="&#x151;" horiz-adv-x="1656" 
d="M123 0zM828 -31q-214 0 -372 100t-245.5 278.5t-87.5 415.5t87.5 415.5t245.5 278t372 99.5t372.5 -99.5t245.5 -278t87 -415.5t-87 -415.5t-245.5 -278.5t-372.5 -100zM828 231q141 0 230.5 72t132 193t42.5 267q0 145 -42.5 266t-132 193.5t-230.5 72.5
q-140 0 -230 -72.5t-132.5 -193.5t-42.5 -266q0 -146 42.5 -267t132.5 -193t230 -72zM885 1704l308 420h298l-364 -420h-242zM438 1704l238 419l296 1l-305 -420h-229z" />
    <glyph glyph-name="OE" unicode="&#x152;" horiz-adv-x="2704" 
d="M964 2048h1558v-272h-961v-614h846v-273h-846v-617h972v-272h-1569q-236 0 -415.5 103t-280 287t-100.5 426v420q0 242 100 425t279 285t417 102zM964 265h280v1518h-280q-216 0 -342.5 -135.5t-126.5 -411.5v-420q0 -276 128 -413.5t341 -137.5z" />
    <glyph glyph-name="oe" unicode="&#x153;" horiz-adv-x="2732" 
d="M828 -31q-214 0 -372 100t-245.5 278.5t-87.5 415.5t87.5 415.5t245.5 278t372 99.5q181 0 323 -72.5t234 -201.5q92 128 233.5 201t323.5 73q176 0 330 -77t248.5 -243t94.5 -434v-129h-1079q18 -213 127 -327.5t298 -114.5q139 0 225 61.5t124 165.5l284 -78
q-32 -110 -114 -204t-212 -150.5t-306 -56.5q-192 0 -339.5 70.5t-241.5 199.5q-92 -128 -233 -199t-320 -71zM828 231q141 0 230.5 72t132 193t42.5 267q0 145 -42.5 266t-132 193.5t-230.5 72.5q-140 0 -230 -72.5t-132.5 -193.5t-42.5 -266q0 -146 42.5 -267t132.5 -193
t230 -72zM1941 1295q-157 0 -262 -102t-136 -287h771q0 167 -100 278t-273 111z" />
    <glyph glyph-name="Racute" unicode="&#x154;" horiz-adv-x="1777" 
d="M209 0zM1347 0l-394 782h-427v-782h-317v2048h718q243 0 398.5 -83t230 -226t74.5 -323q0 -212 -95.5 -353.5t-262.5 -216.5l434 -846h-359zM526 1776v-717h382q223 0 316 97t93 256q0 94 -35 177t-119.5 135t-235.5 52h-401zM746 2191l251 416h317l-332 -416h-236z" />
    <glyph glyph-name="racute" unicode="&#x155;" horiz-adv-x="1100" 
d="M188 0zM1079 1507l-99 -275q-17 9 -51 19.5t-82 10.5q-110 0 -188 -58.5t-120.5 -149t-43.5 -185.5v-869h-307v1536h307v-242h15q33 114 136.5 189.5t228.5 75.5q60 0 114.5 -16.5t89.5 -35.5zM417 1707l251 416h317l-332 -416h-236z" />
    <glyph glyph-name="Rcommaaccent" unicode="&#x156;" horiz-adv-x="1777" 
d="M209 0zM1347 0l-394 782h-427v-782h-317v2048h718q243 0 398.5 -83t230 -226t74.5 -323q0 -212 -95.5 -353.5t-262.5 -216.5l434 -846h-359zM526 1776v-717h382q223 0 316 97t93 256q0 94 -35 177t-119.5 135t-235.5 52h-401zM1001 -119v-158q-2 -143 -43.5 -295
t-128.5 -265l-208 63q49 112 81.5 234t32.5 252v169h266z" />
    <glyph glyph-name="rcommaaccent" unicode="&#x157;" horiz-adv-x="1100" 
d="M95 0zM1079 1507l-99 -275q-17 9 -51 19.5t-82 10.5q-110 0 -188 -58.5t-120.5 -149t-43.5 -185.5v-869h-307v1536h307v-242h15q33 114 136.5 189.5t228.5 75.5q60 0 114.5 -16.5t89.5 -35.5zM475 -124v-158q-2 -143 -43.5 -295t-128.5 -265l-208 63q49 112 81.5 234
t32.5 252v169h266z" />
    <glyph glyph-name="Rcaron" unicode="&#x158;" horiz-adv-x="1777" 
d="M209 0zM1347 0l-394 782h-427v-782h-317v2048h718q243 0 398.5 -83t230 -226t74.5 -323q0 -212 -95.5 -353.5t-262.5 -216.5l434 -846h-359zM526 1776v-717h382q223 0 316 97t93 256q0 94 -35 177t-119.5 135t-235.5 52h-401zM669 2599l228 -222l230 222h251v-15
l-390 -381h-183l-388 381v15h252z" />
    <glyph glyph-name="rcaron" unicode="&#x159;" horiz-adv-x="1100" 
d="M88 0zM1079 1507l-99 -275q-17 9 -51 19.5t-82 10.5q-110 0 -188 -58.5t-120.5 -149t-43.5 -185.5v-869h-307v1536h307v-242h15q33 114 136.5 189.5t228.5 75.5q60 0 114.5 -16.5t89.5 -35.5zM340 2115l228 -222l230 222h251v-15l-390 -381h-183l-388 381v15h252z" />
    <glyph glyph-name="Sacute" unicode="&#x15a;" horiz-adv-x="1773" 
d="M125 0zM1306 1494q-20 149 -128 228.5t-282 79.5q-182 0 -294 -82.5t-112 -212.5q0 -115 100.5 -185.5t291.5 -126.5l159 -46q290 -85 439 -222.5t149 -361.5q0 -177 -90 -311.5t-256.5 -210.5t-398.5 -76q-215 0 -383.5 71.5t-268 206.5t-107.5 327h317
q12 -166 139 -248t303 -82q196 0 317 91t121 231q0 124 -98 195t-315 136l-184 53q-245 72 -394 206.5t-149 348.5q0 172 95 301t258 200.5t366 71.5q205 0 362 -73.5t248.5 -205t98.5 -303.5h-304zM739 2191l251 416h317l-332 -416h-236z" />
    <glyph glyph-name="sacute" unicode="&#x15b;" horiz-adv-x="1458" 
d="M88 0zM155 1109q0 131 78.5 231.5t211 158t293.5 57.5q223 0 369.5 -109t196.5 -290l-275 -60q-13 38 -42 85t-85 82.5t-152 37.5q-119 3 -201 -50t-82 -138q0 -73 64 -121.5t185 -80.5l184 -47q217 -59 314.5 -179t97.5 -259q0 -122 -69.5 -226.5t-201 -168
t-319.5 -63.5q-183 0 -312.5 58.5t-208.5 154.5t-113 211l281 75q35 -92 112 -163t228 -74q137 -2 216 55.5t79 141.5q0 133 -245 200l-205 54q-208 58 -303.5 176t-95.5 251zM590 1707l251 416h317l-332 -416h-236z" />
    <glyph glyph-name="Scircumflex" unicode="&#x15c;" horiz-adv-x="1773" 
d="M125 0zM1306 1494q-20 149 -128 228.5t-282 79.5q-182 0 -294 -82.5t-112 -212.5q0 -115 100.5 -185.5t291.5 -126.5l159 -46q290 -85 439 -222.5t149 -361.5q0 -177 -90 -311.5t-256.5 -210.5t-398.5 -76q-215 0 -383.5 71.5t-268 206.5t-107.5 327h317
q12 -166 139 -248t303 -82q196 0 317 91t121 231q0 124 -98 195t-315 136l-184 53q-245 72 -394 206.5t-149 348.5q0 172 95 301t258 200.5t366 71.5q205 0 362 -73.5t248.5 -205t98.5 -303.5h-304zM662 2271l228 222l230 -222h251v15l-390 381h-183l-388 -381v-15h252z" />
    <glyph glyph-name="scircumflex" unicode="&#x15d;" horiz-adv-x="1458" 
d="M88 0zM155 1109q0 131 78.5 231.5t211 158t293.5 57.5q223 0 369.5 -109t196.5 -290l-275 -60q-13 38 -42 85t-85 82.5t-152 37.5q-119 3 -201 -50t-82 -138q0 -73 64 -121.5t185 -80.5l184 -47q217 -59 314.5 -179t97.5 -259q0 -122 -69.5 -226.5t-201 -168
t-319.5 -63.5q-183 0 -312.5 58.5t-208.5 154.5t-113 211l281 75q35 -92 112 -163t228 -74q137 -2 216 55.5t79 141.5q0 133 -245 200l-205 54q-208 58 -303.5 176t-95.5 251zM513 1787l228 222l230 -222h251v15l-390 381h-183l-388 -381v-15h252z" />
    <glyph glyph-name="Scedilla" unicode="&#x15e;" horiz-adv-x="1773" 
d="M125 0zM1306 1494q-20 149 -128 228.5t-282 79.5q-182 0 -294 -82.5t-112 -212.5q0 -115 100.5 -185.5t291.5 -126.5l159 -46q290 -85 439 -222.5t149 -361.5q0 -177 -90 -311.5t-256.5 -210.5t-398.5 -76q-215 0 -383.5 71.5t-268 206.5t-107.5 327h317
q12 -166 139 -248t303 -82q196 0 317 91t121 231q0 124 -98 195t-315 136l-184 53q-245 72 -394 206.5t-149 348.5q0 172 95 301t258 200.5t366 71.5q205 0 362 -73.5t248.5 -205t98.5 -303.5h-304zM775 -19h238l-16 -77q77 -12 142 -65.5t65 -170.5q0 -136 -113 -221.5
t-333 -85.5l-9 188q81 0 135 27.5t54 92.5t-49 88t-158 31z" />
    <glyph glyph-name="scedilla" unicode="&#x15f;" horiz-adv-x="1458" 
d="M88 0zM155 1109q0 131 78.5 231.5t211 158t293.5 57.5q223 0 369.5 -109t196.5 -290l-275 -60q-13 38 -42 85t-85 82.5t-152 37.5q-119 3 -201 -50t-82 -138q0 -73 64 -121.5t185 -80.5l184 -47q217 -59 314.5 -179t97.5 -259q0 -122 -69.5 -226.5t-201 -168
t-319.5 -63.5q-183 0 -312.5 58.5t-208.5 154.5t-113 211l281 75q35 -92 112 -163t228 -74q137 -2 216 55.5t79 141.5q0 133 -245 200l-205 54q-208 58 -303.5 176t-95.5 251zM607 5h238l-16 -77q77 -12 142 -65.5t65 -170.5q0 -136 -113 -221.5t-333 -85.5l-9 188
q81 0 135 27.5t54 92.5t-49 88t-158 31z" />
    <glyph glyph-name="Scaron" unicode="&#x160;" horiz-adv-x="1773" 
d="M125 0zM1306 1494q-20 149 -128 228.5t-282 79.5q-182 0 -294 -82.5t-112 -212.5q0 -115 100.5 -185.5t291.5 -126.5l159 -46q290 -85 439 -222.5t149 -361.5q0 -177 -90 -311.5t-256.5 -210.5t-398.5 -76q-215 0 -383.5 71.5t-268 206.5t-107.5 327h317
q12 -166 139 -248t303 -82q196 0 317 91t121 231q0 124 -98 195t-315 136l-184 53q-245 72 -394 206.5t-149 348.5q0 172 95 301t258 200.5t366 71.5q205 0 362 -73.5t248.5 -205t98.5 -303.5h-304zM662 2599l228 -222l230 222h251v-15l-390 -381h-183l-388 381v15h252z" />
    <glyph glyph-name="scaron" unicode="&#x161;" horiz-adv-x="1458" 
d="M88 0zM155 1109q0 131 78.5 231.5t211 158t293.5 57.5q223 0 369.5 -109t196.5 -290l-275 -60q-13 38 -42 85t-85 82.5t-152 37.5q-119 3 -201 -50t-82 -138q0 -73 64 -121.5t185 -80.5l184 -47q217 -59 314.5 -179t97.5 -259q0 -122 -69.5 -226.5t-201 -168
t-319.5 -63.5q-183 0 -312.5 58.5t-208.5 154.5t-113 211l281 75q35 -92 112 -163t228 -74q137 -2 216 55.5t79 141.5q0 133 -245 200l-205 54q-208 58 -303.5 176t-95.5 251zM513 2115l228 -222l230 222h251v-15l-390 -381h-183l-388 381v15h252z" />
    <glyph glyph-name="Tcommaaccent" unicode="&#x162;" horiz-adv-x="1801" 
d="M113 0zM1688 2048v-272h-630v-1776h-315v1776h-630v272h1575zM782 10h238l-16 -77q77 -12 142 -65.5t65 -170.5q0 -136 -113 -221.5t-333 -85.5l-9 188q81 0 135 27.5t54 92.5t-49 88t-158 31z" />
    <glyph glyph-name="tcommaaccent" unicode="&#x163;" horiz-adv-x="1004" 
d="M60 0zM880 1536v-252h-300v-830q0 -130 55 -165t126 -35q34 0 59.5 4t42.5 8l54 -253q-23 -9 -78.5 -21t-140.5 -12q-108 0 -205 47t-158.5 139t-61.5 227v891h-213v252h213v328h307v-328h300zM483 5h238l-16 -77q77 -12 142 -65.5t65 -170.5q0 -136 -113 -221.5
t-333 -85.5l-9 188q81 0 135 27.5t54 92.5t-49 88t-158 31z" />
    <glyph glyph-name="Tcaron" unicode="&#x164;" horiz-adv-x="1801" 
d="M113 0zM1688 2048v-272h-630v-1776h-315v1776h-630v272h1575zM669 2599l228 -222l230 222h251v-15l-390 -381h-183l-388 381v15h252z" />
    <glyph glyph-name="tcaron" unicode="&#x165;" horiz-adv-x="1044" 
d="M60 0zM880 1536v-252h-300v-830q0 -130 55 -165t126 -35q34 0 59.5 4t42.5 8l54 -253q-23 -9 -78.5 -21t-140.5 -12q-108 0 -205 47t-158.5 139t-61.5 227v891h-213v252h213v328h307v-328h300zM1062 2321v-158q-2 -143 -43.5 -295t-128.5 -265l-208 63q49 112 81.5 234
t32.5 252v169h266z" />
    <glyph glyph-name="Tbar" unicode="&#x166;" horiz-adv-x="1801" 
d="M1301 1311v-209h-243v-1102h-315v1102h-358v209h358v465h-630v272h1575v-272h-630v-465h243z" />
    <glyph glyph-name="tbar" unicode="&#x167;" horiz-adv-x="1004" 
d="M868 1012v-209h-288v-349q0 -130 55 -165t126 -35q34 0 59.5 4t42.5 8l54 -253q-23 -9 -78.5 -21t-140.5 -12q-108 0 -205 47t-158.5 139t-61.5 227v410h-321v209h321v272h-213v252h213v328h307v-328h300v-252h-300v-272h288z" />
    <glyph glyph-name="Utilde" unicode="&#x168;" horiz-adv-x="2034" 
d="M209 0zM1507 2048h317v-1355q0 -231 -107.5 -393t-290 -247.5t-408.5 -85.5t-409.5 85.5t-291.5 247.5t-108 393v1355h317v-1350q0 -140 67 -239t179 -150.5t246 -51.5t245.5 51.5t177.5 150.5t66 239v1350zM1319 2591l202 -16q0 -154 -88 -253t-220 -99q-90 0 -144 31
t-102.5 62t-122.5 31q-53 0 -89 -40t-36 -103l-205 10q0 151 88 254t220 103q75 0 131.5 -31t112 -61.5t125.5 -30.5q53 0 90.5 40t37.5 103z" />
    <glyph glyph-name="utilde" unicode="&#x169;" horiz-adv-x="1632" 
d="M1081 2108l202 -16q0 -154 -88 -253t-220 -99q-90 0 -144 31t-102.5 62t-122.5 31q-53 0 -89 -40t-36 -103l-205 10q0 151 88 254t220 103q74 0 131 -31t112.5 -61.5t125.5 -30.5q53 0 90.5 40t37.5 103zM1136 644v892h308v-1536h-296v199h-16q-60 -85 -171 -152
t-271 -67q-118 0 -233.5 59.5t-192 188t-76.5 337.5v971h307v-966q0 -154 84.5 -236t214.5 -82q88 0 166 43t127 129.5t49 219.5z" />
    <glyph glyph-name="Umacron" unicode="&#x16a;" horiz-adv-x="2034" 
d="M209 0zM1507 2048h317v-1355q0 -231 -107.5 -393t-290 -247.5t-408.5 -85.5t-409.5 85.5t-291.5 247.5t-108 393v1355h317v-1350q0 -140 67 -239t179 -150.5t246 -51.5t245.5 51.5t177.5 150.5t66 239v1350zM1495 2494v-214h-943v214h943z" />
    <glyph glyph-name="umacron" unicode="&#x16b;" horiz-adv-x="1632" 
d="M188 0zM1136 644v892h308v-1536h-296v199h-16q-60 -85 -171 -152t-271 -67q-118 0 -233.5 59.5t-192 188t-76.5 337.5v971h307v-966q0 -154 84.5 -236t214.5 -82q88 0 166 43t127 129.5t49 219.5zM1287 2010v-214h-943v214h943z" />
    <glyph glyph-name="Ubreve" unicode="&#x16c;" horiz-adv-x="2034" 
d="M209 0zM1507 2048h317v-1355q0 -231 -107.5 -393t-290 -247.5t-408.5 -85.5t-409.5 85.5t-291.5 247.5t-108 393v1355h317v-1350q0 -140 67 -239t179 -150.5t246 -51.5t245.5 51.5t177.5 150.5t66 239v1350zM1212 2570h248q0 -169 -119 -277.5t-324 -108.5
q-201 0 -320 108.5t-119 277.5h247q0 -75 43.5 -132t148.5 -57t150 57t45 132z" />
    <glyph glyph-name="ubreve" unicode="&#x16d;" horiz-adv-x="1632" 
d="M188 0zM1136 644v892h308v-1536h-296v199h-16q-60 -85 -171 -152t-271 -67q-118 0 -233.5 59.5t-192 188t-76.5 337.5v971h307v-966q0 -154 84.5 -236t214.5 -82q88 0 166 43t127 129.5t49 219.5zM1004 2086h248q0 -169 -119 -277.5t-324 -108.5q-201 0 -320 108.5
t-119 277.5h247q0 -75 43.5 -132t148.5 -57t150 57t45 132z" />
    <glyph glyph-name="Uring" unicode="&#x16e;" horiz-adv-x="2034" 
d="M209 0zM1507 2048h317v-1355q0 -231 -107.5 -393t-290 -247.5t-408.5 -85.5t-409.5 85.5t-291.5 247.5t-108 393v1355h317v-1350q0 -140 67 -239t179 -150.5t246 -51.5t245.5 51.5t177.5 150.5t66 239v1350zM673 2513q0 89 45.5 164t123.5 120t177 45q98 0 175.5 -45
t122.5 -120t45 -164q0 -135 -98 -227t-245 -92q-148 0 -247 92t-99 227zM842 2513q0 -68 49 -121t128 -53q78 0 127 53t49 121q0 70 -49 124.5t-127 54.5q-79 0 -128 -54.5t-49 -124.5z" />
    <glyph glyph-name="uring" unicode="&#x16f;" horiz-adv-x="1632" 
d="M188 0zM1136 644v892h308v-1536h-296v199h-16q-60 -85 -171 -152t-271 -67q-118 0 -233.5 59.5t-192 188t-76.5 337.5v971h307v-966q0 -154 84.5 -236t214.5 -82q88 0 166 43t127 129.5t49 219.5zM465 2029q0 89 45.5 164t123.5 120t177 45q98 0 175.5 -45t122.5 -120
t45 -164q0 -135 -98 -227t-245 -92q-148 0 -247 92t-99 227zM634 2029q0 -68 49 -121t128 -53q78 0 127 53t49 121q0 70 -49 124.5t-127 54.5q-79 0 -128 -54.5t-49 -124.5z" />
    <glyph glyph-name="Uhungarumlaut" unicode="&#x170;" horiz-adv-x="2034" 
d="M209 0zM1507 2048h317v-1355q0 -231 -107.5 -393t-290 -247.5t-408.5 -85.5t-409.5 85.5t-291.5 247.5t-108 393v1355h317v-1350q0 -140 67 -239t179 -150.5t246 -51.5t245.5 51.5t177.5 150.5t66 239v1350zM1084 2188l308 420h298l-364 -420h-242zM637 2188l238 419
l296 1l-305 -420h-229z" />
    <glyph glyph-name="uhungarumlaut" unicode="&#x171;" horiz-adv-x="1632" 
d="M188 0zM1136 644v892h308v-1536h-296v199h-16q-60 -85 -171 -152t-271 -67q-118 0 -233.5 59.5t-192 188t-76.5 337.5v971h307v-966q0 -154 84.5 -236t214.5 -82q88 0 166 43t127 129.5t49 219.5zM876 1704l308 420h298l-364 -420h-242zM429 1704l238 419l296 1
l-305 -420h-229z" />
    <glyph glyph-name="Uogonek" unicode="&#x172;" horiz-adv-x="2034" 
d="M1507 2048h317v-1355q0 -197 -79.5 -344.5t-218.5 -240t-317 -124.5q-46 -42 -72.5 -87t-26.5 -97q0 -44 21.5 -69t77.5 -25q42 0 72.5 11t50.5 22l27 -193q-34 -21 -88 -40.5t-137 -19.5q-122 0 -206 70t-84 203q0 54 17.5 107.5t58.5 104.5q-203 18 -363.5 108
t-254 245t-93.5 369v1355h317v-1350q0 -140 67 -239t179 -150.5t246 -51.5t245.5 51.5t177.5 150.5t66 239v1350z" />
    <glyph glyph-name="uogonek" unicode="&#x173;" horiz-adv-x="1632" 
d="M1136 644v892h308v-1536h-133q-96 -63 -159.5 -128.5t-63.5 -148.5q0 -43 21.5 -68.5t77.5 -25.5q42 0 72.5 11.5t50.5 21.5l27 -193q-34 -21 -88 -40.5t-137 -19.5q-122 0 -206 69.5t-84 203.5q0 105 72 207.5t254 188.5v121h-16q-60 -85 -171 -152t-271 -67
q-118 0 -233.5 59.5t-192 188t-76.5 337.5v971h307v-966q0 -154 84.5 -236t214.5 -82q88 0 166 43t127 129.5t49 219.5z" />
    <glyph glyph-name="Wcircumflex" unicode="&#x174;" horiz-adv-x="2733" 
d="M70 0zM376 2048l401 -1575h19l410 1575h321l410 -1576h19l401 1576h306l-547 -2048h-325l-417 1521h-16l-416 -1521h-325l-547 2048h306zM1138 2271l228 222l230 -222h251v15l-390 381h-183l-388 -381v-15h252z" />
    <glyph glyph-name="wcircumflex" unicode="&#x175;" horiz-adv-x="2250" 
d="M91 0zM2160 1536l-439 -1536h-277l-308 1075h-24l-306 -1075h-277l-438 1536h309l274 -1094h18l298 1094h271l296 -1089h18l275 1089h310zM896 1787l228 222l230 -222h251v15l-390 381h-183l-388 -381v-15h252z" />
    <glyph glyph-name="Ycircumflex" unicode="&#x176;" horiz-adv-x="1956" 
d="M67 0zM421 2048l545 -928h24l545 928h354l-752 -1224v-824h-317v824l-753 1224h354zM750 2271l228 222l230 -222h251v15l-390 381h-183l-388 -381v-15h252z" />
    <glyph glyph-name="ycircumflex" unicode="&#x177;" horiz-adv-x="1589" 
d="M78 0zM600 -111l42 112l-564 1535h325l383 -1124h17l383 1124h325l-655 -1775q-58 -157 -175 -257.5t-305 -100.5q-62 0 -111 10t-80 23l73 254q134 -34 208.5 5t133.5 194zM552 1787l228 222l230 -222h251v15l-390 381h-183l-388 -381v-15h252z" />
    <glyph glyph-name="Ydieresis" unicode="&#x178;" horiz-adv-x="1956" 
d="M67 0zM421 2048l545 -928h24l545 928h354l-752 -1224v-824h-317v824l-753 1224h354zM694 2227q-71 0 -121.5 49.5t-50.5 116.5q0 72 50.5 120t121.5 48q73 0 121.5 -48t48.5 -120q0 -67 -48.5 -116.5t-121.5 -49.5zM1263 2227q-70 0 -120.5 49.5t-50.5 116.5
q0 72 50.5 120t120.5 48q74 0 122 -48t48 -120q0 -67 -48 -116.5t-122 -49.5z" />
    <glyph glyph-name="Zacute" unicode="&#x179;" horiz-adv-x="1770" 
d="M152 0zM1617 272v-272h-1457v209l1065 1567h-1073v272h1457v-209l-1064 -1567h1072zM735 2191l251 416h317l-332 -416h-236z" />
    <glyph glyph-name="zacute" unicode="&#x17a;" horiz-adv-x="1520" 
d="M158 0zM1370 265v-265h-1210v219l800 1052h-802v265h1193v-211l-798 -1060h817zM605 1707l251 416h317l-332 -416h-236z" />
    <glyph glyph-name="Zdotaccent" unicode="&#x17b;" horiz-adv-x="1770" 
d="M152 0zM1617 272v-272h-1457v209l1065 1567h-1073v272h1457v-209l-1064 -1567h1072zM710 2404q0 73 45.5 121.5t130.5 48.5t132 -48.5t47 -121.5q0 -70 -47 -117t-132 -47t-130.5 47t-45.5 117z" />
    <glyph glyph-name="zdotaccent" unicode="&#x17c;" horiz-adv-x="1520" 
d="M158 0zM1370 265v-265h-1210v219l800 1052h-802v265h1193v-211l-798 -1060h817zM580 1920q0 73 45.5 121.5t130.5 48.5t132 -48.5t47 -121.5q0 -70 -47 -117t-132 -47t-130.5 47t-45.5 117z" />
    <glyph glyph-name="Zcaron" unicode="&#x17d;" horiz-adv-x="1770" 
d="M152 0zM1617 272v-272h-1457v209l1065 1567h-1073v272h1457v-209l-1064 -1567h1072zM658 2599l228 -222l230 222h251v-15l-390 -381h-183l-388 381v15h252z" />
    <glyph glyph-name="zcaron" unicode="&#x17e;" horiz-adv-x="1520" 
d="M158 0zM1370 265v-265h-1210v219l800 1052h-802v265h1193v-211l-798 -1060h817zM528 2115l228 -222l230 222h251v-15l-390 -381h-183l-388 381v15h252z" />
    <glyph glyph-name="longs" unicode="&#x17f;" horiz-adv-x="756" 
d="M352 0h-330v1630q0 248 135 379t373 131q51 0 102.5 -8t102.5 -20l-32 -248q-54 12 -125 12q-112 0 -169 -64t-57 -182v-1630z" />
    <glyph glyph-name="bbar" unicode="&#x180;" horiz-adv-x="1751" 
d="M255 2048h307v-127h371v-209h-371v-394h19q26 46 73.5 101.5t129.5 96t209 40.5q181 0 324.5 -93.5t227 -270t83.5 -427.5q0 -249 -82 -427t-225 -272.5t-325 -94.5q-126 0 -208.5 40t-131.5 96t-75 103h-26v-210h-300v1712h-238v209h238v127zM1330 768q0 230 -100 378.5
t-300 148.5q-197 0 -292 -147.5t-95 -379.5q0 -233 95.5 -385t291.5 -152q198 0 299 152.5t101 384.5z" />
    <glyph glyph-name="Bhook" unicode="&#x181;" horiz-adv-x="2179" 
d="M1354 0h-772v1777h-101q-80 0 -120 -36.5t-53 -93.5t-13 -121v-92h-290v160q0 196 124.5 325t348.5 129h837q225 0 372 -73t218.5 -197t71.5 -279q0 -192 -99 -291.5t-242 -136.5v-19q103 -9 196.5 -70.5t153 -171.5t59.5 -262q0 -158 -74 -282t-226.5 -195t-390.5 -71z
M899 1776v-613h398q168 0 270.5 84t102.5 231q0 122 -83 210t-276 88h-412zM1738 568q0 140 -99.5 243t-282.5 103h-457v-642h444q213 0 304 84.5t91 211.5z" />
    <glyph glyph-name="Btopbar" unicode="&#x182;" horiz-adv-x="1823" 
d="M1478 2048v-272h-951v-548h440q340 0 527.5 -164.5t187.5 -440.5q0 -183 -84.5 -323.5t-244 -220t-386.5 -79.5h-758v2048h1269zM527 266h440q129 0 219 51t136.5 133.5t46.5 176.5q0 137 -104 235t-298 98h-440v-694z" />
    <glyph glyph-name="btopbar" unicode="&#x183;" horiz-adv-x="1740" 
d="M188 2048h1182v-271h-875v-459h19q26 46 73.5 101.5t129 96t209.5 40.5q181 0 324.5 -93.5t227 -270t83.5 -427.5q0 -249 -82 -427t-225 -272.5t-325 -94.5q-127 0 -209 40t-131 96t-75 103h-26v-210h-300v2048zM1263 768q0 230 -100 378.5t-300 148.5
q-197 0 -292 -147.5t-95 -379.5q0 -233 95 -385t292 -152q198 0 299 152.5t101 384.5z" />
    <glyph glyph-name="Tonesix" unicode="&#x184;" horiz-adv-x="1862" 
d="M1773 623q0 -183 -84 -323.5t-243.5 -220t-386.5 -79.5h-758v1364l-207 230v144l207 233v77h317v-820h441q340 0 527 -164.5t187 -440.5zM618 266h441q129 0 218.5 51t136 133.5t46.5 176.5q0 137 -104 235t-297 98h-441v-694z" />
    <glyph glyph-name="tonesix" unicode="&#x185;" horiz-adv-x="1780" 
d="M333 2112h65v-64h252v-730h19q26 46 73.5 101.5t129.5 96t209 40.5q181 0 324.5 -93.5t227 -270t83.5 -427.5q0 -249 -82 -427t-225 -272.5t-325 -94.5q-126 0 -208.5 40t-131.5 96t-75 103h-25v-210h-301v1440h-10l-237 262v147zM1418 768q0 230 -100 378.5t-300 148.5
q-197 0 -292 -147.5t-95 -379.5q0 -233 95.5 -385t291.5 -152q198 0 299 152.5t101 384.5z" />
    <glyph glyph-name="Oopen" unicode="&#x186;" horiz-adv-x="2017" 
d="M133 1407l312 -21q45 196 190.5 297.5t330.5 101.5q168 0 302 -85t211.5 -254.5t77.5 -422.5t-77.5 -422t-211.5 -253.5t-302 -84.5q-185 0 -329.5 100t-189.5 295l-313 -21q44 -211 162.5 -359.5t291 -227t378.5 -78.5q262 0 466 126.5t321 362t117 562.5t-117 563
t-321 363t-466 127q-206 0 -379 -79t-292 -228.5t-162 -361.5z" />
    <glyph glyph-name="Chook" unicode="&#x187;" horiz-adv-x="2180" 
d="M1884 1386h-304v1l-8 -1q-45 196 -190.5 297.5t-330.5 101.5q-168 0 -301.5 -85t-211.5 -254.5t-78 -422.5t78 -422t211.5 -253.5t301.5 -84.5q185 0 329.5 100t189.5 295l313 -21q-44 -211 -162.5 -359.5t-291.5 -227t-378 -78.5q-261 0 -465.5 126.5t-321.5 362
t-117 562.5t117 563t321.5 363t465.5 127q349 0 582 -213q60 114 173.5 173.5t251.5 59.5q42 0 83 -1.5t78 -10.5v-255q-18 2 -44.5 4.5t-48.5 2.5q-95 0 -168.5 -48t-73.5 -178v-224z" />
    <glyph glyph-name="chook" unicode="&#x188;" horiz-adv-x="1721" 
d="M1456 1062l-294 -26q-27 107 -109.5 183t-224.5 76q-190 0 -297.5 -144t-107.5 -383q0 -243 106 -390t299 -147q128 0 214 66.5t117 182.5l296 -24q-37 -212 -203.5 -349.5t-423.5 -137.5q-218 0 -376 102t-243.5 282.5t-85.5 414.5q0 230 86.5 408t244.5 279t371 101
q217 0 378 -103q52 114 156.5 174t237.5 60q41 0 79 -3t72 -13v-231q-20 3 -41.5 6t-45.5 3q-90 0 -147.5 -42t-57.5 -160v-185z" />
    <glyph glyph-name="Dbar1" unicode="&#x189;" horiz-adv-x="2117" 
d="M995 0h-662v907h-287v209h287v932h681q298 0 512 -122.5t328.5 -351t114.5 -547.5q0 -320 -115 -550t-333 -353.5t-526 -123.5zM962 1116v-209h-312v-629h327q341 0 510 193t169 556q0 360 -166.5 551.5t-494.5 191.5h-345v-654h312z" />
    <glyph glyph-name="Dhook" unicode="&#x18a;" horiz-adv-x="2378" 
d="M1256 0h-662v1770h-113q-120 0 -153 -74.5t-33 -169.5v-92h-290v160q0 196 124.5 325t348.5 129h797q299 0 513 -122.5t328.5 -351t114.5 -547.5q0 -320 -115.5 -550t-333.5 -353.5t-526 -123.5zM1256 1770h-344v-1492h327q341 0 510 193t169 556q0 360 -167 551.5
t-495 191.5z" />
    <glyph glyph-name="Dtopbar" unicode="&#x18b;" horiz-adv-x="1780" 
d="M1627 0h-755q-226 0 -386.5 79.5t-245.5 220t-85 323.5q0 276 188.5 443t528.5 167h415v506h-927v279h1267v-2018zM1287 274v684h-415q-196 0 -285 -97t-89 -234q0 -141 89 -247t285 -106h415z" />
    <glyph glyph-name="dtopbar" unicode="&#x18c;" horiz-adv-x="1658" 
d="M1500 0h-301v210h-23q-26 -47 -75.5 -103t-132.5 -96t-209 -40q-183 0 -326 94.5t-225 272.5t-82 427q0 251 83.5 427.5t227 270t324.5 93.5q127 0 209.5 -40.5t131 -96t74.5 -101.5h16v459h-887v271h1195v-2048zM424 768q0 -232 101 -384.5t299 -152.5q196 0 291.5 152
t95.5 385q0 232 -94.5 379.5t-292.5 147.5q-200 0 -300 -148.5t-100 -378.5z" />
    <glyph glyph-name="deltaturn" unicode="&#x18d;" horiz-adv-x="1606" 
d="M1302 -516h-1022v258h589q-36 38 -110.5 102.5t-147.5 122.5q-140 121 -250 243.5t-173.5 257t-63.5 288.5v28q0 208 79.5 374t231 262t368.5 96t369.5 -93.5t233.5 -255t81 -365.5v-28q0 -174 -73 -316t-206.5 -234t-314.5 -117q-13 -2 -22.5 -2.5t-22.5 -0.5
q109 -99 238.5 -218t215.5 -218v-184zM1157 756v28q0 128 -35.5 234.5t-113.5 170t-205 63.5q-125 0 -203 -63.5t-114 -170t-36 -234.5v-28q0 -159 71.5 -275.5t163.5 -174.5q39 -14 102 -14q131 0 212.5 64.5t119.5 170t38 229.5z" />
    <glyph glyph-name="Eturn" unicode="&#x18e;" horiz-adv-x="1653" 
d="M155 0v272h962v614h-846v273h846v617h-972v272h1289v-2048h-1279z" />
    <glyph glyph-name="Schwa" unicode="&#x18f;" horiz-adv-x="2036" 
d="M1020 -28q-278 0 -466 113.5t-283 322t-95 493.5v195h1456v-268h-1116v-43q0 -147 48 -266t158 -189t298 -70q162 0 273.5 89t169 239t57.5 333v154q0 185 -59 335.5t-189.5 240t-346.5 89.5q-181 0 -305.5 -32.5t-201.5 -62.5l-68 265q29 17 108.5 46t200.5 52.5
t275 23.5q301 0 508 -122.5t314 -338t107 -496.5v-154q0 -281 -113 -494.5t-304 -334t-426 -120.5z" />
    <glyph glyph-name="Epsilon1" unicode="&#x190;" horiz-adv-x="1780" 
d="M888 1156h232v-268h-232q-196 0 -295 -77t-99 -250q0 -162 112.5 -238.5t301.5 -76.5q177 0 278.5 90t101.5 220h341q0 -153 -62 -263.5t-166.5 -181.5t-232.5 -105t-260 -34q-217 0 -388.5 60.5t-270.5 190t-99 337.5q0 172 90 290t255 176q-144 60 -228.5 171
t-84.5 263q0 279 199.5 425.5t526.5 146.5q188 0 345.5 -67.5t252.5 -193t95 -297.5h-341q0 128 -98.5 204t-253.5 76q-203 0 -294.5 -85t-91.5 -210q0 -136 83.5 -219.5t282.5 -83.5z" />
    <glyph glyph-name="Fhook" unicode="&#x191;" horiz-adv-x="1637" 
d="M1348 1162v-273h-822v-1026q0 -159 -65 -255.5t-168 -140t-218 -43.5q-37 0 -83 1.5t-76 9.5v251q37 -7 78 -7q91 0 153 39t62 148v2182h1273v-272h-956v-614h822z" />
    <glyph glyph-name="florin" unicode="&#x192;" horiz-adv-x="1149" 
d="M978 1488v-241h-284v-1347q0 -243 -121 -371.5t-343 -128.5q-46 0 -87.5 4t-86.5 16l20 260q21 -8 66.5 -12t65.5 -4q84 0 130 62t46 174v1347h-238v241h238v142q0 248 131 379t344 131q58 0 123.5 -10t109.5 -23l-51 -256q-25 6 -53.5 10.5t-67.5 4.5q-226 0 -226 -236
v-142h284z" />
    <glyph glyph-name="Ghook" unicode="&#x193;" horiz-adv-x="2211" 
d="M1896 1042v-259q0 -247 -111 -429t-301 -282t-427 -100q-263 0 -469 126t-323.5 361.5t-117.5 563.5q0 329 116.5 564.5t319.5 362t460 126.5q340 0 573 -213q55 125 169 190t270 65q43 0 83 -3t77 -13v-254q-21 3 -44 6.5t-49 3.5q-94 0 -165 -41t-71 -165v-256h-324
q-64 194 -204 291.5t-315 97.5q-163 0 -295 -84.5t-210 -253.5t-78 -424t79 -423.5t214 -252.5t304 -84q153 0 273.5 65t189.5 182.5t69 272.5h-467v259h774z" />
    <glyph glyph-name="Gamma1" unicode="&#x194;" horiz-adv-x="1862" 
d="M53 2034h353l642 -1532q121 -289 211 -470.5t90 -280.5q0 -175 -116.5 -263t-301.5 -88t-303.5 88t-118.5 263q0 99 90 280t211 471l647 1532h352l-831 -1874q-69 -160 -109.5 -252t-40.5 -152q0 -42 26.5 -72.5t76.5 -30.5q51 0 77.5 32t26.5 71q0 60 -36.5 149
t-109.5 255z" />
    <glyph glyph-name="hv" unicode="&#x195;" horiz-adv-x="2528" 
d="M495 892v-892h-307v2048h302v-711h16q60 87 169 153t268 66q213 0 350 -143.5t137 -441.5v-367q0 -148 48 -228t117.5 -110.5t135.5 -30.5t136 30.5t118 110.5t48 228v932h307v-932q0 -312 -166.5 -472t-442.5 -160t-442.5 160t-166.5 472v368q0 147 -75 229.5t-208 82.5
q-135 0 -239.5 -97t-104.5 -295z" />
    <glyph glyph-name="Iota1" unicode="&#x196;" horiz-adv-x="1012" 
d="M480 2112v-1630q0 -115 57 -180t169 -65q38 0 68 4.5t57 10.5l32 -252q-51 -12 -102.5 -20t-102.5 -8q-238 0 -373 132.5t-135 377.5v1630h330z" />
    <glyph glyph-name="Istroke" unicode="&#x197;" horiz-adv-x="953" 
d="M935 1181v-209h-296v-972h-317v972h-303v209h303v867h317v-867h296z" />
    <glyph glyph-name="Khook" unicode="&#x198;" horiz-adv-x="1918" 
d="M1438 0l-660 892l-252 -280v-612h-317v2048h317v-965h26l656 725l92 101q132 146 293 162.5t309 -80.5l-114 -231q-72 43 -136.5 31.5t-138.5 -94.5l-50 -56l-487 -525l844 -1116h-382z" />
    <glyph glyph-name="khook" unicode="&#x199;" horiz-adv-x="1517" 
d="M1144 0l-481 658l-168 -186v-472h-307v1637q0 159 63.5 255.5t165 140t215.5 43.5q46 0 91 -3t76 -10v-248q-18 3 -40 5.5t-46 2.5q-91 0 -154.5 -38.5t-63.5 -147.5v-734h20l555 633h374l-587 -656l639 -880h-352z" />
    <glyph glyph-name="lbar" unicode="&#x19a;" horiz-adv-x="1018" 
d="M967 1217v-209h-301v-1008h-307v1008h-308v209h308v831h307v-831h301z" />
    <glyph glyph-name="lambdabar" unicode="&#x19b;" horiz-adv-x="1780" 
d="M487 2105q152 0 233.5 -61t122.5 -167l142 51v-249l-57 -20l501 -1281q26 -62 56.5 -95t79.5 -33h47l5 -262q-44 -13 -126 -13q-143 0 -227 60.5t-146 229.5l-274 721l-344 -986h-359l532 1429l-51 121l-357 -128v247l265 95q-26 43 -60.5 59.5t-81.5 16.5
q-14 0 -34 -0.5t-36 -3.5l-4 248q28 8 81 14.5t92 6.5z" />
    <glyph glyph-name="mcapturn" unicode="&#x19c;" horiz-adv-x="2548" 
d="M2034 0l-12 161q-70 -89 -174 -139t-246 -50q-148 0 -259 58.5t-171 197.5q-68 -119 -184 -187.5t-285 -68.5q-149 0 -259.5 57.5t-171 194.5t-60.5 375v1405h329v-1405q0 -209 71 -283t166 -74q140 0 221.5 64.5t116.5 170.5q-5 58 -5 122v1405h326v-1405
q0 -139 33.5 -216.5t88.5 -109t118 -31.5q138 0 218 62t115 165v1535h327v-2004h-303z" />
    <glyph glyph-name="Nhook" unicode="&#x19d;" horiz-adv-x="2028" 
d="M1819 2048v-2048h-309l-965 1494h-19v-1631q0 -159 -65 -255.5t-168 -140t-218 -43.5q-37 0 -83 1.5t-76 9.5v251q37 -7 78 -7q91 0 153 39t62 148v2182h311l966 -1499h18v1499h315z" />
    <glyph glyph-name="nlegrightlong" unicode="&#x19e;" horiz-adv-x="1621" 
d="M182 0zM490 879v-879h-308v1536h296v-229h16q58 107 170 178t272 71q140 0 254 -61t181.5 -190t67.5 -334v-1547h-308v1531q0 154 -84.5 241.5t-214.5 87.5q-88 0 -166 -46t-127 -136t-49 -223z" />
    <glyph glyph-name="Obar" unicode="&#x19f;" horiz-adv-x="2100" 
d="M147 0zM1953 1023q0 -328 -117.5 -563.5t-321.5 -361.5t-463 -126q-260 0 -464.5 126t-322 361.5t-117.5 563.5q0 329 117.5 564.5t322 362t464.5 126.5q259 0 463 -126.5t321.5 -362t117.5 -564.5zM1051 1785q-226 0 -388.5 -155t-195.5 -467q147 33 263.5 32.5
t218.5 -17.5t204 -35t218.5 -23.5t263.5 19.5q-27 323 -190 484.5t-394 161.5zM1051 263q227 0 389.5 155.5t193.5 470.5q-148 -34 -264.5 -34t-218.5 16.5t-204 35t-218.5 24t-264.5 -17.5q26 -326 191 -488t396 -162z" />
    <glyph glyph-name="Ohorn" unicode="&#x1a0;" horiz-adv-x="2144" 
d="M1953 1023q0 -328 -117.5 -563.5t-321.5 -361.5t-463 -126q-260 0 -464.5 126t-322 361.5t-117.5 563.5q0 329 117.5 564.5t322 362t464.5 126.5q384 0 631 -264q99 29 142.5 123.5t43.5 242.5h249q0 -212 -75.5 -352t-228.5 -196q67 -122 103.5 -275t36.5 -332z
M1640 1023q0 255 -77.5 424t-211 253.5t-300.5 84.5t-300.5 -84.5t-212 -253.5t-78.5 -424t78.5 -423.5t212 -252.5t300.5 -84t300.5 84t211 252.5t77.5 423.5z" />
    <glyph glyph-name="ohorn" unicode="&#x1a1;" horiz-adv-x="1702" 
d="M828 -31q-214 0 -372 100t-245.5 278.5t-87.5 415.5t87.5 415.5t245.5 278t372 99.5q165 0 298.5 -60.5t225.5 -171.5q71 36 92.5 118.5t21.5 199.5h230q0 -176 -57 -298.5t-188 -175.5q82 -177 82 -405q0 -237 -87 -415.5t-245.5 -278.5t-372.5 -100zM828 231
q141 0 230.5 72t132 193t42.5 267q0 145 -42.5 266t-132 193.5t-230.5 72.5q-140 0 -230 -72.5t-132.5 -193.5t-42.5 -266q0 -146 42.5 -267t132.5 -193t230 -72z" />
    <glyph glyph-name="OI" unicode="&#x1a2;" horiz-adv-x="2374" 
d="M2241 2004v-2576h-328v2217l-200 -81v-1298q-41 -56 -126 -125t-231 -119t-371 -50q-249 0 -441 111t-301.5 326t-109.5 527v132q0 304 109 520t301 330t442 114q244 0 395.5 -59t236.5 -131l374 162h250zM994 1755q-244 0 -381 -176.5t-137 -510.5v-132
q0 -318 131.5 -504t394.5 -186q122 0 197.5 21.5t118.5 51t68 53.5v1257q-41 43 -124.5 84.5t-267.5 41.5z" />
    <glyph glyph-name="oi" unicode="&#x1a3;" horiz-adv-x="1862" 
d="M1771 1488v-2060h-327v1660l-157 -81v-784q-79 -108 -208.5 -179.5t-309.5 -71.5q-229 0 -379 102t-223.5 272t-73.5 374v48q0 203 74 373t224 272.5t378 102.5q145 0 258.5 -51t190.5 -127l311 150h242zM766 237q112 0 191 61v884q-75 70 -192 70q-137 0 -211.5 -71
t-103 -182t-28.5 -231v-48q0 -222 84 -352.5t260 -130.5z" />
    <glyph glyph-name="Phook" unicode="&#x1a4;" horiz-adv-x="2150" 
d="M1304 728h-405v-728h-317v1777h-101q-80 0 -120 -36.5t-53 -93.5t-13 -121v-92h-290v160q0 196 124.5 325t348.5 129h823q247 0 402 -85t227.5 -233.5t72.5 -338.5q0 -191 -73.5 -341t-227.5 -236t-398 -86zM899 1776v-776h405q215 0 300.5 112t85.5 279t-86 276
t-303 109h-402z" />
    <glyph glyph-name="phook" unicode="&#x1a5;" horiz-adv-x="1685" 
d="M188 -576v2112v0q2 136 62.5 220t158 122.5t210.5 38.5q110 0 167 -17v-239q-16 4 -43 8.5t-56 4.5q-80 0 -133.5 -33.5t-65.5 -118.5v-204h26q26 46 73.5 101.5t129 96t209.5 40.5q181 0 324.5 -93.5t227 -270t83.5 -427.5q0 -249 -82 -427t-225 -272.5t-325 -94.5
q-127 0 -209 40t-131 96t-75 103h-19v-786h-307zM1263 768q0 230 -100 378.5t-300 148.5q-197 0 -292 -147.5t-95 -379.5q0 -233 95 -385t292 -152q198 0 299 152.5t101 384.5z" />
    <glyph glyph-name="YR" unicode="&#x1a6;" horiz-adv-x="2036" 
d="M1536 -491l-663 1267h-392v-776h-345v2004h2v140h343v-140h358q343 0 531 -155t188 -450q0 -199 -97 -335.5t-268 -209.5l707 -1328v-17h-364zM481 1726v-676h358q189 0 284 95t95 240q0 155 -90 248t-289 93h-358z" />
    <glyph glyph-name="Tonetwo" unicode="&#x1a7;" horiz-adv-x="1780" 
d="M489 516q0 -122 92 -197t275 -75q184 0 311.5 85t127.5 275h341q0 -158 -67 -276t-179.5 -197.5t-251 -119t-282.5 -39.5q-325 0 -517.5 148t-192.5 400q0 238 160.5 385.5t498.5 246.5q216 64 322 139t106 187q0 119 -89 198.5t-274 79.5q-196 0 -289.5 -94t-93.5 -243
h-341q0 165 86 304.5t247.5 224t388.5 84.5q212 0 371.5 -72t248 -197.5t88.5 -286.5q0 -162 -85.5 -277t-234 -194.5t-338.5 -136.5q-176 -54 -268.5 -103.5t-126.5 -108t-34 -140.5z" />
    <glyph glyph-name="tonetwo" unicode="&#x1a8;" horiz-adv-x="1524" 
d="M474 404q0 -80 69 -132t203 -52q74 0 143.5 24t116 79t51.5 148h321q0 -123 -72 -237.5t-212 -188t-344 -73.5q-181 0 -316 58t-209.5 160t-74.5 234q0 198 144 298t403 156q183 38 245.5 82.5t62.5 118.5t-60.5 132t-188.5 58q-132 0 -199 -70t-67 -156h-330
q0 133 71.5 240t205 170t319.5 63q176 0 304 -62.5t198 -165t70 -222.5q0 -187 -148 -288t-388 -152q-134 -28 -202.5 -61t-92 -73t-23.5 -88z" />
    <glyph glyph-name="Esh" unicode="&#x1a9;" horiz-adv-x="1780" 
d="M1166 1020v-26l-544 -715h964v-279h-1413v209l631 796l-631 801v212h1363v-281h-913z" />
    <glyph glyph-name="eshlooprev" unicode="&#x1aa;" horiz-adv-x="1606" 
d="M156 1649q0 139 67.5 254t182 183t254.5 68q138 0 253 -68t183.5 -183t68.5 -254v-1710q0 -131 47.5 -186.5t137.5 -55.5q52 0 101 12v-259q-38 -12 -86 -17.5t-91 -5.5q-214 0 -326.5 131.5t-112.5 380.5v1238q-85 -32 -175 -32q-140 0 -254.5 68.5t-182 183
t-67.5 252.5zM661 1437q84 0 143.5 53.5t59.5 162.5q0 107 -59.5 161t-143.5 54q-89 0 -148.5 -54t-59.5 -161q0 -109 59.5 -162.5t148.5 -53.5z" />
    <glyph glyph-name="tpalatalhook" unicode="&#x1ab;" horiz-adv-x="1010" 
d="M880 1536v-252h-300v-830q0 -130 55 -165t126 -35q24 0 47 3l109 22v-416q0 -211 -118.5 -324.5t-303.5 -113.5q-40 0 -78.5 2.5t-72.5 12.5v231q20 -3 42 -5.5t46 -2.5q90 0 158.5 40.5t68.5 159.5v119q-101 8 -189 57t-142.5 138t-54.5 216v891h-213v252h213v328h307
v-328h300z" />
    <glyph glyph-name="Thook" unicode="&#x1ac;" horiz-adv-x="1891" 
d="M1800 2048v-272h-630v-1776h-317v1776h-371q-111 0 -150.5 -74t-39.5 -162v-93h-273v150q0 205 122 328t341 123h1318z" />
    <glyph glyph-name="thook" unicode="&#x1ad;" horiz-adv-x="1094" 
d="M949 1488v-241h-265v-812q0 -112 44 -150.5t111 -38.5q35 0 67 5.5t52 8.5v-256q-39 -13 -93.5 -22.5t-127.5 -9.5q-164 0 -272.5 103t-108.5 342v830h-246v241h246v230q0 161 68 256.5t174.5 137.5t222.5 42q89 0 167 -21v-220q-42 12 -87 12q-90 0 -153.5 -44.5
t-63.5 -162.5v-230h265z" />
    <glyph glyph-name="Trthook" unicode="&#x1ae;" horiz-adv-x="1801" 
d="M1687 2048v-272h-630v-1913q0 -109 69 -142t160 -33h78v-264h-159q-115 0 -221 42.5t-174.5 138t-68.5 255.5v1916h-630v272h1576z" />
    <glyph glyph-name="Uhorn" unicode="&#x1af;" horiz-adv-x="2355" 
d="M1507 2048h317v-294q131 31 172.5 133t41.5 266h246q0 -268 -103 -424t-357 -187v-849q0 -231 -107.5 -393t-290 -247.5t-408.5 -85.5t-409.5 85.5t-291.5 247.5t-108 393v1355h317v-1350q0 -140 67 -239t179 -150.5t246 -51.5t245.5 51.5t177.5 150.5t66 239v1350z" />
    <glyph glyph-name="uhorn" unicode="&#x1b0;" horiz-adv-x="1783" 
d="M1136 644v892h308v-228q111 21 134 95t23 207h221q0 -214 -80.5 -334.5t-297.5 -144.5v-1131h-296v199h-16q-60 -85 -171 -152t-271 -67q-118 0 -233.5 59.5t-192 188t-76.5 337.5v971h307v-966q0 -154 84.5 -236t214.5 -82q88 0 166 43t127 129.5t49 219.5z" />
    <glyph glyph-name="Upsilon2" unicode="&#x1b1;" horiz-adv-x="1780" 
d="M474 973v-142q0 -288 112.5 -436t307.5 -148q190 0 302.5 148t112.5 436v142q0 344 -93.5 526t-253.5 222v283h696v-278h-297q141 -135 226 -333.5t85 -419.5v-138q0 -255 -98.5 -449.5t-274 -304t-405.5 -109.5q-232 0 -409 109.5t-276.5 304t-99.5 449.5v138
q0 220 85.5 419t225.5 334h-294v278h684v-283q-154 -40 -245 -223.5t-91 -524.5z" />
    <glyph glyph-name="Vcursive" unicode="&#x1b2;" horiz-adv-x="1780" 
d="M892 -28q-214 0 -383 77.5t-266 231t-97 382.5v1341h340v-1341q0 -216 109.5 -316.5t296.5 -100.5q185 0 294 100.5t109 316.5v856q0 131 -52.5 180.5t-158.5 49.5q-22 0 -50 -2t-50 -8v268q38 11 85.5 17.5t88.5 6.5q217 0 349 -132.5t132 -379.5v-856
q0 -229 -101 -382.5t-270.5 -231t-375.5 -77.5z" />
    <glyph glyph-name="Yhook" unicode="&#x1b3;" horiz-adv-x="2041" 
d="M421 2048l545 -928h24l361 614l51 87q111 189 273.5 234t324.5 -26l-75 -247q-83 31 -146.5 11t-119.5 -116l-39 -65l-483 -788v-824h-317v824l-753 1224h354z" />
    <glyph glyph-name="yhook" unicode="&#x1b4;" horiz-adv-x="1685" 
d="M583 -100l39 115l-544 1521h326l362 -1070l308 921l26 79q35 100 88.5 192t133.5 153.5t194 71.5q87 12 160.5 -7t134.5 -52l-51 -226q-38 16 -74 27.5t-75 7.5q-82 -6 -130 -75t-96 -207l-20 -57l-514 -1519q-54 -157 -183.5 -266t-323.5 -109q-40 0 -95.5 6t-87.5 17
v262q13 -3 36.5 -5t61.5 -2q112 0 195 42t129 180z" />
    <glyph glyph-name="Zbar" unicode="&#x1b5;" horiz-adv-x="1770" 
d="M1617 272v-272h-1457v209l474 698h-211v209h354l448 660h-1073v272h1457v-209l-491 -723h221v-209h-363l-431 -635h1072z" />
    <glyph glyph-name="zbar" unicode="&#x1b6;" horiz-adv-x="1520" 
d="M1370 265v-265h-1210v219l342 449h-199v209h358l299 394h-802v265h1193v-211l-337 -448h205v-209h-363l-303 -403h817z" />
    <glyph glyph-name="Ezh" unicode="&#x1b7;" horiz-adv-x="1862" 
d="M137 96h343q28 -197 120 -300t318 -103q249 0 358.5 134.5t109.5 414.5q0 309 -120 435.5t-365 126.5h-332v220l621 702h-1019v278h1439v-217l-636 -722q346 -18 549 -220t203 -603q0 -280 -100.5 -462.5t-282 -271.5t-425.5 -89q-245 0 -412 89t-258.5 242t-110.5 346z
" />
    <glyph glyph-name="Ezhreversed" unicode="&#x1b8;" horiz-adv-x="2036" 
d="M1471 96h340q-18 -193 -110 -346t-259 -242t-411 -89t-426 89t-282.5 271.5t-100.5 462.5q0 401 204.5 603t552.5 220l-634 722v217h1432v-278h-1013l618 -702v-220h-332q-246 0 -365.5 -126.5t-119.5 -435.5q0 -280 109.5 -414.5t356.5 -134.5q228 0 320 103t120 300z
" />
    <glyph glyph-name="ezhreversed" unicode="&#x1b9;" horiz-adv-x="1780" 
d="M265 1488h1245v-264h-844l482 -558v-232h-197q-204 0 -310.5 -90t-106.5 -299q0 -139 98 -232t274 -93q154 0 248.5 95t94.5 225h327q0 -204 -99 -333t-253 -190t-318 -61q-204 0 -362.5 69.5t-249 201t-90.5 317.5q0 270 150.5 428.5t426.5 190.5l-517 616z" />
    <glyph glyph-name="ezhtail" unicode="&#x1ba;" horiz-adv-x="1524" 
d="M447 -170q0 -83 72.5 -132.5t202.5 -49.5q72 0 141.5 22.5t117 77t51.5 148.5h318q0 -123 -71.5 -236.5t-211 -186.5t-341.5 -73q-274 0 -437.5 125.5t-163.5 323.5q0 187 140.5 292t410.5 160q174 36 239 78.5t65 127.5q0 74 -61 117t-191 43h-273v199l448 358h-706v264
h1200v-194l-452 -406q168 -43 262.5 -148.5t94.5 -245.5q0 -134 -70.5 -220.5t-193 -139t-276.5 -85.5q-192 -41 -253.5 -94t-61.5 -125z" />
    <glyph glyph-name="twostroke" unicode="&#x1bb;" horiz-adv-x="1674" 
d="M1522 272v-272h-1386v230l664 677h-194v209h388q89 105 130 190t41 171q0 137 -93 240.5t-254 103.5q-120 0 -192.5 -59t-105 -154.5t-32.5 -205.5h-308q0 173 70 327t213 250.5t363 96.5q190 0 334.5 -75.5t226.5 -208.5t82 -305q0 -94 -32.5 -187t-88.5 -184h174v-209
h-330q-33 -38 -68.5 -76.5t-72.5 -76.5l-459 -470v-12h930z" />
    <glyph glyph-name="Tonefive" unicode="&#x1bc;" horiz-adv-x="1715" 
d="M525 938l-273 63l87 757h-241v276h272l2 14h1105v-283h-837l-73 -571h11q47 44 138 81.5t201 37.5q191 0 335.5 -82.5t226 -231.5t81.5 -349q0 -191 -80 -344.5t-234.5 -243.5t-379.5 -90q-270 0 -446.5 149t-194.5 429h305q23 -146 109.5 -232.5t236.5 -86.5
q164 0 273 116.5t109 301.5q0 210 -114.5 309.5t-272.5 99.5q-128 0 -208.5 -35t-137.5 -85z" />
    <glyph glyph-name="tonefive" unicode="&#x1bd;" horiz-adv-x="1606" 
d="M594 643l-290 19l68 554h-228v272h1232v-272h-698l-38 -294q45 28 126.5 51.5t165.5 25.5q250 5 390 -129.5t140 -378.5q0 -146 -62 -262.5t-196.5 -184.5t-351.5 -68q-143 0 -282.5 48.5t-231.5 149t-92 255.5l320 23q3 -98 82 -153t204 -55q148 0 216 72t68 185
q0 115 -71.5 185.5t-209.5 70.5q-107 0 -167.5 -34t-93.5 -80z" />
    <glyph glyph-name="glottalstopbarinv" unicode="&#x1be;" horiz-adv-x="1524" 
d="M1053 404q0 76 -50.5 124t-125 90t-149.5 98t-125.5 145.5t-50.5 234.5v151h-245v241h245v361h329v-361h265v-241h-265v-148q0 -107 50 -168t124.5 -102t148.5 -86t124 -118t50 -201q0 -132 -74.5 -234t-209.5 -160t-316 -58q-204 0 -344 73.5t-212 188t-72 237.5h320
q4 -95 51 -149.5t117 -78t143 -23.5q130 0 201 51t71 133z" />
    <glyph glyph-name="wynn" unicode="&#x1bf;" horiz-adv-x="1780" 
d="M1542 729q0 -277 -120 -457.5t-338.5 -297t-514.5 -202.5v-344h-330v2060h304l14 -150q71 85 171 131.5t231 46.5q189 0 319 -95t197 -265.5t67 -396.5v-30zM866 1247q-110 0 -182.5 -47t-114.5 -127v-1041q189 51 334 140t227 225.5t82 331.5v30q0 134 -35.5 245
t-112 177t-198.5 66z" />
    <glyph glyph-name="pipe" unicode="&#x1c0;" horiz-adv-x="754" 
d="M491 2034v-2034h-229v2034h229z" />
    <glyph glyph-name="pipedbl" unicode="&#x1c1;" horiz-adv-x="1012" 
d="M421 2034v-2034h-229v2034h229zM793 2034v-2034h-229v2034h229z" />
    <glyph glyph-name="pipedblbar" unicode="&#x1c2;" horiz-adv-x="1192" 
d="M1054 817v-209h-342v-608h-229v608h-345v209h345v455h-345v209h345v553h229v-553h342v-209h-342v-455h342z" />
    <glyph glyph-name="exclam1" unicode="&#x1c3;" horiz-adv-x="756" 
d="M541 2048l-31 -1453h-273l-32 1453h336zM372 -29q-91 0 -150 59t-59 145q0 87 59 147.5t150 60.5q88 0 149 -60.5t61 -147.5q0 -86 -61 -145t-149 -59z" />
    <glyph glyph-name="Dzcaron_" unicode="&#x1c5;" horiz-adv-x="3329" 
d="M871 0h-662v2048h681q298 0 512 -122.5t328.5 -351t114.5 -547.5q0 -320 -115 -550t-333 -353.5t-526 -123.5zM2350 2048l228 -222l230 222h251v-15l-390 -381h-183l-388 381v15h252zM871 1770h-345v-1492h327q341 0 510 193t169 556q0 360 -166.5 551.5t-494.5 191.5z
M3179 265v-265h-1210v219l800 1052h-802v265h1193v-211l-798 -1060h817z" />
    <glyph glyph-name="dzcaron" unicode="&#x1c6;" horiz-adv-x="2967" 
d="M1497 0h-301v210h-23q-26 -47 -75.5 -103t-132.5 -96t-209 -40q-182 0 -325.5 94.5t-225.5 272.5t-82 427q0 251 83.5 427.5t227.5 270t325 93.5q127 0 209.5 -40.5t130.5 -96t74 -101.5h16v730h308v-2048zM1999 2048l228 -222l230 222h251v-15l-390 -381h-183l-388 381
v15h252zM2817 265v-265h-1210v219l800 1052h-802v265h1193v-211l-798 -1060h817zM422 768q0 -232 100.5 -384.5t298.5 -152.5q197 0 292.5 152t95.5 385q0 232 -95 379.5t-293 147.5q-199 0 -299 -148.5t-100 -378.5z" />
    <glyph glyph-name="LJ" unicode="&#x1c7;" horiz-adv-x="3297" 
d="M465 0zM1695 272v-272h-1230v2048h317v-1776h913zM2788 598v1450h316v-1450q0 -298 -174 -462t-455 -164q-173 0 -313.5 66.5t-223 193.5t-82.5 309h312q1 -144 93.5 -222t224.5 -78q76 0 145.5 33.5t113 111.5t43.5 212z" />
    <glyph glyph-name="Lj" unicode="&#x1c8;" horiz-adv-x="2571" 
d="M465 0zM1695 272v-272h-1230v2048h317v-1776h913zM2225 1712q-85 0 -139.5 54t-54.5 128q0 70 54.5 126t139.5 56t138.5 -56t53.5 -126q0 -74 -53.5 -128t-138.5 -54zM2072 1536h307v-1628q0 -234 -129.5 -361t-362.5 -127h-87v265h61q117 0 164 61.5t47 164.5v1625z" />
    <glyph glyph-name="lj" unicode="&#x1c9;" horiz-adv-x="1686" 
d="M444 0zM751 2048v-2048h-307v2048h307zM1340 1712q-85 0 -139.5 54t-54.5 128q0 70 54.5 126t139.5 56t138.5 -56t53.5 -126q0 -74 -53.5 -128t-138.5 -54zM1187 1536h307v-1628q0 -234 -129.5 -361t-362.5 -127h-87v265h61q117 0 164 61.5t47 164.5v1625z" />
    <glyph glyph-name="NJ" unicode="&#x1ca;" horiz-adv-x="3757" 
d="M465 0zM2075 2048v-2048h-309l-965 1494h-19v-1494h-317v2048h311l966 -1499h18v1499h315zM3248 598v1450h316v-1450q0 -298 -174 -462t-455 -164q-173 0 -313.5 66.5t-223 193.5t-82.5 309h312q1 -144 93.5 -222t224.5 -78q76 0 145.5 33.5t113 111.5t43.5 212z" />
    <glyph glyph-name="Nj" unicode="&#x1cb;" horiz-adv-x="3031" 
d="M465 0zM2075 2048v-2048h-309l-965 1494h-19v-1494h-317v2048h311l966 -1499h18v1499h315zM2685 1712q-85 0 -139.5 54t-54.5 128q0 70 54.5 126t139.5 56t138.5 -56t53.5 -126q0 -74 -53.5 -128t-138.5 -54zM2532 1536h307v-1628q0 -234 -129.5 -361t-362.5 -127h-87
v265h61q117 0 164 61.5t47 164.5v1625z" />
    <glyph glyph-name="nj" unicode="&#x1cc;" horiz-adv-x="2635" 
d="M444 0zM751 879v-879h-307v1536h296v-229h16q58 107 170 178t272 71q140 0 253.5 -61t181 -190t67.5 -334v-971h-308v955q0 154 -84.5 241.5t-214.5 87.5q-87 0 -165 -46t-127.5 -136t-49.5 -223zM2289 1712q-85 0 -139.5 54t-54.5 128q0 70 54.5 126t139.5 56t138.5 -56
t53.5 -126q0 -74 -53.5 -128t-138.5 -54zM2136 1536h307v-1628q0 -234 -129.5 -361t-362.5 -127h-87v265h61q117 0 164 61.5t47 164.5v1625z" />
    <glyph glyph-name="Acaron" unicode="&#x1cd;" horiz-adv-x="1978" 
d="M69 0zM406 0h-337l753 2048h333l753 -2048h-336l-172 496h-822zM977 1642l-305 -878h634l-305 878h-24zM761 2599l228 -222l230 222h251v-15l-390 -381h-183l-388 381v15h252z" />
    <glyph glyph-name="acaron" unicode="&#x1ce;" horiz-adv-x="1566" 
d="M123 0zM1077 0v184h-12q-24 -47 -77 -97.5t-138.5 -85t-208.5 -34.5q-144 0 -261.5 54.5t-187 159.5t-69.5 254q0 161 81.5 257t219.5 143.5t305 65.5q89 11 166.5 18.5t125.5 27t48 65.5v13q0 149 -79.5 211t-198.5 62q-142 0 -225.5 -65t-116.5 -148l-288 75
q49 140 145 227.5t222.5 128t264.5 40.5q93 0 195 -22t190.5 -79.5t144 -162.5t55.5 -271v-1021h-301zM1069 536v209q-17 -20 -80 -35t-134.5 -24.5t-114.5 -15.5q-138 -17 -226 -69t-88 -171q0 -104 76.5 -158.5t196.5 -54.5q171 0 270.5 97.5t99.5 221.5zM563 2115
l228 -222l230 222h251v-15l-390 -381h-183l-388 381v15h252z" />
    <glyph glyph-name="Icaron" unicode="&#x1cf;" horiz-adv-x="736" 
d="M0 0zM526 2048v-2048h-317v2048h317zM129 2599l228 -222l230 222h251v-15l-390 -381h-183l-388 381v15h252z" />
    <glyph glyph-name="icaron" unicode="&#x1d0;" horiz-adv-x="693" 
d="M0 0zM500 1536v-1536h-307v1536h307zM126 2107l228 -222l230 222h251v-15l-390 -381h-183l-388 381v15h252z" />
    <glyph glyph-name="Ocaron" unicode="&#x1d1;" horiz-adv-x="2100" 
d="M147 0zM1953 1023q0 -328 -117.5 -563.5t-321.5 -361.5t-463 -126q-260 0 -464.5 126t-322 361.5t-117.5 563.5q0 329 117.5 564.5t322 362t464.5 126.5q259 0 463 -126.5t321.5 -362t117.5 -564.5zM1640 1023q0 255 -77.5 424t-211 253.5t-300.5 84.5t-300.5 -84.5
t-212 -253.5t-78.5 -424t78.5 -423.5t212 -252.5t300.5 -84t300.5 84t211 252.5t77.5 423.5zM823 2599l228 -222l230 222h251v-15l-390 -381h-183l-388 381v15h252z" />
    <glyph glyph-name="ocaron" unicode="&#x1d2;" horiz-adv-x="1656" 
d="M123 0zM828 -31q-214 0 -372 100t-245.5 278.5t-87.5 415.5t87.5 415.5t245.5 278t372 99.5t372.5 -99.5t245.5 -278t87 -415.5t-87 -415.5t-245.5 -278.5t-372.5 -100zM828 231q141 0 230.5 72t132 193t42.5 267q0 145 -42.5 266t-132 193.5t-230.5 72.5
q-140 0 -230 -72.5t-132.5 -193.5t-42.5 -266q0 -146 42.5 -267t132.5 -193t230 -72zM590 2115l228 -222l230 222h251v-15l-390 -381h-183l-388 381v15h252z" />
    <glyph glyph-name="Ucaron" unicode="&#x1d3;" horiz-adv-x="2034" 
d="M209 0zM1507 2048h317v-1355q0 -231 -107.5 -393t-290 -247.5t-408.5 -85.5t-409.5 85.5t-291.5 247.5t-108 393v1355h317v-1350q0 -140 67 -239t179 -150.5t246 -51.5t245.5 51.5t177.5 150.5t66 239v1350zM789 2599l228 -222l230 222h251v-15l-390 -381h-183l-388 381
v15h252z" />
    <glyph glyph-name="ucaron" unicode="&#x1d4;" horiz-adv-x="1632" 
d="M188 0zM1136 644v892h308v-1536h-296v199h-16q-60 -85 -171 -152t-271 -67q-118 0 -233.5 59.5t-192 188t-76.5 337.5v971h307v-966q0 -154 84.5 -236t214.5 -82q88 0 166 43t127 129.5t49 219.5zM581 2115l228 -222l230 222h251v-15l-390 -381h-183l-388 381v15h252z
" />
    <glyph glyph-name="Udieresismacron" unicode="&#x1d5;" horiz-adv-x="2034" 
d="M209 0zM1507 2048h317v-1355q0 -231 -107.5 -393t-290 -247.5t-408.5 -85.5t-409.5 85.5t-291.5 247.5t-108 393v1355h317v-1350q0 -140 67 -239t179 -150.5t246 -51.5t245.5 51.5t177.5 150.5t66 239v1350zM1490 2867v-216h-943v216h943zM537 2379q0 66 44 111.5
t125 45.5t126 -45.5t45 -111.5q0 -65 -45 -109.5t-126 -44.5t-125 44.5t-44 109.5zM1160 2377q0 66 44.5 111.5t126.5 45.5q80 0 125 -45.5t45 -111.5q0 -65 -45 -109.5t-125 -44.5q-82 0 -126.5 44.5t-44.5 109.5z" />
    <glyph glyph-name="udieresismacron" unicode="&#x1d6;" horiz-adv-x="1632" 
d="M188 0zM1136 644v892h308v-1536h-296v199h-16q-60 -85 -171 -152t-271 -67q-118 0 -233.5 59.5t-192 188t-76.5 337.5v971h307v-966q0 -154 84.5 -236t214.5 -82q88 0 166 43t127 129.5t49 219.5zM1287 2423v-216h-944v216h944zM327 1892q0 68 45.5 115t126.5 47
q80 0 126.5 -47t46.5 -115q0 -67 -46.5 -114t-126.5 -47q-81 0 -126.5 47t-45.5 114zM952 1890q0 68 46 115.5t126 47.5t126.5 -47.5t46.5 -115.5q0 -67 -46.5 -114t-126.5 -47t-126 47t-46 114z" />
    <glyph glyph-name="Udieresisacute" unicode="&#x1d7;" horiz-adv-x="2034" 
d="M209 0zM1507 2048h317v-1355q0 -231 -107.5 -393t-290 -247.5t-408.5 -85.5t-409.5 85.5t-291.5 247.5t-108 393v1355h317v-1350q0 -140 67 -239t179 -150.5t246 -51.5t245.5 51.5t177.5 150.5t66 239v1350zM907 2491l175 294h267l-250 -294h-192zM670 2264
q-43 22 -59 70t12 92q28 46 78 62t93 -6q47 -23 61 -69.5t-15 -92.5q-27 -43 -75 -60.5t-95 4.5zM1242 2264q-43 22 -59 70t12 92q28 46 78 62t93 -6q47 -23 61 -69.5t-14 -92.5q-28 -43 -76 -60.5t-95 4.5z" />
    <glyph glyph-name="udieresisacute" unicode="&#x1d8;" horiz-adv-x="1632" 
d="M188 0zM1136 644v892h308v-1536h-296v199h-16q-60 -85 -171 -152t-271 -67q-118 0 -233.5 59.5t-192 188t-76.5 337.5v971h307v-966q0 -154 84.5 -236t214.5 -82q88 0 166 43t127 129.5t49 219.5zM643 2122l267 415h377l-381 -415h-263zM327 1892q0 68 45.5 115t126.5 47
q80 0 126.5 -47t46.5 -115q0 -67 -46.5 -114t-126.5 -47q-81 0 -126.5 47t-45.5 114zM952 1890q0 68 46 115.5t126 47.5t126.5 -47.5t46.5 -115.5q0 -67 -46.5 -114t-126.5 -47t-126 47t-46 114z" />
    <glyph glyph-name="Udieresiscaron" unicode="&#x1d9;" horiz-adv-x="2034" 
d="M209 0zM1507 2048h317v-1355q0 -231 -107.5 -393t-290 -247.5t-408.5 -85.5t-409.5 85.5t-291.5 247.5t-108 393v1355h317v-1350q0 -140 67 -239t179 -150.5t246 -51.5t245.5 51.5t177.5 150.5t66 239v1350zM824 2864l192 -165l192 165h282v-23l-368 -306h-212l-365 304
v25h279zM537 2379q0 66 44 111.5t125 45.5t126 -45.5t45 -111.5q0 -65 -45 -109.5t-126 -44.5t-125 44.5t-44 109.5zM1160 2377q0 66 44.5 111.5t126.5 45.5q80 0 125 -45.5t45 -111.5q0 -65 -45 -109.5t-125 -44.5q-82 0 -126.5 44.5t-44.5 109.5z" />
    <glyph glyph-name="udieresiscaron" unicode="&#x1da;" horiz-adv-x="1632" 
d="M188 0zM1136 644v892h308v-1536h-296v199h-16q-60 -85 -171 -152t-271 -67q-118 0 -233.5 59.5t-192 188t-76.5 337.5v971h307v-966q0 -154 84.5 -236t214.5 -82q88 0 166 43t127 129.5t49 219.5zM607 2539l202 -214l201 214h281v-14l-380 -383h-203l-379 384v13h278z
M327 1892q0 68 45.5 115t126.5 47q80 0 126.5 -47t46.5 -115q0 -67 -46.5 -114t-126.5 -47q-81 0 -126.5 47t-45.5 114zM952 1890q0 68 46 115.5t126 47.5t126.5 -47.5t46.5 -115.5q0 -67 -46.5 -114t-126.5 -47t-126 47t-46 114z" />
    <glyph glyph-name="Udieresisgrave" unicode="&#x1db;" horiz-adv-x="2034" 
d="M209 0zM1507 2048h317v-1355q0 -231 -107.5 -393t-290 -247.5t-408.5 -85.5t-409.5 85.5t-291.5 247.5t-108 393v1355h317v-1350q0 -140 67 -239t179 -150.5t246 -51.5t245.5 51.5t177.5 150.5t66 239v1350zM955 2785l175 -294h-193l-250 294h268zM537 2379
q0 66 44 111.5t125 45.5t126 -45.5t45 -111.5q0 -65 -45 -109.5t-126 -44.5t-125 44.5t-44 109.5zM1160 2377q0 66 44.5 111.5t126.5 45.5q80 0 125 -45.5t45 -111.5q0 -65 -45 -109.5t-125 -44.5q-82 0 -126.5 44.5t-44.5 109.5z" />
    <glyph glyph-name="udieresisgrave" unicode="&#x1dc;" horiz-adv-x="1632" 
d="M188 0zM1136 644v892h308v-1536h-296v199h-16q-60 -85 -171 -152t-271 -67q-118 0 -233.5 59.5t-192 188t-76.5 337.5v971h307v-966q0 -154 84.5 -236t214.5 -82q88 0 166 43t127 129.5t49 219.5zM714 2537l268 -415h-273l-372 415h377zM327 1892q0 68 45.5 115t126.5 47
q80 0 126.5 -47t46.5 -115q0 -67 -46.5 -114t-126.5 -47q-81 0 -126.5 47t-45.5 114zM952 1890q0 68 46 115.5t126 47.5t126.5 -47.5t46.5 -115.5q0 -67 -46.5 -114t-126.5 -47t-126 47t-46 114z" />
    <glyph glyph-name="eturn" unicode="&#x1dd;" horiz-adv-x="1524" 
d="M127 0zM708 1519q214 0 368.5 -96t238.5 -263.5t84 -379.5v-55q0 -218 -86 -388t-233.5 -267.5t-331.5 -97.5q-208 0 -346 85.5t-206.5 237t-68.5 350.5v195h1104v-243h-778v-36q0 -132 69.5 -226.5t225.5 -94.5q100 0 172 65.5t110.5 175.5t38.5 244v55q0 130 -41.5 238
t-125.5 172.5t-212 64.5q-148 0 -245 -38.5t-173 -91.5l-106 216q73 63 207.5 120.5t334.5 57.5z" />
    <glyph glyph-name="Adieresismacron" unicode="&#x1de;" horiz-adv-x="1978" 
d="M69 0zM406 0h-337l753 2048h333l753 -2048h-336l-172 496h-822zM977 1642l-305 -878h634l-305 878h-24zM1462 2867v-216h-943v216h943zM509 2379q0 66 44 111.5t125 45.5t126 -45.5t45 -111.5q0 -65 -45 -109.5t-126 -44.5t-125 44.5t-44 109.5zM1132 2377
q0 66 44.5 111.5t126.5 45.5q80 0 125 -45.5t45 -111.5q0 -65 -45 -109.5t-125 -44.5q-82 0 -126.5 44.5t-44.5 109.5z" />
    <glyph glyph-name="adieresismacron" unicode="&#x1df;" horiz-adv-x="1566" 
d="M123 0zM1077 0v184h-12q-24 -47 -77 -97.5t-138.5 -85t-208.5 -34.5q-144 0 -261.5 54.5t-187 159.5t-69.5 254q0 161 81.5 257t219.5 143.5t305 65.5q89 11 166.5 18.5t125.5 27t48 65.5v13q0 149 -79.5 211t-198.5 62q-142 0 -225.5 -65t-116.5 -148l-288 75
q49 140 145 227.5t222.5 128t264.5 40.5q93 0 195 -22t190.5 -79.5t144 -162.5t55.5 -271v-1021h-301zM1069 536v209q-17 -20 -80 -35t-134.5 -24.5t-114.5 -15.5q-138 -17 -226 -69t-88 -171q0 -104 76.5 -158.5t196.5 -54.5q171 0 270.5 97.5t99.5 221.5zM1269 2423v-216
h-944v216h944zM309 1892q0 68 45.5 115t126.5 47q80 0 126.5 -47t46.5 -115q0 -67 -46.5 -114t-126.5 -47q-81 0 -126.5 47t-45.5 114zM934 1890q0 68 46 115.5t126 47.5t126.5 -47.5t46.5 -115.5q0 -67 -46.5 -114t-126.5 -47t-126 47t-46 114z" />
    <glyph glyph-name="Adotmacron" unicode="&#x1e0;" horiz-adv-x="1978" 
d="M69 0zM406 0h-337l753 2048h333l753 -2048h-336l-172 496h-822zM977 1642l-305 -878h634l-305 878h-24zM1462 2867v-217h-943v217h943zM820 2381q0 66 44 111.5t125 45.5q82 0 126.5 -45.5t44.5 -111.5q0 -65 -44.5 -109.5t-126.5 -44.5q-81 0 -125 44.5t-44 109.5z" />
    <glyph glyph-name="adotmacron" unicode="&#x1e1;" horiz-adv-x="1566" 
d="M123 0zM1077 0v184h-12q-24 -47 -77 -97.5t-138.5 -85t-208.5 -34.5q-144 0 -261.5 54.5t-187 159.5t-69.5 254q0 161 81.5 257t219.5 143.5t305 65.5q89 11 166.5 18.5t125.5 27t48 65.5v13q0 149 -79.5 211t-198.5 62q-142 0 -225.5 -65t-116.5 -148l-288 75
q49 140 145 227.5t222.5 128t264.5 40.5q93 0 195 -22t190.5 -79.5t144 -162.5t55.5 -271v-1021h-301zM1069 536v209q-17 -20 -80 -35t-134.5 -24.5t-114.5 -15.5q-138 -17 -226 -69t-88 -171q0 -104 76.5 -158.5t196.5 -54.5q171 0 270.5 97.5t99.5 221.5zM1269 2446v-216
h-944v216h944zM613 1906q0 71 46.5 119.5t131.5 48.5q86 0 132.5 -48.5t46.5 -119.5t-46.5 -119t-132.5 -48q-85 0 -131.5 48t-46.5 119z" />
    <glyph glyph-name="AEmacron" unicode="&#x1e2;" horiz-adv-x="2804" 
d="M61 0zM2662 266v-266h-1213l-20 498h-733l-269 -498h-366l1154 2048h1363v-266h-894l25 -613h757v-265h-747l26 -638h917zM839 764h579l-41 997zM1908 2499v-214h-943v214h943z" />
    <glyph glyph-name="aemacron" unicode="&#x1e3;" horiz-adv-x="2542" 
d="M126 0zM163 1160q49 140 145 227.5t223 128t265 40.5q171 0 290.5 -56.5t182.5 -147.5q85 97 205 150.5t272 53.5q176 0 330 -77t248.5 -243t94.5 -434v-99l-1072 -92q30 -183 136.5 -281.5t281.5 -98.5q140 0 225.5 61.5t123.5 165.5l285 -78q-33 -110 -115.5 -204
t-213 -150.5t-304.5 -56.5q-207 0 -346 83t-219 232h-7q-10 -48 -70.5 -123t-175 -134.5t-284.5 -59.5q-144 0 -266.5 52t-197 156.5t-74.5 259.5q0 161 81.5 257t219 143.5t305.5 65.5q88 11 165.5 18.5t126 27t48.5 65.5v13q0 149 -80 211t-198 62q-142 0 -225.5 -65
t-117.5 -148zM1745 1295q-170 0 -278.5 -119t-127.5 -334l780 64q0 167 -100.5 278t-273.5 111zM1072 536v209q-18 -20 -80.5 -35t-134 -24.5t-114.5 -15.5q-138 -17 -226.5 -69t-88.5 -171q0 -104 76.5 -158.5t196.5 -54.5q172 0 271.5 97.5t99.5 221.5zM1744 2010v-214
h-943v214h943z" />
    <glyph glyph-name="Gbar" unicode="&#x1e4;" horiz-adv-x="2136" 
d="M1896 1042v-259q0 -63 -8 -124h206v-214h-264q-94 -222 -301 -347.5t-472 -125.5q-263 0 -469 126t-323.5 361.5t-117.5 563.5q0 329 116.5 564.5t319.5 362t460 126.5q302 0 525 -172.5t315 -486.5l-321 -21q-64 194 -204 291.5t-315 97.5q-163 0 -295 -84.5
t-210 -253.5t-78 -424t79 -423.5t214 -252.5t304 -84q131 0 238.5 48t178.5 134h-352v214h454q13 60 13 124v27h-467v232h774z" />
    <glyph glyph-name="gbar" unicode="&#x1e5;" horiz-adv-x="1732" 
d="M1196 1533h301v-639h230v-209h-230v-671q0 -202 -93.5 -334t-251.5 -196t-350 -64q-233 0 -387.5 84t-223.5 187l189 190q36 -37 89 -83.5t133 -80.5t195 -34q167 0 282.5 85.5t113.5 269.5v217h-21q-24 -41 -71 -95t-130 -93.5t-215 -39.5q-176 0 -319.5 84.5
t-228.5 251.5t-85 414q0 245 83.5 419t227.5 267t325 93q127 0 209.5 -40.5t130.5 -96t74 -101.5h23v215zM422 780q0 -227 102.5 -361t296.5 -134q172 0 268 106.5t115 293.5h-393v209h391q-22 178 -116.5 289.5t-264.5 111.5q-199 0 -299 -147.5t-100 -367.5z" />
    <glyph glyph-name="Gcaron" unicode="&#x1e6;" horiz-adv-x="2052" 
d="M147 0zM1896 1042v-259q0 -247 -111 -429t-301 -282t-427 -100q-263 0 -469 126t-323.5 361.5t-117.5 563.5q0 329 116.5 564.5t319.5 362t460 126.5q302 0 525 -172.5t315 -486.5l-321 -21q-64 194 -204 291.5t-315 97.5q-163 0 -295 -84.5t-210 -253.5t-78 -424
t79 -423.5t214 -252.5t304 -84q153 0 273.5 65t189.5 182.5t69 272.5h-467v259h774zM818 2599l228 -222l230 222h251v-15l-390 -381h-183l-388 381v15h252z" />
    <glyph glyph-name="gcaron" unicode="&#x1e7;" horiz-adv-x="1685" 
d="M123 0zM1196 1533h301v-1519q0 -202 -93.5 -334t-251.5 -196t-350 -64q-233 0 -387.5 84t-223.5 187l189 190q36 -37 89 -83.5t133 -80.5t195 -34q167 0 282.5 85.5t113.5 269.5v217h-21q-24 -41 -71 -95t-130 -93.5t-215 -39.5q-176 0 -319.5 84.5t-228.5 251.5t-85 414
q0 245 83.5 419t227.5 267t325 93q127 0 209.5 -40.5t130.5 -96t74 -101.5h23v215zM422 780q0 -227 102.5 -361t296.5 -134q193 0 290.5 133t97.5 362q0 223 -96 369t-292 146q-199 0 -299 -147.5t-100 -367.5zM619 2115l228 -222l230 222h251v-15l-390 -381h-183l-388 381
v15h252z" />
    <glyph glyph-name="Kcaron" unicode="&#x1e8;" horiz-adv-x="1893" 
d="M209 0zM1438 0l-660 892l-252 -280v-612h-317v2048h317v-965h26l872 965h415l-863 -932l844 -1116h-382zM614 2599l228 -222l230 222h251v-15l-390 -381h-183l-388 381v15h252z" />
    <glyph glyph-name="kcaron" unicode="&#x1e9;" horiz-adv-x="1517" 
d="M188 0zM1149 0l-495 686l-159 -175v-511h-307v2048h307v-1145h26l555 633h368l-586 -655l638 -881h-347zM545 2599l228 -222l230 222h251v-15l-390 -381h-183l-388 381v15h252z" />
    <glyph glyph-name="Oogonek" unicode="&#x1ea;" horiz-adv-x="2100" 
d="M147 0zM1953 1023q0 -328 -117.5 -563.5t-321.5 -361.5t-463 -126q-260 0 -464.5 126t-322 361.5t-117.5 563.5q0 329 117.5 564.5t322 362t464.5 126.5q259 0 463 -126.5t321.5 -362t117.5 -564.5zM1640 1023q0 255 -77.5 424t-211 253.5t-300.5 84.5t-300.5 -84.5
t-212 -253.5t-78.5 -424t78.5 -423.5t212 -252.5t300.5 -84t300.5 84t211 252.5t77.5 423.5zM1021 84l150 -84q-96 -63 -159.5 -128.5t-63.5 -148.5q0 -43 21.5 -68.5t77.5 -25.5q42 0 72.5 11.5t50.5 21.5l27 -193q-34 -21 -88 -40.5t-137 -19.5q-121 0 -205.5 69.5
t-84.5 203.5q0 107 75 211.5t264 190.5z" />
    <glyph glyph-name="oogonek" unicode="&#x1eb;" horiz-adv-x="1656" 
d="M123 0zM828 -31q-214 0 -372 100t-245.5 278.5t-87.5 415.5t87.5 415.5t245.5 278t372 99.5t372.5 -99.5t245.5 -278t87 -415.5t-87 -415.5t-245.5 -278.5t-372.5 -100zM828 231q141 0 230.5 72t132 193t42.5 267q0 145 -42.5 266t-132 193.5t-230.5 72.5
q-140 0 -230 -72.5t-132.5 -193.5t-42.5 -266q0 -146 42.5 -267t132.5 -193t230 -72zM789 84l150 -84q-96 -63 -159.5 -128.5t-63.5 -148.5q0 -43 21.5 -68.5t77.5 -25.5q42 0 72.5 11.5t50.5 21.5l27 -193q-34 -21 -88 -40.5t-137 -19.5q-121 0 -205.5 69.5t-84.5 203.5
q0 107 75 211.5t264 190.5z" />
    <glyph glyph-name="Oogonekmacron" unicode="&#x1ec;" horiz-adv-x="2100" 
d="M147 0zM1953 1023q0 -328 -117.5 -563.5t-321.5 -361.5t-463 -126q-260 0 -464.5 126t-322 361.5t-117.5 563.5q0 329 117.5 564.5t322 362t464.5 126.5q259 0 463 -126.5t321.5 -362t117.5 -564.5zM1640 1023q0 255 -77.5 424t-211 253.5t-300.5 84.5t-300.5 -84.5
t-212 -253.5t-78.5 -424t78.5 -423.5t212 -252.5t300.5 -84t300.5 84t211 252.5t77.5 423.5zM1021 84l150 -84q-96 -63 -159.5 -128.5t-63.5 -148.5q0 -43 21.5 -68.5t77.5 -25.5q42 0 72.5 11.5t50.5 21.5l27 -193q-34 -21 -88 -40.5t-137 -19.5q-121 0 -205.5 69.5
t-84.5 203.5q0 107 75 211.5t264 190.5zM1529 2494v-214h-943v214h943z" />
    <glyph glyph-name="oogonekmacron" unicode="&#x1ed;" horiz-adv-x="1656" 
d="M123 0zM828 -31q-214 0 -372 100t-245.5 278.5t-87.5 415.5t87.5 415.5t245.5 278t372 99.5t372.5 -99.5t245.5 -278t87 -415.5t-87 -415.5t-245.5 -278.5t-372.5 -100zM828 231q141 0 230.5 72t132 193t42.5 267q0 145 -42.5 266t-132 193.5t-230.5 72.5
q-140 0 -230 -72.5t-132.5 -193.5t-42.5 -266q0 -146 42.5 -267t132.5 -193t230 -72zM789 84l150 -84q-96 -63 -159.5 -128.5t-63.5 -148.5q0 -43 21.5 -68.5t77.5 -25.5q42 0 72.5 11.5t50.5 21.5l27 -193q-34 -21 -88 -40.5t-137 -19.5q-121 0 -205.5 69.5t-84.5 203.5
q0 107 75 211.5t264 190.5zM1296 2010v-214h-943v214h943z" />
    <glyph glyph-name="Ezhcaron" unicode="&#x1ee;" horiz-adv-x="1862" 
d="M649 2455l228 -222l230 222h251v-15l-390 -381h-183l-388 381v15h252zM126 96h343q29 -197 120 -300t318 -103q249 0 358.5 134.5t109.5 414.5q0 309 -120.5 435.5t-364.5 126.5h-332v220l621 702h-1019v278h1439v-217l-636 -722q346 -18 549 -220t203 -603
q0 -280 -100.5 -462.5t-282.5 -271.5t-425 -89q-245 0 -412 89t-258.5 242t-110.5 346z" />
    <glyph glyph-name="ezhcaron" unicode="&#x1ef;" horiz-adv-x="1606" 
d="M584 2092l193 -195l193 195h281v-23l-369 -345h-212l-363 344v24h277zM184 1488h1246v-209l-517 -616q275 -32 425.5 -190.5t150.5 -428.5q0 -186 -90.5 -317.5t-249 -201t-362.5 -69.5q-123 0 -242 34t-215.5 105t-154.5 181.5t-58 263.5h330q0 -130 92.5 -225
t247.5 -95q177 0 276 93t99 232q0 209 -107 299t-310 90h-199v232l482 558h-844v264z" />
    <glyph glyph-name="jcaron" unicode="&#x1f0;" horiz-adv-x="747" 
d="M0 0zM248 1536h307v-1628q0 -234 -129.5 -361t-362.5 -127h-87v265h61q117 0 164 61.5t47 164.5v1625zM174 2053l228 -222l230 222h251v-15l-390 -381h-183l-388 381v15h252z" />
    <glyph glyph-name="DZ" unicode="&#x1f1;" horiz-adv-x="4019" 
d="M465 0zM1127 0h-662v2048h681q298 0 512 -122.5t328.5 -351t114.5 -547.5q0 -320 -115 -550t-333 -353.5t-526 -123.5zM1127 1770h-345v-1492h327q341 0 510 193t169 556q0 360 -166.5 551.5t-494.5 191.5zM3866 272v-272h-1457v209l1065 1567h-1073v272h1457v-209
l-1064 -1567h1072z" />
    <glyph glyph-name="Dz" unicode="&#x1f2;" horiz-adv-x="3769" 
d="M465 0zM1127 0h-662v2048h681q298 0 512 -122.5t328.5 -351t114.5 -547.5q0 -320 -115 -550t-333 -353.5t-526 -123.5zM1127 1770h-345v-1492h327q341 0 510 193t169 556q0 360 -166.5 551.5t-494.5 191.5zM3619 265v-265h-1210v219l800 1052h-802v265h1193v-211
l-798 -1060h817z" />
    <glyph glyph-name="Gacute" unicode="&#x1f4;" horiz-adv-x="2052" 
d="M147 0zM1896 1042v-259q0 -247 -111 -429t-301 -282t-427 -100q-263 0 -469 126t-323.5 361.5t-117.5 563.5q0 329 116.5 564.5t319.5 362t460 126.5q302 0 525 -172.5t315 -486.5l-321 -21q-64 194 -204 291.5t-315 97.5q-163 0 -295 -84.5t-210 -253.5t-78 -424
t79 -423.5t214 -252.5t304 -84q153 0 273.5 65t189.5 182.5t69 272.5h-467v259h774zM895 2191l251 416h317l-332 -416h-236z" />
    <glyph glyph-name="gacute" unicode="&#x1f5;" horiz-adv-x="1685" 
d="M123 0zM1196 1533h301v-1519q0 -202 -93.5 -334t-251.5 -196t-350 -64q-233 0 -387.5 84t-223.5 187l189 190q36 -37 89 -83.5t133 -80.5t195 -34q167 0 282.5 85.5t113.5 269.5v217h-21q-24 -41 -71 -95t-130 -93.5t-215 -39.5q-176 0 -319.5 84.5t-228.5 251.5t-85 414
q0 245 83.5 419t227.5 267t325 93q127 0 209.5 -40.5t130.5 -96t74 -101.5h23v215zM422 780q0 -227 102.5 -361t296.5 -134q193 0 290.5 133t97.5 362q0 223 -96 369t-292 146q-199 0 -299 -147.5t-100 -367.5zM696 1707l251 416h317l-332 -416h-236z" />
    <glyph glyph-name="uni01F6" unicode="&#x1f6;" horiz-adv-x="3071" 
d="M525 2048v-889h979v889h316v-1385q0 -414 378 -414q370 0 370 414v858h316v-858q0 -343 -188 -517t-498 -174q-315 0 -504.5 176.5t-189.5 514.5v227h-979v-890h-316v2048h316z" />
    <glyph glyph-name="uni01F7" unicode="&#x1f7;" horiz-adv-x="1862" 
d="M515 2004v-50q72 37 161.5 57.5t191.5 20.5q376 0 599 -215.5t223 -638.5v-72q0 -310 -147.5 -577t-412 -460.5t-615.5 -284.5v-356h-341v2576h341zM868 1755q-122 0 -209 -42.5t-144 -117.5v-1529q283 89 467.5 255t274 371.5t89.5 413.5v76q0 284 -111 428.5
t-367 144.5z" />
    <glyph glyph-name="uni01F8" unicode="&#x1f8;" horiz-adv-x="2028" 
d="M209 0zM1819 2048v-2048h-309l-965 1494h-19v-1494h-317v2048h311l966 -1499h18v1499h315zM936 2607l270 -416h-276l-370 416h376z" />
    <glyph glyph-name="uni01F9" unicode="&#x1f9;" horiz-adv-x="1632" 
d="M188 0zM495 879v-879h-307v1536h296v-229h16q58 107 170 178t272 71q140 0 253.5 -61t181 -190t67.5 -334v-971h-308v955q0 154 -84.5 241.5t-214.5 87.5q-87 0 -165 -46t-127.5 -136t-49.5 -223zM725 2123l270 -416h-276l-370 416h376z" />
    <glyph glyph-name="Aringacute" unicode="&#x1fa;" horiz-adv-x="1978" 
d="M69 0zM406 0h-337l753 2048h333l753 -2048h-336l-172 496h-822zM977 1642l-305 -878h634l-305 878h-24zM916 2510l223 266h312l-335 -266h-200zM736 2205q0 105 75 175t182 70q104 0 178.5 -70t74.5 -175q0 -104 -74.5 -170t-178.5 -66q-107 0 -182 66t-75 170zM872 2205
q0 -50 35.5 -83t85.5 -33q49 0 81.5 33t32.5 83q0 55 -32.5 89.5t-81.5 34.5q-50 0 -85.5 -34.5t-35.5 -89.5z" />
    <glyph glyph-name="aringacute" unicode="&#x1fb;" horiz-adv-x="1566" 
d="M123 0zM1077 0v184h-12q-24 -47 -77 -97.5t-138.5 -85t-208.5 -34.5q-144 0 -261.5 54.5t-187 159.5t-69.5 254q0 161 81.5 257t219.5 143.5t305 65.5q89 11 166.5 18.5t125.5 27t48 65.5v13q0 149 -79.5 211t-198.5 62q-142 0 -225.5 -65t-116.5 -148l-288 75
q49 140 145 227.5t222.5 128t264.5 40.5q93 0 195 -22t190.5 -79.5t144 -162.5t55.5 -271v-1021h-301zM1069 536v209q-17 -20 -80 -35t-134.5 -24.5t-114.5 -15.5q-138 -17 -226 -69t-88 -171q0 -104 76.5 -158.5t196.5 -54.5q171 0 270.5 97.5t99.5 221.5zM718 2026
l223 266h312l-335 -266h-200zM538 1721q0 105 75 175t182 70q104 0 178.5 -70t74.5 -175q0 -104 -74.5 -170t-178.5 -66q-107 0 -182 66t-75 170zM674 1721q0 -50 35.5 -83t85.5 -33q49 0 81.5 33t32.5 83q0 55 -32.5 89.5t-81.5 34.5q-50 0 -85.5 -34.5t-35.5 -89.5z" />
    <glyph glyph-name="AEacute" unicode="&#x1fc;" horiz-adv-x="2804" 
d="M61 0zM2662 266v-266h-1213l-20 498h-733l-269 -498h-366l1154 2048h1363v-266h-894l25 -613h757v-265h-747l26 -638h917zM839 764h579l-41 997zM1279 2196l251 416h317l-332 -416h-236z" />
    <glyph glyph-name="aeacute" unicode="&#x1fd;" horiz-adv-x="2542" 
d="M126 0zM163 1160q49 140 145 227.5t223 128t265 40.5q171 0 290.5 -56.5t182.5 -147.5q85 97 205 150.5t272 53.5q176 0 330 -77t248.5 -243t94.5 -434v-99l-1072 -92q30 -183 136.5 -281.5t281.5 -98.5q140 0 225.5 61.5t123.5 165.5l285 -78q-33 -110 -115.5 -204
t-213 -150.5t-304.5 -56.5q-207 0 -346 83t-219 232h-7q-10 -48 -70.5 -123t-175 -134.5t-284.5 -59.5q-144 0 -266.5 52t-197 156.5t-74.5 259.5q0 161 81.5 257t219 143.5t305.5 65.5q88 11 165.5 18.5t126 27t48.5 65.5v13q0 149 -80 211t-198 62q-142 0 -225.5 -65
t-117.5 -148zM1745 1295q-170 0 -278.5 -119t-127.5 -334l780 64q0 167 -100.5 278t-273.5 111zM1072 536v209q-18 -20 -80.5 -35t-134 -24.5t-114.5 -15.5q-138 -17 -226.5 -69t-88.5 -171q0 -104 76.5 -158.5t196.5 -54.5q172 0 271.5 97.5t99.5 221.5zM1115 1707l251 416
h317l-332 -416h-236z" />
    <glyph glyph-name="Oslashacute" unicode="&#x1fe;" horiz-adv-x="2100" 
d="M147 0zM424 -89l-167 114l150 223q-122 135 -191 331t-69 444q0 329 117.5 564.5t322 362t464.5 126.5q279 0 493 -146l137 203l167 -114l-151 -224q120 -135 188 -330.5t68 -441.5q0 -328 -117.5 -563.5t-321.5 -361.5t-463 -126q-277 0 -490 142zM460 1023
q0 -163 33.5 -290.5t92.5 -220.5l791 1171q-138 102 -326 102q-167 0 -300.5 -84.5t-212 -253.5t-78.5 -424zM1640 1023q0 161 -32 287.5t-90 219.5l-790 -1169q138 -98 323 -98q167 0 300.5 84t211 252.5t77.5 423.5zM897 2224l251 416h317l-332 -416h-236z" />
    <glyph glyph-name="oslashacute" unicode="&#x1ff;" horiz-adv-x="1656" 
d="M123 0zM375 -89l-168 114l110 162q-93 105 -143.5 251.5t-50.5 324.5q0 237 87.5 415.5t246 278t371.5 99.5q198 0 353 -88l98 145l168 -114l-108 -160q93 -104 143.5 -250.5t50.5 -325.5q0 -237 -87 -415.5t-245.5 -278.5t-372.5 -100q-198 0 -354 89zM423 763
q0 -90 16 -172t49 -149l541 800q-86 53 -201 53q-140 0 -230 -72.5t-132.5 -193.5t-42.5 -266zM828 231q141 0 230.5 72t132 193t42.5 267q0 90 -16 172.5t-50 149.5l-540 -801q86 -53 201 -53zM634 1704l251 416h317l-332 -416h-236z" />
    <glyph glyph-name="Adblgrave" unicode="&#x200;" horiz-adv-x="1978" 
d="M69 0zM406 0h-337l753 2048h333l753 -2048h-336l-172 496h-822zM977 1642l-305 -878h634l-305 878h-24zM925 2214h-283l-412 365h358zM1334 2214h-263l-337 365h339z" />
    <glyph glyph-name="adblgrave" unicode="&#x201;" horiz-adv-x="1566" 
d="M32 0zM1077 0v184h-12q-24 -47 -77 -97.5t-138.5 -85t-208.5 -34.5q-144 0 -261.5 54.5t-187 159.5t-69.5 254q0 161 81.5 257t219.5 143.5t305 65.5q89 11 166.5 18.5t125.5 27t48 65.5v13q0 149 -79.5 211t-198.5 62q-142 0 -225.5 -65t-116.5 -148l-288 75
q49 140 145 227.5t222.5 128t264.5 40.5q93 0 195 -22t190.5 -79.5t144 -162.5t55.5 -271v-1021h-301zM1069 536v209q-17 -20 -80 -35t-134.5 -24.5t-114.5 -15.5q-138 -17 -226 -69t-88 -171q0 -104 76.5 -158.5t196.5 -54.5q171 0 270.5 97.5t99.5 221.5zM727 1730h-283
l-412 365h358zM1136 1730h-263l-337 365h339z" />
    <glyph glyph-name="Ainvertedbreve" unicode="&#x202;" horiz-adv-x="1978" 
d="M69 0zM406 0h-337l753 2048h333l753 -2048h-336l-172 496h-822zM977 1642l-305 -878h634l-305 878h-24zM1432 2256h-250q0 77 -43.5 134.5t-147.5 57.5q-106 0 -150 -57.5t-44 -134.5h-248q0 171 118.5 279t323.5 108q203 0 322 -108t119 -279z" />
    <glyph glyph-name="ainvertedbreve" unicode="&#x203;" horiz-adv-x="1566" 
d="M123 0zM1077 0v184h-12q-24 -47 -77 -97.5t-138.5 -85t-208.5 -34.5q-144 0 -261.5 54.5t-187 159.5t-69.5 254q0 161 81.5 257t219.5 143.5t305 65.5q89 11 166.5 18.5t125.5 27t48 65.5v13q0 149 -79.5 211t-198.5 62q-142 0 -225.5 -65t-116.5 -148l-288 75
q49 140 145 227.5t222.5 128t264.5 40.5q93 0 195 -22t190.5 -79.5t144 -162.5t55.5 -271v-1021h-301zM1069 536v209q-17 -20 -80 -35t-134.5 -24.5t-114.5 -15.5q-138 -17 -226 -69t-88 -171q0 -104 76.5 -158.5t196.5 -54.5q171 0 270.5 97.5t99.5 221.5zM1234 1772h-250
q0 77 -43.5 134.5t-147.5 57.5q-106 0 -150 -57.5t-44 -134.5h-248q0 171 118.5 279t323.5 108q203 0 322 -108t119 -279z" />
    <glyph glyph-name="Edblgrave" unicode="&#x204;" horiz-adv-x="1664" 
d="M111 0zM1498 272v-272h-1289v2048h1279v-272h-962v-614h846v-273h-846v-617h972zM806 2214h-283l-412 365h358zM1215 2214h-263l-337 365h339z" />
    <glyph glyph-name="edblgrave" unicode="&#x205;" horiz-adv-x="1631" 
d="M61 0zM852 -31q-226 0 -389.5 96.5t-251.5 272.5t-88 414q0 236 86 417t245.5 284t377.5 103q176 0 330 -77t248.5 -243t94.5 -434v-129h-1213v233h912q0 167 -100 278t-273 111q-186 0 -297.5 -141.5t-111.5 -393.5q0 -254 110.5 -391.5t318.5 -137.5q139 0 225 61.5
t124 165.5l284 -78q-32 -110 -114 -204t-212 -150.5t-306 -56.5zM756 1730h-283l-412 365h358zM1165 1730h-263l-337 365h339z" />
    <glyph glyph-name="Einvertedbreve" unicode="&#x206;" horiz-adv-x="1664" 
d="M209 0zM1498 272v-272h-1289v2048h1279v-272h-962v-614h846v-273h-846v-617h972zM1313 2256h-250q0 77 -43.5 134.5t-147.5 57.5q-106 0 -150 -57.5t-44 -134.5h-248q0 171 118.5 279t323.5 108q203 0 322 -108t119 -279z" />
    <glyph glyph-name="einvertedbreve" unicode="&#x207;" horiz-adv-x="1631" 
d="M123 0zM852 -31q-226 0 -389.5 96.5t-251.5 272.5t-88 414q0 236 86 417t245.5 284t377.5 103q176 0 330 -77t248.5 -243t94.5 -434v-129h-1213v233h912q0 167 -100 278t-273 111q-186 0 -297.5 -141.5t-111.5 -393.5q0 -254 110.5 -391.5t318.5 -137.5q139 0 225 61.5
t124 165.5l284 -78q-32 -110 -114 -204t-212 -150.5t-306 -56.5zM1263 1772h-250q0 77 -43.5 134.5t-147.5 57.5q-106 0 -150 -57.5t-44 -134.5h-248q0 171 118.5 279t323.5 108q203 0 322 -108t119 -279z" />
    <glyph glyph-name="Idblgrave" unicode="&#x208;" horiz-adv-x="736" 
d="M0 0zM526 2048v-2048h-317v2048h317zM293 2214h-283l-412 365h358zM702 2214h-263l-337 365h339z" />
    <glyph glyph-name="idblgrave" unicode="&#x209;" horiz-adv-x="693" 
d="M0 0zM500 1536v-1536h-307v1536h307zM290 1722h-283l-412 365h358zM699 1722h-263l-337 365h339z" />
    <glyph glyph-name="Iinvertedbreve" unicode="&#x20a;" horiz-adv-x="736" 
d="M0 0zM526 2048v-2048h-317v2048h317zM800 2256h-250q0 77 -43.5 134.5t-147.5 57.5q-106 0 -150 -57.5t-44 -134.5h-248q0 171 118.5 279t323.5 108q203 0 322 -108t119 -279z" />
    <glyph glyph-name="iinvertedbreve" unicode="&#x20b;" horiz-adv-x="693" 
d="M0 0zM500 1536v-1536h-307v1536h307zM797 1764h-250q0 77 -43.5 134.5t-147.5 57.5q-106 0 -150 -57.5t-44 -134.5h-248q0 171 118.5 279t323.5 108q203 0 322 -108t119 -279z" />
    <glyph glyph-name="Odblgrave" unicode="&#x20c;" horiz-adv-x="2100" 
d="M147 0zM1953 1023q0 -328 -117.5 -563.5t-321.5 -361.5t-463 -126q-260 0 -464.5 126t-322 361.5t-117.5 563.5q0 329 117.5 564.5t322 362t464.5 126.5q259 0 463 -126.5t321.5 -362t117.5 -564.5zM1640 1023q0 255 -77.5 424t-211 253.5t-300.5 84.5t-300.5 -84.5
t-212 -253.5t-78.5 -424t78.5 -423.5t212 -252.5t300.5 -84t300.5 84t211 252.5t77.5 423.5zM987 2214h-283l-412 365h358zM1396 2214h-263l-337 365h339z" />
    <glyph glyph-name="odblgrave" unicode="&#x20d;" horiz-adv-x="1656" 
d="M59 0zM828 -31q-214 0 -372 100t-245.5 278.5t-87.5 415.5t87.5 415.5t245.5 278t372 99.5t372.5 -99.5t245.5 -278t87 -415.5t-87 -415.5t-245.5 -278.5t-372.5 -100zM828 231q141 0 230.5 72t132 193t42.5 267q0 145 -42.5 266t-132 193.5t-230.5 72.5
q-140 0 -230 -72.5t-132.5 -193.5t-42.5 -266q0 -146 42.5 -267t132.5 -193t230 -72zM754 1730h-283l-412 365h358zM1163 1730h-263l-337 365h339z" />
    <glyph glyph-name="Oinvertedbreve" unicode="&#x20e;" horiz-adv-x="2100" 
d="M147 0zM1953 1023q0 -328 -117.5 -563.5t-321.5 -361.5t-463 -126q-260 0 -464.5 126t-322 361.5t-117.5 563.5q0 329 117.5 564.5t322 362t464.5 126.5q259 0 463 -126.5t321.5 -362t117.5 -564.5zM1640 1023q0 255 -77.5 424t-211 253.5t-300.5 84.5t-300.5 -84.5
t-212 -253.5t-78.5 -424t78.5 -423.5t212 -252.5t300.5 -84t300.5 84t211 252.5t77.5 423.5zM1494 2256h-250q0 77 -43.5 134.5t-147.5 57.5q-106 0 -150 -57.5t-44 -134.5h-248q0 171 118.5 279t323.5 108q203 0 322 -108t119 -279z" />
    <glyph glyph-name="oinvertedbreve" unicode="&#x20f;" horiz-adv-x="1656" 
d="M123 0zM828 -31q-214 0 -372 100t-245.5 278.5t-87.5 415.5t87.5 415.5t245.5 278t372 99.5t372.5 -99.5t245.5 -278t87 -415.5t-87 -415.5t-245.5 -278.5t-372.5 -100zM828 231q141 0 230.5 72t132 193t42.5 267q0 145 -42.5 266t-132 193.5t-230.5 72.5
q-140 0 -230 -72.5t-132.5 -193.5t-42.5 -266q0 -146 42.5 -267t132.5 -193t230 -72zM1261 1772h-250q0 77 -43.5 134.5t-147.5 57.5q-106 0 -150 -57.5t-44 -134.5h-248q0 171 118.5 279t323.5 108q203 0 322 -108t119 -279z" />
    <glyph glyph-name="Rdblgrave" unicode="&#x210;" horiz-adv-x="1777" 
d="M138 0zM1347 0l-394 782h-427v-782h-317v2048h718q243 0 398.5 -83t230 -226t74.5 -323q0 -212 -95.5 -353.5t-262.5 -216.5l434 -846h-359zM526 1776v-717h382q223 0 316 97t93 256q0 94 -35 177t-119.5 135t-235.5 52h-401zM833 2214h-283l-412 365h358zM1242 2214
h-263l-337 365h339z" />
    <glyph glyph-name="rdblgrave" unicode="&#x211;" horiz-adv-x="1100" 
d="M0 0zM1079 1507l-99 -275q-17 9 -51 19.5t-82 10.5q-110 0 -188 -58.5t-120.5 -149t-43.5 -185.5v-869h-307v1536h307v-242h15q33 114 136.5 189.5t228.5 75.5q60 0 114.5 -16.5t89.5 -35.5zM504 1730h-283l-412 365h358zM913 1730h-263l-337 365h339z" />
    <glyph glyph-name="Rinvertedbreve" unicode="&#x212;" horiz-adv-x="1777" 
d="M209 0zM1347 0l-394 782h-427v-782h-317v2048h718q243 0 398.5 -83t230 -226t74.5 -323q0 -212 -95.5 -353.5t-262.5 -216.5l434 -846h-359zM526 1776v-717h382q223 0 316 97t93 256q0 94 -35 177t-119.5 135t-235.5 52h-401zM1340 2256h-250q0 77 -43.5 134.5
t-147.5 57.5q-106 0 -150 -57.5t-44 -134.5h-248q0 171 118.5 279t323.5 108q203 0 322 -108t119 -279z" />
    <glyph glyph-name="rinvertedbreve" unicode="&#x213;" horiz-adv-x="1100" 
d="M128 0zM1079 1507l-99 -275q-17 9 -51 19.5t-82 10.5q-110 0 -188 -58.5t-120.5 -149t-43.5 -185.5v-869h-307v1536h307v-242h15q33 114 136.5 189.5t228.5 75.5q60 0 114.5 -16.5t89.5 -35.5zM1011 1772h-250q0 77 -43.5 134.5t-147.5 57.5q-106 0 -150 -57.5
t-44 -134.5h-248q0 171 118.5 279t323.5 108q203 0 322 -108t119 -279z" />
    <glyph glyph-name="Udblgrave" unicode="&#x214;" horiz-adv-x="2034" 
d="M209 0zM1507 2048h317v-1355q0 -231 -107.5 -393t-290 -247.5t-408.5 -85.5t-409.5 85.5t-291.5 247.5t-108 393v1355h317v-1350q0 -140 67 -239t179 -150.5t246 -51.5t245.5 51.5t177.5 150.5t66 239v1350zM953 2214h-283l-412 365h358zM1362 2214h-263l-337 365h339z
" />
    <glyph glyph-name="udblgrave" unicode="&#x215;" horiz-adv-x="1632" 
d="M50 0zM1136 644v892h308v-1536h-296v199h-16q-60 -85 -171 -152t-271 -67q-118 0 -233.5 59.5t-192 188t-76.5 337.5v971h307v-966q0 -154 84.5 -236t214.5 -82q88 0 166 43t127 129.5t49 219.5zM745 1730h-283l-412 365h358zM1154 1730h-263l-337 365h339z" />
    <glyph glyph-name="Uinvertedbreve" unicode="&#x216;" horiz-adv-x="2034" 
d="M209 0zM1507 2048h317v-1355q0 -231 -107.5 -393t-290 -247.5t-408.5 -85.5t-409.5 85.5t-291.5 247.5t-108 393v1355h317v-1350q0 -140 67 -239t179 -150.5t246 -51.5t245.5 51.5t177.5 150.5t66 239v1350zM1460 2256h-250q0 77 -43.5 134.5t-147.5 57.5
q-106 0 -150 -57.5t-44 -134.5h-248q0 171 118.5 279t323.5 108q203 0 322 -108t119 -279z" />
    <glyph glyph-name="uinvertedbreve" unicode="&#x217;" horiz-adv-x="1632" 
d="M188 0zM1136 644v892h308v-1536h-296v199h-16q-60 -85 -171 -152t-271 -67q-118 0 -233.5 59.5t-192 188t-76.5 337.5v971h307v-966q0 -154 84.5 -236t214.5 -82q88 0 166 43t127 129.5t49 219.5zM1252 1772h-250q0 77 -43.5 134.5t-147.5 57.5q-106 0 -150 -57.5
t-44 -134.5h-248q0 171 118.5 279t323.5 108q203 0 322 -108t119 -279z" />
    <glyph glyph-name="Scommaaccent" unicode="&#x218;" horiz-adv-x="1773" 
d="M125 0zM1306 1494q-20 149 -128 228.5t-282 79.5q-182 0 -294 -82.5t-112 -212.5q0 -115 100.5 -185.5t291.5 -126.5l159 -46q290 -85 439 -222.5t149 -361.5q0 -177 -90 -311.5t-256.5 -210.5t-398.5 -76q-215 0 -383.5 71.5t-268 206.5t-107.5 327h317
q12 -166 139 -248t303 -82q196 0 317 91t121 231q0 124 -98 195t-315 136l-184 53q-245 72 -394 206.5t-149 348.5q0 172 95 301t258 200.5t366 71.5q205 0 362 -73.5t248.5 -205t98.5 -303.5h-304zM1024 -148v-158q-2 -143 -43.5 -295t-128.5 -265l-208 63q49 112 81.5 234
t32.5 252v169h266z" />
    <glyph glyph-name="scommaaccent" unicode="&#x219;" horiz-adv-x="1458" 
d="M88 0zM155 1109q0 131 78.5 231.5t211 158t293.5 57.5q223 0 369.5 -109t196.5 -290l-275 -60q-13 38 -42 85t-85 82.5t-152 37.5q-119 3 -201 -50t-82 -138q0 -73 64 -121.5t185 -80.5l184 -47q217 -59 314.5 -179t97.5 -259q0 -122 -69.5 -226.5t-201 -168
t-319.5 -63.5q-183 0 -312.5 58.5t-208.5 154.5t-113 211l281 75q35 -92 112 -163t228 -74q137 -2 216 55.5t79 141.5q0 133 -245 200l-205 54q-208 58 -303.5 176t-95.5 251zM856 -124v-158q-2 -143 -43.5 -295t-128.5 -265l-208 63q49 112 81.5 234t32.5 252v169h266z" />
    <glyph glyph-name="uni021A" unicode="&#x21a;" horiz-adv-x="1801" 
d="M113 0zM1688 2048v-272h-630v-1776h-315v1776h-630v272h1575zM1031 -119v-158q-2 -143 -43.5 -295t-128.5 -265l-208 63q49 112 81.5 234t32.5 252v169h266z" />
    <glyph glyph-name="uni021B" unicode="&#x21b;" horiz-adv-x="1004" 
d="M60 0zM880 1536v-252h-300v-830q0 -130 55 -165t126 -35q34 0 59.5 4t42.5 8l54 -253q-23 -9 -78.5 -21t-140.5 -12q-108 0 -205 47t-158.5 139t-61.5 227v891h-213v252h213v328h307v-328h300zM732 -124v-158q-2 -143 -43.5 -295t-128.5 -265l-208 63q49 112 81.5 234
t32.5 252v169h266z" />
    <glyph glyph-name="uni021C" unicode="&#x21c;" horiz-adv-x="1780" 
d="M300 434v253q325 97 534.5 198t311 233t101.5 323q0 131 -90.5 222t-295.5 91q-143 0 -248.5 -77t-105.5 -207h-340q0 174 96 300t253.5 193.5t344.5 67.5q331 0 528 -146t197 -425q0 -147 -57.5 -275t-164.5 -238q119 -69 185.5 -191.5t66.5 -297.5q0 -240 -98 -416.5
t-275.5 -301t-417.5 -207t-525 -133.5v273q466 93 719.5 275t253.5 516q0 124 -27.5 199t-86.5 116q-166 -109 -383.5 -195t-475.5 -150z" />
    <glyph glyph-name="uni021D" unicode="&#x21d;" horiz-adv-x="1524" 
d="M302 260v241q183 50 343.5 121.5t259.5 177.5t99 257q0 79 -54 141t-190 62q-114 0 -190 -54.5t-76 -138.5h-327q0 139 79.5 239.5t212 155t292.5 54.5q269 0 425 -111.5t156 -324.5q0 -117 -46 -219.5t-129 -190.5q203 -134 203 -411q0 -372 -279 -576t-779 -283v252
q230 62 392.5 138t249 190t86.5 290q0 151 -69 243q-132 -84 -300 -147.5t-359 -105.5z" />
    <glyph glyph-name="uni021E" unicode="&#x21e;" horiz-adv-x="2031" 
d="M209 0zM526 2048v-886h978v886h318v-2048h-318v889h-978v-889h-317v2048h317zM809 2599l228 -222l230 222h251v-15l-390 -381h-183l-388 381v15h252z" />
    <glyph glyph-name="uni021F" unicode="&#x21f;" horiz-adv-x="1617" 
d="M188 0zM495 892v-892h-307v2048h302v-711h16q60 87 169 153t268 66q213 0 350 -146.5t137 -438.5v-971h-308v972q0 147 -74.5 229.5t-208.5 82.5q-137 0 -240.5 -97t-103.5 -295zM660 2640l228 -222l230 222h251v-15l-390 -381h-183l-388 381v15h252z" />
    <glyph glyph-name="uni0220" unicode="&#x220;" horiz-adv-x="1780" 
d="M1622 -572h-331v1950q0 200 -105.5 292.5t-290.5 92.5q-226 0 -406 -110v-1653h-327v2004h327v-82q87 48 194.5 79t231.5 31q189 0 350 -74t259 -219.5t98 -360.5v-1950z" />
    <glyph glyph-name="uni0221" unicode="&#x221;" horiz-adv-x="2113" 
d="M2110 -211q0 -166 -115 -269.5t-324 -103.5q-177 0 -279 71.5t-147 177.5l-209 -204l-164 193l332 311v245h-6q-26 -47 -75.5 -103t-133 -96t-209.5 -40q-182 0 -325 94.5t-225 272.5t-82 427q0 251 83.5 427.5t227 270t324.5 93.5q127 0 209.5 -40.5t131 -96
t74.5 -101.5h16v730h307v-1911q85 21 175 21q188 0 301 -100.5t113 -268.5zM446 768q0 -232 101 -384.5t299 -152.5q196 0 291.5 152t95.5 385q0 232 -95 379.5t-292 147.5q-200 0 -300 -148.5t-100 -378.5zM1506 -192q0 -70 47 -117.5t119 -47.5q64 0 106.5 38.5
t42.5 103.5t-44 100t-117 35q-79 0 -154 -40v-72z" />
    <glyph glyph-name="uni0222" unicode="&#x222;" horiz-adv-x="1780" 
d="M866 1264h48q178 0 294.5 55t116.5 210q0 111 -56 162.5t-165 78.5v262q160 -6 288 -60.5t202 -164t74 -278.5q0 -154 -71 -257t-190 -163q120 -77 189.5 -200.5t69.5 -293.5q0 -213 -100 -356t-272 -215t-388 -72h-30q-216 0 -388.5 71.5t-273 213.5t-100.5 354
q0 172 70 296t191 201q-119 60 -190 163.5t-71 257.5q0 169 74 278.5t201.5 164t286.5 60.5v-262q-109 -27 -164 -78.5t-55 -162.5q0 -155 116.5 -210t292.5 -55zM906 983h-30q-192 0 -305.5 -93.5t-113.5 -278.5q0 -182 113.5 -271.5t305.5 -89.5h30q194 0 305.5 90
t111.5 275q0 181 -111.5 274.5t-305.5 93.5z" />
    <glyph glyph-name="uni0223" unicode="&#x223;" horiz-adv-x="1780" 
d="M914 1244q182 0 299.5 69.5t117.5 255.5q0 136 -60 208.5t-167 113.5v249q159 -4 284.5 -70.5t198.5 -192t73 -305.5q0 -173 -71.5 -287t-192.5 -179q123 -75 193.5 -198t70.5 -296q0 -214 -98.5 -356t-269 -213t-386.5 -71h-30q-216 0 -387 71t-269.5 212.5t-98.5 353.5
q0 175 71 298.5t194 198.5q-121 65 -193 179t-72 287q0 180 73 305.5t198.5 192t283.5 70.5v-249q-106 -41 -165.5 -113.5t-59.5 -208.5q0 -186 118.5 -255.5t296.5 -69.5h48zM906 981h-30q-194 0 -309.5 -94.5t-115.5 -277.5t115.5 -277.5t309.5 -94.5h30q193 0 308.5 95
t115.5 280q0 181 -115.5 275t-308.5 94z" />
    <glyph glyph-name="uni0224" unicode="&#x224;" horiz-adv-x="1770" 
d="M1609 1839l-1063 -1567h629q219 0 341 -123t122 -328v-143h-272v86q0 89 -38.5 162.5t-152.5 73.5h-1015v209l1064 1567h-1072v272h1457v-209z" />
    <glyph glyph-name="zhook" unicode="&#x225;" horiz-adv-x="1517" 
d="M1351 1325l-799 -1060h403q223 0 343 -126.5t120 -325.5v-153h-265v86q0 63 -15 121t-57.5 95.5t-125.5 37.5h-795v219l803 1052h-805v265h1193v-211z" />
    <glyph glyph-name="uni0226" unicode="&#x226;" horiz-adv-x="1978" 
d="M69 0zM406 0h-337l753 2048h333l753 -2048h-336l-172 496h-822zM977 1642l-305 -878h634l-305 878h-24zM813 2404q0 73 45.5 121.5t130.5 48.5t132 -48.5t47 -121.5q0 -70 -47 -117t-132 -47t-130.5 47t-45.5 117z" />
    <glyph glyph-name="uni0227" unicode="&#x227;" horiz-adv-x="1566" 
d="M123 0zM1077 0v184h-12q-24 -47 -77 -97.5t-138.5 -85t-208.5 -34.5q-144 0 -261.5 54.5t-187 159.5t-69.5 254q0 161 81.5 257t219.5 143.5t305 65.5q89 11 166.5 18.5t125.5 27t48 65.5v13q0 149 -79.5 211t-198.5 62q-142 0 -225.5 -65t-116.5 -148l-288 75
q49 140 145 227.5t222.5 128t264.5 40.5q93 0 195 -22t190.5 -79.5t144 -162.5t55.5 -271v-1021h-301zM1069 536v209q-17 -20 -80 -35t-134.5 -24.5t-114.5 -15.5q-138 -17 -226 -69t-88 -171q0 -104 76.5 -158.5t196.5 -54.5q171 0 270.5 97.5t99.5 221.5zM615 1920
q0 73 45.5 121.5t130.5 48.5t132 -48.5t47 -121.5q0 -70 -47 -117t-132 -47t-130.5 47t-45.5 117z" />
    <glyph glyph-name="uni0228" unicode="&#x228;" horiz-adv-x="1664" 
d="M209 0zM1498 272v-272h-1289v2048h1279v-272h-962v-614h846v-273h-846v-617h972zM771 21h238l-16 -77q77 -12 142 -65.5t65 -170.5q0 -136 -113 -221.5t-333 -85.5l-9 188q81 0 135 27.5t54 92.5t-49 88t-158 31z" />
    <glyph glyph-name="uni0229" unicode="&#x229;" horiz-adv-x="1631" 
d="M123 0zM852 -31q-226 0 -389.5 96.5t-251.5 272.5t-88 414q0 236 86 417t245.5 284t377.5 103q176 0 330 -77t248.5 -243t94.5 -434v-129h-1213v233h912q0 167 -100 278t-273 111q-186 0 -297.5 -141.5t-111.5 -393.5q0 -254 110.5 -391.5t318.5 -137.5q139 0 225 61.5
t124 165.5l284 -78q-32 -110 -114 -204t-212 -150.5t-306 -56.5zM711 5h238l-16 -77q77 -12 142 -65.5t65 -170.5q0 -136 -113 -221.5t-333 -85.5l-9 188q81 0 135 27.5t54 92.5t-49 88t-158 31z" />
    <glyph glyph-name="uni022A" unicode="&#x22a;" horiz-adv-x="2100" 
d="M147 0zM1953 1023q0 -328 -117.5 -563.5t-321.5 -361.5t-463 -126q-260 0 -464.5 126t-322 361.5t-117.5 563.5q0 329 117.5 564.5t322 362t464.5 126.5q259 0 463 -126.5t321.5 -362t117.5 -564.5zM1640 1023q0 255 -77.5 424t-211 253.5t-300.5 84.5t-300.5 -84.5
t-212 -253.5t-78.5 -424t78.5 -423.5t212 -252.5t300.5 -84t300.5 84t211 252.5t77.5 423.5zM1524 2867v-216h-943v216h943zM571 2379q0 66 44 111.5t125 45.5t126 -45.5t45 -111.5q0 -65 -45 -109.5t-126 -44.5t-125 44.5t-44 109.5zM1194 2377q0 66 44.5 111.5t126.5 45.5
q80 0 125 -45.5t45 -111.5q0 -65 -45 -109.5t-125 -44.5q-82 0 -126.5 44.5t-44.5 109.5z" />
    <glyph glyph-name="uni022B" unicode="&#x22b;" horiz-adv-x="1656" 
d="M123 0zM828 -31q-214 0 -372 100t-245.5 278.5t-87.5 415.5t87.5 415.5t245.5 278t372 99.5t372.5 -99.5t245.5 -278t87 -415.5t-87 -415.5t-245.5 -278.5t-372.5 -100zM828 231q141 0 230.5 72t132 193t42.5 267q0 145 -42.5 266t-132 193.5t-230.5 72.5
q-140 0 -230 -72.5t-132.5 -193.5t-42.5 -266q0 -146 42.5 -267t132.5 -193t230 -72zM1296 2423v-216h-944v216h944zM336 1892q0 68 45.5 115t126.5 47q80 0 126.5 -47t46.5 -115q0 -67 -46.5 -114t-126.5 -47q-81 0 -126.5 47t-45.5 114zM961 1890q0 68 46 115.5t126 47.5
t126.5 -47.5t46.5 -115.5q0 -67 -46.5 -114t-126.5 -47t-126 47t-46 114z" />
    <glyph glyph-name="uni022C" unicode="&#x22c;" horiz-adv-x="2100" 
d="M147 0zM1953 1023q0 -328 -117.5 -563.5t-321.5 -361.5t-463 -126q-260 0 -464.5 126t-322 361.5t-117.5 563.5q0 329 117.5 564.5t322 362t464.5 126.5q259 0 463 -126.5t321.5 -362t117.5 -564.5zM1640 1023q0 255 -77.5 424t-211 253.5t-300.5 84.5t-300.5 -84.5
t-212 -253.5t-78.5 -424t78.5 -423.5t212 -252.5t300.5 -84t300.5 84t211 252.5t77.5 423.5zM1524 2871v-216h-943v216h943zM1304 2518l140 -40q0 -100 -64 -175t-164 -75q-73 0 -120.5 24t-90 48.5t-102.5 24.5q-42 0 -71 -34.5t-29 -84.5l-141 37q0 99 63.5 176.5
t163.5 77.5q61 0 110 -24.5t97.5 -48.5t105.5 -24q41 0 71.5 34t30.5 84z" />
    <glyph glyph-name="uni022D" unicode="&#x22d;" horiz-adv-x="1656" 
d="M123 0zM828 -31q-214 0 -372 100t-245.5 278.5t-87.5 415.5t87.5 415.5t245.5 278t372 99.5t372.5 -99.5t245.5 -278t87 -415.5t-87 -415.5t-245.5 -278.5t-372.5 -100zM828 231q141 0 230.5 72t132 193t42.5 267q0 145 -42.5 266t-132 193.5t-230.5 72.5
q-140 0 -230 -72.5t-132.5 -193.5t-42.5 -266q0 -146 42.5 -267t132.5 -193t230 -72zM1296 2477v-216h-944v216h944zM1119 2110l203 -17q0 -154 -88 -253t-219 -99q-91 0 -145 31t-103 62t-123 31q-52 0 -88.5 -40t-36.5 -103l-203 11q0 152 87.5 254.5t218.5 102.5
q74 0 131 -31t113 -62t126 -31q53 0 90 39.5t37 104.5z" />
    <glyph glyph-name="uni022E" unicode="&#x22e;" horiz-adv-x="2100" 
d="M147 0zM1953 1023q0 -328 -117.5 -563.5t-321.5 -361.5t-463 -126q-260 0 -464.5 126t-322 361.5t-117.5 563.5q0 329 117.5 564.5t322 362t464.5 126.5q259 0 463 -126.5t321.5 -362t117.5 -564.5zM1640 1023q0 255 -77.5 424t-211 253.5t-300.5 84.5t-300.5 -84.5
t-212 -253.5t-78.5 -424t78.5 -423.5t212 -252.5t300.5 -84t300.5 84t211 252.5t77.5 423.5zM875 2404q0 73 45.5 121.5t130.5 48.5t132 -48.5t47 -121.5q0 -70 -47 -117t-132 -47t-130.5 47t-45.5 117z" />
    <glyph glyph-name="uni022F" unicode="&#x22f;" horiz-adv-x="1656" 
d="M123 0zM828 -31q-214 0 -372 100t-245.5 278.5t-87.5 415.5t87.5 415.5t245.5 278t372 99.5t372.5 -99.5t245.5 -278t87 -415.5t-87 -415.5t-245.5 -278.5t-372.5 -100zM828 231q141 0 230.5 72t132 193t42.5 267q0 145 -42.5 266t-132 193.5t-230.5 72.5
q-140 0 -230 -72.5t-132.5 -193.5t-42.5 -266q0 -146 42.5 -267t132.5 -193t230 -72zM642 1920q0 73 45.5 121.5t130.5 48.5t132 -48.5t47 -121.5q0 -70 -47 -117t-132 -47t-130.5 47t-45.5 117z" />
    <glyph glyph-name="uni0230" unicode="&#x230;" horiz-adv-x="2100" 
d="M147 0zM1953 1023q0 -328 -117.5 -563.5t-321.5 -361.5t-463 -126q-260 0 -464.5 126t-322 361.5t-117.5 563.5q0 329 117.5 564.5t322 362t464.5 126.5q259 0 463 -126.5t321.5 -362t117.5 -564.5zM1640 1023q0 255 -77.5 424t-211 253.5t-300.5 84.5t-300.5 -84.5
t-212 -253.5t-78.5 -424t78.5 -423.5t212 -252.5t300.5 -84t300.5 84t211 252.5t77.5 423.5zM1524 2867v-217h-943v217h943zM882 2381q0 66 44 111.5t125 45.5q82 0 126.5 -45.5t44.5 -111.5q0 -65 -44.5 -109.5t-126.5 -44.5q-81 0 -125 44.5t-44 109.5z" />
    <glyph glyph-name="uni0231" unicode="&#x231;" horiz-adv-x="1656" 
d="M123 0zM828 -31q-214 0 -372 100t-245.5 278.5t-87.5 415.5t87.5 415.5t245.5 278t372 99.5t372.5 -99.5t245.5 -278t87 -415.5t-87 -415.5t-245.5 -278.5t-372.5 -100zM828 231q141 0 230.5 72t132 193t42.5 267q0 145 -42.5 266t-132 193.5t-230.5 72.5
q-140 0 -230 -72.5t-132.5 -193.5t-42.5 -266q0 -146 42.5 -267t132.5 -193t230 -72zM1296 2446v-216h-944v216h944zM640 1906q0 71 46.5 119.5t131.5 48.5q86 0 132.5 -48.5t46.5 -119.5t-46.5 -119t-132.5 -48q-85 0 -131.5 48t-46.5 119z" />
    <glyph glyph-name="uni0232" unicode="&#x232;" horiz-adv-x="1956" 
d="M67 0zM421 2048l545 -928h24l545 928h354l-752 -1224v-824h-317v824l-753 1224h354zM1456 2494v-214h-943v214h943z" />
    <glyph glyph-name="uni0233" unicode="&#x233;" horiz-adv-x="1589" 
d="M78 0zM600 -111l42 112l-564 1535h325l383 -1124h17l383 1124h325l-655 -1775q-58 -157 -175 -257.5t-305 -100.5q-62 0 -111 10t-80 23l73 254q134 -34 208.5 5t133.5 194zM1258 2010v-214h-943v214h943z" />
    <glyph glyph-name="lcurl" unicode="&#x234;" horiz-adv-x="1034" 
d="M495 2048v-1899q100 31 190 31q172 0 282.5 -105.5t110.5 -267.5q0 -161 -112.5 -272t-305.5 -111q-153 0 -262.5 71.5t-162.5 187.5l-210 -204l-173 188l275 267q29 27 61 52v2062h307zM495 -175q0 -70 47 -117t119 -47q61 0 99 41t38 101q0 59 -40 96.5t-109 37.5
q-79 0 -154 -39v-73z" />
    <glyph glyph-name="ncurl" unicode="&#x235;" horiz-adv-x="2012" 
d="M495 879v-879h-307v1536h296v-229h16q58 107 170 178t272 71q140 0 253.5 -61t181 -190t67.5 -334v-664q100 31 190 31q172 0 282.5 -105.5t110.5 -267.5q0 -161 -112.5 -272t-305.5 -111q-152 0 -262 71.5t-164 187.5l-209 -205l-173 188l275 268q29 27 60 51v812
q0 154 -84.5 241.5t-214.5 87.5q-87 0 -165 -46t-127.5 -136t-49.5 -223zM1444 -17q0 -70 47 -117t119 -47q61 0 99 41t38 101q0 59 -40.5 96.5t-108.5 37.5q-79 0 -154 -39v-73z" />
    <glyph glyph-name="tcurl" unicode="&#x236;" horiz-adv-x="1227" 
d="M923 1536v-252h-299v-591q100 31 190 31q172 0 285 -105.5t113 -267.5q0 -161 -115.5 -272t-308.5 -111q-152 0 -261.5 71.5t-163.5 187.5l-210 -204l-172 188l275 267q29 27 60 51v755h-229v252h229v328h308v-328h299zM624 369q0 -70 47 -117t119 -47q60 0 101 41
t41 101q0 59 -43 96.5t-111 37.5q-79 0 -154 -39v-73z" />
    <glyph glyph-name="dotlessj" unicode="&#x237;" horiz-adv-x="747" 
d="M248 1536h307v-1628q0 -234 -129.5 -361t-362.5 -127h-87v265h61q117 0 164 61.5t47 164.5v1625z" />
    <glyph glyph-name="uni0238" unicode="&#x238;" horiz-adv-x="2548" 
d="M138 728v28q0 226 71.5 397t203.5 267t314 96q122 0 217 -42.5t165 -121.5v760h329v-767q70 82 167.5 126.5t224.5 44.5q191 0 321 -96.5t196 -268t66 -394.5v-28q0 -218 -66.5 -389.5t-195.5 -269.5t-317 -98q-129 0 -227 44.5t-169 126.5v-143h-299l-15 153
q-71 -86 -170.5 -133.5t-230.5 -47.5q-178 0 -309.5 99t-203.5 269.5t-72 387.5zM2084 729v28q0 133 -30.5 244t-104.5 178.5t-204 67.5q-116 0 -191 -53t-116 -138v-617q41 -88 116.5 -143t194.5 -55q125 0 198 65.5t105 176t32 246.5zM468 756v-28q0 -134 34 -244.5
t108.5 -176t195.5 -65.5q114 0 187 51.5t116 135.5v637q-43 82 -116.5 131.5t-183.5 49.5q-122 0 -197 -66.5t-109.5 -178t-34.5 -246.5z" />
    <glyph glyph-name="uni0239" unicode="&#x239;" horiz-adv-x="2548" 
d="M138 729v28q0 226 69.5 397t201.5 266.5t320 95.5q129 0 227.5 -45t169.5 -127l17 144h269l14 -150q71 85 170.5 131.5t230.5 46.5q190 0 320 -95t196.5 -265.5t66.5 -396.5v-30q0 -216 -67 -387.5t-196 -270.5t-316 -99q-127 0 -224.5 42.5t-168.5 120.5v-707h-329v698
q-70 -74 -164.5 -114t-216.5 -40q-186 0 -318 99t-202 270t-70 388zM468 757v-28q0 -133 35.5 -245t111 -179.5t196.5 -67.5q111 0 183 47.5t115 124.5v679q-44 75 -116.5 119.5t-178.5 44.5q-122 0 -198.5 -67.5t-112 -180t-35.5 -247.5zM2082 729v30q0 134 -35.5 245
t-112 177t-200.5 66q-109 0 -181 -47t-115 -126v-663q42 -78 114.5 -126t185.5 -48q123 0 198.5 67.5t110.5 179.5t35 245z" />
    <glyph glyph-name="uni023A" unicode="&#x23a;" horiz-adv-x="1978" 
d="M1775 2176l-409 -701l542 -1475h-336l-172 496h-606l-413 -708h-251l124 212h-185l753 2048h333l114 -309l255 437h251zM977 1642l-305 -878h28l380 651l-79 227h-24zM951 764h355l-132 382z" />
    <glyph glyph-name="uni023B" unicode="&#x23b;" horiz-adv-x="2017" 
d="M645 -200l-190 76l96 242q-187 129 -295.5 359t-108.5 543q0 327 117 563t321.5 363t465.5 127q134 0 256 -34l81 205l190 -76l-82 -208q146 -83 247.5 -224t140.5 -332l-312 -20q-22 97 -70.5 171t-116.5 124l-544 -1381q97 -38 210 -38q185 0 329.5 100.5t189.5 294.5
l313 -20q-44 -211 -162.5 -360t-291.5 -227.5t-378 -78.5q-169 0 -318 55zM460 1020q0 -211 55 -363t151 -246l533 1354q-71 17 -148 17q-168 0 -301.5 -85t-211.5 -254.5t-78 -422.5z" />
    <glyph glyph-name="uni023C" unicode="&#x23c;" horiz-adv-x="1531" 
d="M1410 1062l-295 -26q-24 95 -84 159l-360 -949q52 -15 111 -15q128 0 214 66.5t117 182.5l296 -24q-37 -212 -204 -349.5t-423 -137.5q-109 0 -206 27l-216 -568h-210l247 649q-153 101 -236.5 280.5t-83.5 410.5q0 230 86.5 408t244.5 279t371 101q91 0 174 -19l178 467
h207l-204 -537q111 -64 183 -167.5t93 -237.5zM377 768q0 -269 126 -414l355 934q-36 7 -76 7q-190 0 -297.5 -144t-107.5 -383z" />
    <glyph glyph-name="L_bar" unicode="&#x23d;" horiz-adv-x="1650" 
d="M948 1181v-209h-348v-700h913v-272h-1230v972h-251v209h251v867h317v-867h348z" />
    <glyph glyph-name="uni023E" unicode="&#x23e;" horiz-adv-x="1802" 
d="M514 -155l-187 85l418 955v891h-630v272h1139l93 212l187 -84l-56 -128h213v-272h-332l-298 -681v-1095h-316v373zM1061 1776v-169l74 169h-74z" />
    <glyph glyph-name="uni023F" unicode="&#x23f;" horiz-adv-x="1435" 
d="M155 1109q0 131 78.5 231.5t211 158t293.5 57.5q223 0 369.5 -109t196.5 -290l-275 -60q-13 38 -42 85t-85 82.5t-152 37.5q-119 3 -201 -50t-82 -138q0 -73 64 -121.5t185 -80.5l184 -47q217 -59 314.5 -179t97.5 -259q0 -122 -69.5 -226.5t-201 -168t-319.5 -63.5
q-70 0 -134 9q69 -124 113 -189.5t79 -90t76 -24.5q58 0 110.5 30.5t89.5 62.5l110 -190q-56 -52 -140 -102.5t-183 -50.5q-152 0 -252 96.5t-186 247.5l-271 476l14 10q-38 65 -60 139l281 75q35 -92 112 -163t228 -74q137 -2 216 55.5t79 141.5q0 133 -245 200l-205 54
q-208 58 -303.5 176t-95.5 251z" />
    <glyph glyph-name="uni0240" unicode="&#x240;" horiz-adv-x="1514" 
d="M552 265h47q148 0 249 -57.5t171 -142.5t124.5 -170.5t108 -143t121.5 -57.5q59 0 110 28t86 59l110 -204q-53 -53 -137 -103t-194 -50q-116 0 -193.5 58t-137.5 144t-122 172t-145 144t-209 58h-381v219l803 1052h-805v265h1193v-211z" />
    <glyph glyph-name="uni0241" unicode="&#x241;" horiz-adv-x="1524" 
d="M572 0v655h158q140 0 214 66.5t101.5 172.5t27.5 224v165q0 115 -28.5 221.5t-102.5 174.5t-212 68q-137 0 -215 -81.5t-84 -211.5h-323q4 169 83.5 299.5t218 204.5t318.5 74q228 0 381 -102.5t230 -273t77 -373.5v-165q0 -173 -55.5 -322.5t-166.5 -255.5t-277 -147
v-393h-345z" />
    <glyph glyph-name="uni0242" unicode="&#x242;" horiz-adv-x="1524" 
d="M610 638h138q157 0 215.5 89t58.5 217q0 124 -59 216t-214 92q-111 0 -177.5 -83t-66.5 -211h-330q0 166 73.5 291.5t203.5 196t297 70.5q300 0 450 -155t150 -417q0 -192 -99.5 -323.5t-309.5 -165.5v-455h-330v638z" />
    <glyph glyph-name="uni0243" unicode="&#x243;" horiz-adv-x="1872" 
d="M1048 0h-772v485h-254v209h254v1354h733q225 0 372 -73t218.5 -197t71.5 -279q0 -192 -98.5 -291.5t-241.5 -136.5v-19q103 -9 196 -70.5t152.5 -171.5t59.5 -262q0 -158 -74 -282t-226.5 -195t-390.5 -71zM593 1776v-613h398q168 0 270.5 84t102.5 231q0 122 -83 210
t-276 88h-412zM938 694v-209h-345v-213h444q213 0 304 84.5t91 211.5q0 140 -99.5 243t-282.5 103h-457v-220h345z" />
    <glyph glyph-name="uni0244" unicode="&#x244;" horiz-adv-x="2156" 
d="M2130 1179v-196h-235v-290q0 -231 -107.5 -393t-290.5 -247.5t-409 -85.5t-409 85.5t-291 247.5t-108 393v290h-254v196h254v869h317v-869h981v869h317v-869h235zM597 698q0 -140 67 -239t178.5 -150.5t245.5 -51.5t245.5 51.5t178 150.5t66.5 239v285h-981v-285z" />
    <glyph glyph-name="uni0245" unicode="&#x245;" horiz-adv-x="2036" 
d="M1529 0l-512 1573l-507 -1573h-376l721 2004h327l723 -2004h-376z" />
    <glyph glyph-name="uni0246" unicode="&#x246;" horiz-adv-x="1707" 
d="M573 -221l-192 63l51 158h-223v2048h886l70 217l193 -63l-50 -154h180v-272h-268l-199 -614h351v-273h-439l-200 -617h765v-272h-853zM526 1162h282l199 614h-481v-614zM526 889v-599l194 599h-194z" />
    <glyph glyph-name="uni0247" unicode="&#x247;" horiz-adv-x="1606" 
d="M852 -31q-122 0 -228 29l-214 -574h-211l244 654q-153 97 -236.5 270t-83.5 404q0 236 86 417t245.5 284t377.5 103q82 0 157 -15l190 507h209l-214 -574q145 -80 238 -244.5t93 -427.5v-129h-629l-159 -425q62 -17 134 -17q139 0 225 61.5t124 165.5l284 -78
q-32 -110 -114 -204t-212 -150.5t-306 -56.5zM831 1295q-157 0 -262 -102t-136 -287h319l144 384q-31 5 -65 5zM1204 906q0 196 -128 305l-114 -305h242zM426 673q17 -206 120 -320l119 320h-239z" />
    <glyph glyph-name="uni0248" unicode="&#x248;" horiz-adv-x="1568" 
d="M983 598v374h-381v209h381v867h316v-867h219v-209h-219v-374q0 -298 -174.5 -462t-454.5 -164q-173 0 -313.5 66.5t-223 193.5t-82.5 309h312q1 -144 93.5 -222t224.5 -78q77 0 146 33.5t112.5 111.5t43.5 212z" />
    <glyph glyph-name="uni0249" unicode="&#x249;" horiz-adv-x="958" 
d="M486 1712q-86 0 -140 54t-54 128q0 70 54 126t140 56t139 -56t53 -126q0 -74 -53 -128t-139 -54zM943 926v-209h-303v-809q0 -234 -129.5 -361t-362.5 -127h-87v265h61q117 0 164 61.5t47 164.5v806h-306v209h306v610h307v-610h303z" />
    <glyph glyph-name="Q_rthook" unicode="&#x24a;" horiz-adv-x="2158" 
d="M1932 2049v-2186q0 -109 63.5 -147.5t154.5 -38.5q24 0 46 2.5t40 5.5v-248q-32 -7 -75 -10t-92 -3q-115 0 -216.5 43.5t-165 140t-63.5 255.5v398h-16q-79 -142 -228 -217t-337 -75q-269 0 -468.5 135t-308.5 373.5t-109 551.5q0 304 109.5 540.5t308 371.5t465.5 135
q190 0 341 -74.5t226 -210.5h23v258h302zM466 1027q0 -231 69.5 -403t200 -266.5t312.5 -94.5q208 0 351 118t187 295q20 91 30 196t10 157q0 46 -8 142t-32 190q-31 106 -99.5 205t-177.5 163t-264 64q-185 0 -314 -100.5t-197 -274t-68 -391.5z" />
    <glyph glyph-name="qrthook" unicode="&#x24b;" horiz-adv-x="1723" 
d="M1497 1536v-1673q0 -109 63.5 -147.5t154.5 -38.5q24 0 46 2.5t40 5.5v-248q-31 -7 -74.5 -10t-92.5 -3q-114 0 -216 43.5t-165.5 140t-63.5 255.5v347h-16q-26 -47 -75.5 -103t-132.5 -96t-209 -40q-182 0 -325.5 94.5t-225.5 272.5t-82 427q0 251 83.5 427.5t227.5 270
t325 93.5q127 0 209.5 -40.5t130.5 -96t74 -101.5h23v218h301zM422 768q0 -232 100.5 -384.5t298.5 -152.5q197 0 292.5 152t95.5 385q0 232 -95 379.5t-293 147.5q-199 0 -299 -148.5t-100 -378.5z" />
    <glyph glyph-name="uni024C" unicode="&#x24c;" horiz-adv-x="1782" 
d="M1353 0l-394 782h-427v-782h-317v782h-215v277h215v989h717q244 0 399 -83t229.5 -226t74.5 -323q0 -212 -95.5 -354t-262.5 -216l434 -846h-358zM532 1776v-717h381q223 0 316 97t93 256q0 94 -35 177t-120 135t-235 52h-400z" />
    <glyph glyph-name="uni024D" unicode="&#x24d;" horiz-adv-x="1187" 
d="M885 833v-209h-297v-624h-307v624h-312v209h312v703h307v-242h15q33 114 137 189.5t228 75.5q60 0 114.5 -16.5t89.5 -35.5l-99 -275q-17 9 -51 19.5t-82 10.5q-110 0 -188 -58.5t-120 -149t-44 -185.5v-36h297z" />
    <glyph glyph-name="uni024E" unicode="&#x24e;" horiz-adv-x="1956" 
d="M421 2048l249 -423h616l249 423h354l-260 -423h295v-185h-409l-378 -616v-824h-317v824l-379 616h-409v185h295l-260 423h354zM966 1120h24l188 320h-400z" />
    <glyph glyph-name="uni024F" unicode="&#x24f;" horiz-adv-x="1606" 
d="M658 -111l42 112l-322 876h-277v196h204l-170 463h325l158 -463h468l158 463h325l-171 -463h114v-196h-186l-412 -1116q-58 -157 -175 -257.5t-305 -100.5q-62 0 -111.5 10t-79.5 23l73 254q134 -34 208.5 5t133.5 194zM843 412h18l158 465h-335z" />
    <glyph glyph-name="aturn" unicode="&#x250;" horiz-adv-x="1571" 
d="M483 1528v-184h12q24 47 77 97.5t138.5 85t208.5 34.5q144 0 261.5 -54.5t187 -159.5t69.5 -254q0 -161 -81.5 -257t-219.5 -143.5t-305 -65.5q-89 -11 -166.5 -18.5t-125.5 -27t-48 -65.5v-13q0 -149 79.5 -211t198.5 -62q142 0 225.5 65t116.5 148l288 -75
q-49 -141 -145 -228t-222.5 -127.5t-264.5 -40.5q-93 0 -195 22t-190.5 79.5t-144 162.5t-55.5 271v1021h301zM491 992v-209q17 20 80 35t134.5 24.5t114.5 15.5q138 17 226 69t88 171q0 104 -76.5 158.5t-196.5 54.5q-171 0 -270.5 -97.5t-99.5 -221.5z" />
    <glyph glyph-name="ascript" unicode="&#x251;" horiz-adv-x="1622" 
d="M123 702v28q0 234 66.5 414t196.5 282.5t318 102.5q141 0 242.5 -62.5t168.5 -175.5l12 212h279v-1100q0 -115 29 -154.5t73 -39.5q21 0 37 7l33 -202q-45 -28 -86.5 -35t-87.5 -7q-113 0 -180 60.5t-96 193.5q-67 -120 -172 -187t-253 -67q-187 0 -316 94t-196.5 259
t-67.5 377zM424 730v-28q0 -200 91.5 -331.5t269.5 -131.5q142 0 217.5 82.5t103.5 197.5l2 433q-27 126 -101.5 218.5t-217.5 92.5q-122 0 -203 -71.5t-121.5 -192.5t-40.5 -269z" />
    <glyph glyph-name="ascriptturn" unicode="&#x252;" horiz-adv-x="1780" 
d="M616 -1h-282v1045q0 116 -29 153.5t-73 37.5q-11 0 -20 -2t-15 -2l-32 242q43 27 85 35t90 8q105 0 179.5 -53.5t111.5 -168.5q67 105 167.5 163t240.5 58q185 0 315 -93t197.5 -256.5t67.5 -374.5v-28q0 -231 -67.5 -410t-197.5 -280.5t-319 -101.5q-132 0 -229 54.5
t-164 153.5zM1289 763v28q0 129 -32.5 233t-106 165.5t-196.5 61.5q-109 0 -179 -52.5t-112 -139.5v-15v-611q43 -89 113.5 -143t175.5 -54q122 0 196.5 72t107.5 192t33 263z" />
    <glyph glyph-name="bhook" unicode="&#x253;" horiz-adv-x="1685" 
d="M718 1823q-90 0 -156.5 -38.5t-66.5 -147.5v-319h19q26 46 73.5 101.5t129 96t209.5 40.5q181 0 324.5 -93.5t227 -270t83.5 -427.5q0 -249 -82 -427t-225 -272.5t-325 -94.5q-127 0 -209 40t-131 96t-75 103h-26v-210h-300v1637q0 161 64.5 257.5t167 139t217.5 42.5
q49 0 92 -3t75 -10v-248q-18 3 -40 5.5t-46 2.5zM1263 768q0 230 -100 378.5t-300 148.5q-197 0 -292 -147.5t-95 -379.5q0 -233 95 -385t292 -152q198 0 299 152.5t101 384.5z" />
    <glyph glyph-name="oopen" unicode="&#x254;" horiz-adv-x="1524" 
d="M121 491h310q8 -110 92.5 -182t206.5 -72q140 0 214.5 70.5t103 181t28.5 231.5v48q0 120 -29 231t-104 182t-213 71q-137 0 -214 -87.5t-85 -206.5h-310q5 162 82 288t211.5 198t313.5 72q228 0 378 -102.5t223.5 -272.5t73.5 -373v-48q0 -204 -73.5 -374t-223.5 -272
t-380 -102q-164 0 -299 70.5t-218 188.5t-88 260z" />
    <glyph glyph-name="ccurl" unicode="&#x255;" horiz-adv-x="1558" 
d="M827 231q113 0 198 48t85 133q0 59 -42.5 88t-86.5 29q-91 0 -194 -60t-205 -150q100 -88 245 -88zM1455 1062l-294 -26q-27 107 -109.5 183t-224.5 76q-190 0 -297.5 -144t-107.5 -383q0 -113 24 -207q129 101 269 163t287 62q212 0 309 -103.5t97 -251.5
q0 -133 -72 -237t-202.5 -164.5t-306.5 -60.5q-134 0 -246 40t-198 113q-53 -57 -100 -112.5t-87 -103.5l-205 172q51 68 106.5 135t114.5 131q-90 184 -90 424q0 230 86.5 408t244.5 279t371 101q252 0 424 -135t207 -359z" />
    <glyph glyph-name="drthook" unicode="&#x256;" horiz-adv-x="1757" 
d="M1189 2048h308v-2185q0 -109 63.5 -147.5t154.5 -38.5q24 0 46 2.5t40 5.5v-248q-31 -7 -74.5 -10t-92.5 -3q-114 0 -216 43.5t-165.5 140t-63.5 255.5v347h-16q-26 -47 -75.5 -103t-132.5 -96t-209 -40q-182 0 -325.5 94.5t-225.5 272.5t-82 427q0 251 83.5 427.5
t227.5 270t325 93.5q127 0 209.5 -40.5t130.5 -96t74 -101.5h16v730zM422 768q0 -232 100.5 -384.5t298.5 -152.5q197 0 292.5 152t95.5 385q0 232 -95 379.5t-293 147.5q-199 0 -299 -148.5t-100 -378.5z" />
    <glyph glyph-name="dhook" unicode="&#x257;" horiz-adv-x="1751" 
d="M1497 0h-301v210h-25q-26 -47 -75 -103t-131.5 -96t-208.5 -40q-182 0 -325.5 94.5t-225.5 272.5t-82 427q0 251 83.5 427.5t227.5 270t325 93.5q127 0 209 -40.5t129.5 -96t73.5 -101.5h18v321q0 161 67.5 258t172.5 139.5t218 42.5q102 0 167 -18v-250q-20 6 -43.5 8
t-42.5 2q-56 0 -109.5 -12.5t-87.5 -51.5t-34 -118v-1639zM422 768q0 -232 100.5 -384.5t298.5 -152.5q197 0 292.5 152t95.5 385q0 232 -95 379.5t-293 147.5q-199 0 -299 -148.5t-100 -378.5z" />
    <glyph glyph-name="erev" unicode="&#x258;" horiz-adv-x="1524" 
d="M705 -28q-222 0 -360.5 88t-212.5 195l181 166q66 -85 158.5 -134.5t216.5 -49.5q190 0 294 131.5t104 324.5v55q0 234 -89.5 369t-250.5 135q-112 0 -178.5 -49.5t-96.5 -128t-35 -166.5v-25h812v-242h-1138v142q0 213 68 378.5t209 260t358 94.5q187 0 339 -93.5
t242 -266t90 -408.5v-55q0 -205 -85.5 -368.5t-245 -258t-380.5 -94.5z" />
    <glyph glyph-name="schwa" unicode="&#x259;" horiz-adv-x="1524" 
d="M708 1519q214 0 368.5 -96t238.5 -263.5t84 -379.5v-55q0 -218 -86 -388t-233.5 -267.5t-331.5 -97.5q-208 0 -346 85.5t-206.5 237t-68.5 350.5v195h1104v-243h-778v-36q0 -132 69.5 -226.5t225.5 -94.5q100 0 172 65.5t110.5 175.5t38.5 244v55q0 130 -41.5 238
t-125.5 172.5t-212 64.5q-148 0 -245 -38.5t-173 -91.5l-106 216q73 63 207.5 120.5t334.5 57.5z" />
    <glyph glyph-name="schwahook" unicode="&#x25a;" horiz-adv-x="2118" 
d="M703 1516q257 0 429.5 -127.5t240.5 -333.5l300 61q19 -126 40 -219t60 -144.5t115 -51.5q55 0 82 4l43 -203q-42 -20 -91.5 -34.5t-101.5 -14.5q-120 0 -189.5 51.5t-105.5 136.5t-58 188l-55 -12v-20v-57q0 -235 -90 -407.5t-242 -266.5t-338 -94q-217 0 -357.5 95
t-209 261t-68.5 380v86l945 198q-42 116 -135.5 188t-231.5 72q-123 0 -216.5 -50t-159.5 -135l-180 167q73 106 212 194t362 88zM433 580q0 -88 30.5 -166t99 -127.5t181.5 -49.5q161 0 250.5 134.5t89.5 368.5v8l-651 -132v-36z" />
    <glyph glyph-name="epsilon1" unicode="&#x25b;" horiz-adv-x="1606" 
d="M818 880h274v-238h-274q-147 0 -227.5 -49t-80.5 -159q0 -80 82 -143t233 -63q149 0 234.5 65t85.5 150h326q0 -163 -94 -267.5t-239.5 -154t-302.5 -49.5q-187 0 -334.5 53.5t-233 154t-85.5 240.5q0 129 73 216.5t208 130.5q-119 48 -187 131t-68 182q0 213 173 324.5
t454 111.5q167 0 306.5 -54.5t223 -155t83.5 -239.5h-327q0 84 -85.5 138.5t-209.5 54.5q-149 0 -218.5 -61t-69.5 -132q0 -83 66.5 -135t213.5 -52z" />
    <glyph glyph-name="epsilon1rev" unicode="&#x25c;" horiz-adv-x="1524" 
d="M773 642h-274v238h274q145 0 212.5 52t67.5 135q0 71 -68.5 132t-220.5 61q-124 0 -208 -54.5t-84 -138.5h-328q0 139 83.5 239.5t222 155t305.5 54.5q279 0 453.5 -111.5t174.5 -324.5q0 -100 -68.5 -182.5t-188.5 -130.5q135 -44 208 -131.5t73 -215.5
q0 -140 -85.5 -240.5t-233 -154t-333.5 -53.5q-155 0 -301.5 49.5t-241 154t-94.5 267.5h330q0 -85 84 -150t232 -65q152 0 233 63t81 143q0 110 -79 159t-226 49z" />
    <glyph glyph-name="epsilon1revhook" unicode="&#x25d;" horiz-adv-x="2118" 
d="M761 642h-274v238h274q145 0 212.5 52t67.5 135q0 71 -69 132t-221 61q-123 0 -207.5 -54.5t-84.5 -138.5h-327q0 139 83 239.5t221.5 155t305.5 54.5q223 0 381.5 -71t216.5 -208l334 68q20 -125 40.5 -219t59.5 -146t114 -52q31 0 49.5 2t32.5 5l43 -204
q-90 -48 -192 -48q-121 0 -190 51t-105 136t-59 186l-111 -24q-51 -148 -242 -225q135 -44 208 -131.5t73 -215.5q0 -140 -85.5 -240.5t-233.5 -154t-334 -53.5q-155 0 -301 49.5t-240.5 154t-94.5 267.5h329q0 -85 83.5 -150t232.5 -65q151 0 233 63t82 143q0 110 -79 159
t-226 49z" />
    <glyph glyph-name="epsilon1revclosed" unicode="&#x25e;" horiz-adv-x="1524" 
d="M1387 420q0 -210 -169.5 -329t-440.5 -119q-112 0 -224.5 35.5t-206.5 122.5t-151 240t-57 388v0v3v1v0q1 216 55.5 361.5t146 232t205 123.5t232.5 37q271 0 427 -111.5t156 -324.5q0 -99 -60 -182t-169 -131q256 -89 256 -347zM797 642h-119v238h119q130 0 183 52
t53 135q0 71 -55.5 132t-191.5 61q-84 0 -157 -44.5t-118.5 -153.5t-45.5 -302q1 -292 87.5 -413.5t233.5 -121.5q140 0 206 64.5t66 144.5q0 110 -64.5 159t-196.5 49z" />
    <glyph glyph-name="jdotlessbar" unicode="&#x25f;" horiz-adv-x="943" 
d="M938 209v-209h-307v-92q0 -234 -129.5 -361t-362.5 -127h-87v265h61q117 0 164 61.5t47 164.5v89h-302v209h302v1327h307v-1327h307z" />
    <glyph glyph-name="ghook" unicode="&#x260;" horiz-adv-x="1736" 
d="M1720 1823q-90 0 -156.5 -38.5t-66.5 -147.5v-1623q0 -202 -93.5 -334t-251.5 -196t-350 -64q-233 0 -387.5 84t-223.5 187l189 190q36 -37 89 -83.5t133 -80.5t195 -34q167 0 282.5 85.5t113.5 269.5v217h-21q-24 -41 -71 -95t-130 -93.5t-215 -39.5q-176 0 -319.5 84.5
t-228.5 251.5t-85 414q0 245 83.5 419t227.5 267t325 93q127 0 209.5 -40.5t130.5 -96t74 -101.5h23v319q0 159 63 255.5t164 140t216 43.5q49 0 92 -3t75 -10v-248q-18 3 -40 5.5t-46 2.5zM422 780q0 -227 102.5 -361t296.5 -134q193 0 290.5 133t97.5 362q0 223 -96 369
t-292 146q-199 0 -299 -147.5t-100 -367.5z" />
    <glyph glyph-name="gcursive" unicode="&#x261;" horiz-adv-x="1699" 
d="M1181 1533h301v-1519q0 -202 -94 -334t-251.5 -196t-349.5 -64q-233 0 -387.5 84t-223.5 187l189 190q36 -37 89 -83.5t132.5 -80.5t195.5 -34q166 0 282 85.5t114 269.5v217h-21q-24 -41 -71 -95t-130.5 -93.5t-214.5 -39.5q-176 0 -319.5 84.5t-228.5 251.5t-85 414
q0 245 83.5 419t227 267t325.5 93q128 0 210 -40.5t130 -96t74 -101.5h23v215zM407 780q0 -227 102.5 -361t296.5 -134q193 0 290.5 133t97.5 362q0 223 -96 369t-292 146q-200 0 -299.5 -147.5t-99.5 -367.5z" />
    <glyph glyph-name="Gsmallcap" unicode="&#x262;" horiz-adv-x="1780" 
d="M1572 778v-559q-40 -50 -121.5 -107.5t-212 -98t-321.5 -40.5q-215 0 -378.5 84t-255.5 233.5t-92 345.5v224q0 194 91.5 342t252.5 231t369 83q313 0 475.5 -139t186.5 -374h-310q-37 253 -352 253q-116 0 -207.5 -52t-144.5 -141t-53 -202v-225q0 -171 115.5 -285
t302.5 -114q149 0 238 33.5t124 59.5v205h-355v243h648z" />
    <glyph glyph-name="gamma1" unicode="&#x263;" horiz-adv-x="1712" 
d="M855 -600q-185 0 -304 86.5t-119 255.5q0 50 22 117t60 141l775 1521h325l-694 -1383q-75 -152 -121.5 -237.5t-46.5 -145.5q0 -42 26.5 -71.5t76.5 -29.5q51 0 77 30.5t26 70.5q0 60 -40.5 145.5t-119.5 245.5l-698 1375h325l770 -1518q40 -80 57 -148.5t17 -112.5
q0 -169 -114.5 -255.5t-299.5 -86.5z" />
    <glyph glyph-name="babygamma" unicode="&#x264;" horiz-adv-x="1955" 
d="M894 317q0 -35 18 -62.5t65 -27.5t65 27.5t18 62.5q0 38 -22.5 87.5t-60.5 115.5q-38 -66 -60.5 -115.5t-22.5 -87.5zM300 1107l-183 200q69 82 158 145.5t230 63.5q144 0 257 -108t215 -273q103 165 216.5 273t260.5 108q137 0 227.5 -63.5t159.5 -145.5l-183 -200
q-35 43 -74.5 73t-83.5 30q-53 0 -97.5 -33t-101.5 -116.5t-145 -235.5q96 -166 156 -287t60 -230q0 -161 -105.5 -248.5t-289.5 -87.5q-181 0 -288 87.5t-107 248.5q0 109 60.5 230.5t156.5 287.5q-88 153 -144 236t-100.5 115.5t-97.5 32.5q-45 0 -84 -30t-73 -73z" />
    <glyph glyph-name="hturn" unicode="&#x265;" horiz-adv-x="1617" 
d="M1112 644v892h307v-2048h-302v711h-16q-60 -87 -169 -153t-268 -66q-213 0 -350 146.5t-137 438.5v971h308v-972q0 -147 74.5 -229.5t208.5 -82.5q137 0 240.5 97t103.5 295z" />
    <glyph glyph-name="hhook" unicode="&#x266;" horiz-adv-x="1617" 
d="M495 892v-892h-307v1637q0 159 63 255.5t164 140t215 43.5q48 0 91 -3t75 -10v-248q-17 3 -39.5 5.5t-46.5 2.5q-90 0 -153.5 -38.5t-63.5 -147.5v-220h-3v-80h16q60 87 169 153t268 66q213 0 350 -146.5t137 -438.5v-971h-308v972q0 147 -74.5 229.5t-208.5 82.5
q-137 0 -240.5 -97t-103.5 -295z" />
    <glyph glyph-name="henghook" unicode="&#x267;" horiz-adv-x="1617" 
d="M495 892v-892h-307v1637q0 159 63 255.5t164 140t215 43.5q48 0 91 -3t75 -10v-248q-17 3 -39.5 5.5t-46.5 2.5q-90 0 -153.5 -38.5t-63.5 -147.5v-220h-3v-80h16q60 87 169 153t268 66q213 0 350 -146.5t137 -438.5v-1108q0 -159 -63.5 -255.5t-165 -140t-216.5 -43.5
q-49 0 -92 3t-75 10v248q18 -3 40.5 -5.5t46.5 -2.5q90 0 153.5 38.5t63.5 147.5v1109q0 147 -74.5 229.5t-208.5 82.5q-137 0 -240.5 -97t-103.5 -295z" />
    <glyph glyph-name="ibar" unicode="&#x268;" horiz-adv-x="1018" 
d="M523 1712q-85 0 -139.5 54t-54.5 128q0 70 54.5 126t139.5 56t138.5 -56t53.5 -126q0 -74 -53.5 -128t-138.5 -54zM967 926v-209h-290v-717h-307v717h-319v209h319v610h307v-610h290z" />
    </font>
</defs>
</svg>
